%TF.GenerationSoftware,KiCad,Pcbnew,8.0.3-8.0.3-0~ubuntu22.04.1*%
%TF.CreationDate,2024-07-16T20:39:51+09:00*%
%TF.ProjectId,PCA9685_ver3,50434139-3638-4355-9f76-6572332e6b69,rev?*%
%TF.SameCoordinates,Original*%
%TF.FileFunction,Copper,L1,Top*%
%TF.FilePolarity,Positive*%
%FSLAX46Y46*%
G04 Gerber Fmt 4.6, Leading zero omitted, Abs format (unit mm)*
G04 Created by KiCad (PCBNEW 8.0.3-8.0.3-0~ubuntu22.04.1) date 2024-07-16 20:39:51*
%MOMM*%
%LPD*%
G01*
G04 APERTURE LIST*
G04 Aperture macros list*
%AMRoundRect*
0 Rectangle with rounded corners*
0 $1 Rounding radius*
0 $2 $3 $4 $5 $6 $7 $8 $9 X,Y pos of 4 corners*
0 Add a 4 corners polygon primitive as box body*
4,1,4,$2,$3,$4,$5,$6,$7,$8,$9,$2,$3,0*
0 Add four circle primitives for the rounded corners*
1,1,$1+$1,$2,$3*
1,1,$1+$1,$4,$5*
1,1,$1+$1,$6,$7*
1,1,$1+$1,$8,$9*
0 Add four rect primitives between the rounded corners*
20,1,$1+$1,$2,$3,$4,$5,0*
20,1,$1+$1,$4,$5,$6,$7,0*
20,1,$1+$1,$6,$7,$8,$9,0*
20,1,$1+$1,$8,$9,$2,$3,0*%
%AMFreePoly0*
4,1,19,0.500000,-0.750000,0.000000,-0.750000,0.000000,-0.744911,-0.071157,-0.744911,-0.207708,-0.704816,-0.327430,-0.627875,-0.420627,-0.520320,-0.479746,-0.390866,-0.500000,-0.250000,-0.500000,0.250000,-0.479746,0.390866,-0.420627,0.520320,-0.327430,0.627875,-0.207708,0.704816,-0.071157,0.744911,0.000000,0.744911,0.000000,0.750000,0.500000,0.750000,0.500000,-0.750000,0.500000,-0.750000,
$1*%
%AMFreePoly1*
4,1,19,0.000000,0.744911,0.071157,0.744911,0.207708,0.704816,0.327430,0.627875,0.420627,0.520320,0.479746,0.390866,0.500000,0.250000,0.500000,-0.250000,0.479746,-0.390866,0.420627,-0.520320,0.327430,-0.627875,0.207708,-0.704816,0.071157,-0.744911,0.000000,-0.744911,0.000000,-0.750000,-0.500000,-0.750000,-0.500000,0.750000,0.000000,0.750000,0.000000,0.744911,0.000000,0.744911,
$1*%
G04 Aperture macros list end*
%TA.AperFunction,SMDPad,CuDef*%
%ADD10RoundRect,0.062500X0.187500X0.062500X-0.187500X0.062500X-0.187500X-0.062500X0.187500X-0.062500X0*%
%TD*%
%TA.AperFunction,SMDPad,CuDef*%
%ADD11R,0.350000X2.000000*%
%TD*%
%TA.AperFunction,SMDPad,CuDef*%
%ADD12R,0.350000X0.300000*%
%TD*%
%TA.AperFunction,SMDPad,CuDef*%
%ADD13RoundRect,0.062500X-0.187500X-0.062500X0.187500X-0.062500X0.187500X0.062500X-0.187500X0.062500X0*%
%TD*%
%TA.AperFunction,SMDPad,CuDef*%
%ADD14RoundRect,0.135000X0.135000X0.185000X-0.135000X0.185000X-0.135000X-0.185000X0.135000X-0.185000X0*%
%TD*%
%TA.AperFunction,SMDPad,CuDef*%
%ADD15RoundRect,0.135000X-0.135000X-0.185000X0.135000X-0.185000X0.135000X0.185000X-0.135000X0.185000X0*%
%TD*%
%TA.AperFunction,ComponentPad*%
%ADD16R,1.700000X1.700000*%
%TD*%
%TA.AperFunction,ComponentPad*%
%ADD17O,1.700000X1.700000*%
%TD*%
%TA.AperFunction,SMDPad,CuDef*%
%ADD18RoundRect,0.250000X0.450000X-0.262500X0.450000X0.262500X-0.450000X0.262500X-0.450000X-0.262500X0*%
%TD*%
%TA.AperFunction,SMDPad,CuDef*%
%ADD19FreePoly0,270.000000*%
%TD*%
%TA.AperFunction,SMDPad,CuDef*%
%ADD20FreePoly1,270.000000*%
%TD*%
%TA.AperFunction,SMDPad,CuDef*%
%ADD21RoundRect,0.135000X0.185000X-0.135000X0.185000X0.135000X-0.185000X0.135000X-0.185000X-0.135000X0*%
%TD*%
%TA.AperFunction,SMDPad,CuDef*%
%ADD22RoundRect,0.225000X0.250000X-0.225000X0.250000X0.225000X-0.250000X0.225000X-0.250000X-0.225000X0*%
%TD*%
%TA.AperFunction,SMDPad,CuDef*%
%ADD23RoundRect,0.100000X-0.637500X-0.100000X0.637500X-0.100000X0.637500X0.100000X-0.637500X0.100000X0*%
%TD*%
%TA.AperFunction,SMDPad,CuDef*%
%ADD24RoundRect,0.250000X-0.475000X0.250000X-0.475000X-0.250000X0.475000X-0.250000X0.475000X0.250000X0*%
%TD*%
%TA.AperFunction,ViaPad*%
%ADD25C,0.600000*%
%TD*%
%TA.AperFunction,Conductor*%
%ADD26C,0.100000*%
%TD*%
%TA.AperFunction,Conductor*%
%ADD27C,0.200000*%
%TD*%
G04 APERTURE END LIST*
D10*
%TO.P,U10,1,VM*%
%TO.N,+5V*%
X156625000Y-72250000D03*
%TO.P,U10,2,AOUT1*%
%TO.N,Net-(J4-Pin_4)*%
X156625000Y-71750000D03*
%TO.P,U10,3,AOUT2*%
%TO.N,Net-(J4-Pin_3)*%
X156625000Y-71250000D03*
%TO.P,U10,4,BOUT1*%
%TO.N,Net-(J4-Pin_2)*%
X156625000Y-70750000D03*
%TO.P,U10,5,BOUT2*%
%TO.N,Net-(J4-Pin_1)*%
X156625000Y-70250000D03*
%TO.P,U10,6,GND*%
%TO.N,A4*%
X156625000Y-69750000D03*
%TO.P,U10,7,BIN2*%
%TO.N,HIN2_2*%
X154750000Y-69750000D03*
%TO.P,U10,8,BIN1*%
%TO.N,HIN1_2*%
X154750000Y-70250000D03*
%TO.P,U10,9,AIN2*%
%TO.N,GIN2_2*%
X154750000Y-70750000D03*
%TO.P,U10,10,AIN1*%
%TO.N,GIN1_2*%
X154750000Y-71250000D03*
%TO.P,U10,11,MODE*%
%TO.N,A4*%
X154750000Y-71750000D03*
%TO.P,U10,12,VCC*%
%TO.N,+3V3*%
X154750000Y-72245000D03*
D11*
%TO.P,U10,13,GND*%
%TO.N,A4*%
X155700000Y-71000000D03*
D12*
%TO.P,U10,14,GND*%
X155700000Y-72350000D03*
%TO.P,U10,15,GND*%
X155700000Y-69650000D03*
%TD*%
D10*
%TO.P,U9,1,VM*%
%TO.N,+5V*%
X156625000Y-76250000D03*
%TO.P,U9,2,AOUT1*%
%TO.N,Net-(J4-Pin_8)*%
X156625000Y-75750000D03*
%TO.P,U9,3,AOUT2*%
%TO.N,Net-(J4-Pin_7)*%
X156625000Y-75250000D03*
%TO.P,U9,4,BOUT1*%
%TO.N,Net-(J4-Pin_6)*%
X156625000Y-74750000D03*
%TO.P,U9,5,BOUT2*%
%TO.N,Net-(J4-Pin_5)*%
X156625000Y-74250000D03*
%TO.P,U9,6,GND*%
%TO.N,A4*%
X156625000Y-73750000D03*
%TO.P,U9,7,BIN2*%
%TO.N,FIN2_2*%
X154750000Y-73750000D03*
%TO.P,U9,8,BIN1*%
%TO.N,FIN1_2*%
X154750000Y-74250000D03*
%TO.P,U9,9,AIN2*%
%TO.N,EIN2_2*%
X154750000Y-74750000D03*
%TO.P,U9,10,AIN1*%
%TO.N,EIN1_2*%
X154750000Y-75250000D03*
%TO.P,U9,11,MODE*%
%TO.N,A4*%
X154750000Y-75750000D03*
%TO.P,U9,12,VCC*%
%TO.N,+3V3*%
X154750000Y-76245000D03*
D11*
%TO.P,U9,13,GND*%
%TO.N,A4*%
X155700000Y-75000000D03*
D12*
%TO.P,U9,14,GND*%
X155700000Y-76350000D03*
%TO.P,U9,15,GND*%
X155700000Y-73650000D03*
%TD*%
D10*
%TO.P,U6,1,VM*%
%TO.N,+5V*%
X156625000Y-82500000D03*
%TO.P,U6,2,AOUT1*%
%TO.N,Net-(J3-Pin_4)*%
X156625000Y-82000000D03*
%TO.P,U6,3,AOUT2*%
%TO.N,Net-(J3-Pin_3)*%
X156625000Y-81500000D03*
%TO.P,U6,4,BOUT1*%
%TO.N,Net-(J3-Pin_2)*%
X156625000Y-81000000D03*
%TO.P,U6,5,BOUT2*%
%TO.N,Net-(J3-Pin_1)*%
X156625000Y-80500000D03*
%TO.P,U6,6,GND*%
%TO.N,A4*%
X156625000Y-80000000D03*
%TO.P,U6,7,BIN2*%
%TO.N,HIN2*%
X154750000Y-80000000D03*
%TO.P,U6,8,BIN1*%
%TO.N,HIN1*%
X154750000Y-80500000D03*
%TO.P,U6,9,AIN2*%
%TO.N,GIN2*%
X154750000Y-81000000D03*
%TO.P,U6,10,AIN1*%
%TO.N,GIN1*%
X154750000Y-81500000D03*
%TO.P,U6,11,MODE*%
%TO.N,A4*%
X154750000Y-82000000D03*
%TO.P,U6,12,VCC*%
%TO.N,+3V3*%
X154750000Y-82495000D03*
D11*
%TO.P,U6,13,GND*%
%TO.N,A4*%
X155700000Y-81250000D03*
D12*
%TO.P,U6,14,GND*%
X155700000Y-82600000D03*
%TO.P,U6,15,GND*%
X155700000Y-79900000D03*
%TD*%
D10*
%TO.P,U5,1,VM*%
%TO.N,+5V*%
X156625000Y-86500000D03*
%TO.P,U5,2,AOUT1*%
%TO.N,Net-(J3-Pin_8)*%
X156625000Y-86000000D03*
%TO.P,U5,3,AOUT2*%
%TO.N,Net-(J3-Pin_7)*%
X156625000Y-85500000D03*
%TO.P,U5,4,BOUT1*%
%TO.N,Net-(J3-Pin_6)*%
X156625000Y-85000000D03*
%TO.P,U5,5,BOUT2*%
%TO.N,Net-(J3-Pin_5)*%
X156625000Y-84500000D03*
%TO.P,U5,6,GND*%
%TO.N,A4*%
X156625000Y-84000000D03*
%TO.P,U5,7,BIN2*%
%TO.N,FIN2*%
X154750000Y-84000000D03*
%TO.P,U5,8,BIN1*%
%TO.N,FIN1*%
X154750000Y-84500000D03*
%TO.P,U5,9,AIN2*%
%TO.N,EIN2*%
X154750000Y-85000000D03*
%TO.P,U5,10,AIN1*%
%TO.N,EIN1*%
X154750000Y-85500000D03*
%TO.P,U5,11,MODE*%
%TO.N,A4*%
X154750000Y-86000000D03*
%TO.P,U5,12,VCC*%
%TO.N,+3V3*%
X154750000Y-86495000D03*
D11*
%TO.P,U5,13,GND*%
%TO.N,A4*%
X155700000Y-85250000D03*
D12*
%TO.P,U5,14,GND*%
X155700000Y-86600000D03*
%TO.P,U5,15,GND*%
X155700000Y-83900000D03*
%TD*%
D13*
%TO.P,U4,1,VM*%
%TO.N,+5V*%
X138875000Y-84500000D03*
%TO.P,U4,2,AOUT1*%
%TO.N,Net-(J6-Pin_4)*%
X138875000Y-85000000D03*
%TO.P,U4,3,AOUT2*%
%TO.N,Net-(J6-Pin_3)*%
X138875000Y-85500000D03*
%TO.P,U4,4,BOUT1*%
%TO.N,Net-(J6-Pin_2)*%
X138875000Y-86000000D03*
%TO.P,U4,5,BOUT2*%
%TO.N,Net-(J6-Pin_1)*%
X138875000Y-86500000D03*
%TO.P,U4,6,GND*%
%TO.N,A4*%
X138875000Y-87000000D03*
%TO.P,U4,7,BIN2*%
%TO.N,DIN2*%
X140750000Y-87000000D03*
%TO.P,U4,8,BIN1*%
%TO.N,DIN1*%
X140750000Y-86500000D03*
%TO.P,U4,9,AIN2*%
%TO.N,CIN2*%
X140750000Y-86000000D03*
%TO.P,U4,10,AIN1*%
%TO.N,CIN1*%
X140750000Y-85500000D03*
%TO.P,U4,11,MODE*%
%TO.N,A4*%
X140750000Y-85000000D03*
%TO.P,U4,12,VCC*%
%TO.N,+3V3*%
X140750000Y-84505000D03*
D11*
%TO.P,U4,13,GND*%
%TO.N,A4*%
X139800000Y-85750000D03*
D12*
%TO.P,U4,14,GND*%
X139800000Y-84400000D03*
%TO.P,U4,15,GND*%
X139800000Y-87100000D03*
%TD*%
D13*
%TO.P,U3,1,VM*%
%TO.N,+5V*%
X138875000Y-80250000D03*
%TO.P,U3,2,AOUT1*%
%TO.N,Net-(J6-Pin_8)*%
X138875000Y-80750000D03*
%TO.P,U3,3,AOUT2*%
%TO.N,Net-(J6-Pin_7)*%
X138875000Y-81250000D03*
%TO.P,U3,4,BOUT1*%
%TO.N,Net-(J6-Pin_6)*%
X138875000Y-81750000D03*
%TO.P,U3,5,BOUT2*%
%TO.N,Net-(J6-Pin_5)*%
X138875000Y-82250000D03*
%TO.P,U3,6,GND*%
%TO.N,A4*%
X138875000Y-82750000D03*
%TO.P,U3,7,BIN2*%
%TO.N,BIN2*%
X140750000Y-82750000D03*
%TO.P,U3,8,BIN1*%
%TO.N,BIN1*%
X140750000Y-82250000D03*
%TO.P,U3,9,AIN2*%
%TO.N,AIN2*%
X140750000Y-81750000D03*
%TO.P,U3,10,AIN1*%
%TO.N,AIN1*%
X140750000Y-81250000D03*
%TO.P,U3,11,MODE*%
%TO.N,A4*%
X140750000Y-80750000D03*
%TO.P,U3,12,VCC*%
%TO.N,+3V3*%
X140750000Y-80255000D03*
D11*
%TO.P,U3,13,GND*%
%TO.N,A4*%
X139800000Y-81500000D03*
D12*
%TO.P,U3,14,GND*%
X139800000Y-80150000D03*
%TO.P,U3,15,GND*%
X139800000Y-82850000D03*
%TD*%
D13*
%TO.P,U8,1,VM*%
%TO.N,+5V*%
X138875000Y-73750000D03*
%TO.P,U8,2,AOUT1*%
%TO.N,Net-(J1-Pin_4)*%
X138875000Y-74250000D03*
%TO.P,U8,3,AOUT2*%
%TO.N,Net-(J1-Pin_3)*%
X138875000Y-74750000D03*
%TO.P,U8,4,BOUT1*%
%TO.N,Net-(J1-Pin_2)*%
X138875000Y-75250000D03*
%TO.P,U8,5,BOUT2*%
%TO.N,Net-(J1-Pin_1)*%
X138875000Y-75750000D03*
%TO.P,U8,6,GND*%
%TO.N,A4*%
X138875000Y-76250000D03*
%TO.P,U8,7,BIN2*%
%TO.N,DIN2_2*%
X140750000Y-76250000D03*
%TO.P,U8,8,BIN1*%
%TO.N,DIN1_2*%
X140750000Y-75750000D03*
%TO.P,U8,9,AIN2*%
%TO.N,CIN2_2*%
X140750000Y-75250000D03*
%TO.P,U8,10,AIN1*%
%TO.N,CIN1_2*%
X140750000Y-74750000D03*
%TO.P,U8,11,MODE*%
%TO.N,A4*%
X140750000Y-74250000D03*
%TO.P,U8,12,VCC*%
%TO.N,+3V3*%
X140750000Y-73755000D03*
D11*
%TO.P,U8,13,GND*%
%TO.N,A4*%
X139800000Y-75000000D03*
D12*
%TO.P,U8,14,GND*%
X139800000Y-73650000D03*
%TO.P,U8,15,GND*%
X139800000Y-76350000D03*
%TD*%
D13*
%TO.P,U7,1,VM*%
%TO.N,+5V*%
X138825000Y-69750000D03*
%TO.P,U7,2,AOUT1*%
%TO.N,Net-(J1-Pin_8)*%
X138825000Y-70250000D03*
%TO.P,U7,3,AOUT2*%
%TO.N,Net-(J1-Pin_7)*%
X138825000Y-70750000D03*
%TO.P,U7,4,BOUT1*%
%TO.N,Net-(J1-Pin_6)*%
X138825000Y-71250000D03*
%TO.P,U7,5,BOUT2*%
%TO.N,Net-(J1-Pin_5)*%
X138825000Y-71750000D03*
%TO.P,U7,6,GND*%
%TO.N,A4*%
X138825000Y-72250000D03*
%TO.P,U7,7,BIN2*%
%TO.N,BIN2_2*%
X140700000Y-72250000D03*
%TO.P,U7,8,BIN1*%
%TO.N,BIN1_2*%
X140700000Y-71750000D03*
%TO.P,U7,9,AIN2*%
%TO.N,AIN2_2*%
X140700000Y-71250000D03*
%TO.P,U7,10,AIN1*%
%TO.N,AIN1_2*%
X140700000Y-70750000D03*
%TO.P,U7,11,MODE*%
%TO.N,A4*%
X140700000Y-70250000D03*
%TO.P,U7,12,VCC*%
%TO.N,+3V3*%
X140700000Y-69755000D03*
D11*
%TO.P,U7,13,GND*%
%TO.N,A4*%
X139750000Y-71000000D03*
D12*
%TO.P,U7,14,GND*%
X139750000Y-69650000D03*
%TO.P,U7,15,GND*%
X139750000Y-72350000D03*
%TD*%
D14*
%TO.P,R6,1*%
%TO.N,Net-(U1-PWM3)*%
X143000000Y-83000000D03*
%TO.P,R6,2*%
%TO.N,BIN2*%
X141980000Y-83000000D03*
%TD*%
D15*
%TO.P,R1,1*%
%TO.N,Net-(U1-#OE)*%
X152490000Y-79000000D03*
%TO.P,R1,2*%
%TO.N,A4*%
X153510000Y-79000000D03*
%TD*%
D16*
%TO.P,J2,1,Pin_1*%
%TO.N,+3V3*%
X140900000Y-90250000D03*
D17*
%TO.P,J2,2,Pin_2*%
%TO.N,A4*%
X143440000Y-90250000D03*
%TO.P,J2,3,Pin_3*%
%TO.N,SDA*%
X145980000Y-90250000D03*
%TO.P,J2,4,Pin_4*%
%TO.N,SCL*%
X148520000Y-90250000D03*
%TO.P,J2,5,Pin_5*%
%TO.N,OE*%
X151060000Y-90250000D03*
%TO.P,J2,6,Pin_6*%
%TO.N,+5V*%
X153600000Y-90250000D03*
%TD*%
D16*
%TO.P,J6,1,Pin_1*%
%TO.N,Net-(J6-Pin_1)*%
X135250000Y-86450000D03*
D17*
%TO.P,J6,2,Pin_2*%
%TO.N,Net-(J6-Pin_2)*%
X132710000Y-86450000D03*
%TO.P,J6,3,Pin_3*%
%TO.N,Net-(J6-Pin_3)*%
X135250000Y-83910000D03*
%TO.P,J6,4,Pin_4*%
%TO.N,Net-(J6-Pin_4)*%
X132710000Y-83910000D03*
%TO.P,J6,5,Pin_5*%
%TO.N,Net-(J6-Pin_5)*%
X135250000Y-81370000D03*
%TO.P,J6,6,Pin_6*%
%TO.N,Net-(J6-Pin_6)*%
X132710000Y-81370000D03*
%TO.P,J6,7,Pin_7*%
%TO.N,Net-(J6-Pin_7)*%
X135250000Y-78830000D03*
%TO.P,J6,8,Pin_8*%
%TO.N,Net-(J6-Pin_8)*%
X132710000Y-78830000D03*
%TD*%
D18*
%TO.P,R25,1*%
%TO.N,+3V3*%
X157250000Y-90912500D03*
%TO.P,R25,2*%
%TO.N,SDA*%
X157250000Y-89087500D03*
%TD*%
D15*
%TO.P,R12,1*%
%TO.N,Net-(U1-PWM9)*%
X152490000Y-86000000D03*
%TO.P,R12,2*%
%TO.N,EIN2*%
X153510000Y-86000000D03*
%TD*%
D19*
%TO.P,JP14,1,A*%
%TO.N,+3V3*%
X157000000Y-64000000D03*
D20*
%TO.P,JP14,2,B*%
%TO.N,A3_2*%
X157000000Y-65300000D03*
%TD*%
D15*
%TO.P,R13,1*%
%TO.N,Net-(U1-PWM10)*%
X152490000Y-85000000D03*
%TO.P,R13,2*%
%TO.N,FIN1*%
X153510000Y-85000000D03*
%TD*%
D14*
%TO.P,R33,1*%
%TO.N,Net-(U2-PWM2)*%
X143010000Y-71500000D03*
%TO.P,R33,2*%
%TO.N,BIN1_2*%
X141990000Y-71500000D03*
%TD*%
D21*
%TO.P,R49,1*%
%TO.N,A4*%
X156750000Y-68260000D03*
%TO.P,R49,2*%
%TO.N,A2_2*%
X156750000Y-67240000D03*
%TD*%
D14*
%TO.P,R10,1*%
%TO.N,Net-(U1-PWM7)*%
X143000000Y-87000000D03*
%TO.P,R10,2*%
%TO.N,DIN2*%
X141980000Y-87000000D03*
%TD*%
D15*
%TO.P,R42,1*%
%TO.N,Net-(U2-PWM11)*%
X152500000Y-73750000D03*
%TO.P,R42,2*%
%TO.N,FIN2_2*%
X153520000Y-73750000D03*
%TD*%
D22*
%TO.P,C1,1*%
%TO.N,+3V3*%
X161000000Y-90750000D03*
%TO.P,C1,2*%
%TO.N,A4*%
X161000000Y-89200000D03*
%TD*%
D23*
%TO.P,U1,1,A0*%
%TO.N,A0*%
X144737500Y-78300000D03*
%TO.P,U1,2,A1*%
%TO.N,A1*%
X144737500Y-78950000D03*
%TO.P,U1,3,A2*%
%TO.N,A2*%
X144737500Y-79600000D03*
%TO.P,U1,4,A3*%
%TO.N,A3*%
X144737500Y-80250000D03*
%TO.P,U1,5,A4*%
%TO.N,A4*%
X144737500Y-80900000D03*
%TO.P,U1,6,PWM0*%
%TO.N,Net-(U1-PWM0)*%
X144737500Y-81550000D03*
%TO.P,U1,7,PWM1*%
%TO.N,Net-(U1-PWM1)*%
X144737500Y-82200000D03*
%TO.P,U1,8,PWM2*%
%TO.N,Net-(U1-PWM2)*%
X144737500Y-82850000D03*
%TO.P,U1,9,PWM3*%
%TO.N,Net-(U1-PWM3)*%
X144737500Y-83500000D03*
%TO.P,U1,10,PWM4*%
%TO.N,Net-(U1-PWM4)*%
X144737500Y-84150000D03*
%TO.P,U1,11,PWM5*%
%TO.N,Net-(U1-PWM5)*%
X144737500Y-84800000D03*
%TO.P,U1,12,PWM6*%
%TO.N,Net-(U1-PWM6)*%
X144737500Y-85450000D03*
%TO.P,U1,13,PWM7*%
%TO.N,Net-(U1-PWM7)*%
X144737500Y-86100000D03*
%TO.P,U1,14,GND*%
%TO.N,A4*%
X144737500Y-86750000D03*
%TO.P,U1,15,PWM8*%
%TO.N,Net-(U1-PWM8)*%
X150462500Y-86750000D03*
%TO.P,U1,16,PWM9*%
%TO.N,Net-(U1-PWM9)*%
X150462500Y-86100000D03*
%TO.P,U1,17,PWM10*%
%TO.N,Net-(U1-PWM10)*%
X150462500Y-85450000D03*
%TO.P,U1,18,PWM11*%
%TO.N,Net-(U1-PWM11)*%
X150462500Y-84800000D03*
%TO.P,U1,19,PWM12*%
%TO.N,Net-(U1-PWM12)*%
X150462500Y-84150000D03*
%TO.P,U1,20,PWM13*%
%TO.N,Net-(U1-PWM13)*%
X150462500Y-83500000D03*
%TO.P,U1,21,PWM14*%
%TO.N,Net-(U1-PWM14)*%
X150462500Y-82850000D03*
%TO.P,U1,22,PWM15*%
%TO.N,Net-(U1-PWM15)*%
X150462500Y-82200000D03*
%TO.P,U1,23,#OE*%
%TO.N,Net-(U1-#OE)*%
X150462500Y-81550000D03*
%TO.P,U1,24,A5*%
%TO.N,A4*%
X150462500Y-80900000D03*
%TO.P,U1,25,EXTCLK*%
%TO.N,Net-(U1-EXTCLK)*%
X150462500Y-80250000D03*
%TO.P,U1,26,SCL*%
%TO.N,SCL*%
X150462500Y-79600000D03*
%TO.P,U1,27,SDA*%
%TO.N,SDA*%
X150462500Y-78950000D03*
%TO.P,U1,28,VDD*%
%TO.N,+3V3*%
X150462500Y-78300000D03*
%TD*%
D15*
%TO.P,R41,1*%
%TO.N,Net-(U2-PWM10)*%
X152500000Y-74750000D03*
%TO.P,R41,2*%
%TO.N,FIN1_2*%
X153520000Y-74750000D03*
%TD*%
D18*
%TO.P,R27,1*%
%TO.N,+3V3*%
X136000000Y-91087500D03*
%TO.P,R27,2*%
%TO.N,SDA*%
X136000000Y-89262500D03*
%TD*%
D19*
%TO.P,JP1,1,A*%
%TO.N,+3V3*%
X146000000Y-64000000D03*
D20*
%TO.P,JP1,2,B*%
%TO.N,A0*%
X146000000Y-65300000D03*
%TD*%
D14*
%TO.P,R3,1*%
%TO.N,Net-(U1-PWM0)*%
X143000000Y-80000000D03*
%TO.P,R3,2*%
%TO.N,AIN1*%
X141980000Y-80000000D03*
%TD*%
D19*
%TO.P,JP4,1,A*%
%TO.N,+3V3*%
X138500000Y-64000000D03*
D20*
%TO.P,JP4,2,B*%
%TO.N,A3*%
X138500000Y-65300000D03*
%TD*%
D14*
%TO.P,R38,1*%
%TO.N,Net-(U2-PWM7)*%
X143010000Y-76500000D03*
%TO.P,R38,2*%
%TO.N,DIN2_2*%
X141990000Y-76500000D03*
%TD*%
D15*
%TO.P,R17,1*%
%TO.N,Net-(U1-PWM14)*%
X152490000Y-81000000D03*
%TO.P,R17,2*%
%TO.N,HIN1*%
X153510000Y-81000000D03*
%TD*%
D19*
%TO.P,JP13,1,A*%
%TO.N,+3V3*%
X154500000Y-64000000D03*
D20*
%TO.P,JP13,2,B*%
%TO.N,A2_2*%
X154500000Y-65300000D03*
%TD*%
D16*
%TO.P,J1,1,Pin_1*%
%TO.N,Net-(J1-Pin_1)*%
X135250000Y-75250000D03*
D17*
%TO.P,J1,2,Pin_2*%
%TO.N,Net-(J1-Pin_2)*%
X132710000Y-75250000D03*
%TO.P,J1,3,Pin_3*%
%TO.N,Net-(J1-Pin_3)*%
X135250000Y-72710000D03*
%TO.P,J1,4,Pin_4*%
%TO.N,Net-(J1-Pin_4)*%
X132710000Y-72710000D03*
%TO.P,J1,5,Pin_5*%
%TO.N,Net-(J1-Pin_5)*%
X135250000Y-70170000D03*
%TO.P,J1,6,Pin_6*%
%TO.N,Net-(J1-Pin_6)*%
X132710000Y-70170000D03*
%TO.P,J1,7,Pin_7*%
%TO.N,Net-(J1-Pin_7)*%
X135250000Y-67630000D03*
%TO.P,J1,8,Pin_8*%
%TO.N,Net-(J1-Pin_8)*%
X132710000Y-67630000D03*
%TD*%
D19*
%TO.P,JP11,1,A*%
%TO.N,+3V3*%
X149500000Y-64000000D03*
D20*
%TO.P,JP11,2,B*%
%TO.N,A0_2*%
X149500000Y-65300000D03*
%TD*%
D14*
%TO.P,R4,1*%
%TO.N,Net-(U1-PWM1)*%
X143000000Y-81000000D03*
%TO.P,R4,2*%
%TO.N,AIN2*%
X141980000Y-81000000D03*
%TD*%
D15*
%TO.P,R16,1*%
%TO.N,Net-(U1-PWM13)*%
X152490000Y-81990000D03*
%TO.P,R16,2*%
%TO.N,GIN2*%
X153510000Y-81990000D03*
%TD*%
D16*
%TO.P,J4,1,Pin_1*%
%TO.N,Net-(J4-Pin_1)*%
X160250000Y-67630000D03*
D17*
%TO.P,J4,2,Pin_2*%
%TO.N,Net-(J4-Pin_2)*%
X162790000Y-67630000D03*
%TO.P,J4,3,Pin_3*%
%TO.N,Net-(J4-Pin_3)*%
X160250000Y-70170000D03*
%TO.P,J4,4,Pin_4*%
%TO.N,Net-(J4-Pin_4)*%
X162790000Y-70170000D03*
%TO.P,J4,5,Pin_5*%
%TO.N,Net-(J4-Pin_5)*%
X160250000Y-72710000D03*
%TO.P,J4,6,Pin_6*%
%TO.N,Net-(J4-Pin_6)*%
X162790000Y-72710000D03*
%TO.P,J4,7,Pin_7*%
%TO.N,Net-(J4-Pin_7)*%
X160250000Y-75250000D03*
%TO.P,J4,8,Pin_8*%
%TO.N,Net-(J4-Pin_8)*%
X162790000Y-75250000D03*
%TD*%
D21*
%TO.P,R47,1*%
%TO.N,A4*%
X154750000Y-68250000D03*
%TO.P,R47,2*%
%TO.N,A0_2*%
X154750000Y-67230000D03*
%TD*%
%TO.P,R50,1*%
%TO.N,A4*%
X157750000Y-68260000D03*
%TO.P,R50,2*%
%TO.N,A3_2*%
X157750000Y-67240000D03*
%TD*%
D15*
%TO.P,R11,1*%
%TO.N,Net-(U1-PWM8)*%
X152470000Y-87000000D03*
%TO.P,R11,2*%
%TO.N,EIN1*%
X153490000Y-87000000D03*
%TD*%
%TO.P,R18,1*%
%TO.N,Net-(U1-PWM15)*%
X152490000Y-80000000D03*
%TO.P,R18,2*%
%TO.N,HIN2*%
X153510000Y-80000000D03*
%TD*%
D22*
%TO.P,C3,1*%
%TO.N,+5V*%
X162500000Y-90775000D03*
%TO.P,C3,2*%
%TO.N,A4*%
X162500000Y-89225000D03*
%TD*%
D21*
%TO.P,R48,1*%
%TO.N,A4*%
X155750000Y-68260000D03*
%TO.P,R48,2*%
%TO.N,A1_2*%
X155750000Y-67240000D03*
%TD*%
D23*
%TO.P,U2,1,A0*%
%TO.N,A0_2*%
X144737500Y-67815000D03*
%TO.P,U2,2,A1*%
%TO.N,A1_2*%
X144737500Y-68465000D03*
%TO.P,U2,3,A2*%
%TO.N,A2_2*%
X144737500Y-69115000D03*
%TO.P,U2,4,A3*%
%TO.N,A3_2*%
X144737500Y-69765000D03*
%TO.P,U2,5,A4*%
%TO.N,A4*%
X144737500Y-70415000D03*
%TO.P,U2,6,PWM0*%
%TO.N,Net-(U2-PWM0)*%
X144737500Y-71065000D03*
%TO.P,U2,7,PWM1*%
%TO.N,Net-(U2-PWM1)*%
X144737500Y-71715000D03*
%TO.P,U2,8,PWM2*%
%TO.N,Net-(U2-PWM2)*%
X144737500Y-72365000D03*
%TO.P,U2,9,PWM3*%
%TO.N,Net-(U2-PWM3)*%
X144737500Y-73015000D03*
%TO.P,U2,10,PWM4*%
%TO.N,Net-(U2-PWM4)*%
X144737500Y-73665000D03*
%TO.P,U2,11,PWM5*%
%TO.N,Net-(U2-PWM5)*%
X144737500Y-74315000D03*
%TO.P,U2,12,PWM6*%
%TO.N,Net-(U2-PWM6)*%
X144737500Y-74965000D03*
%TO.P,U2,13,PWM7*%
%TO.N,Net-(U2-PWM7)*%
X144737500Y-75615000D03*
%TO.P,U2,14,GND*%
%TO.N,A4*%
X144737500Y-76265000D03*
%TO.P,U2,15,PWM8*%
%TO.N,Net-(U2-PWM8)*%
X150462500Y-76265000D03*
%TO.P,U2,16,PWM9*%
%TO.N,Net-(U2-PWM9)*%
X150462500Y-75615000D03*
%TO.P,U2,17,PWM10*%
%TO.N,Net-(U2-PWM10)*%
X150462500Y-74965000D03*
%TO.P,U2,18,PWM11*%
%TO.N,Net-(U2-PWM11)*%
X150462500Y-74315000D03*
%TO.P,U2,19,PWM12*%
%TO.N,Net-(U2-PWM12)*%
X150462500Y-73665000D03*
%TO.P,U2,20,PWM13*%
%TO.N,Net-(U2-PWM13)*%
X150462500Y-73015000D03*
%TO.P,U2,21,PWM14*%
%TO.N,Net-(U2-PWM14)*%
X150462500Y-72365000D03*
%TO.P,U2,22,PWM15*%
%TO.N,Net-(U2-PWM15)*%
X150462500Y-71715000D03*
%TO.P,U2,23,#OE*%
%TO.N,Net-(U2-#OE)*%
X150462500Y-71065000D03*
%TO.P,U2,24,A5*%
%TO.N,A4*%
X150462500Y-70415000D03*
%TO.P,U2,25,EXTCLK*%
%TO.N,Net-(U2-EXTCLK)*%
X150462500Y-69765000D03*
%TO.P,U2,26,SCL*%
%TO.N,SCL*%
X150462500Y-69115000D03*
%TO.P,U2,27,SDA*%
%TO.N,SDA*%
X150462500Y-68465000D03*
%TO.P,U2,28,VDD*%
%TO.N,+3V3*%
X150462500Y-67815000D03*
%TD*%
D18*
%TO.P,R28,1*%
%TO.N,+3V3*%
X138000000Y-91000000D03*
%TO.P,R28,2*%
%TO.N,SCL*%
X138000000Y-89175000D03*
%TD*%
%TO.P,R26,1*%
%TO.N,+3V3*%
X159250000Y-90912500D03*
%TO.P,R26,2*%
%TO.N,SCL*%
X159250000Y-89087500D03*
%TD*%
D14*
%TO.P,R35,1*%
%TO.N,Net-(U2-PWM4)*%
X143010000Y-73500000D03*
%TO.P,R35,2*%
%TO.N,CIN1_2*%
X141990000Y-73500000D03*
%TD*%
%TO.P,R34,1*%
%TO.N,Net-(U2-PWM3)*%
X143010000Y-72500000D03*
%TO.P,R34,2*%
%TO.N,BIN2_2*%
X141990000Y-72500000D03*
%TD*%
D15*
%TO.P,R43,1*%
%TO.N,Net-(U2-PWM12)*%
X152490000Y-72750000D03*
%TO.P,R43,2*%
%TO.N,GIN1_2*%
X153510000Y-72750000D03*
%TD*%
D14*
%TO.P,R31,1*%
%TO.N,Net-(U2-PWM0)*%
X142760000Y-69500000D03*
%TO.P,R31,2*%
%TO.N,AIN1_2*%
X141740000Y-69500000D03*
%TD*%
%TO.P,R8,1*%
%TO.N,Net-(U1-PWM5)*%
X143000000Y-85000000D03*
%TO.P,R8,2*%
%TO.N,CIN2*%
X141980000Y-85000000D03*
%TD*%
%TO.P,R36,1*%
%TO.N,Net-(U2-PWM5)*%
X143000000Y-74500000D03*
%TO.P,R36,2*%
%TO.N,CIN2_2*%
X141980000Y-74500000D03*
%TD*%
%TO.P,R32,1*%
%TO.N,Net-(U2-PWM1)*%
X142750000Y-70500000D03*
%TO.P,R32,2*%
%TO.N,AIN2_2*%
X141730000Y-70500000D03*
%TD*%
D15*
%TO.P,R40,1*%
%TO.N,Net-(U2-PWM9)*%
X152500000Y-75740000D03*
%TO.P,R40,2*%
%TO.N,EIN2_2*%
X153520000Y-75740000D03*
%TD*%
D21*
%TO.P,R20,1*%
%TO.N,A4*%
X141800000Y-68260000D03*
%TO.P,R20,2*%
%TO.N,A1*%
X141800000Y-67240000D03*
%TD*%
D15*
%TO.P,R29,1*%
%TO.N,Net-(U2-#OE)*%
X152480000Y-68750000D03*
%TO.P,R29,2*%
%TO.N,A4*%
X153500000Y-68750000D03*
%TD*%
D14*
%TO.P,R37,1*%
%TO.N,Net-(U2-PWM6)*%
X143000000Y-75470000D03*
%TO.P,R37,2*%
%TO.N,DIN1_2*%
X141980000Y-75470000D03*
%TD*%
%TO.P,R7,1*%
%TO.N,Net-(U1-PWM4)*%
X143000000Y-84000000D03*
%TO.P,R7,2*%
%TO.N,CIN1*%
X141980000Y-84000000D03*
%TD*%
D15*
%TO.P,R30,1*%
%TO.N,Net-(U2-EXTCLK)*%
X152480000Y-67750000D03*
%TO.P,R30,2*%
%TO.N,A4*%
X153500000Y-67750000D03*
%TD*%
D19*
%TO.P,JP3,1,A*%
%TO.N,+3V3*%
X141000000Y-64000000D03*
D20*
%TO.P,JP3,2,B*%
%TO.N,A2*%
X141000000Y-65300000D03*
%TD*%
D19*
%TO.P,JP12,1,A*%
%TO.N,+3V3*%
X152000000Y-64000000D03*
D20*
%TO.P,JP12,2,B*%
%TO.N,A1_2*%
X152000000Y-65300000D03*
%TD*%
D15*
%TO.P,R39,1*%
%TO.N,Net-(U2-PWM8)*%
X152490000Y-76750000D03*
%TO.P,R39,2*%
%TO.N,EIN1_2*%
X153510000Y-76750000D03*
%TD*%
%TO.P,R44,1*%
%TO.N,Net-(U2-PWM13)*%
X152490000Y-71750000D03*
%TO.P,R44,2*%
%TO.N,GIN2_2*%
X153510000Y-71750000D03*
%TD*%
D19*
%TO.P,JP2,1,A*%
%TO.N,+3V3*%
X143500000Y-64000000D03*
D20*
%TO.P,JP2,2,B*%
%TO.N,A1*%
X143500000Y-65300000D03*
%TD*%
D15*
%TO.P,R2,1*%
%TO.N,Net-(U1-EXTCLK)*%
X152490000Y-78000000D03*
%TO.P,R2,2*%
%TO.N,A4*%
X153510000Y-78000000D03*
%TD*%
%TO.P,R45,1*%
%TO.N,Net-(U2-PWM14)*%
X152480000Y-70750000D03*
%TO.P,R45,2*%
%TO.N,HIN1_2*%
X153500000Y-70750000D03*
%TD*%
%TO.P,R15,1*%
%TO.N,Net-(U1-PWM12)*%
X152480000Y-83000000D03*
%TO.P,R15,2*%
%TO.N,GIN1*%
X153500000Y-83000000D03*
%TD*%
%TO.P,R46,1*%
%TO.N,Net-(U2-PWM15)*%
X152490000Y-69750000D03*
%TO.P,R46,2*%
%TO.N,HIN2_2*%
X153510000Y-69750000D03*
%TD*%
D21*
%TO.P,R22,1*%
%TO.N,A4*%
X139810000Y-68260000D03*
%TO.P,R22,2*%
%TO.N,A3*%
X139810000Y-67240000D03*
%TD*%
%TO.P,R19,1*%
%TO.N,A4*%
X142800000Y-68260000D03*
%TO.P,R19,2*%
%TO.N,A0*%
X142800000Y-67240000D03*
%TD*%
D14*
%TO.P,R5,1*%
%TO.N,Net-(U1-PWM2)*%
X143000000Y-82000000D03*
%TO.P,R5,2*%
%TO.N,BIN1*%
X141980000Y-82000000D03*
%TD*%
D15*
%TO.P,R14,1*%
%TO.N,Net-(U1-PWM11)*%
X152490000Y-84000000D03*
%TO.P,R14,2*%
%TO.N,FIN2*%
X153510000Y-84000000D03*
%TD*%
D21*
%TO.P,R21,1*%
%TO.N,A4*%
X140810000Y-68260000D03*
%TO.P,R21,2*%
%TO.N,A2*%
X140810000Y-67240000D03*
%TD*%
D14*
%TO.P,R9,1*%
%TO.N,Net-(U1-PWM6)*%
X143000000Y-86000000D03*
%TO.P,R9,2*%
%TO.N,DIN1*%
X141980000Y-86000000D03*
%TD*%
D16*
%TO.P,J3,1,Pin_1*%
%TO.N,Net-(J3-Pin_1)*%
X160250000Y-78830000D03*
D17*
%TO.P,J3,2,Pin_2*%
%TO.N,Net-(J3-Pin_2)*%
X162790000Y-78830000D03*
%TO.P,J3,3,Pin_3*%
%TO.N,Net-(J3-Pin_3)*%
X160250000Y-81370000D03*
%TO.P,J3,4,Pin_4*%
%TO.N,Net-(J3-Pin_4)*%
X162790000Y-81370000D03*
%TO.P,J3,5,Pin_5*%
%TO.N,Net-(J3-Pin_5)*%
X160250000Y-83910000D03*
%TO.P,J3,6,Pin_6*%
%TO.N,Net-(J3-Pin_6)*%
X162790000Y-83910000D03*
%TO.P,J3,7,Pin_7*%
%TO.N,Net-(J3-Pin_7)*%
X160250000Y-86450000D03*
%TO.P,J3,8,Pin_8*%
%TO.N,Net-(J3-Pin_8)*%
X162790000Y-86450000D03*
%TD*%
D24*
%TO.P,C2,1*%
%TO.N,+5V*%
X134000000Y-89225000D03*
%TO.P,C2,2*%
%TO.N,A4*%
X134000000Y-91125000D03*
%TD*%
D25*
%TO.N,+3V3*%
X155000000Y-87250000D03*
X137000000Y-64000000D03*
X155000000Y-83250000D03*
X140500000Y-83750000D03*
X155000000Y-73000000D03*
X156000000Y-90750000D03*
X140500000Y-73000000D03*
X140500000Y-69000000D03*
X140500000Y-79500000D03*
X155000000Y-77000000D03*
X151619329Y-67832853D03*
%TO.N,+5V*%
X157250000Y-86600000D03*
X156500000Y-73000000D03*
X138899994Y-79500000D03*
X156553399Y-76730929D03*
X134000000Y-88250000D03*
X139000000Y-69000000D03*
X141250000Y-88600000D03*
X144250000Y-88750000D03*
X139750000Y-88600000D03*
X139000000Y-83750000D03*
X139000000Y-73000000D03*
X156500000Y-83250000D03*
%TO.N,SCL*%
X148000000Y-88500000D03*
X155600000Y-88000000D03*
X142750000Y-88000000D03*
X149250000Y-79750000D03*
X149250000Y-69250000D03*
X146750000Y-88000000D03*
X148250000Y-71500000D03*
%TO.N,SDA*%
X149250000Y-78949997D03*
X149250000Y-68449997D03*
X138000000Y-88000000D03*
X156000000Y-89250000D03*
%TO.N,A0*%
X145997012Y-78141047D03*
X144750000Y-65750000D03*
%TO.N,A1*%
X143000109Y-66470003D03*
X145997016Y-78941048D03*
%TO.N,A2*%
X140500000Y-66500000D03*
X146000639Y-79741042D03*
%TO.N,A3*%
X145999635Y-80541044D03*
X138500000Y-66500000D03*
%TO.N,A4*%
X139699997Y-79500000D03*
X139750000Y-77000000D03*
X154250000Y-69000000D03*
X146000047Y-81341046D03*
X149250000Y-70500000D03*
X146000000Y-70750000D03*
X155800003Y-77000000D03*
X149250000Y-81000000D03*
X154250000Y-78500000D03*
X155750000Y-79250000D03*
%TO.N,A0_2*%
X149500000Y-66250000D03*
X146000000Y-67549988D03*
%TO.N,A1_2*%
X146000000Y-68349991D03*
X150591893Y-65848895D03*
%TO.N,A2_2*%
X146000000Y-69149994D03*
X153500000Y-65750000D03*
%TO.N,A3_2*%
X146000000Y-69949997D03*
X156000000Y-65750000D03*
%TD*%
D26*
%TO.N,CIN2*%
X141980000Y-85000000D02*
X141980000Y-85020000D01*
X141980000Y-85020000D02*
X141000000Y-86000000D01*
X141000000Y-86000000D02*
X140750000Y-86000000D01*
%TO.N,EIN1*%
X154500000Y-85500000D02*
X154750000Y-85500000D01*
%TO.N,FIN1*%
X154000000Y-84500000D02*
X154750000Y-84500000D01*
D27*
%TO.N,FIN2*%
X153510000Y-84000000D02*
X154750000Y-84000000D01*
%TO.N,Net-(J3-Pin_5)*%
X156625000Y-84500000D02*
X159660000Y-84500000D01*
%TO.N,Net-(J3-Pin_6)*%
X156625000Y-85000000D02*
X156749999Y-85124999D01*
X156749999Y-85124999D02*
X161575001Y-85124999D01*
X161575001Y-85124999D02*
X162790000Y-83910000D01*
%TO.N,Net-(J3-Pin_7)*%
X156625000Y-85500000D02*
X159300000Y-85500000D01*
%TO.N,Net-(J3-Pin_8)*%
X156625000Y-86000000D02*
X158173654Y-86000000D01*
D26*
%TO.N,CIN1*%
X141980000Y-84000000D02*
X141250000Y-84730000D01*
X141250000Y-84730000D02*
X141250000Y-85250000D01*
X141250000Y-85250000D02*
X141000000Y-85500000D01*
X141000000Y-85500000D02*
X140750000Y-85500000D01*
D27*
%TO.N,DIN2*%
X141980000Y-87000000D02*
X140750000Y-87000000D01*
D26*
%TO.N,DIN1*%
X141611786Y-86500000D02*
X140750000Y-86500000D01*
D27*
%TO.N,Net-(J6-Pin_1)*%
X138875000Y-86500000D02*
X135300000Y-86500000D01*
X135300000Y-86500000D02*
X135250000Y-86450000D01*
%TO.N,Net-(J6-Pin_2)*%
X137100000Y-86000000D02*
X138875000Y-86000000D01*
%TO.N,Net-(J6-Pin_3)*%
X137165686Y-85500000D02*
X138875000Y-85500000D01*
%TO.N,Net-(J6-Pin_4)*%
X138000000Y-85000000D02*
X138875000Y-85000000D01*
D26*
%TO.N,BIN2*%
X141730000Y-82750000D02*
X140750000Y-82750000D01*
%TO.N,BIN1*%
X141980000Y-82000000D02*
X141730000Y-82250000D01*
X141730000Y-82250000D02*
X140750000Y-82250000D01*
%TO.N,AIN2*%
X141230000Y-81750000D02*
X140750000Y-81750000D01*
%TO.N,A4*%
X140135000Y-80750000D02*
X140750000Y-80750000D01*
%TO.N,AIN1*%
X141000000Y-81250000D02*
X140750000Y-81250000D01*
D27*
%TO.N,Net-(J6-Pin_5)*%
X136130000Y-82250000D02*
X138875000Y-82250000D01*
%TO.N,Net-(J6-Pin_6)*%
X137256346Y-81750000D02*
X138875000Y-81750000D01*
%TO.N,Net-(J6-Pin_7)*%
X137670000Y-81250000D02*
X138875000Y-81250000D01*
%TO.N,Net-(J6-Pin_8)*%
X138000000Y-80750000D02*
X138875000Y-80750000D01*
%TO.N,+5V*%
X138899994Y-79500000D02*
X138899994Y-80225006D01*
X138899994Y-80225006D02*
X138875000Y-80250000D01*
%TO.N,+3V3*%
X140500000Y-79500000D02*
X140500000Y-80005000D01*
X140500000Y-80005000D02*
X140750000Y-80255000D01*
%TO.N,Net-(J1-Pin_4)*%
X138500000Y-74250000D02*
X138875000Y-74250000D01*
%TO.N,Net-(J1-Pin_3)*%
X138250000Y-74750000D02*
X138875000Y-74750000D01*
%TO.N,Net-(J1-Pin_2)*%
X137550000Y-75250000D02*
X138875000Y-75250000D01*
%TO.N,Net-(J1-Pin_1)*%
X138875000Y-75750000D02*
X135750000Y-75750000D01*
X135750000Y-75750000D02*
X135250000Y-75250000D01*
D26*
%TO.N,DIN2_2*%
X141740000Y-76250000D02*
X140750000Y-76250000D01*
%TO.N,DIN1_2*%
X141700000Y-75750000D02*
X140750000Y-75750000D01*
%TO.N,CIN2_2*%
X141980000Y-74500000D02*
X141230000Y-75250000D01*
X141230000Y-75250000D02*
X140750000Y-75250000D01*
%TO.N,CIN1_2*%
X141000000Y-74750000D02*
X140750000Y-74750000D01*
%TO.N,A4*%
X140250000Y-74250000D02*
X140750000Y-74250000D01*
D27*
%TO.N,+3V3*%
X140500000Y-73000000D02*
X140500000Y-73505000D01*
X140500000Y-73505000D02*
X140750000Y-73755000D01*
%TO.N,+5V*%
X139000000Y-73000000D02*
X139000000Y-73625000D01*
X139000000Y-73625000D02*
X138875000Y-73750000D01*
%TO.N,+3V3*%
X140500000Y-69000000D02*
X140500000Y-69555000D01*
X140500000Y-69555000D02*
X140700000Y-69755000D01*
%TO.N,Net-(J1-Pin_6)*%
X137956346Y-71250000D02*
X138825000Y-71250000D01*
%TO.N,Net-(J1-Pin_7)*%
X138370000Y-70750000D02*
X138825000Y-70750000D01*
%TO.N,Net-(J1-Pin_8)*%
X138543654Y-70250000D02*
X138825000Y-70250000D01*
%TO.N,+5V*%
X139000000Y-69000000D02*
X139000000Y-69575000D01*
X139000000Y-69575000D02*
X138825000Y-69750000D01*
%TO.N,Net-(J1-Pin_5)*%
X136830000Y-71750000D02*
X138825000Y-71750000D01*
%TO.N,+3V3*%
X138500000Y-64000000D02*
X157000000Y-64000000D01*
X136000000Y-91087500D02*
X140062500Y-91087500D01*
X154975000Y-86500000D02*
X154975000Y-87225000D01*
X140062500Y-91087500D02*
X140900000Y-90250000D01*
X150480353Y-67832853D02*
X150462500Y-67815000D01*
X155000000Y-87250000D02*
X155000000Y-89750000D01*
X151392500Y-77370000D02*
X150462500Y-78300000D01*
X151619329Y-67832853D02*
X150480353Y-67832853D01*
X154975000Y-76975000D02*
X155000000Y-77000000D01*
X157087500Y-90750000D02*
X157250000Y-90912500D01*
X155000000Y-89750000D02*
X156000000Y-90750000D01*
X156000000Y-90750000D02*
X157087500Y-90750000D01*
X137000000Y-64000000D02*
X138500000Y-64000000D01*
X161000000Y-90750000D02*
X157412500Y-90750000D01*
X157412500Y-90750000D02*
X157250000Y-90912500D01*
X155000000Y-77000000D02*
X154630000Y-77370000D01*
X154630000Y-77370000D02*
X151392500Y-77370000D01*
X148445000Y-67445000D02*
X148445000Y-64300000D01*
X140500000Y-84500000D02*
X140500000Y-83750000D01*
X155000000Y-82500000D02*
X155000000Y-83250000D01*
X148445000Y-64300000D02*
X148745000Y-64000000D01*
X155000000Y-72250000D02*
X155000000Y-73000000D01*
X150462500Y-67815000D02*
X148815000Y-67815000D01*
X148815000Y-67815000D02*
X148445000Y-67445000D01*
X148745000Y-64000000D02*
X149500000Y-64000000D01*
X154975000Y-76250000D02*
X154975000Y-76975000D01*
X154975000Y-87225000D02*
X155000000Y-87250000D01*
%TO.N,+5V*%
X139050000Y-84500000D02*
X139050000Y-83800000D01*
X139050000Y-69050000D02*
X139000000Y-69000000D01*
X147370000Y-90013654D02*
X146106346Y-88750000D01*
X157250000Y-86600000D02*
X157150000Y-86500000D01*
X156553399Y-76378399D02*
X156425000Y-76250000D01*
X156500000Y-83250000D02*
X156500000Y-82550000D01*
X161550000Y-91725000D02*
X162500000Y-90775000D01*
X152450000Y-91400000D02*
X148043654Y-91400000D01*
X153600000Y-90250000D02*
X152450000Y-91400000D01*
X155075000Y-91725000D02*
X161550000Y-91725000D01*
X139050000Y-83800000D02*
X139000000Y-83750000D01*
X147370000Y-90726346D02*
X147370000Y-90013654D01*
X146106346Y-88750000D02*
X144250000Y-88750000D01*
X156450000Y-72250000D02*
X156450000Y-72950000D01*
X141250000Y-88600000D02*
X139750000Y-88600000D01*
X157150000Y-86500000D02*
X156425000Y-86500000D01*
X156500000Y-82550000D02*
X156450000Y-82500000D01*
X153600000Y-90250000D02*
X155075000Y-91725000D01*
X156553399Y-76730929D02*
X156553399Y-76378399D01*
X156450000Y-72950000D02*
X156500000Y-73000000D01*
X148043654Y-91400000D02*
X147370000Y-90726346D01*
X134000000Y-88250000D02*
X134000000Y-89225000D01*
%TO.N,Net-(J1-Pin_2)*%
X133860000Y-74100000D02*
X132710000Y-75250000D01*
X136400000Y-74100000D02*
X133860000Y-74100000D01*
X137550000Y-75250000D02*
X136400000Y-74100000D01*
D26*
%TO.N,SCL*%
X149385000Y-69115000D02*
X149250000Y-69250000D01*
X150462500Y-79600000D02*
X149400000Y-79600000D01*
D27*
X147500000Y-88000000D02*
X148000000Y-88500000D01*
X138000000Y-89175000D02*
X139175000Y-88000000D01*
X146750000Y-88000000D02*
X147500000Y-88000000D01*
X158162500Y-88000000D02*
X159250000Y-89087500D01*
D26*
X149400000Y-79600000D02*
X149250000Y-79750000D01*
X150462500Y-69115000D02*
X149385000Y-69115000D01*
D27*
X139175000Y-88000000D02*
X142750000Y-88000000D01*
D26*
X148250000Y-78750000D02*
X148250000Y-71500000D01*
D27*
X155600000Y-88000000D02*
X158162500Y-88000000D01*
D26*
X149250000Y-79750000D02*
X148250000Y-78750000D01*
D27*
%TO.N,SDA*%
X156162500Y-89087500D02*
X156000000Y-89250000D01*
D26*
X149250003Y-78950000D02*
X149250000Y-78949997D01*
D27*
X136000000Y-89262500D02*
X137262500Y-88000000D01*
D26*
X150462500Y-68465000D02*
X149265003Y-68465000D01*
X150462500Y-78950000D02*
X149250003Y-78950000D01*
D27*
X137262500Y-88000000D02*
X138000000Y-88000000D01*
D26*
X149265003Y-68465000D02*
X149250000Y-68449997D01*
D27*
X157250000Y-89087500D02*
X156162500Y-89087500D01*
%TO.N,Net-(J3-Pin_2)*%
X161620000Y-80000000D02*
X162790000Y-78830000D01*
X156450000Y-81000000D02*
X158993654Y-81000000D01*
X158993654Y-81000000D02*
X159993654Y-80000000D01*
X159993654Y-80000000D02*
X161620000Y-80000000D01*
%TO.N,Net-(J3-Pin_7)*%
X159300000Y-85500000D02*
X160250000Y-86450000D01*
%TO.N,Net-(J3-Pin_8)*%
X159773654Y-87600000D02*
X161640000Y-87600000D01*
X161640000Y-87600000D02*
X162790000Y-86450000D01*
X158173654Y-86000000D02*
X159773654Y-87600000D01*
%TO.N,Net-(J3-Pin_1)*%
X156450000Y-80500000D02*
X158580000Y-80500000D01*
X158580000Y-80500000D02*
X160250000Y-78830000D01*
%TO.N,Net-(J3-Pin_5)*%
X159660000Y-84500000D02*
X160250000Y-83910000D01*
%TO.N,Net-(J3-Pin_4)*%
X156450000Y-82000000D02*
X159253654Y-82000000D01*
X161640000Y-82520000D02*
X162790000Y-81370000D01*
X159253654Y-82000000D02*
X159773654Y-82520000D01*
X159773654Y-82520000D02*
X161640000Y-82520000D01*
%TO.N,Net-(J3-Pin_3)*%
X160120000Y-81500000D02*
X160250000Y-81370000D01*
X156450000Y-81500000D02*
X160120000Y-81500000D01*
D26*
%TO.N,A0*%
X145997012Y-78141047D02*
X145838059Y-78300000D01*
X144750000Y-65750000D02*
X145200000Y-65300000D01*
X144060000Y-67240000D02*
X146000000Y-65300000D01*
X145200000Y-65300000D02*
X146000000Y-65300000D01*
X142800000Y-67240000D02*
X144060000Y-67240000D01*
X145838059Y-78300000D02*
X144737500Y-78300000D01*
%TO.N,A1*%
X141800000Y-67240000D02*
X141800000Y-67000000D01*
X143000109Y-65799891D02*
X143500000Y-65300000D01*
X141800000Y-67000000D02*
X143500000Y-65300000D01*
X143000109Y-66470003D02*
X143000109Y-65799891D01*
X145997016Y-78941048D02*
X145988064Y-78950000D01*
X145988064Y-78950000D02*
X144737500Y-78950000D01*
%TO.N,A2*%
X140500000Y-66500000D02*
X140500000Y-65800000D01*
X141000000Y-65300000D02*
X141000000Y-67050000D01*
X145859597Y-79600000D02*
X144737500Y-79600000D01*
X140500000Y-65800000D02*
X141000000Y-65300000D01*
X141000000Y-67050000D02*
X140810000Y-67240000D01*
X146000639Y-79741042D02*
X145859597Y-79600000D01*
%TO.N,A3*%
X138500000Y-66500000D02*
X138500000Y-65300000D01*
X139810000Y-66610000D02*
X139810000Y-67240000D01*
X145708591Y-80250000D02*
X144737500Y-80250000D01*
X138500000Y-65300000D02*
X139810000Y-66610000D01*
X145999635Y-80541044D02*
X145708591Y-80250000D01*
%TO.N,A4*%
X155725000Y-79275000D02*
X155750000Y-79250000D01*
X139050000Y-87000000D02*
X137696815Y-87000000D01*
D27*
X159750000Y-88275000D02*
X160075000Y-88275000D01*
X134000000Y-91125000D02*
X134775000Y-91900000D01*
D26*
X139775000Y-87100000D02*
X139150000Y-87100000D01*
D27*
X153510000Y-78000000D02*
X153510000Y-79000000D01*
X160075000Y-88275000D02*
X161000000Y-89200000D01*
D26*
X155725000Y-69650000D02*
X155725000Y-69627608D01*
X150462500Y-80900000D02*
X149350000Y-80900000D01*
X154975000Y-86000000D02*
X155340000Y-86000000D01*
X154250000Y-78500000D02*
X154010000Y-78500000D01*
X139775000Y-73650000D02*
X139775000Y-76350000D01*
X154250000Y-67750000D02*
X154750000Y-68250000D01*
X148908954Y-81341046D02*
X149250000Y-81000000D01*
X143280000Y-68740000D02*
X143280000Y-69542746D01*
X139775000Y-80390000D02*
X140135000Y-80750000D01*
X155340000Y-86000000D02*
X155700000Y-86360000D01*
X155000000Y-71750000D02*
X155365000Y-71750000D01*
X154975000Y-75750000D02*
X155340000Y-75750000D01*
X155340000Y-75750000D02*
X155700000Y-76110000D01*
X150462500Y-70415000D02*
X149335000Y-70415000D01*
X149335000Y-70415000D02*
X149250000Y-70500000D01*
X146750000Y-77540001D02*
X146750000Y-80591093D01*
X155725000Y-79900000D02*
X156350000Y-79900000D01*
X149000000Y-70750000D02*
X149250000Y-70500000D01*
X139775000Y-76350000D02*
X139775000Y-76975000D01*
X155725000Y-79900000D02*
X155725000Y-79275000D01*
X140135000Y-70250000D02*
X139775000Y-69890000D01*
X139775000Y-82850000D02*
X139775000Y-84400000D01*
X155700000Y-83900000D02*
X155700000Y-82625000D01*
X139675000Y-72250000D02*
X139775000Y-72350000D01*
X139775000Y-87100000D02*
X139775000Y-84400000D01*
D27*
X161025000Y-89225000D02*
X161000000Y-89200000D01*
X155500000Y-79000000D02*
X155750000Y-79250000D01*
D26*
X139775000Y-79575003D02*
X139699997Y-79500000D01*
X156450000Y-69750000D02*
X155825000Y-69750000D01*
X139810000Y-68260000D02*
X142800000Y-68260000D01*
D27*
X162500000Y-89225000D02*
X161025000Y-89225000D01*
D26*
X140500000Y-85000000D02*
X140135000Y-85000000D01*
X144152254Y-70415000D02*
X143280000Y-69542746D01*
X155700000Y-76110000D02*
X155700000Y-76350000D01*
X155700000Y-86360000D02*
X155700000Y-86600000D01*
X139675000Y-76250000D02*
X139775000Y-76350000D01*
D27*
X154000000Y-69250000D02*
X153500000Y-68750000D01*
D26*
X139050000Y-82750000D02*
X139675000Y-82750000D01*
X139775000Y-73650000D02*
X139775000Y-73900000D01*
X155725000Y-82360000D02*
X155725000Y-82600000D01*
D27*
X141790000Y-91900000D02*
X143440000Y-90250000D01*
D26*
X155700000Y-76350000D02*
X155700000Y-73650000D01*
X155800000Y-73750000D02*
X155700000Y-73650000D01*
X139775000Y-69650000D02*
X139775000Y-72350000D01*
X156425000Y-84000000D02*
X155800000Y-84000000D01*
X144737500Y-76265000D02*
X145474999Y-76265000D01*
D27*
X144737500Y-86750000D02*
X143440000Y-88047500D01*
D26*
X154000000Y-68750000D02*
X154250000Y-69000000D01*
X153500000Y-68750000D02*
X154000000Y-68750000D01*
X145474999Y-76265000D02*
X146750000Y-77540001D01*
X155800000Y-84000000D02*
X155700000Y-83900000D01*
X137696815Y-87000000D02*
X137596815Y-87100000D01*
D27*
X153510000Y-79000000D02*
X155500000Y-79000000D01*
D26*
X139775000Y-72350000D02*
X139775000Y-73650000D01*
X154750000Y-68250000D02*
X155000000Y-68250000D01*
X155725000Y-72110000D02*
X155725000Y-72350000D01*
X155700000Y-82625000D02*
X155725000Y-82600000D01*
X154010000Y-78500000D02*
X153510000Y-79000000D01*
D27*
X155725000Y-83875000D02*
X155700000Y-83900000D01*
D26*
X144737500Y-70415000D02*
X145665000Y-70415000D01*
X139775000Y-80150000D02*
X139775000Y-79575003D01*
X139675000Y-82750000D02*
X139775000Y-82850000D01*
X149350000Y-80900000D02*
X149250000Y-81000000D01*
X155365000Y-71750000D02*
X155725000Y-72110000D01*
X155000000Y-82000000D02*
X155365000Y-82000000D01*
X155700000Y-86600000D02*
X155700000Y-83900000D01*
X155725000Y-72350000D02*
X155725000Y-69650000D01*
X155000000Y-68250000D02*
X155010000Y-68260000D01*
D27*
X134775000Y-91900000D02*
X141790000Y-91900000D01*
D26*
X153500000Y-67750000D02*
X154250000Y-67750000D01*
X155700000Y-76350000D02*
X155700000Y-76899997D01*
D27*
X134000000Y-91125000D02*
X132975000Y-90100000D01*
X133801471Y-87600000D02*
X137096815Y-87600000D01*
D26*
X146000047Y-81341046D02*
X148908954Y-81341046D01*
X142800000Y-68260000D02*
X143280000Y-68740000D01*
X139775000Y-84640000D02*
X139775000Y-84400000D01*
X139050000Y-76250000D02*
X139675000Y-76250000D01*
X145665000Y-70415000D02*
X146000000Y-70750000D01*
X155365000Y-82000000D02*
X155725000Y-82360000D01*
X155010000Y-68260000D02*
X157750000Y-68260000D01*
D27*
X132975000Y-88426471D02*
X133801471Y-87600000D01*
D26*
X155725000Y-69627608D02*
X155347392Y-69250000D01*
X139775000Y-76975000D02*
X139750000Y-77000000D01*
X140500000Y-70250000D02*
X140135000Y-70250000D01*
D27*
X155700000Y-86950000D02*
X156350000Y-87600000D01*
D26*
X145559001Y-80900000D02*
X146000047Y-81341046D01*
X155700000Y-86600000D02*
X155700000Y-86950000D01*
X155825000Y-69750000D02*
X155725000Y-69650000D01*
D27*
X137096815Y-87600000D02*
X137596815Y-87100000D01*
D26*
X139775000Y-69890000D02*
X139775000Y-69650000D01*
X146750000Y-80591093D02*
X146000047Y-81341046D01*
X156350000Y-79900000D02*
X156450000Y-80000000D01*
X139050000Y-72250000D02*
X139675000Y-72250000D01*
D27*
X156350000Y-87600000D02*
X159075000Y-87600000D01*
D26*
X146000000Y-70750000D02*
X149000000Y-70750000D01*
X155725000Y-73625000D02*
X155700000Y-73650000D01*
X155725000Y-82600000D02*
X155725000Y-79900000D01*
D27*
X143440000Y-88047500D02*
X143440000Y-90250000D01*
D26*
X140250000Y-74250000D02*
X139775000Y-73775000D01*
D27*
X159075000Y-87600000D02*
X159750000Y-88275000D01*
D26*
X155700000Y-76899997D02*
X155800003Y-77000000D01*
X144737500Y-70415000D02*
X144152254Y-70415000D01*
X156425000Y-73750000D02*
X155800000Y-73750000D01*
X139150000Y-87100000D02*
X139050000Y-87000000D01*
X153500000Y-67750000D02*
X153500000Y-68750000D01*
X139775000Y-68295000D02*
X139810000Y-68260000D01*
X139775000Y-80150000D02*
X139775000Y-80390000D01*
X139775000Y-73775000D02*
X139775000Y-73650000D01*
X144737500Y-80900000D02*
X145559001Y-80900000D01*
X140135000Y-85000000D02*
X139775000Y-84640000D01*
X139775000Y-69650000D02*
X139775000Y-68295000D01*
D27*
X155347392Y-69250000D02*
X154000000Y-69250000D01*
D26*
X155725000Y-72350000D02*
X155725000Y-73625000D01*
X139775000Y-80150000D02*
X139775000Y-82850000D01*
D27*
X132975000Y-90100000D02*
X132975000Y-88426471D01*
D26*
%TO.N,A0_2*%
X145734988Y-67815000D02*
X146000000Y-67549988D01*
X149500000Y-66250000D02*
X149500000Y-65300000D01*
X154750000Y-67230000D02*
X154346673Y-66826673D01*
X154346673Y-66826673D02*
X150076673Y-66826673D01*
X144737500Y-67815000D02*
X145734988Y-67815000D01*
X150076673Y-66826673D02*
X149500000Y-66250000D01*
%TO.N,A1_2*%
X151451105Y-65848895D02*
X152000000Y-65300000D01*
X150591893Y-65848895D02*
X151451105Y-65848895D01*
X152000000Y-65300000D02*
X153226673Y-66526673D01*
X155036673Y-66526673D02*
X155750000Y-67240000D01*
X153226673Y-66526673D02*
X155036673Y-66526673D01*
X145884991Y-68465000D02*
X146000000Y-68349991D01*
X144737500Y-68465000D02*
X145884991Y-68465000D01*
%TO.N,A2_2*%
X155920000Y-66720000D02*
X156230000Y-66720000D01*
X144737500Y-69115000D02*
X145965006Y-69115000D01*
X145965006Y-69115000D02*
X146000000Y-69149994D01*
X156230000Y-66720000D02*
X156750000Y-67240000D01*
X153500000Y-65750000D02*
X154050000Y-65750000D01*
X154050000Y-65750000D02*
X154500000Y-65300000D01*
X154500000Y-65300000D02*
X155920000Y-66720000D01*
%TO.N,A3_2*%
X144737500Y-69765000D02*
X145815003Y-69765000D01*
X156550000Y-65750000D02*
X157000000Y-65300000D01*
X145815003Y-69765000D02*
X146000000Y-69949997D01*
X157000000Y-65300000D02*
X157750000Y-66050000D01*
X156000000Y-65750000D02*
X156550000Y-65750000D01*
X157750000Y-66050000D02*
X157750000Y-67240000D01*
%TO.N,Net-(U1-#OE)*%
X151500000Y-80374263D02*
X151500000Y-81249999D01*
X151750000Y-80124263D02*
X151500000Y-80374263D01*
X151500000Y-81249999D02*
X151199999Y-81550000D01*
X151199999Y-81550000D02*
X150462500Y-81550000D01*
X152490000Y-79000000D02*
X152000000Y-79000000D01*
X151750000Y-79250000D02*
X151750000Y-80124263D01*
X152000000Y-79000000D02*
X151750000Y-79250000D01*
%TO.N,Net-(U1-EXTCLK)*%
X151450000Y-79040000D02*
X151450000Y-79999999D01*
X151450000Y-79999999D02*
X151199999Y-80250000D01*
X152490000Y-78000000D02*
X151450000Y-79040000D01*
X151199999Y-80250000D02*
X150462500Y-80250000D01*
%TO.N,Net-(U1-PWM0)*%
X143750000Y-80750000D02*
X143750000Y-81299999D01*
X144000001Y-81550000D02*
X144737500Y-81550000D01*
X143750000Y-81299999D02*
X144000001Y-81550000D01*
X143000000Y-80000000D02*
X143750000Y-80750000D01*
%TO.N,AIN1*%
X141500000Y-80750000D02*
X141500000Y-80480000D01*
X141000000Y-81250000D02*
X141500000Y-80750000D01*
X141500000Y-80480000D02*
X141980000Y-80000000D01*
%TO.N,AIN2*%
X141230000Y-81750000D02*
X141980000Y-81000000D01*
%TO.N,Net-(U1-PWM1)*%
X143000000Y-81000000D02*
X143000000Y-81047746D01*
X144152254Y-82200000D02*
X144737500Y-82200000D01*
X143000000Y-81047746D02*
X144152254Y-82200000D01*
%TO.N,Net-(U1-PWM2)*%
X143850000Y-82850000D02*
X144737500Y-82850000D01*
X143000000Y-82000000D02*
X143850000Y-82850000D01*
%TO.N,Net-(U1-PWM3)*%
X143500000Y-83500000D02*
X144737500Y-83500000D01*
X143000000Y-83000000D02*
X143500000Y-83500000D01*
%TO.N,BIN2*%
X141730000Y-82750000D02*
X141980000Y-83000000D01*
%TO.N,Net-(U1-PWM4)*%
X143000000Y-84000000D02*
X144587500Y-84000000D01*
X144587500Y-84000000D02*
X144737500Y-84150000D01*
%TO.N,Net-(U1-PWM5)*%
X143000000Y-85000000D02*
X144537500Y-85000000D01*
X144537500Y-85000000D02*
X144737500Y-84800000D01*
%TO.N,DIN1*%
X141611786Y-86500000D02*
X141980000Y-86131786D01*
X141980000Y-86131786D02*
X141980000Y-86000000D01*
%TO.N,Net-(U1-PWM6)*%
X143000000Y-86000000D02*
X143550000Y-85450000D01*
X143550000Y-85450000D02*
X144737500Y-85450000D01*
%TO.N,Net-(U1-PWM7)*%
X143900000Y-86100000D02*
X144737500Y-86100000D01*
X143000000Y-87000000D02*
X143900000Y-86100000D01*
%TO.N,EIN1*%
X154030000Y-85970000D02*
X154030000Y-86460000D01*
X154500000Y-85500000D02*
X154030000Y-85970000D01*
X154030000Y-86460000D02*
X153490000Y-87000000D01*
%TO.N,Net-(U1-PWM8)*%
X152220000Y-86750000D02*
X152470000Y-87000000D01*
X150462500Y-86750000D02*
X152220000Y-86750000D01*
%TO.N,EIN2*%
X154510000Y-85000000D02*
X153510000Y-86000000D01*
%TO.N,Net-(U1-PWM9)*%
X150462500Y-86100000D02*
X152390000Y-86100000D01*
X152390000Y-86100000D02*
X152490000Y-86000000D01*
%TO.N,FIN1*%
X153510000Y-85000000D02*
X153510000Y-84990000D01*
X153510000Y-84990000D02*
X154000000Y-84500000D01*
%TO.N,Net-(U1-PWM10)*%
X152040000Y-85450000D02*
X152490000Y-85000000D01*
X150462500Y-85450000D02*
X152040000Y-85450000D01*
%TO.N,Net-(U1-PWM11)*%
X151690000Y-84800000D02*
X150462500Y-84800000D01*
X152490000Y-84000000D02*
X151690000Y-84800000D01*
%TO.N,Net-(U1-PWM12)*%
X152480000Y-83000000D02*
X151330000Y-84150000D01*
X151330000Y-84150000D02*
X150462500Y-84150000D01*
%TO.N,GIN1*%
X154500000Y-81500000D02*
X155000000Y-81500000D01*
X154000000Y-82500000D02*
X154000000Y-82000000D01*
X154000000Y-82000000D02*
X154500000Y-81500000D01*
X153500000Y-83000000D02*
X154000000Y-82500000D01*
%TO.N,GIN2*%
X153510000Y-81990000D02*
X154500000Y-81000000D01*
X154500000Y-81000000D02*
X155000000Y-81000000D01*
%TO.N,Net-(U1-PWM13)*%
X152490000Y-81990000D02*
X152261300Y-81990000D01*
X150977036Y-83500000D02*
X150462500Y-83500000D01*
X151400000Y-82851300D02*
X151400000Y-83077036D01*
X152261300Y-81990000D02*
X151400000Y-82851300D01*
X151400000Y-83077036D02*
X150977036Y-83500000D01*
%TO.N,HIN1*%
X153510000Y-81000000D02*
X154010000Y-80500000D01*
X154010000Y-80500000D02*
X155000000Y-80500000D01*
%TO.N,Net-(U1-PWM14)*%
X152490000Y-81000000D02*
X152490000Y-81037817D01*
X151800000Y-81727817D02*
X151800000Y-82097746D01*
X151047746Y-82850000D02*
X150462500Y-82850000D01*
X152490000Y-81037817D02*
X151800000Y-81727817D01*
X151800000Y-82097746D02*
X151047746Y-82850000D01*
%TO.N,Net-(U1-PWM15)*%
X151800000Y-81374263D02*
X151500000Y-81674263D01*
X151500000Y-81674263D02*
X151500000Y-81899999D01*
X151800000Y-80445000D02*
X151800000Y-81374263D01*
X151500000Y-81899999D02*
X151199999Y-82200000D01*
X152490000Y-80000000D02*
X152245000Y-80000000D01*
X152245000Y-80000000D02*
X151800000Y-80445000D01*
X151199999Y-82200000D02*
X150462500Y-82200000D01*
%TO.N,HIN2*%
X153510000Y-80000000D02*
X155000000Y-80000000D01*
%TO.N,Net-(U2-#OE)*%
X151660000Y-70604999D02*
X151199999Y-71065000D01*
X151199999Y-71065000D02*
X150462500Y-71065000D01*
X151660000Y-69711786D02*
X151660000Y-70604999D01*
X152480000Y-68891786D02*
X151660000Y-69711786D01*
X152480000Y-68750000D02*
X152480000Y-68891786D01*
%TO.N,Net-(U2-EXTCLK)*%
X151960000Y-68852746D02*
X151960000Y-68270000D01*
X151047746Y-69765000D02*
X151960000Y-68852746D01*
X150462500Y-69765000D02*
X151047746Y-69765000D01*
X151960000Y-68270000D02*
X152480000Y-67750000D01*
%TO.N,Net-(U2-PWM0)*%
X143270000Y-70345736D02*
X143270000Y-70010000D01*
X143989264Y-71065000D02*
X143270000Y-70345736D01*
X143270000Y-70010000D02*
X142760000Y-69500000D01*
X144737500Y-71065000D02*
X143989264Y-71065000D01*
%TO.N,AIN1_2*%
X141210000Y-70030000D02*
X141740000Y-69500000D01*
X141210000Y-70597500D02*
X141210000Y-70030000D01*
X141980000Y-69619228D02*
X141980000Y-69500000D01*
X141057500Y-70750000D02*
X141210000Y-70597500D01*
X140500000Y-70750000D02*
X141057500Y-70750000D01*
%TO.N,AIN2_2*%
X141730000Y-70500000D02*
X140980000Y-71250000D01*
X140980000Y-71250000D02*
X140500000Y-71250000D01*
%TO.N,Net-(U2-PWM1)*%
X142750000Y-70500000D02*
X142878214Y-70500000D01*
X142878214Y-70500000D02*
X144093214Y-71715000D01*
X144093214Y-71715000D02*
X144737500Y-71715000D01*
%TO.N,BIN1_2*%
X141740000Y-71750000D02*
X141990000Y-71500000D01*
X140500000Y-71750000D02*
X141740000Y-71750000D01*
%TO.N,Net-(U2-PWM2)*%
X143010000Y-71500000D02*
X143875000Y-72365000D01*
X143875000Y-72365000D02*
X144737500Y-72365000D01*
%TO.N,Net-(U2-PWM3)*%
X143010000Y-72500000D02*
X143525000Y-73015000D01*
X143525000Y-73015000D02*
X144737500Y-73015000D01*
%TO.N,BIN2_2*%
X140500000Y-72250000D02*
X141740000Y-72250000D01*
X141740000Y-72250000D02*
X141990000Y-72500000D01*
%TO.N,Net-(U2-PWM4)*%
X144572500Y-73500000D02*
X144737500Y-73665000D01*
X143010000Y-73500000D02*
X144572500Y-73500000D01*
%TO.N,CIN1_2*%
X141500000Y-73990000D02*
X141990000Y-73500000D01*
X141500000Y-74250000D02*
X141500000Y-73990000D01*
X141000000Y-74750000D02*
X141500000Y-74250000D01*
%TO.N,Net-(U2-PWM5)*%
X143000000Y-74500000D02*
X144552500Y-74500000D01*
X144552500Y-74500000D02*
X144737500Y-74315000D01*
%TO.N,Net-(U2-PWM6)*%
X143505000Y-74965000D02*
X144737500Y-74965000D01*
X143000000Y-75470000D02*
X143505000Y-74965000D01*
%TO.N,DIN1_2*%
X141700000Y-75750000D02*
X141980000Y-75470000D01*
%TO.N,Net-(U2-PWM7)*%
X143895000Y-75615000D02*
X144737500Y-75615000D01*
X143010000Y-76500000D02*
X143895000Y-75615000D01*
%TO.N,DIN2_2*%
X141740000Y-76250000D02*
X141990000Y-76500000D01*
%TO.N,EIN1_2*%
X153510000Y-76750000D02*
X154000000Y-76260000D01*
X154000000Y-75750000D02*
X154500000Y-75250000D01*
X154500000Y-75250000D02*
X154975000Y-75250000D01*
X154000000Y-76260000D02*
X154000000Y-75750000D01*
%TO.N,Net-(U2-PWM8)*%
X152005000Y-76265000D02*
X152490000Y-76750000D01*
X150462500Y-76265000D02*
X152005000Y-76265000D01*
%TO.N,EIN2_2*%
X153520000Y-75740000D02*
X154510000Y-74750000D01*
X154510000Y-74750000D02*
X154975000Y-74750000D01*
%TO.N,Net-(U2-PWM9)*%
X152375000Y-75615000D02*
X152500000Y-75740000D01*
X150462500Y-75615000D02*
X152375000Y-75615000D01*
%TO.N,FIN1_2*%
X154020000Y-74250000D02*
X154975000Y-74250000D01*
X153520000Y-74750000D02*
X154020000Y-74250000D01*
%TO.N,Net-(U2-PWM10)*%
X152285000Y-74965000D02*
X152500000Y-74750000D01*
X150462500Y-74965000D02*
X152285000Y-74965000D01*
%TO.N,Net-(U2-PWM11)*%
X150462500Y-74315000D02*
X151935000Y-74315000D01*
X151935000Y-74315000D02*
X152500000Y-73750000D01*
%TO.N,FIN2_2*%
X153520000Y-73750000D02*
X154975000Y-73750000D01*
%TO.N,Net-(U2-PWM12)*%
X151575000Y-73665000D02*
X150462500Y-73665000D01*
X152490000Y-72750000D02*
X151575000Y-73665000D01*
%TO.N,GIN1_2*%
X154250000Y-71500000D02*
X154500000Y-71250000D01*
X154500000Y-71250000D02*
X155000000Y-71250000D01*
X154250000Y-72010000D02*
X154250000Y-71500000D01*
X153510000Y-72750000D02*
X154250000Y-72010000D01*
%TO.N,GIN2_2*%
X154510000Y-70750000D02*
X155000000Y-70750000D01*
X153510000Y-71750000D02*
X154510000Y-70750000D01*
%TO.N,Net-(U2-PWM13)*%
X150462500Y-73015000D02*
X151225000Y-73015000D01*
X151225000Y-73015000D02*
X152490000Y-71750000D01*
%TO.N,Net-(U2-PWM14)*%
X151199999Y-72365000D02*
X150462500Y-72365000D01*
X152480000Y-70750000D02*
X152480000Y-70859263D01*
X151450000Y-72114999D02*
X151199999Y-72365000D01*
X151450000Y-71889263D02*
X151450000Y-72114999D01*
X152480000Y-70859263D02*
X151450000Y-71889263D01*
%TO.N,HIN1_2*%
X154000000Y-70250000D02*
X155000000Y-70250000D01*
X153500000Y-70750000D02*
X154000000Y-70250000D01*
%TO.N,Net-(U2-PWM15)*%
X152250000Y-69750000D02*
X151960000Y-70040000D01*
X151199999Y-71715000D02*
X150462500Y-71715000D01*
X151960000Y-70954999D02*
X151199999Y-71715000D01*
X151960000Y-70040000D02*
X151960000Y-70954999D01*
X152490000Y-69750000D02*
X152250000Y-69750000D01*
%TO.N,HIN2_2*%
X153510000Y-69750000D02*
X155000000Y-69750000D01*
D27*
%TO.N,Net-(J1-Pin_7)*%
X135250000Y-67630000D02*
X138370000Y-70750000D01*
%TO.N,Net-(J1-Pin_4)*%
X135750000Y-71500000D02*
X133920000Y-71500000D01*
X133920000Y-71500000D02*
X132710000Y-72710000D01*
X138500000Y-74250000D02*
X135750000Y-71500000D01*
%TO.N,Net-(J1-Pin_6)*%
X133860000Y-69020000D02*
X132710000Y-70170000D01*
X137956346Y-71250000D02*
X135726346Y-69020000D01*
X135726346Y-69020000D02*
X133860000Y-69020000D01*
%TO.N,Net-(J1-Pin_3)*%
X135250000Y-72710000D02*
X136210000Y-72710000D01*
X136210000Y-72710000D02*
X138250000Y-74750000D01*
%TO.N,Net-(J1-Pin_5)*%
X135250000Y-70170000D02*
X136830000Y-71750000D01*
%TO.N,Net-(J1-Pin_8)*%
X136400000Y-67153654D02*
X135726346Y-66480000D01*
X135726346Y-66480000D02*
X133860000Y-66480000D01*
X136400000Y-68106346D02*
X136400000Y-67153654D01*
X133860000Y-66480000D02*
X132710000Y-67630000D01*
X138543654Y-70250000D02*
X136400000Y-68106346D01*
%TO.N,Net-(J6-Pin_8)*%
X133860000Y-77680000D02*
X132710000Y-78830000D01*
X135726346Y-77680000D02*
X133860000Y-77680000D01*
X138000000Y-79953654D02*
X135726346Y-77680000D01*
X138000000Y-80750000D02*
X138000000Y-79953654D01*
%TO.N,Net-(J6-Pin_4)*%
X135760000Y-82760000D02*
X138000000Y-85000000D01*
X132710000Y-83910000D02*
X133860000Y-82760000D01*
X133860000Y-82760000D02*
X135760000Y-82760000D01*
%TO.N,Net-(J6-Pin_2)*%
X133860000Y-85300000D02*
X132710000Y-86450000D01*
X137100000Y-86000000D02*
X136400000Y-85300000D01*
X136400000Y-85300000D02*
X133860000Y-85300000D01*
%TO.N,Net-(J6-Pin_7)*%
X135250000Y-78830000D02*
X137670000Y-81250000D01*
%TO.N,Net-(J6-Pin_5)*%
X135250000Y-81370000D02*
X136130000Y-82250000D01*
%TO.N,Net-(J6-Pin_3)*%
X137165686Y-85500000D02*
X135575686Y-83910000D01*
X135575686Y-83910000D02*
X135250000Y-83910000D01*
%TO.N,Net-(J6-Pin_6)*%
X133860000Y-80220000D02*
X132710000Y-81370000D01*
X135726346Y-80220000D02*
X133860000Y-80220000D01*
X137256346Y-81750000D02*
X135726346Y-80220000D01*
%TO.N,Net-(J4-Pin_3)*%
X159170000Y-71250000D02*
X160250000Y-70170000D01*
X156450000Y-71250000D02*
X159170000Y-71250000D01*
%TO.N,Net-(J4-Pin_1)*%
X157630000Y-70250000D02*
X156450000Y-70250000D01*
X160250000Y-67630000D02*
X157630000Y-70250000D01*
%TO.N,Net-(J4-Pin_8)*%
X156425000Y-75750000D02*
X159123654Y-75750000D01*
X159123654Y-75750000D02*
X159873654Y-76500000D01*
X159873654Y-76500000D02*
X161540000Y-76500000D01*
X161540000Y-76500000D02*
X162790000Y-75250000D01*
%TO.N,Net-(J4-Pin_4)*%
X156450000Y-71750000D02*
X159583654Y-71750000D01*
X159583654Y-71750000D02*
X159833654Y-71500000D01*
X159833654Y-71500000D02*
X161460000Y-71500000D01*
X161460000Y-71500000D02*
X162790000Y-70170000D01*
%TO.N,Net-(J4-Pin_7)*%
X160250000Y-75250000D02*
X156425000Y-75250000D01*
%TO.N,Net-(J4-Pin_2)*%
X161420000Y-69000000D02*
X162790000Y-67630000D01*
X156450000Y-70750000D02*
X158043654Y-70750000D01*
X159793654Y-69000000D02*
X161420000Y-69000000D01*
X158043654Y-70750000D02*
X159793654Y-69000000D01*
%TO.N,Net-(J4-Pin_6)*%
X159123654Y-74750000D02*
X159873654Y-74000000D01*
X159873654Y-74000000D02*
X161500000Y-74000000D01*
X161500000Y-74000000D02*
X162790000Y-72710000D01*
X156425000Y-74750000D02*
X159123654Y-74750000D01*
%TO.N,Net-(J4-Pin_5)*%
X160250000Y-72710000D02*
X158710000Y-74250000D01*
X158710000Y-74250000D02*
X156425000Y-74250000D01*
%TD*%
%TA.AperFunction,Conductor*%
%TO.N,A4*%
G36*
X131945621Y-87563432D02*
G01*
X132032170Y-87624035D01*
X132246337Y-87723903D01*
X132474592Y-87785063D01*
X132662918Y-87801539D01*
X132709999Y-87805659D01*
X132710000Y-87805659D01*
X132710001Y-87805659D01*
X132749234Y-87802226D01*
X132945408Y-87785063D01*
X133126168Y-87736629D01*
X133196017Y-87738292D01*
X133253879Y-87777455D01*
X133281383Y-87841683D01*
X133275302Y-87897358D01*
X133214632Y-88070742D01*
X133214630Y-88070750D01*
X133195487Y-88240658D01*
X133168421Y-88305072D01*
X133137365Y-88332313D01*
X133056344Y-88382287D01*
X132932289Y-88506342D01*
X132840187Y-88655663D01*
X132840186Y-88655666D01*
X132785001Y-88822203D01*
X132785001Y-88822204D01*
X132785000Y-88822204D01*
X132774500Y-88924983D01*
X132774500Y-89525001D01*
X132774501Y-89525019D01*
X132785000Y-89627796D01*
X132785001Y-89627799D01*
X132840185Y-89794331D01*
X132840187Y-89794336D01*
X132855188Y-89818656D01*
X132932288Y-89943656D01*
X133056344Y-90067712D01*
X133059628Y-90069737D01*
X133059653Y-90069753D01*
X133061445Y-90071746D01*
X133062011Y-90072193D01*
X133061934Y-90072289D01*
X133106379Y-90121699D01*
X133117603Y-90190661D01*
X133089761Y-90254744D01*
X133059665Y-90280826D01*
X133056660Y-90282679D01*
X133056655Y-90282683D01*
X132932684Y-90406654D01*
X132840643Y-90555875D01*
X132840641Y-90555880D01*
X132785494Y-90722302D01*
X132785493Y-90722309D01*
X132775000Y-90825013D01*
X132775000Y-90875000D01*
X134126000Y-90875000D01*
X134193039Y-90894685D01*
X134238794Y-90947489D01*
X134250000Y-90999000D01*
X134250000Y-91251000D01*
X134230315Y-91318039D01*
X134177511Y-91363794D01*
X134126000Y-91375000D01*
X132775001Y-91375000D01*
X132775001Y-91424986D01*
X132785494Y-91527697D01*
X132840641Y-91694119D01*
X132840643Y-91694124D01*
X132912365Y-91810403D01*
X132930805Y-91877796D01*
X132909882Y-91944459D01*
X132856240Y-91989229D01*
X132806826Y-91999500D01*
X131874500Y-91999500D01*
X131807461Y-91979815D01*
X131761706Y-91927011D01*
X131750500Y-91875500D01*
X131750500Y-87665009D01*
X131770185Y-87597970D01*
X131822989Y-87552215D01*
X131892147Y-87542271D01*
X131945621Y-87563432D01*
G37*
%TD.AperFunction*%
%TA.AperFunction,Conductor*%
G36*
X143690000Y-91580633D02*
G01*
X143903483Y-91523433D01*
X143903492Y-91523429D01*
X144117578Y-91423600D01*
X144311082Y-91288105D01*
X144478105Y-91121082D01*
X144608119Y-90935405D01*
X144662696Y-90891781D01*
X144732195Y-90884588D01*
X144794549Y-90916110D01*
X144811269Y-90935405D01*
X144941505Y-91121401D01*
X145108599Y-91288495D01*
X145205384Y-91356265D01*
X145302165Y-91424032D01*
X145302167Y-91424033D01*
X145302170Y-91424035D01*
X145516337Y-91523903D01*
X145516343Y-91523904D01*
X145516344Y-91523905D01*
X145547089Y-91532143D01*
X145744592Y-91585063D01*
X145932918Y-91601539D01*
X145979999Y-91605659D01*
X145980000Y-91605659D01*
X145980001Y-91605659D01*
X146019234Y-91602226D01*
X146215408Y-91585063D01*
X146443663Y-91523903D01*
X146657830Y-91424035D01*
X146851401Y-91288495D01*
X146879478Y-91260417D01*
X146940797Y-91226934D01*
X147010489Y-91231918D01*
X147054838Y-91260419D01*
X147582237Y-91787819D01*
X147615722Y-91849142D01*
X147610738Y-91918834D01*
X147568866Y-91974767D01*
X147503402Y-91999184D01*
X147494556Y-91999500D01*
X139073730Y-91999500D01*
X139006691Y-91979815D01*
X138960936Y-91927011D01*
X138950992Y-91857853D01*
X138980017Y-91794297D01*
X138986049Y-91787819D01*
X139047819Y-91726049D01*
X139049705Y-91727935D01*
X139096625Y-91694712D01*
X139136868Y-91688000D01*
X139975831Y-91688000D01*
X139975847Y-91688001D01*
X139983443Y-91688001D01*
X140141554Y-91688001D01*
X140141557Y-91688001D01*
X140294285Y-91647077D01*
X140344400Y-91618141D01*
X140344417Y-91618137D01*
X140344415Y-91618133D01*
X140346196Y-91617105D01*
X140408184Y-91600499D01*
X141797871Y-91600499D01*
X141797872Y-91600499D01*
X141857483Y-91594091D01*
X141992331Y-91543796D01*
X142107546Y-91457546D01*
X142193796Y-91342331D01*
X142243002Y-91210401D01*
X142284872Y-91154468D01*
X142350337Y-91130050D01*
X142418610Y-91144901D01*
X142446865Y-91166053D01*
X142568917Y-91288105D01*
X142762421Y-91423600D01*
X142976507Y-91523429D01*
X142976516Y-91523433D01*
X143190000Y-91580634D01*
X143190000Y-90683012D01*
X143247007Y-90715925D01*
X143374174Y-90750000D01*
X143505826Y-90750000D01*
X143632993Y-90715925D01*
X143690000Y-90683012D01*
X143690000Y-91580633D01*
G37*
%TD.AperFunction*%
%TA.AperFunction,Conductor*%
G36*
X163688350Y-87558117D02*
G01*
X163736163Y-87609065D01*
X163749500Y-87665009D01*
X163749500Y-91875500D01*
X163729815Y-91942539D01*
X163677011Y-91988294D01*
X163625500Y-91999500D01*
X162424096Y-91999500D01*
X162357057Y-91979815D01*
X162311302Y-91927011D01*
X162301358Y-91857853D01*
X162330383Y-91794297D01*
X162336415Y-91787819D01*
X162362416Y-91761818D01*
X162423739Y-91728333D01*
X162450097Y-91725499D01*
X162798338Y-91725499D01*
X162798344Y-91725499D01*
X162798352Y-91725498D01*
X162798355Y-91725498D01*
X162852760Y-91719940D01*
X162897708Y-91715349D01*
X163058697Y-91662003D01*
X163203044Y-91572968D01*
X163322968Y-91453044D01*
X163412003Y-91308697D01*
X163465349Y-91147708D01*
X163475500Y-91048345D01*
X163475499Y-90501656D01*
X163465349Y-90402292D01*
X163412003Y-90241303D01*
X163411999Y-90241297D01*
X163411998Y-90241294D01*
X163322970Y-90096959D01*
X163322967Y-90096955D01*
X163313339Y-90087327D01*
X163279854Y-90026004D01*
X163284838Y-89956312D01*
X163313345Y-89911959D01*
X163322573Y-89902731D01*
X163411542Y-89758492D01*
X163411547Y-89758481D01*
X163464855Y-89597606D01*
X163474999Y-89498322D01*
X163475000Y-89498309D01*
X163475000Y-89475000D01*
X161558362Y-89475000D01*
X161491323Y-89455315D01*
X161484727Y-89450000D01*
X160874000Y-89450000D01*
X160806961Y-89430315D01*
X160761206Y-89377511D01*
X160750000Y-89326000D01*
X160750000Y-89074000D01*
X160769685Y-89006961D01*
X160822489Y-88961206D01*
X160874000Y-88950000D01*
X161941638Y-88950000D01*
X162008677Y-88969685D01*
X162015273Y-88975000D01*
X162250000Y-88975000D01*
X162750000Y-88975000D01*
X163474999Y-88975000D01*
X163474999Y-88951692D01*
X163474998Y-88951677D01*
X163464855Y-88852392D01*
X163411547Y-88691518D01*
X163411542Y-88691507D01*
X163322575Y-88547271D01*
X163322572Y-88547267D01*
X163202732Y-88427427D01*
X163202728Y-88427424D01*
X163058492Y-88338457D01*
X163058481Y-88338452D01*
X162897606Y-88285144D01*
X162798322Y-88275000D01*
X162750000Y-88275000D01*
X162750000Y-88975000D01*
X162250000Y-88975000D01*
X162250000Y-88275000D01*
X162249999Y-88274999D01*
X162201693Y-88275000D01*
X162201673Y-88275001D01*
X162116894Y-88283662D01*
X162048201Y-88270892D01*
X161997317Y-88223011D01*
X161980397Y-88155221D01*
X162002813Y-88089045D01*
X162016601Y-88072634D01*
X162120520Y-87968716D01*
X162120521Y-87968713D01*
X162306470Y-87782763D01*
X162367791Y-87749280D01*
X162426238Y-87750670D01*
X162554592Y-87785063D01*
X162742918Y-87801539D01*
X162789999Y-87805659D01*
X162790000Y-87805659D01*
X162790001Y-87805659D01*
X162829234Y-87802226D01*
X163025408Y-87785063D01*
X163253663Y-87723903D01*
X163467830Y-87624035D01*
X163554378Y-87563433D01*
X163620582Y-87541107D01*
X163688350Y-87558117D01*
G37*
%TD.AperFunction*%
%TA.AperFunction,Conductor*%
G36*
X147787539Y-64620185D02*
G01*
X147833294Y-64672989D01*
X147844500Y-64724500D01*
X147844500Y-67358330D01*
X147844499Y-67358348D01*
X147844499Y-67524054D01*
X147844498Y-67524054D01*
X147870045Y-67619393D01*
X147885423Y-67676785D01*
X147912803Y-67724208D01*
X147964420Y-67813612D01*
X147964479Y-67813714D01*
X147964481Y-67813717D01*
X148083349Y-67932585D01*
X148083355Y-67932590D01*
X148330139Y-68179374D01*
X148330160Y-68179397D01*
X148418039Y-68267276D01*
X148451524Y-68328599D01*
X148453578Y-68368840D01*
X148444435Y-68449992D01*
X148444435Y-68450000D01*
X148464630Y-68629246D01*
X148464633Y-68629259D01*
X148526510Y-68806091D01*
X148524366Y-68806840D01*
X148533960Y-68865158D01*
X148525612Y-68893592D01*
X148526510Y-68893906D01*
X148464633Y-69070737D01*
X148464630Y-69070750D01*
X148444435Y-69249996D01*
X148444435Y-69250003D01*
X148464630Y-69429249D01*
X148464631Y-69429254D01*
X148524211Y-69599523D01*
X148584657Y-69695721D01*
X148620184Y-69752262D01*
X148747738Y-69879816D01*
X148785544Y-69903571D01*
X148874509Y-69959472D01*
X148900478Y-69975789D01*
X149070745Y-70035368D01*
X149070750Y-70035369D01*
X149128372Y-70041861D01*
X149192786Y-70068927D01*
X149232342Y-70126521D01*
X149237429Y-70181267D01*
X149232987Y-70214999D01*
X149232988Y-70215000D01*
X149275500Y-70215000D01*
X149342539Y-70234685D01*
X149373875Y-70263513D01*
X149388176Y-70282150D01*
X149396718Y-70293282D01*
X149427140Y-70316625D01*
X149468341Y-70373052D01*
X149472496Y-70442798D01*
X149438283Y-70503719D01*
X149427146Y-70513369D01*
X149396718Y-70536718D01*
X149396717Y-70536719D01*
X149396716Y-70536720D01*
X149373875Y-70566487D01*
X149317447Y-70607690D01*
X149275500Y-70615000D01*
X149232990Y-70615000D01*
X149232988Y-70615001D01*
X149240441Y-70671622D01*
X149240445Y-70671634D01*
X149248837Y-70691895D01*
X149256304Y-70761364D01*
X149248838Y-70786794D01*
X149239956Y-70808238D01*
X149239955Y-70808239D01*
X149224500Y-70925638D01*
X149224500Y-71131441D01*
X149204815Y-71198480D01*
X149152011Y-71244235D01*
X149082853Y-71254179D01*
X149019297Y-71225154D01*
X148983458Y-71172394D01*
X148980189Y-71163053D01*
X148975789Y-71150478D01*
X148879816Y-70997738D01*
X148752262Y-70870184D01*
X148719186Y-70849401D01*
X148599523Y-70774211D01*
X148429254Y-70714631D01*
X148429249Y-70714630D01*
X148250004Y-70694435D01*
X148249996Y-70694435D01*
X148070750Y-70714630D01*
X148070745Y-70714631D01*
X147900476Y-70774211D01*
X147747737Y-70870184D01*
X147620184Y-70997737D01*
X147524211Y-71150476D01*
X147464631Y-71320745D01*
X147464630Y-71320750D01*
X147444435Y-71499996D01*
X147444435Y-71500003D01*
X147464630Y-71679249D01*
X147464631Y-71679254D01*
X147524211Y-71849523D01*
X147620184Y-72002262D01*
X147663181Y-72045259D01*
X147696666Y-72106582D01*
X147699500Y-72132940D01*
X147699500Y-78822474D01*
X147727350Y-78926414D01*
X147737014Y-78962480D01*
X147737016Y-78962485D01*
X147809489Y-79088013D01*
X147809491Y-79088016D01*
X148410319Y-79688844D01*
X148443804Y-79750167D01*
X148445858Y-79762641D01*
X148464630Y-79929250D01*
X148464631Y-79929254D01*
X148524211Y-80099523D01*
X148577888Y-80184949D01*
X148620184Y-80252262D01*
X148747738Y-80379816D01*
X148811060Y-80419604D01*
X148874509Y-80459472D01*
X148900478Y-80475789D01*
X149070745Y-80535368D01*
X149070749Y-80535369D01*
X149126427Y-80541642D01*
X149190841Y-80568708D01*
X149230396Y-80626302D01*
X149235483Y-80681048D01*
X149232987Y-80699999D01*
X149232988Y-80700000D01*
X149275500Y-80700000D01*
X149342539Y-80719685D01*
X149373875Y-80748513D01*
X149388176Y-80767150D01*
X149396718Y-80778282D01*
X149427140Y-80801625D01*
X149468341Y-80858052D01*
X149472496Y-80927798D01*
X149438283Y-80988719D01*
X149427146Y-80998369D01*
X149396718Y-81021718D01*
X149396717Y-81021719D01*
X149396716Y-81021720D01*
X149373875Y-81051487D01*
X149317447Y-81092690D01*
X149275500Y-81100000D01*
X149232990Y-81100000D01*
X149232988Y-81100001D01*
X149240441Y-81156622D01*
X149240445Y-81156634D01*
X149248837Y-81176895D01*
X149256304Y-81246364D01*
X149248838Y-81271794D01*
X149239956Y-81293238D01*
X149239955Y-81293239D01*
X149224500Y-81410638D01*
X149224500Y-81689363D01*
X149239953Y-81806753D01*
X149239957Y-81806765D01*
X149248566Y-81827550D01*
X149256033Y-81897019D01*
X149248566Y-81922450D01*
X149239957Y-81943234D01*
X149239955Y-81943239D01*
X149224500Y-82060638D01*
X149224500Y-82339363D01*
X149239953Y-82456753D01*
X149239957Y-82456765D01*
X149248566Y-82477550D01*
X149256033Y-82547019D01*
X149248566Y-82572450D01*
X149239957Y-82593234D01*
X149239955Y-82593239D01*
X149224500Y-82710638D01*
X149224500Y-82989363D01*
X149239953Y-83106753D01*
X149239957Y-83106765D01*
X149248566Y-83127550D01*
X149256033Y-83197019D01*
X149248566Y-83222450D01*
X149239957Y-83243234D01*
X149239955Y-83243239D01*
X149224500Y-83360638D01*
X149224500Y-83639363D01*
X149239953Y-83756753D01*
X149239957Y-83756765D01*
X149248566Y-83777550D01*
X149256033Y-83847019D01*
X149248566Y-83872450D01*
X149239957Y-83893234D01*
X149239955Y-83893239D01*
X149224500Y-84010638D01*
X149224500Y-84289363D01*
X149239953Y-84406753D01*
X149239957Y-84406765D01*
X149248566Y-84427550D01*
X149256033Y-84497019D01*
X149248566Y-84522450D01*
X149239957Y-84543234D01*
X149239955Y-84543239D01*
X149224500Y-84660638D01*
X149224500Y-84939363D01*
X149239953Y-85056753D01*
X149239957Y-85056765D01*
X149248566Y-85077550D01*
X149256033Y-85147019D01*
X149248566Y-85172450D01*
X149239957Y-85193234D01*
X149239955Y-85193239D01*
X149224500Y-85310638D01*
X149224500Y-85589363D01*
X149239953Y-85706753D01*
X149239957Y-85706765D01*
X149248566Y-85727550D01*
X149256033Y-85797019D01*
X149248566Y-85822450D01*
X149239957Y-85843234D01*
X149239955Y-85843239D01*
X149224500Y-85960638D01*
X149224500Y-86239363D01*
X149239953Y-86356753D01*
X149239957Y-86356765D01*
X149248566Y-86377550D01*
X149256033Y-86447019D01*
X149248566Y-86472450D01*
X149239957Y-86493234D01*
X149239955Y-86493239D01*
X149224500Y-86610638D01*
X149224500Y-86889363D01*
X149239953Y-87006753D01*
X149239956Y-87006762D01*
X149289138Y-87125499D01*
X149300464Y-87152841D01*
X149396718Y-87278282D01*
X149522159Y-87374536D01*
X149668238Y-87435044D01*
X149785639Y-87450500D01*
X151139360Y-87450499D01*
X151139363Y-87450499D01*
X151256753Y-87435046D01*
X151256757Y-87435044D01*
X151256762Y-87435044D01*
X151402841Y-87374536D01*
X151465933Y-87326123D01*
X151531102Y-87300930D01*
X151541419Y-87300500D01*
X151613677Y-87300500D01*
X151680716Y-87320185D01*
X151726471Y-87372989D01*
X151732753Y-87389905D01*
X151747129Y-87439387D01*
X151747131Y-87439393D01*
X151828863Y-87577595D01*
X151828869Y-87577603D01*
X151942396Y-87691130D01*
X151942400Y-87691133D01*
X151942402Y-87691135D01*
X152080607Y-87772869D01*
X152096392Y-87777455D01*
X152234791Y-87817664D01*
X152234794Y-87817664D01*
X152234796Y-87817665D01*
X152270819Y-87820500D01*
X152669180Y-87820499D01*
X152705204Y-87817665D01*
X152859393Y-87772869D01*
X152916882Y-87738869D01*
X152984602Y-87721688D01*
X153043117Y-87738869D01*
X153100607Y-87772869D01*
X153100610Y-87772869D01*
X153100612Y-87772871D01*
X153254791Y-87817664D01*
X153254794Y-87817664D01*
X153254796Y-87817665D01*
X153290819Y-87820500D01*
X153689180Y-87820499D01*
X153725204Y-87817665D01*
X153879393Y-87772869D01*
X154017598Y-87691135D01*
X154100593Y-87608139D01*
X154161914Y-87574656D01*
X154231606Y-87579640D01*
X154287540Y-87621511D01*
X154293267Y-87629850D01*
X154330749Y-87689501D01*
X154369184Y-87750671D01*
X154370185Y-87752263D01*
X154372445Y-87755097D01*
X154373334Y-87757275D01*
X154373889Y-87758158D01*
X154373734Y-87758255D01*
X154398855Y-87819783D01*
X154399500Y-87832412D01*
X154399500Y-88938059D01*
X154379815Y-89005098D01*
X154327011Y-89050853D01*
X154257853Y-89060797D01*
X154223096Y-89050441D01*
X154063669Y-88976099D01*
X154063655Y-88976094D01*
X153835413Y-88914938D01*
X153835403Y-88914936D01*
X153600001Y-88894341D01*
X153599999Y-88894341D01*
X153364596Y-88914936D01*
X153364586Y-88914938D01*
X153136344Y-88976094D01*
X153136335Y-88976098D01*
X152922171Y-89075964D01*
X152922169Y-89075965D01*
X152728597Y-89211505D01*
X152561505Y-89378597D01*
X152431575Y-89564158D01*
X152376998Y-89607783D01*
X152307500Y-89614977D01*
X152245145Y-89583454D01*
X152228425Y-89564158D01*
X152098494Y-89378597D01*
X151931402Y-89211506D01*
X151931395Y-89211501D01*
X151737834Y-89075967D01*
X151737830Y-89075965D01*
X151683977Y-89050853D01*
X151523663Y-88976097D01*
X151523659Y-88976096D01*
X151523655Y-88976094D01*
X151295413Y-88914938D01*
X151295403Y-88914936D01*
X151060001Y-88894341D01*
X151059999Y-88894341D01*
X150824596Y-88914936D01*
X150824586Y-88914938D01*
X150596344Y-88976094D01*
X150596335Y-88976098D01*
X150382171Y-89075964D01*
X150382169Y-89075965D01*
X150188597Y-89211505D01*
X150021505Y-89378597D01*
X149891575Y-89564158D01*
X149836998Y-89607783D01*
X149767500Y-89614977D01*
X149705145Y-89583454D01*
X149688425Y-89564158D01*
X149558494Y-89378597D01*
X149391402Y-89211506D01*
X149391395Y-89211501D01*
X149197834Y-89075967D01*
X149197830Y-89075965D01*
X149143977Y-89050853D01*
X148983663Y-88976097D01*
X148983660Y-88976096D01*
X148983658Y-88976095D01*
X148836486Y-88936661D01*
X148776826Y-88900296D01*
X148746297Y-88837449D01*
X148751538Y-88775933D01*
X148785368Y-88679255D01*
X148788026Y-88655663D01*
X148805565Y-88500003D01*
X148805565Y-88499996D01*
X148785369Y-88320750D01*
X148785368Y-88320745D01*
X148757344Y-88240658D01*
X148725789Y-88150478D01*
X148725174Y-88149500D01*
X148676869Y-88072622D01*
X148629816Y-87997738D01*
X148502262Y-87870184D01*
X148423593Y-87820753D01*
X148349521Y-87774210D01*
X148179249Y-87714630D01*
X148092332Y-87704837D01*
X148027918Y-87677770D01*
X148018535Y-87669298D01*
X147980523Y-87631286D01*
X147980520Y-87631284D01*
X147868717Y-87519481D01*
X147868709Y-87519475D01*
X147766936Y-87460717D01*
X147766934Y-87460716D01*
X147731790Y-87440425D01*
X147731789Y-87440424D01*
X147711718Y-87435046D01*
X147579057Y-87399499D01*
X147420943Y-87399499D01*
X147413347Y-87399499D01*
X147413331Y-87399500D01*
X147332412Y-87399500D01*
X147265373Y-87379815D01*
X147255097Y-87372445D01*
X147252263Y-87370185D01*
X147252262Y-87370184D01*
X147181608Y-87325789D01*
X147099523Y-87274211D01*
X146929254Y-87214631D01*
X146929249Y-87214630D01*
X146750004Y-87194435D01*
X146749996Y-87194435D01*
X146570750Y-87214630D01*
X146570745Y-87214631D01*
X146400476Y-87274211D01*
X146247737Y-87370184D01*
X146120184Y-87497737D01*
X146024211Y-87650476D01*
X145964631Y-87820745D01*
X145964630Y-87820750D01*
X145944435Y-87999996D01*
X145944435Y-88000000D01*
X145944819Y-88003411D01*
X145945744Y-88011614D01*
X145933691Y-88080436D01*
X145886343Y-88131816D01*
X145822524Y-88149500D01*
X144832412Y-88149500D01*
X144765373Y-88129815D01*
X144755097Y-88122445D01*
X144752263Y-88120185D01*
X144752262Y-88120184D01*
X144689137Y-88080520D01*
X144599523Y-88024211D01*
X144429254Y-87964631D01*
X144429249Y-87964630D01*
X144250004Y-87944435D01*
X144249996Y-87944435D01*
X144070750Y-87964630D01*
X144070745Y-87964631D01*
X143900476Y-88024211D01*
X143744371Y-88122299D01*
X143677134Y-88141299D01*
X143610299Y-88120931D01*
X143565085Y-88067663D01*
X143555728Y-88006964D01*
X143555565Y-88006964D01*
X143555565Y-88005908D01*
X143555180Y-88003413D01*
X143555565Y-88000000D01*
X143555310Y-87997738D01*
X143535369Y-87820753D01*
X143535368Y-87820751D01*
X143535368Y-87820745D01*
X143525489Y-87792515D01*
X143521929Y-87722739D01*
X143554849Y-87663883D01*
X143641135Y-87577598D01*
X143656147Y-87552215D01*
X143710258Y-87460717D01*
X143713779Y-87454762D01*
X143764847Y-87407079D01*
X143833589Y-87394575D01*
X143867964Y-87403322D01*
X143943369Y-87434555D01*
X144060676Y-87449999D01*
X144537499Y-87449999D01*
X144537500Y-87449998D01*
X144537500Y-86924499D01*
X144557185Y-86857460D01*
X144609989Y-86811705D01*
X144661497Y-86800499D01*
X144813501Y-86800499D01*
X144880539Y-86820184D01*
X144926294Y-86872988D01*
X144937500Y-86924499D01*
X144937500Y-87449999D01*
X145414324Y-87449999D01*
X145531628Y-87434557D01*
X145531633Y-87434555D01*
X145677585Y-87374100D01*
X145802924Y-87277924D01*
X145899100Y-87152586D01*
X145959555Y-87006631D01*
X145967012Y-86950000D01*
X145749303Y-86950000D01*
X145682264Y-86930315D01*
X145636509Y-86877511D01*
X145626565Y-86808353D01*
X145655590Y-86744797D01*
X145673816Y-86727624D01*
X145677839Y-86724536D01*
X145677841Y-86724536D01*
X145803282Y-86628282D01*
X145816821Y-86610638D01*
X145826125Y-86598513D01*
X145882553Y-86557310D01*
X145924500Y-86550000D01*
X145967010Y-86550000D01*
X145967011Y-86549998D01*
X145959558Y-86493377D01*
X145959554Y-86493365D01*
X145951163Y-86473106D01*
X145943694Y-86403637D01*
X145951164Y-86378199D01*
X145951433Y-86377550D01*
X145960044Y-86356762D01*
X145975500Y-86239361D01*
X145975499Y-85960640D01*
X145960044Y-85843238D01*
X145960042Y-85843234D01*
X145951435Y-85822455D01*
X145943965Y-85752986D01*
X145951435Y-85727545D01*
X145952282Y-85725500D01*
X145960044Y-85706762D01*
X145975500Y-85589361D01*
X145975499Y-85310640D01*
X145960044Y-85193238D01*
X145960042Y-85193234D01*
X145951435Y-85172455D01*
X145943965Y-85102986D01*
X145951435Y-85077545D01*
X145960044Y-85056762D01*
X145975500Y-84939361D01*
X145975499Y-84660640D01*
X145960044Y-84543238D01*
X145960042Y-84543234D01*
X145951435Y-84522455D01*
X145943965Y-84452986D01*
X145951435Y-84427545D01*
X145960044Y-84406762D01*
X145975500Y-84289361D01*
X145975499Y-84010640D01*
X145960044Y-83893238D01*
X145960042Y-83893234D01*
X145951435Y-83872455D01*
X145943965Y-83802986D01*
X145951435Y-83777545D01*
X145960044Y-83756762D01*
X145975500Y-83639361D01*
X145975499Y-83360640D01*
X145960044Y-83243238D01*
X145960042Y-83243234D01*
X145951435Y-83222455D01*
X145943965Y-83152986D01*
X145951435Y-83127545D01*
X145954484Y-83120184D01*
X145960044Y-83106762D01*
X145975500Y-82989361D01*
X145975499Y-82710640D01*
X145960044Y-82593238D01*
X145960042Y-82593234D01*
X145951435Y-82572455D01*
X145943965Y-82502986D01*
X145951435Y-82477545D01*
X145958921Y-82459472D01*
X145960044Y-82456762D01*
X145975500Y-82339361D01*
X145975499Y-82060640D01*
X145960044Y-81943238D01*
X145960042Y-81943234D01*
X145951435Y-81922455D01*
X145943965Y-81852986D01*
X145951435Y-81827545D01*
X145960044Y-81806762D01*
X145975500Y-81689361D01*
X145975499Y-81460141D01*
X145995183Y-81393102D01*
X146047987Y-81347347D01*
X146085615Y-81336921D01*
X146125813Y-81332392D01*
X146178884Y-81326413D01*
X146178887Y-81326412D01*
X146178890Y-81326412D01*
X146349157Y-81266833D01*
X146501897Y-81170860D01*
X146629451Y-81043306D01*
X146725424Y-80890566D01*
X146785003Y-80720299D01*
X146785004Y-80720293D01*
X146805200Y-80541047D01*
X146805200Y-80541040D01*
X146785004Y-80361794D01*
X146785003Y-80361789D01*
X146741262Y-80236785D01*
X146725424Y-80191522D01*
X146725423Y-80191521D01*
X146723124Y-80184949D01*
X146725584Y-80184087D01*
X146716172Y-80126954D01*
X146724853Y-80097390D01*
X146724128Y-80097137D01*
X146786005Y-79920304D01*
X146786008Y-79920291D01*
X146806204Y-79741045D01*
X146806204Y-79741038D01*
X146786008Y-79561792D01*
X146786005Y-79561779D01*
X146737234Y-79422402D01*
X146726428Y-79391520D01*
X146726425Y-79391516D01*
X146726156Y-79390955D01*
X146726089Y-79390553D01*
X146724128Y-79384947D01*
X146725110Y-79384603D01*
X146714804Y-79322014D01*
X146720835Y-79296199D01*
X146734761Y-79256403D01*
X146760678Y-79182335D01*
X146782382Y-79120310D01*
X146782385Y-79120297D01*
X146802581Y-78941051D01*
X146802581Y-78941044D01*
X146782385Y-78761798D01*
X146782384Y-78761793D01*
X146720505Y-78584953D01*
X146722656Y-78584200D01*
X146713047Y-78525935D01*
X146721409Y-78497459D01*
X146720501Y-78497142D01*
X146782380Y-78320301D01*
X146782381Y-78320296D01*
X146802577Y-78141050D01*
X146802577Y-78141043D01*
X146782381Y-77961797D01*
X146782380Y-77961792D01*
X146749939Y-77869081D01*
X146722801Y-77791525D01*
X146722788Y-77791505D01*
X146637622Y-77655964D01*
X146626828Y-77638785D01*
X146499274Y-77511231D01*
X146473341Y-77494936D01*
X146346535Y-77415258D01*
X146176266Y-77355678D01*
X146176261Y-77355677D01*
X145997016Y-77335482D01*
X145997008Y-77335482D01*
X145817762Y-77355677D01*
X145817757Y-77355678D01*
X145647488Y-77415258D01*
X145494746Y-77511233D01*
X145442797Y-77563182D01*
X145381474Y-77596666D01*
X145355117Y-77599500D01*
X144060636Y-77599500D01*
X143943246Y-77614953D01*
X143943237Y-77614956D01*
X143797160Y-77675463D01*
X143671718Y-77771718D01*
X143575463Y-77897160D01*
X143514956Y-78043237D01*
X143514955Y-78043239D01*
X143499500Y-78160638D01*
X143499500Y-78439363D01*
X143514953Y-78556753D01*
X143514957Y-78556765D01*
X143523566Y-78577550D01*
X143531033Y-78647019D01*
X143523566Y-78672450D01*
X143514957Y-78693234D01*
X143514955Y-78693239D01*
X143499500Y-78810638D01*
X143499501Y-79093419D01*
X143497614Y-79093419D01*
X143483945Y-79154175D01*
X143434191Y-79203229D01*
X143365815Y-79217596D01*
X143340944Y-79213055D01*
X143235204Y-79182335D01*
X143235201Y-79182334D01*
X143235202Y-79182334D01*
X143199181Y-79179500D01*
X142800830Y-79179500D01*
X142800808Y-79179501D01*
X142764794Y-79182335D01*
X142610611Y-79227129D01*
X142610604Y-79227132D01*
X142553119Y-79261128D01*
X142485395Y-79278309D01*
X142426881Y-79261128D01*
X142369395Y-79227132D01*
X142369388Y-79227129D01*
X142215208Y-79182335D01*
X142215202Y-79182334D01*
X142179181Y-79179500D01*
X141780830Y-79179500D01*
X141780808Y-79179501D01*
X141744794Y-79182335D01*
X141590611Y-79227129D01*
X141590606Y-79227131D01*
X141445687Y-79312836D01*
X141444773Y-79311291D01*
X141388842Y-79333243D01*
X141320326Y-79319554D01*
X141270088Y-79270996D01*
X141260853Y-79250682D01*
X141225790Y-79150480D01*
X141206833Y-79120310D01*
X141129816Y-78997738D01*
X141002262Y-78870184D01*
X140926334Y-78822475D01*
X140849523Y-78774211D01*
X140679254Y-78714631D01*
X140679249Y-78714630D01*
X140500004Y-78694435D01*
X140499996Y-78694435D01*
X140320750Y-78714630D01*
X140320745Y-78714631D01*
X140150476Y-78774211D01*
X139997737Y-78870184D01*
X139870182Y-78997739D01*
X139804990Y-79101492D01*
X139752656Y-79147782D01*
X139683602Y-79158430D01*
X139619754Y-79130055D01*
X139595004Y-79101492D01*
X139529811Y-78997739D01*
X139402256Y-78870184D01*
X139249517Y-78774211D01*
X139079248Y-78714631D01*
X139079243Y-78714630D01*
X138899998Y-78694435D01*
X138899990Y-78694435D01*
X138720744Y-78714630D01*
X138720739Y-78714631D01*
X138550470Y-78774211D01*
X138397731Y-78870184D01*
X138270176Y-78997739D01*
X138207481Y-79097518D01*
X138155147Y-79143808D01*
X138086093Y-79154456D01*
X138022245Y-79126081D01*
X138014807Y-79119226D01*
X136213936Y-77318355D01*
X136213934Y-77318352D01*
X136095063Y-77199481D01*
X136095062Y-77199480D01*
X135988947Y-77138215D01*
X135988946Y-77138214D01*
X135958129Y-77120422D01*
X135883782Y-77100501D01*
X135805403Y-77079499D01*
X135647289Y-77079499D01*
X135639693Y-77079499D01*
X135639677Y-77079500D01*
X133946670Y-77079500D01*
X133946654Y-77079499D01*
X133939058Y-77079499D01*
X133780943Y-77079499D01*
X133704579Y-77099961D01*
X133628214Y-77120423D01*
X133628209Y-77120426D01*
X133491290Y-77199475D01*
X133491286Y-77199478D01*
X133193529Y-77497234D01*
X133132206Y-77530718D01*
X133073755Y-77529327D01*
X132945413Y-77494938D01*
X132945403Y-77494936D01*
X132710001Y-77474341D01*
X132709999Y-77474341D01*
X132474596Y-77494936D01*
X132474586Y-77494938D01*
X132246344Y-77556094D01*
X132246335Y-77556098D01*
X132032174Y-77655963D01*
X131945623Y-77716566D01*
X131879416Y-77738893D01*
X131811649Y-77721881D01*
X131763837Y-77670933D01*
X131750500Y-77614990D01*
X131750500Y-76465009D01*
X131770185Y-76397970D01*
X131822989Y-76352215D01*
X131892147Y-76342271D01*
X131945621Y-76363432D01*
X132032170Y-76424035D01*
X132246337Y-76523903D01*
X132246343Y-76523904D01*
X132246344Y-76523905D01*
X132277089Y-76532143D01*
X132474592Y-76585063D01*
X132651034Y-76600500D01*
X132709999Y-76605659D01*
X132710000Y-76605659D01*
X132710001Y-76605659D01*
X132768966Y-76600500D01*
X132945408Y-76585063D01*
X133173663Y-76523903D01*
X133387830Y-76424035D01*
X133581401Y-76288495D01*
X133703329Y-76166566D01*
X133764648Y-76133084D01*
X133834340Y-76138068D01*
X133890274Y-76179939D01*
X133907189Y-76210917D01*
X133956202Y-76342328D01*
X133956206Y-76342335D01*
X134042452Y-76457544D01*
X134042455Y-76457547D01*
X134157664Y-76543793D01*
X134157671Y-76543797D01*
X134292517Y-76594091D01*
X134292516Y-76594091D01*
X134299444Y-76594835D01*
X134352127Y-76600500D01*
X136147872Y-76600499D01*
X136207483Y-76594091D01*
X136342331Y-76543796D01*
X136457546Y-76457546D01*
X136484227Y-76421903D01*
X136500485Y-76400188D01*
X136556419Y-76358318D01*
X136599751Y-76350500D01*
X138016404Y-76350500D01*
X138083443Y-76370185D01*
X138129198Y-76422989D01*
X138139343Y-76458316D01*
X138139477Y-76459339D01*
X138139478Y-76459342D01*
X138196157Y-76596178D01*
X138263838Y-76684382D01*
X138263839Y-76684382D01*
X138538542Y-76409679D01*
X138599865Y-76376194D01*
X138642443Y-76374426D01*
X138644950Y-76374756D01*
X138708837Y-76403045D01*
X138747288Y-76461382D01*
X138748096Y-76531247D01*
X138716404Y-76585371D01*
X138470368Y-76831406D01*
X138540658Y-76860521D01*
X138650622Y-76874999D01*
X138650637Y-76875000D01*
X139099363Y-76875000D01*
X139099377Y-76874999D01*
X139212783Y-76860068D01*
X139281818Y-76870833D01*
X139303281Y-76883741D01*
X139382910Y-76943352D01*
X139382913Y-76943354D01*
X139517620Y-76993596D01*
X139517627Y-76993598D01*
X139577155Y-76999999D01*
X139577172Y-77000000D01*
X139650000Y-77000000D01*
X139650000Y-76324000D01*
X139669685Y-76256961D01*
X139722489Y-76211206D01*
X139774000Y-76200000D01*
X139826000Y-76200000D01*
X139893039Y-76219685D01*
X139938794Y-76272489D01*
X139950000Y-76324000D01*
X139950000Y-77000000D01*
X140022828Y-77000000D01*
X140022844Y-76999999D01*
X140082372Y-76993598D01*
X140082379Y-76993596D01*
X140217086Y-76943354D01*
X140217089Y-76943352D01*
X140302176Y-76879656D01*
X140367640Y-76855238D01*
X140408583Y-76859148D01*
X140415522Y-76861006D01*
X140415528Y-76861009D01*
X140525599Y-76875500D01*
X140974400Y-76875499D01*
X140974403Y-76875499D01*
X141084463Y-76861011D01*
X141084467Y-76861009D01*
X141084472Y-76861009D01*
X141099278Y-76854875D01*
X141168747Y-76847406D01*
X141231226Y-76878680D01*
X141265808Y-76934839D01*
X141267130Y-76939391D01*
X141267131Y-76939393D01*
X141348863Y-77077595D01*
X141348869Y-77077603D01*
X141462396Y-77191130D01*
X141462400Y-77191133D01*
X141462402Y-77191135D01*
X141600607Y-77272869D01*
X141600614Y-77272871D01*
X141754791Y-77317664D01*
X141754794Y-77317664D01*
X141754796Y-77317665D01*
X141790819Y-77320500D01*
X142189180Y-77320499D01*
X142225204Y-77317665D01*
X142379393Y-77272869D01*
X142436882Y-77238869D01*
X142504602Y-77221688D01*
X142563117Y-77238869D01*
X142620607Y-77272869D01*
X142620610Y-77272869D01*
X142620612Y-77272871D01*
X142774791Y-77317664D01*
X142774794Y-77317664D01*
X142774796Y-77317665D01*
X142810819Y-77320500D01*
X143209180Y-77320499D01*
X143245204Y-77317665D01*
X143399393Y-77272869D01*
X143537598Y-77191135D01*
X143651135Y-77077598D01*
X143714687Y-76970136D01*
X143765755Y-76922455D01*
X143834496Y-76909951D01*
X143868870Y-76918698D01*
X143943365Y-76949554D01*
X143943369Y-76949555D01*
X144060676Y-76964999D01*
X144537499Y-76964999D01*
X144537500Y-76964998D01*
X144537500Y-76439499D01*
X144557185Y-76372460D01*
X144609989Y-76326705D01*
X144661497Y-76315499D01*
X144813501Y-76315499D01*
X144880539Y-76335184D01*
X144926294Y-76387988D01*
X144937500Y-76439499D01*
X144937500Y-76964999D01*
X145414324Y-76964999D01*
X145531628Y-76949557D01*
X145531633Y-76949555D01*
X145677585Y-76889100D01*
X145802924Y-76792924D01*
X145899100Y-76667586D01*
X145959555Y-76521631D01*
X145967012Y-76465000D01*
X145749303Y-76465000D01*
X145682264Y-76445315D01*
X145636509Y-76392511D01*
X145626565Y-76323353D01*
X145655590Y-76259797D01*
X145673816Y-76242624D01*
X145677839Y-76239536D01*
X145677841Y-76239536D01*
X145803282Y-76143282D01*
X145820072Y-76121401D01*
X145826125Y-76113513D01*
X145882553Y-76072310D01*
X145924500Y-76065000D01*
X145967010Y-76065000D01*
X145967011Y-76064998D01*
X145959558Y-76008377D01*
X145959554Y-76008365D01*
X145951163Y-75988106D01*
X145943694Y-75918637D01*
X145951164Y-75893199D01*
X145951433Y-75892550D01*
X145960044Y-75871762D01*
X145975500Y-75754361D01*
X145975499Y-75475640D01*
X145960044Y-75358238D01*
X145960042Y-75358234D01*
X145951435Y-75337455D01*
X145943965Y-75267986D01*
X145951435Y-75242545D01*
X145960044Y-75221762D01*
X145975500Y-75104361D01*
X145975499Y-74825640D01*
X145975082Y-74822475D01*
X145969223Y-74777967D01*
X145960044Y-74708238D01*
X145960042Y-74708234D01*
X145951435Y-74687455D01*
X145943965Y-74617986D01*
X145951435Y-74592545D01*
X145960044Y-74571762D01*
X145975500Y-74454361D01*
X145975499Y-74175640D01*
X145960044Y-74058238D01*
X145960042Y-74058234D01*
X145951435Y-74037455D01*
X145943965Y-73967986D01*
X145951435Y-73942545D01*
X145960044Y-73921762D01*
X145975500Y-73804361D01*
X145975499Y-73525640D01*
X145960044Y-73408238D01*
X145960042Y-73408234D01*
X145951435Y-73387455D01*
X145943965Y-73317986D01*
X145951435Y-73292545D01*
X145960044Y-73271762D01*
X145975500Y-73154361D01*
X145975499Y-72875640D01*
X145960044Y-72758238D01*
X145960042Y-72758234D01*
X145951435Y-72737455D01*
X145943965Y-72667986D01*
X145951435Y-72642545D01*
X145956452Y-72630433D01*
X145960044Y-72621762D01*
X145975500Y-72504361D01*
X145975499Y-72225640D01*
X145973971Y-72214036D01*
X145969165Y-72177524D01*
X145960044Y-72108238D01*
X145960042Y-72108234D01*
X145951435Y-72087455D01*
X145943965Y-72017986D01*
X145951435Y-71992545D01*
X145960044Y-71971762D01*
X145975500Y-71854361D01*
X145975499Y-71575640D01*
X145960044Y-71458238D01*
X145951434Y-71437454D01*
X145943965Y-71367986D01*
X145951435Y-71342545D01*
X145957022Y-71329057D01*
X145960044Y-71321762D01*
X145975500Y-71204361D01*
X145975499Y-70925640D01*
X145970284Y-70886026D01*
X145981049Y-70816993D01*
X146027429Y-70764737D01*
X146079340Y-70746623D01*
X146179249Y-70735366D01*
X146179252Y-70735365D01*
X146179255Y-70735365D01*
X146349522Y-70675786D01*
X146502262Y-70579813D01*
X146629816Y-70452259D01*
X146725789Y-70299519D01*
X146785368Y-70129252D01*
X146792165Y-70068927D01*
X146805565Y-69950000D01*
X146805565Y-69949993D01*
X146785369Y-69770747D01*
X146785368Y-69770742D01*
X146748578Y-69665602D01*
X146725789Y-69600475D01*
X146725788Y-69600474D01*
X146723489Y-69593902D01*
X146725635Y-69593150D01*
X146716037Y-69534851D01*
X146724391Y-69506404D01*
X146723489Y-69506089D01*
X146785366Y-69329256D01*
X146785369Y-69329243D01*
X146805565Y-69149997D01*
X146805565Y-69149990D01*
X146785369Y-68970744D01*
X146785368Y-68970739D01*
X146723489Y-68793899D01*
X146725635Y-68793147D01*
X146716037Y-68734848D01*
X146724391Y-68706401D01*
X146723489Y-68706086D01*
X146785366Y-68529253D01*
X146785369Y-68529240D01*
X146805565Y-68349994D01*
X146805565Y-68349987D01*
X146785369Y-68170741D01*
X146785368Y-68170736D01*
X146723489Y-67993896D01*
X146725635Y-67993144D01*
X146716037Y-67934845D01*
X146724391Y-67906398D01*
X146723489Y-67906083D01*
X146785366Y-67729250D01*
X146785369Y-67729237D01*
X146805565Y-67549991D01*
X146805565Y-67549984D01*
X146785369Y-67370738D01*
X146785368Y-67370733D01*
X146783692Y-67365943D01*
X146725789Y-67200466D01*
X146723149Y-67196265D01*
X146646700Y-67074597D01*
X146629816Y-67047726D01*
X146502262Y-66920172D01*
X146349523Y-66824199D01*
X146179254Y-66764619D01*
X146179249Y-66764618D01*
X146000004Y-66744423D01*
X145999996Y-66744423D01*
X145820750Y-66764618D01*
X145820745Y-66764619D01*
X145650476Y-66824199D01*
X145516417Y-66908435D01*
X145449180Y-66927435D01*
X145382345Y-66907067D01*
X145337131Y-66853799D01*
X145327894Y-66784543D01*
X145357565Y-66721287D01*
X145362764Y-66715760D01*
X145378467Y-66700058D01*
X145736706Y-66341819D01*
X145798029Y-66308334D01*
X145824387Y-66305500D01*
X146265573Y-66305500D01*
X146265601Y-66305497D01*
X146321940Y-66305497D01*
X146321941Y-66305497D01*
X146455479Y-66286297D01*
X146455481Y-66286297D01*
X146461612Y-66285415D01*
X146464256Y-66285035D01*
X146464257Y-66285035D01*
X146602309Y-66244498D01*
X146733094Y-66184770D01*
X146854130Y-66106986D01*
X146854141Y-66106977D01*
X146881295Y-66083447D01*
X146962791Y-66012832D01*
X146962794Y-66012829D01*
X147057015Y-65904091D01*
X147134747Y-65783137D01*
X147194517Y-65652259D01*
X147235024Y-65514304D01*
X147255500Y-65371889D01*
X147255500Y-64800000D01*
X147250733Y-64733345D01*
X147265585Y-64665073D01*
X147314990Y-64615668D01*
X147374417Y-64600500D01*
X147720500Y-64600500D01*
X147787539Y-64620185D01*
G37*
%TD.AperFunction*%
%TA.AperFunction,Conductor*%
G36*
X137563563Y-87120185D02*
G01*
X137609318Y-87172989D01*
X137619262Y-87242147D01*
X137590237Y-87305703D01*
X137562496Y-87329494D01*
X137497736Y-87370185D01*
X137494903Y-87372445D01*
X137492724Y-87373334D01*
X137491842Y-87373889D01*
X137491744Y-87373734D01*
X137430217Y-87398855D01*
X137417588Y-87399500D01*
X137349170Y-87399500D01*
X137349154Y-87399499D01*
X137341558Y-87399499D01*
X137183443Y-87399499D01*
X137107079Y-87419961D01*
X137030714Y-87440423D01*
X137030709Y-87440426D01*
X136893790Y-87519475D01*
X136893786Y-87519478D01*
X136752263Y-87661001D01*
X136690940Y-87694485D01*
X136621248Y-87689501D01*
X136565315Y-87647629D01*
X136540898Y-87582165D01*
X136548400Y-87529986D01*
X136552319Y-87519480D01*
X136594091Y-87407483D01*
X136600500Y-87347873D01*
X136600500Y-87224500D01*
X136620185Y-87157461D01*
X136672989Y-87111706D01*
X136724500Y-87100500D01*
X137496524Y-87100500D01*
X137563563Y-87120185D01*
G37*
%TD.AperFunction*%
%TA.AperFunction,Conductor*%
G36*
X156286644Y-87110497D02*
G01*
X156290525Y-87111008D01*
X156290528Y-87111009D01*
X156400599Y-87125500D01*
X156592058Y-87125499D01*
X156659098Y-87145183D01*
X156679740Y-87161818D01*
X156705741Y-87187819D01*
X156739226Y-87249142D01*
X156734242Y-87318834D01*
X156692370Y-87374767D01*
X156626906Y-87399184D01*
X156618060Y-87399500D01*
X156214269Y-87399500D01*
X156147230Y-87379815D01*
X156101475Y-87327011D01*
X156091531Y-87257853D01*
X156120556Y-87194297D01*
X156139957Y-87176234D01*
X156196146Y-87134170D01*
X156261610Y-87109752D01*
X156286644Y-87110497D01*
G37*
%TD.AperFunction*%
%TA.AperFunction,Conductor*%
G36*
X163688350Y-76358117D02*
G01*
X163736163Y-76409065D01*
X163749500Y-76465009D01*
X163749500Y-77614990D01*
X163729815Y-77682029D01*
X163677011Y-77727784D01*
X163607853Y-77737728D01*
X163554377Y-77716565D01*
X163467834Y-77655967D01*
X163467830Y-77655965D01*
X163411751Y-77629815D01*
X163253663Y-77556097D01*
X163253659Y-77556096D01*
X163253655Y-77556094D01*
X163025413Y-77494938D01*
X163025403Y-77494936D01*
X162790001Y-77474341D01*
X162789999Y-77474341D01*
X162554596Y-77494936D01*
X162554586Y-77494938D01*
X162326344Y-77556094D01*
X162326335Y-77556098D01*
X162112171Y-77655964D01*
X162112169Y-77655965D01*
X161918600Y-77791503D01*
X161796673Y-77913430D01*
X161735350Y-77946914D01*
X161665658Y-77941930D01*
X161609725Y-77900058D01*
X161592810Y-77869081D01*
X161543797Y-77737671D01*
X161543793Y-77737664D01*
X161457547Y-77622455D01*
X161457544Y-77622452D01*
X161342335Y-77536206D01*
X161342328Y-77536202D01*
X161207482Y-77485908D01*
X161207483Y-77485908D01*
X161147883Y-77479501D01*
X161147881Y-77479500D01*
X161147873Y-77479500D01*
X161147864Y-77479500D01*
X159352129Y-77479500D01*
X159352123Y-77479501D01*
X159292516Y-77485908D01*
X159157671Y-77536202D01*
X159157664Y-77536206D01*
X159042455Y-77622452D01*
X159042452Y-77622455D01*
X158956206Y-77737664D01*
X158956202Y-77737671D01*
X158905908Y-77872517D01*
X158899501Y-77932116D01*
X158899500Y-77932135D01*
X158899500Y-79279901D01*
X158879815Y-79346940D01*
X158863181Y-79367582D01*
X158722934Y-79507830D01*
X158480598Y-79750167D01*
X158367584Y-79863181D01*
X158306261Y-79896666D01*
X158279903Y-79899500D01*
X157483596Y-79899500D01*
X157416557Y-79879815D01*
X157370802Y-79827011D01*
X157360657Y-79791684D01*
X157360522Y-79790660D01*
X157360521Y-79790657D01*
X157303842Y-79653821D01*
X157236160Y-79565616D01*
X157236159Y-79565616D01*
X156961456Y-79840319D01*
X156900133Y-79873804D01*
X156857602Y-79875579D01*
X156855101Y-79875250D01*
X156791202Y-79846990D01*
X156752725Y-79788669D01*
X156751886Y-79718805D01*
X156783593Y-79664627D01*
X157029629Y-79418591D01*
X156959345Y-79389479D01*
X156959341Y-79389478D01*
X156849377Y-79375000D01*
X156400637Y-79375000D01*
X156400619Y-79375001D01*
X156287216Y-79389931D01*
X156218181Y-79379165D01*
X156196720Y-79366259D01*
X156117088Y-79306646D01*
X156117086Y-79306645D01*
X155982379Y-79256403D01*
X155982372Y-79256401D01*
X155922844Y-79250000D01*
X155850000Y-79250000D01*
X155850000Y-79926000D01*
X155830315Y-79993039D01*
X155777511Y-80038794D01*
X155726000Y-80050000D01*
X155674500Y-80050000D01*
X155607461Y-80030315D01*
X155561706Y-79977511D01*
X155552555Y-79935447D01*
X155551560Y-79935578D01*
X155551060Y-79931778D01*
X155550759Y-79927193D01*
X155550500Y-79926000D01*
X155550500Y-79923232D01*
X155550000Y-79915602D01*
X155550000Y-79250000D01*
X155477155Y-79250000D01*
X155417627Y-79256401D01*
X155417620Y-79256403D01*
X155282913Y-79306645D01*
X155282910Y-79306647D01*
X155197822Y-79370344D01*
X155132357Y-79394761D01*
X155091422Y-79390853D01*
X155084472Y-79388991D01*
X154974401Y-79374500D01*
X154525596Y-79374500D01*
X154419273Y-79388497D01*
X154350238Y-79377731D01*
X154297983Y-79331350D01*
X154279099Y-79264080D01*
X154279472Y-79255830D01*
X154279931Y-79250000D01*
X153971985Y-79250000D01*
X153908866Y-79232733D01*
X153899393Y-79227131D01*
X153899388Y-79227129D01*
X153745208Y-79182335D01*
X153745202Y-79182334D01*
X153709188Y-79179500D01*
X153384499Y-79179500D01*
X153317460Y-79159815D01*
X153271705Y-79107011D01*
X153260499Y-79055500D01*
X153260499Y-78750831D01*
X153260498Y-78750806D01*
X153260382Y-78749332D01*
X153260000Y-78739607D01*
X153260000Y-78260408D01*
X153260382Y-78250679D01*
X153260500Y-78249181D01*
X153260499Y-78094499D01*
X153280183Y-78027461D01*
X153332987Y-77981706D01*
X153384499Y-77970500D01*
X153636000Y-77970500D01*
X153703039Y-77990185D01*
X153748794Y-78042989D01*
X153760000Y-78094500D01*
X153760000Y-78750000D01*
X154279931Y-78750000D01*
X154277167Y-78714877D01*
X154277166Y-78714871D01*
X154232407Y-78560810D01*
X154229308Y-78553648D01*
X154231169Y-78552842D01*
X154216591Y-78495415D01*
X154230806Y-78447000D01*
X154229308Y-78446352D01*
X154232407Y-78439189D01*
X154277166Y-78285129D01*
X154277167Y-78285123D01*
X154279999Y-78249135D01*
X154280000Y-78249120D01*
X154280000Y-78094500D01*
X154299685Y-78027461D01*
X154352489Y-77981706D01*
X154404000Y-77970500D01*
X154543331Y-77970500D01*
X154543347Y-77970501D01*
X154550943Y-77970501D01*
X154709054Y-77970501D01*
X154709057Y-77970501D01*
X154861785Y-77929577D01*
X154917934Y-77897159D01*
X154998716Y-77850520D01*
X155018534Y-77830701D01*
X155079853Y-77797216D01*
X155092313Y-77795163D01*
X155179255Y-77785368D01*
X155349522Y-77725789D01*
X155502262Y-77629816D01*
X155629816Y-77502262D01*
X155725789Y-77349522D01*
X155742035Y-77303092D01*
X155782756Y-77246317D01*
X155847709Y-77220569D01*
X155916270Y-77234025D01*
X155946758Y-77256366D01*
X156051137Y-77360745D01*
X156203877Y-77456718D01*
X156319665Y-77497234D01*
X156374144Y-77516297D01*
X156374149Y-77516298D01*
X156553395Y-77536494D01*
X156553399Y-77536494D01*
X156553403Y-77536494D01*
X156732648Y-77516298D01*
X156732651Y-77516297D01*
X156732654Y-77516297D01*
X156902921Y-77456718D01*
X157055661Y-77360745D01*
X157183215Y-77233191D01*
X157279188Y-77080451D01*
X157338767Y-76910184D01*
X157338768Y-76910178D01*
X157358964Y-76730932D01*
X157358964Y-76730925D01*
X157338938Y-76553186D01*
X157347598Y-76491849D01*
X157361008Y-76459474D01*
X157361007Y-76459474D01*
X157361009Y-76459472D01*
X157361161Y-76458316D01*
X157361561Y-76457412D01*
X157363112Y-76451624D01*
X157364014Y-76451865D01*
X157389426Y-76394420D01*
X157447750Y-76355948D01*
X157484100Y-76350500D01*
X158823557Y-76350500D01*
X158890596Y-76370185D01*
X158911238Y-76386819D01*
X159388793Y-76864374D01*
X159388803Y-76864385D01*
X159393133Y-76868715D01*
X159393134Y-76868716D01*
X159504938Y-76980520D01*
X159504940Y-76980521D01*
X159504941Y-76980522D01*
X159518474Y-76988335D01*
X159561168Y-77012984D01*
X159624813Y-77049729D01*
X159641865Y-77059575D01*
X159641869Y-77059577D01*
X159794597Y-77100500D01*
X161453331Y-77100500D01*
X161453347Y-77100501D01*
X161460943Y-77100501D01*
X161619054Y-77100501D01*
X161619057Y-77100501D01*
X161771785Y-77059577D01*
X161852486Y-77012984D01*
X161908716Y-76980520D01*
X162020520Y-76868716D01*
X162020520Y-76868714D01*
X162030724Y-76858511D01*
X162030728Y-76858506D01*
X162306470Y-76582763D01*
X162367791Y-76549280D01*
X162426238Y-76550670D01*
X162554592Y-76585063D01*
X162731034Y-76600500D01*
X162789999Y-76605659D01*
X162790000Y-76605659D01*
X162790001Y-76605659D01*
X162848966Y-76600500D01*
X163025408Y-76585063D01*
X163253663Y-76523903D01*
X163467830Y-76424035D01*
X163554378Y-76363433D01*
X163620582Y-76341107D01*
X163688350Y-76358117D01*
G37*
%TD.AperFunction*%
%TA.AperFunction,Conductor*%
G36*
X163692539Y-63520185D02*
G01*
X163738294Y-63572989D01*
X163749500Y-63624500D01*
X163749500Y-66414990D01*
X163729815Y-66482029D01*
X163677011Y-66527784D01*
X163607853Y-66537728D01*
X163554377Y-66516565D01*
X163467834Y-66455967D01*
X163467830Y-66455965D01*
X163467826Y-66455963D01*
X163253663Y-66356097D01*
X163253659Y-66356096D01*
X163253655Y-66356094D01*
X163025413Y-66294938D01*
X163025403Y-66294936D01*
X162790001Y-66274341D01*
X162789999Y-66274341D01*
X162554596Y-66294936D01*
X162554586Y-66294938D01*
X162326344Y-66356094D01*
X162326335Y-66356098D01*
X162112171Y-66455964D01*
X162112169Y-66455965D01*
X161918600Y-66591503D01*
X161796673Y-66713430D01*
X161735350Y-66746914D01*
X161665658Y-66741930D01*
X161609725Y-66700058D01*
X161592810Y-66669081D01*
X161543797Y-66537671D01*
X161543793Y-66537664D01*
X161457547Y-66422455D01*
X161457544Y-66422452D01*
X161342335Y-66336206D01*
X161342328Y-66336202D01*
X161207482Y-66285908D01*
X161207483Y-66285908D01*
X161147883Y-66279501D01*
X161147881Y-66279500D01*
X161147873Y-66279500D01*
X161147864Y-66279500D01*
X159352129Y-66279500D01*
X159352123Y-66279501D01*
X159292516Y-66285908D01*
X159157671Y-66336202D01*
X159157664Y-66336206D01*
X159042455Y-66422452D01*
X159042452Y-66422455D01*
X158956206Y-66537664D01*
X158956202Y-66537671D01*
X158905908Y-66672517D01*
X158899501Y-66732116D01*
X158899500Y-66732135D01*
X158899500Y-68079901D01*
X158879815Y-68146940D01*
X158863181Y-68167582D01*
X158557082Y-68473681D01*
X158495759Y-68507166D01*
X158469401Y-68510000D01*
X158000000Y-68510000D01*
X158000000Y-68979401D01*
X157980315Y-69046440D01*
X157963681Y-69067082D01*
X157529700Y-69501064D01*
X157468377Y-69534549D01*
X157398686Y-69529565D01*
X157342752Y-69487694D01*
X157327458Y-69460835D01*
X157303843Y-69403822D01*
X157236160Y-69315616D01*
X157236159Y-69315616D01*
X156961456Y-69590319D01*
X156900133Y-69623804D01*
X156857602Y-69625579D01*
X156855101Y-69625250D01*
X156791202Y-69596990D01*
X156752725Y-69538669D01*
X156751886Y-69468805D01*
X156783593Y-69414627D01*
X157029629Y-69168591D01*
X157025522Y-69147942D01*
X157031749Y-69078351D01*
X157074611Y-69023173D01*
X157112546Y-69004673D01*
X157189192Y-68982406D01*
X157196352Y-68979308D01*
X157197157Y-68981169D01*
X157254585Y-68966591D01*
X157302999Y-68980806D01*
X157303648Y-68979308D01*
X157310810Y-68982407D01*
X157464871Y-69027166D01*
X157464877Y-69027167D01*
X157500000Y-69029931D01*
X157500000Y-68510000D01*
X156000000Y-68510000D01*
X156000000Y-68949000D01*
X155980315Y-69016039D01*
X155927511Y-69061794D01*
X155876000Y-69073000D01*
X155850000Y-69073000D01*
X155850000Y-69676000D01*
X155830315Y-69743039D01*
X155777511Y-69788794D01*
X155726000Y-69800000D01*
X155674500Y-69800000D01*
X155607461Y-69780315D01*
X155561706Y-69727511D01*
X155552555Y-69685447D01*
X155551560Y-69685578D01*
X155551060Y-69681778D01*
X155550759Y-69677193D01*
X155550500Y-69676000D01*
X155550500Y-69673232D01*
X155550000Y-69665602D01*
X155550000Y-69073000D01*
X155536319Y-69059319D01*
X155502834Y-68997996D01*
X155500000Y-68971638D01*
X155500000Y-68510000D01*
X154948362Y-68510000D01*
X154914306Y-68500000D01*
X154624000Y-68500000D01*
X154556961Y-68480315D01*
X154511206Y-68427511D01*
X154500000Y-68376000D01*
X154500000Y-68124499D01*
X154519685Y-68057460D01*
X154572489Y-68011705D01*
X154623996Y-68000499D01*
X154999180Y-68000499D01*
X154999193Y-68000498D01*
X155000668Y-68000382D01*
X155010393Y-68000000D01*
X155420766Y-68000000D01*
X155455359Y-68004923D01*
X155464796Y-68007665D01*
X155500819Y-68010500D01*
X155999180Y-68010499D01*
X156000337Y-68010408D01*
X156000668Y-68010382D01*
X156010393Y-68010000D01*
X156489591Y-68010000D01*
X156499318Y-68010382D01*
X156499516Y-68010397D01*
X156500819Y-68010500D01*
X156999180Y-68010499D01*
X157000337Y-68010408D01*
X157000668Y-68010382D01*
X157010393Y-68010000D01*
X157489591Y-68010000D01*
X157499318Y-68010382D01*
X157499516Y-68010397D01*
X157500819Y-68010500D01*
X157999180Y-68010499D01*
X158000337Y-68010408D01*
X158000668Y-68010382D01*
X158010393Y-68010000D01*
X158562844Y-68010000D01*
X158522404Y-67870805D01*
X158488581Y-67813612D01*
X158471398Y-67745888D01*
X158488582Y-67687369D01*
X158522869Y-67629393D01*
X158554742Y-67519685D01*
X158567664Y-67475208D01*
X158567664Y-67475206D01*
X158567665Y-67475204D01*
X158570500Y-67439181D01*
X158570499Y-67040820D01*
X158567665Y-67004796D01*
X158522869Y-66850607D01*
X158441135Y-66712402D01*
X158441133Y-66712400D01*
X158441130Y-66712396D01*
X158336819Y-66608085D01*
X158303334Y-66546762D01*
X158300500Y-66520404D01*
X158300500Y-65977527D01*
X158300500Y-65977525D01*
X158262984Y-65837515D01*
X158231589Y-65783137D01*
X158208088Y-65742432D01*
X158191617Y-65674534D01*
X158196497Y-65645514D01*
X158235024Y-65514304D01*
X158255500Y-65371889D01*
X158255500Y-64800000D01*
X158250355Y-64728060D01*
X158239396Y-64690740D01*
X158235636Y-64638158D01*
X158255500Y-64500000D01*
X158255500Y-63928111D01*
X158235024Y-63785696D01*
X158197950Y-63659432D01*
X158197950Y-63589566D01*
X158235724Y-63530787D01*
X158299280Y-63501762D01*
X158316927Y-63500500D01*
X163625500Y-63500500D01*
X163692539Y-63520185D01*
G37*
%TD.AperFunction*%
%TA.AperFunction,Conductor*%
G36*
X153693039Y-67519685D02*
G01*
X153738794Y-67572489D01*
X153750000Y-67624000D01*
X153750000Y-68805500D01*
X153730315Y-68872539D01*
X153677511Y-68918294D01*
X153626000Y-68929500D01*
X153374499Y-68929500D01*
X153307460Y-68909815D01*
X153261705Y-68857011D01*
X153250499Y-68805500D01*
X153250499Y-68500831D01*
X153250498Y-68500806D01*
X153250382Y-68499332D01*
X153250000Y-68489607D01*
X153250000Y-68010408D01*
X153250382Y-68000679D01*
X153250396Y-68000498D01*
X153250500Y-67999181D01*
X153250499Y-67623999D01*
X153270183Y-67556961D01*
X153322987Y-67511206D01*
X153374499Y-67500000D01*
X153626000Y-67500000D01*
X153693039Y-67519685D01*
G37*
%TD.AperFunction*%
%TA.AperFunction,Conductor*%
G36*
X140242775Y-68029685D02*
G01*
X140288530Y-68082489D01*
X140298474Y-68151647D01*
X140269449Y-68215203D01*
X140216691Y-68251041D01*
X140150480Y-68274209D01*
X139997737Y-68370184D01*
X139870184Y-68497737D01*
X139854994Y-68521913D01*
X139802659Y-68568204D01*
X139733605Y-68578852D01*
X139669757Y-68550477D01*
X139645006Y-68521913D01*
X139629816Y-68497738D01*
X139596319Y-68464241D01*
X139562834Y-68402918D01*
X139560000Y-68376560D01*
X139560000Y-68134499D01*
X139579685Y-68067460D01*
X139632489Y-68021705D01*
X139683996Y-68010499D01*
X140059180Y-68010499D01*
X140060337Y-68010408D01*
X140060668Y-68010382D01*
X140070393Y-68010000D01*
X140175736Y-68010000D01*
X140242775Y-68029685D01*
G37*
%TD.AperFunction*%
%TA.AperFunction,Conductor*%
G36*
X141549318Y-68010382D02*
G01*
X141549516Y-68010397D01*
X141550819Y-68010500D01*
X142049180Y-68010499D01*
X142050337Y-68010408D01*
X142050668Y-68010382D01*
X142060393Y-68010000D01*
X142539591Y-68010000D01*
X142549318Y-68010382D01*
X142549516Y-68010397D01*
X142550819Y-68010500D01*
X142926000Y-68010499D01*
X142993039Y-68030183D01*
X143038794Y-68082987D01*
X143050000Y-68134499D01*
X143050000Y-68386000D01*
X143030315Y-68453039D01*
X142977511Y-68498794D01*
X142926000Y-68510000D01*
X141193441Y-68510000D01*
X141126402Y-68490315D01*
X141105760Y-68473682D01*
X141059589Y-68427511D01*
X141002262Y-68370184D01*
X140849522Y-68274211D01*
X140849519Y-68274209D01*
X140784736Y-68251540D01*
X140727960Y-68210818D01*
X140702213Y-68145866D01*
X140715670Y-68077304D01*
X140764057Y-68026901D01*
X140825689Y-68010499D01*
X141059180Y-68010499D01*
X141060337Y-68010408D01*
X141060668Y-68010382D01*
X141070393Y-68010000D01*
X141539591Y-68010000D01*
X141549318Y-68010382D01*
G37*
%TD.AperFunction*%
%TD*%
M02*
