M48
; DRILL file {KiCad 8.0.3-8.0.3-0~ubuntu22.04.1} date 2024-07-16T20:39:53+0900
; FORMAT={-:-/ absolute / inch / decimal}
; #@! TF.CreationDate,2024-07-16T20:39:53+09:00
; #@! TF.GenerationSoftware,Kicad,Pcbnew,8.0.3-8.0.3-0~ubuntu22.04.1
; #@! TF.FileFunction,Plated,1,2,PTH
FMAT,2
INCH
; #@! TA.AperFunction,Plated,PTH,ViaDrill
T1C0.0118
; #@! TA.AperFunction,Plated,PTH,ComponentDrill
T2C0.0394
%
G90
G05
T1
X5.2756Y-3.4744
X5.3937Y-2.5197
X5.4331Y-3.4646
X5.4528Y-2.6181
X5.4685Y-3.1299
X5.4724Y-2.7165
X5.4724Y-2.874
X5.4724Y-3.2972
X5.5Y-3.1299
X5.502Y-3.0315
X5.502Y-3.4882
X5.5315Y-2.6181
X5.5315Y-2.7165
X5.5315Y-2.874
X5.5315Y-3.1299
X5.5315Y-3.2972
X5.561Y-3.4882
X5.6201Y-3.4646
X5.6299Y-2.6169
X5.6791Y-3.4941
X5.6988Y-2.5886
X5.7479Y-3.0764
X5.7479Y-3.1079
X5.748Y-3.1709
X5.748Y-2.6594
X5.748Y-2.6909
X5.748Y-2.7224
X5.748Y-2.7539
X5.748Y-2.7854
X5.748Y-3.2024
X5.7481Y-3.1394
X5.7776Y-3.4646
X5.8268Y-3.4843
X5.8366Y-2.815
X5.876Y-2.6949
X5.876Y-2.7264
X5.876Y-2.7756
X5.876Y-3.1083
X5.876Y-3.1398
X5.876Y-3.189
X5.8858Y-2.6083
X5.9288Y-2.5925
X5.9693Y-2.6706
X6.0433Y-2.5886
X6.0728Y-2.7165
X6.0728Y-3.0906
X6.1024Y-2.874
X6.1024Y-3.0315
X6.1024Y-3.2776
X6.1024Y-3.435
X6.126Y-3.4646
X6.1319Y-3.1201
X6.1339Y-3.0315
X6.1417Y-2.5886
X6.1417Y-3.5138
X6.1417Y-3.5728
X6.1614Y-2.874
X6.1614Y-3.2776
X6.1635Y-3.0209
X6.1909Y-3.4094
T2
X5.2248Y-2.6626
X5.2248Y-2.7626
X5.2248Y-2.8626
X5.2248Y-2.9626
X5.2248Y-3.1035
X5.2248Y-3.2035
X5.2248Y-3.3035
X5.2248Y-3.4035
X5.3248Y-2.6626
X5.3248Y-2.7626
X5.3248Y-2.8626
X5.3248Y-2.9626
X5.3248Y-3.1035
X5.3248Y-3.2035
X5.3248Y-3.3035
X5.3248Y-3.4035
X5.5472Y-3.5531
X5.6472Y-3.5531
X5.7472Y-3.5531
X5.8472Y-3.5531
X5.9472Y-3.5531
X6.0472Y-3.5531
X6.3091Y-2.6626
X6.3091Y-2.7626
X6.3091Y-2.8626
X6.3091Y-2.9626
X6.3091Y-3.1035
X6.3091Y-3.2035
X6.3091Y-3.3035
X6.3091Y-3.4035
X6.4091Y-2.6626
X6.4091Y-2.7626
X6.4091Y-2.8626
X6.4091Y-2.9626
X6.4091Y-3.1035
X6.4091Y-3.2035
X6.4091Y-3.3035
X6.4091Y-3.4035
M30
