%TF.GenerationSoftware,KiCad,Pcbnew,8.0.3-8.0.3-0~ubuntu22.04.1*%
%TF.CreationDate,2024-07-16T20:39:51+09:00*%
%TF.ProjectId,PCA9685_ver3,50434139-3638-4355-9f76-6572332e6b69,rev?*%
%TF.SameCoordinates,Original*%
%TF.FileFunction,Legend,Top*%
%TF.FilePolarity,Positive*%
%FSLAX46Y46*%
G04 Gerber Fmt 4.6, Leading zero omitted, Abs format (unit mm)*
G04 Created by KiCad (PCBNEW 8.0.3-8.0.3-0~ubuntu22.04.1) date 2024-07-16 20:39:51*
%MOMM*%
%LPD*%
G01*
G04 APERTURE LIST*
%ADD10C,0.200000*%
%ADD11C,0.120000*%
G04 APERTURE END LIST*
D10*
%TO.C,U10*%
X157525000Y-72250000D02*
G75*
G02*
X157325000Y-72250000I-100000J0D01*
G01*
X157325000Y-72250000D02*
G75*
G02*
X157525000Y-72250000I100000J0D01*
G01*
%TO.C,U9*%
X157525000Y-76250000D02*
G75*
G02*
X157325000Y-76250000I-100000J0D01*
G01*
X157325000Y-76250000D02*
G75*
G02*
X157525000Y-76250000I100000J0D01*
G01*
%TO.C,U6*%
X157525000Y-82500000D02*
G75*
G02*
X157325000Y-82500000I-100000J0D01*
G01*
X157325000Y-82500000D02*
G75*
G02*
X157525000Y-82500000I100000J0D01*
G01*
%TO.C,U5*%
X157525000Y-86500000D02*
G75*
G02*
X157325000Y-86500000I-100000J0D01*
G01*
X157325000Y-86500000D02*
G75*
G02*
X157525000Y-86500000I100000J0D01*
G01*
%TO.C,U4*%
X138175000Y-84500000D02*
G75*
G02*
X137975000Y-84500000I-100000J0D01*
G01*
X137975000Y-84500000D02*
G75*
G02*
X138175000Y-84500000I100000J0D01*
G01*
%TO.C,U3*%
X138175000Y-80250000D02*
G75*
G02*
X137975000Y-80250000I-100000J0D01*
G01*
X137975000Y-80250000D02*
G75*
G02*
X138175000Y-80250000I100000J0D01*
G01*
%TO.C,U8*%
X138175000Y-73750000D02*
G75*
G02*
X137975000Y-73750000I-100000J0D01*
G01*
X137975000Y-73750000D02*
G75*
G02*
X138175000Y-73750000I100000J0D01*
G01*
%TO.C,U7*%
X138125000Y-69750000D02*
G75*
G02*
X137925000Y-69750000I-100000J0D01*
G01*
X137925000Y-69750000D02*
G75*
G02*
X138125000Y-69750000I100000J0D01*
G01*
D11*
%TO.C,R6*%
X142643641Y-82620000D02*
X142336359Y-82620000D01*
X142643641Y-83380000D02*
X142336359Y-83380000D01*
%TO.C,R1*%
X152846359Y-78620000D02*
X153153641Y-78620000D01*
X152846359Y-79380000D02*
X153153641Y-79380000D01*
%TO.C,J2*%
X139570000Y-86150000D02*
X139570000Y-88810000D01*
X139570000Y-88810000D02*
X154930000Y-88810000D01*
X139630000Y-91520000D02*
X139630000Y-90250000D01*
X140520000Y-80150000D02*
X141280000Y-80150000D01*
X140520000Y-86150000D02*
X140520000Y-80150000D01*
X140520000Y-89140000D02*
X140520000Y-88810000D01*
X140580000Y-86150000D02*
X140580000Y-80150000D01*
X140700000Y-86150000D02*
X140700000Y-80150000D01*
X140820000Y-86150000D02*
X140820000Y-80150000D01*
X140900000Y-91520000D02*
X139630000Y-91520000D01*
X140940000Y-86150000D02*
X140940000Y-80150000D01*
X141060000Y-86150000D02*
X141060000Y-80150000D01*
X141180000Y-86150000D02*
X141180000Y-80150000D01*
X141280000Y-80150000D02*
X141280000Y-86150000D01*
X141280000Y-89140000D02*
X141280000Y-88810000D01*
X142170000Y-88810000D02*
X142170000Y-86150000D01*
X143060000Y-80150000D02*
X143820000Y-80150000D01*
X143060000Y-86150000D02*
X143060000Y-80150000D01*
X143060000Y-89207071D02*
X143060000Y-88810000D01*
X143820000Y-80150000D02*
X143820000Y-86150000D01*
X143820000Y-89207071D02*
X143820000Y-88810000D01*
X144710000Y-88810000D02*
X144710000Y-86150000D01*
X145600000Y-80150000D02*
X146360000Y-80150000D01*
X145600000Y-86150000D02*
X145600000Y-80150000D01*
X145600000Y-89207071D02*
X145600000Y-88810000D01*
X146360000Y-80150000D02*
X146360000Y-86150000D01*
X146360000Y-89207071D02*
X146360000Y-88810000D01*
X147250000Y-88810000D02*
X147250000Y-86150000D01*
X148140000Y-80150000D02*
X148900000Y-80150000D01*
X148140000Y-86150000D02*
X148140000Y-80150000D01*
X148140000Y-89207071D02*
X148140000Y-88810000D01*
X148900000Y-80150000D02*
X148900000Y-86150000D01*
X148900000Y-89207071D02*
X148900000Y-88810000D01*
X149790000Y-88810000D02*
X149790000Y-86150000D01*
X150680000Y-80150000D02*
X151440000Y-80150000D01*
X150680000Y-86150000D02*
X150680000Y-80150000D01*
X150680000Y-89207071D02*
X150680000Y-88810000D01*
X151440000Y-80150000D02*
X151440000Y-86150000D01*
X151440000Y-89207071D02*
X151440000Y-88810000D01*
X152330000Y-88810000D02*
X152330000Y-86150000D01*
X153220000Y-80150000D02*
X153980000Y-80150000D01*
X153220000Y-86150000D02*
X153220000Y-80150000D01*
X153220000Y-89207071D02*
X153220000Y-88810000D01*
X153980000Y-80150000D02*
X153980000Y-86150000D01*
X153980000Y-89207071D02*
X153980000Y-88810000D01*
X154930000Y-86150000D02*
X139570000Y-86150000D01*
X154930000Y-88810000D02*
X154930000Y-86150000D01*
%TO.C,J6*%
X122610000Y-78450000D02*
X128610000Y-78450000D01*
X122610000Y-79210000D02*
X122610000Y-78450000D01*
X122610000Y-80990000D02*
X128610000Y-80990000D01*
X122610000Y-81750000D02*
X122610000Y-80990000D01*
X122610000Y-83530000D02*
X128610000Y-83530000D01*
X122610000Y-84290000D02*
X122610000Y-83530000D01*
X122610000Y-86070000D02*
X128610000Y-86070000D01*
X122610000Y-86830000D02*
X122610000Y-86070000D01*
X128610000Y-77500000D02*
X128610000Y-87780000D01*
X128610000Y-79210000D02*
X122610000Y-79210000D01*
X128610000Y-81750000D02*
X122610000Y-81750000D01*
X128610000Y-84290000D02*
X122610000Y-84290000D01*
X128610000Y-86170000D02*
X122610000Y-86170000D01*
X128610000Y-86290000D02*
X122610000Y-86290000D01*
X128610000Y-86410000D02*
X122610000Y-86410000D01*
X128610000Y-86530000D02*
X122610000Y-86530000D01*
X128610000Y-86650000D02*
X122610000Y-86650000D01*
X128610000Y-86770000D02*
X122610000Y-86770000D01*
X128610000Y-86830000D02*
X122610000Y-86830000D01*
X128610000Y-87780000D02*
X131270000Y-87780000D01*
X131270000Y-77500000D02*
X128610000Y-77500000D01*
X131270000Y-80100000D02*
X128610000Y-80100000D01*
X131270000Y-82640000D02*
X128610000Y-82640000D01*
X131270000Y-85180000D02*
X128610000Y-85180000D01*
X131270000Y-87780000D02*
X131270000Y-77500000D01*
X131667071Y-78450000D02*
X131270000Y-78450000D01*
X131667071Y-79210000D02*
X131270000Y-79210000D01*
X131667071Y-80990000D02*
X131270000Y-80990000D01*
X131667071Y-81750000D02*
X131270000Y-81750000D01*
X131667071Y-83530000D02*
X131270000Y-83530000D01*
X131667071Y-84290000D02*
X131270000Y-84290000D01*
X131667071Y-86070000D02*
X131270000Y-86070000D01*
X131667071Y-86830000D02*
X131270000Y-86830000D01*
X134140000Y-86070000D02*
X133752929Y-86070000D01*
X134140000Y-86830000D02*
X133752929Y-86830000D01*
X134207071Y-78450000D02*
X133752929Y-78450000D01*
X134207071Y-79210000D02*
X133752929Y-79210000D01*
X134207071Y-80990000D02*
X133752929Y-80990000D01*
X134207071Y-81750000D02*
X133752929Y-81750000D01*
X134207071Y-83530000D02*
X133752929Y-83530000D01*
X134207071Y-84290000D02*
X133752929Y-84290000D01*
X136520000Y-86450000D02*
X136520000Y-87720000D01*
X136520000Y-87720000D02*
X135250000Y-87720000D01*
%TO.C,R25*%
X156515000Y-90227064D02*
X156515000Y-89772936D01*
X157985000Y-90227064D02*
X157985000Y-89772936D01*
%TO.C,R12*%
X152846359Y-85620000D02*
X153153641Y-85620000D01*
X152846359Y-86380000D02*
X153153641Y-86380000D01*
%TO.C,JP14*%
X156000000Y-65350000D02*
X156000000Y-63950000D01*
X156700000Y-63250000D02*
X157300000Y-63250000D01*
X157300000Y-66050000D02*
X156700000Y-66050000D01*
X158000000Y-63950000D02*
X158000000Y-65350000D01*
X156000000Y-63950000D02*
G75*
G02*
X156700000Y-63250000I699999J1D01*
G01*
X156700000Y-66050000D02*
G75*
G02*
X156000000Y-65350000I0J700000D01*
G01*
X157300000Y-63250000D02*
G75*
G02*
X158000000Y-63950000I1J-699999D01*
G01*
X158000000Y-65350000D02*
G75*
G02*
X157300000Y-66050000I-700000J0D01*
G01*
%TO.C,R13*%
X152846359Y-84620000D02*
X153153641Y-84620000D01*
X152846359Y-85380000D02*
X153153641Y-85380000D01*
%TO.C,R33*%
X142653641Y-71120000D02*
X142346359Y-71120000D01*
X142653641Y-71880000D02*
X142346359Y-71880000D01*
%TO.C,R49*%
X156370000Y-67903641D02*
X156370000Y-67596359D01*
X157130000Y-67903641D02*
X157130000Y-67596359D01*
%TO.C,R10*%
X142643641Y-86620000D02*
X142336359Y-86620000D01*
X142643641Y-87380000D02*
X142336359Y-87380000D01*
%TO.C,R42*%
X152856359Y-73370000D02*
X153163641Y-73370000D01*
X152856359Y-74130000D02*
X153163641Y-74130000D01*
%TO.C,C1*%
X160490000Y-90115580D02*
X160490000Y-89834420D01*
X161510000Y-90115580D02*
X161510000Y-89834420D01*
%TO.C,U1*%
X145290000Y-77565000D02*
X145290000Y-77840000D01*
X145290000Y-87485000D02*
X145290000Y-87210000D01*
X147600000Y-77565000D02*
X145290000Y-77565000D01*
X147600000Y-77565000D02*
X149910000Y-77565000D01*
X147600000Y-87485000D02*
X145290000Y-87485000D01*
X147600000Y-87485000D02*
X149910000Y-87485000D01*
X149910000Y-77565000D02*
X149910000Y-77840000D01*
X149910000Y-87485000D02*
X149910000Y-87210000D01*
X144700000Y-77840000D02*
X144460000Y-77510000D01*
X144940000Y-77510000D01*
X144700000Y-77840000D01*
G36*
X144700000Y-77840000D02*
G01*
X144460000Y-77510000D01*
X144940000Y-77510000D01*
X144700000Y-77840000D01*
G37*
%TO.C,R41*%
X152856359Y-74370000D02*
X153163641Y-74370000D01*
X152856359Y-75130000D02*
X153163641Y-75130000D01*
%TO.C,R27*%
X135265000Y-90402064D02*
X135265000Y-89947936D01*
X136735000Y-90402064D02*
X136735000Y-89947936D01*
%TO.C,JP1*%
X145000000Y-65350000D02*
X145000000Y-63950000D01*
X145700000Y-63250000D02*
X146300000Y-63250000D01*
X146300000Y-66050000D02*
X145700000Y-66050000D01*
X147000000Y-63950000D02*
X147000000Y-65350000D01*
X145000000Y-63950000D02*
G75*
G02*
X145700000Y-63250000I699999J1D01*
G01*
X145700000Y-66050000D02*
G75*
G02*
X145000000Y-65350000I0J700000D01*
G01*
X146300000Y-63250000D02*
G75*
G02*
X147000000Y-63950000I1J-699999D01*
G01*
X147000000Y-65350000D02*
G75*
G02*
X146300000Y-66050000I-700000J0D01*
G01*
%TO.C,R3*%
X142643641Y-79620000D02*
X142336359Y-79620000D01*
X142643641Y-80380000D02*
X142336359Y-80380000D01*
%TO.C,JP4*%
X137500000Y-65350000D02*
X137500000Y-63950000D01*
X138200000Y-63250000D02*
X138800000Y-63250000D01*
X138800000Y-66050000D02*
X138200000Y-66050000D01*
X139500000Y-63950000D02*
X139500000Y-65350000D01*
X137500000Y-63950000D02*
G75*
G02*
X138200000Y-63250000I699999J1D01*
G01*
X138200000Y-66050000D02*
G75*
G02*
X137500000Y-65350000I0J700000D01*
G01*
X138800000Y-63250000D02*
G75*
G02*
X139500000Y-63950000I1J-699999D01*
G01*
X139500000Y-65350000D02*
G75*
G02*
X138800000Y-66050000I-700000J0D01*
G01*
%TO.C,R38*%
X142653641Y-76120000D02*
X142346359Y-76120000D01*
X142653641Y-76880000D02*
X142346359Y-76880000D01*
%TO.C,R17*%
X152846359Y-80620000D02*
X153153641Y-80620000D01*
X152846359Y-81380000D02*
X153153641Y-81380000D01*
%TO.C,JP13*%
X153500000Y-65350000D02*
X153500000Y-63950000D01*
X154200000Y-63250000D02*
X154800000Y-63250000D01*
X154800000Y-66050000D02*
X154200000Y-66050000D01*
X155500000Y-63950000D02*
X155500000Y-65350000D01*
X153500000Y-63950000D02*
G75*
G02*
X154200000Y-63250000I699999J1D01*
G01*
X154200000Y-66050000D02*
G75*
G02*
X153500000Y-65350000I0J700000D01*
G01*
X154800000Y-63250000D02*
G75*
G02*
X155500000Y-63950000I1J-699999D01*
G01*
X155500000Y-65350000D02*
G75*
G02*
X154800000Y-66050000I-700000J0D01*
G01*
%TO.C,J1*%
X122610000Y-67250000D02*
X128610000Y-67250000D01*
X122610000Y-68010000D02*
X122610000Y-67250000D01*
X122610000Y-69790000D02*
X128610000Y-69790000D01*
X122610000Y-70550000D02*
X122610000Y-69790000D01*
X122610000Y-72330000D02*
X128610000Y-72330000D01*
X122610000Y-73090000D02*
X122610000Y-72330000D01*
X122610000Y-74870000D02*
X128610000Y-74870000D01*
X122610000Y-75630000D02*
X122610000Y-74870000D01*
X128610000Y-66300000D02*
X128610000Y-76580000D01*
X128610000Y-68010000D02*
X122610000Y-68010000D01*
X128610000Y-70550000D02*
X122610000Y-70550000D01*
X128610000Y-73090000D02*
X122610000Y-73090000D01*
X128610000Y-74970000D02*
X122610000Y-74970000D01*
X128610000Y-75090000D02*
X122610000Y-75090000D01*
X128610000Y-75210000D02*
X122610000Y-75210000D01*
X128610000Y-75330000D02*
X122610000Y-75330000D01*
X128610000Y-75450000D02*
X122610000Y-75450000D01*
X128610000Y-75570000D02*
X122610000Y-75570000D01*
X128610000Y-75630000D02*
X122610000Y-75630000D01*
X128610000Y-76580000D02*
X131270000Y-76580000D01*
X131270000Y-66300000D02*
X128610000Y-66300000D01*
X131270000Y-68900000D02*
X128610000Y-68900000D01*
X131270000Y-71440000D02*
X128610000Y-71440000D01*
X131270000Y-73980000D02*
X128610000Y-73980000D01*
X131270000Y-76580000D02*
X131270000Y-66300000D01*
X131667071Y-67250000D02*
X131270000Y-67250000D01*
X131667071Y-68010000D02*
X131270000Y-68010000D01*
X131667071Y-69790000D02*
X131270000Y-69790000D01*
X131667071Y-70550000D02*
X131270000Y-70550000D01*
X131667071Y-72330000D02*
X131270000Y-72330000D01*
X131667071Y-73090000D02*
X131270000Y-73090000D01*
X131667071Y-74870000D02*
X131270000Y-74870000D01*
X131667071Y-75630000D02*
X131270000Y-75630000D01*
X134140000Y-74870000D02*
X133752929Y-74870000D01*
X134140000Y-75630000D02*
X133752929Y-75630000D01*
X134207071Y-67250000D02*
X133752929Y-67250000D01*
X134207071Y-68010000D02*
X133752929Y-68010000D01*
X134207071Y-69790000D02*
X133752929Y-69790000D01*
X134207071Y-70550000D02*
X133752929Y-70550000D01*
X134207071Y-72330000D02*
X133752929Y-72330000D01*
X134207071Y-73090000D02*
X133752929Y-73090000D01*
X136520000Y-75250000D02*
X136520000Y-76520000D01*
X136520000Y-76520000D02*
X135250000Y-76520000D01*
%TO.C,JP11*%
X148500000Y-65350000D02*
X148500000Y-63950000D01*
X149200000Y-63250000D02*
X149800000Y-63250000D01*
X149800000Y-66050000D02*
X149200000Y-66050000D01*
X150500000Y-63950000D02*
X150500000Y-65350000D01*
X148500000Y-63950000D02*
G75*
G02*
X149200000Y-63250000I699999J1D01*
G01*
X149200000Y-66050000D02*
G75*
G02*
X148500000Y-65350000I0J700000D01*
G01*
X149800000Y-63250000D02*
G75*
G02*
X150500000Y-63950000I1J-699999D01*
G01*
X150500000Y-65350000D02*
G75*
G02*
X149800000Y-66050000I-700000J0D01*
G01*
%TO.C,R4*%
X142643641Y-80620000D02*
X142336359Y-80620000D01*
X142643641Y-81380000D02*
X142336359Y-81380000D01*
%TO.C,R16*%
X152846359Y-81610000D02*
X153153641Y-81610000D01*
X152846359Y-82370000D02*
X153153641Y-82370000D01*
%TO.C,J4*%
X158980000Y-66360000D02*
X160250000Y-66360000D01*
X158980000Y-67630000D02*
X158980000Y-66360000D01*
X161292929Y-69790000D02*
X161747071Y-69790000D01*
X161292929Y-70550000D02*
X161747071Y-70550000D01*
X161292929Y-72330000D02*
X161747071Y-72330000D01*
X161292929Y-73090000D02*
X161747071Y-73090000D01*
X161292929Y-74870000D02*
X161747071Y-74870000D01*
X161292929Y-75630000D02*
X161747071Y-75630000D01*
X161360000Y-67250000D02*
X161747071Y-67250000D01*
X161360000Y-68010000D02*
X161747071Y-68010000D01*
X163832929Y-67250000D02*
X164230000Y-67250000D01*
X163832929Y-68010000D02*
X164230000Y-68010000D01*
X163832929Y-69790000D02*
X164230000Y-69790000D01*
X163832929Y-70550000D02*
X164230000Y-70550000D01*
X163832929Y-72330000D02*
X164230000Y-72330000D01*
X163832929Y-73090000D02*
X164230000Y-73090000D01*
X163832929Y-74870000D02*
X164230000Y-74870000D01*
X163832929Y-75630000D02*
X164230000Y-75630000D01*
X164230000Y-66300000D02*
X164230000Y-76580000D01*
X164230000Y-68900000D02*
X166890000Y-68900000D01*
X164230000Y-71440000D02*
X166890000Y-71440000D01*
X164230000Y-73980000D02*
X166890000Y-73980000D01*
X164230000Y-76580000D02*
X166890000Y-76580000D01*
X166890000Y-66300000D02*
X164230000Y-66300000D01*
X166890000Y-67250000D02*
X172890000Y-67250000D01*
X166890000Y-67310000D02*
X172890000Y-67310000D01*
X166890000Y-67430000D02*
X172890000Y-67430000D01*
X166890000Y-67550000D02*
X172890000Y-67550000D01*
X166890000Y-67670000D02*
X172890000Y-67670000D01*
X166890000Y-67790000D02*
X172890000Y-67790000D01*
X166890000Y-67910000D02*
X172890000Y-67910000D01*
X166890000Y-69790000D02*
X172890000Y-69790000D01*
X166890000Y-72330000D02*
X172890000Y-72330000D01*
X166890000Y-74870000D02*
X172890000Y-74870000D01*
X166890000Y-76580000D02*
X166890000Y-66300000D01*
X172890000Y-67250000D02*
X172890000Y-68010000D01*
X172890000Y-68010000D02*
X166890000Y-68010000D01*
X172890000Y-69790000D02*
X172890000Y-70550000D01*
X172890000Y-70550000D02*
X166890000Y-70550000D01*
X172890000Y-72330000D02*
X172890000Y-73090000D01*
X172890000Y-73090000D02*
X166890000Y-73090000D01*
X172890000Y-74870000D02*
X172890000Y-75630000D01*
X172890000Y-75630000D02*
X166890000Y-75630000D01*
%TO.C,R47*%
X154370000Y-67893641D02*
X154370000Y-67586359D01*
X155130000Y-67893641D02*
X155130000Y-67586359D01*
%TO.C,R50*%
X157370000Y-67903641D02*
X157370000Y-67596359D01*
X158130000Y-67903641D02*
X158130000Y-67596359D01*
%TO.C,R11*%
X152826359Y-86620000D02*
X153133641Y-86620000D01*
X152826359Y-87380000D02*
X153133641Y-87380000D01*
%TO.C,R18*%
X152846359Y-79620000D02*
X153153641Y-79620000D01*
X152846359Y-80380000D02*
X153153641Y-80380000D01*
%TO.C,C3*%
X161990000Y-90140580D02*
X161990000Y-89859420D01*
X163010000Y-90140580D02*
X163010000Y-89859420D01*
%TO.C,R48*%
X155370000Y-67903641D02*
X155370000Y-67596359D01*
X156130000Y-67903641D02*
X156130000Y-67596359D01*
%TO.C,U2*%
X145290000Y-67080000D02*
X145290000Y-67355000D01*
X145290000Y-77000000D02*
X145290000Y-76725000D01*
X147600000Y-67080000D02*
X145290000Y-67080000D01*
X147600000Y-67080000D02*
X149910000Y-67080000D01*
X147600000Y-77000000D02*
X145290000Y-77000000D01*
X147600000Y-77000000D02*
X149910000Y-77000000D01*
X149910000Y-67080000D02*
X149910000Y-67355000D01*
X149910000Y-77000000D02*
X149910000Y-76725000D01*
X144700000Y-67355000D02*
X144460000Y-67025000D01*
X144940000Y-67025000D01*
X144700000Y-67355000D01*
G36*
X144700000Y-67355000D02*
G01*
X144460000Y-67025000D01*
X144940000Y-67025000D01*
X144700000Y-67355000D01*
G37*
%TO.C,R28*%
X137265000Y-90314564D02*
X137265000Y-89860436D01*
X138735000Y-90314564D02*
X138735000Y-89860436D01*
%TO.C,R26*%
X158515000Y-90227064D02*
X158515000Y-89772936D01*
X159985000Y-90227064D02*
X159985000Y-89772936D01*
%TO.C,R35*%
X142653641Y-73120000D02*
X142346359Y-73120000D01*
X142653641Y-73880000D02*
X142346359Y-73880000D01*
%TO.C,R34*%
X142653641Y-72120000D02*
X142346359Y-72120000D01*
X142653641Y-72880000D02*
X142346359Y-72880000D01*
%TO.C,R43*%
X152846359Y-72370000D02*
X153153641Y-72370000D01*
X152846359Y-73130000D02*
X153153641Y-73130000D01*
%TO.C,R31*%
X142403641Y-69120000D02*
X142096359Y-69120000D01*
X142403641Y-69880000D02*
X142096359Y-69880000D01*
%TO.C,R8*%
X142643641Y-84620000D02*
X142336359Y-84620000D01*
X142643641Y-85380000D02*
X142336359Y-85380000D01*
%TO.C,R36*%
X142643641Y-74120000D02*
X142336359Y-74120000D01*
X142643641Y-74880000D02*
X142336359Y-74880000D01*
%TO.C,R32*%
X142393641Y-70120000D02*
X142086359Y-70120000D01*
X142393641Y-70880000D02*
X142086359Y-70880000D01*
%TO.C,R40*%
X152856359Y-75360000D02*
X153163641Y-75360000D01*
X152856359Y-76120000D02*
X153163641Y-76120000D01*
%TO.C,R20*%
X141420000Y-67903641D02*
X141420000Y-67596359D01*
X142180000Y-67903641D02*
X142180000Y-67596359D01*
%TO.C,R29*%
X152836359Y-68370000D02*
X153143641Y-68370000D01*
X152836359Y-69130000D02*
X153143641Y-69130000D01*
%TO.C,R37*%
X142643641Y-75090000D02*
X142336359Y-75090000D01*
X142643641Y-75850000D02*
X142336359Y-75850000D01*
%TO.C,R7*%
X142643641Y-83620000D02*
X142336359Y-83620000D01*
X142643641Y-84380000D02*
X142336359Y-84380000D01*
%TO.C,R30*%
X152836359Y-67370000D02*
X153143641Y-67370000D01*
X152836359Y-68130000D02*
X153143641Y-68130000D01*
%TO.C,JP3*%
X140000000Y-65350000D02*
X140000000Y-63950000D01*
X140700000Y-63250000D02*
X141300000Y-63250000D01*
X141300000Y-66050000D02*
X140700000Y-66050000D01*
X142000000Y-63950000D02*
X142000000Y-65350000D01*
X140000000Y-63950000D02*
G75*
G02*
X140700000Y-63250000I699999J1D01*
G01*
X140700000Y-66050000D02*
G75*
G02*
X140000000Y-65350000I0J700000D01*
G01*
X141300000Y-63250000D02*
G75*
G02*
X142000000Y-63950000I1J-699999D01*
G01*
X142000000Y-65350000D02*
G75*
G02*
X141300000Y-66050000I-700000J0D01*
G01*
%TO.C,JP12*%
X151000000Y-65350000D02*
X151000000Y-63950000D01*
X151700000Y-63250000D02*
X152300000Y-63250000D01*
X152300000Y-66050000D02*
X151700000Y-66050000D01*
X153000000Y-63950000D02*
X153000000Y-65350000D01*
X151000000Y-63950000D02*
G75*
G02*
X151700000Y-63250000I699999J1D01*
G01*
X151700000Y-66050000D02*
G75*
G02*
X151000000Y-65350000I0J700000D01*
G01*
X152300000Y-63250000D02*
G75*
G02*
X153000000Y-63950000I1J-699999D01*
G01*
X153000000Y-65350000D02*
G75*
G02*
X152300000Y-66050000I-700000J0D01*
G01*
%TO.C,R39*%
X152846359Y-76370000D02*
X153153641Y-76370000D01*
X152846359Y-77130000D02*
X153153641Y-77130000D01*
%TO.C,R44*%
X152846359Y-71370000D02*
X153153641Y-71370000D01*
X152846359Y-72130000D02*
X153153641Y-72130000D01*
%TO.C,JP2*%
X142500000Y-65350000D02*
X142500000Y-63950000D01*
X143200000Y-63250000D02*
X143800000Y-63250000D01*
X143800000Y-66050000D02*
X143200000Y-66050000D01*
X144500000Y-63950000D02*
X144500000Y-65350000D01*
X142500000Y-63950000D02*
G75*
G02*
X143200000Y-63250000I699999J1D01*
G01*
X143200000Y-66050000D02*
G75*
G02*
X142500000Y-65350000I0J700000D01*
G01*
X143800000Y-63250000D02*
G75*
G02*
X144500000Y-63950000I1J-699999D01*
G01*
X144500000Y-65350000D02*
G75*
G02*
X143800000Y-66050000I-700000J0D01*
G01*
%TO.C,R2*%
X152846359Y-77620000D02*
X153153641Y-77620000D01*
X152846359Y-78380000D02*
X153153641Y-78380000D01*
%TO.C,R45*%
X152836359Y-70370000D02*
X153143641Y-70370000D01*
X152836359Y-71130000D02*
X153143641Y-71130000D01*
%TO.C,R15*%
X152836359Y-82620000D02*
X153143641Y-82620000D01*
X152836359Y-83380000D02*
X153143641Y-83380000D01*
%TO.C,R46*%
X152846359Y-69370000D02*
X153153641Y-69370000D01*
X152846359Y-70130000D02*
X153153641Y-70130000D01*
%TO.C,R22*%
X139430000Y-67903641D02*
X139430000Y-67596359D01*
X140190000Y-67903641D02*
X140190000Y-67596359D01*
%TO.C,R19*%
X142420000Y-67903641D02*
X142420000Y-67596359D01*
X143180000Y-67903641D02*
X143180000Y-67596359D01*
%TO.C,R5*%
X142643641Y-81620000D02*
X142336359Y-81620000D01*
X142643641Y-82380000D02*
X142336359Y-82380000D01*
%TO.C,R14*%
X152846359Y-83620000D02*
X153153641Y-83620000D01*
X152846359Y-84380000D02*
X153153641Y-84380000D01*
%TO.C,R21*%
X140430000Y-67903641D02*
X140430000Y-67596359D01*
X141190000Y-67903641D02*
X141190000Y-67596359D01*
%TO.C,R9*%
X142643641Y-85620000D02*
X142336359Y-85620000D01*
X142643641Y-86380000D02*
X142336359Y-86380000D01*
%TO.C,J3*%
X158980000Y-77560000D02*
X160250000Y-77560000D01*
X158980000Y-78830000D02*
X158980000Y-77560000D01*
X161292929Y-80990000D02*
X161747071Y-80990000D01*
X161292929Y-81750000D02*
X161747071Y-81750000D01*
X161292929Y-83530000D02*
X161747071Y-83530000D01*
X161292929Y-84290000D02*
X161747071Y-84290000D01*
X161292929Y-86070000D02*
X161747071Y-86070000D01*
X161292929Y-86830000D02*
X161747071Y-86830000D01*
X161360000Y-78450000D02*
X161747071Y-78450000D01*
X161360000Y-79210000D02*
X161747071Y-79210000D01*
X163832929Y-78450000D02*
X164230000Y-78450000D01*
X163832929Y-79210000D02*
X164230000Y-79210000D01*
X163832929Y-80990000D02*
X164230000Y-80990000D01*
X163832929Y-81750000D02*
X164230000Y-81750000D01*
X163832929Y-83530000D02*
X164230000Y-83530000D01*
X163832929Y-84290000D02*
X164230000Y-84290000D01*
X163832929Y-86070000D02*
X164230000Y-86070000D01*
X163832929Y-86830000D02*
X164230000Y-86830000D01*
X164230000Y-77500000D02*
X164230000Y-87780000D01*
X164230000Y-80100000D02*
X166890000Y-80100000D01*
X164230000Y-82640000D02*
X166890000Y-82640000D01*
X164230000Y-85180000D02*
X166890000Y-85180000D01*
X164230000Y-87780000D02*
X166890000Y-87780000D01*
X166890000Y-77500000D02*
X164230000Y-77500000D01*
X166890000Y-78450000D02*
X172890000Y-78450000D01*
X166890000Y-78510000D02*
X172890000Y-78510000D01*
X166890000Y-78630000D02*
X172890000Y-78630000D01*
X166890000Y-78750000D02*
X172890000Y-78750000D01*
X166890000Y-78870000D02*
X172890000Y-78870000D01*
X166890000Y-78990000D02*
X172890000Y-78990000D01*
X166890000Y-79110000D02*
X172890000Y-79110000D01*
X166890000Y-80990000D02*
X172890000Y-80990000D01*
X166890000Y-83530000D02*
X172890000Y-83530000D01*
X166890000Y-86070000D02*
X172890000Y-86070000D01*
X166890000Y-87780000D02*
X166890000Y-77500000D01*
X172890000Y-78450000D02*
X172890000Y-79210000D01*
X172890000Y-79210000D02*
X166890000Y-79210000D01*
X172890000Y-80990000D02*
X172890000Y-81750000D01*
X172890000Y-81750000D02*
X166890000Y-81750000D01*
X172890000Y-83530000D02*
X172890000Y-84290000D01*
X172890000Y-84290000D02*
X166890000Y-84290000D01*
X172890000Y-86070000D02*
X172890000Y-86830000D01*
X172890000Y-86830000D02*
X166890000Y-86830000D01*
%TO.C,C2*%
X133265000Y-89913748D02*
X133265000Y-90436252D01*
X134735000Y-89913748D02*
X134735000Y-90436252D01*
%TD*%
M02*
