%TF.GenerationSoftware,KiCad,Pcbnew,8.0.4-8.0.4-0~ubuntu24.04.1*%
%TF.CreationDate,2024-09-19T11:21:55+09:00*%
%TF.ProjectId,DRV8835,44525638-3833-4352-9e6b-696361645f70,rev?*%
%TF.SameCoordinates,Original*%
%TF.FileFunction,Copper,L2,Bot*%
%TF.FilePolarity,Positive*%
%FSLAX46Y46*%
G04 Gerber Fmt 4.6, Leading zero omitted, Abs format (unit mm)*
G04 Created by KiCad (PCBNEW 8.0.4-8.0.4-0~ubuntu24.04.1) date 2024-09-19 11:21:55*
%MOMM*%
%LPD*%
G01*
G04 APERTURE LIST*
%TA.AperFunction,ComponentPad*%
%ADD10R,1.700000X1.700000*%
%TD*%
%TA.AperFunction,ComponentPad*%
%ADD11O,1.700000X1.700000*%
%TD*%
%TA.AperFunction,ViaPad*%
%ADD12C,0.600000*%
%TD*%
%TA.AperFunction,Conductor*%
%ADD13C,0.200000*%
%TD*%
G04 APERTURE END LIST*
D10*
%TO.P,J2,1,Pin_1*%
%TO.N,GND*%
X156500000Y-65150000D03*
D11*
%TO.P,J2,2,Pin_2*%
X156500000Y-67690000D03*
%TO.P,J2,3,Pin_3*%
%TO.N,Net-(J2-Pin_3)*%
X156500000Y-70230000D03*
%TO.P,J2,4,Pin_4*%
%TO.N,Net-(J2-Pin_4)*%
X156500000Y-72770000D03*
%TO.P,J2,5,Pin_5*%
%TO.N,Net-(J2-Pin_5)*%
X156500000Y-75310000D03*
%TO.P,J2,6,Pin_6*%
%TO.N,Net-(J2-Pin_6)*%
X156500000Y-77850000D03*
%TD*%
D10*
%TO.P,J1,1,Pin_1*%
%TO.N,Net-(J1-Pin_1)*%
X166000000Y-77870000D03*
D11*
%TO.P,J1,2,Pin_2*%
%TO.N,Net-(J1-Pin_2)*%
X166000000Y-75330000D03*
%TO.P,J1,3,Pin_3*%
%TO.N,Net-(J1-Pin_3)*%
X166000000Y-72790000D03*
%TO.P,J1,4,Pin_4*%
%TO.N,Net-(J1-Pin_4)*%
X166000000Y-70250000D03*
%TO.P,J1,5,Pin_5*%
%TO.N,+5V*%
X166000000Y-67710000D03*
%TO.P,J1,6,Pin_6*%
%TO.N,+3.3V*%
X166000000Y-65170000D03*
%TD*%
D12*
%TO.N,+5V*%
X164250000Y-68500000D03*
X160250000Y-68500000D03*
%TD*%
D13*
%TO.N,+5V*%
X164250000Y-68500000D02*
X160250000Y-68500000D01*
%TD*%
%TA.AperFunction,Conductor*%
%TO.N,GND*%
G36*
X156750000Y-67256988D02*
G01*
X156692993Y-67224075D01*
X156565826Y-67190000D01*
X156434174Y-67190000D01*
X156307007Y-67224075D01*
X156250000Y-67256988D01*
X156250000Y-65583012D01*
X156307007Y-65615925D01*
X156434174Y-65650000D01*
X156565826Y-65650000D01*
X156692993Y-65615925D01*
X156750000Y-65583012D01*
X156750000Y-67256988D01*
G37*
%TD.AperFunction*%
%TA.AperFunction,Conductor*%
G36*
X167942539Y-63020185D02*
G01*
X167988294Y-63072989D01*
X167999500Y-63124500D01*
X167999500Y-79875500D01*
X167979815Y-79942539D01*
X167927011Y-79988294D01*
X167875500Y-79999500D01*
X154624500Y-79999500D01*
X154557461Y-79979815D01*
X154511706Y-79927011D01*
X154500500Y-79875500D01*
X154500500Y-70229999D01*
X155144341Y-70229999D01*
X155144341Y-70230000D01*
X155164936Y-70465403D01*
X155164938Y-70465413D01*
X155226094Y-70693655D01*
X155226096Y-70693659D01*
X155226097Y-70693663D01*
X155235424Y-70713664D01*
X155325965Y-70907830D01*
X155325967Y-70907834D01*
X155461501Y-71101395D01*
X155461506Y-71101402D01*
X155628597Y-71268493D01*
X155628603Y-71268498D01*
X155814158Y-71398425D01*
X155857783Y-71453002D01*
X155864977Y-71522500D01*
X155833454Y-71584855D01*
X155814158Y-71601575D01*
X155628597Y-71731505D01*
X155461505Y-71898597D01*
X155325965Y-72092169D01*
X155325964Y-72092171D01*
X155226098Y-72306335D01*
X155226094Y-72306344D01*
X155164938Y-72534586D01*
X155164936Y-72534596D01*
X155144341Y-72769999D01*
X155144341Y-72770000D01*
X155164936Y-73005403D01*
X155164938Y-73005413D01*
X155226094Y-73233655D01*
X155226096Y-73233659D01*
X155226097Y-73233663D01*
X155235424Y-73253664D01*
X155325965Y-73447830D01*
X155325967Y-73447834D01*
X155461501Y-73641395D01*
X155461506Y-73641402D01*
X155628597Y-73808493D01*
X155628603Y-73808498D01*
X155814158Y-73938425D01*
X155857783Y-73993002D01*
X155864977Y-74062500D01*
X155833454Y-74124855D01*
X155814158Y-74141575D01*
X155628597Y-74271505D01*
X155461505Y-74438597D01*
X155325965Y-74632169D01*
X155325964Y-74632171D01*
X155226098Y-74846335D01*
X155226094Y-74846344D01*
X155164938Y-75074586D01*
X155164936Y-75074596D01*
X155144341Y-75309999D01*
X155144341Y-75310000D01*
X155164936Y-75545403D01*
X155164938Y-75545413D01*
X155226094Y-75773655D01*
X155226096Y-75773659D01*
X155226097Y-75773663D01*
X155235424Y-75793664D01*
X155325965Y-75987830D01*
X155325967Y-75987834D01*
X155461501Y-76181395D01*
X155461506Y-76181402D01*
X155628597Y-76348493D01*
X155628603Y-76348498D01*
X155814158Y-76478425D01*
X155857783Y-76533002D01*
X155864977Y-76602500D01*
X155833454Y-76664855D01*
X155814158Y-76681575D01*
X155628597Y-76811505D01*
X155461505Y-76978597D01*
X155325965Y-77172169D01*
X155325964Y-77172171D01*
X155226098Y-77386335D01*
X155226094Y-77386344D01*
X155164938Y-77614586D01*
X155164936Y-77614596D01*
X155144341Y-77849999D01*
X155144341Y-77850000D01*
X155164936Y-78085403D01*
X155164938Y-78085413D01*
X155226094Y-78313655D01*
X155226096Y-78313659D01*
X155226097Y-78313663D01*
X155325965Y-78527830D01*
X155325967Y-78527834D01*
X155434281Y-78682521D01*
X155461505Y-78721401D01*
X155628599Y-78888495D01*
X155725384Y-78956265D01*
X155822165Y-79024032D01*
X155822167Y-79024033D01*
X155822170Y-79024035D01*
X156036337Y-79123903D01*
X156264592Y-79185063D01*
X156452918Y-79201539D01*
X156499999Y-79205659D01*
X156500000Y-79205659D01*
X156500001Y-79205659D01*
X156539234Y-79202226D01*
X156735408Y-79185063D01*
X156963663Y-79123903D01*
X157177830Y-79024035D01*
X157371401Y-78888495D01*
X157538495Y-78721401D01*
X157674035Y-78527830D01*
X157773903Y-78313663D01*
X157835063Y-78085408D01*
X157855659Y-77850000D01*
X157835063Y-77614592D01*
X157773903Y-77386337D01*
X157674035Y-77172171D01*
X157538495Y-76978599D01*
X157538494Y-76978597D01*
X157371402Y-76811506D01*
X157371396Y-76811501D01*
X157185842Y-76681575D01*
X157142217Y-76626998D01*
X157135023Y-76557500D01*
X157166546Y-76495145D01*
X157185842Y-76478425D01*
X157269491Y-76419853D01*
X157371401Y-76348495D01*
X157538495Y-76181401D01*
X157674035Y-75987830D01*
X157773903Y-75773663D01*
X157835063Y-75545408D01*
X157855659Y-75310000D01*
X157835063Y-75074592D01*
X157773903Y-74846337D01*
X157674035Y-74632171D01*
X157538495Y-74438599D01*
X157538494Y-74438597D01*
X157371402Y-74271506D01*
X157371396Y-74271501D01*
X157185842Y-74141575D01*
X157142217Y-74086998D01*
X157135023Y-74017500D01*
X157166546Y-73955145D01*
X157185842Y-73938425D01*
X157208026Y-73922891D01*
X157371401Y-73808495D01*
X157538495Y-73641401D01*
X157674035Y-73447830D01*
X157773903Y-73233663D01*
X157835063Y-73005408D01*
X157855659Y-72770000D01*
X157835063Y-72534592D01*
X157773903Y-72306337D01*
X157674035Y-72092171D01*
X157538495Y-71898599D01*
X157538494Y-71898597D01*
X157371402Y-71731506D01*
X157371396Y-71731501D01*
X157185842Y-71601575D01*
X157142217Y-71546998D01*
X157135023Y-71477500D01*
X157166546Y-71415145D01*
X157185842Y-71398425D01*
X157208026Y-71382891D01*
X157371401Y-71268495D01*
X157538495Y-71101401D01*
X157674035Y-70907830D01*
X157773903Y-70693663D01*
X157835063Y-70465408D01*
X157855659Y-70230000D01*
X157835063Y-69994592D01*
X157773903Y-69766337D01*
X157674035Y-69552171D01*
X157538495Y-69358599D01*
X157538494Y-69358597D01*
X157371402Y-69191506D01*
X157371401Y-69191505D01*
X157185405Y-69061269D01*
X157141781Y-69006692D01*
X157134588Y-68937193D01*
X157166110Y-68874839D01*
X157185405Y-68858119D01*
X157371082Y-68728105D01*
X157538105Y-68561082D01*
X157580879Y-68499996D01*
X159444435Y-68499996D01*
X159444435Y-68500003D01*
X159464630Y-68679249D01*
X159464631Y-68679254D01*
X159524211Y-68849523D01*
X159592058Y-68957500D01*
X159620184Y-69002262D01*
X159747738Y-69129816D01*
X159838080Y-69186582D01*
X159877746Y-69211506D01*
X159900478Y-69225789D01*
X160070745Y-69285368D01*
X160070750Y-69285369D01*
X160249996Y-69305565D01*
X160250000Y-69305565D01*
X160250004Y-69305565D01*
X160429249Y-69285369D01*
X160429252Y-69285368D01*
X160429255Y-69285368D01*
X160599522Y-69225789D01*
X160752262Y-69129816D01*
X160752267Y-69129810D01*
X160755097Y-69127555D01*
X160757275Y-69126665D01*
X160758158Y-69126111D01*
X160758255Y-69126265D01*
X160819783Y-69101145D01*
X160832412Y-69100500D01*
X163667588Y-69100500D01*
X163734627Y-69120185D01*
X163744903Y-69127555D01*
X163747736Y-69129814D01*
X163747738Y-69129816D01*
X163900478Y-69225789D01*
X164070745Y-69285368D01*
X164070750Y-69285369D01*
X164249996Y-69305565D01*
X164250000Y-69305565D01*
X164250004Y-69305565D01*
X164429249Y-69285369D01*
X164429252Y-69285368D01*
X164429255Y-69285368D01*
X164599522Y-69225789D01*
X164752262Y-69129816D01*
X164879816Y-69002262D01*
X164975789Y-68849522D01*
X164980186Y-68836955D01*
X165020906Y-68780178D01*
X165085857Y-68754429D01*
X165154420Y-68767882D01*
X165168352Y-68776331D01*
X165314158Y-68878425D01*
X165357783Y-68933002D01*
X165364977Y-69002500D01*
X165333454Y-69064855D01*
X165314158Y-69081575D01*
X165128597Y-69211505D01*
X164961505Y-69378597D01*
X164825965Y-69572169D01*
X164825964Y-69572171D01*
X164726098Y-69786335D01*
X164726094Y-69786344D01*
X164664938Y-70014586D01*
X164664936Y-70014596D01*
X164644341Y-70249999D01*
X164644341Y-70250000D01*
X164664936Y-70485403D01*
X164664938Y-70485413D01*
X164726094Y-70713655D01*
X164726096Y-70713659D01*
X164726097Y-70713663D01*
X164816639Y-70907830D01*
X164825965Y-70927830D01*
X164825967Y-70927834D01*
X164961501Y-71121395D01*
X164961506Y-71121402D01*
X165128597Y-71288493D01*
X165128603Y-71288498D01*
X165314158Y-71418425D01*
X165357783Y-71473002D01*
X165364977Y-71542500D01*
X165333454Y-71604855D01*
X165314158Y-71621575D01*
X165128597Y-71751505D01*
X164961505Y-71918597D01*
X164825965Y-72112169D01*
X164825964Y-72112171D01*
X164726098Y-72326335D01*
X164726094Y-72326344D01*
X164664938Y-72554586D01*
X164664936Y-72554596D01*
X164644341Y-72789999D01*
X164644341Y-72790000D01*
X164664936Y-73025403D01*
X164664938Y-73025413D01*
X164726094Y-73253655D01*
X164726096Y-73253659D01*
X164726097Y-73253663D01*
X164816639Y-73447830D01*
X164825965Y-73467830D01*
X164825967Y-73467834D01*
X164961501Y-73661395D01*
X164961506Y-73661402D01*
X165128597Y-73828493D01*
X165128603Y-73828498D01*
X165314158Y-73958425D01*
X165357783Y-74013002D01*
X165364977Y-74082500D01*
X165333454Y-74144855D01*
X165314158Y-74161575D01*
X165128597Y-74291505D01*
X164961505Y-74458597D01*
X164825965Y-74652169D01*
X164825964Y-74652171D01*
X164726098Y-74866335D01*
X164726094Y-74866344D01*
X164664938Y-75094586D01*
X164664936Y-75094596D01*
X164644341Y-75329999D01*
X164644341Y-75330000D01*
X164664936Y-75565403D01*
X164664938Y-75565413D01*
X164726094Y-75793655D01*
X164726096Y-75793659D01*
X164726097Y-75793663D01*
X164816639Y-75987830D01*
X164825965Y-76007830D01*
X164825967Y-76007834D01*
X164934281Y-76162521D01*
X164961501Y-76201396D01*
X164961506Y-76201402D01*
X165083430Y-76323326D01*
X165116915Y-76384649D01*
X165111931Y-76454341D01*
X165070059Y-76510274D01*
X165039083Y-76527189D01*
X164907669Y-76576203D01*
X164907664Y-76576206D01*
X164792455Y-76662452D01*
X164792452Y-76662455D01*
X164706206Y-76777664D01*
X164706202Y-76777671D01*
X164655908Y-76912517D01*
X164649501Y-76972116D01*
X164649501Y-76972123D01*
X164649500Y-76972135D01*
X164649500Y-78767870D01*
X164649501Y-78767876D01*
X164655908Y-78827483D01*
X164706202Y-78962328D01*
X164706206Y-78962335D01*
X164792452Y-79077544D01*
X164792455Y-79077547D01*
X164907664Y-79163793D01*
X164907671Y-79163797D01*
X165042517Y-79214091D01*
X165042516Y-79214091D01*
X165049444Y-79214835D01*
X165102127Y-79220500D01*
X166897872Y-79220499D01*
X166957483Y-79214091D01*
X167092331Y-79163796D01*
X167207546Y-79077546D01*
X167293796Y-78962331D01*
X167344091Y-78827483D01*
X167350500Y-78767873D01*
X167350499Y-76972128D01*
X167344091Y-76912517D01*
X167306416Y-76811506D01*
X167293797Y-76777671D01*
X167293793Y-76777664D01*
X167207547Y-76662455D01*
X167207544Y-76662452D01*
X167092335Y-76576206D01*
X167092328Y-76576202D01*
X166960917Y-76527189D01*
X166904983Y-76485318D01*
X166880566Y-76419853D01*
X166895418Y-76351580D01*
X166916563Y-76323332D01*
X167038495Y-76201401D01*
X167174035Y-76007830D01*
X167273903Y-75793663D01*
X167335063Y-75565408D01*
X167355659Y-75330000D01*
X167335063Y-75094592D01*
X167273903Y-74866337D01*
X167174035Y-74652171D01*
X167038495Y-74458599D01*
X167038494Y-74458597D01*
X166871402Y-74291506D01*
X166871396Y-74291501D01*
X166685842Y-74161575D01*
X166642217Y-74106998D01*
X166635023Y-74037500D01*
X166666546Y-73975145D01*
X166685842Y-73958425D01*
X166714405Y-73938425D01*
X166871401Y-73828495D01*
X167038495Y-73661401D01*
X167174035Y-73467830D01*
X167273903Y-73253663D01*
X167335063Y-73025408D01*
X167355659Y-72790000D01*
X167335063Y-72554592D01*
X167273903Y-72326337D01*
X167174035Y-72112171D01*
X167038495Y-71918599D01*
X167038494Y-71918597D01*
X166871402Y-71751506D01*
X166871396Y-71751501D01*
X166685842Y-71621575D01*
X166642217Y-71566998D01*
X166635023Y-71497500D01*
X166666546Y-71435145D01*
X166685842Y-71418425D01*
X166714405Y-71398425D01*
X166871401Y-71288495D01*
X167038495Y-71121401D01*
X167174035Y-70927830D01*
X167273903Y-70713663D01*
X167335063Y-70485408D01*
X167355659Y-70250000D01*
X167335063Y-70014592D01*
X167273903Y-69786337D01*
X167174035Y-69572171D01*
X167038495Y-69378599D01*
X167038494Y-69378597D01*
X166871402Y-69211506D01*
X166871396Y-69211501D01*
X166685842Y-69081575D01*
X166642217Y-69026998D01*
X166635023Y-68957500D01*
X166666546Y-68895145D01*
X166685842Y-68878425D01*
X166831647Y-68776331D01*
X166871401Y-68748495D01*
X167038495Y-68581401D01*
X167174035Y-68387830D01*
X167273903Y-68173663D01*
X167335063Y-67945408D01*
X167355659Y-67710000D01*
X167335063Y-67474592D01*
X167273903Y-67246337D01*
X167174035Y-67032171D01*
X167160206Y-67012420D01*
X167038494Y-66838597D01*
X166871402Y-66671506D01*
X166871396Y-66671501D01*
X166685842Y-66541575D01*
X166642217Y-66486998D01*
X166635023Y-66417500D01*
X166666546Y-66355145D01*
X166685842Y-66338425D01*
X166823428Y-66242086D01*
X166871401Y-66208495D01*
X167038495Y-66041401D01*
X167174035Y-65847830D01*
X167273903Y-65633663D01*
X167335063Y-65405408D01*
X167355659Y-65170000D01*
X167335063Y-64934592D01*
X167273903Y-64706337D01*
X167174035Y-64492171D01*
X167038495Y-64298599D01*
X167038494Y-64298597D01*
X166871402Y-64131506D01*
X166871395Y-64131501D01*
X166677834Y-63995967D01*
X166677830Y-63995965D01*
X166563843Y-63942812D01*
X166463663Y-63896097D01*
X166463659Y-63896096D01*
X166463655Y-63896094D01*
X166235413Y-63834938D01*
X166235403Y-63834936D01*
X166000001Y-63814341D01*
X165999999Y-63814341D01*
X165764596Y-63834936D01*
X165764586Y-63834938D01*
X165536344Y-63896094D01*
X165536335Y-63896098D01*
X165322171Y-63995964D01*
X165322169Y-63995965D01*
X165128597Y-64131505D01*
X164961505Y-64298597D01*
X164825965Y-64492169D01*
X164825964Y-64492171D01*
X164726098Y-64706335D01*
X164726094Y-64706344D01*
X164664938Y-64934586D01*
X164664936Y-64934596D01*
X164644341Y-65169999D01*
X164644341Y-65170000D01*
X164664936Y-65405403D01*
X164664938Y-65405413D01*
X164726094Y-65633655D01*
X164726096Y-65633659D01*
X164726097Y-65633663D01*
X164825965Y-65847830D01*
X164825967Y-65847834D01*
X164961501Y-66041395D01*
X164961506Y-66041402D01*
X165128597Y-66208493D01*
X165128603Y-66208498D01*
X165314158Y-66338425D01*
X165357783Y-66393002D01*
X165364977Y-66462500D01*
X165333454Y-66524855D01*
X165314158Y-66541575D01*
X165128597Y-66671505D01*
X164961505Y-66838597D01*
X164825965Y-67032169D01*
X164825964Y-67032171D01*
X164726098Y-67246335D01*
X164726094Y-67246344D01*
X164664938Y-67474586D01*
X164664936Y-67474596D01*
X164651463Y-67628596D01*
X164626010Y-67693664D01*
X164569419Y-67734643D01*
X164499657Y-67738521D01*
X164486982Y-67734830D01*
X164429260Y-67714633D01*
X164429249Y-67714630D01*
X164250004Y-67694435D01*
X164249996Y-67694435D01*
X164070750Y-67714630D01*
X164070745Y-67714631D01*
X163900476Y-67774211D01*
X163747736Y-67870185D01*
X163744903Y-67872445D01*
X163742724Y-67873334D01*
X163741842Y-67873889D01*
X163741744Y-67873734D01*
X163680217Y-67898855D01*
X163667588Y-67899500D01*
X160832412Y-67899500D01*
X160765373Y-67879815D01*
X160755097Y-67872445D01*
X160752263Y-67870185D01*
X160752262Y-67870184D01*
X160652893Y-67807746D01*
X160599523Y-67774211D01*
X160429254Y-67714631D01*
X160429249Y-67714630D01*
X160250004Y-67694435D01*
X160249996Y-67694435D01*
X160070750Y-67714630D01*
X160070745Y-67714631D01*
X159900476Y-67774211D01*
X159747737Y-67870184D01*
X159620184Y-67997737D01*
X159524211Y-68150476D01*
X159464631Y-68320745D01*
X159464630Y-68320750D01*
X159444435Y-68499996D01*
X157580879Y-68499996D01*
X157673600Y-68367578D01*
X157773429Y-68153492D01*
X157773432Y-68153486D01*
X157830636Y-67940000D01*
X156933012Y-67940000D01*
X156965925Y-67882993D01*
X157000000Y-67755826D01*
X157000000Y-67624174D01*
X156965925Y-67497007D01*
X156933012Y-67440000D01*
X157830636Y-67440000D01*
X157830635Y-67439999D01*
X157773432Y-67226513D01*
X157773429Y-67226507D01*
X157673600Y-67012422D01*
X157673599Y-67012420D01*
X157538113Y-66818926D01*
X157538108Y-66818920D01*
X157415665Y-66696477D01*
X157382180Y-66635154D01*
X157387164Y-66565462D01*
X157429036Y-66509529D01*
X157460013Y-66492614D01*
X157592086Y-66443354D01*
X157592093Y-66443350D01*
X157707187Y-66357190D01*
X157707190Y-66357187D01*
X157793350Y-66242093D01*
X157793354Y-66242086D01*
X157843596Y-66107379D01*
X157843598Y-66107372D01*
X157849999Y-66047844D01*
X157850000Y-66047827D01*
X157850000Y-65400000D01*
X156933012Y-65400000D01*
X156965925Y-65342993D01*
X157000000Y-65215826D01*
X157000000Y-65084174D01*
X156965925Y-64957007D01*
X156933012Y-64900000D01*
X157850000Y-64900000D01*
X157850000Y-64252172D01*
X157849999Y-64252155D01*
X157843598Y-64192627D01*
X157843596Y-64192620D01*
X157793354Y-64057913D01*
X157793350Y-64057906D01*
X157707190Y-63942812D01*
X157707187Y-63942809D01*
X157592093Y-63856649D01*
X157592086Y-63856645D01*
X157457379Y-63806403D01*
X157457372Y-63806401D01*
X157397844Y-63800000D01*
X156750000Y-63800000D01*
X156750000Y-64716988D01*
X156692993Y-64684075D01*
X156565826Y-64650000D01*
X156434174Y-64650000D01*
X156307007Y-64684075D01*
X156250000Y-64716988D01*
X156250000Y-63800000D01*
X155602155Y-63800000D01*
X155542627Y-63806401D01*
X155542620Y-63806403D01*
X155407913Y-63856645D01*
X155407906Y-63856649D01*
X155292812Y-63942809D01*
X155292809Y-63942812D01*
X155206649Y-64057906D01*
X155206645Y-64057913D01*
X155156403Y-64192620D01*
X155156401Y-64192627D01*
X155150000Y-64252155D01*
X155150000Y-64900000D01*
X156066988Y-64900000D01*
X156034075Y-64957007D01*
X156000000Y-65084174D01*
X156000000Y-65215826D01*
X156034075Y-65342993D01*
X156066988Y-65400000D01*
X155150000Y-65400000D01*
X155150000Y-66047844D01*
X155156401Y-66107372D01*
X155156403Y-66107379D01*
X155206645Y-66242086D01*
X155206649Y-66242093D01*
X155292809Y-66357187D01*
X155292812Y-66357190D01*
X155407906Y-66443350D01*
X155407913Y-66443354D01*
X155539986Y-66492614D01*
X155595920Y-66534485D01*
X155620337Y-66599949D01*
X155605486Y-66668222D01*
X155584335Y-66696477D01*
X155461886Y-66818926D01*
X155326400Y-67012420D01*
X155326399Y-67012422D01*
X155226570Y-67226507D01*
X155226567Y-67226513D01*
X155169364Y-67439999D01*
X155169364Y-67440000D01*
X156066988Y-67440000D01*
X156034075Y-67497007D01*
X156000000Y-67624174D01*
X156000000Y-67755826D01*
X156034075Y-67882993D01*
X156066988Y-67940000D01*
X155169364Y-67940000D01*
X155226567Y-68153486D01*
X155226570Y-68153492D01*
X155326399Y-68367578D01*
X155461894Y-68561082D01*
X155628917Y-68728105D01*
X155814595Y-68858119D01*
X155858219Y-68912696D01*
X155865412Y-68982195D01*
X155833890Y-69044549D01*
X155814595Y-69061269D01*
X155628594Y-69191508D01*
X155461505Y-69358597D01*
X155325965Y-69552169D01*
X155325964Y-69552171D01*
X155226098Y-69766335D01*
X155226094Y-69766344D01*
X155164938Y-69994586D01*
X155164936Y-69994596D01*
X155144341Y-70229999D01*
X154500500Y-70229999D01*
X154500500Y-63124500D01*
X154520185Y-63057461D01*
X154572989Y-63011706D01*
X154624500Y-63000500D01*
X167875500Y-63000500D01*
X167942539Y-63020185D01*
G37*
%TD.AperFunction*%
%TD*%
M02*
