%TF.GenerationSoftware,KiCad,Pcbnew,8.0.2-8.0.2-0~ubuntu22.04.1*%
%TF.CreationDate,2024-06-02T15:46:05+09:00*%
%TF.ProjectId,TB6211_ver2,54423632-3131-45f7-9665-72322e6b6963,rev?*%
%TF.SameCoordinates,Original*%
%TF.FileFunction,Soldermask,Top*%
%TF.FilePolarity,Negative*%
%FSLAX46Y46*%
G04 Gerber Fmt 4.6, Leading zero omitted, Abs format (unit mm)*
G04 Created by KiCad (PCBNEW 8.0.2-8.0.2-0~ubuntu22.04.1) date 2024-06-02 15:46:05*
%MOMM*%
%LPD*%
G01*
G04 APERTURE LIST*
G04 Aperture macros list*
%AMRoundRect*
0 Rectangle with rounded corners*
0 $1 Rounding radius*
0 $2 $3 $4 $5 $6 $7 $8 $9 X,Y pos of 4 corners*
0 Add a 4 corners polygon primitive as box body*
4,1,4,$2,$3,$4,$5,$6,$7,$8,$9,$2,$3,0*
0 Add four circle primitives for the rounded corners*
1,1,$1+$1,$2,$3*
1,1,$1+$1,$4,$5*
1,1,$1+$1,$6,$7*
1,1,$1+$1,$8,$9*
0 Add four rect primitives between the rounded corners*
20,1,$1+$1,$2,$3,$4,$5,0*
20,1,$1+$1,$4,$5,$6,$7,0*
20,1,$1+$1,$6,$7,$8,$9,0*
20,1,$1+$1,$8,$9,$2,$3,0*%
G04 Aperture macros list end*
%ADD10R,0.400000X1.200000*%
%ADD11RoundRect,0.250000X-0.262500X-0.450000X0.262500X-0.450000X0.262500X0.450000X-0.262500X0.450000X0*%
%ADD12RoundRect,0.250000X-0.250000X-0.475000X0.250000X-0.475000X0.250000X0.475000X-0.250000X0.475000X0*%
%ADD13R,1.700000X1.700000*%
%ADD14O,1.700000X1.700000*%
%ADD15RoundRect,0.140000X-0.140000X-0.170000X0.140000X-0.170000X0.140000X0.170000X-0.140000X0.170000X0*%
%ADD16RoundRect,0.100000X-0.130000X-0.100000X0.130000X-0.100000X0.130000X0.100000X-0.130000X0.100000X0*%
%ADD17RoundRect,0.100000X0.130000X0.100000X-0.130000X0.100000X-0.130000X-0.100000X0.130000X-0.100000X0*%
G04 APERTURE END LIST*
D10*
%TO.C,U1*%
X125507500Y-80900000D03*
X126142500Y-80900000D03*
X126777500Y-80900000D03*
X127412500Y-80900000D03*
X128047500Y-80900000D03*
X128682500Y-80900000D03*
X129317500Y-80900000D03*
X129952500Y-80900000D03*
X130587500Y-80900000D03*
X131222500Y-80900000D03*
X131857500Y-80900000D03*
X132492500Y-80900000D03*
X132492500Y-86100000D03*
X131857500Y-86100000D03*
X131222500Y-86100000D03*
X130587500Y-86100000D03*
X129952500Y-86100000D03*
X129317500Y-86100000D03*
X128682500Y-86100000D03*
X128047500Y-86100000D03*
X127412500Y-86100000D03*
X126777500Y-86100000D03*
X126142500Y-86100000D03*
X125507500Y-86100000D03*
%TD*%
D11*
%TO.C,R1*%
X126337500Y-77750000D03*
X128162500Y-77750000D03*
%TD*%
D12*
%TO.C,J1*%
X129300000Y-90250000D03*
X131200000Y-90250000D03*
%TD*%
D13*
%TO.C,Conn2*%
X136750000Y-72930000D03*
D14*
X136750000Y-75470000D03*
X136750000Y-78010000D03*
X136750000Y-80550000D03*
X136750000Y-83090000D03*
X136750000Y-85630000D03*
X136750000Y-88170000D03*
X136750000Y-90710000D03*
X136750000Y-93250000D03*
%TD*%
D13*
%TO.C,Conn1*%
X121500000Y-72920000D03*
D14*
X121500000Y-75460000D03*
X121500000Y-78000000D03*
X121500000Y-80540000D03*
X121500000Y-83080000D03*
X121500000Y-85620000D03*
X121500000Y-88160000D03*
X121500000Y-90700000D03*
X121500000Y-93240000D03*
%TD*%
D15*
%TO.C,C6*%
X130270000Y-77500000D03*
X131230000Y-77500000D03*
%TD*%
D16*
%TO.C,C5*%
X125835000Y-72250000D03*
X126475000Y-72250000D03*
%TD*%
D15*
%TO.C,C4*%
X131540000Y-73500000D03*
X132500000Y-73500000D03*
%TD*%
D16*
%TO.C,C3*%
X132430000Y-76000000D03*
X133070000Y-76000000D03*
%TD*%
D15*
%TO.C,C2*%
X128540000Y-73500000D03*
X129500000Y-73500000D03*
%TD*%
D17*
%TO.C,C1*%
X126500000Y-73500000D03*
X125860000Y-73500000D03*
%TD*%
M02*
