M48
; DRILL file {KiCad 8.0.2-8.0.2-0~ubuntu22.04.1} date 2024-06-02T15:46:10+0900
; FORMAT={-:-/ absolute / inch / decimal}
; #@! TF.CreationDate,2024-06-02T15:46:10+09:00
; #@! TF.GenerationSoftware,Kicad,Pcbnew,8.0.2-8.0.2-0~ubuntu22.04.1
; #@! TF.FileFunction,Plated,1,2,PTH
FMAT,2
INCH
; #@! TA.AperFunction,Plated,PTH,ViaDrill
T1C0.0118
; #@! TA.AperFunction,Plated,PTH,ComponentDrill
T2C0.0394
%
G90
G05
T1
X4.9114Y-3.1102
X4.9213Y-3.061
X4.9803Y-2.9232
X5.0295Y-3.622
X5.0394Y-3.2382
X5.0656Y-3.2776
X5.1181Y-3.2579
X5.1654Y-3.311
X5.1673Y-2.9626
X5.1673Y-3.4843
X5.2165Y-3.2382
X5.287Y-3.311
X5.3445Y-3.3169
T2
X4.7835Y-2.8709
X4.7835Y-2.9709
X4.7835Y-3.0709
X4.7835Y-3.1709
X4.7835Y-3.2709
X4.7835Y-3.3709
X4.7835Y-3.4709
X4.7835Y-3.5709
X4.7835Y-3.6709
X5.3839Y-2.8713
X5.3839Y-2.9713
X5.3839Y-3.0713
X5.3839Y-3.1713
X5.3839Y-3.2713
X5.3839Y-3.3713
X5.3839Y-3.4713
X5.3839Y-3.5713
X5.3839Y-3.6713
M30
