%TF.GenerationSoftware,KiCad,Pcbnew,8.0.2-8.0.2-0~ubuntu22.04.1*%
%TF.CreationDate,2024-06-02T15:46:05+09:00*%
%TF.ProjectId,TB6211_ver2,54423632-3131-45f7-9665-72322e6b6963,rev?*%
%TF.SameCoordinates,Original*%
%TF.FileFunction,Legend,Top*%
%TF.FilePolarity,Positive*%
%FSLAX46Y46*%
G04 Gerber Fmt 4.6, Leading zero omitted, Abs format (unit mm)*
G04 Created by KiCad (PCBNEW 8.0.2-8.0.2-0~ubuntu22.04.1) date 2024-06-02 15:46:05*
%MOMM*%
%LPD*%
G01*
G04 APERTURE LIST*
%ADD10C,0.100000*%
%ADD11C,0.120000*%
%ADD12C,0.150000*%
G04 APERTURE END LIST*
D10*
X126553884Y-94622419D02*
X126553884Y-93622419D01*
X126553884Y-93622419D02*
X126934836Y-93622419D01*
X126934836Y-93622419D02*
X127030074Y-93670038D01*
X127030074Y-93670038D02*
X127077693Y-93717657D01*
X127077693Y-93717657D02*
X127125312Y-93812895D01*
X127125312Y-93812895D02*
X127125312Y-93955752D01*
X127125312Y-93955752D02*
X127077693Y-94050990D01*
X127077693Y-94050990D02*
X127030074Y-94098609D01*
X127030074Y-94098609D02*
X126934836Y-94146228D01*
X126934836Y-94146228D02*
X126553884Y-94146228D01*
X127553884Y-94622419D02*
X127553884Y-93955752D01*
X127553884Y-94146228D02*
X127601503Y-94050990D01*
X127601503Y-94050990D02*
X127649122Y-94003371D01*
X127649122Y-94003371D02*
X127744360Y-93955752D01*
X127744360Y-93955752D02*
X127839598Y-93955752D01*
X128315789Y-94622419D02*
X128220551Y-94574800D01*
X128220551Y-94574800D02*
X128172932Y-94527180D01*
X128172932Y-94527180D02*
X128125313Y-94431942D01*
X128125313Y-94431942D02*
X128125313Y-94146228D01*
X128125313Y-94146228D02*
X128172932Y-94050990D01*
X128172932Y-94050990D02*
X128220551Y-94003371D01*
X128220551Y-94003371D02*
X128315789Y-93955752D01*
X128315789Y-93955752D02*
X128458646Y-93955752D01*
X128458646Y-93955752D02*
X128553884Y-94003371D01*
X128553884Y-94003371D02*
X128601503Y-94050990D01*
X128601503Y-94050990D02*
X128649122Y-94146228D01*
X128649122Y-94146228D02*
X128649122Y-94431942D01*
X128649122Y-94431942D02*
X128601503Y-94527180D01*
X128601503Y-94527180D02*
X128553884Y-94574800D01*
X128553884Y-94574800D02*
X128458646Y-94622419D01*
X128458646Y-94622419D02*
X128315789Y-94622419D01*
X129077694Y-93955752D02*
X129077694Y-94812895D01*
X129077694Y-94812895D02*
X129030075Y-94908133D01*
X129030075Y-94908133D02*
X128934837Y-94955752D01*
X128934837Y-94955752D02*
X128887218Y-94955752D01*
X129077694Y-93622419D02*
X129030075Y-93670038D01*
X129030075Y-93670038D02*
X129077694Y-93717657D01*
X129077694Y-93717657D02*
X129125313Y-93670038D01*
X129125313Y-93670038D02*
X129077694Y-93622419D01*
X129077694Y-93622419D02*
X129077694Y-93717657D01*
X129934836Y-94574800D02*
X129839598Y-94622419D01*
X129839598Y-94622419D02*
X129649122Y-94622419D01*
X129649122Y-94622419D02*
X129553884Y-94574800D01*
X129553884Y-94574800D02*
X129506265Y-94479561D01*
X129506265Y-94479561D02*
X129506265Y-94098609D01*
X129506265Y-94098609D02*
X129553884Y-94003371D01*
X129553884Y-94003371D02*
X129649122Y-93955752D01*
X129649122Y-93955752D02*
X129839598Y-93955752D01*
X129839598Y-93955752D02*
X129934836Y-94003371D01*
X129934836Y-94003371D02*
X129982455Y-94098609D01*
X129982455Y-94098609D02*
X129982455Y-94193847D01*
X129982455Y-94193847D02*
X129506265Y-94289085D01*
X130839598Y-94574800D02*
X130744360Y-94622419D01*
X130744360Y-94622419D02*
X130553884Y-94622419D01*
X130553884Y-94622419D02*
X130458646Y-94574800D01*
X130458646Y-94574800D02*
X130411027Y-94527180D01*
X130411027Y-94527180D02*
X130363408Y-94431942D01*
X130363408Y-94431942D02*
X130363408Y-94146228D01*
X130363408Y-94146228D02*
X130411027Y-94050990D01*
X130411027Y-94050990D02*
X130458646Y-94003371D01*
X130458646Y-94003371D02*
X130553884Y-93955752D01*
X130553884Y-93955752D02*
X130744360Y-93955752D01*
X130744360Y-93955752D02*
X130839598Y-94003371D01*
X131125313Y-93955752D02*
X131506265Y-93955752D01*
X131268170Y-93622419D02*
X131268170Y-94479561D01*
X131268170Y-94479561D02*
X131315789Y-94574800D01*
X131315789Y-94574800D02*
X131411027Y-94622419D01*
X131411027Y-94622419D02*
X131506265Y-94622419D01*
X132601504Y-94622419D02*
X132601504Y-93622419D01*
X132601504Y-93622419D02*
X132982456Y-93622419D01*
X132982456Y-93622419D02*
X133077694Y-93670038D01*
X133077694Y-93670038D02*
X133125313Y-93717657D01*
X133125313Y-93717657D02*
X133172932Y-93812895D01*
X133172932Y-93812895D02*
X133172932Y-93955752D01*
X133172932Y-93955752D02*
X133125313Y-94050990D01*
X133125313Y-94050990D02*
X133077694Y-94098609D01*
X133077694Y-94098609D02*
X132982456Y-94146228D01*
X132982456Y-94146228D02*
X132601504Y-94146228D01*
X133601504Y-94622419D02*
X133601504Y-93622419D01*
X134077694Y-94622419D02*
X134077694Y-93622419D01*
X134077694Y-93622419D02*
X134649122Y-94622419D01*
X134649122Y-94622419D02*
X134649122Y-93622419D01*
D11*
%TO.C,U1*%
X125000000Y-86137500D02*
X124670000Y-86377500D01*
X124670000Y-85897500D01*
X125000000Y-86137500D01*
G36*
X125000000Y-86137500D02*
G01*
X124670000Y-86377500D01*
X124670000Y-85897500D01*
X125000000Y-86137500D01*
G37*
D12*
X133475000Y-81425000D02*
X132917500Y-81425000D01*
X124525000Y-81425000D02*
X125082500Y-81425000D01*
X133475000Y-85575000D02*
X133475000Y-81425000D01*
X133475000Y-85575000D02*
X132917500Y-85575000D01*
X124525000Y-85575000D02*
X124525000Y-81425000D01*
X124525000Y-85575000D02*
X125082500Y-85575000D01*
D11*
%TO.C,R1*%
X127022936Y-77015000D02*
X127477064Y-77015000D01*
X127022936Y-78485000D02*
X127477064Y-78485000D01*
%TO.C,J1*%
X129988748Y-89515000D02*
X130511252Y-89515000D01*
X129988748Y-90985000D02*
X130511252Y-90985000D01*
%TO.C,Conn2*%
X135420000Y-71600000D02*
X136750000Y-71600000D01*
X135420000Y-72930000D02*
X135420000Y-71600000D01*
X135420000Y-74200000D02*
X135420000Y-94580000D01*
X135420000Y-74200000D02*
X138080000Y-74200000D01*
X135420000Y-94580000D02*
X138080000Y-94580000D01*
X138080000Y-74200000D02*
X138080000Y-94580000D01*
%TO.C,Conn1*%
X120170000Y-71590000D02*
X121500000Y-71590000D01*
X120170000Y-72920000D02*
X120170000Y-71590000D01*
X120170000Y-74190000D02*
X120170000Y-94570000D01*
X120170000Y-74190000D02*
X122830000Y-74190000D01*
X120170000Y-94570000D02*
X122830000Y-94570000D01*
X122830000Y-74190000D02*
X122830000Y-94570000D01*
%TO.C,C6*%
X130642164Y-77140000D02*
X130857836Y-77140000D01*
X130642164Y-77860000D02*
X130857836Y-77860000D01*
%TO.C,C4*%
X131912164Y-73140000D02*
X132127836Y-73140000D01*
X131912164Y-73860000D02*
X132127836Y-73860000D01*
%TO.C,C2*%
X128912164Y-73140000D02*
X129127836Y-73140000D01*
X128912164Y-73860000D02*
X129127836Y-73860000D01*
%TD*%
M02*
