%TF.GenerationSoftware,KiCad,Pcbnew,8.0.2-8.0.2-0~ubuntu22.04.1*%
%TF.CreationDate,2024-06-02T15:46:05+09:00*%
%TF.ProjectId,TB6211_ver2,54423632-3131-45f7-9665-72322e6b6963,rev?*%
%TF.SameCoordinates,Original*%
%TF.FileFunction,Copper,L2,Bot*%
%TF.FilePolarity,Positive*%
%FSLAX46Y46*%
G04 Gerber Fmt 4.6, Leading zero omitted, Abs format (unit mm)*
G04 Created by KiCad (PCBNEW 8.0.2-8.0.2-0~ubuntu22.04.1) date 2024-06-02 15:46:05*
%MOMM*%
%LPD*%
G01*
G04 APERTURE LIST*
G04 Aperture macros list*
%AMRoundRect*
0 Rectangle with rounded corners*
0 $1 Rounding radius*
0 $2 $3 $4 $5 $6 $7 $8 $9 X,Y pos of 4 corners*
0 Add a 4 corners polygon primitive as box body*
4,1,4,$2,$3,$4,$5,$6,$7,$8,$9,$2,$3,0*
0 Add four circle primitives for the rounded corners*
1,1,$1+$1,$2,$3*
1,1,$1+$1,$4,$5*
1,1,$1+$1,$6,$7*
1,1,$1+$1,$8,$9*
0 Add four rect primitives between the rounded corners*
20,1,$1+$1,$2,$3,$4,$5,0*
20,1,$1+$1,$4,$5,$6,$7,0*
20,1,$1+$1,$6,$7,$8,$9,0*
20,1,$1+$1,$8,$9,$2,$3,0*%
G04 Aperture macros list end*
%TA.AperFunction,SMDPad,CuDef*%
%ADD10RoundRect,0.250000X-0.475000X0.250000X-0.475000X-0.250000X0.475000X-0.250000X0.475000X0.250000X0*%
%TD*%
%TA.AperFunction,ComponentPad*%
%ADD11R,1.700000X1.700000*%
%TD*%
%TA.AperFunction,ComponentPad*%
%ADD12O,1.700000X1.700000*%
%TD*%
%TA.AperFunction,ViaPad*%
%ADD13C,0.600000*%
%TD*%
%TA.AperFunction,Conductor*%
%ADD14C,0.300000*%
%TD*%
%TA.AperFunction,Conductor*%
%ADD15C,0.500000*%
%TD*%
G04 APERTURE END LIST*
D10*
%TO.P,J2,2*%
%TO.N,sankaku*%
X132750000Y-91200000D03*
%TO.P,J2,1*%
%TO.N,GND*%
X132750000Y-89300000D03*
%TD*%
D11*
%TO.P,Conn2,1,Pin_1*%
%TO.N,STBY*%
X136750000Y-72930000D03*
D12*
%TO.P,Conn2,2,Pin_2*%
%TO.N,PWMA*%
X136750000Y-75470000D03*
%TO.P,Conn2,3,Pin_3*%
%TO.N,AIN2*%
X136750000Y-78010000D03*
%TO.P,Conn2,4,Pin_4*%
%TO.N,AIN1*%
X136750000Y-80550000D03*
%TO.P,Conn2,5,Pin_5*%
%TO.N,BIN1*%
X136750000Y-83090000D03*
%TO.P,Conn2,6,Pin_6*%
%TO.N,BIN2*%
X136750000Y-85630000D03*
%TO.P,Conn2,7,Pin_7*%
%TO.N,PWMB*%
X136750000Y-88170000D03*
%TO.P,Conn2,8,Pin_8*%
%TO.N,sankaku*%
X136750000Y-90710000D03*
%TO.P,Conn2,9,Pin_9*%
%TO.N,VCC*%
X136750000Y-93250000D03*
%TD*%
D11*
%TO.P,Conn1,1,Pin_1*%
%TO.N,VM*%
X121500000Y-72920000D03*
D12*
%TO.P,Conn1,2,Pin_2*%
X121500000Y-75460000D03*
%TO.P,Conn1,3,Pin_3*%
%TO.N,GND*%
X121500000Y-78000000D03*
%TO.P,Conn1,4,Pin_4*%
X121500000Y-80540000D03*
%TO.P,Conn1,5,Pin_5*%
X121500000Y-83080000D03*
%TO.P,Conn1,6,Pin_6*%
%TO.N,Net-(Conn1-Pin_6)*%
X121500000Y-85620000D03*
%TO.P,Conn1,7,Pin_7*%
%TO.N,Net-(Conn1-Pin_7)*%
X121500000Y-88160000D03*
%TO.P,Conn1,8,Pin_8*%
%TO.N,Net-(Conn1-Pin_8)*%
X121500000Y-90700000D03*
%TO.P,Conn1,9,Pin_9*%
%TO.N,Net-(Conn1-Pin_9)*%
X121500000Y-93240000D03*
%TD*%
D13*
%TO.N,STBY*%
X128667500Y-83250000D03*
%TO.N,VM*%
X132500000Y-82250000D03*
%TO.N,BIN2*%
X131200000Y-84100000D03*
X134290380Y-84100000D03*
%TO.N,BIN1*%
X135750000Y-84250000D03*
X130000000Y-82750000D03*
%TO.N,Net-(J1-Pad1)*%
X125000000Y-77750000D03*
X127750000Y-92000000D03*
%TO.N,VCC*%
X131250000Y-75250000D03*
X131250000Y-88500000D03*
X128000000Y-82250000D03*
%TO.N,Net-(U1-VM1)*%
X126500000Y-74250000D03*
X124750000Y-79000000D03*
%TD*%
D14*
%TO.N,STBY*%
X128667500Y-83250000D02*
X128667500Y-83163261D01*
X128667500Y-83163261D02*
X129850000Y-81980761D01*
X132769239Y-82900000D02*
X135500000Y-80169239D01*
X135500000Y-74180000D02*
X136750000Y-72930000D01*
X129850000Y-81980761D02*
X131311522Y-81980761D01*
X131311522Y-81980761D02*
X132230761Y-82900000D01*
X132230761Y-82900000D02*
X132769239Y-82900000D01*
X135500000Y-80169239D02*
X135500000Y-74180000D01*
%TO.N,VCC*%
X128000000Y-82250000D02*
X128000000Y-85250000D01*
X128000000Y-85250000D02*
X131250000Y-88500000D01*
%TO.N,GND*%
X132750000Y-89300000D02*
X129400000Y-92650000D01*
X129400000Y-92650000D02*
X127480761Y-92650000D01*
X127480761Y-92650000D02*
X124900000Y-90069239D01*
X124900000Y-90069239D02*
X124900000Y-86480000D01*
X124900000Y-86480000D02*
X121500000Y-83080000D01*
%TO.N,sankaku*%
X132750000Y-91200000D02*
X136260000Y-91200000D01*
X136260000Y-91200000D02*
X136750000Y-90710000D01*
%TO.N,VM*%
X130519239Y-73600000D02*
X123360000Y-73600000D01*
X132500000Y-82250000D02*
X132500000Y-75580761D01*
X132500000Y-75580761D02*
X130519239Y-73600000D01*
X123360000Y-73600000D02*
X121500000Y-75460000D01*
%TO.N,BIN2*%
X134290380Y-84100000D02*
X131200000Y-84100000D01*
%TO.N,BIN1*%
X130750000Y-84750000D02*
X130000000Y-84000000D01*
X130000000Y-84000000D02*
X130000000Y-82750000D01*
X135750000Y-84250000D02*
X135250000Y-84750000D01*
X135250000Y-84750000D02*
X130750000Y-84750000D01*
D15*
%TO.N,Net-(J1-Pad1)*%
X125500000Y-78250000D02*
X125500000Y-89750000D01*
X125500000Y-89750000D02*
X127750000Y-92000000D01*
X125000000Y-77750000D02*
X125500000Y-78250000D01*
D14*
%TO.N,Net-(U1-VM1)*%
X124750000Y-79000000D02*
X124000000Y-78250000D01*
X124000000Y-78250000D02*
X124000000Y-76750000D01*
X124000000Y-76750000D02*
X126500000Y-74250000D01*
%TO.N,VCC*%
X131250000Y-79000000D02*
X131250000Y-75250000D01*
X128000000Y-82250000D02*
X131250000Y-79000000D01*
%TD*%
%TA.AperFunction,Conductor*%
%TO.N,GND*%
G36*
X131576135Y-90371315D02*
G01*
X131632069Y-90413186D01*
X131656486Y-90478651D01*
X131641634Y-90546924D01*
X131638341Y-90552593D01*
X131590189Y-90630659D01*
X131590186Y-90630666D01*
X131535001Y-90797203D01*
X131535001Y-90797204D01*
X131535000Y-90797204D01*
X131524500Y-90899983D01*
X131524500Y-90960288D01*
X131504815Y-91027327D01*
X131452011Y-91073082D01*
X131409347Y-91083972D01*
X131322423Y-91090189D01*
X131304947Y-91091439D01*
X131304944Y-91091439D01*
X131304944Y-91091440D01*
X131170136Y-91141719D01*
X131170135Y-91141720D01*
X131115309Y-91171656D01*
X131114200Y-91172179D01*
X131108814Y-91175202D01*
X130993631Y-91261428D01*
X130993619Y-91261438D01*
X129501071Y-92753988D01*
X129482283Y-92769408D01*
X129478838Y-92771710D01*
X129457395Y-92783171D01*
X129453573Y-92784754D01*
X129430339Y-92791804D01*
X129426271Y-92792613D01*
X129402065Y-92795000D01*
X128386440Y-92795000D01*
X128319401Y-92775315D01*
X128273646Y-92722511D01*
X128263702Y-92653353D01*
X128292727Y-92589797D01*
X128298744Y-92583333D01*
X128374212Y-92507865D01*
X128435531Y-92474383D01*
X128496827Y-92476572D01*
X128512735Y-92481244D01*
X128523901Y-92484523D01*
X128523903Y-92484523D01*
X128523906Y-92484524D01*
X128666322Y-92505000D01*
X128666325Y-92505000D01*
X129079194Y-92505000D01*
X129089340Y-92504455D01*
X129133232Y-92502103D01*
X129133240Y-92502102D01*
X129133242Y-92502102D01*
X129133243Y-92502102D01*
X129140236Y-92501349D01*
X129159590Y-92499269D01*
X129159600Y-92499267D01*
X129159603Y-92499267D01*
X129169202Y-92497711D01*
X129213002Y-92490614D01*
X129347811Y-92440332D01*
X129409134Y-92406847D01*
X129524316Y-92320623D01*
X131445121Y-90399815D01*
X131506444Y-90366331D01*
X131576135Y-90371315D01*
G37*
%TD.AperFunction*%
%TA.AperFunction,Conductor*%
G36*
X122600459Y-83991243D02*
G01*
X122644806Y-84019744D01*
X124180353Y-85555292D01*
X124180377Y-85555315D01*
X124193339Y-85567824D01*
X124199817Y-85573856D01*
X124213265Y-85585937D01*
X124334305Y-85663724D01*
X124334310Y-85663726D01*
X124334315Y-85663729D01*
X124363028Y-85676841D01*
X124397438Y-85692556D01*
X124397849Y-85692745D01*
X124397858Y-85692747D01*
X124397861Y-85692749D01*
X124397864Y-85692751D01*
X124535917Y-85733285D01*
X124625500Y-85733284D01*
X124692538Y-85752968D01*
X124738294Y-85805771D01*
X124749500Y-85857284D01*
X124749500Y-86235199D01*
X124729815Y-86302238D01*
X124677011Y-86347993D01*
X124607853Y-86357937D01*
X124544297Y-86328912D01*
X124537819Y-86322880D01*
X123422411Y-85207472D01*
X123422406Y-85207468D01*
X123422404Y-85207466D01*
X123310737Y-85123179D01*
X123293598Y-85113643D01*
X123251334Y-85090127D01*
X123120831Y-85039674D01*
X122977499Y-85027134D01*
X122914541Y-85030634D01*
X122911173Y-85030822D01*
X122909063Y-85030880D01*
X122907736Y-85031012D01*
X122827541Y-85047130D01*
X122757937Y-85041041D01*
X122702674Y-84998287D01*
X122690728Y-84977969D01*
X122674035Y-84942171D01*
X122538495Y-84748599D01*
X122538494Y-84748597D01*
X122371402Y-84581506D01*
X122371401Y-84581505D01*
X122185405Y-84451269D01*
X122141781Y-84396692D01*
X122134588Y-84327193D01*
X122166110Y-84264839D01*
X122185405Y-84248119D01*
X122371082Y-84118105D01*
X122469444Y-84019744D01*
X122530767Y-83986259D01*
X122600459Y-83991243D01*
G37*
%TD.AperFunction*%
%TA.AperFunction,Conductor*%
G36*
X121750000Y-81408594D02*
G01*
X121730315Y-81475633D01*
X121727575Y-81479717D01*
X121715416Y-81497080D01*
X121715413Y-81497086D01*
X121683908Y-81559407D01*
X121683891Y-81559441D01*
X121637913Y-81695779D01*
X121632210Y-81839549D01*
X121632210Y-81839554D01*
X121639404Y-81909046D01*
X121674432Y-82048591D01*
X121732892Y-82148016D01*
X121750000Y-82210865D01*
X121750000Y-82646988D01*
X121692993Y-82614075D01*
X121565826Y-82580000D01*
X121434174Y-82580000D01*
X121307007Y-82614075D01*
X121250000Y-82646988D01*
X121250000Y-82211405D01*
X121269685Y-82144366D01*
X121272414Y-82140297D01*
X121284583Y-82122919D01*
X121316106Y-82060564D01*
X121316110Y-82060556D01*
X121362087Y-81924219D01*
X121367790Y-81780452D01*
X121360596Y-81710954D01*
X121325568Y-81571409D01*
X121267107Y-81471983D01*
X121250000Y-81409135D01*
X121250000Y-80973012D01*
X121307007Y-81005925D01*
X121434174Y-81040000D01*
X121565826Y-81040000D01*
X121692993Y-81005925D01*
X121750000Y-80973012D01*
X121750000Y-81408594D01*
G37*
%TD.AperFunction*%
%TA.AperFunction,Conductor*%
G36*
X121750000Y-78868594D02*
G01*
X121730315Y-78935633D01*
X121727575Y-78939717D01*
X121715416Y-78957080D01*
X121715413Y-78957086D01*
X121683908Y-79019407D01*
X121683891Y-79019441D01*
X121637913Y-79155779D01*
X121632210Y-79299549D01*
X121632210Y-79299554D01*
X121636339Y-79339439D01*
X121639404Y-79369046D01*
X121674432Y-79508591D01*
X121732892Y-79608016D01*
X121750000Y-79670865D01*
X121750000Y-80106988D01*
X121692993Y-80074075D01*
X121565826Y-80040000D01*
X121434174Y-80040000D01*
X121307007Y-80074075D01*
X121250000Y-80106988D01*
X121250000Y-79671405D01*
X121269685Y-79604366D01*
X121272414Y-79600297D01*
X121284583Y-79582919D01*
X121316106Y-79520564D01*
X121316110Y-79520556D01*
X121362087Y-79384219D01*
X121367790Y-79240452D01*
X121360596Y-79170954D01*
X121325568Y-79031409D01*
X121267107Y-78931983D01*
X121250000Y-78869135D01*
X121250000Y-78433012D01*
X121307007Y-78465925D01*
X121434174Y-78500000D01*
X121565826Y-78500000D01*
X121692993Y-78465925D01*
X121750000Y-78433012D01*
X121750000Y-78868594D01*
G37*
%TD.AperFunction*%
%TD*%
%TA.AperFunction,Conductor*%
%TO.N,VCC*%
G36*
X123064962Y-85564908D02*
G01*
X124213181Y-86713127D01*
X124246666Y-86774450D01*
X124249500Y-86800808D01*
X124249500Y-90133308D01*
X124249500Y-90133310D01*
X124249499Y-90133310D01*
X124274497Y-90258977D01*
X124274499Y-90258983D01*
X124292977Y-90303594D01*
X124323535Y-90377366D01*
X124393010Y-90481344D01*
X124394726Y-90483912D01*
X124394727Y-90483913D01*
X126975485Y-93064669D01*
X127034816Y-93124000D01*
X127066093Y-93155277D01*
X127172627Y-93226461D01*
X127172633Y-93226464D01*
X127172634Y-93226465D01*
X127291017Y-93275501D01*
X127291021Y-93275501D01*
X127291022Y-93275502D01*
X127416689Y-93300500D01*
X127416692Y-93300500D01*
X129464071Y-93300500D01*
X129548615Y-93283682D01*
X129589744Y-93275501D01*
X129708127Y-93226465D01*
X129814669Y-93155277D01*
X131351073Y-91618871D01*
X131412394Y-91585388D01*
X131482085Y-91590372D01*
X131538019Y-91632243D01*
X131556458Y-91667550D01*
X131590186Y-91769334D01*
X131682288Y-91918656D01*
X131806344Y-92042712D01*
X131955666Y-92134814D01*
X132122203Y-92189999D01*
X132224991Y-92200500D01*
X133275008Y-92200499D01*
X133275016Y-92200498D01*
X133275019Y-92200498D01*
X133331302Y-92194748D01*
X133377797Y-92189999D01*
X133544334Y-92134814D01*
X133693656Y-92042712D01*
X133817712Y-91918656D01*
X133823420Y-91909402D01*
X133875368Y-91862678D01*
X133928958Y-91850500D01*
X135985180Y-91850500D01*
X136052219Y-91870185D01*
X136056300Y-91872923D01*
X136064591Y-91878728D01*
X136108218Y-91933303D01*
X136115413Y-92002801D01*
X136083893Y-92065157D01*
X136064595Y-92081880D01*
X135878922Y-92211890D01*
X135878920Y-92211891D01*
X135711891Y-92378920D01*
X135711886Y-92378926D01*
X135576400Y-92572420D01*
X135576399Y-92572422D01*
X135476570Y-92786507D01*
X135476567Y-92786513D01*
X135419364Y-92999999D01*
X135419364Y-93000000D01*
X136316988Y-93000000D01*
X136284075Y-93057007D01*
X136250000Y-93184174D01*
X136250000Y-93315826D01*
X136284075Y-93442993D01*
X136316988Y-93500000D01*
X135419364Y-93500000D01*
X135476567Y-93713486D01*
X135476570Y-93713492D01*
X135576399Y-93927578D01*
X135711894Y-94121082D01*
X135878631Y-94287819D01*
X135912116Y-94349142D01*
X135907132Y-94418834D01*
X135865260Y-94474767D01*
X135799796Y-94499184D01*
X135790950Y-94499500D01*
X122448705Y-94499500D01*
X122381666Y-94479815D01*
X122335911Y-94427011D01*
X122325967Y-94357853D01*
X122354992Y-94294297D01*
X122368993Y-94280516D01*
X122371396Y-94278498D01*
X122371401Y-94278495D01*
X122538495Y-94111401D01*
X122674035Y-93917830D01*
X122773903Y-93703663D01*
X122835063Y-93475408D01*
X122855659Y-93240000D01*
X122854474Y-93226461D01*
X122850775Y-93184174D01*
X122835063Y-93004592D01*
X122773903Y-92776337D01*
X122674035Y-92562171D01*
X122561468Y-92401407D01*
X122538494Y-92368597D01*
X122371402Y-92201506D01*
X122371396Y-92201501D01*
X122185842Y-92071575D01*
X122142217Y-92016998D01*
X122135023Y-91947500D01*
X122166546Y-91885145D01*
X122185842Y-91868425D01*
X122253936Y-91820745D01*
X122371401Y-91738495D01*
X122538495Y-91571401D01*
X122674035Y-91377830D01*
X122773903Y-91163663D01*
X122835063Y-90935408D01*
X122855659Y-90700000D01*
X122835063Y-90464592D01*
X122776584Y-90246344D01*
X122773905Y-90236344D01*
X122773904Y-90236343D01*
X122773903Y-90236337D01*
X122674035Y-90022171D01*
X122671575Y-90018657D01*
X122538494Y-89828597D01*
X122371402Y-89661506D01*
X122371396Y-89661501D01*
X122185842Y-89531575D01*
X122142217Y-89476998D01*
X122135023Y-89407500D01*
X122166546Y-89345145D01*
X122185842Y-89328425D01*
X122357115Y-89208498D01*
X122371401Y-89198495D01*
X122538495Y-89031401D01*
X122674035Y-88837830D01*
X122773903Y-88623663D01*
X122835063Y-88395408D01*
X122855659Y-88160000D01*
X122835063Y-87924592D01*
X122776584Y-87706344D01*
X122773905Y-87696344D01*
X122773904Y-87696343D01*
X122773903Y-87696337D01*
X122674035Y-87482171D01*
X122562608Y-87323035D01*
X122538494Y-87288597D01*
X122371402Y-87121506D01*
X122371396Y-87121501D01*
X122185842Y-86991575D01*
X122142217Y-86936998D01*
X122135023Y-86867500D01*
X122166546Y-86805145D01*
X122185842Y-86788425D01*
X122208026Y-86772891D01*
X122371401Y-86658495D01*
X122538495Y-86491401D01*
X122674035Y-86297830D01*
X122773903Y-86083663D01*
X122835063Y-85855408D01*
X122853753Y-85641781D01*
X122879205Y-85576713D01*
X122935796Y-85535734D01*
X123005558Y-85531856D01*
X123064962Y-85564908D01*
G37*
%TD.AperFunction*%
%TA.AperFunction,Conductor*%
G36*
X130265470Y-74270185D02*
G01*
X130286112Y-74286819D01*
X131813181Y-75813888D01*
X131846666Y-75875211D01*
X131849500Y-75901569D01*
X131849500Y-81325889D01*
X131829815Y-81392928D01*
X131777011Y-81438683D01*
X131707853Y-81448627D01*
X131656611Y-81428992D01*
X131619650Y-81404296D01*
X131501266Y-81355260D01*
X131501260Y-81355258D01*
X131375593Y-81330261D01*
X131375591Y-81330261D01*
X129785931Y-81330261D01*
X129785929Y-81330261D01*
X129660261Y-81355258D01*
X129660251Y-81355261D01*
X129611220Y-81375571D01*
X129541881Y-81404291D01*
X129541863Y-81404301D01*
X129435332Y-81475482D01*
X129435325Y-81475488D01*
X128443554Y-82467259D01*
X128396829Y-82496619D01*
X128317976Y-82524211D01*
X128317975Y-82524212D01*
X128165237Y-82620184D01*
X128037684Y-82747737D01*
X127941711Y-82900476D01*
X127882131Y-83070745D01*
X127882130Y-83070750D01*
X127861935Y-83249996D01*
X127861935Y-83250003D01*
X127882130Y-83429249D01*
X127882131Y-83429254D01*
X127941711Y-83599523D01*
X128027597Y-83736209D01*
X128037684Y-83752262D01*
X128165238Y-83879816D01*
X128250796Y-83933576D01*
X128295079Y-83961401D01*
X128317978Y-83975789D01*
X128488245Y-84035368D01*
X128488250Y-84035369D01*
X128667496Y-84055565D01*
X128667500Y-84055565D01*
X128667504Y-84055565D01*
X128846749Y-84035369D01*
X128846752Y-84035368D01*
X128846755Y-84035368D01*
X129017022Y-83975789D01*
X129159529Y-83886245D01*
X129226764Y-83867246D01*
X129293600Y-83887614D01*
X129338814Y-83940881D01*
X129349500Y-83991240D01*
X129349500Y-84064069D01*
X129369392Y-84164069D01*
X129374499Y-84189744D01*
X129398805Y-84248425D01*
X129423535Y-84308127D01*
X129494723Y-84414669D01*
X129494726Y-84414673D01*
X129494727Y-84414674D01*
X130244724Y-85164669D01*
X130303041Y-85222986D01*
X130335332Y-85255277D01*
X130441866Y-85326461D01*
X130441872Y-85326464D01*
X130441873Y-85326465D01*
X130560256Y-85375501D01*
X130560260Y-85375501D01*
X130560261Y-85375502D01*
X130685928Y-85400500D01*
X135279098Y-85400500D01*
X135346137Y-85420185D01*
X135391892Y-85472989D01*
X135402625Y-85535306D01*
X135400036Y-85564908D01*
X135394341Y-85629999D01*
X135394341Y-85630000D01*
X135414936Y-85865403D01*
X135414938Y-85865413D01*
X135476094Y-86093655D01*
X135476096Y-86093659D01*
X135476097Y-86093663D01*
X135495837Y-86135995D01*
X135575965Y-86307830D01*
X135575967Y-86307834D01*
X135711501Y-86501395D01*
X135711506Y-86501402D01*
X135878597Y-86668493D01*
X135878603Y-86668498D01*
X136064158Y-86798425D01*
X136107783Y-86853002D01*
X136114977Y-86922500D01*
X136083454Y-86984855D01*
X136064158Y-87001575D01*
X135878597Y-87131505D01*
X135711505Y-87298597D01*
X135575965Y-87492169D01*
X135575964Y-87492171D01*
X135476098Y-87706335D01*
X135476094Y-87706344D01*
X135414938Y-87934586D01*
X135414936Y-87934596D01*
X135394341Y-88169999D01*
X135394341Y-88170000D01*
X135414936Y-88405403D01*
X135414938Y-88405413D01*
X135476094Y-88633655D01*
X135476096Y-88633659D01*
X135476097Y-88633663D01*
X135571302Y-88837830D01*
X135575965Y-88847830D01*
X135575967Y-88847834D01*
X135711501Y-89041395D01*
X135711506Y-89041402D01*
X135878597Y-89208493D01*
X135878603Y-89208498D01*
X136064158Y-89338425D01*
X136107783Y-89393002D01*
X136114977Y-89462500D01*
X136083454Y-89524855D01*
X136064158Y-89541575D01*
X135878597Y-89671505D01*
X135711505Y-89838597D01*
X135575965Y-90032169D01*
X135575964Y-90032171D01*
X135476098Y-90246335D01*
X135476094Y-90246344D01*
X135419492Y-90457593D01*
X135383127Y-90517254D01*
X135320281Y-90547783D01*
X135299717Y-90549500D01*
X133928958Y-90549500D01*
X133861919Y-90529815D01*
X133823420Y-90490598D01*
X133817712Y-90481344D01*
X133693658Y-90357290D01*
X133693656Y-90357288D01*
X133690819Y-90355538D01*
X133689283Y-90353830D01*
X133687989Y-90352807D01*
X133688163Y-90352585D01*
X133644096Y-90303594D01*
X133632872Y-90234632D01*
X133660713Y-90170549D01*
X133690817Y-90144462D01*
X133693656Y-90142712D01*
X133817712Y-90018656D01*
X133909814Y-89869334D01*
X133964999Y-89702797D01*
X133975500Y-89600009D01*
X133975499Y-88999992D01*
X133975195Y-88997020D01*
X133964999Y-88897203D01*
X133964998Y-88897200D01*
X133945326Y-88837834D01*
X133909814Y-88730666D01*
X133817712Y-88581344D01*
X133693656Y-88457288D01*
X133544334Y-88365186D01*
X133377797Y-88310001D01*
X133377795Y-88310000D01*
X133275010Y-88299500D01*
X132224998Y-88299500D01*
X132224980Y-88299501D01*
X132122203Y-88310000D01*
X132122200Y-88310001D01*
X131955668Y-88365185D01*
X131955663Y-88365187D01*
X131806342Y-88457289D01*
X131682289Y-88581342D01*
X131590187Y-88730663D01*
X131590186Y-88730666D01*
X131535001Y-88897203D01*
X131535001Y-88897204D01*
X131535000Y-88897204D01*
X131524500Y-88999983D01*
X131524500Y-89554190D01*
X131504815Y-89621229D01*
X131488181Y-89641871D01*
X129166873Y-91963181D01*
X129105550Y-91996666D01*
X129079192Y-91999500D01*
X128666322Y-91999500D01*
X128599283Y-91979815D01*
X128553528Y-91927011D01*
X128543102Y-91889383D01*
X128535369Y-91820750D01*
X128535368Y-91820748D01*
X128535368Y-91820745D01*
X128475789Y-91650478D01*
X128379816Y-91497738D01*
X128252262Y-91370184D01*
X128099522Y-91274211D01*
X128099518Y-91274209D01*
X128093244Y-91271188D01*
X128094125Y-91269358D01*
X128058059Y-91246692D01*
X126286819Y-89475451D01*
X126253334Y-89414128D01*
X126250500Y-89387770D01*
X126250500Y-78176079D01*
X126221659Y-78031092D01*
X126221658Y-78031091D01*
X126221658Y-78031087D01*
X126165084Y-77894505D01*
X126117919Y-77823917D01*
X126082952Y-77771584D01*
X126082950Y-77771581D01*
X126082947Y-77771578D01*
X125753307Y-77441939D01*
X125730653Y-77405869D01*
X125728813Y-77406756D01*
X125725792Y-77400484D01*
X125725789Y-77400480D01*
X125725789Y-77400478D01*
X125629816Y-77247738D01*
X125502262Y-77120184D01*
X125493297Y-77114551D01*
X125349523Y-77024211D01*
X125179254Y-76964631D01*
X125179250Y-76964630D01*
X125009175Y-76945468D01*
X124944761Y-76918401D01*
X124905206Y-76860807D01*
X124903069Y-76790970D01*
X124935376Y-76734569D01*
X126598224Y-75071720D01*
X126659545Y-75038237D01*
X126672019Y-75036183D01*
X126679255Y-75035368D01*
X126849522Y-74975789D01*
X127002262Y-74879816D01*
X127129816Y-74752262D01*
X127225789Y-74599522D01*
X127285368Y-74429255D01*
X127286242Y-74421505D01*
X127293102Y-74360617D01*
X127320168Y-74296203D01*
X127377763Y-74256648D01*
X127416322Y-74250500D01*
X130198431Y-74250500D01*
X130265470Y-74270185D01*
G37*
%TD.AperFunction*%
%TD*%
M02*
