%TF.GenerationSoftware,KiCad,Pcbnew,8.0.2-8.0.2-0~ubuntu22.04.1*%
%TF.CreationDate,2024-06-02T15:46:11+09:00*%
%TF.ProjectId,TB6211_ver2,54423632-3131-45f7-9665-72322e6b6963,rev?*%
%TF.SameCoordinates,Original*%
%TF.FileFunction,Drillmap*%
%TF.FilePolarity,Positive*%
%FSLAX45Y45*%
G04 Gerber Fmt 4.5, Leading zero omitted, Abs format (unit mm)*
G04 Created by KiCad (PCBNEW 8.0.2-8.0.2-0~ubuntu22.04.1) date 2024-06-02 15:46:11*
%MOMM*%
%LPD*%
G01*
G04 APERTURE LIST*
%ADD10C,0.050000*%
%ADD11C,0.200000*%
%ADD12C,0.100000*%
G04 APERTURE END LIST*
D10*
X11975000Y-7100000D02*
X13850000Y-7100000D01*
X13850000Y-9500000D01*
X11975000Y-9500000D01*
X11975000Y-7100000D01*
D11*
D12*
X12460000Y-7885000D02*
X12490000Y-7915000D01*
X12490000Y-7885000D02*
X12460000Y-7915000D01*
X12485000Y-7760000D02*
X12515000Y-7790000D01*
X12515000Y-7760000D02*
X12485000Y-7790000D01*
X12635000Y-7410000D02*
X12665000Y-7440000D01*
X12665000Y-7410000D02*
X12635000Y-7440000D01*
X12760000Y-9185000D02*
X12790000Y-9215000D01*
X12790000Y-9185000D02*
X12760000Y-9215000D01*
X12785000Y-8210000D02*
X12815000Y-8240000D01*
X12815000Y-8210000D02*
X12785000Y-8240000D01*
X12851750Y-8310000D02*
X12881750Y-8340000D01*
X12881750Y-8310000D02*
X12851750Y-8340000D01*
X12985000Y-8260000D02*
X13015000Y-8290000D01*
X13015000Y-8260000D02*
X12985000Y-8290000D01*
X13105000Y-8395000D02*
X13135000Y-8425000D01*
X13135000Y-8395000D02*
X13105000Y-8425000D01*
X13110000Y-7510000D02*
X13140000Y-7540000D01*
X13140000Y-7510000D02*
X13110000Y-7540000D01*
X13110000Y-8835000D02*
X13140000Y-8865000D01*
X13140000Y-8835000D02*
X13110000Y-8865000D01*
X13235000Y-8210000D02*
X13265000Y-8240000D01*
X13265000Y-8210000D02*
X13235000Y-8240000D01*
X13414038Y-8395000D02*
X13444038Y-8425000D01*
X13444038Y-8395000D02*
X13414038Y-8425000D01*
X13560000Y-8410000D02*
X13590000Y-8440000D01*
X13590000Y-8410000D02*
X13560000Y-8440000D01*
X12200000Y-7292000D02*
G75*
G02*
X12100000Y-7292000I-50000J0D01*
G01*
X12100000Y-7292000D02*
G75*
G02*
X12200000Y-7292000I50000J0D01*
G01*
X12200000Y-7546000D02*
G75*
G02*
X12100000Y-7546000I-50000J0D01*
G01*
X12100000Y-7546000D02*
G75*
G02*
X12200000Y-7546000I50000J0D01*
G01*
X12200000Y-7800000D02*
G75*
G02*
X12100000Y-7800000I-50000J0D01*
G01*
X12100000Y-7800000D02*
G75*
G02*
X12200000Y-7800000I50000J0D01*
G01*
X12200000Y-8054000D02*
G75*
G02*
X12100000Y-8054000I-50000J0D01*
G01*
X12100000Y-8054000D02*
G75*
G02*
X12200000Y-8054000I50000J0D01*
G01*
X12200000Y-8308000D02*
G75*
G02*
X12100000Y-8308000I-50000J0D01*
G01*
X12100000Y-8308000D02*
G75*
G02*
X12200000Y-8308000I50000J0D01*
G01*
X12200000Y-8562000D02*
G75*
G02*
X12100000Y-8562000I-50000J0D01*
G01*
X12100000Y-8562000D02*
G75*
G02*
X12200000Y-8562000I50000J0D01*
G01*
X12200000Y-8816000D02*
G75*
G02*
X12100000Y-8816000I-50000J0D01*
G01*
X12100000Y-8816000D02*
G75*
G02*
X12200000Y-8816000I50000J0D01*
G01*
X12200000Y-9070000D02*
G75*
G02*
X12100000Y-9070000I-50000J0D01*
G01*
X12100000Y-9070000D02*
G75*
G02*
X12200000Y-9070000I50000J0D01*
G01*
X12200000Y-9324000D02*
G75*
G02*
X12100000Y-9324000I-50000J0D01*
G01*
X12100000Y-9324000D02*
G75*
G02*
X12200000Y-9324000I50000J0D01*
G01*
X13725000Y-7293000D02*
G75*
G02*
X13625000Y-7293000I-50000J0D01*
G01*
X13625000Y-7293000D02*
G75*
G02*
X13725000Y-7293000I50000J0D01*
G01*
X13725000Y-7547000D02*
G75*
G02*
X13625000Y-7547000I-50000J0D01*
G01*
X13625000Y-7547000D02*
G75*
G02*
X13725000Y-7547000I50000J0D01*
G01*
X13725000Y-7801000D02*
G75*
G02*
X13625000Y-7801000I-50000J0D01*
G01*
X13625000Y-7801000D02*
G75*
G02*
X13725000Y-7801000I50000J0D01*
G01*
X13725000Y-8055000D02*
G75*
G02*
X13625000Y-8055000I-50000J0D01*
G01*
X13625000Y-8055000D02*
G75*
G02*
X13725000Y-8055000I50000J0D01*
G01*
X13725000Y-8309000D02*
G75*
G02*
X13625000Y-8309000I-50000J0D01*
G01*
X13625000Y-8309000D02*
G75*
G02*
X13725000Y-8309000I50000J0D01*
G01*
X13725000Y-8563000D02*
G75*
G02*
X13625000Y-8563000I-50000J0D01*
G01*
X13625000Y-8563000D02*
G75*
G02*
X13725000Y-8563000I50000J0D01*
G01*
X13725000Y-8817000D02*
G75*
G02*
X13625000Y-8817000I-50000J0D01*
G01*
X13625000Y-8817000D02*
G75*
G02*
X13725000Y-8817000I50000J0D01*
G01*
X13725000Y-9071000D02*
G75*
G02*
X13625000Y-9071000I-50000J0D01*
G01*
X13625000Y-9071000D02*
G75*
G02*
X13725000Y-9071000I50000J0D01*
G01*
X13725000Y-9325000D02*
G75*
G02*
X13625000Y-9325000I-50000J0D01*
G01*
X13625000Y-9325000D02*
G75*
G02*
X13725000Y-9325000I50000J0D01*
G01*
D11*
X12233277Y-9813984D02*
X12233277Y-9613984D01*
X12233277Y-9613984D02*
X12280896Y-9613984D01*
X12280896Y-9613984D02*
X12309467Y-9623508D01*
X12309467Y-9623508D02*
X12328515Y-9642555D01*
X12328515Y-9642555D02*
X12338039Y-9661603D01*
X12338039Y-9661603D02*
X12347562Y-9699698D01*
X12347562Y-9699698D02*
X12347562Y-9728270D01*
X12347562Y-9728270D02*
X12338039Y-9766365D01*
X12338039Y-9766365D02*
X12328515Y-9785412D01*
X12328515Y-9785412D02*
X12309467Y-9804460D01*
X12309467Y-9804460D02*
X12280896Y-9813984D01*
X12280896Y-9813984D02*
X12233277Y-9813984D01*
X12433277Y-9813984D02*
X12433277Y-9680650D01*
X12433277Y-9718746D02*
X12442801Y-9699698D01*
X12442801Y-9699698D02*
X12452324Y-9690174D01*
X12452324Y-9690174D02*
X12471372Y-9680650D01*
X12471372Y-9680650D02*
X12490420Y-9680650D01*
X12557086Y-9813984D02*
X12557086Y-9680650D01*
X12557086Y-9613984D02*
X12547562Y-9623508D01*
X12547562Y-9623508D02*
X12557086Y-9633031D01*
X12557086Y-9633031D02*
X12566610Y-9623508D01*
X12566610Y-9623508D02*
X12557086Y-9613984D01*
X12557086Y-9613984D02*
X12557086Y-9633031D01*
X12680896Y-9813984D02*
X12661848Y-9804460D01*
X12661848Y-9804460D02*
X12652324Y-9785412D01*
X12652324Y-9785412D02*
X12652324Y-9613984D01*
X12785658Y-9813984D02*
X12766610Y-9804460D01*
X12766610Y-9804460D02*
X12757086Y-9785412D01*
X12757086Y-9785412D02*
X12757086Y-9613984D01*
X13014229Y-9813984D02*
X13014229Y-9613984D01*
X13014229Y-9613984D02*
X13080896Y-9756841D01*
X13080896Y-9756841D02*
X13147562Y-9613984D01*
X13147562Y-9613984D02*
X13147562Y-9813984D01*
X13328515Y-9813984D02*
X13328515Y-9709222D01*
X13328515Y-9709222D02*
X13318991Y-9690174D01*
X13318991Y-9690174D02*
X13299943Y-9680650D01*
X13299943Y-9680650D02*
X13261848Y-9680650D01*
X13261848Y-9680650D02*
X13242801Y-9690174D01*
X13328515Y-9804460D02*
X13309467Y-9813984D01*
X13309467Y-9813984D02*
X13261848Y-9813984D01*
X13261848Y-9813984D02*
X13242801Y-9804460D01*
X13242801Y-9804460D02*
X13233277Y-9785412D01*
X13233277Y-9785412D02*
X13233277Y-9766365D01*
X13233277Y-9766365D02*
X13242801Y-9747317D01*
X13242801Y-9747317D02*
X13261848Y-9737793D01*
X13261848Y-9737793D02*
X13309467Y-9737793D01*
X13309467Y-9737793D02*
X13328515Y-9728270D01*
X13423753Y-9680650D02*
X13423753Y-9880650D01*
X13423753Y-9690174D02*
X13442801Y-9680650D01*
X13442801Y-9680650D02*
X13480896Y-9680650D01*
X13480896Y-9680650D02*
X13499943Y-9690174D01*
X13499943Y-9690174D02*
X13509467Y-9699698D01*
X13509467Y-9699698D02*
X13518991Y-9718746D01*
X13518991Y-9718746D02*
X13518991Y-9775889D01*
X13518991Y-9775889D02*
X13509467Y-9794936D01*
X13509467Y-9794936D02*
X13499943Y-9804460D01*
X13499943Y-9804460D02*
X13480896Y-9813984D01*
X13480896Y-9813984D02*
X13442801Y-9813984D01*
X13442801Y-9813984D02*
X13423753Y-9804460D01*
X13604705Y-9794936D02*
X13614229Y-9804460D01*
X13614229Y-9804460D02*
X13604705Y-9813984D01*
X13604705Y-9813984D02*
X13595182Y-9804460D01*
X13595182Y-9804460D02*
X13604705Y-9794936D01*
X13604705Y-9794936D02*
X13604705Y-9813984D01*
X13604705Y-9690174D02*
X13614229Y-9699698D01*
X13614229Y-9699698D02*
X13604705Y-9709222D01*
X13604705Y-9709222D02*
X13595182Y-9699698D01*
X13595182Y-9699698D02*
X13604705Y-9690174D01*
X13604705Y-9690174D02*
X13604705Y-9709222D01*
D12*
X11942500Y-10127500D02*
X11972500Y-10157500D01*
X11972500Y-10127500D02*
X11942500Y-10157500D01*
D11*
X12271372Y-10033984D02*
X12290420Y-10033984D01*
X12290420Y-10033984D02*
X12309467Y-10043508D01*
X12309467Y-10043508D02*
X12318991Y-10053031D01*
X12318991Y-10053031D02*
X12328515Y-10072079D01*
X12328515Y-10072079D02*
X12338039Y-10110174D01*
X12338039Y-10110174D02*
X12338039Y-10157793D01*
X12338039Y-10157793D02*
X12328515Y-10195889D01*
X12328515Y-10195889D02*
X12318991Y-10214936D01*
X12318991Y-10214936D02*
X12309467Y-10224460D01*
X12309467Y-10224460D02*
X12290420Y-10233984D01*
X12290420Y-10233984D02*
X12271372Y-10233984D01*
X12271372Y-10233984D02*
X12252324Y-10224460D01*
X12252324Y-10224460D02*
X12242801Y-10214936D01*
X12242801Y-10214936D02*
X12233277Y-10195889D01*
X12233277Y-10195889D02*
X12223753Y-10157793D01*
X12223753Y-10157793D02*
X12223753Y-10110174D01*
X12223753Y-10110174D02*
X12233277Y-10072079D01*
X12233277Y-10072079D02*
X12242801Y-10053031D01*
X12242801Y-10053031D02*
X12252324Y-10043508D01*
X12252324Y-10043508D02*
X12271372Y-10033984D01*
X12423753Y-10214936D02*
X12433277Y-10224460D01*
X12433277Y-10224460D02*
X12423753Y-10233984D01*
X12423753Y-10233984D02*
X12414229Y-10224460D01*
X12414229Y-10224460D02*
X12423753Y-10214936D01*
X12423753Y-10214936D02*
X12423753Y-10233984D01*
X12499943Y-10033984D02*
X12623753Y-10033984D01*
X12623753Y-10033984D02*
X12557086Y-10110174D01*
X12557086Y-10110174D02*
X12585658Y-10110174D01*
X12585658Y-10110174D02*
X12604705Y-10119698D01*
X12604705Y-10119698D02*
X12614229Y-10129222D01*
X12614229Y-10129222D02*
X12623753Y-10148270D01*
X12623753Y-10148270D02*
X12623753Y-10195889D01*
X12623753Y-10195889D02*
X12614229Y-10214936D01*
X12614229Y-10214936D02*
X12604705Y-10224460D01*
X12604705Y-10224460D02*
X12585658Y-10233984D01*
X12585658Y-10233984D02*
X12528515Y-10233984D01*
X12528515Y-10233984D02*
X12509467Y-10224460D01*
X12509467Y-10224460D02*
X12499943Y-10214936D01*
X12747562Y-10033984D02*
X12766610Y-10033984D01*
X12766610Y-10033984D02*
X12785658Y-10043508D01*
X12785658Y-10043508D02*
X12795182Y-10053031D01*
X12795182Y-10053031D02*
X12804705Y-10072079D01*
X12804705Y-10072079D02*
X12814229Y-10110174D01*
X12814229Y-10110174D02*
X12814229Y-10157793D01*
X12814229Y-10157793D02*
X12804705Y-10195889D01*
X12804705Y-10195889D02*
X12795182Y-10214936D01*
X12795182Y-10214936D02*
X12785658Y-10224460D01*
X12785658Y-10224460D02*
X12766610Y-10233984D01*
X12766610Y-10233984D02*
X12747562Y-10233984D01*
X12747562Y-10233984D02*
X12728515Y-10224460D01*
X12728515Y-10224460D02*
X12718991Y-10214936D01*
X12718991Y-10214936D02*
X12709467Y-10195889D01*
X12709467Y-10195889D02*
X12699943Y-10157793D01*
X12699943Y-10157793D02*
X12699943Y-10110174D01*
X12699943Y-10110174D02*
X12709467Y-10072079D01*
X12709467Y-10072079D02*
X12718991Y-10053031D01*
X12718991Y-10053031D02*
X12728515Y-10043508D01*
X12728515Y-10043508D02*
X12747562Y-10033984D01*
X12938039Y-10033984D02*
X12957086Y-10033984D01*
X12957086Y-10033984D02*
X12976134Y-10043508D01*
X12976134Y-10043508D02*
X12985658Y-10053031D01*
X12985658Y-10053031D02*
X12995182Y-10072079D01*
X12995182Y-10072079D02*
X13004705Y-10110174D01*
X13004705Y-10110174D02*
X13004705Y-10157793D01*
X13004705Y-10157793D02*
X12995182Y-10195889D01*
X12995182Y-10195889D02*
X12985658Y-10214936D01*
X12985658Y-10214936D02*
X12976134Y-10224460D01*
X12976134Y-10224460D02*
X12957086Y-10233984D01*
X12957086Y-10233984D02*
X12938039Y-10233984D01*
X12938039Y-10233984D02*
X12918991Y-10224460D01*
X12918991Y-10224460D02*
X12909467Y-10214936D01*
X12909467Y-10214936D02*
X12899943Y-10195889D01*
X12899943Y-10195889D02*
X12890420Y-10157793D01*
X12890420Y-10157793D02*
X12890420Y-10110174D01*
X12890420Y-10110174D02*
X12899943Y-10072079D01*
X12899943Y-10072079D02*
X12909467Y-10053031D01*
X12909467Y-10053031D02*
X12918991Y-10043508D01*
X12918991Y-10043508D02*
X12938039Y-10033984D01*
X13090420Y-10233984D02*
X13090420Y-10100650D01*
X13090420Y-10119698D02*
X13099943Y-10110174D01*
X13099943Y-10110174D02*
X13118991Y-10100650D01*
X13118991Y-10100650D02*
X13147563Y-10100650D01*
X13147563Y-10100650D02*
X13166610Y-10110174D01*
X13166610Y-10110174D02*
X13176134Y-10129222D01*
X13176134Y-10129222D02*
X13176134Y-10233984D01*
X13176134Y-10129222D02*
X13185658Y-10110174D01*
X13185658Y-10110174D02*
X13204705Y-10100650D01*
X13204705Y-10100650D02*
X13233277Y-10100650D01*
X13233277Y-10100650D02*
X13252324Y-10110174D01*
X13252324Y-10110174D02*
X13261848Y-10129222D01*
X13261848Y-10129222D02*
X13261848Y-10233984D01*
X13357086Y-10233984D02*
X13357086Y-10100650D01*
X13357086Y-10119698D02*
X13366610Y-10110174D01*
X13366610Y-10110174D02*
X13385658Y-10100650D01*
X13385658Y-10100650D02*
X13414229Y-10100650D01*
X13414229Y-10100650D02*
X13433277Y-10110174D01*
X13433277Y-10110174D02*
X13442801Y-10129222D01*
X13442801Y-10129222D02*
X13442801Y-10233984D01*
X13442801Y-10129222D02*
X13452324Y-10110174D01*
X13452324Y-10110174D02*
X13471372Y-10100650D01*
X13471372Y-10100650D02*
X13499943Y-10100650D01*
X13499943Y-10100650D02*
X13518991Y-10110174D01*
X13518991Y-10110174D02*
X13528515Y-10129222D01*
X13528515Y-10129222D02*
X13528515Y-10233984D01*
X13918991Y-10024460D02*
X13747563Y-10281603D01*
X14176134Y-10033984D02*
X14195182Y-10033984D01*
X14195182Y-10033984D02*
X14214229Y-10043508D01*
X14214229Y-10043508D02*
X14223753Y-10053031D01*
X14223753Y-10053031D02*
X14233277Y-10072079D01*
X14233277Y-10072079D02*
X14242801Y-10110174D01*
X14242801Y-10110174D02*
X14242801Y-10157793D01*
X14242801Y-10157793D02*
X14233277Y-10195889D01*
X14233277Y-10195889D02*
X14223753Y-10214936D01*
X14223753Y-10214936D02*
X14214229Y-10224460D01*
X14214229Y-10224460D02*
X14195182Y-10233984D01*
X14195182Y-10233984D02*
X14176134Y-10233984D01*
X14176134Y-10233984D02*
X14157086Y-10224460D01*
X14157086Y-10224460D02*
X14147563Y-10214936D01*
X14147563Y-10214936D02*
X14138039Y-10195889D01*
X14138039Y-10195889D02*
X14128515Y-10157793D01*
X14128515Y-10157793D02*
X14128515Y-10110174D01*
X14128515Y-10110174D02*
X14138039Y-10072079D01*
X14138039Y-10072079D02*
X14147563Y-10053031D01*
X14147563Y-10053031D02*
X14157086Y-10043508D01*
X14157086Y-10043508D02*
X14176134Y-10033984D01*
X14328515Y-10214936D02*
X14338039Y-10224460D01*
X14338039Y-10224460D02*
X14328515Y-10233984D01*
X14328515Y-10233984D02*
X14318991Y-10224460D01*
X14318991Y-10224460D02*
X14328515Y-10214936D01*
X14328515Y-10214936D02*
X14328515Y-10233984D01*
X14461848Y-10033984D02*
X14480896Y-10033984D01*
X14480896Y-10033984D02*
X14499944Y-10043508D01*
X14499944Y-10043508D02*
X14509467Y-10053031D01*
X14509467Y-10053031D02*
X14518991Y-10072079D01*
X14518991Y-10072079D02*
X14528515Y-10110174D01*
X14528515Y-10110174D02*
X14528515Y-10157793D01*
X14528515Y-10157793D02*
X14518991Y-10195889D01*
X14518991Y-10195889D02*
X14509467Y-10214936D01*
X14509467Y-10214936D02*
X14499944Y-10224460D01*
X14499944Y-10224460D02*
X14480896Y-10233984D01*
X14480896Y-10233984D02*
X14461848Y-10233984D01*
X14461848Y-10233984D02*
X14442801Y-10224460D01*
X14442801Y-10224460D02*
X14433277Y-10214936D01*
X14433277Y-10214936D02*
X14423753Y-10195889D01*
X14423753Y-10195889D02*
X14414229Y-10157793D01*
X14414229Y-10157793D02*
X14414229Y-10110174D01*
X14414229Y-10110174D02*
X14423753Y-10072079D01*
X14423753Y-10072079D02*
X14433277Y-10053031D01*
X14433277Y-10053031D02*
X14442801Y-10043508D01*
X14442801Y-10043508D02*
X14461848Y-10033984D01*
X14718991Y-10233984D02*
X14604706Y-10233984D01*
X14661848Y-10233984D02*
X14661848Y-10033984D01*
X14661848Y-10033984D02*
X14642801Y-10062555D01*
X14642801Y-10062555D02*
X14623753Y-10081603D01*
X14623753Y-10081603D02*
X14604706Y-10091127D01*
X14909467Y-10233984D02*
X14795182Y-10233984D01*
X14852325Y-10233984D02*
X14852325Y-10033984D01*
X14852325Y-10033984D02*
X14833277Y-10062555D01*
X14833277Y-10062555D02*
X14814229Y-10081603D01*
X14814229Y-10081603D02*
X14795182Y-10091127D01*
X15023753Y-10119698D02*
X15004706Y-10110174D01*
X15004706Y-10110174D02*
X14995182Y-10100650D01*
X14995182Y-10100650D02*
X14985658Y-10081603D01*
X14985658Y-10081603D02*
X14985658Y-10072079D01*
X14985658Y-10072079D02*
X14995182Y-10053031D01*
X14995182Y-10053031D02*
X15004706Y-10043508D01*
X15004706Y-10043508D02*
X15023753Y-10033984D01*
X15023753Y-10033984D02*
X15061848Y-10033984D01*
X15061848Y-10033984D02*
X15080896Y-10043508D01*
X15080896Y-10043508D02*
X15090420Y-10053031D01*
X15090420Y-10053031D02*
X15099944Y-10072079D01*
X15099944Y-10072079D02*
X15099944Y-10081603D01*
X15099944Y-10081603D02*
X15090420Y-10100650D01*
X15090420Y-10100650D02*
X15080896Y-10110174D01*
X15080896Y-10110174D02*
X15061848Y-10119698D01*
X15061848Y-10119698D02*
X15023753Y-10119698D01*
X15023753Y-10119698D02*
X15004706Y-10129222D01*
X15004706Y-10129222D02*
X14995182Y-10138746D01*
X14995182Y-10138746D02*
X14985658Y-10157793D01*
X14985658Y-10157793D02*
X14985658Y-10195889D01*
X14985658Y-10195889D02*
X14995182Y-10214936D01*
X14995182Y-10214936D02*
X15004706Y-10224460D01*
X15004706Y-10224460D02*
X15023753Y-10233984D01*
X15023753Y-10233984D02*
X15061848Y-10233984D01*
X15061848Y-10233984D02*
X15080896Y-10224460D01*
X15080896Y-10224460D02*
X15090420Y-10214936D01*
X15090420Y-10214936D02*
X15099944Y-10195889D01*
X15099944Y-10195889D02*
X15099944Y-10157793D01*
X15099944Y-10157793D02*
X15090420Y-10138746D01*
X15090420Y-10138746D02*
X15080896Y-10129222D01*
X15080896Y-10129222D02*
X15061848Y-10119698D01*
X15176134Y-10033984D02*
X15176134Y-10072079D01*
X15252325Y-10033984D02*
X15252325Y-10072079D01*
X15547563Y-10310174D02*
X15538039Y-10300650D01*
X15538039Y-10300650D02*
X15518991Y-10272079D01*
X15518991Y-10272079D02*
X15509468Y-10253031D01*
X15509468Y-10253031D02*
X15499944Y-10224460D01*
X15499944Y-10224460D02*
X15490420Y-10176841D01*
X15490420Y-10176841D02*
X15490420Y-10138746D01*
X15490420Y-10138746D02*
X15499944Y-10091127D01*
X15499944Y-10091127D02*
X15509468Y-10062555D01*
X15509468Y-10062555D02*
X15518991Y-10043508D01*
X15518991Y-10043508D02*
X15538039Y-10014936D01*
X15538039Y-10014936D02*
X15547563Y-10005412D01*
X15728515Y-10233984D02*
X15614229Y-10233984D01*
X15671372Y-10233984D02*
X15671372Y-10033984D01*
X15671372Y-10033984D02*
X15652325Y-10062555D01*
X15652325Y-10062555D02*
X15633277Y-10081603D01*
X15633277Y-10081603D02*
X15614229Y-10091127D01*
X15795182Y-10033984D02*
X15918991Y-10033984D01*
X15918991Y-10033984D02*
X15852325Y-10110174D01*
X15852325Y-10110174D02*
X15880896Y-10110174D01*
X15880896Y-10110174D02*
X15899944Y-10119698D01*
X15899944Y-10119698D02*
X15909468Y-10129222D01*
X15909468Y-10129222D02*
X15918991Y-10148270D01*
X15918991Y-10148270D02*
X15918991Y-10195889D01*
X15918991Y-10195889D02*
X15909468Y-10214936D01*
X15909468Y-10214936D02*
X15899944Y-10224460D01*
X15899944Y-10224460D02*
X15880896Y-10233984D01*
X15880896Y-10233984D02*
X15823753Y-10233984D01*
X15823753Y-10233984D02*
X15804706Y-10224460D01*
X15804706Y-10224460D02*
X15795182Y-10214936D01*
X16157087Y-10233984D02*
X16157087Y-10033984D01*
X16242801Y-10233984D02*
X16242801Y-10129222D01*
X16242801Y-10129222D02*
X16233277Y-10110174D01*
X16233277Y-10110174D02*
X16214230Y-10100650D01*
X16214230Y-10100650D02*
X16185658Y-10100650D01*
X16185658Y-10100650D02*
X16166610Y-10110174D01*
X16166610Y-10110174D02*
X16157087Y-10119698D01*
X16366610Y-10233984D02*
X16347563Y-10224460D01*
X16347563Y-10224460D02*
X16338039Y-10214936D01*
X16338039Y-10214936D02*
X16328515Y-10195889D01*
X16328515Y-10195889D02*
X16328515Y-10138746D01*
X16328515Y-10138746D02*
X16338039Y-10119698D01*
X16338039Y-10119698D02*
X16347563Y-10110174D01*
X16347563Y-10110174D02*
X16366610Y-10100650D01*
X16366610Y-10100650D02*
X16395182Y-10100650D01*
X16395182Y-10100650D02*
X16414230Y-10110174D01*
X16414230Y-10110174D02*
X16423753Y-10119698D01*
X16423753Y-10119698D02*
X16433277Y-10138746D01*
X16433277Y-10138746D02*
X16433277Y-10195889D01*
X16433277Y-10195889D02*
X16423753Y-10214936D01*
X16423753Y-10214936D02*
X16414230Y-10224460D01*
X16414230Y-10224460D02*
X16395182Y-10233984D01*
X16395182Y-10233984D02*
X16366610Y-10233984D01*
X16547563Y-10233984D02*
X16528515Y-10224460D01*
X16528515Y-10224460D02*
X16518991Y-10205412D01*
X16518991Y-10205412D02*
X16518991Y-10033984D01*
X16699944Y-10224460D02*
X16680896Y-10233984D01*
X16680896Y-10233984D02*
X16642801Y-10233984D01*
X16642801Y-10233984D02*
X16623753Y-10224460D01*
X16623753Y-10224460D02*
X16614230Y-10205412D01*
X16614230Y-10205412D02*
X16614230Y-10129222D01*
X16614230Y-10129222D02*
X16623753Y-10110174D01*
X16623753Y-10110174D02*
X16642801Y-10100650D01*
X16642801Y-10100650D02*
X16680896Y-10100650D01*
X16680896Y-10100650D02*
X16699944Y-10110174D01*
X16699944Y-10110174D02*
X16709468Y-10129222D01*
X16709468Y-10129222D02*
X16709468Y-10148270D01*
X16709468Y-10148270D02*
X16614230Y-10167317D01*
X16785658Y-10224460D02*
X16804706Y-10233984D01*
X16804706Y-10233984D02*
X16842801Y-10233984D01*
X16842801Y-10233984D02*
X16861849Y-10224460D01*
X16861849Y-10224460D02*
X16871373Y-10205412D01*
X16871373Y-10205412D02*
X16871373Y-10195889D01*
X16871373Y-10195889D02*
X16861849Y-10176841D01*
X16861849Y-10176841D02*
X16842801Y-10167317D01*
X16842801Y-10167317D02*
X16814230Y-10167317D01*
X16814230Y-10167317D02*
X16795182Y-10157793D01*
X16795182Y-10157793D02*
X16785658Y-10138746D01*
X16785658Y-10138746D02*
X16785658Y-10129222D01*
X16785658Y-10129222D02*
X16795182Y-10110174D01*
X16795182Y-10110174D02*
X16814230Y-10100650D01*
X16814230Y-10100650D02*
X16842801Y-10100650D01*
X16842801Y-10100650D02*
X16861849Y-10110174D01*
X16938039Y-10310174D02*
X16947563Y-10300650D01*
X16947563Y-10300650D02*
X16966611Y-10272079D01*
X16966611Y-10272079D02*
X16976134Y-10253031D01*
X16976134Y-10253031D02*
X16985658Y-10224460D01*
X16985658Y-10224460D02*
X16995182Y-10176841D01*
X16995182Y-10176841D02*
X16995182Y-10138746D01*
X16995182Y-10138746D02*
X16985658Y-10091127D01*
X16985658Y-10091127D02*
X16976134Y-10062555D01*
X16976134Y-10062555D02*
X16966611Y-10043508D01*
X16966611Y-10043508D02*
X16947563Y-10014936D01*
X16947563Y-10014936D02*
X16938039Y-10005412D01*
D12*
X11972500Y-10406500D02*
G75*
G02*
X11872500Y-10406500I-50000J0D01*
G01*
X11872500Y-10406500D02*
G75*
G02*
X11972500Y-10406500I50000J0D01*
G01*
D11*
X12338039Y-10497984D02*
X12223753Y-10497984D01*
X12280896Y-10497984D02*
X12280896Y-10297984D01*
X12280896Y-10297984D02*
X12261848Y-10326555D01*
X12261848Y-10326555D02*
X12242801Y-10345603D01*
X12242801Y-10345603D02*
X12223753Y-10355127D01*
X12423753Y-10478936D02*
X12433277Y-10488460D01*
X12433277Y-10488460D02*
X12423753Y-10497984D01*
X12423753Y-10497984D02*
X12414229Y-10488460D01*
X12414229Y-10488460D02*
X12423753Y-10478936D01*
X12423753Y-10478936D02*
X12423753Y-10497984D01*
X12557086Y-10297984D02*
X12576134Y-10297984D01*
X12576134Y-10297984D02*
X12595182Y-10307508D01*
X12595182Y-10307508D02*
X12604705Y-10317031D01*
X12604705Y-10317031D02*
X12614229Y-10336079D01*
X12614229Y-10336079D02*
X12623753Y-10374174D01*
X12623753Y-10374174D02*
X12623753Y-10421793D01*
X12623753Y-10421793D02*
X12614229Y-10459889D01*
X12614229Y-10459889D02*
X12604705Y-10478936D01*
X12604705Y-10478936D02*
X12595182Y-10488460D01*
X12595182Y-10488460D02*
X12576134Y-10497984D01*
X12576134Y-10497984D02*
X12557086Y-10497984D01*
X12557086Y-10497984D02*
X12538039Y-10488460D01*
X12538039Y-10488460D02*
X12528515Y-10478936D01*
X12528515Y-10478936D02*
X12518991Y-10459889D01*
X12518991Y-10459889D02*
X12509467Y-10421793D01*
X12509467Y-10421793D02*
X12509467Y-10374174D01*
X12509467Y-10374174D02*
X12518991Y-10336079D01*
X12518991Y-10336079D02*
X12528515Y-10317031D01*
X12528515Y-10317031D02*
X12538039Y-10307508D01*
X12538039Y-10307508D02*
X12557086Y-10297984D01*
X12747562Y-10297984D02*
X12766610Y-10297984D01*
X12766610Y-10297984D02*
X12785658Y-10307508D01*
X12785658Y-10307508D02*
X12795182Y-10317031D01*
X12795182Y-10317031D02*
X12804705Y-10336079D01*
X12804705Y-10336079D02*
X12814229Y-10374174D01*
X12814229Y-10374174D02*
X12814229Y-10421793D01*
X12814229Y-10421793D02*
X12804705Y-10459889D01*
X12804705Y-10459889D02*
X12795182Y-10478936D01*
X12795182Y-10478936D02*
X12785658Y-10488460D01*
X12785658Y-10488460D02*
X12766610Y-10497984D01*
X12766610Y-10497984D02*
X12747562Y-10497984D01*
X12747562Y-10497984D02*
X12728515Y-10488460D01*
X12728515Y-10488460D02*
X12718991Y-10478936D01*
X12718991Y-10478936D02*
X12709467Y-10459889D01*
X12709467Y-10459889D02*
X12699943Y-10421793D01*
X12699943Y-10421793D02*
X12699943Y-10374174D01*
X12699943Y-10374174D02*
X12709467Y-10336079D01*
X12709467Y-10336079D02*
X12718991Y-10317031D01*
X12718991Y-10317031D02*
X12728515Y-10307508D01*
X12728515Y-10307508D02*
X12747562Y-10297984D01*
X12938039Y-10297984D02*
X12957086Y-10297984D01*
X12957086Y-10297984D02*
X12976134Y-10307508D01*
X12976134Y-10307508D02*
X12985658Y-10317031D01*
X12985658Y-10317031D02*
X12995182Y-10336079D01*
X12995182Y-10336079D02*
X13004705Y-10374174D01*
X13004705Y-10374174D02*
X13004705Y-10421793D01*
X13004705Y-10421793D02*
X12995182Y-10459889D01*
X12995182Y-10459889D02*
X12985658Y-10478936D01*
X12985658Y-10478936D02*
X12976134Y-10488460D01*
X12976134Y-10488460D02*
X12957086Y-10497984D01*
X12957086Y-10497984D02*
X12938039Y-10497984D01*
X12938039Y-10497984D02*
X12918991Y-10488460D01*
X12918991Y-10488460D02*
X12909467Y-10478936D01*
X12909467Y-10478936D02*
X12899943Y-10459889D01*
X12899943Y-10459889D02*
X12890420Y-10421793D01*
X12890420Y-10421793D02*
X12890420Y-10374174D01*
X12890420Y-10374174D02*
X12899943Y-10336079D01*
X12899943Y-10336079D02*
X12909467Y-10317031D01*
X12909467Y-10317031D02*
X12918991Y-10307508D01*
X12918991Y-10307508D02*
X12938039Y-10297984D01*
X13090420Y-10497984D02*
X13090420Y-10364650D01*
X13090420Y-10383698D02*
X13099943Y-10374174D01*
X13099943Y-10374174D02*
X13118991Y-10364650D01*
X13118991Y-10364650D02*
X13147563Y-10364650D01*
X13147563Y-10364650D02*
X13166610Y-10374174D01*
X13166610Y-10374174D02*
X13176134Y-10393222D01*
X13176134Y-10393222D02*
X13176134Y-10497984D01*
X13176134Y-10393222D02*
X13185658Y-10374174D01*
X13185658Y-10374174D02*
X13204705Y-10364650D01*
X13204705Y-10364650D02*
X13233277Y-10364650D01*
X13233277Y-10364650D02*
X13252324Y-10374174D01*
X13252324Y-10374174D02*
X13261848Y-10393222D01*
X13261848Y-10393222D02*
X13261848Y-10497984D01*
X13357086Y-10497984D02*
X13357086Y-10364650D01*
X13357086Y-10383698D02*
X13366610Y-10374174D01*
X13366610Y-10374174D02*
X13385658Y-10364650D01*
X13385658Y-10364650D02*
X13414229Y-10364650D01*
X13414229Y-10364650D02*
X13433277Y-10374174D01*
X13433277Y-10374174D02*
X13442801Y-10393222D01*
X13442801Y-10393222D02*
X13442801Y-10497984D01*
X13442801Y-10393222D02*
X13452324Y-10374174D01*
X13452324Y-10374174D02*
X13471372Y-10364650D01*
X13471372Y-10364650D02*
X13499943Y-10364650D01*
X13499943Y-10364650D02*
X13518991Y-10374174D01*
X13518991Y-10374174D02*
X13528515Y-10393222D01*
X13528515Y-10393222D02*
X13528515Y-10497984D01*
X13918991Y-10288460D02*
X13747563Y-10545603D01*
X14176134Y-10297984D02*
X14195182Y-10297984D01*
X14195182Y-10297984D02*
X14214229Y-10307508D01*
X14214229Y-10307508D02*
X14223753Y-10317031D01*
X14223753Y-10317031D02*
X14233277Y-10336079D01*
X14233277Y-10336079D02*
X14242801Y-10374174D01*
X14242801Y-10374174D02*
X14242801Y-10421793D01*
X14242801Y-10421793D02*
X14233277Y-10459889D01*
X14233277Y-10459889D02*
X14223753Y-10478936D01*
X14223753Y-10478936D02*
X14214229Y-10488460D01*
X14214229Y-10488460D02*
X14195182Y-10497984D01*
X14195182Y-10497984D02*
X14176134Y-10497984D01*
X14176134Y-10497984D02*
X14157086Y-10488460D01*
X14157086Y-10488460D02*
X14147563Y-10478936D01*
X14147563Y-10478936D02*
X14138039Y-10459889D01*
X14138039Y-10459889D02*
X14128515Y-10421793D01*
X14128515Y-10421793D02*
X14128515Y-10374174D01*
X14128515Y-10374174D02*
X14138039Y-10336079D01*
X14138039Y-10336079D02*
X14147563Y-10317031D01*
X14147563Y-10317031D02*
X14157086Y-10307508D01*
X14157086Y-10307508D02*
X14176134Y-10297984D01*
X14328515Y-10478936D02*
X14338039Y-10488460D01*
X14338039Y-10488460D02*
X14328515Y-10497984D01*
X14328515Y-10497984D02*
X14318991Y-10488460D01*
X14318991Y-10488460D02*
X14328515Y-10478936D01*
X14328515Y-10478936D02*
X14328515Y-10497984D01*
X14461848Y-10297984D02*
X14480896Y-10297984D01*
X14480896Y-10297984D02*
X14499944Y-10307508D01*
X14499944Y-10307508D02*
X14509467Y-10317031D01*
X14509467Y-10317031D02*
X14518991Y-10336079D01*
X14518991Y-10336079D02*
X14528515Y-10374174D01*
X14528515Y-10374174D02*
X14528515Y-10421793D01*
X14528515Y-10421793D02*
X14518991Y-10459889D01*
X14518991Y-10459889D02*
X14509467Y-10478936D01*
X14509467Y-10478936D02*
X14499944Y-10488460D01*
X14499944Y-10488460D02*
X14480896Y-10497984D01*
X14480896Y-10497984D02*
X14461848Y-10497984D01*
X14461848Y-10497984D02*
X14442801Y-10488460D01*
X14442801Y-10488460D02*
X14433277Y-10478936D01*
X14433277Y-10478936D02*
X14423753Y-10459889D01*
X14423753Y-10459889D02*
X14414229Y-10421793D01*
X14414229Y-10421793D02*
X14414229Y-10374174D01*
X14414229Y-10374174D02*
X14423753Y-10336079D01*
X14423753Y-10336079D02*
X14433277Y-10317031D01*
X14433277Y-10317031D02*
X14442801Y-10307508D01*
X14442801Y-10307508D02*
X14461848Y-10297984D01*
X14595182Y-10297984D02*
X14718991Y-10297984D01*
X14718991Y-10297984D02*
X14652325Y-10374174D01*
X14652325Y-10374174D02*
X14680896Y-10374174D01*
X14680896Y-10374174D02*
X14699944Y-10383698D01*
X14699944Y-10383698D02*
X14709467Y-10393222D01*
X14709467Y-10393222D02*
X14718991Y-10412270D01*
X14718991Y-10412270D02*
X14718991Y-10459889D01*
X14718991Y-10459889D02*
X14709467Y-10478936D01*
X14709467Y-10478936D02*
X14699944Y-10488460D01*
X14699944Y-10488460D02*
X14680896Y-10497984D01*
X14680896Y-10497984D02*
X14623753Y-10497984D01*
X14623753Y-10497984D02*
X14604706Y-10488460D01*
X14604706Y-10488460D02*
X14595182Y-10478936D01*
X14814229Y-10497984D02*
X14852325Y-10497984D01*
X14852325Y-10497984D02*
X14871372Y-10488460D01*
X14871372Y-10488460D02*
X14880896Y-10478936D01*
X14880896Y-10478936D02*
X14899944Y-10450365D01*
X14899944Y-10450365D02*
X14909467Y-10412270D01*
X14909467Y-10412270D02*
X14909467Y-10336079D01*
X14909467Y-10336079D02*
X14899944Y-10317031D01*
X14899944Y-10317031D02*
X14890420Y-10307508D01*
X14890420Y-10307508D02*
X14871372Y-10297984D01*
X14871372Y-10297984D02*
X14833277Y-10297984D01*
X14833277Y-10297984D02*
X14814229Y-10307508D01*
X14814229Y-10307508D02*
X14804706Y-10317031D01*
X14804706Y-10317031D02*
X14795182Y-10336079D01*
X14795182Y-10336079D02*
X14795182Y-10383698D01*
X14795182Y-10383698D02*
X14804706Y-10402746D01*
X14804706Y-10402746D02*
X14814229Y-10412270D01*
X14814229Y-10412270D02*
X14833277Y-10421793D01*
X14833277Y-10421793D02*
X14871372Y-10421793D01*
X14871372Y-10421793D02*
X14890420Y-10412270D01*
X14890420Y-10412270D02*
X14899944Y-10402746D01*
X14899944Y-10402746D02*
X14909467Y-10383698D01*
X15080896Y-10364650D02*
X15080896Y-10497984D01*
X15033277Y-10288460D02*
X14985658Y-10431317D01*
X14985658Y-10431317D02*
X15109467Y-10431317D01*
X15176134Y-10297984D02*
X15176134Y-10336079D01*
X15252325Y-10297984D02*
X15252325Y-10336079D01*
X15547563Y-10574174D02*
X15538039Y-10564650D01*
X15538039Y-10564650D02*
X15518991Y-10536079D01*
X15518991Y-10536079D02*
X15509468Y-10517031D01*
X15509468Y-10517031D02*
X15499944Y-10488460D01*
X15499944Y-10488460D02*
X15490420Y-10440841D01*
X15490420Y-10440841D02*
X15490420Y-10402746D01*
X15490420Y-10402746D02*
X15499944Y-10355127D01*
X15499944Y-10355127D02*
X15509468Y-10326555D01*
X15509468Y-10326555D02*
X15518991Y-10307508D01*
X15518991Y-10307508D02*
X15538039Y-10278936D01*
X15538039Y-10278936D02*
X15547563Y-10269412D01*
X15728515Y-10497984D02*
X15614229Y-10497984D01*
X15671372Y-10497984D02*
X15671372Y-10297984D01*
X15671372Y-10297984D02*
X15652325Y-10326555D01*
X15652325Y-10326555D02*
X15633277Y-10345603D01*
X15633277Y-10345603D02*
X15614229Y-10355127D01*
X15842801Y-10383698D02*
X15823753Y-10374174D01*
X15823753Y-10374174D02*
X15814229Y-10364650D01*
X15814229Y-10364650D02*
X15804706Y-10345603D01*
X15804706Y-10345603D02*
X15804706Y-10336079D01*
X15804706Y-10336079D02*
X15814229Y-10317031D01*
X15814229Y-10317031D02*
X15823753Y-10307508D01*
X15823753Y-10307508D02*
X15842801Y-10297984D01*
X15842801Y-10297984D02*
X15880896Y-10297984D01*
X15880896Y-10297984D02*
X15899944Y-10307508D01*
X15899944Y-10307508D02*
X15909468Y-10317031D01*
X15909468Y-10317031D02*
X15918991Y-10336079D01*
X15918991Y-10336079D02*
X15918991Y-10345603D01*
X15918991Y-10345603D02*
X15909468Y-10364650D01*
X15909468Y-10364650D02*
X15899944Y-10374174D01*
X15899944Y-10374174D02*
X15880896Y-10383698D01*
X15880896Y-10383698D02*
X15842801Y-10383698D01*
X15842801Y-10383698D02*
X15823753Y-10393222D01*
X15823753Y-10393222D02*
X15814229Y-10402746D01*
X15814229Y-10402746D02*
X15804706Y-10421793D01*
X15804706Y-10421793D02*
X15804706Y-10459889D01*
X15804706Y-10459889D02*
X15814229Y-10478936D01*
X15814229Y-10478936D02*
X15823753Y-10488460D01*
X15823753Y-10488460D02*
X15842801Y-10497984D01*
X15842801Y-10497984D02*
X15880896Y-10497984D01*
X15880896Y-10497984D02*
X15899944Y-10488460D01*
X15899944Y-10488460D02*
X15909468Y-10478936D01*
X15909468Y-10478936D02*
X15918991Y-10459889D01*
X15918991Y-10459889D02*
X15918991Y-10421793D01*
X15918991Y-10421793D02*
X15909468Y-10402746D01*
X15909468Y-10402746D02*
X15899944Y-10393222D01*
X15899944Y-10393222D02*
X15880896Y-10383698D01*
X16157087Y-10497984D02*
X16157087Y-10297984D01*
X16242801Y-10497984D02*
X16242801Y-10393222D01*
X16242801Y-10393222D02*
X16233277Y-10374174D01*
X16233277Y-10374174D02*
X16214230Y-10364650D01*
X16214230Y-10364650D02*
X16185658Y-10364650D01*
X16185658Y-10364650D02*
X16166610Y-10374174D01*
X16166610Y-10374174D02*
X16157087Y-10383698D01*
X16366610Y-10497984D02*
X16347563Y-10488460D01*
X16347563Y-10488460D02*
X16338039Y-10478936D01*
X16338039Y-10478936D02*
X16328515Y-10459889D01*
X16328515Y-10459889D02*
X16328515Y-10402746D01*
X16328515Y-10402746D02*
X16338039Y-10383698D01*
X16338039Y-10383698D02*
X16347563Y-10374174D01*
X16347563Y-10374174D02*
X16366610Y-10364650D01*
X16366610Y-10364650D02*
X16395182Y-10364650D01*
X16395182Y-10364650D02*
X16414230Y-10374174D01*
X16414230Y-10374174D02*
X16423753Y-10383698D01*
X16423753Y-10383698D02*
X16433277Y-10402746D01*
X16433277Y-10402746D02*
X16433277Y-10459889D01*
X16433277Y-10459889D02*
X16423753Y-10478936D01*
X16423753Y-10478936D02*
X16414230Y-10488460D01*
X16414230Y-10488460D02*
X16395182Y-10497984D01*
X16395182Y-10497984D02*
X16366610Y-10497984D01*
X16547563Y-10497984D02*
X16528515Y-10488460D01*
X16528515Y-10488460D02*
X16518991Y-10469412D01*
X16518991Y-10469412D02*
X16518991Y-10297984D01*
X16699944Y-10488460D02*
X16680896Y-10497984D01*
X16680896Y-10497984D02*
X16642801Y-10497984D01*
X16642801Y-10497984D02*
X16623753Y-10488460D01*
X16623753Y-10488460D02*
X16614230Y-10469412D01*
X16614230Y-10469412D02*
X16614230Y-10393222D01*
X16614230Y-10393222D02*
X16623753Y-10374174D01*
X16623753Y-10374174D02*
X16642801Y-10364650D01*
X16642801Y-10364650D02*
X16680896Y-10364650D01*
X16680896Y-10364650D02*
X16699944Y-10374174D01*
X16699944Y-10374174D02*
X16709468Y-10393222D01*
X16709468Y-10393222D02*
X16709468Y-10412270D01*
X16709468Y-10412270D02*
X16614230Y-10431317D01*
X16785658Y-10488460D02*
X16804706Y-10497984D01*
X16804706Y-10497984D02*
X16842801Y-10497984D01*
X16842801Y-10497984D02*
X16861849Y-10488460D01*
X16861849Y-10488460D02*
X16871373Y-10469412D01*
X16871373Y-10469412D02*
X16871373Y-10459889D01*
X16871373Y-10459889D02*
X16861849Y-10440841D01*
X16861849Y-10440841D02*
X16842801Y-10431317D01*
X16842801Y-10431317D02*
X16814230Y-10431317D01*
X16814230Y-10431317D02*
X16795182Y-10421793D01*
X16795182Y-10421793D02*
X16785658Y-10402746D01*
X16785658Y-10402746D02*
X16785658Y-10393222D01*
X16785658Y-10393222D02*
X16795182Y-10374174D01*
X16795182Y-10374174D02*
X16814230Y-10364650D01*
X16814230Y-10364650D02*
X16842801Y-10364650D01*
X16842801Y-10364650D02*
X16861849Y-10374174D01*
X16938039Y-10574174D02*
X16947563Y-10564650D01*
X16947563Y-10564650D02*
X16966611Y-10536079D01*
X16966611Y-10536079D02*
X16976134Y-10517031D01*
X16976134Y-10517031D02*
X16985658Y-10488460D01*
X16985658Y-10488460D02*
X16995182Y-10440841D01*
X16995182Y-10440841D02*
X16995182Y-10402746D01*
X16995182Y-10402746D02*
X16985658Y-10355127D01*
X16985658Y-10355127D02*
X16976134Y-10326555D01*
X16976134Y-10326555D02*
X16966611Y-10307508D01*
X16966611Y-10307508D02*
X16947563Y-10278936D01*
X16947563Y-10278936D02*
X16938039Y-10269412D01*
M02*
