%TF.GenerationSoftware,KiCad,Pcbnew,8.0.2-8.0.2-0~ubuntu22.04.1*%
%TF.CreationDate,2024-06-02T15:46:12+09:00*%
%TF.ProjectId,TB6211_ver2,54423632-3131-45f7-9665-72322e6b6963,rev?*%
%TF.SameCoordinates,Original*%
%TF.FileFunction,Drillmap*%
%TF.FilePolarity,Positive*%
%FSLAX45Y45*%
G04 Gerber Fmt 4.5, Leading zero omitted, Abs format (unit mm)*
G04 Created by KiCad (PCBNEW 8.0.2-8.0.2-0~ubuntu22.04.1) date 2024-06-02 15:46:12*
%MOMM*%
%LPD*%
G01*
G04 APERTURE LIST*
%ADD10C,0.050000*%
%ADD11C,0.200000*%
G04 APERTURE END LIST*
D10*
X11975000Y-7100000D02*
X13850000Y-7100000D01*
X13850000Y-9500000D01*
X11975000Y-9500000D01*
X11975000Y-7100000D01*
D11*
X12233277Y-9813984D02*
X12233277Y-9613984D01*
X12233277Y-9613984D02*
X12280896Y-9613984D01*
X12280896Y-9613984D02*
X12309467Y-9623508D01*
X12309467Y-9623508D02*
X12328515Y-9642555D01*
X12328515Y-9642555D02*
X12338039Y-9661603D01*
X12338039Y-9661603D02*
X12347562Y-9699698D01*
X12347562Y-9699698D02*
X12347562Y-9728270D01*
X12347562Y-9728270D02*
X12338039Y-9766365D01*
X12338039Y-9766365D02*
X12328515Y-9785412D01*
X12328515Y-9785412D02*
X12309467Y-9804460D01*
X12309467Y-9804460D02*
X12280896Y-9813984D01*
X12280896Y-9813984D02*
X12233277Y-9813984D01*
X12433277Y-9813984D02*
X12433277Y-9680650D01*
X12433277Y-9718746D02*
X12442801Y-9699698D01*
X12442801Y-9699698D02*
X12452324Y-9690174D01*
X12452324Y-9690174D02*
X12471372Y-9680650D01*
X12471372Y-9680650D02*
X12490420Y-9680650D01*
X12557086Y-9813984D02*
X12557086Y-9680650D01*
X12557086Y-9613984D02*
X12547562Y-9623508D01*
X12547562Y-9623508D02*
X12557086Y-9633031D01*
X12557086Y-9633031D02*
X12566610Y-9623508D01*
X12566610Y-9623508D02*
X12557086Y-9613984D01*
X12557086Y-9613984D02*
X12557086Y-9633031D01*
X12680896Y-9813984D02*
X12661848Y-9804460D01*
X12661848Y-9804460D02*
X12652324Y-9785412D01*
X12652324Y-9785412D02*
X12652324Y-9613984D01*
X12785658Y-9813984D02*
X12766610Y-9804460D01*
X12766610Y-9804460D02*
X12757086Y-9785412D01*
X12757086Y-9785412D02*
X12757086Y-9613984D01*
X13014229Y-9813984D02*
X13014229Y-9613984D01*
X13014229Y-9613984D02*
X13080896Y-9756841D01*
X13080896Y-9756841D02*
X13147562Y-9613984D01*
X13147562Y-9613984D02*
X13147562Y-9813984D01*
X13328515Y-9813984D02*
X13328515Y-9709222D01*
X13328515Y-9709222D02*
X13318991Y-9690174D01*
X13318991Y-9690174D02*
X13299943Y-9680650D01*
X13299943Y-9680650D02*
X13261848Y-9680650D01*
X13261848Y-9680650D02*
X13242801Y-9690174D01*
X13328515Y-9804460D02*
X13309467Y-9813984D01*
X13309467Y-9813984D02*
X13261848Y-9813984D01*
X13261848Y-9813984D02*
X13242801Y-9804460D01*
X13242801Y-9804460D02*
X13233277Y-9785412D01*
X13233277Y-9785412D02*
X13233277Y-9766365D01*
X13233277Y-9766365D02*
X13242801Y-9747317D01*
X13242801Y-9747317D02*
X13261848Y-9737793D01*
X13261848Y-9737793D02*
X13309467Y-9737793D01*
X13309467Y-9737793D02*
X13328515Y-9728270D01*
X13423753Y-9680650D02*
X13423753Y-9880650D01*
X13423753Y-9690174D02*
X13442801Y-9680650D01*
X13442801Y-9680650D02*
X13480896Y-9680650D01*
X13480896Y-9680650D02*
X13499943Y-9690174D01*
X13499943Y-9690174D02*
X13509467Y-9699698D01*
X13509467Y-9699698D02*
X13518991Y-9718746D01*
X13518991Y-9718746D02*
X13518991Y-9775889D01*
X13518991Y-9775889D02*
X13509467Y-9794936D01*
X13509467Y-9794936D02*
X13499943Y-9804460D01*
X13499943Y-9804460D02*
X13480896Y-9813984D01*
X13480896Y-9813984D02*
X13442801Y-9813984D01*
X13442801Y-9813984D02*
X13423753Y-9804460D01*
X13604705Y-9794936D02*
X13614229Y-9804460D01*
X13614229Y-9804460D02*
X13604705Y-9813984D01*
X13604705Y-9813984D02*
X13595182Y-9804460D01*
X13595182Y-9804460D02*
X13604705Y-9794936D01*
X13604705Y-9794936D02*
X13604705Y-9813984D01*
X13604705Y-9690174D02*
X13614229Y-9699698D01*
X13614229Y-9699698D02*
X13604705Y-9709222D01*
X13604705Y-9709222D02*
X13595182Y-9699698D01*
X13595182Y-9699698D02*
X13604705Y-9690174D01*
X13604705Y-9690174D02*
X13604705Y-9709222D01*
M02*
