%TF.GenerationSoftware,KiCad,Pcbnew,8.0.4-8.0.4-0~ubuntu24.04.1*%
%TF.CreationDate,2024-09-03T15:59:57+09:00*%
%TF.ProjectId,ESP32,45535033-322e-46b6-9963-61645f706362,rev?*%
%TF.SameCoordinates,Original*%
%TF.FileFunction,Drillmap*%
%TF.FilePolarity,Positive*%
%FSLAX45Y45*%
G04 Gerber Fmt 4.5, Leading zero omitted, Abs format (unit mm)*
G04 Created by KiCad (PCBNEW 8.0.4-8.0.4-0~ubuntu24.04.1) date 2024-09-03 15:59:57*
%MOMM*%
%LPD*%
G01*
G04 APERTURE LIST*
%ADD10C,0.050000*%
%ADD11C,0.200000*%
%ADD12C,0.100000*%
G04 APERTURE END LIST*
D10*
X13050000Y-7200000D02*
X16925000Y-7200000D01*
X16925000Y-13125000D01*
X13050000Y-13125000D01*
X13050000Y-7200000D01*
D11*
D12*
X13135000Y-10260000D02*
X13165000Y-10290000D01*
X13165000Y-10260000D02*
X13135000Y-10290000D01*
X13985000Y-12810000D02*
X14015000Y-12840000D01*
X14015000Y-12810000D02*
X13985000Y-12840000D01*
X14085000Y-12810000D02*
X14115000Y-12840000D01*
X14115000Y-12810000D02*
X14085000Y-12840000D01*
X14085000Y-13010000D02*
X14115000Y-13040000D01*
X14115000Y-13010000D02*
X14085000Y-13040000D01*
X14760000Y-8185000D02*
X14790000Y-8215000D01*
X14790000Y-8185000D02*
X14760000Y-8215000D01*
X16010000Y-7760000D02*
X16040000Y-7790000D01*
X16040000Y-7760000D02*
X16010000Y-7790000D01*
X16160000Y-7560000D02*
X16190000Y-7590000D01*
X16190000Y-7560000D02*
X16160000Y-7590000D01*
X13793500Y-8201500D02*
G75*
G02*
X13703500Y-8201500I-45000J0D01*
G01*
X13703500Y-8201500D02*
G75*
G02*
X13793500Y-8201500I45000J0D01*
G01*
X13793500Y-8455500D02*
G75*
G02*
X13703500Y-8455500I-45000J0D01*
G01*
X13703500Y-8455500D02*
G75*
G02*
X13793500Y-8455500I45000J0D01*
G01*
X13793500Y-8709500D02*
G75*
G02*
X13703500Y-8709500I-45000J0D01*
G01*
X13703500Y-8709500D02*
G75*
G02*
X13793500Y-8709500I45000J0D01*
G01*
X13793500Y-8963500D02*
G75*
G02*
X13703500Y-8963500I-45000J0D01*
G01*
X13703500Y-8963500D02*
G75*
G02*
X13793500Y-8963500I45000J0D01*
G01*
X13793500Y-9217500D02*
G75*
G02*
X13703500Y-9217500I-45000J0D01*
G01*
X13703500Y-9217500D02*
G75*
G02*
X13793500Y-9217500I45000J0D01*
G01*
X13793500Y-9471500D02*
G75*
G02*
X13703500Y-9471500I-45000J0D01*
G01*
X13703500Y-9471500D02*
G75*
G02*
X13793500Y-9471500I45000J0D01*
G01*
X13793500Y-9725500D02*
G75*
G02*
X13703500Y-9725500I-45000J0D01*
G01*
X13703500Y-9725500D02*
G75*
G02*
X13793500Y-9725500I45000J0D01*
G01*
X13793500Y-9979500D02*
G75*
G02*
X13703500Y-9979500I-45000J0D01*
G01*
X13703500Y-9979500D02*
G75*
G02*
X13793500Y-9979500I45000J0D01*
G01*
X13793500Y-10233500D02*
G75*
G02*
X13703500Y-10233500I-45000J0D01*
G01*
X13703500Y-10233500D02*
G75*
G02*
X13793500Y-10233500I45000J0D01*
G01*
X13793500Y-10487500D02*
G75*
G02*
X13703500Y-10487500I-45000J0D01*
G01*
X13703500Y-10487500D02*
G75*
G02*
X13793500Y-10487500I45000J0D01*
G01*
X13793500Y-10741500D02*
G75*
G02*
X13703500Y-10741500I-45000J0D01*
G01*
X13703500Y-10741500D02*
G75*
G02*
X13793500Y-10741500I45000J0D01*
G01*
X13793500Y-10995500D02*
G75*
G02*
X13703500Y-10995500I-45000J0D01*
G01*
X13703500Y-10995500D02*
G75*
G02*
X13793500Y-10995500I45000J0D01*
G01*
X13793500Y-11249500D02*
G75*
G02*
X13703500Y-11249500I-45000J0D01*
G01*
X13703500Y-11249500D02*
G75*
G02*
X13793500Y-11249500I45000J0D01*
G01*
X13793500Y-11503500D02*
G75*
G02*
X13703500Y-11503500I-45000J0D01*
G01*
X13703500Y-11503500D02*
G75*
G02*
X13793500Y-11503500I45000J0D01*
G01*
X13793500Y-11757500D02*
G75*
G02*
X13703500Y-11757500I-45000J0D01*
G01*
X13703500Y-11757500D02*
G75*
G02*
X13793500Y-11757500I45000J0D01*
G01*
X13793500Y-12011500D02*
G75*
G02*
X13703500Y-12011500I-45000J0D01*
G01*
X13703500Y-12011500D02*
G75*
G02*
X13793500Y-12011500I45000J0D01*
G01*
X13793500Y-12265500D02*
G75*
G02*
X13703500Y-12265500I-45000J0D01*
G01*
X13703500Y-12265500D02*
G75*
G02*
X13793500Y-12265500I45000J0D01*
G01*
X13793500Y-12519500D02*
G75*
G02*
X13703500Y-12519500I-45000J0D01*
G01*
X13703500Y-12519500D02*
G75*
G02*
X13793500Y-12519500I45000J0D01*
G01*
X13793500Y-12773500D02*
G75*
G02*
X13703500Y-12773500I-45000J0D01*
G01*
X13703500Y-12773500D02*
G75*
G02*
X13793500Y-12773500I45000J0D01*
G01*
X16333500Y-8201500D02*
G75*
G02*
X16243500Y-8201500I-45000J0D01*
G01*
X16243500Y-8201500D02*
G75*
G02*
X16333500Y-8201500I45000J0D01*
G01*
X16333500Y-8455500D02*
G75*
G02*
X16243500Y-8455500I-45000J0D01*
G01*
X16243500Y-8455500D02*
G75*
G02*
X16333500Y-8455500I45000J0D01*
G01*
X16333500Y-8709500D02*
G75*
G02*
X16243500Y-8709500I-45000J0D01*
G01*
X16243500Y-8709500D02*
G75*
G02*
X16333500Y-8709500I45000J0D01*
G01*
X16333500Y-8963500D02*
G75*
G02*
X16243500Y-8963500I-45000J0D01*
G01*
X16243500Y-8963500D02*
G75*
G02*
X16333500Y-8963500I45000J0D01*
G01*
X16333500Y-9217500D02*
G75*
G02*
X16243500Y-9217500I-45000J0D01*
G01*
X16243500Y-9217500D02*
G75*
G02*
X16333500Y-9217500I45000J0D01*
G01*
X16333500Y-9471500D02*
G75*
G02*
X16243500Y-9471500I-45000J0D01*
G01*
X16243500Y-9471500D02*
G75*
G02*
X16333500Y-9471500I45000J0D01*
G01*
X16333500Y-9725500D02*
G75*
G02*
X16243500Y-9725500I-45000J0D01*
G01*
X16243500Y-9725500D02*
G75*
G02*
X16333500Y-9725500I45000J0D01*
G01*
X16333500Y-9979500D02*
G75*
G02*
X16243500Y-9979500I-45000J0D01*
G01*
X16243500Y-9979500D02*
G75*
G02*
X16333500Y-9979500I45000J0D01*
G01*
X16333500Y-10233500D02*
G75*
G02*
X16243500Y-10233500I-45000J0D01*
G01*
X16243500Y-10233500D02*
G75*
G02*
X16333500Y-10233500I45000J0D01*
G01*
X16333500Y-10487500D02*
G75*
G02*
X16243500Y-10487500I-45000J0D01*
G01*
X16243500Y-10487500D02*
G75*
G02*
X16333500Y-10487500I45000J0D01*
G01*
X16333500Y-10741500D02*
G75*
G02*
X16243500Y-10741500I-45000J0D01*
G01*
X16243500Y-10741500D02*
G75*
G02*
X16333500Y-10741500I45000J0D01*
G01*
X16333500Y-10995500D02*
G75*
G02*
X16243500Y-10995500I-45000J0D01*
G01*
X16243500Y-10995500D02*
G75*
G02*
X16333500Y-10995500I45000J0D01*
G01*
X16333500Y-11249500D02*
G75*
G02*
X16243500Y-11249500I-45000J0D01*
G01*
X16243500Y-11249500D02*
G75*
G02*
X16333500Y-11249500I45000J0D01*
G01*
X16333500Y-11503500D02*
G75*
G02*
X16243500Y-11503500I-45000J0D01*
G01*
X16243500Y-11503500D02*
G75*
G02*
X16333500Y-11503500I45000J0D01*
G01*
X16333500Y-11757500D02*
G75*
G02*
X16243500Y-11757500I-45000J0D01*
G01*
X16243500Y-11757500D02*
G75*
G02*
X16333500Y-11757500I45000J0D01*
G01*
X16333500Y-12011500D02*
G75*
G02*
X16243500Y-12011500I-45000J0D01*
G01*
X16243500Y-12011500D02*
G75*
G02*
X16333500Y-12011500I45000J0D01*
G01*
X16333500Y-12265500D02*
G75*
G02*
X16243500Y-12265500I-45000J0D01*
G01*
X16243500Y-12265500D02*
G75*
G02*
X16333500Y-12265500I45000J0D01*
G01*
X16333500Y-12519500D02*
G75*
G02*
X16243500Y-12519500I-45000J0D01*
G01*
X16243500Y-12519500D02*
G75*
G02*
X16333500Y-12519500I45000J0D01*
G01*
X16333500Y-12773500D02*
G75*
G02*
X16243500Y-12773500I-45000J0D01*
G01*
X16243500Y-12773500D02*
G75*
G02*
X16333500Y-12773500I45000J0D01*
G01*
X13400000Y-8770000D02*
X13400000Y-8870000D01*
X13350000Y-8820000D02*
X13450000Y-8820000D01*
X13400000Y-9024000D02*
X13400000Y-9124000D01*
X13350000Y-9074000D02*
X13450000Y-9074000D01*
X13400000Y-9278000D02*
X13400000Y-9378000D01*
X13350000Y-9328000D02*
X13450000Y-9328000D01*
X13400000Y-9532000D02*
X13400000Y-9632000D01*
X13350000Y-9582000D02*
X13450000Y-9582000D01*
X13400000Y-9906000D02*
X13400000Y-10006000D01*
X13350000Y-9956000D02*
X13450000Y-9956000D01*
X13400000Y-10160000D02*
X13400000Y-10260000D01*
X13350000Y-10210000D02*
X13450000Y-10210000D01*
X13400000Y-10414000D02*
X13400000Y-10514000D01*
X13350000Y-10464000D02*
X13450000Y-10464000D01*
X13400000Y-10668000D02*
X13400000Y-10768000D01*
X13350000Y-10718000D02*
X13450000Y-10718000D01*
X13400000Y-10922000D02*
X13400000Y-11022000D01*
X13350000Y-10972000D02*
X13450000Y-10972000D01*
X13400000Y-11176000D02*
X13400000Y-11276000D01*
X13350000Y-11226000D02*
X13450000Y-11226000D01*
X13400000Y-11430000D02*
X13400000Y-11530000D01*
X13350000Y-11480000D02*
X13450000Y-11480000D01*
X13400000Y-11684000D02*
X13400000Y-11784000D01*
X13350000Y-11734000D02*
X13450000Y-11734000D01*
X13400000Y-11938000D02*
X13400000Y-12038000D01*
X13350000Y-11988000D02*
X13450000Y-11988000D01*
X13400000Y-12192000D02*
X13400000Y-12292000D01*
X13350000Y-12242000D02*
X13450000Y-12242000D01*
X13400000Y-12446000D02*
X13400000Y-12546000D01*
X13350000Y-12496000D02*
X13450000Y-12496000D01*
X13400000Y-12700000D02*
X13400000Y-12800000D01*
X13350000Y-12750000D02*
X13450000Y-12750000D01*
X14050000Y-10145000D02*
X14050000Y-10245000D01*
X14000000Y-10195000D02*
X14100000Y-10195000D01*
X14050000Y-10399000D02*
X14050000Y-10499000D01*
X14000000Y-10449000D02*
X14100000Y-10449000D01*
X14050000Y-10653000D02*
X14050000Y-10753000D01*
X14000000Y-10703000D02*
X14100000Y-10703000D01*
X14050000Y-10907000D02*
X14050000Y-11007000D01*
X14000000Y-10957000D02*
X14100000Y-10957000D01*
X14050000Y-11275000D02*
X14050000Y-11375000D01*
X14000000Y-11325000D02*
X14100000Y-11325000D01*
X14050000Y-11529000D02*
X14050000Y-11629000D01*
X14000000Y-11579000D02*
X14100000Y-11579000D01*
X14050000Y-11783000D02*
X14050000Y-11883000D01*
X14000000Y-11833000D02*
X14100000Y-11833000D01*
X14050000Y-12037000D02*
X14050000Y-12137000D01*
X14000000Y-12087000D02*
X14100000Y-12087000D01*
X14421000Y-7600000D02*
X14421000Y-7700000D01*
X14371000Y-7650000D02*
X14471000Y-7650000D01*
X14421000Y-8850000D02*
X14421000Y-8950000D01*
X14371000Y-8900000D02*
X14471000Y-8900000D01*
X14421000Y-10100000D02*
X14421000Y-10200000D01*
X14371000Y-10150000D02*
X14471000Y-10150000D01*
X14421000Y-11350000D02*
X14421000Y-11450000D01*
X14371000Y-11400000D02*
X14471000Y-11400000D01*
X14421000Y-12600000D02*
X14421000Y-12700000D01*
X14371000Y-12650000D02*
X14471000Y-12650000D01*
X14675000Y-7600000D02*
X14675000Y-7700000D01*
X14625000Y-7650000D02*
X14725000Y-7650000D01*
X14675000Y-8850000D02*
X14675000Y-8950000D01*
X14625000Y-8900000D02*
X14725000Y-8900000D01*
X14675000Y-10100000D02*
X14675000Y-10200000D01*
X14625000Y-10150000D02*
X14725000Y-10150000D01*
X14675000Y-11350000D02*
X14675000Y-11450000D01*
X14625000Y-11400000D02*
X14725000Y-11400000D01*
X14675000Y-12600000D02*
X14675000Y-12700000D01*
X14625000Y-12650000D02*
X14725000Y-12650000D01*
X14929000Y-7600000D02*
X14929000Y-7700000D01*
X14879000Y-7650000D02*
X14979000Y-7650000D01*
X14929000Y-8850000D02*
X14929000Y-8950000D01*
X14879000Y-8900000D02*
X14979000Y-8900000D01*
X14929000Y-10100000D02*
X14929000Y-10200000D01*
X14879000Y-10150000D02*
X14979000Y-10150000D01*
X14929000Y-11350000D02*
X14929000Y-11450000D01*
X14879000Y-11400000D02*
X14979000Y-11400000D01*
X14929000Y-12600000D02*
X14929000Y-12700000D01*
X14879000Y-12650000D02*
X14979000Y-12650000D01*
X15183000Y-7600000D02*
X15183000Y-7700000D01*
X15133000Y-7650000D02*
X15233000Y-7650000D01*
X15183000Y-8850000D02*
X15183000Y-8950000D01*
X15133000Y-8900000D02*
X15233000Y-8900000D01*
X15183000Y-10100000D02*
X15183000Y-10200000D01*
X15133000Y-10150000D02*
X15233000Y-10150000D01*
X15183000Y-11350000D02*
X15183000Y-11450000D01*
X15133000Y-11400000D02*
X15233000Y-11400000D01*
X15183000Y-12600000D02*
X15183000Y-12700000D01*
X15133000Y-12650000D02*
X15233000Y-12650000D01*
X15437000Y-7600000D02*
X15437000Y-7700000D01*
X15387000Y-7650000D02*
X15487000Y-7650000D01*
X15437000Y-8850000D02*
X15437000Y-8950000D01*
X15387000Y-8900000D02*
X15487000Y-8900000D01*
X15437000Y-10100000D02*
X15437000Y-10200000D01*
X15387000Y-10150000D02*
X15487000Y-10150000D01*
X15437000Y-11350000D02*
X15437000Y-11450000D01*
X15387000Y-11400000D02*
X15487000Y-11400000D01*
X15437000Y-12600000D02*
X15437000Y-12700000D01*
X15387000Y-12650000D02*
X15487000Y-12650000D01*
X15691000Y-7600000D02*
X15691000Y-7700000D01*
X15641000Y-7650000D02*
X15741000Y-7650000D01*
X15691000Y-8850000D02*
X15691000Y-8950000D01*
X15641000Y-8900000D02*
X15741000Y-8900000D01*
X15691000Y-10100000D02*
X15691000Y-10200000D01*
X15641000Y-10150000D02*
X15741000Y-10150000D01*
X15691000Y-11350000D02*
X15691000Y-11450000D01*
X15641000Y-11400000D02*
X15741000Y-11400000D01*
X15691000Y-12600000D02*
X15691000Y-12700000D01*
X15641000Y-12650000D02*
X15741000Y-12650000D01*
X16000000Y-8446000D02*
X16000000Y-8546000D01*
X15950000Y-8496000D02*
X16050000Y-8496000D01*
X16000000Y-8700000D02*
X16000000Y-8800000D01*
X15950000Y-8750000D02*
X16050000Y-8750000D01*
X16000000Y-8954000D02*
X16000000Y-9054000D01*
X15950000Y-9004000D02*
X16050000Y-9004000D01*
X16000000Y-9208000D02*
X16000000Y-9308000D01*
X15950000Y-9258000D02*
X16050000Y-9258000D01*
X16625000Y-9925000D02*
X16625000Y-10025000D01*
X16575000Y-9975000D02*
X16675000Y-9975000D01*
X16625000Y-10179000D02*
X16625000Y-10279000D01*
X16575000Y-10229000D02*
X16675000Y-10229000D01*
X16625000Y-10433000D02*
X16625000Y-10533000D01*
X16575000Y-10483000D02*
X16675000Y-10483000D01*
X16625000Y-10687000D02*
X16625000Y-10787000D01*
X16575000Y-10737000D02*
X16675000Y-10737000D01*
X16625000Y-11050000D02*
X16625000Y-11150000D01*
X16575000Y-11100000D02*
X16675000Y-11100000D01*
X16625000Y-11304000D02*
X16625000Y-11404000D01*
X16575000Y-11354000D02*
X16675000Y-11354000D01*
X16625000Y-11558000D02*
X16625000Y-11658000D01*
X16575000Y-11608000D02*
X16675000Y-11608000D01*
X16625000Y-11812000D02*
X16625000Y-11912000D01*
X16575000Y-11862000D02*
X16675000Y-11862000D01*
X16625000Y-12175000D02*
X16625000Y-12275000D01*
X16575000Y-12225000D02*
X16675000Y-12225000D01*
X16625000Y-12429000D02*
X16625000Y-12529000D01*
X16575000Y-12479000D02*
X16675000Y-12479000D01*
X16650000Y-8300000D02*
X16650000Y-8400000D01*
X16600000Y-8350000D02*
X16700000Y-8350000D01*
X16652500Y-7790000D02*
X16652500Y-7890000D01*
X16602500Y-7840000D02*
X16702500Y-7840000D01*
X16652500Y-8042500D02*
X16652500Y-8142500D01*
X16602500Y-8092500D02*
X16702500Y-8092500D01*
X16652500Y-8557500D02*
X16652500Y-8657500D01*
X16602500Y-8607500D02*
X16702500Y-8607500D01*
X16652500Y-8812500D02*
X16652500Y-8912500D01*
X16602500Y-8862500D02*
X16702500Y-8862500D01*
X16652500Y-9327500D02*
X16652500Y-9427500D01*
X16602500Y-9377500D02*
X16702500Y-9377500D01*
X16655000Y-7532500D02*
X16655000Y-7632500D01*
X16605000Y-7582500D02*
X16705000Y-7582500D01*
X16655000Y-9070000D02*
X16655000Y-9170000D01*
X16605000Y-9120000D02*
X16705000Y-9120000D01*
D11*
X13308277Y-13438984D02*
X13308277Y-13238984D01*
X13308277Y-13238984D02*
X13355896Y-13238984D01*
X13355896Y-13238984D02*
X13384467Y-13248508D01*
X13384467Y-13248508D02*
X13403515Y-13267555D01*
X13403515Y-13267555D02*
X13413039Y-13286603D01*
X13413039Y-13286603D02*
X13422562Y-13324698D01*
X13422562Y-13324698D02*
X13422562Y-13353269D01*
X13422562Y-13353269D02*
X13413039Y-13391365D01*
X13413039Y-13391365D02*
X13403515Y-13410412D01*
X13403515Y-13410412D02*
X13384467Y-13429460D01*
X13384467Y-13429460D02*
X13355896Y-13438984D01*
X13355896Y-13438984D02*
X13308277Y-13438984D01*
X13508277Y-13438984D02*
X13508277Y-13305650D01*
X13508277Y-13343746D02*
X13517801Y-13324698D01*
X13517801Y-13324698D02*
X13527324Y-13315174D01*
X13527324Y-13315174D02*
X13546372Y-13305650D01*
X13546372Y-13305650D02*
X13565420Y-13305650D01*
X13632086Y-13438984D02*
X13632086Y-13305650D01*
X13632086Y-13238984D02*
X13622562Y-13248508D01*
X13622562Y-13248508D02*
X13632086Y-13258031D01*
X13632086Y-13258031D02*
X13641610Y-13248508D01*
X13641610Y-13248508D02*
X13632086Y-13238984D01*
X13632086Y-13238984D02*
X13632086Y-13258031D01*
X13755896Y-13438984D02*
X13736848Y-13429460D01*
X13736848Y-13429460D02*
X13727324Y-13410412D01*
X13727324Y-13410412D02*
X13727324Y-13238984D01*
X13860658Y-13438984D02*
X13841610Y-13429460D01*
X13841610Y-13429460D02*
X13832086Y-13410412D01*
X13832086Y-13410412D02*
X13832086Y-13238984D01*
X14089229Y-13438984D02*
X14089229Y-13238984D01*
X14089229Y-13238984D02*
X14155896Y-13381841D01*
X14155896Y-13381841D02*
X14222562Y-13238984D01*
X14222562Y-13238984D02*
X14222562Y-13438984D01*
X14403515Y-13438984D02*
X14403515Y-13334222D01*
X14403515Y-13334222D02*
X14393991Y-13315174D01*
X14393991Y-13315174D02*
X14374943Y-13305650D01*
X14374943Y-13305650D02*
X14336848Y-13305650D01*
X14336848Y-13305650D02*
X14317801Y-13315174D01*
X14403515Y-13429460D02*
X14384467Y-13438984D01*
X14384467Y-13438984D02*
X14336848Y-13438984D01*
X14336848Y-13438984D02*
X14317801Y-13429460D01*
X14317801Y-13429460D02*
X14308277Y-13410412D01*
X14308277Y-13410412D02*
X14308277Y-13391365D01*
X14308277Y-13391365D02*
X14317801Y-13372317D01*
X14317801Y-13372317D02*
X14336848Y-13362793D01*
X14336848Y-13362793D02*
X14384467Y-13362793D01*
X14384467Y-13362793D02*
X14403515Y-13353269D01*
X14498753Y-13305650D02*
X14498753Y-13505650D01*
X14498753Y-13315174D02*
X14517801Y-13305650D01*
X14517801Y-13305650D02*
X14555896Y-13305650D01*
X14555896Y-13305650D02*
X14574943Y-13315174D01*
X14574943Y-13315174D02*
X14584467Y-13324698D01*
X14584467Y-13324698D02*
X14593991Y-13343746D01*
X14593991Y-13343746D02*
X14593991Y-13400888D01*
X14593991Y-13400888D02*
X14584467Y-13419936D01*
X14584467Y-13419936D02*
X14574943Y-13429460D01*
X14574943Y-13429460D02*
X14555896Y-13438984D01*
X14555896Y-13438984D02*
X14517801Y-13438984D01*
X14517801Y-13438984D02*
X14498753Y-13429460D01*
X14679705Y-13419936D02*
X14689229Y-13429460D01*
X14689229Y-13429460D02*
X14679705Y-13438984D01*
X14679705Y-13438984D02*
X14670182Y-13429460D01*
X14670182Y-13429460D02*
X14679705Y-13419936D01*
X14679705Y-13419936D02*
X14679705Y-13438984D01*
X14679705Y-13315174D02*
X14689229Y-13324698D01*
X14689229Y-13324698D02*
X14679705Y-13334222D01*
X14679705Y-13334222D02*
X14670182Y-13324698D01*
X14670182Y-13324698D02*
X14679705Y-13315174D01*
X14679705Y-13315174D02*
X14679705Y-13334222D01*
D12*
X13017500Y-13752500D02*
X13047500Y-13782500D01*
X13047500Y-13752500D02*
X13017500Y-13782500D01*
D11*
X13346372Y-13658984D02*
X13365420Y-13658984D01*
X13365420Y-13658984D02*
X13384467Y-13668508D01*
X13384467Y-13668508D02*
X13393991Y-13678031D01*
X13393991Y-13678031D02*
X13403515Y-13697079D01*
X13403515Y-13697079D02*
X13413039Y-13735174D01*
X13413039Y-13735174D02*
X13413039Y-13782793D01*
X13413039Y-13782793D02*
X13403515Y-13820888D01*
X13403515Y-13820888D02*
X13393991Y-13839936D01*
X13393991Y-13839936D02*
X13384467Y-13849460D01*
X13384467Y-13849460D02*
X13365420Y-13858984D01*
X13365420Y-13858984D02*
X13346372Y-13858984D01*
X13346372Y-13858984D02*
X13327324Y-13849460D01*
X13327324Y-13849460D02*
X13317801Y-13839936D01*
X13317801Y-13839936D02*
X13308277Y-13820888D01*
X13308277Y-13820888D02*
X13298753Y-13782793D01*
X13298753Y-13782793D02*
X13298753Y-13735174D01*
X13298753Y-13735174D02*
X13308277Y-13697079D01*
X13308277Y-13697079D02*
X13317801Y-13678031D01*
X13317801Y-13678031D02*
X13327324Y-13668508D01*
X13327324Y-13668508D02*
X13346372Y-13658984D01*
X13498753Y-13839936D02*
X13508277Y-13849460D01*
X13508277Y-13849460D02*
X13498753Y-13858984D01*
X13498753Y-13858984D02*
X13489229Y-13849460D01*
X13489229Y-13849460D02*
X13498753Y-13839936D01*
X13498753Y-13839936D02*
X13498753Y-13858984D01*
X13574943Y-13658984D02*
X13698753Y-13658984D01*
X13698753Y-13658984D02*
X13632086Y-13735174D01*
X13632086Y-13735174D02*
X13660658Y-13735174D01*
X13660658Y-13735174D02*
X13679705Y-13744698D01*
X13679705Y-13744698D02*
X13689229Y-13754222D01*
X13689229Y-13754222D02*
X13698753Y-13773269D01*
X13698753Y-13773269D02*
X13698753Y-13820888D01*
X13698753Y-13820888D02*
X13689229Y-13839936D01*
X13689229Y-13839936D02*
X13679705Y-13849460D01*
X13679705Y-13849460D02*
X13660658Y-13858984D01*
X13660658Y-13858984D02*
X13603515Y-13858984D01*
X13603515Y-13858984D02*
X13584467Y-13849460D01*
X13584467Y-13849460D02*
X13574943Y-13839936D01*
X13822562Y-13658984D02*
X13841610Y-13658984D01*
X13841610Y-13658984D02*
X13860658Y-13668508D01*
X13860658Y-13668508D02*
X13870182Y-13678031D01*
X13870182Y-13678031D02*
X13879705Y-13697079D01*
X13879705Y-13697079D02*
X13889229Y-13735174D01*
X13889229Y-13735174D02*
X13889229Y-13782793D01*
X13889229Y-13782793D02*
X13879705Y-13820888D01*
X13879705Y-13820888D02*
X13870182Y-13839936D01*
X13870182Y-13839936D02*
X13860658Y-13849460D01*
X13860658Y-13849460D02*
X13841610Y-13858984D01*
X13841610Y-13858984D02*
X13822562Y-13858984D01*
X13822562Y-13858984D02*
X13803515Y-13849460D01*
X13803515Y-13849460D02*
X13793991Y-13839936D01*
X13793991Y-13839936D02*
X13784467Y-13820888D01*
X13784467Y-13820888D02*
X13774943Y-13782793D01*
X13774943Y-13782793D02*
X13774943Y-13735174D01*
X13774943Y-13735174D02*
X13784467Y-13697079D01*
X13784467Y-13697079D02*
X13793991Y-13678031D01*
X13793991Y-13678031D02*
X13803515Y-13668508D01*
X13803515Y-13668508D02*
X13822562Y-13658984D01*
X14013039Y-13658984D02*
X14032086Y-13658984D01*
X14032086Y-13658984D02*
X14051134Y-13668508D01*
X14051134Y-13668508D02*
X14060658Y-13678031D01*
X14060658Y-13678031D02*
X14070182Y-13697079D01*
X14070182Y-13697079D02*
X14079705Y-13735174D01*
X14079705Y-13735174D02*
X14079705Y-13782793D01*
X14079705Y-13782793D02*
X14070182Y-13820888D01*
X14070182Y-13820888D02*
X14060658Y-13839936D01*
X14060658Y-13839936D02*
X14051134Y-13849460D01*
X14051134Y-13849460D02*
X14032086Y-13858984D01*
X14032086Y-13858984D02*
X14013039Y-13858984D01*
X14013039Y-13858984D02*
X13993991Y-13849460D01*
X13993991Y-13849460D02*
X13984467Y-13839936D01*
X13984467Y-13839936D02*
X13974943Y-13820888D01*
X13974943Y-13820888D02*
X13965420Y-13782793D01*
X13965420Y-13782793D02*
X13965420Y-13735174D01*
X13965420Y-13735174D02*
X13974943Y-13697079D01*
X13974943Y-13697079D02*
X13984467Y-13678031D01*
X13984467Y-13678031D02*
X13993991Y-13668508D01*
X13993991Y-13668508D02*
X14013039Y-13658984D01*
X14165420Y-13858984D02*
X14165420Y-13725650D01*
X14165420Y-13744698D02*
X14174943Y-13735174D01*
X14174943Y-13735174D02*
X14193991Y-13725650D01*
X14193991Y-13725650D02*
X14222563Y-13725650D01*
X14222563Y-13725650D02*
X14241610Y-13735174D01*
X14241610Y-13735174D02*
X14251134Y-13754222D01*
X14251134Y-13754222D02*
X14251134Y-13858984D01*
X14251134Y-13754222D02*
X14260658Y-13735174D01*
X14260658Y-13735174D02*
X14279705Y-13725650D01*
X14279705Y-13725650D02*
X14308277Y-13725650D01*
X14308277Y-13725650D02*
X14327324Y-13735174D01*
X14327324Y-13735174D02*
X14336848Y-13754222D01*
X14336848Y-13754222D02*
X14336848Y-13858984D01*
X14432086Y-13858984D02*
X14432086Y-13725650D01*
X14432086Y-13744698D02*
X14441610Y-13735174D01*
X14441610Y-13735174D02*
X14460658Y-13725650D01*
X14460658Y-13725650D02*
X14489229Y-13725650D01*
X14489229Y-13725650D02*
X14508277Y-13735174D01*
X14508277Y-13735174D02*
X14517801Y-13754222D01*
X14517801Y-13754222D02*
X14517801Y-13858984D01*
X14517801Y-13754222D02*
X14527324Y-13735174D01*
X14527324Y-13735174D02*
X14546372Y-13725650D01*
X14546372Y-13725650D02*
X14574943Y-13725650D01*
X14574943Y-13725650D02*
X14593991Y-13735174D01*
X14593991Y-13735174D02*
X14603515Y-13754222D01*
X14603515Y-13754222D02*
X14603515Y-13858984D01*
X14993991Y-13649460D02*
X14822563Y-13906603D01*
X15251134Y-13658984D02*
X15270182Y-13658984D01*
X15270182Y-13658984D02*
X15289229Y-13668508D01*
X15289229Y-13668508D02*
X15298753Y-13678031D01*
X15298753Y-13678031D02*
X15308277Y-13697079D01*
X15308277Y-13697079D02*
X15317801Y-13735174D01*
X15317801Y-13735174D02*
X15317801Y-13782793D01*
X15317801Y-13782793D02*
X15308277Y-13820888D01*
X15308277Y-13820888D02*
X15298753Y-13839936D01*
X15298753Y-13839936D02*
X15289229Y-13849460D01*
X15289229Y-13849460D02*
X15270182Y-13858984D01*
X15270182Y-13858984D02*
X15251134Y-13858984D01*
X15251134Y-13858984D02*
X15232086Y-13849460D01*
X15232086Y-13849460D02*
X15222563Y-13839936D01*
X15222563Y-13839936D02*
X15213039Y-13820888D01*
X15213039Y-13820888D02*
X15203515Y-13782793D01*
X15203515Y-13782793D02*
X15203515Y-13735174D01*
X15203515Y-13735174D02*
X15213039Y-13697079D01*
X15213039Y-13697079D02*
X15222563Y-13678031D01*
X15222563Y-13678031D02*
X15232086Y-13668508D01*
X15232086Y-13668508D02*
X15251134Y-13658984D01*
X15403515Y-13839936D02*
X15413039Y-13849460D01*
X15413039Y-13849460D02*
X15403515Y-13858984D01*
X15403515Y-13858984D02*
X15393991Y-13849460D01*
X15393991Y-13849460D02*
X15403515Y-13839936D01*
X15403515Y-13839936D02*
X15403515Y-13858984D01*
X15536848Y-13658984D02*
X15555896Y-13658984D01*
X15555896Y-13658984D02*
X15574944Y-13668508D01*
X15574944Y-13668508D02*
X15584467Y-13678031D01*
X15584467Y-13678031D02*
X15593991Y-13697079D01*
X15593991Y-13697079D02*
X15603515Y-13735174D01*
X15603515Y-13735174D02*
X15603515Y-13782793D01*
X15603515Y-13782793D02*
X15593991Y-13820888D01*
X15593991Y-13820888D02*
X15584467Y-13839936D01*
X15584467Y-13839936D02*
X15574944Y-13849460D01*
X15574944Y-13849460D02*
X15555896Y-13858984D01*
X15555896Y-13858984D02*
X15536848Y-13858984D01*
X15536848Y-13858984D02*
X15517801Y-13849460D01*
X15517801Y-13849460D02*
X15508277Y-13839936D01*
X15508277Y-13839936D02*
X15498753Y-13820888D01*
X15498753Y-13820888D02*
X15489229Y-13782793D01*
X15489229Y-13782793D02*
X15489229Y-13735174D01*
X15489229Y-13735174D02*
X15498753Y-13697079D01*
X15498753Y-13697079D02*
X15508277Y-13678031D01*
X15508277Y-13678031D02*
X15517801Y-13668508D01*
X15517801Y-13668508D02*
X15536848Y-13658984D01*
X15793991Y-13858984D02*
X15679706Y-13858984D01*
X15736848Y-13858984D02*
X15736848Y-13658984D01*
X15736848Y-13658984D02*
X15717801Y-13687555D01*
X15717801Y-13687555D02*
X15698753Y-13706603D01*
X15698753Y-13706603D02*
X15679706Y-13716127D01*
X15984467Y-13858984D02*
X15870182Y-13858984D01*
X15927325Y-13858984D02*
X15927325Y-13658984D01*
X15927325Y-13658984D02*
X15908277Y-13687555D01*
X15908277Y-13687555D02*
X15889229Y-13706603D01*
X15889229Y-13706603D02*
X15870182Y-13716127D01*
X16098753Y-13744698D02*
X16079706Y-13735174D01*
X16079706Y-13735174D02*
X16070182Y-13725650D01*
X16070182Y-13725650D02*
X16060658Y-13706603D01*
X16060658Y-13706603D02*
X16060658Y-13697079D01*
X16060658Y-13697079D02*
X16070182Y-13678031D01*
X16070182Y-13678031D02*
X16079706Y-13668508D01*
X16079706Y-13668508D02*
X16098753Y-13658984D01*
X16098753Y-13658984D02*
X16136848Y-13658984D01*
X16136848Y-13658984D02*
X16155896Y-13668508D01*
X16155896Y-13668508D02*
X16165420Y-13678031D01*
X16165420Y-13678031D02*
X16174944Y-13697079D01*
X16174944Y-13697079D02*
X16174944Y-13706603D01*
X16174944Y-13706603D02*
X16165420Y-13725650D01*
X16165420Y-13725650D02*
X16155896Y-13735174D01*
X16155896Y-13735174D02*
X16136848Y-13744698D01*
X16136848Y-13744698D02*
X16098753Y-13744698D01*
X16098753Y-13744698D02*
X16079706Y-13754222D01*
X16079706Y-13754222D02*
X16070182Y-13763746D01*
X16070182Y-13763746D02*
X16060658Y-13782793D01*
X16060658Y-13782793D02*
X16060658Y-13820888D01*
X16060658Y-13820888D02*
X16070182Y-13839936D01*
X16070182Y-13839936D02*
X16079706Y-13849460D01*
X16079706Y-13849460D02*
X16098753Y-13858984D01*
X16098753Y-13858984D02*
X16136848Y-13858984D01*
X16136848Y-13858984D02*
X16155896Y-13849460D01*
X16155896Y-13849460D02*
X16165420Y-13839936D01*
X16165420Y-13839936D02*
X16174944Y-13820888D01*
X16174944Y-13820888D02*
X16174944Y-13782793D01*
X16174944Y-13782793D02*
X16165420Y-13763746D01*
X16165420Y-13763746D02*
X16155896Y-13754222D01*
X16155896Y-13754222D02*
X16136848Y-13744698D01*
X16251134Y-13658984D02*
X16251134Y-13697079D01*
X16327325Y-13658984D02*
X16327325Y-13697079D01*
X16622563Y-13935174D02*
X16613039Y-13925650D01*
X16613039Y-13925650D02*
X16593991Y-13897079D01*
X16593991Y-13897079D02*
X16584468Y-13878031D01*
X16584468Y-13878031D02*
X16574944Y-13849460D01*
X16574944Y-13849460D02*
X16565420Y-13801841D01*
X16565420Y-13801841D02*
X16565420Y-13763746D01*
X16565420Y-13763746D02*
X16574944Y-13716127D01*
X16574944Y-13716127D02*
X16584468Y-13687555D01*
X16584468Y-13687555D02*
X16593991Y-13668508D01*
X16593991Y-13668508D02*
X16613039Y-13639936D01*
X16613039Y-13639936D02*
X16622563Y-13630412D01*
X16679706Y-13658984D02*
X16813039Y-13658984D01*
X16813039Y-13658984D02*
X16727325Y-13858984D01*
X17041611Y-13858984D02*
X17041611Y-13658984D01*
X17127325Y-13858984D02*
X17127325Y-13754222D01*
X17127325Y-13754222D02*
X17117801Y-13735174D01*
X17117801Y-13735174D02*
X17098753Y-13725650D01*
X17098753Y-13725650D02*
X17070182Y-13725650D01*
X17070182Y-13725650D02*
X17051134Y-13735174D01*
X17051134Y-13735174D02*
X17041611Y-13744698D01*
X17251134Y-13858984D02*
X17232087Y-13849460D01*
X17232087Y-13849460D02*
X17222563Y-13839936D01*
X17222563Y-13839936D02*
X17213039Y-13820888D01*
X17213039Y-13820888D02*
X17213039Y-13763746D01*
X17213039Y-13763746D02*
X17222563Y-13744698D01*
X17222563Y-13744698D02*
X17232087Y-13735174D01*
X17232087Y-13735174D02*
X17251134Y-13725650D01*
X17251134Y-13725650D02*
X17279706Y-13725650D01*
X17279706Y-13725650D02*
X17298753Y-13735174D01*
X17298753Y-13735174D02*
X17308277Y-13744698D01*
X17308277Y-13744698D02*
X17317801Y-13763746D01*
X17317801Y-13763746D02*
X17317801Y-13820888D01*
X17317801Y-13820888D02*
X17308277Y-13839936D01*
X17308277Y-13839936D02*
X17298753Y-13849460D01*
X17298753Y-13849460D02*
X17279706Y-13858984D01*
X17279706Y-13858984D02*
X17251134Y-13858984D01*
X17432087Y-13858984D02*
X17413039Y-13849460D01*
X17413039Y-13849460D02*
X17403515Y-13830412D01*
X17403515Y-13830412D02*
X17403515Y-13658984D01*
X17584468Y-13849460D02*
X17565420Y-13858984D01*
X17565420Y-13858984D02*
X17527325Y-13858984D01*
X17527325Y-13858984D02*
X17508277Y-13849460D01*
X17508277Y-13849460D02*
X17498753Y-13830412D01*
X17498753Y-13830412D02*
X17498753Y-13754222D01*
X17498753Y-13754222D02*
X17508277Y-13735174D01*
X17508277Y-13735174D02*
X17527325Y-13725650D01*
X17527325Y-13725650D02*
X17565420Y-13725650D01*
X17565420Y-13725650D02*
X17584468Y-13735174D01*
X17584468Y-13735174D02*
X17593992Y-13754222D01*
X17593992Y-13754222D02*
X17593992Y-13773269D01*
X17593992Y-13773269D02*
X17498753Y-13792317D01*
X17670182Y-13849460D02*
X17689230Y-13858984D01*
X17689230Y-13858984D02*
X17727325Y-13858984D01*
X17727325Y-13858984D02*
X17746373Y-13849460D01*
X17746373Y-13849460D02*
X17755896Y-13830412D01*
X17755896Y-13830412D02*
X17755896Y-13820888D01*
X17755896Y-13820888D02*
X17746373Y-13801841D01*
X17746373Y-13801841D02*
X17727325Y-13792317D01*
X17727325Y-13792317D02*
X17698753Y-13792317D01*
X17698753Y-13792317D02*
X17679706Y-13782793D01*
X17679706Y-13782793D02*
X17670182Y-13763746D01*
X17670182Y-13763746D02*
X17670182Y-13754222D01*
X17670182Y-13754222D02*
X17679706Y-13735174D01*
X17679706Y-13735174D02*
X17698753Y-13725650D01*
X17698753Y-13725650D02*
X17727325Y-13725650D01*
X17727325Y-13725650D02*
X17746373Y-13735174D01*
X17822563Y-13935174D02*
X17832087Y-13925650D01*
X17832087Y-13925650D02*
X17851134Y-13897079D01*
X17851134Y-13897079D02*
X17860658Y-13878031D01*
X17860658Y-13878031D02*
X17870182Y-13849460D01*
X17870182Y-13849460D02*
X17879706Y-13801841D01*
X17879706Y-13801841D02*
X17879706Y-13763746D01*
X17879706Y-13763746D02*
X17870182Y-13716127D01*
X17870182Y-13716127D02*
X17860658Y-13687555D01*
X17860658Y-13687555D02*
X17851134Y-13668508D01*
X17851134Y-13668508D02*
X17832087Y-13639936D01*
X17832087Y-13639936D02*
X17822563Y-13630412D01*
D12*
X13047500Y-14031500D02*
G75*
G02*
X12957500Y-14031500I-45000J0D01*
G01*
X12957500Y-14031500D02*
G75*
G02*
X13047500Y-14031500I45000J0D01*
G01*
D11*
X13346372Y-13922984D02*
X13365420Y-13922984D01*
X13365420Y-13922984D02*
X13384467Y-13932508D01*
X13384467Y-13932508D02*
X13393991Y-13942031D01*
X13393991Y-13942031D02*
X13403515Y-13961079D01*
X13403515Y-13961079D02*
X13413039Y-13999174D01*
X13413039Y-13999174D02*
X13413039Y-14046793D01*
X13413039Y-14046793D02*
X13403515Y-14084888D01*
X13403515Y-14084888D02*
X13393991Y-14103936D01*
X13393991Y-14103936D02*
X13384467Y-14113460D01*
X13384467Y-14113460D02*
X13365420Y-14122984D01*
X13365420Y-14122984D02*
X13346372Y-14122984D01*
X13346372Y-14122984D02*
X13327324Y-14113460D01*
X13327324Y-14113460D02*
X13317801Y-14103936D01*
X13317801Y-14103936D02*
X13308277Y-14084888D01*
X13308277Y-14084888D02*
X13298753Y-14046793D01*
X13298753Y-14046793D02*
X13298753Y-13999174D01*
X13298753Y-13999174D02*
X13308277Y-13961079D01*
X13308277Y-13961079D02*
X13317801Y-13942031D01*
X13317801Y-13942031D02*
X13327324Y-13932508D01*
X13327324Y-13932508D02*
X13346372Y-13922984D01*
X13498753Y-14103936D02*
X13508277Y-14113460D01*
X13508277Y-14113460D02*
X13498753Y-14122984D01*
X13498753Y-14122984D02*
X13489229Y-14113460D01*
X13489229Y-14113460D02*
X13498753Y-14103936D01*
X13498753Y-14103936D02*
X13498753Y-14122984D01*
X13603515Y-14122984D02*
X13641610Y-14122984D01*
X13641610Y-14122984D02*
X13660658Y-14113460D01*
X13660658Y-14113460D02*
X13670182Y-14103936D01*
X13670182Y-14103936D02*
X13689229Y-14075365D01*
X13689229Y-14075365D02*
X13698753Y-14037269D01*
X13698753Y-14037269D02*
X13698753Y-13961079D01*
X13698753Y-13961079D02*
X13689229Y-13942031D01*
X13689229Y-13942031D02*
X13679705Y-13932508D01*
X13679705Y-13932508D02*
X13660658Y-13922984D01*
X13660658Y-13922984D02*
X13622562Y-13922984D01*
X13622562Y-13922984D02*
X13603515Y-13932508D01*
X13603515Y-13932508D02*
X13593991Y-13942031D01*
X13593991Y-13942031D02*
X13584467Y-13961079D01*
X13584467Y-13961079D02*
X13584467Y-14008698D01*
X13584467Y-14008698D02*
X13593991Y-14027746D01*
X13593991Y-14027746D02*
X13603515Y-14037269D01*
X13603515Y-14037269D02*
X13622562Y-14046793D01*
X13622562Y-14046793D02*
X13660658Y-14046793D01*
X13660658Y-14046793D02*
X13679705Y-14037269D01*
X13679705Y-14037269D02*
X13689229Y-14027746D01*
X13689229Y-14027746D02*
X13698753Y-14008698D01*
X13822562Y-13922984D02*
X13841610Y-13922984D01*
X13841610Y-13922984D02*
X13860658Y-13932508D01*
X13860658Y-13932508D02*
X13870182Y-13942031D01*
X13870182Y-13942031D02*
X13879705Y-13961079D01*
X13879705Y-13961079D02*
X13889229Y-13999174D01*
X13889229Y-13999174D02*
X13889229Y-14046793D01*
X13889229Y-14046793D02*
X13879705Y-14084888D01*
X13879705Y-14084888D02*
X13870182Y-14103936D01*
X13870182Y-14103936D02*
X13860658Y-14113460D01*
X13860658Y-14113460D02*
X13841610Y-14122984D01*
X13841610Y-14122984D02*
X13822562Y-14122984D01*
X13822562Y-14122984D02*
X13803515Y-14113460D01*
X13803515Y-14113460D02*
X13793991Y-14103936D01*
X13793991Y-14103936D02*
X13784467Y-14084888D01*
X13784467Y-14084888D02*
X13774943Y-14046793D01*
X13774943Y-14046793D02*
X13774943Y-13999174D01*
X13774943Y-13999174D02*
X13784467Y-13961079D01*
X13784467Y-13961079D02*
X13793991Y-13942031D01*
X13793991Y-13942031D02*
X13803515Y-13932508D01*
X13803515Y-13932508D02*
X13822562Y-13922984D01*
X14013039Y-13922984D02*
X14032086Y-13922984D01*
X14032086Y-13922984D02*
X14051134Y-13932508D01*
X14051134Y-13932508D02*
X14060658Y-13942031D01*
X14060658Y-13942031D02*
X14070182Y-13961079D01*
X14070182Y-13961079D02*
X14079705Y-13999174D01*
X14079705Y-13999174D02*
X14079705Y-14046793D01*
X14079705Y-14046793D02*
X14070182Y-14084888D01*
X14070182Y-14084888D02*
X14060658Y-14103936D01*
X14060658Y-14103936D02*
X14051134Y-14113460D01*
X14051134Y-14113460D02*
X14032086Y-14122984D01*
X14032086Y-14122984D02*
X14013039Y-14122984D01*
X14013039Y-14122984D02*
X13993991Y-14113460D01*
X13993991Y-14113460D02*
X13984467Y-14103936D01*
X13984467Y-14103936D02*
X13974943Y-14084888D01*
X13974943Y-14084888D02*
X13965420Y-14046793D01*
X13965420Y-14046793D02*
X13965420Y-13999174D01*
X13965420Y-13999174D02*
X13974943Y-13961079D01*
X13974943Y-13961079D02*
X13984467Y-13942031D01*
X13984467Y-13942031D02*
X13993991Y-13932508D01*
X13993991Y-13932508D02*
X14013039Y-13922984D01*
X14165420Y-14122984D02*
X14165420Y-13989650D01*
X14165420Y-14008698D02*
X14174943Y-13999174D01*
X14174943Y-13999174D02*
X14193991Y-13989650D01*
X14193991Y-13989650D02*
X14222563Y-13989650D01*
X14222563Y-13989650D02*
X14241610Y-13999174D01*
X14241610Y-13999174D02*
X14251134Y-14018222D01*
X14251134Y-14018222D02*
X14251134Y-14122984D01*
X14251134Y-14018222D02*
X14260658Y-13999174D01*
X14260658Y-13999174D02*
X14279705Y-13989650D01*
X14279705Y-13989650D02*
X14308277Y-13989650D01*
X14308277Y-13989650D02*
X14327324Y-13999174D01*
X14327324Y-13999174D02*
X14336848Y-14018222D01*
X14336848Y-14018222D02*
X14336848Y-14122984D01*
X14432086Y-14122984D02*
X14432086Y-13989650D01*
X14432086Y-14008698D02*
X14441610Y-13999174D01*
X14441610Y-13999174D02*
X14460658Y-13989650D01*
X14460658Y-13989650D02*
X14489229Y-13989650D01*
X14489229Y-13989650D02*
X14508277Y-13999174D01*
X14508277Y-13999174D02*
X14517801Y-14018222D01*
X14517801Y-14018222D02*
X14517801Y-14122984D01*
X14517801Y-14018222D02*
X14527324Y-13999174D01*
X14527324Y-13999174D02*
X14546372Y-13989650D01*
X14546372Y-13989650D02*
X14574943Y-13989650D01*
X14574943Y-13989650D02*
X14593991Y-13999174D01*
X14593991Y-13999174D02*
X14603515Y-14018222D01*
X14603515Y-14018222D02*
X14603515Y-14122984D01*
X14993991Y-13913460D02*
X14822563Y-14170603D01*
X15251134Y-13922984D02*
X15270182Y-13922984D01*
X15270182Y-13922984D02*
X15289229Y-13932508D01*
X15289229Y-13932508D02*
X15298753Y-13942031D01*
X15298753Y-13942031D02*
X15308277Y-13961079D01*
X15308277Y-13961079D02*
X15317801Y-13999174D01*
X15317801Y-13999174D02*
X15317801Y-14046793D01*
X15317801Y-14046793D02*
X15308277Y-14084888D01*
X15308277Y-14084888D02*
X15298753Y-14103936D01*
X15298753Y-14103936D02*
X15289229Y-14113460D01*
X15289229Y-14113460D02*
X15270182Y-14122984D01*
X15270182Y-14122984D02*
X15251134Y-14122984D01*
X15251134Y-14122984D02*
X15232086Y-14113460D01*
X15232086Y-14113460D02*
X15222563Y-14103936D01*
X15222563Y-14103936D02*
X15213039Y-14084888D01*
X15213039Y-14084888D02*
X15203515Y-14046793D01*
X15203515Y-14046793D02*
X15203515Y-13999174D01*
X15203515Y-13999174D02*
X15213039Y-13961079D01*
X15213039Y-13961079D02*
X15222563Y-13942031D01*
X15222563Y-13942031D02*
X15232086Y-13932508D01*
X15232086Y-13932508D02*
X15251134Y-13922984D01*
X15403515Y-14103936D02*
X15413039Y-14113460D01*
X15413039Y-14113460D02*
X15403515Y-14122984D01*
X15403515Y-14122984D02*
X15393991Y-14113460D01*
X15393991Y-14113460D02*
X15403515Y-14103936D01*
X15403515Y-14103936D02*
X15403515Y-14122984D01*
X15536848Y-13922984D02*
X15555896Y-13922984D01*
X15555896Y-13922984D02*
X15574944Y-13932508D01*
X15574944Y-13932508D02*
X15584467Y-13942031D01*
X15584467Y-13942031D02*
X15593991Y-13961079D01*
X15593991Y-13961079D02*
X15603515Y-13999174D01*
X15603515Y-13999174D02*
X15603515Y-14046793D01*
X15603515Y-14046793D02*
X15593991Y-14084888D01*
X15593991Y-14084888D02*
X15584467Y-14103936D01*
X15584467Y-14103936D02*
X15574944Y-14113460D01*
X15574944Y-14113460D02*
X15555896Y-14122984D01*
X15555896Y-14122984D02*
X15536848Y-14122984D01*
X15536848Y-14122984D02*
X15517801Y-14113460D01*
X15517801Y-14113460D02*
X15508277Y-14103936D01*
X15508277Y-14103936D02*
X15498753Y-14084888D01*
X15498753Y-14084888D02*
X15489229Y-14046793D01*
X15489229Y-14046793D02*
X15489229Y-13999174D01*
X15489229Y-13999174D02*
X15498753Y-13961079D01*
X15498753Y-13961079D02*
X15508277Y-13942031D01*
X15508277Y-13942031D02*
X15517801Y-13932508D01*
X15517801Y-13932508D02*
X15536848Y-13922984D01*
X15670182Y-13922984D02*
X15793991Y-13922984D01*
X15793991Y-13922984D02*
X15727325Y-13999174D01*
X15727325Y-13999174D02*
X15755896Y-13999174D01*
X15755896Y-13999174D02*
X15774944Y-14008698D01*
X15774944Y-14008698D02*
X15784467Y-14018222D01*
X15784467Y-14018222D02*
X15793991Y-14037269D01*
X15793991Y-14037269D02*
X15793991Y-14084888D01*
X15793991Y-14084888D02*
X15784467Y-14103936D01*
X15784467Y-14103936D02*
X15774944Y-14113460D01*
X15774944Y-14113460D02*
X15755896Y-14122984D01*
X15755896Y-14122984D02*
X15698753Y-14122984D01*
X15698753Y-14122984D02*
X15679706Y-14113460D01*
X15679706Y-14113460D02*
X15670182Y-14103936D01*
X15974944Y-13922984D02*
X15879706Y-13922984D01*
X15879706Y-13922984D02*
X15870182Y-14018222D01*
X15870182Y-14018222D02*
X15879706Y-14008698D01*
X15879706Y-14008698D02*
X15898753Y-13999174D01*
X15898753Y-13999174D02*
X15946372Y-13999174D01*
X15946372Y-13999174D02*
X15965420Y-14008698D01*
X15965420Y-14008698D02*
X15974944Y-14018222D01*
X15974944Y-14018222D02*
X15984467Y-14037269D01*
X15984467Y-14037269D02*
X15984467Y-14084888D01*
X15984467Y-14084888D02*
X15974944Y-14103936D01*
X15974944Y-14103936D02*
X15965420Y-14113460D01*
X15965420Y-14113460D02*
X15946372Y-14122984D01*
X15946372Y-14122984D02*
X15898753Y-14122984D01*
X15898753Y-14122984D02*
X15879706Y-14113460D01*
X15879706Y-14113460D02*
X15870182Y-14103936D01*
X16155896Y-13989650D02*
X16155896Y-14122984D01*
X16108277Y-13913460D02*
X16060658Y-14056317D01*
X16060658Y-14056317D02*
X16184467Y-14056317D01*
X16251134Y-13922984D02*
X16251134Y-13961079D01*
X16327325Y-13922984D02*
X16327325Y-13961079D01*
X16622563Y-14199174D02*
X16613039Y-14189650D01*
X16613039Y-14189650D02*
X16593991Y-14161079D01*
X16593991Y-14161079D02*
X16584468Y-14142031D01*
X16584468Y-14142031D02*
X16574944Y-14113460D01*
X16574944Y-14113460D02*
X16565420Y-14065841D01*
X16565420Y-14065841D02*
X16565420Y-14027746D01*
X16565420Y-14027746D02*
X16574944Y-13980127D01*
X16574944Y-13980127D02*
X16584468Y-13951555D01*
X16584468Y-13951555D02*
X16593991Y-13932508D01*
X16593991Y-13932508D02*
X16613039Y-13903936D01*
X16613039Y-13903936D02*
X16622563Y-13894412D01*
X16679706Y-13922984D02*
X16803515Y-13922984D01*
X16803515Y-13922984D02*
X16736848Y-13999174D01*
X16736848Y-13999174D02*
X16765420Y-13999174D01*
X16765420Y-13999174D02*
X16784468Y-14008698D01*
X16784468Y-14008698D02*
X16793991Y-14018222D01*
X16793991Y-14018222D02*
X16803515Y-14037269D01*
X16803515Y-14037269D02*
X16803515Y-14084888D01*
X16803515Y-14084888D02*
X16793991Y-14103936D01*
X16793991Y-14103936D02*
X16784468Y-14113460D01*
X16784468Y-14113460D02*
X16765420Y-14122984D01*
X16765420Y-14122984D02*
X16708277Y-14122984D01*
X16708277Y-14122984D02*
X16689229Y-14113460D01*
X16689229Y-14113460D02*
X16679706Y-14103936D01*
X16917801Y-14008698D02*
X16898753Y-13999174D01*
X16898753Y-13999174D02*
X16889230Y-13989650D01*
X16889230Y-13989650D02*
X16879706Y-13970603D01*
X16879706Y-13970603D02*
X16879706Y-13961079D01*
X16879706Y-13961079D02*
X16889230Y-13942031D01*
X16889230Y-13942031D02*
X16898753Y-13932508D01*
X16898753Y-13932508D02*
X16917801Y-13922984D01*
X16917801Y-13922984D02*
X16955896Y-13922984D01*
X16955896Y-13922984D02*
X16974944Y-13932508D01*
X16974944Y-13932508D02*
X16984468Y-13942031D01*
X16984468Y-13942031D02*
X16993991Y-13961079D01*
X16993991Y-13961079D02*
X16993991Y-13970603D01*
X16993991Y-13970603D02*
X16984468Y-13989650D01*
X16984468Y-13989650D02*
X16974944Y-13999174D01*
X16974944Y-13999174D02*
X16955896Y-14008698D01*
X16955896Y-14008698D02*
X16917801Y-14008698D01*
X16917801Y-14008698D02*
X16898753Y-14018222D01*
X16898753Y-14018222D02*
X16889230Y-14027746D01*
X16889230Y-14027746D02*
X16879706Y-14046793D01*
X16879706Y-14046793D02*
X16879706Y-14084888D01*
X16879706Y-14084888D02*
X16889230Y-14103936D01*
X16889230Y-14103936D02*
X16898753Y-14113460D01*
X16898753Y-14113460D02*
X16917801Y-14122984D01*
X16917801Y-14122984D02*
X16955896Y-14122984D01*
X16955896Y-14122984D02*
X16974944Y-14113460D01*
X16974944Y-14113460D02*
X16984468Y-14103936D01*
X16984468Y-14103936D02*
X16993991Y-14084888D01*
X16993991Y-14084888D02*
X16993991Y-14046793D01*
X16993991Y-14046793D02*
X16984468Y-14027746D01*
X16984468Y-14027746D02*
X16974944Y-14018222D01*
X16974944Y-14018222D02*
X16955896Y-14008698D01*
X17232087Y-14122984D02*
X17232087Y-13922984D01*
X17317801Y-14122984D02*
X17317801Y-14018222D01*
X17317801Y-14018222D02*
X17308277Y-13999174D01*
X17308277Y-13999174D02*
X17289230Y-13989650D01*
X17289230Y-13989650D02*
X17260658Y-13989650D01*
X17260658Y-13989650D02*
X17241611Y-13999174D01*
X17241611Y-13999174D02*
X17232087Y-14008698D01*
X17441611Y-14122984D02*
X17422563Y-14113460D01*
X17422563Y-14113460D02*
X17413039Y-14103936D01*
X17413039Y-14103936D02*
X17403515Y-14084888D01*
X17403515Y-14084888D02*
X17403515Y-14027746D01*
X17403515Y-14027746D02*
X17413039Y-14008698D01*
X17413039Y-14008698D02*
X17422563Y-13999174D01*
X17422563Y-13999174D02*
X17441611Y-13989650D01*
X17441611Y-13989650D02*
X17470182Y-13989650D01*
X17470182Y-13989650D02*
X17489230Y-13999174D01*
X17489230Y-13999174D02*
X17498753Y-14008698D01*
X17498753Y-14008698D02*
X17508277Y-14027746D01*
X17508277Y-14027746D02*
X17508277Y-14084888D01*
X17508277Y-14084888D02*
X17498753Y-14103936D01*
X17498753Y-14103936D02*
X17489230Y-14113460D01*
X17489230Y-14113460D02*
X17470182Y-14122984D01*
X17470182Y-14122984D02*
X17441611Y-14122984D01*
X17622563Y-14122984D02*
X17603515Y-14113460D01*
X17603515Y-14113460D02*
X17593992Y-14094412D01*
X17593992Y-14094412D02*
X17593992Y-13922984D01*
X17774944Y-14113460D02*
X17755896Y-14122984D01*
X17755896Y-14122984D02*
X17717801Y-14122984D01*
X17717801Y-14122984D02*
X17698753Y-14113460D01*
X17698753Y-14113460D02*
X17689230Y-14094412D01*
X17689230Y-14094412D02*
X17689230Y-14018222D01*
X17689230Y-14018222D02*
X17698753Y-13999174D01*
X17698753Y-13999174D02*
X17717801Y-13989650D01*
X17717801Y-13989650D02*
X17755896Y-13989650D01*
X17755896Y-13989650D02*
X17774944Y-13999174D01*
X17774944Y-13999174D02*
X17784468Y-14018222D01*
X17784468Y-14018222D02*
X17784468Y-14037269D01*
X17784468Y-14037269D02*
X17689230Y-14056317D01*
X17860658Y-14113460D02*
X17879706Y-14122984D01*
X17879706Y-14122984D02*
X17917801Y-14122984D01*
X17917801Y-14122984D02*
X17936849Y-14113460D01*
X17936849Y-14113460D02*
X17946373Y-14094412D01*
X17946373Y-14094412D02*
X17946373Y-14084888D01*
X17946373Y-14084888D02*
X17936849Y-14065841D01*
X17936849Y-14065841D02*
X17917801Y-14056317D01*
X17917801Y-14056317D02*
X17889230Y-14056317D01*
X17889230Y-14056317D02*
X17870182Y-14046793D01*
X17870182Y-14046793D02*
X17860658Y-14027746D01*
X17860658Y-14027746D02*
X17860658Y-14018222D01*
X17860658Y-14018222D02*
X17870182Y-13999174D01*
X17870182Y-13999174D02*
X17889230Y-13989650D01*
X17889230Y-13989650D02*
X17917801Y-13989650D01*
X17917801Y-13989650D02*
X17936849Y-13999174D01*
X18013039Y-14199174D02*
X18022563Y-14189650D01*
X18022563Y-14189650D02*
X18041611Y-14161079D01*
X18041611Y-14161079D02*
X18051134Y-14142031D01*
X18051134Y-14142031D02*
X18060658Y-14113460D01*
X18060658Y-14113460D02*
X18070182Y-14065841D01*
X18070182Y-14065841D02*
X18070182Y-14027746D01*
X18070182Y-14027746D02*
X18060658Y-13980127D01*
X18060658Y-13980127D02*
X18051134Y-13951555D01*
X18051134Y-13951555D02*
X18041611Y-13932508D01*
X18041611Y-13932508D02*
X18022563Y-13903936D01*
X18022563Y-13903936D02*
X18013039Y-13894412D01*
D12*
X12997500Y-14245500D02*
X12997500Y-14345500D01*
X12947500Y-14295500D02*
X13047500Y-14295500D01*
D11*
X13413039Y-14386984D02*
X13298753Y-14386984D01*
X13355896Y-14386984D02*
X13355896Y-14186984D01*
X13355896Y-14186984D02*
X13336848Y-14215555D01*
X13336848Y-14215555D02*
X13317801Y-14234603D01*
X13317801Y-14234603D02*
X13298753Y-14244127D01*
X13498753Y-14367936D02*
X13508277Y-14377460D01*
X13508277Y-14377460D02*
X13498753Y-14386984D01*
X13498753Y-14386984D02*
X13489229Y-14377460D01*
X13489229Y-14377460D02*
X13498753Y-14367936D01*
X13498753Y-14367936D02*
X13498753Y-14386984D01*
X13632086Y-14186984D02*
X13651134Y-14186984D01*
X13651134Y-14186984D02*
X13670182Y-14196508D01*
X13670182Y-14196508D02*
X13679705Y-14206031D01*
X13679705Y-14206031D02*
X13689229Y-14225079D01*
X13689229Y-14225079D02*
X13698753Y-14263174D01*
X13698753Y-14263174D02*
X13698753Y-14310793D01*
X13698753Y-14310793D02*
X13689229Y-14348888D01*
X13689229Y-14348888D02*
X13679705Y-14367936D01*
X13679705Y-14367936D02*
X13670182Y-14377460D01*
X13670182Y-14377460D02*
X13651134Y-14386984D01*
X13651134Y-14386984D02*
X13632086Y-14386984D01*
X13632086Y-14386984D02*
X13613039Y-14377460D01*
X13613039Y-14377460D02*
X13603515Y-14367936D01*
X13603515Y-14367936D02*
X13593991Y-14348888D01*
X13593991Y-14348888D02*
X13584467Y-14310793D01*
X13584467Y-14310793D02*
X13584467Y-14263174D01*
X13584467Y-14263174D02*
X13593991Y-14225079D01*
X13593991Y-14225079D02*
X13603515Y-14206031D01*
X13603515Y-14206031D02*
X13613039Y-14196508D01*
X13613039Y-14196508D02*
X13632086Y-14186984D01*
X13822562Y-14186984D02*
X13841610Y-14186984D01*
X13841610Y-14186984D02*
X13860658Y-14196508D01*
X13860658Y-14196508D02*
X13870182Y-14206031D01*
X13870182Y-14206031D02*
X13879705Y-14225079D01*
X13879705Y-14225079D02*
X13889229Y-14263174D01*
X13889229Y-14263174D02*
X13889229Y-14310793D01*
X13889229Y-14310793D02*
X13879705Y-14348888D01*
X13879705Y-14348888D02*
X13870182Y-14367936D01*
X13870182Y-14367936D02*
X13860658Y-14377460D01*
X13860658Y-14377460D02*
X13841610Y-14386984D01*
X13841610Y-14386984D02*
X13822562Y-14386984D01*
X13822562Y-14386984D02*
X13803515Y-14377460D01*
X13803515Y-14377460D02*
X13793991Y-14367936D01*
X13793991Y-14367936D02*
X13784467Y-14348888D01*
X13784467Y-14348888D02*
X13774943Y-14310793D01*
X13774943Y-14310793D02*
X13774943Y-14263174D01*
X13774943Y-14263174D02*
X13784467Y-14225079D01*
X13784467Y-14225079D02*
X13793991Y-14206031D01*
X13793991Y-14206031D02*
X13803515Y-14196508D01*
X13803515Y-14196508D02*
X13822562Y-14186984D01*
X14013039Y-14186984D02*
X14032086Y-14186984D01*
X14032086Y-14186984D02*
X14051134Y-14196508D01*
X14051134Y-14196508D02*
X14060658Y-14206031D01*
X14060658Y-14206031D02*
X14070182Y-14225079D01*
X14070182Y-14225079D02*
X14079705Y-14263174D01*
X14079705Y-14263174D02*
X14079705Y-14310793D01*
X14079705Y-14310793D02*
X14070182Y-14348888D01*
X14070182Y-14348888D02*
X14060658Y-14367936D01*
X14060658Y-14367936D02*
X14051134Y-14377460D01*
X14051134Y-14377460D02*
X14032086Y-14386984D01*
X14032086Y-14386984D02*
X14013039Y-14386984D01*
X14013039Y-14386984D02*
X13993991Y-14377460D01*
X13993991Y-14377460D02*
X13984467Y-14367936D01*
X13984467Y-14367936D02*
X13974943Y-14348888D01*
X13974943Y-14348888D02*
X13965420Y-14310793D01*
X13965420Y-14310793D02*
X13965420Y-14263174D01*
X13965420Y-14263174D02*
X13974943Y-14225079D01*
X13974943Y-14225079D02*
X13984467Y-14206031D01*
X13984467Y-14206031D02*
X13993991Y-14196508D01*
X13993991Y-14196508D02*
X14013039Y-14186984D01*
X14165420Y-14386984D02*
X14165420Y-14253650D01*
X14165420Y-14272698D02*
X14174943Y-14263174D01*
X14174943Y-14263174D02*
X14193991Y-14253650D01*
X14193991Y-14253650D02*
X14222563Y-14253650D01*
X14222563Y-14253650D02*
X14241610Y-14263174D01*
X14241610Y-14263174D02*
X14251134Y-14282222D01*
X14251134Y-14282222D02*
X14251134Y-14386984D01*
X14251134Y-14282222D02*
X14260658Y-14263174D01*
X14260658Y-14263174D02*
X14279705Y-14253650D01*
X14279705Y-14253650D02*
X14308277Y-14253650D01*
X14308277Y-14253650D02*
X14327324Y-14263174D01*
X14327324Y-14263174D02*
X14336848Y-14282222D01*
X14336848Y-14282222D02*
X14336848Y-14386984D01*
X14432086Y-14386984D02*
X14432086Y-14253650D01*
X14432086Y-14272698D02*
X14441610Y-14263174D01*
X14441610Y-14263174D02*
X14460658Y-14253650D01*
X14460658Y-14253650D02*
X14489229Y-14253650D01*
X14489229Y-14253650D02*
X14508277Y-14263174D01*
X14508277Y-14263174D02*
X14517801Y-14282222D01*
X14517801Y-14282222D02*
X14517801Y-14386984D01*
X14517801Y-14282222D02*
X14527324Y-14263174D01*
X14527324Y-14263174D02*
X14546372Y-14253650D01*
X14546372Y-14253650D02*
X14574943Y-14253650D01*
X14574943Y-14253650D02*
X14593991Y-14263174D01*
X14593991Y-14263174D02*
X14603515Y-14282222D01*
X14603515Y-14282222D02*
X14603515Y-14386984D01*
X14993991Y-14177460D02*
X14822563Y-14434603D01*
X15251134Y-14186984D02*
X15270182Y-14186984D01*
X15270182Y-14186984D02*
X15289229Y-14196508D01*
X15289229Y-14196508D02*
X15298753Y-14206031D01*
X15298753Y-14206031D02*
X15308277Y-14225079D01*
X15308277Y-14225079D02*
X15317801Y-14263174D01*
X15317801Y-14263174D02*
X15317801Y-14310793D01*
X15317801Y-14310793D02*
X15308277Y-14348888D01*
X15308277Y-14348888D02*
X15298753Y-14367936D01*
X15298753Y-14367936D02*
X15289229Y-14377460D01*
X15289229Y-14377460D02*
X15270182Y-14386984D01*
X15270182Y-14386984D02*
X15251134Y-14386984D01*
X15251134Y-14386984D02*
X15232086Y-14377460D01*
X15232086Y-14377460D02*
X15222563Y-14367936D01*
X15222563Y-14367936D02*
X15213039Y-14348888D01*
X15213039Y-14348888D02*
X15203515Y-14310793D01*
X15203515Y-14310793D02*
X15203515Y-14263174D01*
X15203515Y-14263174D02*
X15213039Y-14225079D01*
X15213039Y-14225079D02*
X15222563Y-14206031D01*
X15222563Y-14206031D02*
X15232086Y-14196508D01*
X15232086Y-14196508D02*
X15251134Y-14186984D01*
X15403515Y-14367936D02*
X15413039Y-14377460D01*
X15413039Y-14377460D02*
X15403515Y-14386984D01*
X15403515Y-14386984D02*
X15393991Y-14377460D01*
X15393991Y-14377460D02*
X15403515Y-14367936D01*
X15403515Y-14367936D02*
X15403515Y-14386984D01*
X15536848Y-14186984D02*
X15555896Y-14186984D01*
X15555896Y-14186984D02*
X15574944Y-14196508D01*
X15574944Y-14196508D02*
X15584467Y-14206031D01*
X15584467Y-14206031D02*
X15593991Y-14225079D01*
X15593991Y-14225079D02*
X15603515Y-14263174D01*
X15603515Y-14263174D02*
X15603515Y-14310793D01*
X15603515Y-14310793D02*
X15593991Y-14348888D01*
X15593991Y-14348888D02*
X15584467Y-14367936D01*
X15584467Y-14367936D02*
X15574944Y-14377460D01*
X15574944Y-14377460D02*
X15555896Y-14386984D01*
X15555896Y-14386984D02*
X15536848Y-14386984D01*
X15536848Y-14386984D02*
X15517801Y-14377460D01*
X15517801Y-14377460D02*
X15508277Y-14367936D01*
X15508277Y-14367936D02*
X15498753Y-14348888D01*
X15498753Y-14348888D02*
X15489229Y-14310793D01*
X15489229Y-14310793D02*
X15489229Y-14263174D01*
X15489229Y-14263174D02*
X15498753Y-14225079D01*
X15498753Y-14225079D02*
X15508277Y-14206031D01*
X15508277Y-14206031D02*
X15517801Y-14196508D01*
X15517801Y-14196508D02*
X15536848Y-14186984D01*
X15670182Y-14186984D02*
X15793991Y-14186984D01*
X15793991Y-14186984D02*
X15727325Y-14263174D01*
X15727325Y-14263174D02*
X15755896Y-14263174D01*
X15755896Y-14263174D02*
X15774944Y-14272698D01*
X15774944Y-14272698D02*
X15784467Y-14282222D01*
X15784467Y-14282222D02*
X15793991Y-14301269D01*
X15793991Y-14301269D02*
X15793991Y-14348888D01*
X15793991Y-14348888D02*
X15784467Y-14367936D01*
X15784467Y-14367936D02*
X15774944Y-14377460D01*
X15774944Y-14377460D02*
X15755896Y-14386984D01*
X15755896Y-14386984D02*
X15698753Y-14386984D01*
X15698753Y-14386984D02*
X15679706Y-14377460D01*
X15679706Y-14377460D02*
X15670182Y-14367936D01*
X15889229Y-14386984D02*
X15927325Y-14386984D01*
X15927325Y-14386984D02*
X15946372Y-14377460D01*
X15946372Y-14377460D02*
X15955896Y-14367936D01*
X15955896Y-14367936D02*
X15974944Y-14339365D01*
X15974944Y-14339365D02*
X15984467Y-14301269D01*
X15984467Y-14301269D02*
X15984467Y-14225079D01*
X15984467Y-14225079D02*
X15974944Y-14206031D01*
X15974944Y-14206031D02*
X15965420Y-14196508D01*
X15965420Y-14196508D02*
X15946372Y-14186984D01*
X15946372Y-14186984D02*
X15908277Y-14186984D01*
X15908277Y-14186984D02*
X15889229Y-14196508D01*
X15889229Y-14196508D02*
X15879706Y-14206031D01*
X15879706Y-14206031D02*
X15870182Y-14225079D01*
X15870182Y-14225079D02*
X15870182Y-14272698D01*
X15870182Y-14272698D02*
X15879706Y-14291746D01*
X15879706Y-14291746D02*
X15889229Y-14301269D01*
X15889229Y-14301269D02*
X15908277Y-14310793D01*
X15908277Y-14310793D02*
X15946372Y-14310793D01*
X15946372Y-14310793D02*
X15965420Y-14301269D01*
X15965420Y-14301269D02*
X15974944Y-14291746D01*
X15974944Y-14291746D02*
X15984467Y-14272698D01*
X16155896Y-14253650D02*
X16155896Y-14386984D01*
X16108277Y-14177460D02*
X16060658Y-14320317D01*
X16060658Y-14320317D02*
X16184467Y-14320317D01*
X16251134Y-14186984D02*
X16251134Y-14225079D01*
X16327325Y-14186984D02*
X16327325Y-14225079D01*
X16622563Y-14463174D02*
X16613039Y-14453650D01*
X16613039Y-14453650D02*
X16593991Y-14425079D01*
X16593991Y-14425079D02*
X16584468Y-14406031D01*
X16584468Y-14406031D02*
X16574944Y-14377460D01*
X16574944Y-14377460D02*
X16565420Y-14329841D01*
X16565420Y-14329841D02*
X16565420Y-14291746D01*
X16565420Y-14291746D02*
X16574944Y-14244127D01*
X16574944Y-14244127D02*
X16584468Y-14215555D01*
X16584468Y-14215555D02*
X16593991Y-14196508D01*
X16593991Y-14196508D02*
X16613039Y-14167936D01*
X16613039Y-14167936D02*
X16622563Y-14158412D01*
X16679706Y-14186984D02*
X16813039Y-14186984D01*
X16813039Y-14186984D02*
X16727325Y-14386984D01*
X16974944Y-14186984D02*
X16936849Y-14186984D01*
X16936849Y-14186984D02*
X16917801Y-14196508D01*
X16917801Y-14196508D02*
X16908277Y-14206031D01*
X16908277Y-14206031D02*
X16889230Y-14234603D01*
X16889230Y-14234603D02*
X16879706Y-14272698D01*
X16879706Y-14272698D02*
X16879706Y-14348888D01*
X16879706Y-14348888D02*
X16889230Y-14367936D01*
X16889230Y-14367936D02*
X16898753Y-14377460D01*
X16898753Y-14377460D02*
X16917801Y-14386984D01*
X16917801Y-14386984D02*
X16955896Y-14386984D01*
X16955896Y-14386984D02*
X16974944Y-14377460D01*
X16974944Y-14377460D02*
X16984468Y-14367936D01*
X16984468Y-14367936D02*
X16993991Y-14348888D01*
X16993991Y-14348888D02*
X16993991Y-14301269D01*
X16993991Y-14301269D02*
X16984468Y-14282222D01*
X16984468Y-14282222D02*
X16974944Y-14272698D01*
X16974944Y-14272698D02*
X16955896Y-14263174D01*
X16955896Y-14263174D02*
X16917801Y-14263174D01*
X16917801Y-14263174D02*
X16898753Y-14272698D01*
X16898753Y-14272698D02*
X16889230Y-14282222D01*
X16889230Y-14282222D02*
X16879706Y-14301269D01*
X17232087Y-14386984D02*
X17232087Y-14186984D01*
X17317801Y-14386984D02*
X17317801Y-14282222D01*
X17317801Y-14282222D02*
X17308277Y-14263174D01*
X17308277Y-14263174D02*
X17289230Y-14253650D01*
X17289230Y-14253650D02*
X17260658Y-14253650D01*
X17260658Y-14253650D02*
X17241611Y-14263174D01*
X17241611Y-14263174D02*
X17232087Y-14272698D01*
X17441611Y-14386984D02*
X17422563Y-14377460D01*
X17422563Y-14377460D02*
X17413039Y-14367936D01*
X17413039Y-14367936D02*
X17403515Y-14348888D01*
X17403515Y-14348888D02*
X17403515Y-14291746D01*
X17403515Y-14291746D02*
X17413039Y-14272698D01*
X17413039Y-14272698D02*
X17422563Y-14263174D01*
X17422563Y-14263174D02*
X17441611Y-14253650D01*
X17441611Y-14253650D02*
X17470182Y-14253650D01*
X17470182Y-14253650D02*
X17489230Y-14263174D01*
X17489230Y-14263174D02*
X17498753Y-14272698D01*
X17498753Y-14272698D02*
X17508277Y-14291746D01*
X17508277Y-14291746D02*
X17508277Y-14348888D01*
X17508277Y-14348888D02*
X17498753Y-14367936D01*
X17498753Y-14367936D02*
X17489230Y-14377460D01*
X17489230Y-14377460D02*
X17470182Y-14386984D01*
X17470182Y-14386984D02*
X17441611Y-14386984D01*
X17622563Y-14386984D02*
X17603515Y-14377460D01*
X17603515Y-14377460D02*
X17593992Y-14358412D01*
X17593992Y-14358412D02*
X17593992Y-14186984D01*
X17774944Y-14377460D02*
X17755896Y-14386984D01*
X17755896Y-14386984D02*
X17717801Y-14386984D01*
X17717801Y-14386984D02*
X17698753Y-14377460D01*
X17698753Y-14377460D02*
X17689230Y-14358412D01*
X17689230Y-14358412D02*
X17689230Y-14282222D01*
X17689230Y-14282222D02*
X17698753Y-14263174D01*
X17698753Y-14263174D02*
X17717801Y-14253650D01*
X17717801Y-14253650D02*
X17755896Y-14253650D01*
X17755896Y-14253650D02*
X17774944Y-14263174D01*
X17774944Y-14263174D02*
X17784468Y-14282222D01*
X17784468Y-14282222D02*
X17784468Y-14301269D01*
X17784468Y-14301269D02*
X17689230Y-14320317D01*
X17860658Y-14377460D02*
X17879706Y-14386984D01*
X17879706Y-14386984D02*
X17917801Y-14386984D01*
X17917801Y-14386984D02*
X17936849Y-14377460D01*
X17936849Y-14377460D02*
X17946373Y-14358412D01*
X17946373Y-14358412D02*
X17946373Y-14348888D01*
X17946373Y-14348888D02*
X17936849Y-14329841D01*
X17936849Y-14329841D02*
X17917801Y-14320317D01*
X17917801Y-14320317D02*
X17889230Y-14320317D01*
X17889230Y-14320317D02*
X17870182Y-14310793D01*
X17870182Y-14310793D02*
X17860658Y-14291746D01*
X17860658Y-14291746D02*
X17860658Y-14282222D01*
X17860658Y-14282222D02*
X17870182Y-14263174D01*
X17870182Y-14263174D02*
X17889230Y-14253650D01*
X17889230Y-14253650D02*
X17917801Y-14253650D01*
X17917801Y-14253650D02*
X17936849Y-14263174D01*
X18013039Y-14463174D02*
X18022563Y-14453650D01*
X18022563Y-14453650D02*
X18041611Y-14425079D01*
X18041611Y-14425079D02*
X18051134Y-14406031D01*
X18051134Y-14406031D02*
X18060658Y-14377460D01*
X18060658Y-14377460D02*
X18070182Y-14329841D01*
X18070182Y-14329841D02*
X18070182Y-14291746D01*
X18070182Y-14291746D02*
X18060658Y-14244127D01*
X18060658Y-14244127D02*
X18051134Y-14215555D01*
X18051134Y-14215555D02*
X18041611Y-14196508D01*
X18041611Y-14196508D02*
X18022563Y-14167936D01*
X18022563Y-14167936D02*
X18013039Y-14158412D01*
M02*
