%TF.GenerationSoftware,KiCad,Pcbnew,8.0.4-8.0.4-0~ubuntu24.04.1*%
%TF.CreationDate,2024-09-03T17:30:12+09:00*%
%TF.ProjectId,ESP32,45535033-322e-46b6-9963-61645f706362,rev?*%
%TF.SameCoordinates,Original*%
%TF.FileFunction,Copper,L1,Top*%
%TF.FilePolarity,Positive*%
%FSLAX46Y46*%
G04 Gerber Fmt 4.6, Leading zero omitted, Abs format (unit mm)*
G04 Created by KiCad (PCBNEW 8.0.4-8.0.4-0~ubuntu24.04.1) date 2024-09-03 17:30:12*
%MOMM*%
%LPD*%
G01*
G04 APERTURE LIST*
%TA.AperFunction,ComponentPad*%
%ADD10R,1.700000X1.700000*%
%TD*%
%TA.AperFunction,ComponentPad*%
%ADD11O,1.700000X1.700000*%
%TD*%
%TA.AperFunction,ComponentPad*%
%ADD12R,1.408000X1.408000*%
%TD*%
%TA.AperFunction,ComponentPad*%
%ADD13C,1.408000*%
%TD*%
%TA.AperFunction,ComponentPad*%
%ADD14C,1.700000*%
%TD*%
%TA.AperFunction,ViaPad*%
%ADD15C,0.600000*%
%TD*%
%TA.AperFunction,Conductor*%
%ADD16C,0.500000*%
%TD*%
G04 APERTURE END LIST*
D10*
%TO.P,J9,1,Pin_1*%
%TO.N,GND1*%
X166250000Y-124790000D03*
D11*
%TO.P,J9,2,Pin_2*%
%TO.N,Net-(J9-Pin_2)*%
X166250000Y-122250000D03*
%TD*%
D10*
%TO.P,J8,1,Pin_1*%
%TO.N,Net-(J8-Pin_1)*%
X166250000Y-118620000D03*
D11*
%TO.P,J8,2,Pin_2*%
%TO.N,Net-(J8-Pin_2)*%
X166250000Y-116080000D03*
%TO.P,J8,3,Pin_3*%
%TO.N,Net-(J8-Pin_3)*%
X166250000Y-113540000D03*
%TO.P,J8,4,Pin_4*%
%TO.N,Net-(J8-Pin_4)*%
X166250000Y-111000000D03*
%TD*%
D10*
%TO.P,J1,1,Pin_1*%
%TO.N,+3V3*%
X156910000Y-76500000D03*
D11*
%TO.P,J1,2,Pin_2*%
%TO.N,GND1*%
X154370000Y-76500000D03*
%TO.P,J1,3,Pin_3*%
%TO.N,SDA*%
X151830000Y-76500000D03*
%TO.P,J1,4,Pin_4*%
%TO.N,SCL*%
X149290000Y-76500000D03*
%TO.P,J1,5,Pin_5*%
%TO.N,unconnected-(J1-Pin_5-Pad5)*%
X146750000Y-76500000D03*
%TO.P,J1,6,Pin_6*%
%TO.N,VCC1*%
X144210000Y-76500000D03*
%TD*%
D10*
%TO.P,J15,1,Pin_1*%
%TO.N,Net-(J15-Pin_1)*%
X140500000Y-113250000D03*
D11*
%TO.P,J15,2,Pin_2*%
%TO.N,Net-(J15-Pin_2)*%
X140500000Y-115790000D03*
%TO.P,J15,3,Pin_3*%
%TO.N,Net-(J15-Pin_3)*%
X140500000Y-118330000D03*
%TO.P,J15,4,Pin_4*%
%TO.N,Net-(J15-Pin_4)*%
X140500000Y-120870000D03*
%TD*%
D10*
%TO.P,J7,1,Pin_1*%
%TO.N,VIN*%
X134000000Y-127500000D03*
D11*
%TO.P,J7,2,Pin_2*%
%TO.N,GND1*%
X134000000Y-124960000D03*
%TO.P,J7,3,Pin_3*%
%TO.N,VCC5*%
X134000000Y-122420000D03*
%TO.P,J7,4,Pin_4*%
%TO.N,GND1*%
X134000000Y-119880000D03*
%TO.P,J7,5,Pin_5*%
%TO.N,VCC4*%
X134000000Y-117340000D03*
%TO.P,J7,6,Pin_6*%
%TO.N,GND1*%
X134000000Y-114800000D03*
%TO.P,J7,7,Pin_7*%
X134000000Y-112260000D03*
%TO.P,J7,8,Pin_8*%
%TO.N,VCC3*%
X134000000Y-109720000D03*
%TO.P,J7,9,Pin_9*%
%TO.N,GND1*%
X134000000Y-107180000D03*
%TO.P,J7,10,Pin_10*%
%TO.N,VCC2*%
X134000000Y-104640000D03*
%TO.P,J7,11,Pin_11*%
%TO.N,GND1*%
X134000000Y-102100000D03*
%TO.P,J7,12,Pin_12*%
%TO.N,VCC1*%
X134000000Y-99560000D03*
%TD*%
D10*
%TO.P,J5,1,Pin_1*%
%TO.N,+3V3*%
X156910000Y-126500000D03*
D11*
%TO.P,J5,2,Pin_2*%
%TO.N,GND1*%
X154370000Y-126500000D03*
%TO.P,J5,3,Pin_3*%
%TO.N,SDA*%
X151830000Y-126500000D03*
%TO.P,J5,4,Pin_4*%
%TO.N,SCL*%
X149290000Y-126500000D03*
%TO.P,J5,5,Pin_5*%
%TO.N,unconnected-(J5-Pin_5-Pad5)*%
X146750000Y-126500000D03*
%TO.P,J5,6,Pin_6*%
%TO.N,VCC5*%
X144210000Y-126500000D03*
%TD*%
D10*
%TO.P,J3,1,Pin_1*%
%TO.N,+3V3*%
X156910000Y-101500000D03*
D11*
%TO.P,J3,2,Pin_2*%
%TO.N,GND1*%
X154370000Y-101500000D03*
%TO.P,J3,3,Pin_3*%
%TO.N,SDA*%
X151830000Y-101500000D03*
%TO.P,J3,4,Pin_4*%
%TO.N,SCL*%
X149290000Y-101500000D03*
%TO.P,J3,5,Pin_5*%
%TO.N,unconnected-(J3-Pin_5-Pad5)*%
X146750000Y-101500000D03*
%TO.P,J3,6,Pin_6*%
%TO.N,VCC3*%
X144210000Y-101500000D03*
%TD*%
D10*
%TO.P,J13,1,Pin_1*%
%TO.N,Net-(J13-Pin_1)*%
X134000000Y-88200000D03*
D11*
%TO.P,J13,2,Pin_2*%
%TO.N,Net-(J13-Pin_2)*%
X134000000Y-90740000D03*
%TO.P,J13,3,Pin_3*%
%TO.N,Net-(J13-Pin_3)*%
X134000000Y-93280000D03*
%TO.P,J13,4,Pin_4*%
%TO.N,Net-(J13-Pin_4)*%
X134000000Y-95820000D03*
%TD*%
D10*
%TO.P,J6,1,Pin_1*%
%TO.N,Net-(J6-Pin_1)*%
X166250000Y-107370000D03*
D11*
%TO.P,J6,2,Pin_2*%
%TO.N,Net-(J6-Pin_2)*%
X166250000Y-104830000D03*
%TO.P,J6,3,Pin_3*%
%TO.N,Net-(J6-Pin_3)*%
X166250000Y-102290000D03*
%TO.P,J6,4,Pin_4*%
%TO.N,Net-(J6-Pin_4)*%
X166250000Y-99750000D03*
%TD*%
D10*
%TO.P,J4,1,Pin_1*%
%TO.N,+3V3*%
X156910000Y-114000000D03*
D11*
%TO.P,J4,2,Pin_2*%
%TO.N,GND1*%
X154370000Y-114000000D03*
%TO.P,J4,3,Pin_3*%
%TO.N,SDA*%
X151830000Y-114000000D03*
%TO.P,J4,4,Pin_4*%
%TO.N,SCL*%
X149290000Y-114000000D03*
%TO.P,J4,5,Pin_5*%
%TO.N,unconnected-(J4-Pin_5-Pad5)*%
X146750000Y-114000000D03*
%TO.P,J4,6,Pin_6*%
%TO.N,VCC4*%
X144210000Y-114000000D03*
%TD*%
D10*
%TO.P,J2,1,Pin_1*%
%TO.N,+3V3*%
X156910000Y-89000000D03*
D11*
%TO.P,J2,2,Pin_2*%
%TO.N,GND1*%
X154370000Y-89000000D03*
%TO.P,J2,3,Pin_3*%
%TO.N,SDA*%
X151830000Y-89000000D03*
%TO.P,J2,4,Pin_4*%
%TO.N,SCL*%
X149290000Y-89000000D03*
%TO.P,J2,5,Pin_5*%
%TO.N,unconnected-(J2-Pin_5-Pad5)*%
X146750000Y-89000000D03*
%TO.P,J2,6,Pin_6*%
%TO.N,VCC2*%
X144210000Y-89000000D03*
%TD*%
D10*
%TO.P,J16,1,Pin_1*%
%TO.N,Net-(J16-Pin_1)*%
X160000000Y-92580000D03*
D11*
%TO.P,J16,2,Pin_2*%
%TO.N,Net-(J16-Pin_2)*%
X160000000Y-90040000D03*
%TO.P,J16,3,Pin_3*%
%TO.N,Net-(J16-Pin_3)*%
X160000000Y-87500000D03*
%TO.P,J16,4,Pin_4*%
%TO.N,Net-(J16-Pin_4)*%
X160000000Y-84960000D03*
%TD*%
D12*
%TO.P,U1,J2_1,3V3*%
%TO.N,+3V3*%
X137485000Y-82015000D03*
D13*
%TO.P,U1,J2_2,EN*%
%TO.N,unconnected-(U1-EN-PadJ2_2)*%
X137485000Y-84555000D03*
%TO.P,U1,J2_3,SENSOR_VP*%
%TO.N,unconnected-(U1-SENSOR_VP-PadJ2_3)*%
X137485000Y-87095000D03*
%TO.P,U1,J2_4,SENSOR_VN*%
%TO.N,unconnected-(U1-SENSOR_VN-PadJ2_4)*%
X137485000Y-89635000D03*
%TO.P,U1,J2_5,IO34*%
%TO.N,Net-(J13-Pin_1)*%
X137485000Y-92175000D03*
%TO.P,U1,J2_6,IO35*%
%TO.N,Net-(J13-Pin_2)*%
X137485000Y-94715000D03*
%TO.P,U1,J2_7,IO32*%
%TO.N,Net-(J13-Pin_3)*%
X137485000Y-97255000D03*
%TO.P,U1,J2_8,IO33*%
%TO.N,Net-(J13-Pin_4)*%
X137485000Y-99795000D03*
%TO.P,U1,J2_9,IO25*%
%TO.N,Net-(J14-Pin_1)*%
X137485000Y-102335000D03*
%TO.P,U1,J2_10,IO26*%
%TO.N,Net-(J14-Pin_2)*%
X137485000Y-104875000D03*
%TO.P,U1,J2_11,IO27*%
%TO.N,Net-(J14-Pin_3)*%
X137485000Y-107415000D03*
%TO.P,U1,J2_12,IO14*%
%TO.N,Net-(J14-Pin_4)*%
X137485000Y-109955000D03*
%TO.P,U1,J2_13,IO12*%
%TO.N,Net-(J15-Pin_1)*%
X137485000Y-112495000D03*
%TO.P,U1,J2_14,GND_J2_14*%
%TO.N,Net-(J15-Pin_2)*%
X137485000Y-115035000D03*
%TO.P,U1,J2_15,IO13*%
%TO.N,Net-(J15-Pin_3)*%
X137485000Y-117575000D03*
%TO.P,U1,J2_16,SD2*%
%TO.N,Net-(J15-Pin_4)*%
X137485000Y-120115000D03*
%TO.P,U1,J2_17,SD3*%
%TO.N,unconnected-(U1-SD3-PadJ2_17)*%
X137485000Y-122655000D03*
%TO.P,U1,J2_18,CMD*%
%TO.N,unconnected-(U1-CMD-PadJ2_18)*%
X137485000Y-125195000D03*
%TO.P,U1,J2_19,EXT_5V*%
%TO.N,VIN*%
X137485000Y-127735000D03*
%TO.P,U1,J3_1,GND_J3_1*%
%TO.N,GND1*%
X162885000Y-82015000D03*
%TO.P,U1,J3_2,IO23*%
%TO.N,Net-(J16-Pin_4)*%
X162885000Y-84555000D03*
%TO.P,U1,J3_3,IO22*%
%TO.N,SCL*%
X162885000Y-87095000D03*
%TO.P,U1,J3_4,TXD0*%
%TO.N,Net-(J16-Pin_3)*%
X162885000Y-89635000D03*
%TO.P,U1,J3_5,RXD0*%
%TO.N,Net-(J16-Pin_2)*%
X162885000Y-92175000D03*
%TO.P,U1,J3_6,IO21*%
%TO.N,SDA*%
X162885000Y-94715000D03*
%TO.P,U1,J3_7,GND_J3_7*%
%TO.N,Net-(J16-Pin_1)*%
X162885000Y-97255000D03*
%TO.P,U1,J3_8,IO19*%
%TO.N,Net-(J6-Pin_4)*%
X162885000Y-99795000D03*
%TO.P,U1,J3_9,IO18*%
%TO.N,Net-(J6-Pin_3)*%
X162885000Y-102335000D03*
%TO.P,U1,J3_10,IO5*%
%TO.N,Net-(J6-Pin_2)*%
X162885000Y-104875000D03*
%TO.P,U1,J3_11,IO17*%
%TO.N,Net-(J6-Pin_1)*%
X162885000Y-107415000D03*
%TO.P,U1,J3_12,IO16*%
%TO.N,Net-(J8-Pin_4)*%
X162885000Y-109955000D03*
%TO.P,U1,J3_13,IO4*%
%TO.N,Net-(J8-Pin_3)*%
X162885000Y-112495000D03*
%TO.P,U1,J3_14,IO0*%
%TO.N,Net-(J9-Pin_2)*%
X162885000Y-115035000D03*
%TO.P,U1,J3_15,IO2*%
%TO.N,Net-(J8-Pin_2)*%
X162885000Y-117575000D03*
%TO.P,U1,J3_16,IO15*%
%TO.N,Net-(J8-Pin_1)*%
X162885000Y-120115000D03*
%TO.P,U1,J3_17,SD1*%
%TO.N,unconnected-(U1-SD1-PadJ3_17)*%
X162885000Y-122655000D03*
%TO.P,U1,J3_18,SD0*%
%TO.N,unconnected-(U1-SD0-PadJ3_18)*%
X162885000Y-125195000D03*
%TO.P,U1,J3_19,CLK*%
%TO.N,unconnected-(U1-CLK-PadJ3_19)*%
X162885000Y-127735000D03*
%TD*%
D10*
%TO.P,J14,1,Pin_1*%
%TO.N,Net-(J14-Pin_1)*%
X140500000Y-101950000D03*
D11*
%TO.P,J14,2,Pin_2*%
%TO.N,Net-(J14-Pin_2)*%
X140500000Y-104490000D03*
%TO.P,J14,3,Pin_3*%
%TO.N,Net-(J14-Pin_3)*%
X140500000Y-107030000D03*
%TO.P,J14,4,Pin_4*%
%TO.N,Net-(J14-Pin_4)*%
X140500000Y-109570000D03*
%TD*%
D14*
%TO.P,U2,1,SCL*%
%TO.N,SCL*%
X166025000Y-94450000D03*
%TO.P,U2,2,SDA*%
%TO.N,SDA*%
X166000000Y-91875000D03*
%TO.P,U2,3,SD0*%
%TO.N,unconnected-(U2-SD0-Pad3)*%
X166000000Y-89350000D03*
%TO.P,U2,4,INT2*%
%TO.N,unconnected-(U2-INT2-Pad4)*%
X165975000Y-86775000D03*
%TO.P,U2,5,INT1*%
%TO.N,unconnected-(U2-INT1-Pad5)*%
X166000000Y-84200000D03*
%TO.P,U2,6,CS*%
%TO.N,unconnected-(U2-CS-Pad6)*%
X166000000Y-81650000D03*
%TO.P,U2,7,VCC*%
%TO.N,+3V3*%
X166025000Y-79075000D03*
%TO.P,U2,8,GND*%
%TO.N,GND1*%
X166000000Y-76500000D03*
%TD*%
D15*
%TO.N,+3V3*%
X147750000Y-82000000D03*
%TO.N,VCC2*%
X131500000Y-102750000D03*
%TO.N,VCC4*%
X140000000Y-128250000D03*
%TO.N,VCC5*%
X141000000Y-128250000D03*
X141000000Y-130250000D03*
%TD*%
D16*
%TO.N,SCL*%
X166025000Y-94450000D02*
X168000000Y-92475000D01*
X168000000Y-92475000D02*
X168000000Y-75500000D01*
X168000000Y-75500000D02*
X166750000Y-74250000D01*
X166750000Y-74250000D02*
X150750000Y-74250000D01*
X150750000Y-74250000D02*
X149290000Y-75710000D01*
X149290000Y-75710000D02*
X149290000Y-76500000D01*
%TO.N,SDA*%
X166000000Y-91875000D02*
X165725000Y-91875000D01*
X165725000Y-91875000D02*
X162885000Y-94715000D01*
%TO.N,GND1*%
X166000000Y-76500000D02*
X162885000Y-79615000D01*
X162885000Y-79615000D02*
X162885000Y-82015000D01*
X134000000Y-102100000D02*
X135300000Y-103400000D01*
X165000000Y-129250000D02*
X166250000Y-128000000D01*
X134000000Y-124960000D02*
X135300000Y-126260000D01*
X135300000Y-126260000D02*
X135300000Y-128050000D01*
X154370000Y-128120000D02*
X155500000Y-129250000D01*
X135300000Y-116100000D02*
X135300000Y-118580000D01*
X135300000Y-108480000D02*
X134000000Y-107180000D01*
X154370000Y-114000000D02*
X154370000Y-76500000D01*
X135300000Y-103400000D02*
X135300000Y-105880000D01*
X154370000Y-114000000D02*
X154370000Y-126500000D01*
X135300000Y-105880000D02*
X134000000Y-107180000D01*
X136750000Y-129500000D02*
X151370000Y-129500000D01*
X166250000Y-128000000D02*
X166250000Y-124790000D01*
X135300000Y-110960000D02*
X135300000Y-108480000D01*
X134000000Y-119880000D02*
X135300000Y-121180000D01*
X135300000Y-128050000D02*
X136750000Y-129500000D01*
X135300000Y-123660000D02*
X134000000Y-124960000D01*
X135300000Y-118580000D02*
X134000000Y-119880000D01*
X151370000Y-129500000D02*
X154370000Y-126500000D01*
X134000000Y-112260000D02*
X135300000Y-110960000D01*
X154370000Y-126500000D02*
X154370000Y-128120000D01*
X155500000Y-129250000D02*
X165000000Y-129250000D01*
X134000000Y-114800000D02*
X135300000Y-116100000D01*
X134000000Y-112260000D02*
X134000000Y-114800000D01*
X135300000Y-121180000D02*
X135300000Y-123660000D01*
%TO.N,SCL*%
X149290000Y-76500000D02*
X149290000Y-126500000D01*
%TO.N,+3V3*%
X147735000Y-82015000D02*
X147750000Y-82000000D01*
X137485000Y-82015000D02*
X147735000Y-82015000D01*
X156910000Y-114000000D02*
X156910000Y-126500000D01*
X156910000Y-76500000D02*
X156910000Y-114000000D01*
%TO.N,SDA*%
X151830000Y-114000000D02*
X151830000Y-126500000D01*
X151830000Y-76500000D02*
X151830000Y-114000000D01*
%TO.N,Net-(J6-Pin_2)*%
X166250000Y-104830000D02*
X162930000Y-104830000D01*
X162930000Y-104830000D02*
X162885000Y-104875000D01*
%TO.N,Net-(J6-Pin_1)*%
X162885000Y-107415000D02*
X166205000Y-107415000D01*
X166205000Y-107415000D02*
X166250000Y-107370000D01*
%TO.N,Net-(J6-Pin_4)*%
X166205000Y-99795000D02*
X166250000Y-99750000D01*
X162885000Y-99795000D02*
X166205000Y-99795000D01*
%TO.N,Net-(J6-Pin_3)*%
X162885000Y-102335000D02*
X166205000Y-102335000D01*
X166205000Y-102335000D02*
X166250000Y-102290000D01*
%TO.N,Net-(J8-Pin_2)*%
X164380000Y-116080000D02*
X162885000Y-117575000D01*
X166250000Y-116080000D02*
X164380000Y-116080000D01*
%TO.N,Net-(J8-Pin_3)*%
X166250000Y-113540000D02*
X163930000Y-113540000D01*
X163930000Y-113540000D02*
X162885000Y-112495000D01*
%TO.N,Net-(J8-Pin_4)*%
X165205000Y-109955000D02*
X166250000Y-111000000D01*
X162885000Y-109955000D02*
X165205000Y-109955000D01*
%TO.N,Net-(J13-Pin_1)*%
X134000000Y-88690000D02*
X137485000Y-92175000D01*
X134000000Y-88200000D02*
X134000000Y-88690000D01*
%TO.N,Net-(J13-Pin_3)*%
X134000000Y-93280000D02*
X137485000Y-96765000D01*
X137485000Y-96765000D02*
X137485000Y-97255000D01*
%TO.N,Net-(J13-Pin_2)*%
X137485000Y-94225000D02*
X137485000Y-94715000D01*
X134000000Y-90740000D02*
X137485000Y-94225000D01*
%TO.N,Net-(J13-Pin_4)*%
X134000000Y-95820000D02*
X134000000Y-96250000D01*
X134000000Y-96250000D02*
X137485000Y-99735000D01*
X137485000Y-99735000D02*
X137485000Y-99795000D01*
%TO.N,Net-(J14-Pin_1)*%
X137485000Y-102335000D02*
X140115000Y-102335000D01*
X140115000Y-102335000D02*
X140500000Y-101950000D01*
%TO.N,Net-(J14-Pin_4)*%
X137485000Y-109955000D02*
X140115000Y-109955000D01*
X140115000Y-109955000D02*
X140500000Y-109570000D01*
%TO.N,Net-(J14-Pin_2)*%
X140115000Y-104875000D02*
X140500000Y-104490000D01*
X137485000Y-104875000D02*
X140115000Y-104875000D01*
%TO.N,Net-(J14-Pin_3)*%
X140115000Y-107415000D02*
X140500000Y-107030000D01*
X137485000Y-107415000D02*
X140115000Y-107415000D01*
%TO.N,Net-(J15-Pin_2)*%
X139745000Y-115035000D02*
X140500000Y-115790000D01*
X137485000Y-115035000D02*
X139745000Y-115035000D01*
%TO.N,Net-(J15-Pin_4)*%
X137485000Y-120115000D02*
X139745000Y-120115000D01*
X139745000Y-120115000D02*
X140500000Y-120870000D01*
%TO.N,Net-(J15-Pin_1)*%
X139745000Y-112495000D02*
X140500000Y-113250000D01*
X137485000Y-112495000D02*
X139745000Y-112495000D01*
%TO.N,Net-(J15-Pin_3)*%
X139745000Y-117575000D02*
X140500000Y-118330000D01*
X137485000Y-117575000D02*
X139745000Y-117575000D01*
%TO.N,Net-(J16-Pin_3)*%
X160750000Y-87500000D02*
X162885000Y-89635000D01*
X160000000Y-87500000D02*
X160750000Y-87500000D01*
%TO.N,Net-(J16-Pin_4)*%
X160000000Y-84960000D02*
X162480000Y-84960000D01*
X162480000Y-84960000D02*
X162885000Y-84555000D01*
%TO.N,Net-(J16-Pin_1)*%
X160000000Y-92580000D02*
X160000000Y-94370000D01*
X160000000Y-94370000D02*
X162885000Y-97255000D01*
%TO.N,Net-(J16-Pin_2)*%
X160750000Y-90040000D02*
X162885000Y-92175000D01*
X160000000Y-90040000D02*
X160750000Y-90040000D01*
%TO.N,Net-(J8-Pin_1)*%
X162885000Y-120115000D02*
X164755000Y-120115000D01*
X164755000Y-120115000D02*
X166250000Y-118620000D01*
%TO.N,VCC1*%
X132250000Y-97810000D02*
X134000000Y-99560000D01*
X144210000Y-76500000D02*
X133000000Y-76500000D01*
X133000000Y-76500000D02*
X132250000Y-77250000D01*
X132250000Y-77250000D02*
X132250000Y-97810000D01*
%TO.N,VCC2*%
X132110000Y-102750000D02*
X134000000Y-104640000D01*
X131500000Y-102750000D02*
X132110000Y-102750000D01*
%TO.N,VCC4*%
X144210000Y-114000000D02*
X144210000Y-123290000D01*
X144210000Y-123290000D02*
X143500000Y-124000000D01*
X143500000Y-124000000D02*
X140750000Y-124000000D01*
X140000000Y-124750000D02*
X140000000Y-128250000D01*
X140750000Y-124000000D02*
X140000000Y-124750000D01*
%TO.N,VCC5*%
X140950000Y-130200000D02*
X132700000Y-130200000D01*
X132000000Y-129500000D02*
X132000000Y-124420000D01*
X141750000Y-126500000D02*
X141000000Y-127250000D01*
X144210000Y-126500000D02*
X141750000Y-126500000D01*
X132700000Y-130200000D02*
X132000000Y-129500000D01*
X141000000Y-130250000D02*
X140950000Y-130200000D01*
X132000000Y-124420000D02*
X134000000Y-122420000D01*
X141000000Y-127250000D02*
X141000000Y-128250000D01*
%TD*%
%TA.AperFunction,Conductor*%
%TO.N,GND1*%
G36*
X131165455Y-103481030D02*
G01*
X131320737Y-103535366D01*
X131320743Y-103535367D01*
X131320745Y-103535368D01*
X131320746Y-103535368D01*
X131320750Y-103535369D01*
X131499996Y-103555565D01*
X131500000Y-103555565D01*
X131500004Y-103555565D01*
X131679249Y-103535369D01*
X131679252Y-103535368D01*
X131679255Y-103535368D01*
X131679256Y-103535367D01*
X131679259Y-103535367D01*
X131720345Y-103520990D01*
X131790124Y-103517427D01*
X131848982Y-103550350D01*
X132627130Y-104328497D01*
X132660615Y-104389820D01*
X132662977Y-104426985D01*
X132644341Y-104639997D01*
X132644341Y-104640000D01*
X132664936Y-104875403D01*
X132664938Y-104875413D01*
X132726094Y-105103655D01*
X132726096Y-105103659D01*
X132726097Y-105103663D01*
X132756019Y-105167830D01*
X132825965Y-105317830D01*
X132825967Y-105317834D01*
X132856474Y-105361402D01*
X132959007Y-105507834D01*
X132961501Y-105511395D01*
X132961506Y-105511402D01*
X133128597Y-105678493D01*
X133128603Y-105678498D01*
X133314594Y-105808730D01*
X133358219Y-105863307D01*
X133365413Y-105932805D01*
X133333890Y-105995160D01*
X133314595Y-106011880D01*
X133128922Y-106141890D01*
X133128920Y-106141891D01*
X132961891Y-106308920D01*
X132961886Y-106308926D01*
X132826400Y-106502420D01*
X132826399Y-106502422D01*
X132726570Y-106716507D01*
X132726567Y-106716513D01*
X132669364Y-106929999D01*
X132669364Y-106930000D01*
X133566988Y-106930000D01*
X133534075Y-106987007D01*
X133500000Y-107114174D01*
X133500000Y-107245826D01*
X133534075Y-107372993D01*
X133566988Y-107430000D01*
X132669364Y-107430000D01*
X132726567Y-107643486D01*
X132726570Y-107643492D01*
X132826399Y-107857578D01*
X132961894Y-108051082D01*
X133128917Y-108218105D01*
X133314595Y-108348119D01*
X133358219Y-108402696D01*
X133365412Y-108472195D01*
X133333890Y-108534549D01*
X133314595Y-108551269D01*
X133128594Y-108681508D01*
X132961505Y-108848597D01*
X132825965Y-109042169D01*
X132825964Y-109042171D01*
X132726098Y-109256335D01*
X132726094Y-109256344D01*
X132664938Y-109484586D01*
X132664936Y-109484596D01*
X132644341Y-109719999D01*
X132644341Y-109720000D01*
X132664936Y-109955403D01*
X132664938Y-109955413D01*
X132726094Y-110183655D01*
X132726096Y-110183659D01*
X132726097Y-110183663D01*
X132756019Y-110247830D01*
X132825965Y-110397830D01*
X132825967Y-110397834D01*
X132961501Y-110591395D01*
X132961506Y-110591402D01*
X133128597Y-110758493D01*
X133128603Y-110758498D01*
X133314594Y-110888730D01*
X133358219Y-110943307D01*
X133365413Y-111012805D01*
X133333890Y-111075160D01*
X133314595Y-111091880D01*
X133128922Y-111221890D01*
X133128920Y-111221891D01*
X132961891Y-111388920D01*
X132961886Y-111388926D01*
X132826400Y-111582420D01*
X132826399Y-111582422D01*
X132726570Y-111796507D01*
X132726567Y-111796513D01*
X132669364Y-112009999D01*
X132669364Y-112010000D01*
X133566988Y-112010000D01*
X133534075Y-112067007D01*
X133500000Y-112194174D01*
X133500000Y-112325826D01*
X133534075Y-112452993D01*
X133566988Y-112510000D01*
X132669364Y-112510000D01*
X132726567Y-112723486D01*
X132726570Y-112723492D01*
X132826399Y-112937578D01*
X132961894Y-113131082D01*
X133128917Y-113298105D01*
X133315031Y-113428425D01*
X133358656Y-113483003D01*
X133365848Y-113552501D01*
X133334326Y-113614856D01*
X133315031Y-113631575D01*
X133128922Y-113761890D01*
X133128920Y-113761891D01*
X132961891Y-113928920D01*
X132961886Y-113928926D01*
X132826400Y-114122420D01*
X132826399Y-114122422D01*
X132726570Y-114336507D01*
X132726567Y-114336513D01*
X132669364Y-114549999D01*
X132669364Y-114550000D01*
X133566988Y-114550000D01*
X133534075Y-114607007D01*
X133500000Y-114734174D01*
X133500000Y-114865826D01*
X133534075Y-114992993D01*
X133566988Y-115050000D01*
X132669364Y-115050000D01*
X132726567Y-115263486D01*
X132726570Y-115263492D01*
X132826399Y-115477578D01*
X132961894Y-115671082D01*
X133128917Y-115838105D01*
X133314595Y-115968119D01*
X133358219Y-116022696D01*
X133365412Y-116092195D01*
X133333890Y-116154549D01*
X133314595Y-116171269D01*
X133128594Y-116301508D01*
X132961505Y-116468597D01*
X132825965Y-116662169D01*
X132825964Y-116662171D01*
X132726098Y-116876335D01*
X132726094Y-116876344D01*
X132664938Y-117104586D01*
X132664936Y-117104596D01*
X132644341Y-117339999D01*
X132644341Y-117340000D01*
X132664936Y-117575403D01*
X132664938Y-117575413D01*
X132726094Y-117803655D01*
X132726096Y-117803659D01*
X132726097Y-117803663D01*
X132755326Y-117866344D01*
X132825965Y-118017830D01*
X132825967Y-118017834D01*
X132961501Y-118211395D01*
X132961506Y-118211402D01*
X133128597Y-118378493D01*
X133128603Y-118378498D01*
X133314594Y-118508730D01*
X133358219Y-118563307D01*
X133365413Y-118632805D01*
X133333890Y-118695160D01*
X133314595Y-118711880D01*
X133128922Y-118841890D01*
X133128920Y-118841891D01*
X132961891Y-119008920D01*
X132961886Y-119008926D01*
X132826400Y-119202420D01*
X132826399Y-119202422D01*
X132726570Y-119416507D01*
X132726567Y-119416513D01*
X132669364Y-119629999D01*
X132669364Y-119630000D01*
X133566988Y-119630000D01*
X133534075Y-119687007D01*
X133500000Y-119814174D01*
X133500000Y-119945826D01*
X133534075Y-120072993D01*
X133566988Y-120130000D01*
X132669364Y-120130000D01*
X132726567Y-120343486D01*
X132726570Y-120343492D01*
X132826399Y-120557578D01*
X132961894Y-120751082D01*
X133128917Y-120918105D01*
X133314595Y-121048119D01*
X133358219Y-121102696D01*
X133365412Y-121172195D01*
X133333890Y-121234549D01*
X133314595Y-121251269D01*
X133128594Y-121381508D01*
X132961505Y-121548597D01*
X132825965Y-121742169D01*
X132825964Y-121742171D01*
X132726098Y-121956335D01*
X132726094Y-121956344D01*
X132664938Y-122184586D01*
X132664936Y-122184596D01*
X132644341Y-122419999D01*
X132644341Y-122420001D01*
X132662977Y-122633013D01*
X132649210Y-122701513D01*
X132627130Y-122731501D01*
X131417052Y-123941578D01*
X131417049Y-123941581D01*
X131384363Y-123990499D01*
X131384364Y-123990500D01*
X131334914Y-124064508D01*
X131278343Y-124201082D01*
X131278340Y-124201092D01*
X131249500Y-124346079D01*
X131249500Y-124346082D01*
X131249500Y-129573918D01*
X131249500Y-129573920D01*
X131249499Y-129573920D01*
X131278340Y-129718907D01*
X131278343Y-129718917D01*
X131334914Y-129855491D01*
X131334916Y-129855495D01*
X131352370Y-129881617D01*
X131360981Y-129894505D01*
X131417049Y-129978418D01*
X131417052Y-129978421D01*
X131976452Y-130537819D01*
X132009937Y-130599142D01*
X132004953Y-130668833D01*
X131963082Y-130724767D01*
X131897617Y-130749184D01*
X131888771Y-130749500D01*
X131124500Y-130749500D01*
X131057461Y-130729815D01*
X131011706Y-130677011D01*
X131000500Y-130625500D01*
X131000500Y-103598071D01*
X131020185Y-103531032D01*
X131072989Y-103485277D01*
X131142147Y-103475333D01*
X131165455Y-103481030D01*
G37*
%TD.AperFunction*%
%TA.AperFunction,Conductor*%
G36*
X165529027Y-75020185D02*
G01*
X165574782Y-75072989D01*
X165584726Y-75142147D01*
X165555701Y-75205703D01*
X165514393Y-75236882D01*
X165322419Y-75326401D01*
X165238625Y-75385072D01*
X165870590Y-76017037D01*
X165807007Y-76034075D01*
X165692993Y-76099901D01*
X165599901Y-76192993D01*
X165534075Y-76307007D01*
X165517037Y-76370589D01*
X164885073Y-75738625D01*
X164885072Y-75738625D01*
X164826401Y-75822419D01*
X164726570Y-76036507D01*
X164726566Y-76036516D01*
X164665432Y-76264673D01*
X164665430Y-76264684D01*
X164644843Y-76499998D01*
X164644843Y-76500001D01*
X164665430Y-76735315D01*
X164665432Y-76735326D01*
X164726566Y-76963483D01*
X164726570Y-76963492D01*
X164826400Y-77177579D01*
X164826402Y-77177583D01*
X164885072Y-77261373D01*
X164885073Y-77261373D01*
X165517037Y-76629409D01*
X165534075Y-76692993D01*
X165599901Y-76807007D01*
X165692993Y-76900099D01*
X165807007Y-76965925D01*
X165870590Y-76982962D01*
X165238625Y-77614925D01*
X165322422Y-77673600D01*
X165338084Y-77680904D01*
X165390522Y-77727077D01*
X165409673Y-77794271D01*
X165389456Y-77861152D01*
X165351225Y-77897318D01*
X165351605Y-77897860D01*
X165347941Y-77900425D01*
X165347687Y-77900666D01*
X165347176Y-77900960D01*
X165153597Y-78036505D01*
X164986505Y-78203597D01*
X164850965Y-78397169D01*
X164850964Y-78397171D01*
X164751098Y-78611335D01*
X164751094Y-78611344D01*
X164689938Y-78839586D01*
X164689936Y-78839596D01*
X164669341Y-79074999D01*
X164669341Y-79075000D01*
X164689936Y-79310403D01*
X164689938Y-79310413D01*
X164751094Y-79538655D01*
X164751096Y-79538659D01*
X164751097Y-79538663D01*
X164800500Y-79644607D01*
X164850965Y-79752830D01*
X164850967Y-79752834D01*
X164959281Y-79907521D01*
X164986505Y-79946401D01*
X165153599Y-80113495D01*
X165281132Y-80202794D01*
X165351604Y-80252140D01*
X165350974Y-80253038D01*
X165395359Y-80299580D01*
X165408587Y-80368186D01*
X165382625Y-80433053D01*
X165337558Y-80468789D01*
X165322170Y-80475965D01*
X165322169Y-80475965D01*
X165128597Y-80611505D01*
X164961505Y-80778597D01*
X164825965Y-80972169D01*
X164825964Y-80972171D01*
X164726098Y-81186335D01*
X164726094Y-81186344D01*
X164664938Y-81414586D01*
X164664936Y-81414596D01*
X164644341Y-81649999D01*
X164644341Y-81650000D01*
X164664936Y-81885403D01*
X164664938Y-81885413D01*
X164726094Y-82113655D01*
X164726096Y-82113659D01*
X164726097Y-82113663D01*
X164761085Y-82188694D01*
X164825965Y-82327830D01*
X164825967Y-82327834D01*
X164934281Y-82482521D01*
X164961505Y-82521401D01*
X165128599Y-82688495D01*
X165273896Y-82790233D01*
X165321299Y-82823425D01*
X165364923Y-82878002D01*
X165372116Y-82947501D01*
X165340594Y-83009855D01*
X165321299Y-83026575D01*
X165128594Y-83161508D01*
X164961505Y-83328597D01*
X164825965Y-83522169D01*
X164825964Y-83522171D01*
X164726098Y-83736335D01*
X164726094Y-83736344D01*
X164664938Y-83964586D01*
X164664936Y-83964596D01*
X164644341Y-84199999D01*
X164644341Y-84200000D01*
X164664936Y-84435403D01*
X164664938Y-84435413D01*
X164726094Y-84663655D01*
X164726096Y-84663659D01*
X164726097Y-84663663D01*
X164779075Y-84777274D01*
X164825965Y-84877830D01*
X164825967Y-84877834D01*
X164883500Y-84959999D01*
X164961505Y-85071401D01*
X165128599Y-85238495D01*
X165256132Y-85327794D01*
X165326604Y-85377140D01*
X165325974Y-85378038D01*
X165370359Y-85424580D01*
X165383587Y-85493186D01*
X165357625Y-85558053D01*
X165312558Y-85593789D01*
X165297170Y-85600965D01*
X165297169Y-85600965D01*
X165103597Y-85736505D01*
X164936505Y-85903597D01*
X164800965Y-86097169D01*
X164800964Y-86097171D01*
X164701098Y-86311335D01*
X164701094Y-86311344D01*
X164639938Y-86539586D01*
X164639936Y-86539596D01*
X164619341Y-86774999D01*
X164619341Y-86775000D01*
X164639936Y-87010403D01*
X164639938Y-87010413D01*
X164701094Y-87238655D01*
X164701096Y-87238659D01*
X164701097Y-87238663D01*
X164730692Y-87302129D01*
X164800965Y-87452830D01*
X164800967Y-87452834D01*
X164895529Y-87587881D01*
X164936505Y-87646401D01*
X165103599Y-87813495D01*
X165169007Y-87859294D01*
X165297165Y-87949032D01*
X165297167Y-87949033D01*
X165297170Y-87949035D01*
X165312553Y-87956208D01*
X165364992Y-88002381D01*
X165384144Y-88069574D01*
X165363928Y-88136455D01*
X165326144Y-88172202D01*
X165326605Y-88172860D01*
X165128597Y-88311505D01*
X164961505Y-88478597D01*
X164825965Y-88672169D01*
X164825964Y-88672171D01*
X164726098Y-88886335D01*
X164726094Y-88886344D01*
X164664938Y-89114586D01*
X164664936Y-89114596D01*
X164644341Y-89349999D01*
X164644341Y-89350000D01*
X164664936Y-89585403D01*
X164664938Y-89585413D01*
X164726094Y-89813655D01*
X164726096Y-89813659D01*
X164726097Y-89813663D01*
X164793161Y-89957482D01*
X164825965Y-90027830D01*
X164825967Y-90027834D01*
X164961501Y-90221395D01*
X164961506Y-90221402D01*
X165128597Y-90388493D01*
X165128603Y-90388498D01*
X165303447Y-90510925D01*
X165347072Y-90565502D01*
X165354266Y-90635000D01*
X165322743Y-90697355D01*
X165303447Y-90714075D01*
X165128597Y-90836505D01*
X164961505Y-91003597D01*
X164825965Y-91197169D01*
X164825964Y-91197171D01*
X164726098Y-91411335D01*
X164726094Y-91411344D01*
X164664938Y-91639586D01*
X164664936Y-91639596D01*
X164646424Y-91851181D01*
X164620971Y-91916250D01*
X164610577Y-91928054D01*
X164304249Y-92234382D01*
X164242926Y-92267867D01*
X164173234Y-92262883D01*
X164117301Y-92221011D01*
X164093098Y-92158144D01*
X164074063Y-91952726D01*
X164063685Y-91916250D01*
X164012976Y-91738024D01*
X164012973Y-91738018D01*
X163985137Y-91682116D01*
X163913474Y-91538196D01*
X163778950Y-91360057D01*
X163613983Y-91209670D01*
X163613979Y-91209667D01*
X163613974Y-91209664D01*
X163424195Y-91092158D01*
X163424186Y-91092154D01*
X163338430Y-91058932D01*
X163239547Y-91020625D01*
X163184148Y-90978054D01*
X163160557Y-90912288D01*
X163176268Y-90844207D01*
X163226292Y-90795428D01*
X163239538Y-90789378D01*
X163424192Y-90717843D01*
X163613983Y-90600330D01*
X163778950Y-90449943D01*
X163913474Y-90271804D01*
X164012974Y-90071980D01*
X164012974Y-90071977D01*
X164012976Y-90071975D01*
X164062509Y-89897883D01*
X164074063Y-89857274D01*
X164094660Y-89635000D01*
X164074063Y-89412726D01*
X164056216Y-89349999D01*
X164012976Y-89198024D01*
X164012973Y-89198018D01*
X163950198Y-89071948D01*
X163913474Y-88998196D01*
X163778950Y-88820057D01*
X163613983Y-88669670D01*
X163613979Y-88669667D01*
X163613974Y-88669664D01*
X163424195Y-88552158D01*
X163424186Y-88552154D01*
X163323062Y-88512979D01*
X163239547Y-88480625D01*
X163184148Y-88438054D01*
X163160557Y-88372288D01*
X163176268Y-88304207D01*
X163226292Y-88255428D01*
X163239538Y-88249378D01*
X163424192Y-88177843D01*
X163613983Y-88060330D01*
X163778950Y-87909943D01*
X163913474Y-87731804D01*
X164012974Y-87531980D01*
X164012974Y-87531977D01*
X164012976Y-87531975D01*
X164074062Y-87317276D01*
X164074063Y-87317273D01*
X164075467Y-87302128D01*
X164094660Y-87095000D01*
X164074063Y-86872726D01*
X164046258Y-86775000D01*
X164012976Y-86658024D01*
X164012973Y-86658018D01*
X163915122Y-86461506D01*
X163913474Y-86458196D01*
X163778950Y-86280057D01*
X163775594Y-86276998D01*
X163613984Y-86129671D01*
X163613974Y-86129664D01*
X163424195Y-86012158D01*
X163424186Y-86012154D01*
X163338430Y-85978932D01*
X163239547Y-85940625D01*
X163184148Y-85898054D01*
X163160557Y-85832288D01*
X163176268Y-85764207D01*
X163226292Y-85715428D01*
X163239538Y-85709378D01*
X163424192Y-85637843D01*
X163613983Y-85520330D01*
X163778950Y-85369943D01*
X163913474Y-85191804D01*
X164012974Y-84991980D01*
X164012974Y-84991977D01*
X164012976Y-84991975D01*
X164074062Y-84777276D01*
X164074063Y-84777273D01*
X164094660Y-84555000D01*
X164094660Y-84554999D01*
X164074063Y-84332726D01*
X164074062Y-84332723D01*
X164012976Y-84118024D01*
X164012973Y-84118018D01*
X163915122Y-83921506D01*
X163913474Y-83918196D01*
X163778950Y-83740057D01*
X163774869Y-83736337D01*
X163613984Y-83589671D01*
X163613974Y-83589664D01*
X163424195Y-83472158D01*
X163424189Y-83472156D01*
X163238855Y-83400357D01*
X163183457Y-83357786D01*
X163159866Y-83292019D01*
X163175577Y-83223939D01*
X163225601Y-83175160D01*
X163238859Y-83169105D01*
X163423964Y-83097395D01*
X163423971Y-83097392D01*
X163541231Y-83024786D01*
X163541231Y-83024785D01*
X162973585Y-82457137D01*
X163058694Y-82434333D01*
X163161306Y-82375090D01*
X163245090Y-82291306D01*
X163304333Y-82188694D01*
X163327138Y-82103585D01*
X163896716Y-82673163D01*
X163913049Y-82651536D01*
X163913053Y-82651529D01*
X164012499Y-82451813D01*
X164012506Y-82451795D01*
X164073570Y-82237181D01*
X164094158Y-82015000D01*
X164094158Y-82014999D01*
X164073570Y-81792818D01*
X164012506Y-81578204D01*
X164012501Y-81578191D01*
X163913046Y-81378458D01*
X163896716Y-81356836D01*
X163327138Y-81926414D01*
X163304333Y-81841306D01*
X163245090Y-81738694D01*
X163161306Y-81654910D01*
X163058694Y-81595667D01*
X162973584Y-81572861D01*
X163541232Y-81005213D01*
X163423966Y-80932605D01*
X163423965Y-80932604D01*
X163215904Y-80852002D01*
X162996565Y-80811000D01*
X162773435Y-80811000D01*
X162554095Y-80852002D01*
X162346034Y-80932604D01*
X162346028Y-80932607D01*
X162228767Y-81005212D01*
X162228766Y-81005213D01*
X162796415Y-81572861D01*
X162711306Y-81595667D01*
X162608694Y-81654910D01*
X162524910Y-81738694D01*
X162465667Y-81841306D01*
X162442861Y-81926415D01*
X161873282Y-81356836D01*
X161873281Y-81356836D01*
X161856953Y-81378458D01*
X161757498Y-81578191D01*
X161757493Y-81578204D01*
X161696429Y-81792818D01*
X161675842Y-82014999D01*
X161675842Y-82015000D01*
X161696429Y-82237181D01*
X161757493Y-82451795D01*
X161757498Y-82451808D01*
X161856953Y-82651540D01*
X161873282Y-82673163D01*
X162442861Y-82103584D01*
X162465667Y-82188694D01*
X162524910Y-82291306D01*
X162608694Y-82375090D01*
X162711306Y-82434333D01*
X162796414Y-82457137D01*
X162228766Y-83024785D01*
X162346031Y-83097393D01*
X162346032Y-83097394D01*
X162531141Y-83169105D01*
X162586542Y-83211678D01*
X162610133Y-83277445D01*
X162594422Y-83345525D01*
X162544398Y-83394304D01*
X162531147Y-83400355D01*
X162479431Y-83420391D01*
X162345810Y-83472155D01*
X162345804Y-83472158D01*
X162156025Y-83589664D01*
X162156015Y-83589671D01*
X161991051Y-83740055D01*
X161856524Y-83918197D01*
X161757029Y-84118011D01*
X161757022Y-84118029D01*
X161756624Y-84119431D01*
X161756249Y-84120023D01*
X161754954Y-84123369D01*
X161754299Y-84123115D01*
X161719346Y-84178526D01*
X161656037Y-84208085D01*
X161637357Y-84209500D01*
X161187701Y-84209500D01*
X161120662Y-84189815D01*
X161086126Y-84156623D01*
X161038494Y-84088597D01*
X160871402Y-83921506D01*
X160871395Y-83921501D01*
X160866676Y-83918197D01*
X160832521Y-83894281D01*
X160677834Y-83785967D01*
X160677830Y-83785965D01*
X160579380Y-83740057D01*
X160463663Y-83686097D01*
X160463659Y-83686096D01*
X160463655Y-83686094D01*
X160235413Y-83624938D01*
X160235403Y-83624936D01*
X160000001Y-83604341D01*
X159999999Y-83604341D01*
X159764596Y-83624936D01*
X159764586Y-83624938D01*
X159536344Y-83686094D01*
X159536335Y-83686098D01*
X159322171Y-83785964D01*
X159322169Y-83785965D01*
X159128597Y-83921505D01*
X158961505Y-84088597D01*
X158825965Y-84282169D01*
X158825964Y-84282171D01*
X158726098Y-84496335D01*
X158726094Y-84496344D01*
X158664938Y-84724586D01*
X158664936Y-84724596D01*
X158644341Y-84959999D01*
X158644341Y-84960000D01*
X158664936Y-85195403D01*
X158664938Y-85195413D01*
X158726094Y-85423655D01*
X158726096Y-85423659D01*
X158726097Y-85423663D01*
X158771173Y-85520328D01*
X158825965Y-85637830D01*
X158825967Y-85637834D01*
X158961501Y-85831395D01*
X158961506Y-85831402D01*
X159128597Y-85998493D01*
X159128603Y-85998498D01*
X159314158Y-86128425D01*
X159357783Y-86183002D01*
X159364977Y-86252500D01*
X159333454Y-86314855D01*
X159314158Y-86331575D01*
X159128597Y-86461505D01*
X158961505Y-86628597D01*
X158825965Y-86822169D01*
X158825964Y-86822171D01*
X158726098Y-87036335D01*
X158726094Y-87036344D01*
X158664938Y-87264586D01*
X158664936Y-87264596D01*
X158644341Y-87499999D01*
X158644341Y-87500000D01*
X158664936Y-87735403D01*
X158664938Y-87735413D01*
X158726094Y-87963655D01*
X158726096Y-87963659D01*
X158726097Y-87963663D01*
X158821750Y-88168790D01*
X158825965Y-88177830D01*
X158825967Y-88177834D01*
X158919565Y-88311505D01*
X158957311Y-88365412D01*
X158961501Y-88371395D01*
X158961506Y-88371402D01*
X159128597Y-88538493D01*
X159128603Y-88538498D01*
X159314158Y-88668425D01*
X159357783Y-88723002D01*
X159364977Y-88792500D01*
X159333454Y-88854855D01*
X159314158Y-88871575D01*
X159128597Y-89001505D01*
X158961505Y-89168597D01*
X158825965Y-89362169D01*
X158825964Y-89362171D01*
X158726098Y-89576335D01*
X158726094Y-89576344D01*
X158664938Y-89804586D01*
X158664936Y-89804596D01*
X158644341Y-90039999D01*
X158644341Y-90040000D01*
X158664936Y-90275403D01*
X158664938Y-90275413D01*
X158726094Y-90503655D01*
X158726096Y-90503659D01*
X158726097Y-90503663D01*
X158735597Y-90524035D01*
X158825965Y-90717830D01*
X158825967Y-90717834D01*
X158961501Y-90911395D01*
X158961506Y-90911402D01*
X159083430Y-91033326D01*
X159116915Y-91094649D01*
X159111931Y-91164341D01*
X159070059Y-91220274D01*
X159039083Y-91237189D01*
X158907669Y-91286203D01*
X158907664Y-91286206D01*
X158792455Y-91372452D01*
X158792452Y-91372455D01*
X158706206Y-91487664D01*
X158706202Y-91487671D01*
X158655908Y-91622517D01*
X158649501Y-91682116D01*
X158649500Y-91682135D01*
X158649500Y-93477870D01*
X158649501Y-93477876D01*
X158655908Y-93537483D01*
X158706202Y-93672328D01*
X158706206Y-93672335D01*
X158792452Y-93787544D01*
X158792455Y-93787547D01*
X158907664Y-93873793D01*
X158907671Y-93873797D01*
X158952618Y-93890561D01*
X159042517Y-93924091D01*
X159102127Y-93930500D01*
X159125497Y-93930499D01*
X159192536Y-93950181D01*
X159238292Y-94002983D01*
X159249500Y-94054499D01*
X159249500Y-94443918D01*
X159249500Y-94443920D01*
X159249499Y-94443920D01*
X159278340Y-94588907D01*
X159278343Y-94588917D01*
X159334913Y-94725489D01*
X159334914Y-94725491D01*
X159334916Y-94725495D01*
X159345833Y-94741834D01*
X159345834Y-94741837D01*
X159417046Y-94848414D01*
X159417052Y-94848421D01*
X161646755Y-97078122D01*
X161680240Y-97139445D01*
X161682545Y-97177244D01*
X161675340Y-97254999D01*
X161675340Y-97255000D01*
X161695936Y-97477273D01*
X161695937Y-97477276D01*
X161757023Y-97691975D01*
X161757026Y-97691980D01*
X161856526Y-97891804D01*
X161991050Y-98069943D01*
X162156017Y-98220330D01*
X162156024Y-98220334D01*
X162156025Y-98220335D01*
X162345804Y-98337841D01*
X162345805Y-98337841D01*
X162345808Y-98337843D01*
X162530452Y-98409374D01*
X162585851Y-98451946D01*
X162609442Y-98517713D01*
X162593731Y-98585793D01*
X162543707Y-98634572D01*
X162530461Y-98640621D01*
X162406618Y-98688599D01*
X162345810Y-98712156D01*
X162345804Y-98712158D01*
X162156025Y-98829664D01*
X162156015Y-98829671D01*
X161991051Y-98980055D01*
X161856526Y-99158195D01*
X161757026Y-99358018D01*
X161757023Y-99358024D01*
X161695937Y-99572723D01*
X161695936Y-99572726D01*
X161675340Y-99794999D01*
X161675340Y-99795000D01*
X161695936Y-100017273D01*
X161695937Y-100017276D01*
X161757023Y-100231975D01*
X161757026Y-100231981D01*
X161829162Y-100376849D01*
X161856526Y-100431804D01*
X161987390Y-100605097D01*
X161991051Y-100609944D01*
X162011515Y-100628599D01*
X162156017Y-100760330D01*
X162156024Y-100760334D01*
X162156025Y-100760335D01*
X162345804Y-100877841D01*
X162345805Y-100877841D01*
X162345808Y-100877843D01*
X162530452Y-100949374D01*
X162585851Y-100991946D01*
X162609442Y-101057713D01*
X162593731Y-101125793D01*
X162543707Y-101174572D01*
X162530461Y-101180621D01*
X162405790Y-101228920D01*
X162345810Y-101252156D01*
X162345804Y-101252158D01*
X162156025Y-101369664D01*
X162156015Y-101369671D01*
X161991051Y-101520055D01*
X161856526Y-101698195D01*
X161757026Y-101898018D01*
X161757023Y-101898024D01*
X161695937Y-102112723D01*
X161695936Y-102112726D01*
X161675340Y-102334999D01*
X161675340Y-102335000D01*
X161695936Y-102557273D01*
X161695937Y-102557276D01*
X161757023Y-102771975D01*
X161757026Y-102771981D01*
X161824498Y-102907483D01*
X161856526Y-102971804D01*
X161991050Y-103149943D01*
X162156017Y-103300330D01*
X162156024Y-103300334D01*
X162156025Y-103300335D01*
X162345804Y-103417841D01*
X162345805Y-103417841D01*
X162345808Y-103417843D01*
X162530452Y-103489374D01*
X162585851Y-103531946D01*
X162609442Y-103597713D01*
X162593731Y-103665793D01*
X162543707Y-103714572D01*
X162530461Y-103720621D01*
X162406618Y-103768599D01*
X162345810Y-103792156D01*
X162345804Y-103792158D01*
X162156025Y-103909664D01*
X162156015Y-103909671D01*
X161991051Y-104060055D01*
X161856526Y-104238195D01*
X161757026Y-104438018D01*
X161757023Y-104438024D01*
X161695937Y-104652723D01*
X161695936Y-104652726D01*
X161675340Y-104874999D01*
X161675340Y-104875000D01*
X161695936Y-105097273D01*
X161695937Y-105097276D01*
X161757023Y-105311975D01*
X161757026Y-105311981D01*
X161781635Y-105361402D01*
X161856526Y-105511804D01*
X161991050Y-105689943D01*
X162156017Y-105840330D01*
X162156024Y-105840334D01*
X162156025Y-105840335D01*
X162345804Y-105957841D01*
X162345805Y-105957841D01*
X162345808Y-105957843D01*
X162530452Y-106029374D01*
X162585851Y-106071946D01*
X162609442Y-106137713D01*
X162593731Y-106205793D01*
X162543707Y-106254572D01*
X162530461Y-106260621D01*
X162405790Y-106308920D01*
X162345810Y-106332156D01*
X162345804Y-106332158D01*
X162156025Y-106449664D01*
X162156015Y-106449671D01*
X161991051Y-106600055D01*
X161856526Y-106778195D01*
X161757026Y-106978018D01*
X161757023Y-106978024D01*
X161695937Y-107192723D01*
X161695936Y-107192726D01*
X161675340Y-107414999D01*
X161675340Y-107415000D01*
X161695936Y-107637273D01*
X161695937Y-107637276D01*
X161757023Y-107851975D01*
X161757026Y-107851981D01*
X161781635Y-107901402D01*
X161856526Y-108051804D01*
X161991050Y-108229943D01*
X162156017Y-108380330D01*
X162156024Y-108380334D01*
X162156025Y-108380335D01*
X162345804Y-108497841D01*
X162345805Y-108497841D01*
X162345808Y-108497843D01*
X162530452Y-108569374D01*
X162585851Y-108611946D01*
X162609442Y-108677713D01*
X162593731Y-108745793D01*
X162543707Y-108794572D01*
X162530461Y-108800621D01*
X162406618Y-108848599D01*
X162345810Y-108872156D01*
X162345804Y-108872158D01*
X162156025Y-108989664D01*
X162156015Y-108989671D01*
X161991051Y-109140055D01*
X161856526Y-109318195D01*
X161757026Y-109518018D01*
X161757023Y-109518024D01*
X161695937Y-109732723D01*
X161695936Y-109732726D01*
X161675340Y-109954999D01*
X161675340Y-109955000D01*
X161695936Y-110177273D01*
X161695937Y-110177276D01*
X161757023Y-110391975D01*
X161757026Y-110391981D01*
X161781635Y-110441402D01*
X161856526Y-110591804D01*
X161991050Y-110769943D01*
X162156017Y-110920330D01*
X162156024Y-110920334D01*
X162156025Y-110920335D01*
X162345804Y-111037841D01*
X162345805Y-111037841D01*
X162345808Y-111037843D01*
X162530452Y-111109374D01*
X162585851Y-111151946D01*
X162609442Y-111217713D01*
X162593731Y-111285793D01*
X162543707Y-111334572D01*
X162530461Y-111340621D01*
X162405790Y-111388920D01*
X162345810Y-111412156D01*
X162345804Y-111412158D01*
X162156025Y-111529664D01*
X162156015Y-111529671D01*
X161991051Y-111680055D01*
X161856526Y-111858195D01*
X161757026Y-112058018D01*
X161757023Y-112058024D01*
X161695937Y-112272723D01*
X161695936Y-112272726D01*
X161675340Y-112494999D01*
X161675340Y-112495000D01*
X161695936Y-112717273D01*
X161695937Y-112717276D01*
X161757023Y-112931975D01*
X161757026Y-112931981D01*
X161850623Y-113119949D01*
X161856526Y-113131804D01*
X161982110Y-113298105D01*
X161991051Y-113309944D01*
X162016840Y-113333454D01*
X162156017Y-113460330D01*
X162156024Y-113460334D01*
X162156025Y-113460335D01*
X162345804Y-113577841D01*
X162345805Y-113577841D01*
X162345808Y-113577843D01*
X162530452Y-113649374D01*
X162585851Y-113691946D01*
X162609442Y-113757713D01*
X162593731Y-113825793D01*
X162543707Y-113874572D01*
X162530461Y-113880621D01*
X162405790Y-113928920D01*
X162345810Y-113952156D01*
X162345804Y-113952158D01*
X162156025Y-114069664D01*
X162156015Y-114069671D01*
X161991051Y-114220055D01*
X161856526Y-114398195D01*
X161757026Y-114598018D01*
X161757023Y-114598024D01*
X161695937Y-114812723D01*
X161695936Y-114812726D01*
X161675340Y-115034999D01*
X161675340Y-115035000D01*
X161695936Y-115257273D01*
X161695937Y-115257276D01*
X161757023Y-115471975D01*
X161757026Y-115471981D01*
X161828906Y-115616335D01*
X161856526Y-115671804D01*
X161991050Y-115849943D01*
X162156017Y-116000330D01*
X162156024Y-116000334D01*
X162156025Y-116000335D01*
X162345804Y-116117841D01*
X162345805Y-116117841D01*
X162345808Y-116117843D01*
X162530452Y-116189374D01*
X162585851Y-116231946D01*
X162609442Y-116297713D01*
X162593731Y-116365793D01*
X162543707Y-116414572D01*
X162530461Y-116420621D01*
X162406618Y-116468599D01*
X162345810Y-116492156D01*
X162345804Y-116492158D01*
X162156025Y-116609664D01*
X162156015Y-116609671D01*
X161991051Y-116760055D01*
X161856526Y-116938195D01*
X161757026Y-117138018D01*
X161757023Y-117138024D01*
X161695937Y-117352723D01*
X161695936Y-117352726D01*
X161675340Y-117574999D01*
X161675340Y-117575000D01*
X161695936Y-117797273D01*
X161695937Y-117797276D01*
X161757023Y-118011975D01*
X161757026Y-118011981D01*
X161856322Y-118211395D01*
X161856526Y-118211804D01*
X161991050Y-118389943D01*
X162156017Y-118540330D01*
X162156024Y-118540334D01*
X162156025Y-118540335D01*
X162345804Y-118657841D01*
X162345805Y-118657841D01*
X162345808Y-118657843D01*
X162530452Y-118729374D01*
X162585851Y-118771946D01*
X162609442Y-118837713D01*
X162593731Y-118905793D01*
X162543707Y-118954572D01*
X162530461Y-118960621D01*
X162408603Y-119007830D01*
X162345810Y-119032156D01*
X162345804Y-119032158D01*
X162156025Y-119149664D01*
X162156015Y-119149671D01*
X161991051Y-119300055D01*
X161856526Y-119478195D01*
X161757026Y-119678018D01*
X161757023Y-119678024D01*
X161695937Y-119892723D01*
X161695936Y-119892726D01*
X161675340Y-120114999D01*
X161675340Y-120115000D01*
X161695936Y-120337273D01*
X161695937Y-120337276D01*
X161757023Y-120551975D01*
X161757026Y-120551981D01*
X161829710Y-120697950D01*
X161856526Y-120751804D01*
X161991050Y-120929943D01*
X162156017Y-121080330D01*
X162156024Y-121080334D01*
X162156025Y-121080335D01*
X162345804Y-121197841D01*
X162345805Y-121197841D01*
X162345808Y-121197843D01*
X162530452Y-121269374D01*
X162585851Y-121311946D01*
X162609442Y-121377713D01*
X162593731Y-121445793D01*
X162543707Y-121494572D01*
X162530461Y-121500621D01*
X162406618Y-121548599D01*
X162345810Y-121572156D01*
X162345804Y-121572158D01*
X162156025Y-121689664D01*
X162156015Y-121689671D01*
X161991051Y-121840055D01*
X161856526Y-122018195D01*
X161757026Y-122218018D01*
X161757023Y-122218024D01*
X161695937Y-122432723D01*
X161695936Y-122432726D01*
X161675340Y-122654999D01*
X161675340Y-122655000D01*
X161695936Y-122877273D01*
X161695937Y-122877276D01*
X161757023Y-123091975D01*
X161757026Y-123091981D01*
X161818821Y-123216082D01*
X161856526Y-123291804D01*
X161991050Y-123469943D01*
X162156017Y-123620330D01*
X162156024Y-123620334D01*
X162156025Y-123620335D01*
X162345804Y-123737841D01*
X162345805Y-123737841D01*
X162345808Y-123737843D01*
X162530452Y-123809374D01*
X162585851Y-123851946D01*
X162609442Y-123917713D01*
X162593731Y-123985793D01*
X162543707Y-124034572D01*
X162530461Y-124040621D01*
X162405790Y-124088920D01*
X162345810Y-124112156D01*
X162345804Y-124112158D01*
X162156025Y-124229664D01*
X162156015Y-124229671D01*
X161991051Y-124380055D01*
X161856526Y-124558195D01*
X161757026Y-124758018D01*
X161757023Y-124758024D01*
X161695937Y-124972723D01*
X161695936Y-124972726D01*
X161675340Y-125194999D01*
X161675340Y-125195000D01*
X161695936Y-125417273D01*
X161695937Y-125417276D01*
X161757023Y-125631975D01*
X161757026Y-125631981D01*
X161829904Y-125778340D01*
X161856526Y-125831804D01*
X161991050Y-126009943D01*
X162156017Y-126160330D01*
X162156024Y-126160334D01*
X162156025Y-126160335D01*
X162345804Y-126277841D01*
X162345805Y-126277841D01*
X162345808Y-126277843D01*
X162530452Y-126349374D01*
X162585851Y-126391946D01*
X162609442Y-126457713D01*
X162593731Y-126525793D01*
X162543707Y-126574572D01*
X162530461Y-126580621D01*
X162387216Y-126636115D01*
X162345810Y-126652156D01*
X162345804Y-126652158D01*
X162156025Y-126769664D01*
X162156015Y-126769671D01*
X161991051Y-126920055D01*
X161856526Y-127098195D01*
X161757026Y-127298018D01*
X161757023Y-127298024D01*
X161695937Y-127512723D01*
X161695936Y-127512726D01*
X161675340Y-127734999D01*
X161675340Y-127735000D01*
X161695936Y-127957273D01*
X161695937Y-127957276D01*
X161757023Y-128171975D01*
X161757026Y-128171981D01*
X161856526Y-128371804D01*
X161991051Y-128549944D01*
X162037552Y-128592335D01*
X162156017Y-128700330D01*
X162156024Y-128700334D01*
X162156025Y-128700335D01*
X162345804Y-128817841D01*
X162345805Y-128817841D01*
X162345808Y-128817843D01*
X162553961Y-128898482D01*
X162773387Y-128939500D01*
X162773389Y-128939500D01*
X162996611Y-128939500D01*
X162996613Y-128939500D01*
X163216039Y-128898482D01*
X163424192Y-128817843D01*
X163613983Y-128700330D01*
X163778950Y-128549943D01*
X163913474Y-128371804D01*
X164012974Y-128171980D01*
X164012974Y-128171977D01*
X164012976Y-128171975D01*
X164074062Y-127957276D01*
X164074063Y-127957273D01*
X164094660Y-127735000D01*
X164094660Y-127734999D01*
X164074063Y-127512726D01*
X164074062Y-127512723D01*
X164012976Y-127298024D01*
X164012973Y-127298018D01*
X163956899Y-127185406D01*
X163913474Y-127098196D01*
X163778950Y-126920057D01*
X163613983Y-126769670D01*
X163613979Y-126769667D01*
X163613974Y-126769664D01*
X163424195Y-126652158D01*
X163424186Y-126652154D01*
X163338430Y-126618932D01*
X163239547Y-126580625D01*
X163184148Y-126538054D01*
X163160557Y-126472288D01*
X163176268Y-126404207D01*
X163226292Y-126355428D01*
X163239538Y-126349378D01*
X163424192Y-126277843D01*
X163613983Y-126160330D01*
X163778950Y-126009943D01*
X163913474Y-125831804D01*
X164012974Y-125631980D01*
X164012974Y-125631977D01*
X164012976Y-125631975D01*
X164047954Y-125509036D01*
X164074063Y-125417274D01*
X164094660Y-125195000D01*
X164092284Y-125169364D01*
X164074063Y-124972726D01*
X164074062Y-124972723D01*
X164012976Y-124758024D01*
X164012973Y-124758018D01*
X164010641Y-124753334D01*
X163913474Y-124558196D01*
X163778950Y-124380057D01*
X163613983Y-124229670D01*
X163613979Y-124229667D01*
X163613974Y-124229664D01*
X163424195Y-124112158D01*
X163424186Y-124112154D01*
X163338430Y-124078932D01*
X163239547Y-124040625D01*
X163184148Y-123998054D01*
X163160557Y-123932288D01*
X163176268Y-123864207D01*
X163226292Y-123815428D01*
X163239538Y-123809378D01*
X163424192Y-123737843D01*
X163613983Y-123620330D01*
X163778950Y-123469943D01*
X163913474Y-123291804D01*
X164012974Y-123091980D01*
X164012974Y-123091977D01*
X164012976Y-123091975D01*
X164059677Y-122927834D01*
X164074063Y-122877274D01*
X164094660Y-122655000D01*
X164074063Y-122432726D01*
X164065191Y-122401544D01*
X164022074Y-122249999D01*
X164894341Y-122249999D01*
X164894341Y-122250000D01*
X164914936Y-122485403D01*
X164914938Y-122485413D01*
X164976094Y-122713655D01*
X164976096Y-122713659D01*
X164976097Y-122713663D01*
X165052390Y-122877273D01*
X165075965Y-122927830D01*
X165075967Y-122927834D01*
X165111887Y-122979132D01*
X165211501Y-123121396D01*
X165211506Y-123121402D01*
X165333818Y-123243714D01*
X165367303Y-123305037D01*
X165362319Y-123374729D01*
X165320447Y-123430662D01*
X165289471Y-123447577D01*
X165157912Y-123496646D01*
X165157906Y-123496649D01*
X165042812Y-123582809D01*
X165042809Y-123582812D01*
X164956649Y-123697906D01*
X164956645Y-123697913D01*
X164906403Y-123832620D01*
X164906401Y-123832627D01*
X164900000Y-123892155D01*
X164900000Y-124540000D01*
X165816988Y-124540000D01*
X165784075Y-124597007D01*
X165750000Y-124724174D01*
X165750000Y-124855826D01*
X165784075Y-124982993D01*
X165816988Y-125040000D01*
X164900000Y-125040000D01*
X164900000Y-125687844D01*
X164906401Y-125747372D01*
X164906403Y-125747379D01*
X164956645Y-125882086D01*
X164956649Y-125882093D01*
X165042809Y-125997187D01*
X165042812Y-125997190D01*
X165157906Y-126083350D01*
X165157913Y-126083354D01*
X165292620Y-126133596D01*
X165292627Y-126133598D01*
X165352155Y-126139999D01*
X165352172Y-126140000D01*
X166000000Y-126140000D01*
X166000000Y-125223012D01*
X166057007Y-125255925D01*
X166184174Y-125290000D01*
X166315826Y-125290000D01*
X166442993Y-125255925D01*
X166500000Y-125223012D01*
X166500000Y-126140000D01*
X167147828Y-126140000D01*
X167147844Y-126139999D01*
X167207372Y-126133598D01*
X167207379Y-126133596D01*
X167342086Y-126083354D01*
X167342093Y-126083350D01*
X167457187Y-125997190D01*
X167457190Y-125997187D01*
X167543350Y-125882093D01*
X167543354Y-125882086D01*
X167593596Y-125747379D01*
X167593598Y-125747372D01*
X167599999Y-125687844D01*
X167600000Y-125687827D01*
X167600000Y-125040000D01*
X166683012Y-125040000D01*
X166715925Y-124982993D01*
X166750000Y-124855826D01*
X166750000Y-124724174D01*
X166715925Y-124597007D01*
X166683012Y-124540000D01*
X167600000Y-124540000D01*
X167600000Y-123892172D01*
X167599999Y-123892155D01*
X167593598Y-123832627D01*
X167593596Y-123832620D01*
X167543354Y-123697913D01*
X167543350Y-123697906D01*
X167457190Y-123582812D01*
X167457187Y-123582809D01*
X167342093Y-123496649D01*
X167342088Y-123496646D01*
X167210528Y-123447577D01*
X167154595Y-123405705D01*
X167130178Y-123340241D01*
X167145030Y-123271968D01*
X167166175Y-123243720D01*
X167288495Y-123121401D01*
X167424035Y-122927830D01*
X167523903Y-122713663D01*
X167585063Y-122485408D01*
X167605659Y-122250000D01*
X167585063Y-122014592D01*
X167523903Y-121786337D01*
X167424035Y-121572171D01*
X167424026Y-121572157D01*
X167288494Y-121378597D01*
X167121402Y-121211506D01*
X167121395Y-121211501D01*
X167101892Y-121197845D01*
X167027989Y-121146097D01*
X166927834Y-121075967D01*
X166927830Y-121075965D01*
X166868114Y-121048119D01*
X166713663Y-120976097D01*
X166713659Y-120976096D01*
X166713655Y-120976094D01*
X166485413Y-120914938D01*
X166485403Y-120914936D01*
X166250001Y-120894341D01*
X166249999Y-120894341D01*
X166014596Y-120914936D01*
X166014586Y-120914938D01*
X165786344Y-120976094D01*
X165786335Y-120976098D01*
X165572171Y-121075964D01*
X165572169Y-121075965D01*
X165378597Y-121211505D01*
X165211505Y-121378597D01*
X165075965Y-121572169D01*
X165075964Y-121572171D01*
X164976098Y-121786335D01*
X164976094Y-121786344D01*
X164914938Y-122014586D01*
X164914936Y-122014596D01*
X164894341Y-122249999D01*
X164022074Y-122249999D01*
X164012976Y-122218024D01*
X164012973Y-122218018D01*
X163926340Y-122044035D01*
X163913474Y-122018196D01*
X163778950Y-121840057D01*
X163613983Y-121689670D01*
X163613979Y-121689667D01*
X163613974Y-121689664D01*
X163424195Y-121572158D01*
X163424186Y-121572154D01*
X163338430Y-121538932D01*
X163239547Y-121500625D01*
X163184148Y-121458054D01*
X163160557Y-121392288D01*
X163176268Y-121324207D01*
X163226292Y-121275428D01*
X163239538Y-121269378D01*
X163424192Y-121197843D01*
X163613983Y-121080330D01*
X163778950Y-120929943D01*
X163787890Y-120918105D01*
X163790407Y-120914772D01*
X163846516Y-120873137D01*
X163889360Y-120865500D01*
X164828920Y-120865500D01*
X164926462Y-120846096D01*
X164973913Y-120836658D01*
X165110495Y-120780084D01*
X165159729Y-120747186D01*
X165233416Y-120697952D01*
X165924548Y-120006817D01*
X165985871Y-119973333D01*
X166012229Y-119970499D01*
X167147871Y-119970499D01*
X167147872Y-119970499D01*
X167207483Y-119964091D01*
X167342331Y-119913796D01*
X167457546Y-119827546D01*
X167543796Y-119712331D01*
X167594091Y-119577483D01*
X167600500Y-119517873D01*
X167600499Y-117722128D01*
X167594091Y-117662517D01*
X167590232Y-117652171D01*
X167543797Y-117527671D01*
X167543793Y-117527664D01*
X167457547Y-117412455D01*
X167457544Y-117412452D01*
X167342335Y-117326206D01*
X167342328Y-117326202D01*
X167210917Y-117277189D01*
X167154983Y-117235318D01*
X167130566Y-117169853D01*
X167145418Y-117101580D01*
X167166563Y-117073332D01*
X167288495Y-116951401D01*
X167424035Y-116757830D01*
X167523903Y-116543663D01*
X167585063Y-116315408D01*
X167605659Y-116080000D01*
X167585063Y-115844592D01*
X167523903Y-115616337D01*
X167424035Y-115402171D01*
X167401636Y-115370181D01*
X167288494Y-115208597D01*
X167121402Y-115041506D01*
X167121396Y-115041501D01*
X166935842Y-114911575D01*
X166892217Y-114856998D01*
X166885023Y-114787500D01*
X166916546Y-114725145D01*
X166935842Y-114708425D01*
X166996918Y-114665659D01*
X167121401Y-114578495D01*
X167288495Y-114411401D01*
X167424035Y-114217830D01*
X167523903Y-114003663D01*
X167585063Y-113775408D01*
X167605659Y-113540000D01*
X167585063Y-113304592D01*
X167523903Y-113076337D01*
X167424035Y-112862171D01*
X167398988Y-112826399D01*
X167288494Y-112668597D01*
X167121402Y-112501506D01*
X167121396Y-112501501D01*
X166935842Y-112371575D01*
X166892217Y-112316998D01*
X166885023Y-112247500D01*
X166916546Y-112185145D01*
X166935842Y-112168425D01*
X166958026Y-112152891D01*
X167121401Y-112038495D01*
X167288495Y-111871401D01*
X167424035Y-111677830D01*
X167523903Y-111463663D01*
X167585063Y-111235408D01*
X167605659Y-111000000D01*
X167585063Y-110764592D01*
X167523903Y-110536337D01*
X167424035Y-110322171D01*
X167327046Y-110183655D01*
X167288494Y-110128597D01*
X167121402Y-109961506D01*
X167121395Y-109961501D01*
X167112693Y-109955408D01*
X167082521Y-109934281D01*
X166927834Y-109825967D01*
X166927830Y-109825965D01*
X166883735Y-109805403D01*
X166713663Y-109726097D01*
X166713659Y-109726096D01*
X166713655Y-109726094D01*
X166485413Y-109664938D01*
X166485403Y-109664936D01*
X166250001Y-109644341D01*
X166249998Y-109644341D01*
X166036986Y-109662977D01*
X165968486Y-109649210D01*
X165938498Y-109627130D01*
X165683421Y-109372052D01*
X165683420Y-109372051D01*
X165602819Y-109318196D01*
X165602818Y-109318195D01*
X165560500Y-109289919D01*
X165560488Y-109289912D01*
X165423917Y-109233343D01*
X165423907Y-109233340D01*
X165278920Y-109204500D01*
X165278918Y-109204500D01*
X163889360Y-109204500D01*
X163822321Y-109184815D01*
X163790407Y-109155228D01*
X163778949Y-109140055D01*
X163613984Y-108989671D01*
X163613974Y-108989664D01*
X163424195Y-108872158D01*
X163424186Y-108872154D01*
X163338430Y-108838932D01*
X163239547Y-108800625D01*
X163184148Y-108758054D01*
X163160557Y-108692288D01*
X163176268Y-108624207D01*
X163226292Y-108575428D01*
X163239538Y-108569378D01*
X163424192Y-108497843D01*
X163613983Y-108380330D01*
X163778950Y-108229943D01*
X163790407Y-108214772D01*
X163846516Y-108173137D01*
X163889360Y-108165500D01*
X164777111Y-108165500D01*
X164844150Y-108185185D01*
X164889905Y-108237989D01*
X164900401Y-108276246D01*
X164905909Y-108327483D01*
X164956202Y-108462328D01*
X164956206Y-108462335D01*
X165042452Y-108577544D01*
X165042455Y-108577547D01*
X165157664Y-108663793D01*
X165157671Y-108663797D01*
X165292517Y-108714091D01*
X165292516Y-108714091D01*
X165299444Y-108714835D01*
X165352127Y-108720500D01*
X167147872Y-108720499D01*
X167207483Y-108714091D01*
X167342331Y-108663796D01*
X167457546Y-108577546D01*
X167543796Y-108462331D01*
X167594091Y-108327483D01*
X167600500Y-108267873D01*
X167600499Y-106472128D01*
X167594091Y-106412517D01*
X167571583Y-106352171D01*
X167543797Y-106277671D01*
X167543793Y-106277664D01*
X167457547Y-106162455D01*
X167457544Y-106162452D01*
X167342335Y-106076206D01*
X167342328Y-106076202D01*
X167210917Y-106027189D01*
X167154983Y-105985318D01*
X167130566Y-105919853D01*
X167145418Y-105851580D01*
X167166563Y-105823332D01*
X167288495Y-105701401D01*
X167424035Y-105507830D01*
X167523903Y-105293663D01*
X167585063Y-105065408D01*
X167605659Y-104830000D01*
X167585063Y-104594592D01*
X167523903Y-104366337D01*
X167424035Y-104152171D01*
X167390877Y-104104815D01*
X167288494Y-103958597D01*
X167121402Y-103791506D01*
X167121396Y-103791501D01*
X166935842Y-103661575D01*
X166892217Y-103606998D01*
X166885023Y-103537500D01*
X166916546Y-103475145D01*
X166935842Y-103458425D01*
X167045629Y-103381551D01*
X167121401Y-103328495D01*
X167288495Y-103161401D01*
X167424035Y-102967830D01*
X167523903Y-102753663D01*
X167585063Y-102525408D01*
X167605659Y-102290000D01*
X167585063Y-102054592D01*
X167523903Y-101826337D01*
X167424035Y-101612171D01*
X167398182Y-101575248D01*
X167288494Y-101418597D01*
X167121402Y-101251506D01*
X167121396Y-101251501D01*
X166935842Y-101121575D01*
X166892217Y-101066998D01*
X166885023Y-100997500D01*
X166916546Y-100935145D01*
X166935842Y-100918425D01*
X166993802Y-100877841D01*
X167121401Y-100788495D01*
X167288495Y-100621401D01*
X167424035Y-100427830D01*
X167523903Y-100213663D01*
X167585063Y-99985408D01*
X167605659Y-99750000D01*
X167585063Y-99514592D01*
X167534152Y-99324586D01*
X167523905Y-99286344D01*
X167523904Y-99286343D01*
X167523903Y-99286337D01*
X167424035Y-99072171D01*
X167398182Y-99035248D01*
X167288494Y-98878597D01*
X167121402Y-98711506D01*
X167121395Y-98711501D01*
X166927834Y-98575967D01*
X166927830Y-98575965D01*
X166846227Y-98537913D01*
X166713663Y-98476097D01*
X166713659Y-98476096D01*
X166713655Y-98476094D01*
X166485413Y-98414938D01*
X166485403Y-98414936D01*
X166250001Y-98394341D01*
X166249999Y-98394341D01*
X166014596Y-98414936D01*
X166014586Y-98414938D01*
X165786344Y-98476094D01*
X165786335Y-98476098D01*
X165572171Y-98575964D01*
X165572169Y-98575965D01*
X165378597Y-98711505D01*
X165211506Y-98878597D01*
X165211501Y-98878603D01*
X165132365Y-98991623D01*
X165077788Y-99035248D01*
X165030790Y-99044500D01*
X163889360Y-99044500D01*
X163822321Y-99024815D01*
X163790407Y-98995228D01*
X163778949Y-98980055D01*
X163613984Y-98829671D01*
X163613974Y-98829664D01*
X163424195Y-98712158D01*
X163424186Y-98712154D01*
X163338430Y-98678932D01*
X163239547Y-98640625D01*
X163184148Y-98598054D01*
X163160557Y-98532288D01*
X163176268Y-98464207D01*
X163226292Y-98415428D01*
X163239538Y-98409378D01*
X163424192Y-98337843D01*
X163613983Y-98220330D01*
X163778950Y-98069943D01*
X163913474Y-97891804D01*
X164012974Y-97691980D01*
X164012974Y-97691977D01*
X164012976Y-97691975D01*
X164074062Y-97477276D01*
X164074063Y-97477273D01*
X164074355Y-97474128D01*
X164094660Y-97255000D01*
X164074063Y-97032726D01*
X164065191Y-97001544D01*
X164012976Y-96818024D01*
X164012973Y-96818017D01*
X163941795Y-96675072D01*
X163913474Y-96618196D01*
X163778950Y-96440057D01*
X163613983Y-96289670D01*
X163613979Y-96289667D01*
X163613974Y-96289664D01*
X163424195Y-96172158D01*
X163424186Y-96172154D01*
X163333219Y-96136914D01*
X163239547Y-96100625D01*
X163184148Y-96058054D01*
X163160557Y-95992288D01*
X163176268Y-95924207D01*
X163226292Y-95875428D01*
X163239538Y-95869378D01*
X163424192Y-95797843D01*
X163613983Y-95680330D01*
X163778950Y-95529943D01*
X163913474Y-95351804D01*
X164012974Y-95151980D01*
X164012974Y-95151977D01*
X164012976Y-95151975D01*
X164074062Y-94937276D01*
X164074063Y-94937273D01*
X164082297Y-94848421D01*
X164094660Y-94715000D01*
X164087454Y-94637242D01*
X164100868Y-94568675D01*
X164123241Y-94538124D01*
X164472351Y-94189015D01*
X164533671Y-94155532D01*
X164603363Y-94160516D01*
X164659296Y-94202388D01*
X164683713Y-94267852D01*
X164683557Y-94287505D01*
X164669341Y-94449997D01*
X164669341Y-94450000D01*
X164689936Y-94685403D01*
X164689938Y-94685413D01*
X164751094Y-94913655D01*
X164751096Y-94913659D01*
X164751097Y-94913663D01*
X164762107Y-94937273D01*
X164850965Y-95127830D01*
X164850967Y-95127834D01*
X164959281Y-95282521D01*
X164986505Y-95321401D01*
X165153599Y-95488495D01*
X165250384Y-95556265D01*
X165347165Y-95624032D01*
X165347167Y-95624033D01*
X165347170Y-95624035D01*
X165561337Y-95723903D01*
X165789592Y-95785063D01*
X165977918Y-95801539D01*
X166024999Y-95805659D01*
X166025000Y-95805659D01*
X166025001Y-95805659D01*
X166064234Y-95802226D01*
X166260408Y-95785063D01*
X166488663Y-95723903D01*
X166702830Y-95624035D01*
X166896401Y-95488495D01*
X167063495Y-95321401D01*
X167199035Y-95127830D01*
X167298903Y-94913663D01*
X167360063Y-94685408D01*
X167380659Y-94450000D01*
X167362022Y-94236985D01*
X167375788Y-94168486D01*
X167397866Y-94138500D01*
X168537819Y-92998549D01*
X168599142Y-92965064D01*
X168668834Y-92970048D01*
X168724767Y-93011920D01*
X168749184Y-93077384D01*
X168749500Y-93086230D01*
X168749500Y-130625500D01*
X168729815Y-130692539D01*
X168677011Y-130738294D01*
X168625500Y-130749500D01*
X141848072Y-130749500D01*
X141781033Y-130729815D01*
X141735278Y-130677011D01*
X141725334Y-130607853D01*
X141731030Y-130584546D01*
X141785367Y-130429257D01*
X141785368Y-130429255D01*
X141805565Y-130250000D01*
X141785368Y-130070745D01*
X141725789Y-129900478D01*
X141629816Y-129747738D01*
X141502262Y-129620184D01*
X141349523Y-129524211D01*
X141179254Y-129464631D01*
X141179249Y-129464630D01*
X141000004Y-129444435D01*
X140999998Y-129444435D01*
X140961969Y-129448720D01*
X140948085Y-129449500D01*
X133062229Y-129449500D01*
X132995190Y-129429815D01*
X132974548Y-129413181D01*
X132786819Y-129225451D01*
X132753334Y-129164128D01*
X132750500Y-129137770D01*
X132750500Y-128913769D01*
X132770185Y-128846730D01*
X132822989Y-128800975D01*
X132892147Y-128791031D01*
X132917833Y-128797587D01*
X133042517Y-128844091D01*
X133042516Y-128844091D01*
X133049444Y-128844835D01*
X133102127Y-128850500D01*
X134897872Y-128850499D01*
X134957483Y-128844091D01*
X135092331Y-128793796D01*
X135207546Y-128707546D01*
X135293796Y-128592331D01*
X135344091Y-128457483D01*
X135350500Y-128397873D01*
X135350499Y-126602128D01*
X135344091Y-126542517D01*
X135342426Y-126538054D01*
X135293797Y-126407671D01*
X135293793Y-126407664D01*
X135207547Y-126292455D01*
X135207544Y-126292452D01*
X135092335Y-126206206D01*
X135092328Y-126206202D01*
X134960401Y-126156997D01*
X134904467Y-126115126D01*
X134880050Y-126049662D01*
X134894902Y-125981389D01*
X134916053Y-125953133D01*
X135038108Y-125831078D01*
X135173600Y-125637578D01*
X135273429Y-125423492D01*
X135273432Y-125423486D01*
X135330636Y-125210000D01*
X134433012Y-125210000D01*
X134465925Y-125152993D01*
X134500000Y-125025826D01*
X134500000Y-124894174D01*
X134465925Y-124767007D01*
X134433012Y-124710000D01*
X135330636Y-124710000D01*
X135330635Y-124709999D01*
X135273432Y-124496513D01*
X135273429Y-124496507D01*
X135173600Y-124282422D01*
X135173599Y-124282420D01*
X135038113Y-124088926D01*
X135038108Y-124088920D01*
X134871078Y-123921890D01*
X134685405Y-123791879D01*
X134641780Y-123737302D01*
X134634588Y-123667804D01*
X134666110Y-123605449D01*
X134685406Y-123588730D01*
X134693862Y-123582809D01*
X134871401Y-123458495D01*
X135038495Y-123291401D01*
X135174035Y-123097830D01*
X135273903Y-122883663D01*
X135335063Y-122655408D01*
X135355659Y-122420000D01*
X135335063Y-122184592D01*
X135273903Y-121956337D01*
X135174035Y-121742171D01*
X135137275Y-121689671D01*
X135038494Y-121548597D01*
X134871402Y-121381506D01*
X134871401Y-121381505D01*
X134685405Y-121251269D01*
X134641781Y-121196692D01*
X134634588Y-121127193D01*
X134666110Y-121064839D01*
X134685405Y-121048119D01*
X134871082Y-120918105D01*
X135038105Y-120751082D01*
X135173600Y-120557578D01*
X135273429Y-120343492D01*
X135273432Y-120343486D01*
X135330636Y-120130000D01*
X134433012Y-120130000D01*
X134465925Y-120072993D01*
X134500000Y-119945826D01*
X134500000Y-119814174D01*
X134465925Y-119687007D01*
X134433012Y-119630000D01*
X135330636Y-119630000D01*
X135330635Y-119629999D01*
X135273432Y-119416513D01*
X135273429Y-119416507D01*
X135173600Y-119202422D01*
X135173599Y-119202420D01*
X135038113Y-119008926D01*
X135038108Y-119008920D01*
X134871078Y-118841890D01*
X134685405Y-118711879D01*
X134641780Y-118657302D01*
X134634588Y-118587804D01*
X134666110Y-118525449D01*
X134685406Y-118508730D01*
X134785429Y-118438693D01*
X134871401Y-118378495D01*
X135038495Y-118211401D01*
X135174035Y-118017830D01*
X135273903Y-117803663D01*
X135335063Y-117575408D01*
X135355659Y-117340000D01*
X135335063Y-117104592D01*
X135273903Y-116876337D01*
X135174035Y-116662171D01*
X135151073Y-116629377D01*
X135038494Y-116468597D01*
X134871402Y-116301506D01*
X134871401Y-116301505D01*
X134685405Y-116171269D01*
X134641781Y-116116692D01*
X134634588Y-116047193D01*
X134666110Y-115984839D01*
X134685405Y-115968119D01*
X134871082Y-115838105D01*
X135038105Y-115671082D01*
X135173600Y-115477578D01*
X135273429Y-115263492D01*
X135273432Y-115263486D01*
X135330636Y-115050000D01*
X134433012Y-115050000D01*
X134465925Y-114992993D01*
X134500000Y-114865826D01*
X134500000Y-114734174D01*
X134465925Y-114607007D01*
X134433012Y-114550000D01*
X135330636Y-114550000D01*
X135330635Y-114549999D01*
X135273432Y-114336513D01*
X135273429Y-114336507D01*
X135173600Y-114122422D01*
X135173599Y-114122420D01*
X135038113Y-113928926D01*
X135038108Y-113928920D01*
X134871082Y-113761894D01*
X134684968Y-113631575D01*
X134641344Y-113576998D01*
X134634151Y-113507499D01*
X134665673Y-113445145D01*
X134684968Y-113428425D01*
X134871082Y-113298105D01*
X135038105Y-113131082D01*
X135173600Y-112937578D01*
X135273429Y-112723492D01*
X135273432Y-112723486D01*
X135330636Y-112510000D01*
X134433012Y-112510000D01*
X134465925Y-112452993D01*
X134500000Y-112325826D01*
X134500000Y-112194174D01*
X134465925Y-112067007D01*
X134433012Y-112010000D01*
X135330636Y-112010000D01*
X135330635Y-112009999D01*
X135273432Y-111796513D01*
X135273429Y-111796507D01*
X135173600Y-111582422D01*
X135173599Y-111582420D01*
X135038113Y-111388926D01*
X135038108Y-111388920D01*
X134871078Y-111221890D01*
X134685405Y-111091879D01*
X134641780Y-111037302D01*
X134634588Y-110967804D01*
X134666110Y-110905449D01*
X134685406Y-110888730D01*
X134749423Y-110843905D01*
X134871401Y-110758495D01*
X135038495Y-110591401D01*
X135174035Y-110397830D01*
X135273903Y-110183663D01*
X135335063Y-109955408D01*
X135355659Y-109720000D01*
X135335063Y-109484592D01*
X135273903Y-109256337D01*
X135174035Y-109042171D01*
X135137275Y-108989671D01*
X135038494Y-108848597D01*
X134871402Y-108681506D01*
X134871401Y-108681505D01*
X134685405Y-108551269D01*
X134641781Y-108496692D01*
X134634588Y-108427193D01*
X134666110Y-108364839D01*
X134685405Y-108348119D01*
X134871082Y-108218105D01*
X135038105Y-108051082D01*
X135173600Y-107857578D01*
X135273429Y-107643492D01*
X135273432Y-107643486D01*
X135330636Y-107430000D01*
X134433012Y-107430000D01*
X134465925Y-107372993D01*
X134500000Y-107245826D01*
X134500000Y-107114174D01*
X134465925Y-106987007D01*
X134433012Y-106930000D01*
X135330636Y-106930000D01*
X135330635Y-106929999D01*
X135273432Y-106716513D01*
X135273429Y-106716507D01*
X135173600Y-106502422D01*
X135173599Y-106502420D01*
X135038113Y-106308926D01*
X135038108Y-106308920D01*
X134871078Y-106141890D01*
X134685405Y-106011879D01*
X134641780Y-105957302D01*
X134634588Y-105887804D01*
X134666110Y-105825449D01*
X134685406Y-105808730D01*
X134722862Y-105782503D01*
X134871401Y-105678495D01*
X135038495Y-105511401D01*
X135174035Y-105317830D01*
X135273903Y-105103663D01*
X135335063Y-104875408D01*
X135355659Y-104640000D01*
X135335063Y-104404592D01*
X135273903Y-104176337D01*
X135174035Y-103962171D01*
X135171533Y-103958597D01*
X135038494Y-103768597D01*
X134871402Y-103601506D01*
X134871401Y-103601505D01*
X134685405Y-103471269D01*
X134641781Y-103416692D01*
X134634588Y-103347193D01*
X134666110Y-103284839D01*
X134685405Y-103268119D01*
X134871082Y-103138105D01*
X135038105Y-102971082D01*
X135173600Y-102777578D01*
X135273429Y-102563492D01*
X135273432Y-102563486D01*
X135330636Y-102350000D01*
X134433012Y-102350000D01*
X134465925Y-102292993D01*
X134500000Y-102165826D01*
X134500000Y-102034174D01*
X134465925Y-101907007D01*
X134433012Y-101850000D01*
X135330636Y-101850000D01*
X135330635Y-101849999D01*
X135273432Y-101636513D01*
X135273429Y-101636507D01*
X135173600Y-101422422D01*
X135173599Y-101422420D01*
X135038113Y-101228926D01*
X135038108Y-101228920D01*
X134871078Y-101061890D01*
X134685405Y-100931879D01*
X134641780Y-100877302D01*
X134634588Y-100807804D01*
X134666110Y-100745449D01*
X134685406Y-100728730D01*
X134788984Y-100656204D01*
X134871401Y-100598495D01*
X135038495Y-100431401D01*
X135174035Y-100237830D01*
X135273903Y-100023663D01*
X135335063Y-99795408D01*
X135355659Y-99560000D01*
X135335063Y-99324592D01*
X135273903Y-99096337D01*
X135174035Y-98882171D01*
X135171534Y-98878599D01*
X135060272Y-98719699D01*
X135037945Y-98653493D01*
X135054955Y-98585726D01*
X135105903Y-98537913D01*
X135174613Y-98525235D01*
X135239270Y-98551717D01*
X135249528Y-98560895D01*
X136251843Y-99563210D01*
X136285328Y-99624533D01*
X136287633Y-99662332D01*
X136275340Y-99794998D01*
X136275340Y-99795000D01*
X136295936Y-100017273D01*
X136295937Y-100017276D01*
X136357023Y-100231975D01*
X136357026Y-100231981D01*
X136429162Y-100376849D01*
X136456526Y-100431804D01*
X136587390Y-100605097D01*
X136591051Y-100609944D01*
X136611515Y-100628599D01*
X136756017Y-100760330D01*
X136756024Y-100760334D01*
X136756025Y-100760335D01*
X136945804Y-100877841D01*
X136945805Y-100877841D01*
X136945808Y-100877843D01*
X137130452Y-100949374D01*
X137185851Y-100991946D01*
X137209442Y-101057713D01*
X137193731Y-101125793D01*
X137143707Y-101174572D01*
X137130461Y-101180621D01*
X137005790Y-101228920D01*
X136945810Y-101252156D01*
X136945804Y-101252158D01*
X136756025Y-101369664D01*
X136756015Y-101369671D01*
X136591051Y-101520055D01*
X136456526Y-101698195D01*
X136357026Y-101898018D01*
X136357023Y-101898024D01*
X136295937Y-102112723D01*
X136295936Y-102112726D01*
X136275340Y-102334999D01*
X136275340Y-102335000D01*
X136295936Y-102557273D01*
X136295937Y-102557276D01*
X136357023Y-102771975D01*
X136357026Y-102771981D01*
X136424498Y-102907483D01*
X136456526Y-102971804D01*
X136591050Y-103149943D01*
X136756017Y-103300330D01*
X136756024Y-103300334D01*
X136756025Y-103300335D01*
X136945804Y-103417841D01*
X136945805Y-103417841D01*
X136945808Y-103417843D01*
X137130452Y-103489374D01*
X137185851Y-103531946D01*
X137209442Y-103597713D01*
X137193731Y-103665793D01*
X137143707Y-103714572D01*
X137130461Y-103720621D01*
X137006618Y-103768599D01*
X136945810Y-103792156D01*
X136945804Y-103792158D01*
X136756025Y-103909664D01*
X136756015Y-103909671D01*
X136591051Y-104060055D01*
X136456526Y-104238195D01*
X136357026Y-104438018D01*
X136357023Y-104438024D01*
X136295937Y-104652723D01*
X136295936Y-104652726D01*
X136275340Y-104874999D01*
X136275340Y-104875000D01*
X136295936Y-105097273D01*
X136295937Y-105097276D01*
X136357023Y-105311975D01*
X136357026Y-105311981D01*
X136381635Y-105361402D01*
X136456526Y-105511804D01*
X136591050Y-105689943D01*
X136756017Y-105840330D01*
X136756024Y-105840334D01*
X136756025Y-105840335D01*
X136945804Y-105957841D01*
X136945805Y-105957841D01*
X136945808Y-105957843D01*
X137130452Y-106029374D01*
X137185851Y-106071946D01*
X137209442Y-106137713D01*
X137193731Y-106205793D01*
X137143707Y-106254572D01*
X137130461Y-106260621D01*
X137005790Y-106308920D01*
X136945810Y-106332156D01*
X136945804Y-106332158D01*
X136756025Y-106449664D01*
X136756015Y-106449671D01*
X136591051Y-106600055D01*
X136456526Y-106778195D01*
X136357026Y-106978018D01*
X136357023Y-106978024D01*
X136295937Y-107192723D01*
X136295936Y-107192726D01*
X136275340Y-107414999D01*
X136275340Y-107415000D01*
X136295936Y-107637273D01*
X136295937Y-107637276D01*
X136357023Y-107851975D01*
X136357026Y-107851981D01*
X136381635Y-107901402D01*
X136456526Y-108051804D01*
X136591050Y-108229943D01*
X136756017Y-108380330D01*
X136756024Y-108380334D01*
X136756025Y-108380335D01*
X136945804Y-108497841D01*
X136945805Y-108497841D01*
X136945808Y-108497843D01*
X137130452Y-108569374D01*
X137185851Y-108611946D01*
X137209442Y-108677713D01*
X137193731Y-108745793D01*
X137143707Y-108794572D01*
X137130461Y-108800621D01*
X137006618Y-108848599D01*
X136945810Y-108872156D01*
X136945804Y-108872158D01*
X136756025Y-108989664D01*
X136756015Y-108989671D01*
X136591051Y-109140055D01*
X136456526Y-109318195D01*
X136357026Y-109518018D01*
X136357023Y-109518024D01*
X136295937Y-109732723D01*
X136295936Y-109732726D01*
X136275340Y-109954999D01*
X136275340Y-109955000D01*
X136295936Y-110177273D01*
X136295937Y-110177276D01*
X136357023Y-110391975D01*
X136357026Y-110391981D01*
X136381635Y-110441402D01*
X136456526Y-110591804D01*
X136591050Y-110769943D01*
X136756017Y-110920330D01*
X136756024Y-110920334D01*
X136756025Y-110920335D01*
X136945804Y-111037841D01*
X136945805Y-111037841D01*
X136945808Y-111037843D01*
X137130452Y-111109374D01*
X137185851Y-111151946D01*
X137209442Y-111217713D01*
X137193731Y-111285793D01*
X137143707Y-111334572D01*
X137130461Y-111340621D01*
X137005790Y-111388920D01*
X136945810Y-111412156D01*
X136945804Y-111412158D01*
X136756025Y-111529664D01*
X136756015Y-111529671D01*
X136591051Y-111680055D01*
X136456526Y-111858195D01*
X136357026Y-112058018D01*
X136357023Y-112058024D01*
X136295937Y-112272723D01*
X136295936Y-112272726D01*
X136275340Y-112494999D01*
X136275340Y-112495000D01*
X136295936Y-112717273D01*
X136295937Y-112717276D01*
X136357023Y-112931975D01*
X136357026Y-112931981D01*
X136450623Y-113119949D01*
X136456526Y-113131804D01*
X136582110Y-113298105D01*
X136591051Y-113309944D01*
X136616840Y-113333454D01*
X136756017Y-113460330D01*
X136756024Y-113460334D01*
X136756025Y-113460335D01*
X136945804Y-113577841D01*
X136945805Y-113577841D01*
X136945808Y-113577843D01*
X137130452Y-113649374D01*
X137185851Y-113691946D01*
X137209442Y-113757713D01*
X137193731Y-113825793D01*
X137143707Y-113874572D01*
X137130461Y-113880621D01*
X137005790Y-113928920D01*
X136945810Y-113952156D01*
X136945804Y-113952158D01*
X136756025Y-114069664D01*
X136756015Y-114069671D01*
X136591051Y-114220055D01*
X136456526Y-114398195D01*
X136357026Y-114598018D01*
X136357023Y-114598024D01*
X136295937Y-114812723D01*
X136295936Y-114812726D01*
X136275340Y-115034999D01*
X136275340Y-115035000D01*
X136295936Y-115257273D01*
X136295937Y-115257276D01*
X136357023Y-115471975D01*
X136357026Y-115471981D01*
X136428906Y-115616335D01*
X136456526Y-115671804D01*
X136591050Y-115849943D01*
X136756017Y-116000330D01*
X136756024Y-116000334D01*
X136756025Y-116000335D01*
X136945804Y-116117841D01*
X136945805Y-116117841D01*
X136945808Y-116117843D01*
X137130452Y-116189374D01*
X137185851Y-116231946D01*
X137209442Y-116297713D01*
X137193731Y-116365793D01*
X137143707Y-116414572D01*
X137130461Y-116420621D01*
X137006618Y-116468599D01*
X136945810Y-116492156D01*
X136945804Y-116492158D01*
X136756025Y-116609664D01*
X136756015Y-116609671D01*
X136591051Y-116760055D01*
X136456526Y-116938195D01*
X136357026Y-117138018D01*
X136357023Y-117138024D01*
X136295937Y-117352723D01*
X136295936Y-117352726D01*
X136275340Y-117574999D01*
X136275340Y-117575000D01*
X136295936Y-117797273D01*
X136295937Y-117797276D01*
X136357023Y-118011975D01*
X136357026Y-118011981D01*
X136456322Y-118211395D01*
X136456526Y-118211804D01*
X136591050Y-118389943D01*
X136756017Y-118540330D01*
X136756024Y-118540334D01*
X136756025Y-118540335D01*
X136945804Y-118657841D01*
X136945805Y-118657841D01*
X136945808Y-118657843D01*
X137130452Y-118729374D01*
X137185851Y-118771946D01*
X137209442Y-118837713D01*
X137193731Y-118905793D01*
X137143707Y-118954572D01*
X137130461Y-118960621D01*
X137008603Y-119007830D01*
X136945810Y-119032156D01*
X136945804Y-119032158D01*
X136756025Y-119149664D01*
X136756015Y-119149671D01*
X136591051Y-119300055D01*
X136456526Y-119478195D01*
X136357026Y-119678018D01*
X136357023Y-119678024D01*
X136295937Y-119892723D01*
X136295936Y-119892726D01*
X136275340Y-120114999D01*
X136275340Y-120115000D01*
X136295936Y-120337273D01*
X136295937Y-120337276D01*
X136357023Y-120551975D01*
X136357026Y-120551981D01*
X136429710Y-120697950D01*
X136456526Y-120751804D01*
X136591050Y-120929943D01*
X136756017Y-121080330D01*
X136756024Y-121080334D01*
X136756025Y-121080335D01*
X136945804Y-121197841D01*
X136945805Y-121197841D01*
X136945808Y-121197843D01*
X137130452Y-121269374D01*
X137185851Y-121311946D01*
X137209442Y-121377713D01*
X137193731Y-121445793D01*
X137143707Y-121494572D01*
X137130461Y-121500621D01*
X137006618Y-121548599D01*
X136945810Y-121572156D01*
X136945804Y-121572158D01*
X136756025Y-121689664D01*
X136756015Y-121689671D01*
X136591051Y-121840055D01*
X136456526Y-122018195D01*
X136357026Y-122218018D01*
X136357023Y-122218024D01*
X136295937Y-122432723D01*
X136295936Y-122432726D01*
X136275340Y-122654999D01*
X136275340Y-122655000D01*
X136295936Y-122877273D01*
X136295937Y-122877276D01*
X136357023Y-123091975D01*
X136357026Y-123091981D01*
X136418821Y-123216082D01*
X136456526Y-123291804D01*
X136591050Y-123469943D01*
X136756017Y-123620330D01*
X136756024Y-123620334D01*
X136756025Y-123620335D01*
X136945804Y-123737841D01*
X136945805Y-123737841D01*
X136945808Y-123737843D01*
X137130452Y-123809374D01*
X137185851Y-123851946D01*
X137209442Y-123917713D01*
X137193731Y-123985793D01*
X137143707Y-124034572D01*
X137130461Y-124040621D01*
X137005790Y-124088920D01*
X136945810Y-124112156D01*
X136945804Y-124112158D01*
X136756025Y-124229664D01*
X136756015Y-124229671D01*
X136591051Y-124380055D01*
X136456526Y-124558195D01*
X136357026Y-124758018D01*
X136357023Y-124758024D01*
X136295937Y-124972723D01*
X136295936Y-124972726D01*
X136275340Y-125194999D01*
X136275340Y-125195000D01*
X136295936Y-125417273D01*
X136295937Y-125417276D01*
X136357023Y-125631975D01*
X136357026Y-125631981D01*
X136429904Y-125778340D01*
X136456526Y-125831804D01*
X136591050Y-126009943D01*
X136756017Y-126160330D01*
X136756024Y-126160334D01*
X136756025Y-126160335D01*
X136945804Y-126277841D01*
X136945805Y-126277841D01*
X136945808Y-126277843D01*
X137130452Y-126349374D01*
X137185851Y-126391946D01*
X137209442Y-126457713D01*
X137193731Y-126525793D01*
X137143707Y-126574572D01*
X137130461Y-126580621D01*
X136987216Y-126636115D01*
X136945810Y-126652156D01*
X136945804Y-126652158D01*
X136756025Y-126769664D01*
X136756015Y-126769671D01*
X136591051Y-126920055D01*
X136456526Y-127098195D01*
X136357026Y-127298018D01*
X136357023Y-127298024D01*
X136295937Y-127512723D01*
X136295936Y-127512726D01*
X136275340Y-127734999D01*
X136275340Y-127735000D01*
X136295936Y-127957273D01*
X136295937Y-127957276D01*
X136357023Y-128171975D01*
X136357026Y-128171981D01*
X136456526Y-128371804D01*
X136591051Y-128549944D01*
X136637552Y-128592335D01*
X136756017Y-128700330D01*
X136756024Y-128700334D01*
X136756025Y-128700335D01*
X136945804Y-128817841D01*
X136945805Y-128817841D01*
X136945808Y-128817843D01*
X137153961Y-128898482D01*
X137373387Y-128939500D01*
X137373389Y-128939500D01*
X137596611Y-128939500D01*
X137596613Y-128939500D01*
X137816039Y-128898482D01*
X138024192Y-128817843D01*
X138213983Y-128700330D01*
X138378950Y-128549943D01*
X138513474Y-128371804D01*
X138612974Y-128171980D01*
X138612974Y-128171977D01*
X138612976Y-128171975D01*
X138674062Y-127957276D01*
X138674063Y-127957273D01*
X138694660Y-127735000D01*
X138694660Y-127734999D01*
X138674063Y-127512726D01*
X138674062Y-127512723D01*
X138612976Y-127298024D01*
X138612973Y-127298018D01*
X138556899Y-127185406D01*
X138513474Y-127098196D01*
X138378950Y-126920057D01*
X138213983Y-126769670D01*
X138213979Y-126769667D01*
X138213974Y-126769664D01*
X138024195Y-126652158D01*
X138024186Y-126652154D01*
X137938430Y-126618932D01*
X137839547Y-126580625D01*
X137784148Y-126538054D01*
X137760557Y-126472288D01*
X137776268Y-126404207D01*
X137826292Y-126355428D01*
X137839538Y-126349378D01*
X138024192Y-126277843D01*
X138213983Y-126160330D01*
X138378950Y-126009943D01*
X138513474Y-125831804D01*
X138612974Y-125631980D01*
X138612974Y-125631977D01*
X138612976Y-125631975D01*
X138647954Y-125509036D01*
X138674063Y-125417274D01*
X138694660Y-125195000D01*
X138692284Y-125169364D01*
X138674063Y-124972726D01*
X138674062Y-124972723D01*
X138612976Y-124758024D01*
X138612973Y-124758018D01*
X138610641Y-124753334D01*
X138513474Y-124558196D01*
X138378950Y-124380057D01*
X138213983Y-124229670D01*
X138213979Y-124229667D01*
X138213974Y-124229664D01*
X138024195Y-124112158D01*
X138024186Y-124112154D01*
X137938430Y-124078932D01*
X137839547Y-124040625D01*
X137784148Y-123998054D01*
X137760557Y-123932288D01*
X137776268Y-123864207D01*
X137826292Y-123815428D01*
X137839538Y-123809378D01*
X138024192Y-123737843D01*
X138213983Y-123620330D01*
X138378950Y-123469943D01*
X138513474Y-123291804D01*
X138612974Y-123091980D01*
X138612974Y-123091977D01*
X138612976Y-123091975D01*
X138659677Y-122927834D01*
X138674063Y-122877274D01*
X138694660Y-122655000D01*
X138674063Y-122432726D01*
X138665191Y-122401544D01*
X138612976Y-122218024D01*
X138612973Y-122218018D01*
X138526340Y-122044035D01*
X138513474Y-122018196D01*
X138378950Y-121840057D01*
X138213983Y-121689670D01*
X138213979Y-121689667D01*
X138213974Y-121689664D01*
X138024195Y-121572158D01*
X138024186Y-121572154D01*
X137938430Y-121538932D01*
X137839547Y-121500625D01*
X137784148Y-121458054D01*
X137760557Y-121392288D01*
X137776268Y-121324207D01*
X137826292Y-121275428D01*
X137839538Y-121269378D01*
X138024192Y-121197843D01*
X138213983Y-121080330D01*
X138378950Y-120929943D01*
X138387890Y-120918105D01*
X138390407Y-120914772D01*
X138446516Y-120873137D01*
X138489360Y-120865500D01*
X139030323Y-120865500D01*
X139097362Y-120885185D01*
X139143117Y-120937989D01*
X139153851Y-120978693D01*
X139164936Y-121105402D01*
X139164938Y-121105413D01*
X139226094Y-121333655D01*
X139226096Y-121333659D01*
X139226097Y-121333663D01*
X139278384Y-121445793D01*
X139325965Y-121547830D01*
X139325967Y-121547834D01*
X139425283Y-121689671D01*
X139461505Y-121741401D01*
X139628599Y-121908495D01*
X139725384Y-121976265D01*
X139822165Y-122044032D01*
X139822167Y-122044033D01*
X139822170Y-122044035D01*
X140036337Y-122143903D01*
X140264592Y-122205063D01*
X140412734Y-122218024D01*
X140499999Y-122225659D01*
X140500000Y-122225659D01*
X140500001Y-122225659D01*
X140539234Y-122222226D01*
X140735408Y-122205063D01*
X140963663Y-122143903D01*
X141177830Y-122044035D01*
X141371401Y-121908495D01*
X141538495Y-121741401D01*
X141674035Y-121547830D01*
X141773903Y-121333663D01*
X141835063Y-121105408D01*
X141855659Y-120870000D01*
X141835063Y-120634592D01*
X141773903Y-120406337D01*
X141674035Y-120192171D01*
X141670420Y-120187007D01*
X141538494Y-119998597D01*
X141371402Y-119831506D01*
X141371396Y-119831501D01*
X141185842Y-119701575D01*
X141142217Y-119646998D01*
X141135023Y-119577500D01*
X141166546Y-119515145D01*
X141185842Y-119498425D01*
X141302824Y-119416513D01*
X141371401Y-119368495D01*
X141538495Y-119201401D01*
X141674035Y-119007830D01*
X141773903Y-118793663D01*
X141835063Y-118565408D01*
X141855659Y-118330000D01*
X141835063Y-118094592D01*
X141773903Y-117866337D01*
X141674035Y-117652171D01*
X141620286Y-117575408D01*
X141538494Y-117458597D01*
X141371402Y-117291506D01*
X141371396Y-117291501D01*
X141185842Y-117161575D01*
X141142217Y-117106998D01*
X141135023Y-117037500D01*
X141166546Y-116975145D01*
X141185842Y-116958425D01*
X141293023Y-116883376D01*
X141371401Y-116828495D01*
X141538495Y-116661401D01*
X141674035Y-116467830D01*
X141773903Y-116253663D01*
X141835063Y-116025408D01*
X141855659Y-115790000D01*
X141835063Y-115554592D01*
X141773903Y-115326337D01*
X141674035Y-115112171D01*
X141670419Y-115107007D01*
X141538496Y-114918600D01*
X141485722Y-114865826D01*
X141416567Y-114796671D01*
X141383084Y-114735351D01*
X141388068Y-114665659D01*
X141429939Y-114609725D01*
X141460915Y-114592810D01*
X141592331Y-114543796D01*
X141707546Y-114457546D01*
X141793796Y-114342331D01*
X141844091Y-114207483D01*
X141850500Y-114147873D01*
X141850499Y-112352128D01*
X141844091Y-112292517D01*
X141836709Y-112272726D01*
X141793797Y-112157671D01*
X141793793Y-112157664D01*
X141707547Y-112042455D01*
X141707544Y-112042452D01*
X141592335Y-111956206D01*
X141592328Y-111956202D01*
X141457482Y-111905908D01*
X141457483Y-111905908D01*
X141397883Y-111899501D01*
X141397881Y-111899500D01*
X141397873Y-111899500D01*
X141397865Y-111899500D01*
X140242250Y-111899500D01*
X140175211Y-111879815D01*
X140173450Y-111878662D01*
X140142819Y-111858196D01*
X140100495Y-111829916D01*
X140100488Y-111829912D01*
X139963917Y-111773343D01*
X139963907Y-111773340D01*
X139818920Y-111744500D01*
X139818918Y-111744500D01*
X138489360Y-111744500D01*
X138422321Y-111724815D01*
X138390407Y-111695228D01*
X138378949Y-111680055D01*
X138213984Y-111529671D01*
X138213974Y-111529664D01*
X138024195Y-111412158D01*
X138024186Y-111412154D01*
X137938430Y-111378932D01*
X137839547Y-111340625D01*
X137784148Y-111298054D01*
X137760557Y-111232288D01*
X137776268Y-111164207D01*
X137826292Y-111115428D01*
X137839538Y-111109378D01*
X138024192Y-111037843D01*
X138213983Y-110920330D01*
X138378950Y-110769943D01*
X138390407Y-110754772D01*
X138446516Y-110713137D01*
X138489360Y-110705500D01*
X139728040Y-110705500D01*
X139795079Y-110725185D01*
X139799148Y-110727915D01*
X139822170Y-110744035D01*
X140036337Y-110843903D01*
X140264592Y-110905063D01*
X140439068Y-110920328D01*
X140499999Y-110925659D01*
X140500000Y-110925659D01*
X140500001Y-110925659D01*
X140560932Y-110920328D01*
X140735408Y-110905063D01*
X140963663Y-110843903D01*
X141177830Y-110744035D01*
X141371401Y-110608495D01*
X141538495Y-110441401D01*
X141674035Y-110247830D01*
X141773903Y-110033663D01*
X141835063Y-109805408D01*
X141855659Y-109570000D01*
X141835063Y-109334592D01*
X141773903Y-109106337D01*
X141674035Y-108892171D01*
X141660022Y-108872157D01*
X141538494Y-108698597D01*
X141371402Y-108531506D01*
X141371396Y-108531501D01*
X141185842Y-108401575D01*
X141142217Y-108346998D01*
X141135023Y-108277500D01*
X141166546Y-108215145D01*
X141185842Y-108198425D01*
X141232864Y-108165500D01*
X141371401Y-108068495D01*
X141538495Y-107901401D01*
X141674035Y-107707830D01*
X141773903Y-107493663D01*
X141835063Y-107265408D01*
X141855659Y-107030000D01*
X141835063Y-106794592D01*
X141773903Y-106566337D01*
X141674035Y-106352171D01*
X141660022Y-106332157D01*
X141538494Y-106158597D01*
X141371402Y-105991506D01*
X141371396Y-105991501D01*
X141185842Y-105861575D01*
X141142217Y-105806998D01*
X141135023Y-105737500D01*
X141166546Y-105675145D01*
X141185842Y-105658425D01*
X141208026Y-105642891D01*
X141371401Y-105528495D01*
X141538495Y-105361401D01*
X141674035Y-105167830D01*
X141773903Y-104953663D01*
X141835063Y-104725408D01*
X141855659Y-104490000D01*
X141835063Y-104254592D01*
X141773903Y-104026337D01*
X141674035Y-103812171D01*
X141660020Y-103792156D01*
X141538496Y-103618600D01*
X141479896Y-103560000D01*
X141416567Y-103496671D01*
X141383084Y-103435351D01*
X141388068Y-103365659D01*
X141429939Y-103309725D01*
X141460915Y-103292810D01*
X141592331Y-103243796D01*
X141707546Y-103157546D01*
X141793796Y-103042331D01*
X141844091Y-102907483D01*
X141850500Y-102847873D01*
X141850499Y-101052128D01*
X141844091Y-100992517D01*
X141836812Y-100973002D01*
X141793797Y-100857671D01*
X141793793Y-100857664D01*
X141707547Y-100742455D01*
X141707544Y-100742452D01*
X141592335Y-100656206D01*
X141592328Y-100656202D01*
X141457482Y-100605908D01*
X141457483Y-100605908D01*
X141397883Y-100599501D01*
X141397881Y-100599500D01*
X141397873Y-100599500D01*
X141397864Y-100599500D01*
X139602129Y-100599500D01*
X139602123Y-100599501D01*
X139542516Y-100605908D01*
X139407671Y-100656202D01*
X139407664Y-100656206D01*
X139292455Y-100742452D01*
X139292452Y-100742455D01*
X139206206Y-100857664D01*
X139206202Y-100857671D01*
X139155908Y-100992517D01*
X139151197Y-101036344D01*
X139149501Y-101052123D01*
X139149500Y-101052135D01*
X139149500Y-101460500D01*
X139129815Y-101527539D01*
X139077011Y-101573294D01*
X139025500Y-101584500D01*
X138489360Y-101584500D01*
X138422321Y-101564815D01*
X138390407Y-101535228D01*
X138378949Y-101520055D01*
X138213984Y-101369671D01*
X138213974Y-101369664D01*
X138024195Y-101252158D01*
X138024186Y-101252154D01*
X137938430Y-101218932D01*
X137839547Y-101180625D01*
X137784148Y-101138054D01*
X137760557Y-101072288D01*
X137776268Y-101004207D01*
X137826292Y-100955428D01*
X137839538Y-100949378D01*
X138024192Y-100877843D01*
X138213983Y-100760330D01*
X138378950Y-100609943D01*
X138513474Y-100431804D01*
X138612974Y-100231980D01*
X138612974Y-100231977D01*
X138612976Y-100231975D01*
X138657066Y-100077011D01*
X138674063Y-100017274D01*
X138694660Y-99795000D01*
X138674063Y-99572726D01*
X138657524Y-99514596D01*
X138612976Y-99358024D01*
X138612973Y-99358018D01*
X138558439Y-99248498D01*
X138513474Y-99158196D01*
X138378950Y-98980057D01*
X138213983Y-98829670D01*
X138213979Y-98829667D01*
X138213974Y-98829664D01*
X138024195Y-98712158D01*
X138024186Y-98712154D01*
X137938430Y-98678932D01*
X137839547Y-98640625D01*
X137784148Y-98598054D01*
X137760557Y-98532288D01*
X137776268Y-98464207D01*
X137826292Y-98415428D01*
X137839538Y-98409378D01*
X138024192Y-98337843D01*
X138213983Y-98220330D01*
X138378950Y-98069943D01*
X138513474Y-97891804D01*
X138612974Y-97691980D01*
X138612974Y-97691977D01*
X138612976Y-97691975D01*
X138674062Y-97477276D01*
X138674063Y-97477273D01*
X138674355Y-97474128D01*
X138694660Y-97255000D01*
X138674063Y-97032726D01*
X138665191Y-97001544D01*
X138612976Y-96818024D01*
X138612973Y-96818017D01*
X138541795Y-96675072D01*
X138513474Y-96618196D01*
X138378950Y-96440057D01*
X138213983Y-96289670D01*
X138213979Y-96289667D01*
X138213974Y-96289664D01*
X138024195Y-96172158D01*
X138024180Y-96172151D01*
X137933223Y-96136914D01*
X137890336Y-96108969D01*
X137838025Y-96056658D01*
X137804540Y-95995335D01*
X137809524Y-95925643D01*
X137851396Y-95869710D01*
X137880912Y-95853350D01*
X137966998Y-95820000D01*
X138024192Y-95797843D01*
X138213983Y-95680330D01*
X138378950Y-95529943D01*
X138513474Y-95351804D01*
X138612974Y-95151980D01*
X138612974Y-95151977D01*
X138612976Y-95151975D01*
X138674062Y-94937276D01*
X138674063Y-94937273D01*
X138682297Y-94848421D01*
X138694660Y-94715000D01*
X138674063Y-94492726D01*
X138665191Y-94461544D01*
X138612976Y-94278024D01*
X138612973Y-94278017D01*
X138554464Y-94160516D01*
X138513474Y-94078196D01*
X138378950Y-93900057D01*
X138213983Y-93749670D01*
X138213979Y-93749667D01*
X138213974Y-93749664D01*
X138024195Y-93632158D01*
X138024180Y-93632151D01*
X137933223Y-93596914D01*
X137890336Y-93568969D01*
X137838025Y-93516658D01*
X137804540Y-93455335D01*
X137809524Y-93385643D01*
X137851396Y-93329710D01*
X137880912Y-93313350D01*
X138024189Y-93257844D01*
X138024187Y-93257844D01*
X138024192Y-93257843D01*
X138213983Y-93140330D01*
X138378950Y-92989943D01*
X138513474Y-92811804D01*
X138612974Y-92611980D01*
X138612974Y-92611977D01*
X138612976Y-92611975D01*
X138674062Y-92397276D01*
X138674063Y-92397273D01*
X138694660Y-92175000D01*
X138694660Y-92174999D01*
X138674063Y-91952726D01*
X138674062Y-91952723D01*
X138612976Y-91738024D01*
X138612973Y-91738018D01*
X138585137Y-91682116D01*
X138513474Y-91538196D01*
X138378950Y-91360057D01*
X138213983Y-91209670D01*
X138213979Y-91209667D01*
X138213974Y-91209664D01*
X138024195Y-91092158D01*
X138024186Y-91092154D01*
X137938430Y-91058932D01*
X137839547Y-91020625D01*
X137784148Y-90978054D01*
X137760557Y-90912288D01*
X137776268Y-90844207D01*
X137826292Y-90795428D01*
X137839538Y-90789378D01*
X138024192Y-90717843D01*
X138213983Y-90600330D01*
X138378950Y-90449943D01*
X138513474Y-90271804D01*
X138612974Y-90071980D01*
X138612974Y-90071977D01*
X138612976Y-90071975D01*
X138662509Y-89897883D01*
X138674063Y-89857274D01*
X138694660Y-89635000D01*
X138674063Y-89412726D01*
X138656216Y-89349999D01*
X138612976Y-89198024D01*
X138612973Y-89198018D01*
X138550198Y-89071948D01*
X138513474Y-88998196D01*
X138378950Y-88820057D01*
X138213983Y-88669670D01*
X138213979Y-88669667D01*
X138213974Y-88669664D01*
X138024195Y-88552158D01*
X138024186Y-88552154D01*
X137923062Y-88512979D01*
X137839547Y-88480625D01*
X137784148Y-88438054D01*
X137760557Y-88372288D01*
X137776268Y-88304207D01*
X137826292Y-88255428D01*
X137839538Y-88249378D01*
X138024192Y-88177843D01*
X138213983Y-88060330D01*
X138378950Y-87909943D01*
X138513474Y-87731804D01*
X138612974Y-87531980D01*
X138612974Y-87531977D01*
X138612976Y-87531975D01*
X138674062Y-87317276D01*
X138674063Y-87317273D01*
X138675467Y-87302128D01*
X138694660Y-87095000D01*
X138674063Y-86872726D01*
X138646258Y-86775000D01*
X138612976Y-86658024D01*
X138612973Y-86658018D01*
X138515122Y-86461506D01*
X138513474Y-86458196D01*
X138378950Y-86280057D01*
X138375594Y-86276998D01*
X138213984Y-86129671D01*
X138213974Y-86129664D01*
X138024195Y-86012158D01*
X138024186Y-86012154D01*
X137938430Y-85978932D01*
X137839547Y-85940625D01*
X137784148Y-85898054D01*
X137760557Y-85832288D01*
X137776268Y-85764207D01*
X137826292Y-85715428D01*
X137839538Y-85709378D01*
X138024192Y-85637843D01*
X138213983Y-85520330D01*
X138378950Y-85369943D01*
X138513474Y-85191804D01*
X138612974Y-84991980D01*
X138612974Y-84991977D01*
X138612976Y-84991975D01*
X138674062Y-84777276D01*
X138674063Y-84777273D01*
X138694660Y-84555000D01*
X138694660Y-84554999D01*
X138674063Y-84332726D01*
X138674062Y-84332723D01*
X138612976Y-84118024D01*
X138612973Y-84118018D01*
X138515122Y-83921506D01*
X138513474Y-83918196D01*
X138378950Y-83740057D01*
X138374869Y-83736337D01*
X138213984Y-83589671D01*
X138213974Y-83589664D01*
X138024195Y-83472158D01*
X138024189Y-83472155D01*
X137990555Y-83459126D01*
X137935154Y-83416553D01*
X137911563Y-83350786D01*
X137927274Y-83282706D01*
X137977298Y-83233927D01*
X138035348Y-83219499D01*
X138236872Y-83219499D01*
X138296483Y-83213091D01*
X138431331Y-83162796D01*
X138546546Y-83076546D01*
X138632796Y-82961331D01*
X138639442Y-82943509D01*
X138675750Y-82846167D01*
X138717621Y-82790233D01*
X138783086Y-82765816D01*
X138791932Y-82765500D01*
X147492899Y-82765500D01*
X147533853Y-82772458D01*
X147570745Y-82785368D01*
X147570751Y-82785368D01*
X147570753Y-82785369D01*
X147749996Y-82805565D01*
X147750000Y-82805565D01*
X147750004Y-82805565D01*
X147929249Y-82785369D01*
X147929252Y-82785368D01*
X147929255Y-82785368D01*
X148099522Y-82725789D01*
X148252262Y-82629816D01*
X148327819Y-82554259D01*
X148389142Y-82520774D01*
X148458834Y-82525758D01*
X148514767Y-82567630D01*
X148539184Y-82633094D01*
X148539500Y-82641940D01*
X148539500Y-87812298D01*
X148519815Y-87879337D01*
X148486625Y-87913872D01*
X148418595Y-87961507D01*
X148251505Y-88128597D01*
X148121575Y-88314158D01*
X148066998Y-88357783D01*
X147997500Y-88364977D01*
X147935145Y-88333454D01*
X147918425Y-88314158D01*
X147788494Y-88128597D01*
X147621402Y-87961506D01*
X147621395Y-87961501D01*
X147603590Y-87949034D01*
X147553374Y-87913872D01*
X147427834Y-87825967D01*
X147427830Y-87825965D01*
X147427828Y-87825964D01*
X147213663Y-87726097D01*
X147213659Y-87726096D01*
X147213655Y-87726094D01*
X146985413Y-87664938D01*
X146985403Y-87664936D01*
X146750001Y-87644341D01*
X146749999Y-87644341D01*
X146514596Y-87664936D01*
X146514586Y-87664938D01*
X146286344Y-87726094D01*
X146286335Y-87726098D01*
X146072171Y-87825964D01*
X146072169Y-87825965D01*
X145878597Y-87961505D01*
X145711505Y-88128597D01*
X145581575Y-88314158D01*
X145526998Y-88357783D01*
X145457500Y-88364977D01*
X145395145Y-88333454D01*
X145378425Y-88314158D01*
X145248494Y-88128597D01*
X145081402Y-87961506D01*
X145081395Y-87961501D01*
X145063590Y-87949034D01*
X145013374Y-87913872D01*
X144887834Y-87825967D01*
X144887830Y-87825965D01*
X144887828Y-87825964D01*
X144673663Y-87726097D01*
X144673659Y-87726096D01*
X144673655Y-87726094D01*
X144445413Y-87664938D01*
X144445403Y-87664936D01*
X144210001Y-87644341D01*
X144209999Y-87644341D01*
X143974596Y-87664936D01*
X143974586Y-87664938D01*
X143746344Y-87726094D01*
X143746335Y-87726098D01*
X143532171Y-87825964D01*
X143532169Y-87825965D01*
X143338597Y-87961505D01*
X143171505Y-88128597D01*
X143035965Y-88322169D01*
X143035964Y-88322171D01*
X142936098Y-88536335D01*
X142936094Y-88536344D01*
X142874938Y-88764586D01*
X142874936Y-88764596D01*
X142854341Y-88999999D01*
X142854341Y-89000000D01*
X142874936Y-89235403D01*
X142874938Y-89235413D01*
X142936094Y-89463655D01*
X142936096Y-89463659D01*
X142936097Y-89463663D01*
X143015993Y-89634999D01*
X143035965Y-89677830D01*
X143035967Y-89677834D01*
X143131071Y-89813655D01*
X143171505Y-89871401D01*
X143338599Y-90038495D01*
X143435384Y-90106265D01*
X143532165Y-90174032D01*
X143532167Y-90174033D01*
X143532170Y-90174035D01*
X143746337Y-90273903D01*
X143746343Y-90273904D01*
X143746344Y-90273905D01*
X143751972Y-90275413D01*
X143974592Y-90335063D01*
X144151034Y-90350500D01*
X144209999Y-90355659D01*
X144210000Y-90355659D01*
X144210001Y-90355659D01*
X144268966Y-90350500D01*
X144445408Y-90335063D01*
X144673663Y-90273903D01*
X144887830Y-90174035D01*
X145081401Y-90038495D01*
X145248495Y-89871401D01*
X145378425Y-89685842D01*
X145433002Y-89642217D01*
X145502500Y-89635023D01*
X145564855Y-89666546D01*
X145581575Y-89685842D01*
X145711500Y-89871395D01*
X145711505Y-89871401D01*
X145878599Y-90038495D01*
X145975384Y-90106265D01*
X146072165Y-90174032D01*
X146072167Y-90174033D01*
X146072170Y-90174035D01*
X146286337Y-90273903D01*
X146286343Y-90273904D01*
X146286344Y-90273905D01*
X146291972Y-90275413D01*
X146514592Y-90335063D01*
X146691034Y-90350500D01*
X146749999Y-90355659D01*
X146750000Y-90355659D01*
X146750001Y-90355659D01*
X146808966Y-90350500D01*
X146985408Y-90335063D01*
X147213663Y-90273903D01*
X147427830Y-90174035D01*
X147621401Y-90038495D01*
X147788495Y-89871401D01*
X147918425Y-89685842D01*
X147973002Y-89642217D01*
X148042500Y-89635023D01*
X148104855Y-89666546D01*
X148121575Y-89685842D01*
X148251501Y-89871396D01*
X148251506Y-89871402D01*
X148418595Y-90038492D01*
X148418598Y-90038494D01*
X148418599Y-90038495D01*
X148486623Y-90086125D01*
X148530248Y-90140701D01*
X148539500Y-90187700D01*
X148539500Y-100312298D01*
X148519815Y-100379337D01*
X148486625Y-100413872D01*
X148418595Y-100461507D01*
X148251505Y-100628597D01*
X148121575Y-100814158D01*
X148066998Y-100857783D01*
X147997500Y-100864977D01*
X147935145Y-100833454D01*
X147918425Y-100814158D01*
X147788494Y-100628597D01*
X147621402Y-100461506D01*
X147621395Y-100461501D01*
X147427834Y-100325967D01*
X147427830Y-100325965D01*
X147398521Y-100312298D01*
X147213663Y-100226097D01*
X147213659Y-100226096D01*
X147213655Y-100226094D01*
X146985413Y-100164938D01*
X146985403Y-100164936D01*
X146750001Y-100144341D01*
X146749999Y-100144341D01*
X146514596Y-100164936D01*
X146514586Y-100164938D01*
X146286344Y-100226094D01*
X146286335Y-100226098D01*
X146072171Y-100325964D01*
X146072169Y-100325965D01*
X145878597Y-100461505D01*
X145711505Y-100628597D01*
X145581575Y-100814158D01*
X145526998Y-100857783D01*
X145457500Y-100864977D01*
X145395145Y-100833454D01*
X145378425Y-100814158D01*
X145248494Y-100628597D01*
X145081402Y-100461506D01*
X145081395Y-100461501D01*
X144887834Y-100325967D01*
X144887830Y-100325965D01*
X144858521Y-100312298D01*
X144673663Y-100226097D01*
X144673659Y-100226096D01*
X144673655Y-100226094D01*
X144445413Y-100164938D01*
X144445403Y-100164936D01*
X144210001Y-100144341D01*
X144209999Y-100144341D01*
X143974596Y-100164936D01*
X143974586Y-100164938D01*
X143746344Y-100226094D01*
X143746335Y-100226098D01*
X143532171Y-100325964D01*
X143532169Y-100325965D01*
X143338597Y-100461505D01*
X143171505Y-100628597D01*
X143035965Y-100822169D01*
X143035964Y-100822171D01*
X142936098Y-101036335D01*
X142936094Y-101036344D01*
X142874938Y-101264586D01*
X142874936Y-101264596D01*
X142854341Y-101499999D01*
X142854341Y-101500000D01*
X142874936Y-101735403D01*
X142874938Y-101735413D01*
X142936094Y-101963655D01*
X142936096Y-101963659D01*
X142936097Y-101963663D01*
X143016004Y-102135023D01*
X143035965Y-102177830D01*
X143035967Y-102177834D01*
X143114507Y-102290000D01*
X143171505Y-102371401D01*
X143338599Y-102538495D01*
X143426437Y-102600000D01*
X143532165Y-102674032D01*
X143532167Y-102674033D01*
X143532170Y-102674035D01*
X143746337Y-102773903D01*
X143974592Y-102835063D01*
X144151034Y-102850500D01*
X144209999Y-102855659D01*
X144210000Y-102855659D01*
X144210001Y-102855659D01*
X144268966Y-102850500D01*
X144445408Y-102835063D01*
X144673663Y-102773903D01*
X144887830Y-102674035D01*
X145081401Y-102538495D01*
X145248495Y-102371401D01*
X145378425Y-102185842D01*
X145433002Y-102142217D01*
X145502500Y-102135023D01*
X145564855Y-102166546D01*
X145581575Y-102185842D01*
X145711500Y-102371395D01*
X145711505Y-102371401D01*
X145878599Y-102538495D01*
X145966437Y-102600000D01*
X146072165Y-102674032D01*
X146072167Y-102674033D01*
X146072170Y-102674035D01*
X146286337Y-102773903D01*
X146514592Y-102835063D01*
X146691034Y-102850500D01*
X146749999Y-102855659D01*
X146750000Y-102855659D01*
X146750001Y-102855659D01*
X146808966Y-102850500D01*
X146985408Y-102835063D01*
X147213663Y-102773903D01*
X147427830Y-102674035D01*
X147621401Y-102538495D01*
X147788495Y-102371401D01*
X147918425Y-102185842D01*
X147973002Y-102142217D01*
X148042500Y-102135023D01*
X148104855Y-102166546D01*
X148121575Y-102185842D01*
X148251501Y-102371396D01*
X148251506Y-102371402D01*
X148418595Y-102538492D01*
X148418598Y-102538494D01*
X148418599Y-102538495D01*
X148486623Y-102586125D01*
X148530248Y-102640701D01*
X148539500Y-102687700D01*
X148539500Y-112812298D01*
X148519815Y-112879337D01*
X148486625Y-112913872D01*
X148418595Y-112961507D01*
X148251505Y-113128597D01*
X148121575Y-113314158D01*
X148066998Y-113357783D01*
X147997500Y-113364977D01*
X147935145Y-113333454D01*
X147918425Y-113314158D01*
X147788494Y-113128597D01*
X147621402Y-112961506D01*
X147621395Y-112961501D01*
X147427834Y-112825967D01*
X147427830Y-112825965D01*
X147398521Y-112812298D01*
X147213663Y-112726097D01*
X147213659Y-112726096D01*
X147213655Y-112726094D01*
X146985413Y-112664938D01*
X146985403Y-112664936D01*
X146750001Y-112644341D01*
X146749999Y-112644341D01*
X146514596Y-112664936D01*
X146514586Y-112664938D01*
X146286344Y-112726094D01*
X146286335Y-112726098D01*
X146072171Y-112825964D01*
X146072169Y-112825965D01*
X145878597Y-112961505D01*
X145711505Y-113128597D01*
X145581575Y-113314158D01*
X145526998Y-113357783D01*
X145457500Y-113364977D01*
X145395145Y-113333454D01*
X145378425Y-113314158D01*
X145248494Y-113128597D01*
X145081402Y-112961506D01*
X145081395Y-112961501D01*
X144887834Y-112825967D01*
X144887830Y-112825965D01*
X144858521Y-112812298D01*
X144673663Y-112726097D01*
X144673659Y-112726096D01*
X144673655Y-112726094D01*
X144445413Y-112664938D01*
X144445403Y-112664936D01*
X144210001Y-112644341D01*
X144209999Y-112644341D01*
X143974596Y-112664936D01*
X143974586Y-112664938D01*
X143746344Y-112726094D01*
X143746335Y-112726098D01*
X143532171Y-112825964D01*
X143532169Y-112825965D01*
X143338597Y-112961505D01*
X143171505Y-113128597D01*
X143035965Y-113322169D01*
X143035964Y-113322171D01*
X142936098Y-113536335D01*
X142936094Y-113536344D01*
X142874938Y-113764586D01*
X142874936Y-113764596D01*
X142854341Y-113999999D01*
X142854341Y-114000000D01*
X142874936Y-114235403D01*
X142874938Y-114235413D01*
X142936094Y-114463655D01*
X142936096Y-114463659D01*
X142936097Y-114463663D01*
X143016004Y-114635023D01*
X143035965Y-114677830D01*
X143035967Y-114677834D01*
X143130418Y-114812723D01*
X143171501Y-114871396D01*
X143171506Y-114871402D01*
X143338595Y-115038492D01*
X143338598Y-115038494D01*
X143338599Y-115038495D01*
X143406623Y-115086125D01*
X143450248Y-115140701D01*
X143459500Y-115187700D01*
X143459500Y-122927770D01*
X143439815Y-122994809D01*
X143423181Y-123015451D01*
X143225451Y-123213181D01*
X143164128Y-123246666D01*
X143137770Y-123249500D01*
X140676080Y-123249500D01*
X140531092Y-123278340D01*
X140531082Y-123278343D01*
X140394511Y-123334912D01*
X140394498Y-123334919D01*
X140271584Y-123417048D01*
X140271580Y-123417051D01*
X139417049Y-124271581D01*
X139412279Y-124278721D01*
X139410739Y-124281027D01*
X139372697Y-124337960D01*
X139334914Y-124394507D01*
X139278343Y-124531082D01*
X139278340Y-124531092D01*
X139249500Y-124676079D01*
X139249500Y-127950028D01*
X139242542Y-127990982D01*
X139214631Y-128070747D01*
X139194435Y-128249996D01*
X139194435Y-128250003D01*
X139214630Y-128429249D01*
X139214631Y-128429254D01*
X139274211Y-128599523D01*
X139370184Y-128752262D01*
X139497738Y-128879816D01*
X139650478Y-128975789D01*
X139820745Y-129035368D01*
X139820750Y-129035369D01*
X139999996Y-129055565D01*
X140000000Y-129055565D01*
X140000004Y-129055565D01*
X140179249Y-129035369D01*
X140179252Y-129035368D01*
X140179255Y-129035368D01*
X140349522Y-128975789D01*
X140407276Y-128939500D01*
X140434027Y-128922691D01*
X140501264Y-128903690D01*
X140565973Y-128922691D01*
X140650475Y-128975788D01*
X140820745Y-129035368D01*
X140820750Y-129035369D01*
X140999996Y-129055565D01*
X141000000Y-129055565D01*
X141000004Y-129055565D01*
X141179249Y-129035369D01*
X141179252Y-129035368D01*
X141179255Y-129035368D01*
X141349522Y-128975789D01*
X141502262Y-128879816D01*
X141629816Y-128752262D01*
X141725789Y-128599522D01*
X141785368Y-128429255D01*
X141805565Y-128250000D01*
X141796774Y-128171981D01*
X141785368Y-128070747D01*
X141785368Y-128070745D01*
X141757458Y-127990982D01*
X141750500Y-127950028D01*
X141750500Y-127612229D01*
X141770185Y-127545190D01*
X141786819Y-127524548D01*
X142024548Y-127286819D01*
X142085871Y-127253334D01*
X142112229Y-127250500D01*
X143022299Y-127250500D01*
X143089338Y-127270185D01*
X143123873Y-127303376D01*
X143171505Y-127371401D01*
X143338599Y-127538495D01*
X143435384Y-127606265D01*
X143532165Y-127674032D01*
X143532167Y-127674033D01*
X143532170Y-127674035D01*
X143746337Y-127773903D01*
X143974592Y-127835063D01*
X144151034Y-127850500D01*
X144209999Y-127855659D01*
X144210000Y-127855659D01*
X144210001Y-127855659D01*
X144268966Y-127850500D01*
X144445408Y-127835063D01*
X144673663Y-127773903D01*
X144887830Y-127674035D01*
X145081401Y-127538495D01*
X145248495Y-127371401D01*
X145378425Y-127185842D01*
X145433002Y-127142217D01*
X145502500Y-127135023D01*
X145564855Y-127166546D01*
X145581575Y-127185842D01*
X145711278Y-127371078D01*
X145711505Y-127371401D01*
X145878599Y-127538495D01*
X145975384Y-127606265D01*
X146072165Y-127674032D01*
X146072167Y-127674033D01*
X146072170Y-127674035D01*
X146286337Y-127773903D01*
X146514592Y-127835063D01*
X146691034Y-127850500D01*
X146749999Y-127855659D01*
X146750000Y-127855659D01*
X146750001Y-127855659D01*
X146808966Y-127850500D01*
X146985408Y-127835063D01*
X147213663Y-127773903D01*
X147427830Y-127674035D01*
X147621401Y-127538495D01*
X147788495Y-127371401D01*
X147918425Y-127185842D01*
X147973002Y-127142217D01*
X148042500Y-127135023D01*
X148104855Y-127166546D01*
X148121575Y-127185842D01*
X148251278Y-127371078D01*
X148251505Y-127371401D01*
X148418599Y-127538495D01*
X148515384Y-127606265D01*
X148612165Y-127674032D01*
X148612167Y-127674033D01*
X148612170Y-127674035D01*
X148826337Y-127773903D01*
X149054592Y-127835063D01*
X149231034Y-127850500D01*
X149289999Y-127855659D01*
X149290000Y-127855659D01*
X149290001Y-127855659D01*
X149348966Y-127850500D01*
X149525408Y-127835063D01*
X149753663Y-127773903D01*
X149967830Y-127674035D01*
X150161401Y-127538495D01*
X150328495Y-127371401D01*
X150458425Y-127185842D01*
X150513002Y-127142217D01*
X150582500Y-127135023D01*
X150644855Y-127166546D01*
X150661575Y-127185842D01*
X150791278Y-127371078D01*
X150791505Y-127371401D01*
X150958599Y-127538495D01*
X151055384Y-127606265D01*
X151152165Y-127674032D01*
X151152167Y-127674033D01*
X151152170Y-127674035D01*
X151366337Y-127773903D01*
X151594592Y-127835063D01*
X151771034Y-127850500D01*
X151829999Y-127855659D01*
X151830000Y-127855659D01*
X151830001Y-127855659D01*
X151888966Y-127850500D01*
X152065408Y-127835063D01*
X152293663Y-127773903D01*
X152507830Y-127674035D01*
X152701401Y-127538495D01*
X152868495Y-127371401D01*
X152998730Y-127185405D01*
X153053307Y-127141781D01*
X153122805Y-127134587D01*
X153185160Y-127166110D01*
X153201879Y-127185405D01*
X153331890Y-127371078D01*
X153498917Y-127538105D01*
X153692421Y-127673600D01*
X153906507Y-127773429D01*
X153906516Y-127773433D01*
X154120000Y-127830634D01*
X154120000Y-126933012D01*
X154177007Y-126965925D01*
X154304174Y-127000000D01*
X154435826Y-127000000D01*
X154562993Y-126965925D01*
X154620000Y-126933012D01*
X154620000Y-127830633D01*
X154833483Y-127773433D01*
X154833492Y-127773429D01*
X155047578Y-127673600D01*
X155241078Y-127538108D01*
X155363133Y-127416053D01*
X155424456Y-127382568D01*
X155494148Y-127387552D01*
X155550082Y-127429423D01*
X155566997Y-127460401D01*
X155616202Y-127592328D01*
X155616206Y-127592335D01*
X155702452Y-127707544D01*
X155702455Y-127707547D01*
X155817664Y-127793793D01*
X155817671Y-127793797D01*
X155952517Y-127844091D01*
X155952516Y-127844091D01*
X155959444Y-127844835D01*
X156012127Y-127850500D01*
X157807872Y-127850499D01*
X157867483Y-127844091D01*
X158002331Y-127793796D01*
X158117546Y-127707546D01*
X158203796Y-127592331D01*
X158254091Y-127457483D01*
X158260500Y-127397873D01*
X158260499Y-125602128D01*
X158254091Y-125542517D01*
X158253002Y-125539598D01*
X158203797Y-125407671D01*
X158203793Y-125407664D01*
X158117547Y-125292455D01*
X158117544Y-125292452D01*
X158002335Y-125206206D01*
X158002328Y-125206202D01*
X157867482Y-125155908D01*
X157867483Y-125155908D01*
X157807883Y-125149501D01*
X157807881Y-125149500D01*
X157807873Y-125149500D01*
X157807865Y-125149500D01*
X157784500Y-125149500D01*
X157717461Y-125129815D01*
X157671706Y-125077011D01*
X157660500Y-125025500D01*
X157660500Y-115474499D01*
X157680185Y-115407460D01*
X157732989Y-115361705D01*
X157784500Y-115350499D01*
X157807871Y-115350499D01*
X157807872Y-115350499D01*
X157867483Y-115344091D01*
X158002331Y-115293796D01*
X158117546Y-115207546D01*
X158203796Y-115092331D01*
X158254091Y-114957483D01*
X158260500Y-114897873D01*
X158260499Y-113102128D01*
X158254091Y-113042517D01*
X158253002Y-113039598D01*
X158203797Y-112907671D01*
X158203793Y-112907664D01*
X158117547Y-112792455D01*
X158117544Y-112792452D01*
X158002335Y-112706206D01*
X158002328Y-112706202D01*
X157867482Y-112655908D01*
X157867483Y-112655908D01*
X157807883Y-112649501D01*
X157807881Y-112649500D01*
X157807873Y-112649500D01*
X157807865Y-112649500D01*
X157784500Y-112649500D01*
X157717461Y-112629815D01*
X157671706Y-112577011D01*
X157660500Y-112525500D01*
X157660500Y-102974499D01*
X157680185Y-102907460D01*
X157732989Y-102861705D01*
X157784500Y-102850499D01*
X157807871Y-102850499D01*
X157807872Y-102850499D01*
X157867483Y-102844091D01*
X158002331Y-102793796D01*
X158117546Y-102707546D01*
X158203796Y-102592331D01*
X158254091Y-102457483D01*
X158260500Y-102397873D01*
X158260499Y-100602128D01*
X158254091Y-100542517D01*
X158253002Y-100539598D01*
X158203797Y-100407671D01*
X158203793Y-100407664D01*
X158117547Y-100292455D01*
X158117544Y-100292452D01*
X158002335Y-100206206D01*
X158002328Y-100206202D01*
X157867482Y-100155908D01*
X157867483Y-100155908D01*
X157807883Y-100149501D01*
X157807881Y-100149500D01*
X157807873Y-100149500D01*
X157807865Y-100149500D01*
X157784500Y-100149500D01*
X157717461Y-100129815D01*
X157671706Y-100077011D01*
X157660500Y-100025500D01*
X157660500Y-90474499D01*
X157680185Y-90407460D01*
X157732989Y-90361705D01*
X157784500Y-90350499D01*
X157807871Y-90350499D01*
X157807872Y-90350499D01*
X157867483Y-90344091D01*
X158002331Y-90293796D01*
X158117546Y-90207546D01*
X158203796Y-90092331D01*
X158254091Y-89957483D01*
X158260500Y-89897873D01*
X158260499Y-88102128D01*
X158255299Y-88053757D01*
X158254091Y-88042516D01*
X158203797Y-87907671D01*
X158203793Y-87907664D01*
X158117547Y-87792455D01*
X158117544Y-87792452D01*
X158002335Y-87706206D01*
X158002328Y-87706202D01*
X157867482Y-87655908D01*
X157867483Y-87655908D01*
X157807883Y-87649501D01*
X157807881Y-87649500D01*
X157807873Y-87649500D01*
X157807865Y-87649500D01*
X157784500Y-87649500D01*
X157717461Y-87629815D01*
X157671706Y-87577011D01*
X157660500Y-87525500D01*
X157660500Y-77974499D01*
X157680185Y-77907460D01*
X157732989Y-77861705D01*
X157784500Y-77850499D01*
X157807871Y-77850499D01*
X157807872Y-77850499D01*
X157867483Y-77844091D01*
X158002331Y-77793796D01*
X158117546Y-77707546D01*
X158203796Y-77592331D01*
X158254091Y-77457483D01*
X158260500Y-77397873D01*
X158260499Y-75602128D01*
X158254091Y-75542517D01*
X158253002Y-75539598D01*
X158203797Y-75407671D01*
X158203793Y-75407664D01*
X158117547Y-75292455D01*
X158117544Y-75292452D01*
X158025792Y-75223766D01*
X157983921Y-75167832D01*
X157978937Y-75098141D01*
X158012423Y-75036818D01*
X158073746Y-75003334D01*
X158100103Y-75000500D01*
X165461988Y-75000500D01*
X165529027Y-75020185D01*
G37*
%TD.AperFunction*%
%TA.AperFunction,Conductor*%
G36*
X154620000Y-115330633D02*
G01*
X154833483Y-115273433D01*
X154833492Y-115273429D01*
X155047578Y-115173600D01*
X155241078Y-115038108D01*
X155363133Y-114916053D01*
X155424456Y-114882568D01*
X155494148Y-114887552D01*
X155550082Y-114929423D01*
X155566997Y-114960401D01*
X155616202Y-115092328D01*
X155616206Y-115092335D01*
X155702452Y-115207544D01*
X155702455Y-115207547D01*
X155817664Y-115293793D01*
X155817671Y-115293797D01*
X155862618Y-115310561D01*
X155952517Y-115344091D01*
X156012127Y-115350500D01*
X156035497Y-115350499D01*
X156102536Y-115370181D01*
X156148292Y-115422983D01*
X156159500Y-115474499D01*
X156159500Y-125025500D01*
X156139815Y-125092539D01*
X156087011Y-125138294D01*
X156035505Y-125149500D01*
X156012132Y-125149500D01*
X156012123Y-125149501D01*
X155952516Y-125155908D01*
X155817671Y-125206202D01*
X155817664Y-125206206D01*
X155702455Y-125292452D01*
X155702452Y-125292455D01*
X155616206Y-125407664D01*
X155616202Y-125407671D01*
X155566997Y-125539598D01*
X155525126Y-125595532D01*
X155459661Y-125619949D01*
X155391388Y-125605097D01*
X155363134Y-125583946D01*
X155241082Y-125461894D01*
X155047578Y-125326399D01*
X154833492Y-125226570D01*
X154833486Y-125226567D01*
X154620000Y-125169364D01*
X154620000Y-126066988D01*
X154562993Y-126034075D01*
X154435826Y-126000000D01*
X154304174Y-126000000D01*
X154177007Y-126034075D01*
X154120000Y-126066988D01*
X154120000Y-125169364D01*
X154119999Y-125169364D01*
X153906513Y-125226567D01*
X153906507Y-125226570D01*
X153692422Y-125326399D01*
X153692420Y-125326400D01*
X153498926Y-125461886D01*
X153498920Y-125461891D01*
X153331891Y-125628920D01*
X153331890Y-125628922D01*
X153201880Y-125814595D01*
X153147303Y-125858219D01*
X153077804Y-125865412D01*
X153015450Y-125833890D01*
X152998730Y-125814594D01*
X152868494Y-125628597D01*
X152701404Y-125461507D01*
X152633375Y-125413872D01*
X152589751Y-125359294D01*
X152580500Y-125312298D01*
X152580500Y-115187700D01*
X152600185Y-115120661D01*
X152633375Y-115086126D01*
X152701401Y-115038495D01*
X152868495Y-114871401D01*
X152998730Y-114685405D01*
X153053307Y-114641781D01*
X153122805Y-114634587D01*
X153185160Y-114666110D01*
X153201879Y-114685405D01*
X153331890Y-114871078D01*
X153498917Y-115038105D01*
X153692421Y-115173600D01*
X153906507Y-115273429D01*
X153906516Y-115273433D01*
X154120000Y-115330634D01*
X154120000Y-114433012D01*
X154177007Y-114465925D01*
X154304174Y-114500000D01*
X154435826Y-114500000D01*
X154562993Y-114465925D01*
X154620000Y-114433012D01*
X154620000Y-115330633D01*
G37*
%TD.AperFunction*%
%TA.AperFunction,Conductor*%
G36*
X134250000Y-114366988D02*
G01*
X134192993Y-114334075D01*
X134065826Y-114300000D01*
X133934174Y-114300000D01*
X133807007Y-114334075D01*
X133750000Y-114366988D01*
X133750000Y-112693012D01*
X133807007Y-112725925D01*
X133934174Y-112760000D01*
X134065826Y-112760000D01*
X134192993Y-112725925D01*
X134250000Y-112693012D01*
X134250000Y-114366988D01*
G37*
%TD.AperFunction*%
%TA.AperFunction,Conductor*%
G36*
X154620000Y-102830633D02*
G01*
X154833483Y-102773433D01*
X154833492Y-102773429D01*
X155047578Y-102673600D01*
X155241078Y-102538108D01*
X155363133Y-102416053D01*
X155424456Y-102382568D01*
X155494148Y-102387552D01*
X155550082Y-102429423D01*
X155566997Y-102460401D01*
X155616202Y-102592328D01*
X155616206Y-102592335D01*
X155702452Y-102707544D01*
X155702455Y-102707547D01*
X155817664Y-102793793D01*
X155817671Y-102793797D01*
X155862618Y-102810561D01*
X155952517Y-102844091D01*
X156012127Y-102850500D01*
X156035497Y-102850499D01*
X156102536Y-102870181D01*
X156148292Y-102922983D01*
X156159500Y-102974499D01*
X156159500Y-112525500D01*
X156139815Y-112592539D01*
X156087011Y-112638294D01*
X156035505Y-112649500D01*
X156012132Y-112649500D01*
X156012123Y-112649501D01*
X155952516Y-112655908D01*
X155817671Y-112706202D01*
X155817664Y-112706206D01*
X155702455Y-112792452D01*
X155702452Y-112792455D01*
X155616206Y-112907664D01*
X155616202Y-112907671D01*
X155566997Y-113039598D01*
X155525126Y-113095532D01*
X155459661Y-113119949D01*
X155391388Y-113105097D01*
X155363134Y-113083946D01*
X155241082Y-112961894D01*
X155047578Y-112826399D01*
X154833492Y-112726570D01*
X154833486Y-112726567D01*
X154620000Y-112669364D01*
X154620000Y-113566988D01*
X154562993Y-113534075D01*
X154435826Y-113500000D01*
X154304174Y-113500000D01*
X154177007Y-113534075D01*
X154120000Y-113566988D01*
X154120000Y-112669364D01*
X154119999Y-112669364D01*
X153906513Y-112726567D01*
X153906507Y-112726570D01*
X153692422Y-112826399D01*
X153692420Y-112826400D01*
X153498926Y-112961886D01*
X153498920Y-112961891D01*
X153331891Y-113128920D01*
X153331890Y-113128922D01*
X153201880Y-113314595D01*
X153147303Y-113358219D01*
X153077804Y-113365412D01*
X153015450Y-113333890D01*
X152998730Y-113314594D01*
X152868494Y-113128597D01*
X152701404Y-112961507D01*
X152633375Y-112913872D01*
X152589751Y-112859294D01*
X152580500Y-112812298D01*
X152580500Y-102687700D01*
X152600185Y-102620661D01*
X152633375Y-102586126D01*
X152701401Y-102538495D01*
X152868495Y-102371401D01*
X152998730Y-102185405D01*
X153053307Y-102141781D01*
X153122805Y-102134587D01*
X153185160Y-102166110D01*
X153201879Y-102185405D01*
X153331890Y-102371078D01*
X153498917Y-102538105D01*
X153692421Y-102673600D01*
X153906507Y-102773429D01*
X153906516Y-102773433D01*
X154120000Y-102830634D01*
X154120000Y-101933012D01*
X154177007Y-101965925D01*
X154304174Y-102000000D01*
X154435826Y-102000000D01*
X154562993Y-101965925D01*
X154620000Y-101933012D01*
X154620000Y-102830633D01*
G37*
%TD.AperFunction*%
%TA.AperFunction,Conductor*%
G36*
X154620000Y-90330633D02*
G01*
X154833483Y-90273433D01*
X154833492Y-90273429D01*
X155047578Y-90173600D01*
X155241078Y-90038108D01*
X155363133Y-89916053D01*
X155424456Y-89882568D01*
X155494148Y-89887552D01*
X155550082Y-89929423D01*
X155566997Y-89960401D01*
X155616202Y-90092328D01*
X155616206Y-90092335D01*
X155702452Y-90207544D01*
X155702455Y-90207547D01*
X155817664Y-90293793D01*
X155817671Y-90293797D01*
X155836748Y-90300912D01*
X155952517Y-90344091D01*
X156012127Y-90350500D01*
X156035497Y-90350499D01*
X156102536Y-90370181D01*
X156148292Y-90422983D01*
X156159500Y-90474499D01*
X156159500Y-100025500D01*
X156139815Y-100092539D01*
X156087011Y-100138294D01*
X156035505Y-100149500D01*
X156012132Y-100149500D01*
X156012123Y-100149501D01*
X155952516Y-100155908D01*
X155817671Y-100206202D01*
X155817664Y-100206206D01*
X155702455Y-100292452D01*
X155702452Y-100292455D01*
X155616206Y-100407664D01*
X155616202Y-100407671D01*
X155566997Y-100539598D01*
X155525126Y-100595532D01*
X155459661Y-100619949D01*
X155391388Y-100605097D01*
X155363134Y-100583946D01*
X155241082Y-100461894D01*
X155047578Y-100326399D01*
X154833492Y-100226570D01*
X154833486Y-100226567D01*
X154620000Y-100169364D01*
X154620000Y-101066988D01*
X154562993Y-101034075D01*
X154435826Y-101000000D01*
X154304174Y-101000000D01*
X154177007Y-101034075D01*
X154120000Y-101066988D01*
X154120000Y-100169364D01*
X154119999Y-100169364D01*
X153906513Y-100226567D01*
X153906507Y-100226570D01*
X153692422Y-100326399D01*
X153692420Y-100326400D01*
X153498926Y-100461886D01*
X153498920Y-100461891D01*
X153331891Y-100628920D01*
X153331890Y-100628922D01*
X153201880Y-100814595D01*
X153147303Y-100858219D01*
X153077804Y-100865412D01*
X153015450Y-100833890D01*
X152998730Y-100814594D01*
X152868494Y-100628597D01*
X152701404Y-100461507D01*
X152633375Y-100413872D01*
X152589751Y-100359294D01*
X152580500Y-100312298D01*
X152580500Y-90187700D01*
X152600185Y-90120661D01*
X152633375Y-90086126D01*
X152701401Y-90038495D01*
X152868495Y-89871401D01*
X152998730Y-89685405D01*
X153053307Y-89641781D01*
X153122805Y-89634587D01*
X153185160Y-89666110D01*
X153201879Y-89685405D01*
X153331890Y-89871078D01*
X153498917Y-90038105D01*
X153692421Y-90173600D01*
X153906507Y-90273429D01*
X153906516Y-90273433D01*
X154120000Y-90330634D01*
X154120000Y-89433012D01*
X154177007Y-89465925D01*
X154304174Y-89500000D01*
X154435826Y-89500000D01*
X154562993Y-89465925D01*
X154620000Y-89433012D01*
X154620000Y-90330633D01*
G37*
%TD.AperFunction*%
%TA.AperFunction,Conductor*%
G36*
X154620000Y-77830633D02*
G01*
X154833483Y-77773433D01*
X154833492Y-77773429D01*
X155047578Y-77673600D01*
X155241078Y-77538108D01*
X155363133Y-77416053D01*
X155424456Y-77382568D01*
X155494148Y-77387552D01*
X155550082Y-77429423D01*
X155566997Y-77460401D01*
X155616202Y-77592328D01*
X155616206Y-77592335D01*
X155702452Y-77707544D01*
X155702455Y-77707547D01*
X155817664Y-77793793D01*
X155817671Y-77793797D01*
X155837244Y-77801097D01*
X155952517Y-77844091D01*
X156012127Y-77850500D01*
X156035497Y-77850499D01*
X156102536Y-77870181D01*
X156148292Y-77922983D01*
X156159500Y-77974499D01*
X156159500Y-87525500D01*
X156139815Y-87592539D01*
X156087011Y-87638294D01*
X156035505Y-87649500D01*
X156012132Y-87649500D01*
X156012123Y-87649501D01*
X155952516Y-87655908D01*
X155817671Y-87706202D01*
X155817664Y-87706206D01*
X155702455Y-87792452D01*
X155702452Y-87792455D01*
X155616206Y-87907664D01*
X155616202Y-87907671D01*
X155566997Y-88039598D01*
X155525126Y-88095532D01*
X155459661Y-88119949D01*
X155391388Y-88105097D01*
X155363134Y-88083946D01*
X155241082Y-87961894D01*
X155047578Y-87826399D01*
X154833492Y-87726570D01*
X154833486Y-87726567D01*
X154620000Y-87669364D01*
X154620000Y-88566988D01*
X154562993Y-88534075D01*
X154435826Y-88500000D01*
X154304174Y-88500000D01*
X154177007Y-88534075D01*
X154120000Y-88566988D01*
X154120000Y-87669364D01*
X154119999Y-87669364D01*
X153906513Y-87726567D01*
X153906507Y-87726570D01*
X153692422Y-87826399D01*
X153692420Y-87826400D01*
X153498926Y-87961886D01*
X153498920Y-87961891D01*
X153331891Y-88128920D01*
X153331890Y-88128922D01*
X153201880Y-88314595D01*
X153147303Y-88358219D01*
X153077804Y-88365412D01*
X153015450Y-88333890D01*
X152998730Y-88314594D01*
X152868494Y-88128597D01*
X152701404Y-87961507D01*
X152633375Y-87913872D01*
X152589751Y-87859294D01*
X152580500Y-87812298D01*
X152580500Y-77687700D01*
X152600185Y-77620661D01*
X152633375Y-77586126D01*
X152701401Y-77538495D01*
X152868495Y-77371401D01*
X152998730Y-77185405D01*
X153053307Y-77141781D01*
X153122805Y-77134587D01*
X153185160Y-77166110D01*
X153201879Y-77185405D01*
X153331890Y-77371078D01*
X153498917Y-77538105D01*
X153692421Y-77673600D01*
X153906507Y-77773429D01*
X153906516Y-77773433D01*
X154120000Y-77830634D01*
X154120000Y-76933012D01*
X154177007Y-76965925D01*
X154304174Y-77000000D01*
X154435826Y-77000000D01*
X154562993Y-76965925D01*
X154620000Y-76933012D01*
X154620000Y-77830633D01*
G37*
%TD.AperFunction*%
%TA.AperFunction,Conductor*%
G36*
X167115008Y-77261456D02*
G01*
X167183191Y-77275159D01*
X167233375Y-77323773D01*
X167249500Y-77384921D01*
X167249500Y-78090241D01*
X167229815Y-78157280D01*
X167177011Y-78203035D01*
X167107853Y-78212979D01*
X167044297Y-78183954D01*
X167037819Y-78177923D01*
X167017176Y-78157280D01*
X166896401Y-78036505D01*
X166896397Y-78036502D01*
X166896396Y-78036501D01*
X166702834Y-77900967D01*
X166702824Y-77900962D01*
X166686889Y-77893531D01*
X166634450Y-77847358D01*
X166615299Y-77780165D01*
X166635516Y-77713284D01*
X166673561Y-77677301D01*
X166673144Y-77676706D01*
X166677175Y-77673883D01*
X166677314Y-77673752D01*
X166677591Y-77673592D01*
X166761373Y-77614926D01*
X166761373Y-77614925D01*
X166129409Y-76982962D01*
X166192993Y-76965925D01*
X166307007Y-76900099D01*
X166400099Y-76807007D01*
X166465925Y-76692993D01*
X166482962Y-76629409D01*
X167115008Y-77261456D01*
G37*
%TD.AperFunction*%
%TD*%
M02*
