%TF.GenerationSoftware,KiCad,Pcbnew,8.0.4-8.0.4-0~ubuntu24.04.1*%
%TF.CreationDate,2024-09-03T17:30:12+09:00*%
%TF.ProjectId,ESP32,45535033-322e-46b6-9963-61645f706362,rev?*%
%TF.SameCoordinates,Original*%
%TF.FileFunction,Copper,L2,Bot*%
%TF.FilePolarity,Positive*%
%FSLAX46Y46*%
G04 Gerber Fmt 4.6, Leading zero omitted, Abs format (unit mm)*
G04 Created by KiCad (PCBNEW 8.0.4-8.0.4-0~ubuntu24.04.1) date 2024-09-03 17:30:12*
%MOMM*%
%LPD*%
G01*
G04 APERTURE LIST*
%TA.AperFunction,ComponentPad*%
%ADD10R,1.700000X1.700000*%
%TD*%
%TA.AperFunction,ComponentPad*%
%ADD11O,1.700000X1.700000*%
%TD*%
%TA.AperFunction,ComponentPad*%
%ADD12R,1.408000X1.408000*%
%TD*%
%TA.AperFunction,ComponentPad*%
%ADD13C,1.408000*%
%TD*%
%TA.AperFunction,ComponentPad*%
%ADD14C,1.700000*%
%TD*%
%TA.AperFunction,ViaPad*%
%ADD15C,0.600000*%
%TD*%
%TA.AperFunction,Conductor*%
%ADD16C,0.500000*%
%TD*%
G04 APERTURE END LIST*
D10*
%TO.P,J9,1,Pin_1*%
%TO.N,GND1*%
X166250000Y-124790000D03*
D11*
%TO.P,J9,2,Pin_2*%
%TO.N,Net-(J9-Pin_2)*%
X166250000Y-122250000D03*
%TD*%
D10*
%TO.P,J8,1,Pin_1*%
%TO.N,Net-(J8-Pin_1)*%
X166250000Y-118620000D03*
D11*
%TO.P,J8,2,Pin_2*%
%TO.N,Net-(J8-Pin_2)*%
X166250000Y-116080000D03*
%TO.P,J8,3,Pin_3*%
%TO.N,Net-(J8-Pin_3)*%
X166250000Y-113540000D03*
%TO.P,J8,4,Pin_4*%
%TO.N,Net-(J8-Pin_4)*%
X166250000Y-111000000D03*
%TD*%
D10*
%TO.P,J1,1,Pin_1*%
%TO.N,+3V3*%
X156910000Y-76500000D03*
D11*
%TO.P,J1,2,Pin_2*%
%TO.N,GND1*%
X154370000Y-76500000D03*
%TO.P,J1,3,Pin_3*%
%TO.N,SDA*%
X151830000Y-76500000D03*
%TO.P,J1,4,Pin_4*%
%TO.N,SCL*%
X149290000Y-76500000D03*
%TO.P,J1,5,Pin_5*%
%TO.N,unconnected-(J1-Pin_5-Pad5)*%
X146750000Y-76500000D03*
%TO.P,J1,6,Pin_6*%
%TO.N,VCC1*%
X144210000Y-76500000D03*
%TD*%
D10*
%TO.P,J15,1,Pin_1*%
%TO.N,Net-(J15-Pin_1)*%
X140500000Y-113250000D03*
D11*
%TO.P,J15,2,Pin_2*%
%TO.N,Net-(J15-Pin_2)*%
X140500000Y-115790000D03*
%TO.P,J15,3,Pin_3*%
%TO.N,Net-(J15-Pin_3)*%
X140500000Y-118330000D03*
%TO.P,J15,4,Pin_4*%
%TO.N,Net-(J15-Pin_4)*%
X140500000Y-120870000D03*
%TD*%
D10*
%TO.P,J7,1,Pin_1*%
%TO.N,VIN*%
X134000000Y-127500000D03*
D11*
%TO.P,J7,2,Pin_2*%
%TO.N,GND1*%
X134000000Y-124960000D03*
%TO.P,J7,3,Pin_3*%
%TO.N,VCC5*%
X134000000Y-122420000D03*
%TO.P,J7,4,Pin_4*%
%TO.N,GND1*%
X134000000Y-119880000D03*
%TO.P,J7,5,Pin_5*%
%TO.N,VCC4*%
X134000000Y-117340000D03*
%TO.P,J7,6,Pin_6*%
%TO.N,GND1*%
X134000000Y-114800000D03*
%TO.P,J7,7,Pin_7*%
X134000000Y-112260000D03*
%TO.P,J7,8,Pin_8*%
%TO.N,VCC3*%
X134000000Y-109720000D03*
%TO.P,J7,9,Pin_9*%
%TO.N,GND1*%
X134000000Y-107180000D03*
%TO.P,J7,10,Pin_10*%
%TO.N,VCC2*%
X134000000Y-104640000D03*
%TO.P,J7,11,Pin_11*%
%TO.N,GND1*%
X134000000Y-102100000D03*
%TO.P,J7,12,Pin_12*%
%TO.N,VCC1*%
X134000000Y-99560000D03*
%TD*%
D10*
%TO.P,J5,1,Pin_1*%
%TO.N,+3V3*%
X156910000Y-126500000D03*
D11*
%TO.P,J5,2,Pin_2*%
%TO.N,GND1*%
X154370000Y-126500000D03*
%TO.P,J5,3,Pin_3*%
%TO.N,SDA*%
X151830000Y-126500000D03*
%TO.P,J5,4,Pin_4*%
%TO.N,SCL*%
X149290000Y-126500000D03*
%TO.P,J5,5,Pin_5*%
%TO.N,unconnected-(J5-Pin_5-Pad5)*%
X146750000Y-126500000D03*
%TO.P,J5,6,Pin_6*%
%TO.N,VCC5*%
X144210000Y-126500000D03*
%TD*%
D10*
%TO.P,J3,1,Pin_1*%
%TO.N,+3V3*%
X156910000Y-101500000D03*
D11*
%TO.P,J3,2,Pin_2*%
%TO.N,GND1*%
X154370000Y-101500000D03*
%TO.P,J3,3,Pin_3*%
%TO.N,SDA*%
X151830000Y-101500000D03*
%TO.P,J3,4,Pin_4*%
%TO.N,SCL*%
X149290000Y-101500000D03*
%TO.P,J3,5,Pin_5*%
%TO.N,unconnected-(J3-Pin_5-Pad5)*%
X146750000Y-101500000D03*
%TO.P,J3,6,Pin_6*%
%TO.N,VCC3*%
X144210000Y-101500000D03*
%TD*%
D10*
%TO.P,J13,1,Pin_1*%
%TO.N,Net-(J13-Pin_1)*%
X134000000Y-88200000D03*
D11*
%TO.P,J13,2,Pin_2*%
%TO.N,Net-(J13-Pin_2)*%
X134000000Y-90740000D03*
%TO.P,J13,3,Pin_3*%
%TO.N,Net-(J13-Pin_3)*%
X134000000Y-93280000D03*
%TO.P,J13,4,Pin_4*%
%TO.N,Net-(J13-Pin_4)*%
X134000000Y-95820000D03*
%TD*%
D10*
%TO.P,J6,1,Pin_1*%
%TO.N,Net-(J6-Pin_1)*%
X166250000Y-107370000D03*
D11*
%TO.P,J6,2,Pin_2*%
%TO.N,Net-(J6-Pin_2)*%
X166250000Y-104830000D03*
%TO.P,J6,3,Pin_3*%
%TO.N,Net-(J6-Pin_3)*%
X166250000Y-102290000D03*
%TO.P,J6,4,Pin_4*%
%TO.N,Net-(J6-Pin_4)*%
X166250000Y-99750000D03*
%TD*%
D10*
%TO.P,J4,1,Pin_1*%
%TO.N,+3V3*%
X156910000Y-114000000D03*
D11*
%TO.P,J4,2,Pin_2*%
%TO.N,GND1*%
X154370000Y-114000000D03*
%TO.P,J4,3,Pin_3*%
%TO.N,SDA*%
X151830000Y-114000000D03*
%TO.P,J4,4,Pin_4*%
%TO.N,SCL*%
X149290000Y-114000000D03*
%TO.P,J4,5,Pin_5*%
%TO.N,unconnected-(J4-Pin_5-Pad5)*%
X146750000Y-114000000D03*
%TO.P,J4,6,Pin_6*%
%TO.N,VCC4*%
X144210000Y-114000000D03*
%TD*%
D10*
%TO.P,J2,1,Pin_1*%
%TO.N,+3V3*%
X156910000Y-89000000D03*
D11*
%TO.P,J2,2,Pin_2*%
%TO.N,GND1*%
X154370000Y-89000000D03*
%TO.P,J2,3,Pin_3*%
%TO.N,SDA*%
X151830000Y-89000000D03*
%TO.P,J2,4,Pin_4*%
%TO.N,SCL*%
X149290000Y-89000000D03*
%TO.P,J2,5,Pin_5*%
%TO.N,unconnected-(J2-Pin_5-Pad5)*%
X146750000Y-89000000D03*
%TO.P,J2,6,Pin_6*%
%TO.N,VCC2*%
X144210000Y-89000000D03*
%TD*%
D10*
%TO.P,J16,1,Pin_1*%
%TO.N,Net-(J16-Pin_1)*%
X160000000Y-92580000D03*
D11*
%TO.P,J16,2,Pin_2*%
%TO.N,Net-(J16-Pin_2)*%
X160000000Y-90040000D03*
%TO.P,J16,3,Pin_3*%
%TO.N,Net-(J16-Pin_3)*%
X160000000Y-87500000D03*
%TO.P,J16,4,Pin_4*%
%TO.N,Net-(J16-Pin_4)*%
X160000000Y-84960000D03*
%TD*%
D12*
%TO.P,U1,J2_1,3V3*%
%TO.N,+3V3*%
X137485000Y-82015000D03*
D13*
%TO.P,U1,J2_2,EN*%
%TO.N,unconnected-(U1-EN-PadJ2_2)*%
X137485000Y-84555000D03*
%TO.P,U1,J2_3,SENSOR_VP*%
%TO.N,unconnected-(U1-SENSOR_VP-PadJ2_3)*%
X137485000Y-87095000D03*
%TO.P,U1,J2_4,SENSOR_VN*%
%TO.N,unconnected-(U1-SENSOR_VN-PadJ2_4)*%
X137485000Y-89635000D03*
%TO.P,U1,J2_5,IO34*%
%TO.N,Net-(J13-Pin_1)*%
X137485000Y-92175000D03*
%TO.P,U1,J2_6,IO35*%
%TO.N,Net-(J13-Pin_2)*%
X137485000Y-94715000D03*
%TO.P,U1,J2_7,IO32*%
%TO.N,Net-(J13-Pin_3)*%
X137485000Y-97255000D03*
%TO.P,U1,J2_8,IO33*%
%TO.N,Net-(J13-Pin_4)*%
X137485000Y-99795000D03*
%TO.P,U1,J2_9,IO25*%
%TO.N,Net-(J14-Pin_1)*%
X137485000Y-102335000D03*
%TO.P,U1,J2_10,IO26*%
%TO.N,Net-(J14-Pin_2)*%
X137485000Y-104875000D03*
%TO.P,U1,J2_11,IO27*%
%TO.N,Net-(J14-Pin_3)*%
X137485000Y-107415000D03*
%TO.P,U1,J2_12,IO14*%
%TO.N,Net-(J14-Pin_4)*%
X137485000Y-109955000D03*
%TO.P,U1,J2_13,IO12*%
%TO.N,Net-(J15-Pin_1)*%
X137485000Y-112495000D03*
%TO.P,U1,J2_14,GND_J2_14*%
%TO.N,Net-(J15-Pin_2)*%
X137485000Y-115035000D03*
%TO.P,U1,J2_15,IO13*%
%TO.N,Net-(J15-Pin_3)*%
X137485000Y-117575000D03*
%TO.P,U1,J2_16,SD2*%
%TO.N,Net-(J15-Pin_4)*%
X137485000Y-120115000D03*
%TO.P,U1,J2_17,SD3*%
%TO.N,unconnected-(U1-SD3-PadJ2_17)*%
X137485000Y-122655000D03*
%TO.P,U1,J2_18,CMD*%
%TO.N,unconnected-(U1-CMD-PadJ2_18)*%
X137485000Y-125195000D03*
%TO.P,U1,J2_19,EXT_5V*%
%TO.N,VIN*%
X137485000Y-127735000D03*
%TO.P,U1,J3_1,GND_J3_1*%
%TO.N,GND1*%
X162885000Y-82015000D03*
%TO.P,U1,J3_2,IO23*%
%TO.N,Net-(J16-Pin_4)*%
X162885000Y-84555000D03*
%TO.P,U1,J3_3,IO22*%
%TO.N,SCL*%
X162885000Y-87095000D03*
%TO.P,U1,J3_4,TXD0*%
%TO.N,Net-(J16-Pin_3)*%
X162885000Y-89635000D03*
%TO.P,U1,J3_5,RXD0*%
%TO.N,Net-(J16-Pin_2)*%
X162885000Y-92175000D03*
%TO.P,U1,J3_6,IO21*%
%TO.N,SDA*%
X162885000Y-94715000D03*
%TO.P,U1,J3_7,GND_J3_7*%
%TO.N,Net-(J16-Pin_1)*%
X162885000Y-97255000D03*
%TO.P,U1,J3_8,IO19*%
%TO.N,Net-(J6-Pin_4)*%
X162885000Y-99795000D03*
%TO.P,U1,J3_9,IO18*%
%TO.N,Net-(J6-Pin_3)*%
X162885000Y-102335000D03*
%TO.P,U1,J3_10,IO5*%
%TO.N,Net-(J6-Pin_2)*%
X162885000Y-104875000D03*
%TO.P,U1,J3_11,IO17*%
%TO.N,Net-(J6-Pin_1)*%
X162885000Y-107415000D03*
%TO.P,U1,J3_12,IO16*%
%TO.N,Net-(J8-Pin_4)*%
X162885000Y-109955000D03*
%TO.P,U1,J3_13,IO4*%
%TO.N,Net-(J8-Pin_3)*%
X162885000Y-112495000D03*
%TO.P,U1,J3_14,IO0*%
%TO.N,Net-(J9-Pin_2)*%
X162885000Y-115035000D03*
%TO.P,U1,J3_15,IO2*%
%TO.N,Net-(J8-Pin_2)*%
X162885000Y-117575000D03*
%TO.P,U1,J3_16,IO15*%
%TO.N,Net-(J8-Pin_1)*%
X162885000Y-120115000D03*
%TO.P,U1,J3_17,SD1*%
%TO.N,unconnected-(U1-SD1-PadJ3_17)*%
X162885000Y-122655000D03*
%TO.P,U1,J3_18,SD0*%
%TO.N,unconnected-(U1-SD0-PadJ3_18)*%
X162885000Y-125195000D03*
%TO.P,U1,J3_19,CLK*%
%TO.N,unconnected-(U1-CLK-PadJ3_19)*%
X162885000Y-127735000D03*
%TD*%
D10*
%TO.P,J14,1,Pin_1*%
%TO.N,Net-(J14-Pin_1)*%
X140500000Y-101950000D03*
D11*
%TO.P,J14,2,Pin_2*%
%TO.N,Net-(J14-Pin_2)*%
X140500000Y-104490000D03*
%TO.P,J14,3,Pin_3*%
%TO.N,Net-(J14-Pin_3)*%
X140500000Y-107030000D03*
%TO.P,J14,4,Pin_4*%
%TO.N,Net-(J14-Pin_4)*%
X140500000Y-109570000D03*
%TD*%
D14*
%TO.P,U2,1,SCL*%
%TO.N,SCL*%
X166025000Y-94450000D03*
%TO.P,U2,2,SDA*%
%TO.N,SDA*%
X166000000Y-91875000D03*
%TO.P,U2,3,SD0*%
%TO.N,unconnected-(U2-SD0-Pad3)*%
X166000000Y-89350000D03*
%TO.P,U2,4,INT2*%
%TO.N,unconnected-(U2-INT2-Pad4)*%
X165975000Y-86775000D03*
%TO.P,U2,5,INT1*%
%TO.N,unconnected-(U2-INT1-Pad5)*%
X166000000Y-84200000D03*
%TO.P,U2,6,CS*%
%TO.N,unconnected-(U2-CS-Pad6)*%
X166000000Y-81650000D03*
%TO.P,U2,7,VCC*%
%TO.N,+3V3*%
X166025000Y-79075000D03*
%TO.P,U2,8,GND*%
%TO.N,GND1*%
X166000000Y-76500000D03*
%TD*%
D15*
%TO.N,+3V3*%
X147750000Y-82000000D03*
%TO.N,VCC2*%
X131500000Y-102750000D03*
%TO.N,VCC4*%
X140000000Y-128250000D03*
%TO.N,VCC5*%
X141000000Y-128250000D03*
X141000000Y-130250000D03*
%TD*%
D16*
%TO.N,SDA*%
X162885000Y-94715000D02*
X152715000Y-94715000D01*
X152715000Y-94715000D02*
X151830000Y-93830000D01*
X151830000Y-93830000D02*
X151830000Y-89000000D01*
%TO.N,SCL*%
X166025000Y-94450000D02*
X164250000Y-92675000D01*
X164250000Y-92675000D02*
X164250000Y-88460000D01*
X164250000Y-88460000D02*
X162885000Y-87095000D01*
%TO.N,+3V3*%
X166025000Y-79075000D02*
X163450000Y-76500000D01*
X163450000Y-76500000D02*
X156910000Y-76500000D01*
%TO.N,GND1*%
X155515000Y-82015000D02*
X162885000Y-82015000D01*
X154370000Y-80870000D02*
X155515000Y-82015000D01*
X154370000Y-76500000D02*
X154370000Y-80870000D01*
%TO.N,+3V3*%
X147750000Y-82000000D02*
X154250000Y-82000000D01*
X156910000Y-84660000D02*
X156910000Y-89000000D01*
X154250000Y-82000000D02*
X156910000Y-84660000D01*
%TO.N,VIN*%
X134235000Y-127735000D02*
X134000000Y-127500000D01*
X137485000Y-127735000D02*
X134235000Y-127735000D01*
%TO.N,Net-(J9-Pin_2)*%
X164950000Y-117100000D02*
X162885000Y-115035000D01*
X166250000Y-122250000D02*
X164950000Y-120950000D01*
X164950000Y-120950000D02*
X164950000Y-117100000D01*
%TO.N,VCC2*%
X133260050Y-79000000D02*
X131500000Y-80760050D01*
X141000000Y-89000000D02*
X140750000Y-88750000D01*
X139750000Y-79000000D02*
X133260050Y-79000000D01*
X140750000Y-88750000D02*
X140750000Y-80000000D01*
X140750000Y-80000000D02*
X139750000Y-79000000D01*
X144210000Y-89000000D02*
X141000000Y-89000000D01*
X131500000Y-80760050D02*
X131500000Y-102750000D01*
%TO.N,VCC3*%
X144210000Y-101500000D02*
X142460000Y-99750000D01*
X139500000Y-80500000D02*
X139000000Y-80000000D01*
X139000000Y-80000000D02*
X133250000Y-80000000D01*
X142460000Y-99750000D02*
X139500000Y-99750000D01*
X132250000Y-107970000D02*
X134000000Y-109720000D01*
X133250000Y-80000000D02*
X132250000Y-81000000D01*
X139500000Y-99750000D02*
X139500000Y-80500000D01*
X132250000Y-81000000D02*
X132250000Y-107970000D01*
%TO.N,VCC4*%
X132250000Y-119090000D02*
X134000000Y-117340000D01*
X140000000Y-129000000D02*
X139250000Y-129750000D01*
X140000000Y-128250000D02*
X140000000Y-129000000D01*
X133650000Y-129750000D02*
X132250000Y-128350000D01*
X139250000Y-129750000D02*
X133650000Y-129750000D01*
X132250000Y-128350000D02*
X132250000Y-119090000D01*
%TO.N,VCC5*%
X141000000Y-128250000D02*
X141000000Y-130250000D01*
%TD*%
%TA.AperFunction,Conductor*%
%TO.N,GND1*%
G36*
X131165455Y-103481030D02*
G01*
X131320737Y-103535366D01*
X131320742Y-103535367D01*
X131320745Y-103535368D01*
X131389384Y-103543101D01*
X131453796Y-103570166D01*
X131493352Y-103627760D01*
X131499500Y-103666321D01*
X131499500Y-108043918D01*
X131499500Y-108043920D01*
X131499499Y-108043920D01*
X131528340Y-108188907D01*
X131528343Y-108188917D01*
X131583675Y-108322500D01*
X131584916Y-108325495D01*
X131599284Y-108346998D01*
X131614986Y-108370499D01*
X131667049Y-108448418D01*
X131667052Y-108448421D01*
X132627130Y-109408498D01*
X132660615Y-109469821D01*
X132662977Y-109506986D01*
X132644341Y-109719997D01*
X132644341Y-109720000D01*
X132664936Y-109955403D01*
X132664938Y-109955413D01*
X132726094Y-110183655D01*
X132726096Y-110183659D01*
X132726097Y-110183663D01*
X132756019Y-110247830D01*
X132825965Y-110397830D01*
X132825967Y-110397834D01*
X132961501Y-110591395D01*
X132961506Y-110591402D01*
X133128597Y-110758493D01*
X133128603Y-110758498D01*
X133314594Y-110888730D01*
X133358219Y-110943307D01*
X133365413Y-111012805D01*
X133333890Y-111075160D01*
X133314595Y-111091880D01*
X133128922Y-111221890D01*
X133128920Y-111221891D01*
X132961891Y-111388920D01*
X132961886Y-111388926D01*
X132826400Y-111582420D01*
X132826399Y-111582422D01*
X132726570Y-111796507D01*
X132726567Y-111796513D01*
X132669364Y-112009999D01*
X132669364Y-112010000D01*
X133566988Y-112010000D01*
X133534075Y-112067007D01*
X133500000Y-112194174D01*
X133500000Y-112325826D01*
X133534075Y-112452993D01*
X133566988Y-112510000D01*
X132669364Y-112510000D01*
X132726567Y-112723486D01*
X132726570Y-112723492D01*
X132826399Y-112937578D01*
X132961894Y-113131082D01*
X133128917Y-113298105D01*
X133315031Y-113428425D01*
X133358656Y-113483003D01*
X133365848Y-113552501D01*
X133334326Y-113614856D01*
X133315031Y-113631575D01*
X133128922Y-113761890D01*
X133128920Y-113761891D01*
X132961891Y-113928920D01*
X132961886Y-113928926D01*
X132826400Y-114122420D01*
X132826399Y-114122422D01*
X132726570Y-114336507D01*
X132726567Y-114336513D01*
X132669364Y-114549999D01*
X132669364Y-114550000D01*
X133566988Y-114550000D01*
X133534075Y-114607007D01*
X133500000Y-114734174D01*
X133500000Y-114865826D01*
X133534075Y-114992993D01*
X133566988Y-115050000D01*
X132669364Y-115050000D01*
X132726567Y-115263486D01*
X132726570Y-115263492D01*
X132826399Y-115477578D01*
X132961894Y-115671082D01*
X133128917Y-115838105D01*
X133314595Y-115968119D01*
X133358219Y-116022696D01*
X133365412Y-116092195D01*
X133333890Y-116154549D01*
X133314595Y-116171269D01*
X133128594Y-116301508D01*
X132961505Y-116468597D01*
X132825965Y-116662169D01*
X132825964Y-116662171D01*
X132726098Y-116876335D01*
X132726094Y-116876344D01*
X132664938Y-117104586D01*
X132664936Y-117104596D01*
X132644341Y-117339999D01*
X132644341Y-117340001D01*
X132662977Y-117553012D01*
X132649210Y-117621512D01*
X132627130Y-117651500D01*
X131667048Y-118611583D01*
X131645770Y-118643428D01*
X131624634Y-118675063D01*
X131610872Y-118695659D01*
X131584916Y-118734504D01*
X131584912Y-118734511D01*
X131528343Y-118871082D01*
X131528340Y-118871092D01*
X131499500Y-119016079D01*
X131499500Y-119016082D01*
X131499500Y-128423918D01*
X131499500Y-128423920D01*
X131499499Y-128423920D01*
X131528340Y-128568907D01*
X131528343Y-128568917D01*
X131584913Y-128705490D01*
X131584914Y-128705492D01*
X131616165Y-128752262D01*
X131616166Y-128752264D01*
X131667043Y-128828410D01*
X131667047Y-128828415D01*
X133171586Y-130332954D01*
X133201058Y-130352645D01*
X133245270Y-130382186D01*
X133294505Y-130415084D01*
X133294506Y-130415084D01*
X133294507Y-130415085D01*
X133294509Y-130415086D01*
X133431082Y-130471656D01*
X133431087Y-130471658D01*
X133431091Y-130471658D01*
X133431092Y-130471659D01*
X133576079Y-130500500D01*
X133576082Y-130500500D01*
X139323920Y-130500500D01*
X139421462Y-130481096D01*
X139468913Y-130471658D01*
X139605495Y-130415084D01*
X139654729Y-130382186D01*
X139654734Y-130382183D01*
X139679071Y-130365921D01*
X139728416Y-130332952D01*
X139992499Y-130068868D01*
X140053821Y-130035384D01*
X140123512Y-130040368D01*
X140179446Y-130082239D01*
X140203863Y-130147704D01*
X140203399Y-130170433D01*
X140194435Y-130249995D01*
X140194435Y-130250003D01*
X140214630Y-130429249D01*
X140214632Y-130429257D01*
X140268970Y-130584546D01*
X140272531Y-130654324D01*
X140237802Y-130714952D01*
X140175809Y-130747179D01*
X140151928Y-130749500D01*
X131124500Y-130749500D01*
X131057461Y-130729815D01*
X131011706Y-130677011D01*
X131000500Y-130625500D01*
X131000500Y-103598071D01*
X131020185Y-103531032D01*
X131072989Y-103485277D01*
X131142147Y-103475333D01*
X131165455Y-103481030D01*
G37*
%TD.AperFunction*%
%TA.AperFunction,Conductor*%
G36*
X168692539Y-72520185D02*
G01*
X168738294Y-72572989D01*
X168749500Y-72624500D01*
X168749500Y-130625500D01*
X168729815Y-130692539D01*
X168677011Y-130738294D01*
X168625500Y-130749500D01*
X141848072Y-130749500D01*
X141781033Y-130729815D01*
X141735278Y-130677011D01*
X141725334Y-130607853D01*
X141731030Y-130584546D01*
X141785367Y-130429257D01*
X141785368Y-130429255D01*
X141785369Y-130429249D01*
X141805565Y-130250003D01*
X141805565Y-130249996D01*
X141785368Y-130070747D01*
X141785368Y-130070745D01*
X141757458Y-129990982D01*
X141750500Y-129950028D01*
X141750500Y-128549972D01*
X141757458Y-128509017D01*
X141785368Y-128429254D01*
X141785369Y-128429249D01*
X141805565Y-128250003D01*
X141805565Y-128249996D01*
X141785369Y-128070750D01*
X141785368Y-128070745D01*
X141725788Y-127900476D01*
X141646258Y-127773905D01*
X141629816Y-127747738D01*
X141502262Y-127620184D01*
X141457941Y-127592335D01*
X141349523Y-127524211D01*
X141179254Y-127464631D01*
X141179249Y-127464630D01*
X141000004Y-127444435D01*
X140999996Y-127444435D01*
X140820750Y-127464630D01*
X140820737Y-127464633D01*
X140650479Y-127524209D01*
X140565971Y-127577309D01*
X140498734Y-127596309D01*
X140434029Y-127577309D01*
X140349520Y-127524209D01*
X140179262Y-127464633D01*
X140179249Y-127464630D01*
X140000004Y-127444435D01*
X139999996Y-127444435D01*
X139820750Y-127464630D01*
X139820745Y-127464631D01*
X139650476Y-127524211D01*
X139497737Y-127620184D01*
X139370184Y-127747737D01*
X139274211Y-127900476D01*
X139214631Y-128070745D01*
X139214630Y-128070750D01*
X139194435Y-128249996D01*
X139194435Y-128250003D01*
X139214630Y-128429249D01*
X139214631Y-128429254D01*
X139242542Y-128509017D01*
X139249500Y-128549972D01*
X139249500Y-128637770D01*
X139229815Y-128704809D01*
X139213181Y-128725451D01*
X138975451Y-128963181D01*
X138914128Y-128996666D01*
X138887770Y-128999500D01*
X138166621Y-128999500D01*
X138099582Y-128979815D01*
X138053827Y-128927011D01*
X138043883Y-128857853D01*
X138072908Y-128794297D01*
X138101344Y-128770073D01*
X138173411Y-128725451D01*
X138213983Y-128700330D01*
X138378950Y-128549943D01*
X138513474Y-128371804D01*
X138612974Y-128171980D01*
X138612974Y-128171977D01*
X138612976Y-128171975D01*
X138674062Y-127957276D01*
X138674063Y-127957273D01*
X138694660Y-127735000D01*
X138694660Y-127734999D01*
X138674063Y-127512726D01*
X138674062Y-127512723D01*
X138612976Y-127298024D01*
X138612973Y-127298018D01*
X138556899Y-127185406D01*
X138513474Y-127098196D01*
X138378950Y-126920057D01*
X138213983Y-126769670D01*
X138213979Y-126769667D01*
X138213974Y-126769664D01*
X138024195Y-126652158D01*
X138024186Y-126652154D01*
X137938430Y-126618932D01*
X137839547Y-126580625D01*
X137784148Y-126538054D01*
X137770497Y-126499999D01*
X142854341Y-126499999D01*
X142854341Y-126500000D01*
X142874936Y-126735403D01*
X142874938Y-126735413D01*
X142936094Y-126963655D01*
X142936096Y-126963659D01*
X142936097Y-126963663D01*
X143016004Y-127135023D01*
X143035965Y-127177830D01*
X143035967Y-127177834D01*
X143120123Y-127298020D01*
X143171505Y-127371401D01*
X143338599Y-127538495D01*
X143421166Y-127596309D01*
X143532165Y-127674032D01*
X143532167Y-127674033D01*
X143532170Y-127674035D01*
X143746337Y-127773903D01*
X143974592Y-127835063D01*
X144151034Y-127850500D01*
X144209999Y-127855659D01*
X144210000Y-127855659D01*
X144210001Y-127855659D01*
X144268966Y-127850500D01*
X144445408Y-127835063D01*
X144673663Y-127773903D01*
X144887830Y-127674035D01*
X145081401Y-127538495D01*
X145248495Y-127371401D01*
X145378425Y-127185842D01*
X145433002Y-127142217D01*
X145502500Y-127135023D01*
X145564855Y-127166546D01*
X145581575Y-127185842D01*
X145711500Y-127371395D01*
X145711505Y-127371401D01*
X145878599Y-127538495D01*
X145961166Y-127596309D01*
X146072165Y-127674032D01*
X146072167Y-127674033D01*
X146072170Y-127674035D01*
X146286337Y-127773903D01*
X146514592Y-127835063D01*
X146691034Y-127850500D01*
X146749999Y-127855659D01*
X146750000Y-127855659D01*
X146750001Y-127855659D01*
X146808966Y-127850500D01*
X146985408Y-127835063D01*
X147213663Y-127773903D01*
X147427830Y-127674035D01*
X147621401Y-127538495D01*
X147788495Y-127371401D01*
X147918425Y-127185842D01*
X147973002Y-127142217D01*
X148042500Y-127135023D01*
X148104855Y-127166546D01*
X148121575Y-127185842D01*
X148251500Y-127371395D01*
X148251505Y-127371401D01*
X148418599Y-127538495D01*
X148501166Y-127596309D01*
X148612165Y-127674032D01*
X148612167Y-127674033D01*
X148612170Y-127674035D01*
X148826337Y-127773903D01*
X149054592Y-127835063D01*
X149231034Y-127850500D01*
X149289999Y-127855659D01*
X149290000Y-127855659D01*
X149290001Y-127855659D01*
X149348966Y-127850500D01*
X149525408Y-127835063D01*
X149753663Y-127773903D01*
X149967830Y-127674035D01*
X150161401Y-127538495D01*
X150328495Y-127371401D01*
X150458425Y-127185842D01*
X150513002Y-127142217D01*
X150582500Y-127135023D01*
X150644855Y-127166546D01*
X150661575Y-127185842D01*
X150791500Y-127371395D01*
X150791505Y-127371401D01*
X150958599Y-127538495D01*
X151041166Y-127596309D01*
X151152165Y-127674032D01*
X151152167Y-127674033D01*
X151152170Y-127674035D01*
X151366337Y-127773903D01*
X151594592Y-127835063D01*
X151771034Y-127850500D01*
X151829999Y-127855659D01*
X151830000Y-127855659D01*
X151830001Y-127855659D01*
X151888966Y-127850500D01*
X152065408Y-127835063D01*
X152293663Y-127773903D01*
X152507830Y-127674035D01*
X152701401Y-127538495D01*
X152868495Y-127371401D01*
X152998730Y-127185405D01*
X153053307Y-127141781D01*
X153122805Y-127134587D01*
X153185160Y-127166110D01*
X153201879Y-127185405D01*
X153331890Y-127371078D01*
X153498917Y-127538105D01*
X153692421Y-127673600D01*
X153906507Y-127773429D01*
X153906516Y-127773433D01*
X154120000Y-127830634D01*
X154120000Y-126933012D01*
X154177007Y-126965925D01*
X154304174Y-127000000D01*
X154435826Y-127000000D01*
X154562993Y-126965925D01*
X154620000Y-126933012D01*
X154620000Y-127830633D01*
X154833483Y-127773433D01*
X154833492Y-127773429D01*
X155047578Y-127673600D01*
X155241078Y-127538108D01*
X155363133Y-127416053D01*
X155424456Y-127382568D01*
X155494148Y-127387552D01*
X155550082Y-127429423D01*
X155566997Y-127460401D01*
X155616202Y-127592328D01*
X155616206Y-127592335D01*
X155702452Y-127707544D01*
X155702455Y-127707547D01*
X155817664Y-127793793D01*
X155817671Y-127793797D01*
X155952517Y-127844091D01*
X155952516Y-127844091D01*
X155959444Y-127844835D01*
X156012127Y-127850500D01*
X157807872Y-127850499D01*
X157867483Y-127844091D01*
X158002331Y-127793796D01*
X158117546Y-127707546D01*
X158203796Y-127592331D01*
X158254091Y-127457483D01*
X158260500Y-127397873D01*
X158260499Y-125602128D01*
X158254091Y-125542517D01*
X158253002Y-125539598D01*
X158203797Y-125407671D01*
X158203793Y-125407664D01*
X158117547Y-125292455D01*
X158117544Y-125292452D01*
X158002335Y-125206206D01*
X158002328Y-125206202D01*
X157867482Y-125155908D01*
X157867483Y-125155908D01*
X157807883Y-125149501D01*
X157807881Y-125149500D01*
X157807873Y-125149500D01*
X157807864Y-125149500D01*
X156012129Y-125149500D01*
X156012123Y-125149501D01*
X155952516Y-125155908D01*
X155817671Y-125206202D01*
X155817664Y-125206206D01*
X155702455Y-125292452D01*
X155702452Y-125292455D01*
X155616206Y-125407664D01*
X155616202Y-125407671D01*
X155566997Y-125539598D01*
X155525126Y-125595532D01*
X155459661Y-125619949D01*
X155391388Y-125605097D01*
X155363134Y-125583946D01*
X155241082Y-125461894D01*
X155047578Y-125326399D01*
X154833492Y-125226570D01*
X154833486Y-125226567D01*
X154620000Y-125169364D01*
X154620000Y-126066988D01*
X154562993Y-126034075D01*
X154435826Y-126000000D01*
X154304174Y-126000000D01*
X154177007Y-126034075D01*
X154120000Y-126066988D01*
X154120000Y-125169364D01*
X154119999Y-125169364D01*
X153906513Y-125226567D01*
X153906507Y-125226570D01*
X153692422Y-125326399D01*
X153692420Y-125326400D01*
X153498926Y-125461886D01*
X153498920Y-125461891D01*
X153331891Y-125628920D01*
X153331890Y-125628922D01*
X153201880Y-125814595D01*
X153147303Y-125858219D01*
X153077804Y-125865412D01*
X153015450Y-125833890D01*
X152998730Y-125814594D01*
X152868494Y-125628597D01*
X152701402Y-125461506D01*
X152701395Y-125461501D01*
X152699251Y-125460000D01*
X152624518Y-125407671D01*
X152507834Y-125325967D01*
X152507830Y-125325965D01*
X152507828Y-125325964D01*
X152293663Y-125226097D01*
X152293659Y-125226096D01*
X152293655Y-125226094D01*
X152065413Y-125164938D01*
X152065403Y-125164936D01*
X151830001Y-125144341D01*
X151829999Y-125144341D01*
X151594596Y-125164936D01*
X151594586Y-125164938D01*
X151366344Y-125226094D01*
X151366335Y-125226098D01*
X151152171Y-125325964D01*
X151152169Y-125325965D01*
X150958597Y-125461505D01*
X150791505Y-125628597D01*
X150661575Y-125814158D01*
X150606998Y-125857783D01*
X150537500Y-125864977D01*
X150475145Y-125833454D01*
X150458425Y-125814158D01*
X150328494Y-125628597D01*
X150161402Y-125461506D01*
X150161395Y-125461501D01*
X150159251Y-125460000D01*
X150084518Y-125407671D01*
X149967834Y-125325967D01*
X149967830Y-125325965D01*
X149967828Y-125325964D01*
X149753663Y-125226097D01*
X149753659Y-125226096D01*
X149753655Y-125226094D01*
X149525413Y-125164938D01*
X149525403Y-125164936D01*
X149290001Y-125144341D01*
X149289999Y-125144341D01*
X149054596Y-125164936D01*
X149054586Y-125164938D01*
X148826344Y-125226094D01*
X148826335Y-125226098D01*
X148612171Y-125325964D01*
X148612169Y-125325965D01*
X148418597Y-125461505D01*
X148251505Y-125628597D01*
X148121575Y-125814158D01*
X148066998Y-125857783D01*
X147997500Y-125864977D01*
X147935145Y-125833454D01*
X147918425Y-125814158D01*
X147788494Y-125628597D01*
X147621402Y-125461506D01*
X147621395Y-125461501D01*
X147619251Y-125460000D01*
X147544518Y-125407671D01*
X147427834Y-125325967D01*
X147427830Y-125325965D01*
X147427828Y-125325964D01*
X147213663Y-125226097D01*
X147213659Y-125226096D01*
X147213655Y-125226094D01*
X146985413Y-125164938D01*
X146985403Y-125164936D01*
X146750001Y-125144341D01*
X146749999Y-125144341D01*
X146514596Y-125164936D01*
X146514586Y-125164938D01*
X146286344Y-125226094D01*
X146286335Y-125226098D01*
X146072171Y-125325964D01*
X146072169Y-125325965D01*
X145878597Y-125461505D01*
X145711505Y-125628597D01*
X145581575Y-125814158D01*
X145526998Y-125857783D01*
X145457500Y-125864977D01*
X145395145Y-125833454D01*
X145378425Y-125814158D01*
X145248494Y-125628597D01*
X145081402Y-125461506D01*
X145081395Y-125461501D01*
X145079251Y-125460000D01*
X145004518Y-125407671D01*
X144887834Y-125325967D01*
X144887830Y-125325965D01*
X144887828Y-125325964D01*
X144673663Y-125226097D01*
X144673659Y-125226096D01*
X144673655Y-125226094D01*
X144445413Y-125164938D01*
X144445403Y-125164936D01*
X144210001Y-125144341D01*
X144209999Y-125144341D01*
X143974596Y-125164936D01*
X143974586Y-125164938D01*
X143746344Y-125226094D01*
X143746335Y-125226098D01*
X143532171Y-125325964D01*
X143532169Y-125325965D01*
X143338597Y-125461505D01*
X143171505Y-125628597D01*
X143035965Y-125822169D01*
X143035964Y-125822171D01*
X142936098Y-126036335D01*
X142936094Y-126036344D01*
X142874938Y-126264586D01*
X142874936Y-126264596D01*
X142854341Y-126499999D01*
X137770497Y-126499999D01*
X137760557Y-126472288D01*
X137776268Y-126404207D01*
X137826292Y-126355428D01*
X137839538Y-126349378D01*
X138024192Y-126277843D01*
X138213983Y-126160330D01*
X138378950Y-126009943D01*
X138513474Y-125831804D01*
X138612974Y-125631980D01*
X138612974Y-125631977D01*
X138612976Y-125631975D01*
X138647954Y-125509036D01*
X138674063Y-125417274D01*
X138694660Y-125195000D01*
X138692284Y-125169364D01*
X138674063Y-124972726D01*
X138674062Y-124972723D01*
X138612976Y-124758024D01*
X138612973Y-124758018D01*
X138589063Y-124710000D01*
X138513474Y-124558196D01*
X138378950Y-124380057D01*
X138213983Y-124229670D01*
X138213979Y-124229667D01*
X138213974Y-124229664D01*
X138024195Y-124112158D01*
X138024186Y-124112154D01*
X137938430Y-124078932D01*
X137839547Y-124040625D01*
X137784148Y-123998054D01*
X137760557Y-123932288D01*
X137776268Y-123864207D01*
X137826292Y-123815428D01*
X137839538Y-123809378D01*
X138024192Y-123737843D01*
X138213983Y-123620330D01*
X138378950Y-123469943D01*
X138513474Y-123291804D01*
X138612974Y-123091980D01*
X138612974Y-123091977D01*
X138612976Y-123091975D01*
X138659677Y-122927834D01*
X138674063Y-122877274D01*
X138694660Y-122655000D01*
X138674063Y-122432726D01*
X138665191Y-122401544D01*
X138612976Y-122218024D01*
X138612973Y-122218018D01*
X138526340Y-122044035D01*
X138513474Y-122018196D01*
X138378950Y-121840057D01*
X138213983Y-121689670D01*
X138213979Y-121689667D01*
X138213974Y-121689664D01*
X138024195Y-121572158D01*
X138024186Y-121572154D01*
X137938430Y-121538932D01*
X137839547Y-121500625D01*
X137784148Y-121458054D01*
X137760557Y-121392288D01*
X137776268Y-121324207D01*
X137826292Y-121275428D01*
X137839538Y-121269378D01*
X138024192Y-121197843D01*
X138213983Y-121080330D01*
X138378950Y-120929943D01*
X138513474Y-120751804D01*
X138612974Y-120551980D01*
X138612974Y-120551977D01*
X138612976Y-120551975D01*
X138661906Y-120380000D01*
X138674063Y-120337274D01*
X138694660Y-120115000D01*
X138690767Y-120072993D01*
X138674063Y-119892726D01*
X138674062Y-119892723D01*
X138612976Y-119678024D01*
X138612973Y-119678018D01*
X138589063Y-119630000D01*
X138513474Y-119478196D01*
X138378950Y-119300057D01*
X138213983Y-119149670D01*
X138213979Y-119149667D01*
X138213974Y-119149664D01*
X138024195Y-119032158D01*
X138024186Y-119032154D01*
X137938430Y-118998932D01*
X137839547Y-118960625D01*
X137784148Y-118918054D01*
X137760557Y-118852288D01*
X137776268Y-118784207D01*
X137826292Y-118735428D01*
X137839538Y-118729378D01*
X138024192Y-118657843D01*
X138213983Y-118540330D01*
X138378950Y-118389943D01*
X138513474Y-118211804D01*
X138612974Y-118011980D01*
X138612974Y-118011977D01*
X138612976Y-118011975D01*
X138654413Y-117866335D01*
X138674063Y-117797274D01*
X138694660Y-117575000D01*
X138692622Y-117553012D01*
X138674063Y-117352726D01*
X138674062Y-117352723D01*
X138612976Y-117138024D01*
X138612973Y-117138018D01*
X138562921Y-117037500D01*
X138513474Y-116938196D01*
X138378950Y-116760057D01*
X138376511Y-116757834D01*
X138213984Y-116609671D01*
X138213974Y-116609664D01*
X138024195Y-116492158D01*
X138024186Y-116492154D01*
X137938430Y-116458932D01*
X137839547Y-116420625D01*
X137784148Y-116378054D01*
X137760557Y-116312288D01*
X137776268Y-116244207D01*
X137826292Y-116195428D01*
X137839538Y-116189378D01*
X138024192Y-116117843D01*
X138213983Y-116000330D01*
X138378950Y-115849943D01*
X138424217Y-115789999D01*
X139144341Y-115789999D01*
X139144341Y-115790000D01*
X139164936Y-116025403D01*
X139164938Y-116025413D01*
X139226094Y-116253655D01*
X139226096Y-116253659D01*
X139226097Y-116253663D01*
X139254892Y-116315413D01*
X139325965Y-116467830D01*
X139325967Y-116467834D01*
X139461501Y-116661395D01*
X139461506Y-116661402D01*
X139628597Y-116828493D01*
X139628603Y-116828498D01*
X139814158Y-116958425D01*
X139857783Y-117013002D01*
X139864977Y-117082500D01*
X139833454Y-117144855D01*
X139814158Y-117161575D01*
X139628597Y-117291505D01*
X139461505Y-117458597D01*
X139325965Y-117652169D01*
X139325964Y-117652171D01*
X139226098Y-117866335D01*
X139226094Y-117866344D01*
X139164938Y-118094586D01*
X139164936Y-118094596D01*
X139144341Y-118329999D01*
X139144341Y-118330000D01*
X139164936Y-118565403D01*
X139164938Y-118565413D01*
X139226094Y-118793655D01*
X139226096Y-118793659D01*
X139226097Y-118793663D01*
X139262201Y-118871087D01*
X139325965Y-119007830D01*
X139325967Y-119007834D01*
X139461501Y-119201395D01*
X139461506Y-119201402D01*
X139628597Y-119368493D01*
X139628603Y-119368498D01*
X139814158Y-119498425D01*
X139857783Y-119553002D01*
X139864977Y-119622500D01*
X139833454Y-119684855D01*
X139814158Y-119701575D01*
X139628597Y-119831505D01*
X139461505Y-119998597D01*
X139325965Y-120192169D01*
X139325964Y-120192171D01*
X139226098Y-120406335D01*
X139226094Y-120406344D01*
X139164938Y-120634586D01*
X139164936Y-120634596D01*
X139144341Y-120869999D01*
X139144341Y-120870000D01*
X139164936Y-121105403D01*
X139164938Y-121105413D01*
X139226094Y-121333655D01*
X139226096Y-121333659D01*
X139226097Y-121333663D01*
X139270281Y-121428416D01*
X139325965Y-121547830D01*
X139325967Y-121547834D01*
X139425283Y-121689671D01*
X139461505Y-121741401D01*
X139628599Y-121908495D01*
X139725384Y-121976265D01*
X139822165Y-122044032D01*
X139822167Y-122044033D01*
X139822170Y-122044035D01*
X140036337Y-122143903D01*
X140264592Y-122205063D01*
X140412734Y-122218024D01*
X140499999Y-122225659D01*
X140500000Y-122225659D01*
X140500001Y-122225659D01*
X140539234Y-122222226D01*
X140735408Y-122205063D01*
X140963663Y-122143903D01*
X141177830Y-122044035D01*
X141371401Y-121908495D01*
X141538495Y-121741401D01*
X141674035Y-121547830D01*
X141773903Y-121333663D01*
X141835063Y-121105408D01*
X141855659Y-120870000D01*
X141835063Y-120634592D01*
X141773903Y-120406337D01*
X141674035Y-120192171D01*
X141670420Y-120187007D01*
X141538494Y-119998597D01*
X141371402Y-119831506D01*
X141371396Y-119831501D01*
X141185842Y-119701575D01*
X141142217Y-119646998D01*
X141135023Y-119577500D01*
X141166546Y-119515145D01*
X141185842Y-119498425D01*
X141302824Y-119416513D01*
X141371401Y-119368495D01*
X141538495Y-119201401D01*
X141674035Y-119007830D01*
X141773903Y-118793663D01*
X141835063Y-118565408D01*
X141855659Y-118330000D01*
X141835063Y-118094592D01*
X141773903Y-117866337D01*
X141674035Y-117652171D01*
X141673566Y-117651500D01*
X141538494Y-117458597D01*
X141371402Y-117291506D01*
X141371396Y-117291501D01*
X141185842Y-117161575D01*
X141142217Y-117106998D01*
X141135023Y-117037500D01*
X141166546Y-116975145D01*
X141185842Y-116958425D01*
X141214733Y-116938195D01*
X141371401Y-116828495D01*
X141538495Y-116661401D01*
X141674035Y-116467830D01*
X141773903Y-116253663D01*
X141835063Y-116025408D01*
X141855659Y-115790000D01*
X141853254Y-115762517D01*
X141845255Y-115671082D01*
X141835063Y-115554592D01*
X141773903Y-115326337D01*
X141674035Y-115112171D01*
X141670419Y-115107007D01*
X141538496Y-114918600D01*
X141485722Y-114865826D01*
X141416567Y-114796671D01*
X141383084Y-114735351D01*
X141388068Y-114665659D01*
X141429939Y-114609725D01*
X141460915Y-114592810D01*
X141592331Y-114543796D01*
X141707546Y-114457546D01*
X141793796Y-114342331D01*
X141844091Y-114207483D01*
X141850500Y-114147873D01*
X141850500Y-113999999D01*
X142854341Y-113999999D01*
X142854341Y-114000000D01*
X142874936Y-114235403D01*
X142874938Y-114235413D01*
X142936094Y-114463655D01*
X142936096Y-114463659D01*
X142936097Y-114463663D01*
X143015844Y-114634681D01*
X143035965Y-114677830D01*
X143035967Y-114677834D01*
X143130418Y-114812723D01*
X143171505Y-114871401D01*
X143338599Y-115038495D01*
X143435384Y-115106265D01*
X143532165Y-115174032D01*
X143532167Y-115174033D01*
X143532170Y-115174035D01*
X143746337Y-115273903D01*
X143974592Y-115335063D01*
X144151034Y-115350500D01*
X144209999Y-115355659D01*
X144210000Y-115355659D01*
X144210001Y-115355659D01*
X144268966Y-115350500D01*
X144445408Y-115335063D01*
X144673663Y-115273903D01*
X144887830Y-115174035D01*
X145081401Y-115038495D01*
X145248495Y-114871401D01*
X145378425Y-114685842D01*
X145433002Y-114642217D01*
X145502500Y-114635023D01*
X145564855Y-114666546D01*
X145581575Y-114685842D01*
X145711500Y-114871395D01*
X145711505Y-114871401D01*
X145878599Y-115038495D01*
X145975384Y-115106265D01*
X146072165Y-115174032D01*
X146072167Y-115174033D01*
X146072170Y-115174035D01*
X146286337Y-115273903D01*
X146514592Y-115335063D01*
X146691034Y-115350500D01*
X146749999Y-115355659D01*
X146750000Y-115355659D01*
X146750001Y-115355659D01*
X146808966Y-115350500D01*
X146985408Y-115335063D01*
X147213663Y-115273903D01*
X147427830Y-115174035D01*
X147621401Y-115038495D01*
X147788495Y-114871401D01*
X147918425Y-114685842D01*
X147973002Y-114642217D01*
X148042500Y-114635023D01*
X148104855Y-114666546D01*
X148121575Y-114685842D01*
X148251500Y-114871395D01*
X148251505Y-114871401D01*
X148418599Y-115038495D01*
X148515384Y-115106265D01*
X148612165Y-115174032D01*
X148612167Y-115174033D01*
X148612170Y-115174035D01*
X148826337Y-115273903D01*
X149054592Y-115335063D01*
X149231034Y-115350500D01*
X149289999Y-115355659D01*
X149290000Y-115355659D01*
X149290001Y-115355659D01*
X149348966Y-115350500D01*
X149525408Y-115335063D01*
X149753663Y-115273903D01*
X149967830Y-115174035D01*
X150161401Y-115038495D01*
X150328495Y-114871401D01*
X150458425Y-114685842D01*
X150513002Y-114642217D01*
X150582500Y-114635023D01*
X150644855Y-114666546D01*
X150661575Y-114685842D01*
X150791500Y-114871395D01*
X150791505Y-114871401D01*
X150958599Y-115038495D01*
X151055384Y-115106265D01*
X151152165Y-115174032D01*
X151152167Y-115174033D01*
X151152170Y-115174035D01*
X151366337Y-115273903D01*
X151594592Y-115335063D01*
X151771034Y-115350500D01*
X151829999Y-115355659D01*
X151830000Y-115355659D01*
X151830001Y-115355659D01*
X151888966Y-115350500D01*
X152065408Y-115335063D01*
X152293663Y-115273903D01*
X152507830Y-115174035D01*
X152701401Y-115038495D01*
X152868495Y-114871401D01*
X152998730Y-114685405D01*
X153053307Y-114641781D01*
X153122805Y-114634587D01*
X153185160Y-114666110D01*
X153201879Y-114685405D01*
X153331890Y-114871078D01*
X153498917Y-115038105D01*
X153692421Y-115173600D01*
X153906507Y-115273429D01*
X153906516Y-115273433D01*
X154120000Y-115330634D01*
X154120000Y-114433012D01*
X154177007Y-114465925D01*
X154304174Y-114500000D01*
X154435826Y-114500000D01*
X154562993Y-114465925D01*
X154620000Y-114433012D01*
X154620000Y-115330633D01*
X154833483Y-115273433D01*
X154833492Y-115273429D01*
X155047578Y-115173600D01*
X155241078Y-115038108D01*
X155363133Y-114916053D01*
X155424456Y-114882568D01*
X155494148Y-114887552D01*
X155550082Y-114929423D01*
X155566997Y-114960401D01*
X155616202Y-115092328D01*
X155616206Y-115092335D01*
X155702452Y-115207544D01*
X155702455Y-115207547D01*
X155817664Y-115293793D01*
X155817671Y-115293797D01*
X155952517Y-115344091D01*
X155952516Y-115344091D01*
X155959444Y-115344835D01*
X156012127Y-115350500D01*
X157807872Y-115350499D01*
X157867483Y-115344091D01*
X158002331Y-115293796D01*
X158117546Y-115207546D01*
X158203796Y-115092331D01*
X158254091Y-114957483D01*
X158260500Y-114897873D01*
X158260499Y-113102128D01*
X158254091Y-113042517D01*
X158253002Y-113039598D01*
X158203797Y-112907671D01*
X158203793Y-112907664D01*
X158117547Y-112792455D01*
X158117544Y-112792452D01*
X158002335Y-112706206D01*
X158002328Y-112706202D01*
X157867482Y-112655908D01*
X157867483Y-112655908D01*
X157807883Y-112649501D01*
X157807881Y-112649500D01*
X157807873Y-112649500D01*
X157807864Y-112649500D01*
X156012129Y-112649500D01*
X156012123Y-112649501D01*
X155952516Y-112655908D01*
X155817671Y-112706202D01*
X155817664Y-112706206D01*
X155702455Y-112792452D01*
X155702452Y-112792455D01*
X155616206Y-112907664D01*
X155616202Y-112907671D01*
X155566997Y-113039598D01*
X155525126Y-113095532D01*
X155459661Y-113119949D01*
X155391388Y-113105097D01*
X155363134Y-113083946D01*
X155241082Y-112961894D01*
X155047578Y-112826399D01*
X154833492Y-112726570D01*
X154833486Y-112726567D01*
X154620000Y-112669364D01*
X154620000Y-113566988D01*
X154562993Y-113534075D01*
X154435826Y-113500000D01*
X154304174Y-113500000D01*
X154177007Y-113534075D01*
X154120000Y-113566988D01*
X154120000Y-112669364D01*
X154119999Y-112669364D01*
X153906513Y-112726567D01*
X153906507Y-112726570D01*
X153692422Y-112826399D01*
X153692420Y-112826400D01*
X153498926Y-112961886D01*
X153498920Y-112961891D01*
X153331891Y-113128920D01*
X153331890Y-113128922D01*
X153201880Y-113314595D01*
X153147303Y-113358219D01*
X153077804Y-113365412D01*
X153015450Y-113333890D01*
X152998730Y-113314594D01*
X152868494Y-113128597D01*
X152701402Y-112961506D01*
X152701395Y-112961501D01*
X152507834Y-112825967D01*
X152507830Y-112825965D01*
X152507828Y-112825964D01*
X152293663Y-112726097D01*
X152293659Y-112726096D01*
X152293655Y-112726094D01*
X152065413Y-112664938D01*
X152065403Y-112664936D01*
X151830001Y-112644341D01*
X151829999Y-112644341D01*
X151594596Y-112664936D01*
X151594586Y-112664938D01*
X151366344Y-112726094D01*
X151366335Y-112726098D01*
X151152171Y-112825964D01*
X151152169Y-112825965D01*
X150958597Y-112961505D01*
X150791505Y-113128597D01*
X150661575Y-113314158D01*
X150606998Y-113357783D01*
X150537500Y-113364977D01*
X150475145Y-113333454D01*
X150458425Y-113314158D01*
X150328494Y-113128597D01*
X150161402Y-112961506D01*
X150161395Y-112961501D01*
X149967834Y-112825967D01*
X149967830Y-112825965D01*
X149967828Y-112825964D01*
X149753663Y-112726097D01*
X149753659Y-112726096D01*
X149753655Y-112726094D01*
X149525413Y-112664938D01*
X149525403Y-112664936D01*
X149290001Y-112644341D01*
X149289999Y-112644341D01*
X149054596Y-112664936D01*
X149054586Y-112664938D01*
X148826344Y-112726094D01*
X148826335Y-112726098D01*
X148612171Y-112825964D01*
X148612169Y-112825965D01*
X148418597Y-112961505D01*
X148251505Y-113128597D01*
X148121575Y-113314158D01*
X148066998Y-113357783D01*
X147997500Y-113364977D01*
X147935145Y-113333454D01*
X147918425Y-113314158D01*
X147788494Y-113128597D01*
X147621402Y-112961506D01*
X147621395Y-112961501D01*
X147427834Y-112825967D01*
X147427830Y-112825965D01*
X147427828Y-112825964D01*
X147213663Y-112726097D01*
X147213659Y-112726096D01*
X147213655Y-112726094D01*
X146985413Y-112664938D01*
X146985403Y-112664936D01*
X146750001Y-112644341D01*
X146749999Y-112644341D01*
X146514596Y-112664936D01*
X146514586Y-112664938D01*
X146286344Y-112726094D01*
X146286335Y-112726098D01*
X146072171Y-112825964D01*
X146072169Y-112825965D01*
X145878597Y-112961505D01*
X145711505Y-113128597D01*
X145581575Y-113314158D01*
X145526998Y-113357783D01*
X145457500Y-113364977D01*
X145395145Y-113333454D01*
X145378425Y-113314158D01*
X145248494Y-113128597D01*
X145081402Y-112961506D01*
X145081395Y-112961501D01*
X144887834Y-112825967D01*
X144887830Y-112825965D01*
X144887828Y-112825964D01*
X144673663Y-112726097D01*
X144673659Y-112726096D01*
X144673655Y-112726094D01*
X144445413Y-112664938D01*
X144445403Y-112664936D01*
X144210001Y-112644341D01*
X144209999Y-112644341D01*
X143974596Y-112664936D01*
X143974586Y-112664938D01*
X143746344Y-112726094D01*
X143746335Y-112726098D01*
X143532171Y-112825964D01*
X143532169Y-112825965D01*
X143338597Y-112961505D01*
X143171505Y-113128597D01*
X143035965Y-113322169D01*
X143035964Y-113322171D01*
X142936098Y-113536335D01*
X142936094Y-113536344D01*
X142874938Y-113764586D01*
X142874936Y-113764596D01*
X142854341Y-113999999D01*
X141850500Y-113999999D01*
X141850499Y-112352128D01*
X141844091Y-112292517D01*
X141836709Y-112272726D01*
X141793797Y-112157671D01*
X141793793Y-112157664D01*
X141707547Y-112042455D01*
X141707544Y-112042452D01*
X141592335Y-111956206D01*
X141592328Y-111956202D01*
X141457482Y-111905908D01*
X141457483Y-111905908D01*
X141397883Y-111899501D01*
X141397881Y-111899500D01*
X141397873Y-111899500D01*
X141397864Y-111899500D01*
X139602129Y-111899500D01*
X139602123Y-111899501D01*
X139542516Y-111905908D01*
X139407671Y-111956202D01*
X139407664Y-111956206D01*
X139292455Y-112042452D01*
X139292452Y-112042455D01*
X139206206Y-112157664D01*
X139206202Y-112157671D01*
X139155908Y-112292517D01*
X139149501Y-112352116D01*
X139149501Y-112352123D01*
X139149500Y-112352135D01*
X139149500Y-114147870D01*
X139149501Y-114147876D01*
X139155908Y-114207483D01*
X139206202Y-114342328D01*
X139206206Y-114342335D01*
X139292452Y-114457544D01*
X139292455Y-114457547D01*
X139407664Y-114543793D01*
X139407671Y-114543797D01*
X139539081Y-114592810D01*
X139595015Y-114634681D01*
X139619432Y-114700145D01*
X139604580Y-114768418D01*
X139583430Y-114796673D01*
X139461503Y-114918600D01*
X139325965Y-115112169D01*
X139325964Y-115112171D01*
X139226098Y-115326335D01*
X139226094Y-115326344D01*
X139164938Y-115554586D01*
X139164936Y-115554596D01*
X139144341Y-115789999D01*
X138424217Y-115789999D01*
X138513474Y-115671804D01*
X138612974Y-115471980D01*
X138612974Y-115471977D01*
X138612976Y-115471975D01*
X138663671Y-115293797D01*
X138674063Y-115257274D01*
X138694660Y-115035000D01*
X138690767Y-114992993D01*
X138674063Y-114812726D01*
X138674062Y-114812723D01*
X138669495Y-114796673D01*
X138642031Y-114700145D01*
X138612976Y-114598024D01*
X138612973Y-114598018D01*
X138589063Y-114550000D01*
X138513474Y-114398196D01*
X138378950Y-114220057D01*
X138376511Y-114217834D01*
X138213984Y-114069671D01*
X138213974Y-114069664D01*
X138024195Y-113952158D01*
X138024186Y-113952154D01*
X137938430Y-113918932D01*
X137839547Y-113880625D01*
X137784148Y-113838054D01*
X137760557Y-113772288D01*
X137776268Y-113704207D01*
X137826292Y-113655428D01*
X137839538Y-113649378D01*
X138024192Y-113577843D01*
X138213983Y-113460330D01*
X138378950Y-113309943D01*
X138513474Y-113131804D01*
X138612974Y-112931980D01*
X138612974Y-112931977D01*
X138612976Y-112931975D01*
X138671552Y-112726098D01*
X138674063Y-112717274D01*
X138694660Y-112495000D01*
X138690767Y-112452993D01*
X138674063Y-112272726D01*
X138674062Y-112272723D01*
X138612976Y-112058024D01*
X138612973Y-112058018D01*
X138589063Y-112010000D01*
X138513474Y-111858196D01*
X138378950Y-111680057D01*
X138376511Y-111677834D01*
X138213984Y-111529671D01*
X138213974Y-111529664D01*
X138024195Y-111412158D01*
X138024186Y-111412154D01*
X137938430Y-111378932D01*
X137839547Y-111340625D01*
X137784148Y-111298054D01*
X137760557Y-111232288D01*
X137776268Y-111164207D01*
X137826292Y-111115428D01*
X137839538Y-111109378D01*
X138024192Y-111037843D01*
X138213983Y-110920330D01*
X138378950Y-110769943D01*
X138513474Y-110591804D01*
X138612974Y-110391980D01*
X138612974Y-110391977D01*
X138612976Y-110391975D01*
X138653988Y-110247830D01*
X138674063Y-110177274D01*
X138694660Y-109955000D01*
X138674063Y-109732726D01*
X138654776Y-109664938D01*
X138612976Y-109518024D01*
X138612973Y-109518018D01*
X138521635Y-109334586D01*
X138513474Y-109318196D01*
X138378950Y-109140057D01*
X138213983Y-108989670D01*
X138213979Y-108989667D01*
X138213974Y-108989664D01*
X138024195Y-108872158D01*
X138024186Y-108872154D01*
X137938430Y-108838932D01*
X137839547Y-108800625D01*
X137784148Y-108758054D01*
X137760557Y-108692288D01*
X137776268Y-108624207D01*
X137826292Y-108575428D01*
X137839538Y-108569378D01*
X138024192Y-108497843D01*
X138213983Y-108380330D01*
X138378950Y-108229943D01*
X138513474Y-108051804D01*
X138612974Y-107851980D01*
X138612974Y-107851977D01*
X138612976Y-107851975D01*
X138667844Y-107659132D01*
X138674063Y-107637274D01*
X138694660Y-107415000D01*
X138690767Y-107372993D01*
X138674063Y-107192726D01*
X138674062Y-107192723D01*
X138612976Y-106978024D01*
X138612973Y-106978018D01*
X138589063Y-106930000D01*
X138513474Y-106778196D01*
X138378950Y-106600057D01*
X138213983Y-106449670D01*
X138213979Y-106449667D01*
X138213974Y-106449664D01*
X138024195Y-106332158D01*
X138024186Y-106332154D01*
X137938430Y-106298932D01*
X137839547Y-106260625D01*
X137784148Y-106218054D01*
X137760557Y-106152288D01*
X137776268Y-106084207D01*
X137826292Y-106035428D01*
X137839538Y-106029378D01*
X138024192Y-105957843D01*
X138213983Y-105840330D01*
X138378950Y-105689943D01*
X138513474Y-105511804D01*
X138612974Y-105311980D01*
X138612974Y-105311977D01*
X138612976Y-105311975D01*
X138653988Y-105167830D01*
X138674063Y-105097274D01*
X138694660Y-104875000D01*
X138674063Y-104652726D01*
X138657524Y-104594596D01*
X138612976Y-104438024D01*
X138612973Y-104438018D01*
X138521635Y-104254586D01*
X138513474Y-104238196D01*
X138378950Y-104060057D01*
X138213983Y-103909670D01*
X138213979Y-103909667D01*
X138213974Y-103909664D01*
X138024195Y-103792158D01*
X138024186Y-103792154D01*
X137938430Y-103758932D01*
X137839547Y-103720625D01*
X137784148Y-103678054D01*
X137760557Y-103612288D01*
X137776268Y-103544207D01*
X137826292Y-103495428D01*
X137839538Y-103489378D01*
X138024192Y-103417843D01*
X138213983Y-103300330D01*
X138378950Y-103149943D01*
X138513474Y-102971804D01*
X138612974Y-102771980D01*
X138612974Y-102771977D01*
X138612976Y-102771975D01*
X138664089Y-102592328D01*
X138674063Y-102557274D01*
X138694660Y-102335000D01*
X138690767Y-102292993D01*
X138674063Y-102112726D01*
X138674062Y-102112723D01*
X138612976Y-101898024D01*
X138612973Y-101898018D01*
X138589063Y-101850000D01*
X138513474Y-101698196D01*
X138378950Y-101520057D01*
X138356948Y-101500000D01*
X138213984Y-101369671D01*
X138213974Y-101369664D01*
X138024195Y-101252158D01*
X138024186Y-101252154D01*
X137938430Y-101218932D01*
X137839547Y-101180625D01*
X137784148Y-101138054D01*
X137760557Y-101072288D01*
X137776268Y-101004207D01*
X137826292Y-100955428D01*
X137839538Y-100949378D01*
X138024192Y-100877843D01*
X138213983Y-100760330D01*
X138378950Y-100609943D01*
X138513474Y-100431804D01*
X138612974Y-100231980D01*
X138631111Y-100168233D01*
X138668389Y-100109142D01*
X138731698Y-100079584D01*
X138800938Y-100088945D01*
X138853479Y-100133278D01*
X138917048Y-100228415D01*
X138917051Y-100228419D01*
X139021580Y-100332948D01*
X139021584Y-100332951D01*
X139144498Y-100415080D01*
X139144511Y-100415087D01*
X139278040Y-100470396D01*
X139281087Y-100471658D01*
X139293880Y-100474202D01*
X139303145Y-100476046D01*
X139365056Y-100508430D01*
X139399630Y-100569146D01*
X139395891Y-100638915D01*
X139355025Y-100695588D01*
X139353267Y-100696929D01*
X139292451Y-100742456D01*
X139206206Y-100857664D01*
X139206202Y-100857671D01*
X139155908Y-100992517D01*
X139150535Y-101042500D01*
X139149501Y-101052123D01*
X139149500Y-101052135D01*
X139149500Y-102847870D01*
X139149501Y-102847876D01*
X139155908Y-102907483D01*
X139206202Y-103042328D01*
X139206206Y-103042335D01*
X139292452Y-103157544D01*
X139292455Y-103157547D01*
X139407664Y-103243793D01*
X139407671Y-103243797D01*
X139539081Y-103292810D01*
X139595015Y-103334681D01*
X139619432Y-103400145D01*
X139604580Y-103468418D01*
X139583430Y-103496673D01*
X139461503Y-103618600D01*
X139325965Y-103812169D01*
X139325964Y-103812171D01*
X139226098Y-104026335D01*
X139226094Y-104026344D01*
X139164938Y-104254586D01*
X139164936Y-104254596D01*
X139144341Y-104489999D01*
X139144341Y-104490000D01*
X139164936Y-104725403D01*
X139164938Y-104725413D01*
X139226094Y-104953655D01*
X139226096Y-104953659D01*
X139226097Y-104953663D01*
X139296044Y-105103664D01*
X139325965Y-105167830D01*
X139325967Y-105167834D01*
X139461501Y-105361395D01*
X139461506Y-105361402D01*
X139628597Y-105528493D01*
X139628603Y-105528498D01*
X139814158Y-105658425D01*
X139857783Y-105713002D01*
X139864977Y-105782500D01*
X139833454Y-105844855D01*
X139814158Y-105861575D01*
X139628597Y-105991505D01*
X139461505Y-106158597D01*
X139325965Y-106352169D01*
X139325964Y-106352171D01*
X139226098Y-106566335D01*
X139226094Y-106566344D01*
X139164938Y-106794586D01*
X139164936Y-106794596D01*
X139144341Y-107029999D01*
X139144341Y-107030000D01*
X139164936Y-107265403D01*
X139164938Y-107265413D01*
X139226094Y-107493655D01*
X139226096Y-107493659D01*
X139226097Y-107493663D01*
X139266403Y-107580099D01*
X139325965Y-107707830D01*
X139325967Y-107707834D01*
X139461501Y-107901395D01*
X139461506Y-107901402D01*
X139628597Y-108068493D01*
X139628603Y-108068498D01*
X139814158Y-108198425D01*
X139857783Y-108253002D01*
X139864977Y-108322500D01*
X139833454Y-108384855D01*
X139814158Y-108401575D01*
X139628597Y-108531505D01*
X139461505Y-108698597D01*
X139325965Y-108892169D01*
X139325964Y-108892171D01*
X139226098Y-109106335D01*
X139226094Y-109106344D01*
X139164938Y-109334586D01*
X139164936Y-109334596D01*
X139144341Y-109569999D01*
X139144341Y-109570000D01*
X139164936Y-109805403D01*
X139164938Y-109805413D01*
X139226094Y-110033655D01*
X139226096Y-110033659D01*
X139226097Y-110033663D01*
X139296044Y-110183664D01*
X139325965Y-110247830D01*
X139325967Y-110247834D01*
X139426900Y-110391980D01*
X139461505Y-110441401D01*
X139628599Y-110608495D01*
X139725384Y-110676265D01*
X139822165Y-110744032D01*
X139822167Y-110744033D01*
X139822170Y-110744035D01*
X140036337Y-110843903D01*
X140264592Y-110905063D01*
X140439068Y-110920328D01*
X140499999Y-110925659D01*
X140500000Y-110925659D01*
X140500001Y-110925659D01*
X140560932Y-110920328D01*
X140735408Y-110905063D01*
X140963663Y-110843903D01*
X141177830Y-110744035D01*
X141371401Y-110608495D01*
X141538495Y-110441401D01*
X141674035Y-110247830D01*
X141773903Y-110033663D01*
X141835063Y-109805408D01*
X141855659Y-109570000D01*
X141835063Y-109334592D01*
X141773903Y-109106337D01*
X141674035Y-108892171D01*
X141660022Y-108872157D01*
X141538494Y-108698597D01*
X141371402Y-108531506D01*
X141371396Y-108531501D01*
X141185842Y-108401575D01*
X141142217Y-108346998D01*
X141135023Y-108277500D01*
X141166546Y-108215145D01*
X141185842Y-108198425D01*
X141208026Y-108182891D01*
X141371401Y-108068495D01*
X141538495Y-107901401D01*
X141674035Y-107707830D01*
X141773903Y-107493663D01*
X141835063Y-107265408D01*
X141855659Y-107030000D01*
X141835063Y-106794592D01*
X141773903Y-106566337D01*
X141674035Y-106352171D01*
X141660022Y-106332157D01*
X141538494Y-106158597D01*
X141371402Y-105991506D01*
X141371396Y-105991501D01*
X141185842Y-105861575D01*
X141142217Y-105806998D01*
X141135023Y-105737500D01*
X141166546Y-105675145D01*
X141185842Y-105658425D01*
X141340123Y-105550396D01*
X141371401Y-105528495D01*
X141538495Y-105361401D01*
X141674035Y-105167830D01*
X141773903Y-104953663D01*
X141835063Y-104725408D01*
X141855659Y-104490000D01*
X141835063Y-104254592D01*
X141773903Y-104026337D01*
X141674035Y-103812171D01*
X141660020Y-103792156D01*
X141538496Y-103618600D01*
X141479896Y-103560000D01*
X141416567Y-103496671D01*
X141383084Y-103435351D01*
X141388068Y-103365659D01*
X141429939Y-103309725D01*
X141460915Y-103292810D01*
X141592331Y-103243796D01*
X141707546Y-103157546D01*
X141793796Y-103042331D01*
X141844091Y-102907483D01*
X141850500Y-102847873D01*
X141850499Y-101052128D01*
X141844091Y-100992517D01*
X141836812Y-100973002D01*
X141793797Y-100857671D01*
X141793793Y-100857664D01*
X141707547Y-100742455D01*
X141696299Y-100734035D01*
X141682581Y-100723765D01*
X141640712Y-100667832D01*
X141635728Y-100598140D01*
X141669214Y-100536818D01*
X141730538Y-100503333D01*
X141756894Y-100500500D01*
X142097770Y-100500500D01*
X142164809Y-100520185D01*
X142185451Y-100536819D01*
X142837130Y-101188498D01*
X142870615Y-101249821D01*
X142872977Y-101286986D01*
X142854341Y-101499997D01*
X142854341Y-101500000D01*
X142874936Y-101735403D01*
X142874938Y-101735413D01*
X142936094Y-101963655D01*
X142936096Y-101963659D01*
X142936097Y-101963663D01*
X143016004Y-102135023D01*
X143035965Y-102177830D01*
X143035967Y-102177834D01*
X143114507Y-102290000D01*
X143171505Y-102371401D01*
X143338599Y-102538495D01*
X143426437Y-102600000D01*
X143532165Y-102674032D01*
X143532167Y-102674033D01*
X143532170Y-102674035D01*
X143746337Y-102773903D01*
X143974592Y-102835063D01*
X144151034Y-102850500D01*
X144209999Y-102855659D01*
X144210000Y-102855659D01*
X144210001Y-102855659D01*
X144268966Y-102850500D01*
X144445408Y-102835063D01*
X144673663Y-102773903D01*
X144887830Y-102674035D01*
X145081401Y-102538495D01*
X145248495Y-102371401D01*
X145378425Y-102185842D01*
X145433002Y-102142217D01*
X145502500Y-102135023D01*
X145564855Y-102166546D01*
X145581575Y-102185842D01*
X145711500Y-102371395D01*
X145711505Y-102371401D01*
X145878599Y-102538495D01*
X145966437Y-102600000D01*
X146072165Y-102674032D01*
X146072167Y-102674033D01*
X146072170Y-102674035D01*
X146286337Y-102773903D01*
X146514592Y-102835063D01*
X146691034Y-102850500D01*
X146749999Y-102855659D01*
X146750000Y-102855659D01*
X146750001Y-102855659D01*
X146808966Y-102850500D01*
X146985408Y-102835063D01*
X147213663Y-102773903D01*
X147427830Y-102674035D01*
X147621401Y-102538495D01*
X147788495Y-102371401D01*
X147918425Y-102185842D01*
X147973002Y-102142217D01*
X148042500Y-102135023D01*
X148104855Y-102166546D01*
X148121575Y-102185842D01*
X148251500Y-102371395D01*
X148251505Y-102371401D01*
X148418599Y-102538495D01*
X148506437Y-102600000D01*
X148612165Y-102674032D01*
X148612167Y-102674033D01*
X148612170Y-102674035D01*
X148826337Y-102773903D01*
X149054592Y-102835063D01*
X149231034Y-102850500D01*
X149289999Y-102855659D01*
X149290000Y-102855659D01*
X149290001Y-102855659D01*
X149348966Y-102850500D01*
X149525408Y-102835063D01*
X149753663Y-102773903D01*
X149967830Y-102674035D01*
X150161401Y-102538495D01*
X150328495Y-102371401D01*
X150458425Y-102185842D01*
X150513002Y-102142217D01*
X150582500Y-102135023D01*
X150644855Y-102166546D01*
X150661575Y-102185842D01*
X150791500Y-102371395D01*
X150791505Y-102371401D01*
X150958599Y-102538495D01*
X151046437Y-102600000D01*
X151152165Y-102674032D01*
X151152167Y-102674033D01*
X151152170Y-102674035D01*
X151366337Y-102773903D01*
X151594592Y-102835063D01*
X151771034Y-102850500D01*
X151829999Y-102855659D01*
X151830000Y-102855659D01*
X151830001Y-102855659D01*
X151888966Y-102850500D01*
X152065408Y-102835063D01*
X152293663Y-102773903D01*
X152507830Y-102674035D01*
X152701401Y-102538495D01*
X152868495Y-102371401D01*
X152998730Y-102185405D01*
X153053307Y-102141781D01*
X153122805Y-102134587D01*
X153185160Y-102166110D01*
X153201879Y-102185405D01*
X153331890Y-102371078D01*
X153498917Y-102538105D01*
X153692421Y-102673600D01*
X153906507Y-102773429D01*
X153906516Y-102773433D01*
X154120000Y-102830634D01*
X154120000Y-101933012D01*
X154177007Y-101965925D01*
X154304174Y-102000000D01*
X154435826Y-102000000D01*
X154562993Y-101965925D01*
X154620000Y-101933012D01*
X154620000Y-102830633D01*
X154833483Y-102773433D01*
X154833492Y-102773429D01*
X155047578Y-102673600D01*
X155241078Y-102538108D01*
X155363133Y-102416053D01*
X155424456Y-102382568D01*
X155494148Y-102387552D01*
X155550082Y-102429423D01*
X155566997Y-102460401D01*
X155616202Y-102592328D01*
X155616206Y-102592335D01*
X155702452Y-102707544D01*
X155702455Y-102707547D01*
X155817664Y-102793793D01*
X155817671Y-102793797D01*
X155952517Y-102844091D01*
X155952516Y-102844091D01*
X155959444Y-102844835D01*
X156012127Y-102850500D01*
X157807872Y-102850499D01*
X157867483Y-102844091D01*
X158002331Y-102793796D01*
X158117546Y-102707546D01*
X158203796Y-102592331D01*
X158254091Y-102457483D01*
X158260500Y-102397873D01*
X158260499Y-100602128D01*
X158254091Y-100542517D01*
X158253002Y-100539598D01*
X158203797Y-100407671D01*
X158203793Y-100407664D01*
X158117547Y-100292455D01*
X158117544Y-100292452D01*
X158002335Y-100206206D01*
X158002328Y-100206202D01*
X157867482Y-100155908D01*
X157867483Y-100155908D01*
X157807883Y-100149501D01*
X157807881Y-100149500D01*
X157807873Y-100149500D01*
X157807864Y-100149500D01*
X156012129Y-100149500D01*
X156012123Y-100149501D01*
X155952516Y-100155908D01*
X155817671Y-100206202D01*
X155817664Y-100206206D01*
X155702455Y-100292452D01*
X155702452Y-100292455D01*
X155616206Y-100407664D01*
X155616202Y-100407671D01*
X155566997Y-100539598D01*
X155525126Y-100595532D01*
X155459661Y-100619949D01*
X155391388Y-100605097D01*
X155363134Y-100583946D01*
X155241082Y-100461894D01*
X155047578Y-100326399D01*
X154833492Y-100226570D01*
X154833486Y-100226567D01*
X154620000Y-100169364D01*
X154620000Y-101066988D01*
X154562993Y-101034075D01*
X154435826Y-101000000D01*
X154304174Y-101000000D01*
X154177007Y-101034075D01*
X154120000Y-101066988D01*
X154120000Y-100169364D01*
X154119999Y-100169364D01*
X153906513Y-100226567D01*
X153906507Y-100226570D01*
X153692422Y-100326399D01*
X153692420Y-100326400D01*
X153498926Y-100461886D01*
X153498920Y-100461891D01*
X153331891Y-100628920D01*
X153331890Y-100628922D01*
X153201880Y-100814595D01*
X153147303Y-100858219D01*
X153077804Y-100865412D01*
X153015450Y-100833890D01*
X152998730Y-100814594D01*
X152868494Y-100628597D01*
X152701402Y-100461506D01*
X152701395Y-100461501D01*
X152507834Y-100325967D01*
X152507830Y-100325965D01*
X152507828Y-100325964D01*
X152293663Y-100226097D01*
X152293659Y-100226096D01*
X152293655Y-100226094D01*
X152065413Y-100164938D01*
X152065403Y-100164936D01*
X151830001Y-100144341D01*
X151829999Y-100144341D01*
X151594596Y-100164936D01*
X151594586Y-100164938D01*
X151366344Y-100226094D01*
X151366337Y-100226096D01*
X151366337Y-100226097D01*
X151353732Y-100231975D01*
X151152171Y-100325964D01*
X151152169Y-100325965D01*
X150958597Y-100461505D01*
X150791505Y-100628597D01*
X150661575Y-100814158D01*
X150606998Y-100857783D01*
X150537500Y-100864977D01*
X150475145Y-100833454D01*
X150458425Y-100814158D01*
X150328494Y-100628597D01*
X150161402Y-100461506D01*
X150161395Y-100461501D01*
X149967834Y-100325967D01*
X149967830Y-100325965D01*
X149967828Y-100325964D01*
X149753663Y-100226097D01*
X149753659Y-100226096D01*
X149753655Y-100226094D01*
X149525413Y-100164938D01*
X149525403Y-100164936D01*
X149290001Y-100144341D01*
X149289999Y-100144341D01*
X149054596Y-100164936D01*
X149054586Y-100164938D01*
X148826344Y-100226094D01*
X148826337Y-100226096D01*
X148826337Y-100226097D01*
X148813732Y-100231975D01*
X148612171Y-100325964D01*
X148612169Y-100325965D01*
X148418597Y-100461505D01*
X148251505Y-100628597D01*
X148121575Y-100814158D01*
X148066998Y-100857783D01*
X147997500Y-100864977D01*
X147935145Y-100833454D01*
X147918425Y-100814158D01*
X147788494Y-100628597D01*
X147621402Y-100461506D01*
X147621395Y-100461501D01*
X147427834Y-100325967D01*
X147427830Y-100325965D01*
X147427828Y-100325964D01*
X147213663Y-100226097D01*
X147213659Y-100226096D01*
X147213655Y-100226094D01*
X146985413Y-100164938D01*
X146985403Y-100164936D01*
X146750001Y-100144341D01*
X146749999Y-100144341D01*
X146514596Y-100164936D01*
X146514586Y-100164938D01*
X146286344Y-100226094D01*
X146286337Y-100226096D01*
X146286337Y-100226097D01*
X146273732Y-100231975D01*
X146072171Y-100325964D01*
X146072169Y-100325965D01*
X145878597Y-100461505D01*
X145711505Y-100628597D01*
X145581575Y-100814158D01*
X145526998Y-100857783D01*
X145457500Y-100864977D01*
X145395145Y-100833454D01*
X145378425Y-100814158D01*
X145248494Y-100628597D01*
X145081402Y-100461506D01*
X145081395Y-100461501D01*
X144887834Y-100325967D01*
X144887830Y-100325965D01*
X144887828Y-100325964D01*
X144673663Y-100226097D01*
X144673659Y-100226096D01*
X144673655Y-100226094D01*
X144445413Y-100164938D01*
X144445403Y-100164936D01*
X144210001Y-100144341D01*
X144209998Y-100144341D01*
X143996986Y-100162977D01*
X143928486Y-100149210D01*
X143898498Y-100127130D01*
X142938413Y-99167045D01*
X142889179Y-99134150D01*
X142856355Y-99112218D01*
X142815495Y-99084916D01*
X142815494Y-99084915D01*
X142815492Y-99084914D01*
X142815490Y-99084913D01*
X142678917Y-99028343D01*
X142678907Y-99028340D01*
X142533920Y-98999500D01*
X142533918Y-98999500D01*
X140374500Y-98999500D01*
X140307461Y-98979815D01*
X140261706Y-98927011D01*
X140250500Y-98875500D01*
X140250500Y-89611229D01*
X140270185Y-89544190D01*
X140322989Y-89498435D01*
X140392147Y-89488491D01*
X140455703Y-89517516D01*
X140462167Y-89523534D01*
X140498358Y-89559725D01*
X140521585Y-89582952D01*
X140644498Y-89665080D01*
X140644511Y-89665087D01*
X140732433Y-89701505D01*
X140781087Y-89721658D01*
X140781091Y-89721658D01*
X140781092Y-89721659D01*
X140926079Y-89750500D01*
X140926082Y-89750500D01*
X143022299Y-89750500D01*
X143089338Y-89770185D01*
X143123873Y-89803376D01*
X143169543Y-89868599D01*
X143171505Y-89871401D01*
X143338599Y-90038495D01*
X143435384Y-90106265D01*
X143532165Y-90174032D01*
X143532167Y-90174033D01*
X143532170Y-90174035D01*
X143746337Y-90273903D01*
X143746343Y-90273904D01*
X143746344Y-90273905D01*
X143801285Y-90288626D01*
X143974592Y-90335063D01*
X144151034Y-90350500D01*
X144209999Y-90355659D01*
X144210000Y-90355659D01*
X144210001Y-90355659D01*
X144268966Y-90350500D01*
X144445408Y-90335063D01*
X144673663Y-90273903D01*
X144887830Y-90174035D01*
X145081401Y-90038495D01*
X145248495Y-89871401D01*
X145378425Y-89685842D01*
X145433002Y-89642217D01*
X145502500Y-89635023D01*
X145564855Y-89666546D01*
X145581575Y-89685842D01*
X145711278Y-89871078D01*
X145711505Y-89871401D01*
X145878599Y-90038495D01*
X145975384Y-90106265D01*
X146072165Y-90174032D01*
X146072167Y-90174033D01*
X146072170Y-90174035D01*
X146286337Y-90273903D01*
X146286343Y-90273904D01*
X146286344Y-90273905D01*
X146341285Y-90288626D01*
X146514592Y-90335063D01*
X146691034Y-90350500D01*
X146749999Y-90355659D01*
X146750000Y-90355659D01*
X146750001Y-90355659D01*
X146808966Y-90350500D01*
X146985408Y-90335063D01*
X147213663Y-90273903D01*
X147427830Y-90174035D01*
X147621401Y-90038495D01*
X147788495Y-89871401D01*
X147918425Y-89685842D01*
X147973002Y-89642217D01*
X148042500Y-89635023D01*
X148104855Y-89666546D01*
X148121575Y-89685842D01*
X148251278Y-89871078D01*
X148251505Y-89871401D01*
X148418599Y-90038495D01*
X148515384Y-90106265D01*
X148612165Y-90174032D01*
X148612167Y-90174033D01*
X148612170Y-90174035D01*
X148826337Y-90273903D01*
X148826343Y-90273904D01*
X148826344Y-90273905D01*
X148881285Y-90288626D01*
X149054592Y-90335063D01*
X149231034Y-90350500D01*
X149289999Y-90355659D01*
X149290000Y-90355659D01*
X149290001Y-90355659D01*
X149348966Y-90350500D01*
X149525408Y-90335063D01*
X149753663Y-90273903D01*
X149967830Y-90174035D01*
X150161401Y-90038495D01*
X150328495Y-89871401D01*
X150458425Y-89685842D01*
X150513002Y-89642217D01*
X150582500Y-89635023D01*
X150644855Y-89666546D01*
X150661575Y-89685842D01*
X150791501Y-89871396D01*
X150791506Y-89871402D01*
X150958595Y-90038492D01*
X150958598Y-90038494D01*
X150958599Y-90038495D01*
X151026623Y-90086125D01*
X151070248Y-90140701D01*
X151079500Y-90187700D01*
X151079500Y-93903919D01*
X151108340Y-94048907D01*
X151108343Y-94048917D01*
X151164912Y-94185488D01*
X151164916Y-94185495D01*
X151184356Y-94214589D01*
X151184357Y-94214592D01*
X151247046Y-94308414D01*
X151247052Y-94308421D01*
X152236584Y-95297952D01*
X152236586Y-95297954D01*
X152259980Y-95313584D01*
X152271679Y-95321401D01*
X152359505Y-95380084D01*
X152496087Y-95436658D01*
X152496091Y-95436658D01*
X152496092Y-95436659D01*
X152641079Y-95465500D01*
X152641082Y-95465500D01*
X152641083Y-95465500D01*
X152788917Y-95465500D01*
X161880640Y-95465500D01*
X161947679Y-95485185D01*
X161979593Y-95514772D01*
X161991050Y-95529944D01*
X162094261Y-95624032D01*
X162156017Y-95680330D01*
X162156024Y-95680334D01*
X162156025Y-95680335D01*
X162345804Y-95797841D01*
X162345805Y-95797841D01*
X162345808Y-95797843D01*
X162530452Y-95869374D01*
X162585851Y-95911946D01*
X162609442Y-95977713D01*
X162593731Y-96045793D01*
X162543707Y-96094572D01*
X162530461Y-96100621D01*
X162387216Y-96156115D01*
X162345810Y-96172156D01*
X162345804Y-96172158D01*
X162156025Y-96289664D01*
X162156015Y-96289671D01*
X161991051Y-96440055D01*
X161856526Y-96618195D01*
X161757026Y-96818018D01*
X161757023Y-96818024D01*
X161695937Y-97032723D01*
X161695936Y-97032726D01*
X161675340Y-97254999D01*
X161675340Y-97255000D01*
X161695936Y-97477273D01*
X161695937Y-97477276D01*
X161757023Y-97691975D01*
X161757026Y-97691980D01*
X161856526Y-97891804D01*
X161991050Y-98069943D01*
X162156017Y-98220330D01*
X162156024Y-98220334D01*
X162156025Y-98220335D01*
X162345804Y-98337841D01*
X162345805Y-98337841D01*
X162345808Y-98337843D01*
X162530452Y-98409374D01*
X162585851Y-98451946D01*
X162609442Y-98517713D01*
X162593731Y-98585793D01*
X162543707Y-98634572D01*
X162530461Y-98640621D01*
X162406618Y-98688599D01*
X162345810Y-98712156D01*
X162345804Y-98712158D01*
X162156025Y-98829664D01*
X162156015Y-98829671D01*
X161991051Y-98980055D01*
X161856526Y-99158195D01*
X161757026Y-99358018D01*
X161757023Y-99358024D01*
X161695937Y-99572723D01*
X161695936Y-99572726D01*
X161675340Y-99794999D01*
X161675340Y-99795000D01*
X161695936Y-100017273D01*
X161695937Y-100017276D01*
X161757023Y-100231975D01*
X161757026Y-100231981D01*
X161804041Y-100326399D01*
X161856526Y-100431804D01*
X161987390Y-100605097D01*
X161991051Y-100609944D01*
X162011515Y-100628599D01*
X162156017Y-100760330D01*
X162156024Y-100760334D01*
X162156025Y-100760335D01*
X162345804Y-100877841D01*
X162345805Y-100877841D01*
X162345808Y-100877843D01*
X162530452Y-100949374D01*
X162585851Y-100991946D01*
X162609442Y-101057713D01*
X162593731Y-101125793D01*
X162543707Y-101174572D01*
X162530461Y-101180621D01*
X162405790Y-101228920D01*
X162345810Y-101252156D01*
X162345804Y-101252158D01*
X162156025Y-101369664D01*
X162156015Y-101369671D01*
X161991051Y-101520055D01*
X161856526Y-101698195D01*
X161757026Y-101898018D01*
X161757023Y-101898024D01*
X161695937Y-102112723D01*
X161695936Y-102112726D01*
X161675340Y-102334999D01*
X161675340Y-102335000D01*
X161695936Y-102557273D01*
X161695937Y-102557276D01*
X161757023Y-102771975D01*
X161757026Y-102771981D01*
X161824498Y-102907483D01*
X161856526Y-102971804D01*
X161991050Y-103149943D01*
X162156017Y-103300330D01*
X162156024Y-103300334D01*
X162156025Y-103300335D01*
X162345804Y-103417841D01*
X162345805Y-103417841D01*
X162345808Y-103417843D01*
X162530452Y-103489374D01*
X162585851Y-103531946D01*
X162609442Y-103597713D01*
X162593731Y-103665793D01*
X162543707Y-103714572D01*
X162530461Y-103720621D01*
X162406618Y-103768599D01*
X162345810Y-103792156D01*
X162345804Y-103792158D01*
X162156025Y-103909664D01*
X162156015Y-103909671D01*
X161991051Y-104060055D01*
X161856526Y-104238195D01*
X161757026Y-104438018D01*
X161757023Y-104438024D01*
X161695937Y-104652723D01*
X161695936Y-104652726D01*
X161675340Y-104874999D01*
X161675340Y-104875000D01*
X161695936Y-105097273D01*
X161695937Y-105097276D01*
X161757023Y-105311975D01*
X161757026Y-105311981D01*
X161781635Y-105361402D01*
X161856526Y-105511804D01*
X161991050Y-105689943D01*
X162156017Y-105840330D01*
X162156024Y-105840334D01*
X162156025Y-105840335D01*
X162345804Y-105957841D01*
X162345805Y-105957841D01*
X162345808Y-105957843D01*
X162530452Y-106029374D01*
X162585851Y-106071946D01*
X162609442Y-106137713D01*
X162593731Y-106205793D01*
X162543707Y-106254572D01*
X162530461Y-106260621D01*
X162405790Y-106308920D01*
X162345810Y-106332156D01*
X162345804Y-106332158D01*
X162156025Y-106449664D01*
X162156015Y-106449671D01*
X161991051Y-106600055D01*
X161856526Y-106778195D01*
X161757026Y-106978018D01*
X161757023Y-106978024D01*
X161695937Y-107192723D01*
X161695936Y-107192726D01*
X161675340Y-107414999D01*
X161675340Y-107415000D01*
X161695936Y-107637273D01*
X161695937Y-107637276D01*
X161757023Y-107851975D01*
X161757026Y-107851981D01*
X161781635Y-107901402D01*
X161856526Y-108051804D01*
X161991050Y-108229943D01*
X162156017Y-108380330D01*
X162156024Y-108380334D01*
X162156025Y-108380335D01*
X162345804Y-108497841D01*
X162345805Y-108497841D01*
X162345808Y-108497843D01*
X162530452Y-108569374D01*
X162585851Y-108611946D01*
X162609442Y-108677713D01*
X162593731Y-108745793D01*
X162543707Y-108794572D01*
X162530461Y-108800621D01*
X162406618Y-108848599D01*
X162345810Y-108872156D01*
X162345804Y-108872158D01*
X162156025Y-108989664D01*
X162156015Y-108989671D01*
X161991051Y-109140055D01*
X161856526Y-109318195D01*
X161757026Y-109518018D01*
X161757023Y-109518024D01*
X161695937Y-109732723D01*
X161695936Y-109732726D01*
X161675340Y-109954999D01*
X161675340Y-109955000D01*
X161695936Y-110177273D01*
X161695937Y-110177276D01*
X161757023Y-110391975D01*
X161757026Y-110391981D01*
X161781635Y-110441402D01*
X161856526Y-110591804D01*
X161991050Y-110769943D01*
X162156017Y-110920330D01*
X162156024Y-110920334D01*
X162156025Y-110920335D01*
X162345804Y-111037841D01*
X162345805Y-111037841D01*
X162345808Y-111037843D01*
X162530452Y-111109374D01*
X162585851Y-111151946D01*
X162609442Y-111217713D01*
X162593731Y-111285793D01*
X162543707Y-111334572D01*
X162530461Y-111340621D01*
X162405790Y-111388920D01*
X162345810Y-111412156D01*
X162345804Y-111412158D01*
X162156025Y-111529664D01*
X162156015Y-111529671D01*
X161991051Y-111680055D01*
X161856526Y-111858195D01*
X161757026Y-112058018D01*
X161757023Y-112058024D01*
X161695937Y-112272723D01*
X161695936Y-112272726D01*
X161675340Y-112494999D01*
X161675340Y-112495000D01*
X161695936Y-112717273D01*
X161695937Y-112717276D01*
X161757023Y-112931975D01*
X161757026Y-112931981D01*
X161850623Y-113119949D01*
X161856526Y-113131804D01*
X161982110Y-113298105D01*
X161991051Y-113309944D01*
X162016840Y-113333454D01*
X162156017Y-113460330D01*
X162156024Y-113460334D01*
X162156025Y-113460335D01*
X162345804Y-113577841D01*
X162345805Y-113577841D01*
X162345808Y-113577843D01*
X162530452Y-113649374D01*
X162585851Y-113691946D01*
X162609442Y-113757713D01*
X162593731Y-113825793D01*
X162543707Y-113874572D01*
X162530461Y-113880621D01*
X162405790Y-113928920D01*
X162345810Y-113952156D01*
X162345804Y-113952158D01*
X162156025Y-114069664D01*
X162156015Y-114069671D01*
X161991051Y-114220055D01*
X161856526Y-114398195D01*
X161757026Y-114598018D01*
X161757023Y-114598024D01*
X161695937Y-114812723D01*
X161695936Y-114812726D01*
X161675340Y-115034999D01*
X161675340Y-115035000D01*
X161695936Y-115257273D01*
X161695937Y-115257276D01*
X161757023Y-115471975D01*
X161757026Y-115471981D01*
X161828906Y-115616335D01*
X161856526Y-115671804D01*
X161991050Y-115849943D01*
X162156017Y-116000330D01*
X162156024Y-116000334D01*
X162156025Y-116000335D01*
X162345804Y-116117841D01*
X162345805Y-116117841D01*
X162345808Y-116117843D01*
X162530452Y-116189374D01*
X162585851Y-116231946D01*
X162609442Y-116297713D01*
X162593731Y-116365793D01*
X162543707Y-116414572D01*
X162530461Y-116420621D01*
X162406618Y-116468599D01*
X162345810Y-116492156D01*
X162345804Y-116492158D01*
X162156025Y-116609664D01*
X162156015Y-116609671D01*
X161991051Y-116760055D01*
X161856526Y-116938195D01*
X161757026Y-117138018D01*
X161757023Y-117138024D01*
X161695937Y-117352723D01*
X161695936Y-117352726D01*
X161675340Y-117574999D01*
X161675340Y-117575000D01*
X161695936Y-117797273D01*
X161695937Y-117797276D01*
X161757023Y-118011975D01*
X161757026Y-118011981D01*
X161805500Y-118109330D01*
X161856526Y-118211804D01*
X161991050Y-118389943D01*
X162156017Y-118540330D01*
X162156024Y-118540334D01*
X162156025Y-118540335D01*
X162345804Y-118657841D01*
X162345805Y-118657841D01*
X162345808Y-118657843D01*
X162530452Y-118729374D01*
X162585851Y-118771946D01*
X162609442Y-118837713D01*
X162593731Y-118905793D01*
X162543707Y-118954572D01*
X162530461Y-118960621D01*
X162408603Y-119007830D01*
X162345810Y-119032156D01*
X162345804Y-119032158D01*
X162156025Y-119149664D01*
X162156015Y-119149671D01*
X161991051Y-119300055D01*
X161856526Y-119478195D01*
X161757026Y-119678018D01*
X161757023Y-119678024D01*
X161695937Y-119892723D01*
X161695936Y-119892726D01*
X161675340Y-120114999D01*
X161675340Y-120115000D01*
X161695936Y-120337273D01*
X161695937Y-120337276D01*
X161757023Y-120551975D01*
X161757026Y-120551981D01*
X161800422Y-120639132D01*
X161856526Y-120751804D01*
X161991050Y-120929943D01*
X162156017Y-121080330D01*
X162156024Y-121080334D01*
X162156025Y-121080335D01*
X162345804Y-121197841D01*
X162345805Y-121197841D01*
X162345808Y-121197843D01*
X162530452Y-121269374D01*
X162585851Y-121311946D01*
X162609442Y-121377713D01*
X162593731Y-121445793D01*
X162543707Y-121494572D01*
X162530461Y-121500621D01*
X162406618Y-121548599D01*
X162345810Y-121572156D01*
X162345804Y-121572158D01*
X162156025Y-121689664D01*
X162156015Y-121689671D01*
X161991051Y-121840055D01*
X161856526Y-122018195D01*
X161757026Y-122218018D01*
X161757023Y-122218024D01*
X161695937Y-122432723D01*
X161695936Y-122432726D01*
X161675340Y-122654999D01*
X161675340Y-122655000D01*
X161695936Y-122877273D01*
X161695937Y-122877276D01*
X161757023Y-123091975D01*
X161757026Y-123091981D01*
X161771676Y-123121402D01*
X161856526Y-123291804D01*
X161991050Y-123469943D01*
X162156017Y-123620330D01*
X162156024Y-123620334D01*
X162156025Y-123620335D01*
X162345804Y-123737841D01*
X162345805Y-123737841D01*
X162345808Y-123737843D01*
X162530452Y-123809374D01*
X162585851Y-123851946D01*
X162609442Y-123917713D01*
X162593731Y-123985793D01*
X162543707Y-124034572D01*
X162530461Y-124040621D01*
X162405790Y-124088920D01*
X162345810Y-124112156D01*
X162345804Y-124112158D01*
X162156025Y-124229664D01*
X162156015Y-124229671D01*
X161991051Y-124380055D01*
X161856526Y-124558195D01*
X161757026Y-124758018D01*
X161757023Y-124758024D01*
X161695937Y-124972723D01*
X161695936Y-124972726D01*
X161675340Y-125194999D01*
X161675340Y-125195000D01*
X161695936Y-125417273D01*
X161695937Y-125417276D01*
X161757023Y-125631975D01*
X161757026Y-125631981D01*
X161847739Y-125814158D01*
X161856526Y-125831804D01*
X161991050Y-126009943D01*
X162156017Y-126160330D01*
X162156024Y-126160334D01*
X162156025Y-126160335D01*
X162345804Y-126277841D01*
X162345805Y-126277841D01*
X162345808Y-126277843D01*
X162530452Y-126349374D01*
X162585851Y-126391946D01*
X162609442Y-126457713D01*
X162593731Y-126525793D01*
X162543707Y-126574572D01*
X162530461Y-126580621D01*
X162387216Y-126636115D01*
X162345810Y-126652156D01*
X162345804Y-126652158D01*
X162156025Y-126769664D01*
X162156015Y-126769671D01*
X161991051Y-126920055D01*
X161856526Y-127098195D01*
X161757026Y-127298018D01*
X161757023Y-127298024D01*
X161695937Y-127512723D01*
X161695936Y-127512726D01*
X161675340Y-127734999D01*
X161675340Y-127735000D01*
X161695936Y-127957273D01*
X161695937Y-127957276D01*
X161757023Y-128171975D01*
X161757026Y-128171981D01*
X161856526Y-128371804D01*
X161979593Y-128534772D01*
X161991051Y-128549944D01*
X162037552Y-128592335D01*
X162156017Y-128700330D01*
X162156024Y-128700334D01*
X162156025Y-128700335D01*
X162345804Y-128817841D01*
X162345805Y-128817841D01*
X162345808Y-128817843D01*
X162553961Y-128898482D01*
X162773387Y-128939500D01*
X162773389Y-128939500D01*
X162996611Y-128939500D01*
X162996613Y-128939500D01*
X163216039Y-128898482D01*
X163424192Y-128817843D01*
X163613983Y-128700330D01*
X163778950Y-128549943D01*
X163913474Y-128371804D01*
X164012974Y-128171980D01*
X164012974Y-128171977D01*
X164012976Y-128171975D01*
X164074062Y-127957276D01*
X164074063Y-127957273D01*
X164094660Y-127735000D01*
X164094660Y-127734999D01*
X164074063Y-127512726D01*
X164074062Y-127512723D01*
X164012976Y-127298024D01*
X164012973Y-127298018D01*
X163956899Y-127185406D01*
X163913474Y-127098196D01*
X163778950Y-126920057D01*
X163613983Y-126769670D01*
X163613979Y-126769667D01*
X163613974Y-126769664D01*
X163424195Y-126652158D01*
X163424186Y-126652154D01*
X163338430Y-126618932D01*
X163239547Y-126580625D01*
X163184148Y-126538054D01*
X163160557Y-126472288D01*
X163176268Y-126404207D01*
X163226292Y-126355428D01*
X163239538Y-126349378D01*
X163424192Y-126277843D01*
X163613983Y-126160330D01*
X163778950Y-126009943D01*
X163913474Y-125831804D01*
X164012974Y-125631980D01*
X164012974Y-125631977D01*
X164012976Y-125631975D01*
X164047954Y-125509036D01*
X164074063Y-125417274D01*
X164094660Y-125195000D01*
X164092284Y-125169364D01*
X164074063Y-124972726D01*
X164074062Y-124972723D01*
X164012976Y-124758024D01*
X164012973Y-124758018D01*
X163989063Y-124710000D01*
X163913474Y-124558196D01*
X163778950Y-124380057D01*
X163613983Y-124229670D01*
X163613979Y-124229667D01*
X163613974Y-124229664D01*
X163424195Y-124112158D01*
X163424186Y-124112154D01*
X163338430Y-124078932D01*
X163239547Y-124040625D01*
X163184148Y-123998054D01*
X163160557Y-123932288D01*
X163176268Y-123864207D01*
X163226292Y-123815428D01*
X163239538Y-123809378D01*
X163424192Y-123737843D01*
X163613983Y-123620330D01*
X163778950Y-123469943D01*
X163913474Y-123291804D01*
X164012974Y-123091980D01*
X164012974Y-123091977D01*
X164012976Y-123091975D01*
X164059677Y-122927834D01*
X164074063Y-122877274D01*
X164094660Y-122655000D01*
X164074063Y-122432726D01*
X164065191Y-122401544D01*
X164012976Y-122218024D01*
X164012973Y-122218018D01*
X163926340Y-122044035D01*
X163913474Y-122018196D01*
X163778950Y-121840057D01*
X163613983Y-121689670D01*
X163613979Y-121689667D01*
X163613974Y-121689664D01*
X163424195Y-121572158D01*
X163424186Y-121572154D01*
X163338430Y-121538932D01*
X163239547Y-121500625D01*
X163184148Y-121458054D01*
X163160557Y-121392288D01*
X163176268Y-121324207D01*
X163226292Y-121275428D01*
X163239538Y-121269378D01*
X163424192Y-121197843D01*
X163613983Y-121080330D01*
X163778950Y-120929943D01*
X163913474Y-120751804D01*
X163964500Y-120649330D01*
X164012002Y-120598093D01*
X164079665Y-120580671D01*
X164146006Y-120602596D01*
X164189961Y-120656907D01*
X164199500Y-120704601D01*
X164199500Y-121023918D01*
X164199500Y-121023920D01*
X164199499Y-121023920D01*
X164228340Y-121168907D01*
X164228343Y-121168917D01*
X164284913Y-121305490D01*
X164284915Y-121305493D01*
X164294274Y-121319501D01*
X164367049Y-121428418D01*
X164367052Y-121428421D01*
X164877130Y-121938497D01*
X164910615Y-121999820D01*
X164912977Y-122036985D01*
X164894341Y-122249997D01*
X164894341Y-122250000D01*
X164914936Y-122485403D01*
X164914938Y-122485413D01*
X164976094Y-122713655D01*
X164976096Y-122713659D01*
X164976097Y-122713663D01*
X165052390Y-122877273D01*
X165075965Y-122927830D01*
X165075967Y-122927834D01*
X165184281Y-123082521D01*
X165211501Y-123121396D01*
X165211506Y-123121402D01*
X165333818Y-123243714D01*
X165367303Y-123305037D01*
X165362319Y-123374729D01*
X165320447Y-123430662D01*
X165289471Y-123447577D01*
X165157912Y-123496646D01*
X165157906Y-123496649D01*
X165042812Y-123582809D01*
X165042809Y-123582812D01*
X164956649Y-123697906D01*
X164956645Y-123697913D01*
X164906403Y-123832620D01*
X164906401Y-123832627D01*
X164900000Y-123892155D01*
X164900000Y-124540000D01*
X165816988Y-124540000D01*
X165784075Y-124597007D01*
X165750000Y-124724174D01*
X165750000Y-124855826D01*
X165784075Y-124982993D01*
X165816988Y-125040000D01*
X164900000Y-125040000D01*
X164900000Y-125687844D01*
X164906401Y-125747372D01*
X164906403Y-125747379D01*
X164956645Y-125882086D01*
X164956649Y-125882093D01*
X165042809Y-125997187D01*
X165042812Y-125997190D01*
X165157906Y-126083350D01*
X165157913Y-126083354D01*
X165292620Y-126133596D01*
X165292627Y-126133598D01*
X165352155Y-126139999D01*
X165352172Y-126140000D01*
X166000000Y-126140000D01*
X166000000Y-125223012D01*
X166057007Y-125255925D01*
X166184174Y-125290000D01*
X166315826Y-125290000D01*
X166442993Y-125255925D01*
X166500000Y-125223012D01*
X166500000Y-126140000D01*
X167147828Y-126140000D01*
X167147844Y-126139999D01*
X167207372Y-126133598D01*
X167207379Y-126133596D01*
X167342086Y-126083354D01*
X167342093Y-126083350D01*
X167457187Y-125997190D01*
X167457190Y-125997187D01*
X167543350Y-125882093D01*
X167543354Y-125882086D01*
X167593596Y-125747379D01*
X167593598Y-125747372D01*
X167599999Y-125687844D01*
X167600000Y-125687827D01*
X167600000Y-125040000D01*
X166683012Y-125040000D01*
X166715925Y-124982993D01*
X166750000Y-124855826D01*
X166750000Y-124724174D01*
X166715925Y-124597007D01*
X166683012Y-124540000D01*
X167600000Y-124540000D01*
X167600000Y-123892172D01*
X167599999Y-123892155D01*
X167593598Y-123832627D01*
X167593596Y-123832620D01*
X167543354Y-123697913D01*
X167543350Y-123697906D01*
X167457190Y-123582812D01*
X167457187Y-123582809D01*
X167342093Y-123496649D01*
X167342088Y-123496646D01*
X167210528Y-123447577D01*
X167154595Y-123405705D01*
X167130178Y-123340241D01*
X167145030Y-123271968D01*
X167166175Y-123243720D01*
X167288495Y-123121401D01*
X167424035Y-122927830D01*
X167523903Y-122713663D01*
X167585063Y-122485408D01*
X167605659Y-122250000D01*
X167585063Y-122014592D01*
X167523903Y-121786337D01*
X167424035Y-121572171D01*
X167424026Y-121572157D01*
X167288494Y-121378597D01*
X167121402Y-121211506D01*
X167121395Y-121211501D01*
X167101892Y-121197845D01*
X167060579Y-121168917D01*
X166927834Y-121075967D01*
X166927830Y-121075965D01*
X166816215Y-121023918D01*
X166713663Y-120976097D01*
X166713659Y-120976096D01*
X166713655Y-120976094D01*
X166485413Y-120914938D01*
X166485403Y-120914936D01*
X166250001Y-120894341D01*
X166249998Y-120894341D01*
X166036985Y-120912977D01*
X165968485Y-120899210D01*
X165938497Y-120877130D01*
X165736819Y-120675451D01*
X165703334Y-120614128D01*
X165700500Y-120587770D01*
X165700500Y-120094499D01*
X165720185Y-120027460D01*
X165772989Y-119981705D01*
X165824500Y-119970499D01*
X167147871Y-119970499D01*
X167147872Y-119970499D01*
X167207483Y-119964091D01*
X167342331Y-119913796D01*
X167457546Y-119827546D01*
X167543796Y-119712331D01*
X167594091Y-119577483D01*
X167600500Y-119517873D01*
X167600499Y-117722128D01*
X167594091Y-117662517D01*
X167590232Y-117652171D01*
X167543797Y-117527671D01*
X167543793Y-117527664D01*
X167457547Y-117412455D01*
X167457544Y-117412452D01*
X167342335Y-117326206D01*
X167342328Y-117326202D01*
X167210917Y-117277189D01*
X167154983Y-117235318D01*
X167130566Y-117169853D01*
X167145418Y-117101580D01*
X167166563Y-117073332D01*
X167288495Y-116951401D01*
X167424035Y-116757830D01*
X167523903Y-116543663D01*
X167585063Y-116315408D01*
X167605659Y-116080000D01*
X167585063Y-115844592D01*
X167523903Y-115616337D01*
X167424035Y-115402171D01*
X167387854Y-115350498D01*
X167288494Y-115208597D01*
X167121402Y-115041506D01*
X167121396Y-115041501D01*
X166935842Y-114911575D01*
X166892217Y-114856998D01*
X166885023Y-114787500D01*
X166916546Y-114725145D01*
X166935842Y-114708425D01*
X166996918Y-114665659D01*
X167121401Y-114578495D01*
X167288495Y-114411401D01*
X167424035Y-114217830D01*
X167523903Y-114003663D01*
X167585063Y-113775408D01*
X167605659Y-113540000D01*
X167585063Y-113304592D01*
X167523903Y-113076337D01*
X167424035Y-112862171D01*
X167398988Y-112826399D01*
X167288494Y-112668597D01*
X167121402Y-112501506D01*
X167121396Y-112501501D01*
X166935842Y-112371575D01*
X166892217Y-112316998D01*
X166885023Y-112247500D01*
X166916546Y-112185145D01*
X166935842Y-112168425D01*
X166958026Y-112152891D01*
X167121401Y-112038495D01*
X167288495Y-111871401D01*
X167424035Y-111677830D01*
X167523903Y-111463663D01*
X167585063Y-111235408D01*
X167605659Y-111000000D01*
X167585063Y-110764592D01*
X167523903Y-110536337D01*
X167424035Y-110322171D01*
X167327046Y-110183655D01*
X167288494Y-110128597D01*
X167121402Y-109961506D01*
X167121395Y-109961501D01*
X167112693Y-109955408D01*
X167082521Y-109934281D01*
X166927834Y-109825967D01*
X166927830Y-109825965D01*
X166883735Y-109805403D01*
X166713663Y-109726097D01*
X166713659Y-109726096D01*
X166713655Y-109726094D01*
X166485413Y-109664938D01*
X166485403Y-109664936D01*
X166250001Y-109644341D01*
X166249999Y-109644341D01*
X166014596Y-109664936D01*
X166014586Y-109664938D01*
X165786344Y-109726094D01*
X165786335Y-109726098D01*
X165572171Y-109825964D01*
X165572169Y-109825965D01*
X165378597Y-109961505D01*
X165211505Y-110128597D01*
X165075965Y-110322169D01*
X165075964Y-110322171D01*
X164976098Y-110536335D01*
X164976094Y-110536344D01*
X164914938Y-110764586D01*
X164914936Y-110764596D01*
X164894341Y-110999999D01*
X164894341Y-111000000D01*
X164914936Y-111235403D01*
X164914938Y-111235413D01*
X164976094Y-111463655D01*
X164976096Y-111463659D01*
X164976097Y-111463663D01*
X165075965Y-111677830D01*
X165075967Y-111677834D01*
X165211501Y-111871395D01*
X165211506Y-111871402D01*
X165378597Y-112038493D01*
X165378603Y-112038498D01*
X165564158Y-112168425D01*
X165607783Y-112223002D01*
X165614977Y-112292500D01*
X165583454Y-112354855D01*
X165564158Y-112371575D01*
X165378597Y-112501505D01*
X165211505Y-112668597D01*
X165075965Y-112862169D01*
X165075964Y-112862171D01*
X164976098Y-113076335D01*
X164976094Y-113076344D01*
X164914938Y-113304586D01*
X164914936Y-113304596D01*
X164894341Y-113539999D01*
X164894341Y-113540000D01*
X164914936Y-113775403D01*
X164914938Y-113775413D01*
X164976094Y-114003655D01*
X164976096Y-114003659D01*
X164976097Y-114003663D01*
X165043345Y-114147876D01*
X165075965Y-114217830D01*
X165075967Y-114217834D01*
X165211501Y-114411395D01*
X165211506Y-114411402D01*
X165378597Y-114578493D01*
X165378603Y-114578498D01*
X165564158Y-114708425D01*
X165607783Y-114763002D01*
X165614977Y-114832500D01*
X165583454Y-114894855D01*
X165564158Y-114911575D01*
X165378597Y-115041505D01*
X165211505Y-115208597D01*
X165075965Y-115402169D01*
X165075964Y-115402171D01*
X164976098Y-115616335D01*
X164976095Y-115616341D01*
X164936928Y-115762517D01*
X164900563Y-115822177D01*
X164837716Y-115852706D01*
X164768340Y-115844411D01*
X164729472Y-115818104D01*
X164123244Y-115211876D01*
X164089759Y-115150553D01*
X164087454Y-115112755D01*
X164094660Y-115035000D01*
X164074063Y-114812726D01*
X164042031Y-114700145D01*
X164012976Y-114598024D01*
X164012973Y-114598018D01*
X163989063Y-114550000D01*
X163913474Y-114398196D01*
X163778950Y-114220057D01*
X163776511Y-114217834D01*
X163613984Y-114069671D01*
X163613974Y-114069664D01*
X163424195Y-113952158D01*
X163424186Y-113952154D01*
X163338430Y-113918932D01*
X163239547Y-113880625D01*
X163184148Y-113838054D01*
X163160557Y-113772288D01*
X163176268Y-113704207D01*
X163226292Y-113655428D01*
X163239538Y-113649378D01*
X163424192Y-113577843D01*
X163613983Y-113460330D01*
X163778950Y-113309943D01*
X163913474Y-113131804D01*
X164012974Y-112931980D01*
X164012974Y-112931977D01*
X164012976Y-112931975D01*
X164071552Y-112726098D01*
X164074063Y-112717274D01*
X164094660Y-112495000D01*
X164090767Y-112452993D01*
X164074063Y-112272726D01*
X164074062Y-112272723D01*
X164012976Y-112058024D01*
X164012973Y-112058018D01*
X163989063Y-112010000D01*
X163913474Y-111858196D01*
X163778950Y-111680057D01*
X163776511Y-111677834D01*
X163613984Y-111529671D01*
X163613974Y-111529664D01*
X163424195Y-111412158D01*
X163424186Y-111412154D01*
X163338430Y-111378932D01*
X163239547Y-111340625D01*
X163184148Y-111298054D01*
X163160557Y-111232288D01*
X163176268Y-111164207D01*
X163226292Y-111115428D01*
X163239538Y-111109378D01*
X163424192Y-111037843D01*
X163613983Y-110920330D01*
X163778950Y-110769943D01*
X163913474Y-110591804D01*
X164012974Y-110391980D01*
X164012974Y-110391977D01*
X164012976Y-110391975D01*
X164053988Y-110247830D01*
X164074063Y-110177274D01*
X164094660Y-109955000D01*
X164074063Y-109732726D01*
X164054776Y-109664938D01*
X164012976Y-109518024D01*
X164012973Y-109518018D01*
X163921635Y-109334586D01*
X163913474Y-109318196D01*
X163778950Y-109140057D01*
X163613983Y-108989670D01*
X163613979Y-108989667D01*
X163613974Y-108989664D01*
X163424195Y-108872158D01*
X163424186Y-108872154D01*
X163338430Y-108838932D01*
X163239547Y-108800625D01*
X163184148Y-108758054D01*
X163160557Y-108692288D01*
X163176268Y-108624207D01*
X163226292Y-108575428D01*
X163239538Y-108569378D01*
X163424192Y-108497843D01*
X163613983Y-108380330D01*
X163778950Y-108229943D01*
X163913474Y-108051804D01*
X164012974Y-107851980D01*
X164012974Y-107851977D01*
X164012976Y-107851975D01*
X164067844Y-107659132D01*
X164074063Y-107637274D01*
X164094660Y-107415000D01*
X164090767Y-107372993D01*
X164074063Y-107192726D01*
X164074062Y-107192723D01*
X164012976Y-106978024D01*
X164012973Y-106978018D01*
X163989063Y-106930000D01*
X163913474Y-106778196D01*
X163778950Y-106600057D01*
X163613983Y-106449670D01*
X163613979Y-106449667D01*
X163613974Y-106449664D01*
X163424195Y-106332158D01*
X163424186Y-106332154D01*
X163338430Y-106298932D01*
X163239547Y-106260625D01*
X163184148Y-106218054D01*
X163160557Y-106152288D01*
X163176268Y-106084207D01*
X163226292Y-106035428D01*
X163239538Y-106029378D01*
X163424192Y-105957843D01*
X163613983Y-105840330D01*
X163778950Y-105689943D01*
X163913474Y-105511804D01*
X164012974Y-105311980D01*
X164012974Y-105311977D01*
X164012976Y-105311975D01*
X164053988Y-105167830D01*
X164074063Y-105097274D01*
X164094660Y-104875000D01*
X164074063Y-104652726D01*
X164057524Y-104594596D01*
X164012976Y-104438024D01*
X164012973Y-104438018D01*
X163921635Y-104254586D01*
X163913474Y-104238196D01*
X163778950Y-104060057D01*
X163613983Y-103909670D01*
X163613979Y-103909667D01*
X163613974Y-103909664D01*
X163424195Y-103792158D01*
X163424186Y-103792154D01*
X163338430Y-103758932D01*
X163239547Y-103720625D01*
X163184148Y-103678054D01*
X163160557Y-103612288D01*
X163176268Y-103544207D01*
X163226292Y-103495428D01*
X163239538Y-103489378D01*
X163424192Y-103417843D01*
X163613983Y-103300330D01*
X163778950Y-103149943D01*
X163913474Y-102971804D01*
X164012974Y-102771980D01*
X164012974Y-102771977D01*
X164012976Y-102771975D01*
X164064089Y-102592328D01*
X164074063Y-102557274D01*
X164094660Y-102335000D01*
X164090767Y-102292993D01*
X164074063Y-102112726D01*
X164074062Y-102112723D01*
X164012976Y-101898024D01*
X164012973Y-101898018D01*
X163989063Y-101850000D01*
X163913474Y-101698196D01*
X163778950Y-101520057D01*
X163756948Y-101500000D01*
X163613984Y-101369671D01*
X163613974Y-101369664D01*
X163424195Y-101252158D01*
X163424186Y-101252154D01*
X163338430Y-101218932D01*
X163239547Y-101180625D01*
X163184148Y-101138054D01*
X163160557Y-101072288D01*
X163176268Y-101004207D01*
X163226292Y-100955428D01*
X163239538Y-100949378D01*
X163424192Y-100877843D01*
X163613983Y-100760330D01*
X163778950Y-100609943D01*
X163913474Y-100431804D01*
X164012974Y-100231980D01*
X164012974Y-100231977D01*
X164012976Y-100231975D01*
X164056334Y-100079584D01*
X164074063Y-100017274D01*
X164094660Y-99795000D01*
X164090490Y-99749999D01*
X164894341Y-99749999D01*
X164894341Y-99750000D01*
X164914936Y-99985403D01*
X164914938Y-99985413D01*
X164976094Y-100213655D01*
X164976096Y-100213659D01*
X164976097Y-100213663D01*
X165031721Y-100332948D01*
X165075965Y-100427830D01*
X165075967Y-100427834D01*
X165152279Y-100536818D01*
X165196170Y-100599501D01*
X165211501Y-100621395D01*
X165211506Y-100621402D01*
X165378597Y-100788493D01*
X165378603Y-100788498D01*
X165564158Y-100918425D01*
X165607783Y-100973002D01*
X165614977Y-101042500D01*
X165583454Y-101104855D01*
X165564158Y-101121575D01*
X165378597Y-101251505D01*
X165211505Y-101418597D01*
X165075965Y-101612169D01*
X165075964Y-101612171D01*
X164976098Y-101826335D01*
X164976094Y-101826344D01*
X164914938Y-102054586D01*
X164914936Y-102054596D01*
X164894341Y-102289999D01*
X164894341Y-102290000D01*
X164914936Y-102525403D01*
X164914938Y-102525413D01*
X164976094Y-102753655D01*
X164976096Y-102753659D01*
X164976097Y-102753663D01*
X165021253Y-102850500D01*
X165075965Y-102967830D01*
X165075967Y-102967834D01*
X165128129Y-103042328D01*
X165208806Y-103157547D01*
X165211501Y-103161395D01*
X165211506Y-103161402D01*
X165378597Y-103328493D01*
X165378603Y-103328498D01*
X165564158Y-103458425D01*
X165607783Y-103513002D01*
X165614977Y-103582500D01*
X165583454Y-103644855D01*
X165564158Y-103661575D01*
X165378597Y-103791505D01*
X165211505Y-103958597D01*
X165075965Y-104152169D01*
X165075964Y-104152171D01*
X164976098Y-104366335D01*
X164976094Y-104366344D01*
X164914938Y-104594586D01*
X164914936Y-104594596D01*
X164894341Y-104829999D01*
X164894341Y-104830000D01*
X164914936Y-105065403D01*
X164914938Y-105065413D01*
X164976094Y-105293655D01*
X164976096Y-105293659D01*
X164976097Y-105293663D01*
X165075965Y-105507830D01*
X165075967Y-105507834D01*
X165181413Y-105658425D01*
X165211501Y-105701396D01*
X165211506Y-105701402D01*
X165333430Y-105823326D01*
X165366915Y-105884649D01*
X165361931Y-105954341D01*
X165320059Y-106010274D01*
X165289083Y-106027189D01*
X165157669Y-106076203D01*
X165157664Y-106076206D01*
X165042455Y-106162452D01*
X165042452Y-106162455D01*
X164956206Y-106277664D01*
X164956202Y-106277671D01*
X164905908Y-106412517D01*
X164901915Y-106449664D01*
X164899501Y-106472123D01*
X164899500Y-106472135D01*
X164899500Y-108267870D01*
X164899501Y-108267876D01*
X164905908Y-108327483D01*
X164956202Y-108462328D01*
X164956206Y-108462335D01*
X165042452Y-108577544D01*
X165042455Y-108577547D01*
X165157664Y-108663793D01*
X165157671Y-108663797D01*
X165292517Y-108714091D01*
X165292516Y-108714091D01*
X165299444Y-108714835D01*
X165352127Y-108720500D01*
X167147872Y-108720499D01*
X167207483Y-108714091D01*
X167342331Y-108663796D01*
X167457546Y-108577546D01*
X167543796Y-108462331D01*
X167594091Y-108327483D01*
X167600500Y-108267873D01*
X167600499Y-106472128D01*
X167594091Y-106412517D01*
X167571583Y-106352171D01*
X167543797Y-106277671D01*
X167543793Y-106277664D01*
X167457547Y-106162455D01*
X167457544Y-106162452D01*
X167342335Y-106076206D01*
X167342328Y-106076202D01*
X167210917Y-106027189D01*
X167154983Y-105985318D01*
X167130566Y-105919853D01*
X167145418Y-105851580D01*
X167166563Y-105823332D01*
X167288495Y-105701401D01*
X167424035Y-105507830D01*
X167523903Y-105293663D01*
X167585063Y-105065408D01*
X167605659Y-104830000D01*
X167585063Y-104594592D01*
X167523903Y-104366337D01*
X167424035Y-104152171D01*
X167359537Y-104060057D01*
X167288494Y-103958597D01*
X167121402Y-103791506D01*
X167121396Y-103791501D01*
X166935842Y-103661575D01*
X166892217Y-103606998D01*
X166885023Y-103537500D01*
X166916546Y-103475145D01*
X166935842Y-103458425D01*
X167045629Y-103381551D01*
X167121401Y-103328495D01*
X167288495Y-103161401D01*
X167424035Y-102967830D01*
X167523903Y-102753663D01*
X167585063Y-102525408D01*
X167605659Y-102290000D01*
X167585063Y-102054592D01*
X167523903Y-101826337D01*
X167424035Y-101612171D01*
X167359537Y-101520057D01*
X167288494Y-101418597D01*
X167121402Y-101251506D01*
X167121396Y-101251501D01*
X166935842Y-101121575D01*
X166892217Y-101066998D01*
X166885023Y-100997500D01*
X166916546Y-100935145D01*
X166935842Y-100918425D01*
X166993802Y-100877841D01*
X167121401Y-100788495D01*
X167288495Y-100621401D01*
X167424035Y-100427830D01*
X167523903Y-100213663D01*
X167585063Y-99985408D01*
X167605659Y-99750000D01*
X167585063Y-99514592D01*
X167523903Y-99286337D01*
X167424035Y-99072171D01*
X167393347Y-99028343D01*
X167288494Y-98878597D01*
X167121402Y-98711506D01*
X167121395Y-98711501D01*
X166927834Y-98575967D01*
X166927830Y-98575965D01*
X166927828Y-98575964D01*
X166713663Y-98476097D01*
X166713659Y-98476096D01*
X166713655Y-98476094D01*
X166485413Y-98414938D01*
X166485403Y-98414936D01*
X166250001Y-98394341D01*
X166249999Y-98394341D01*
X166014596Y-98414936D01*
X166014586Y-98414938D01*
X165786344Y-98476094D01*
X165786335Y-98476098D01*
X165572171Y-98575964D01*
X165572169Y-98575965D01*
X165378597Y-98711505D01*
X165211505Y-98878597D01*
X165075965Y-99072169D01*
X165075964Y-99072171D01*
X164976098Y-99286335D01*
X164976094Y-99286344D01*
X164914938Y-99514586D01*
X164914936Y-99514596D01*
X164894341Y-99749999D01*
X164090490Y-99749999D01*
X164074063Y-99572726D01*
X164057524Y-99514596D01*
X164012976Y-99358024D01*
X164012973Y-99358018D01*
X163977279Y-99286335D01*
X163913474Y-99158196D01*
X163778950Y-98980057D01*
X163613983Y-98829670D01*
X163613979Y-98829667D01*
X163613974Y-98829664D01*
X163424195Y-98712158D01*
X163424186Y-98712154D01*
X163338430Y-98678932D01*
X163239547Y-98640625D01*
X163184148Y-98598054D01*
X163160557Y-98532288D01*
X163176268Y-98464207D01*
X163226292Y-98415428D01*
X163239538Y-98409378D01*
X163424192Y-98337843D01*
X163613983Y-98220330D01*
X163778950Y-98069943D01*
X163913474Y-97891804D01*
X164012974Y-97691980D01*
X164012974Y-97691977D01*
X164012976Y-97691975D01*
X164074062Y-97477276D01*
X164074063Y-97477273D01*
X164094660Y-97255000D01*
X164094660Y-97254999D01*
X164074063Y-97032726D01*
X164074062Y-97032723D01*
X164012976Y-96818024D01*
X164012973Y-96818018D01*
X163913474Y-96618196D01*
X163778950Y-96440057D01*
X163613983Y-96289670D01*
X163613979Y-96289667D01*
X163613974Y-96289664D01*
X163424195Y-96172158D01*
X163424186Y-96172154D01*
X163338430Y-96138932D01*
X163239547Y-96100625D01*
X163184148Y-96058054D01*
X163160557Y-95992288D01*
X163176268Y-95924207D01*
X163226292Y-95875428D01*
X163239538Y-95869378D01*
X163424192Y-95797843D01*
X163613983Y-95680330D01*
X163778950Y-95529943D01*
X163913474Y-95351804D01*
X164012974Y-95151980D01*
X164012974Y-95151977D01*
X164012976Y-95151975D01*
X164047954Y-95029036D01*
X164074063Y-94937274D01*
X164094660Y-94715000D01*
X164074063Y-94492726D01*
X164065191Y-94461544D01*
X164012976Y-94278024D01*
X164012973Y-94278018D01*
X163913474Y-94078196D01*
X163778950Y-93900057D01*
X163613983Y-93749670D01*
X163613979Y-93749667D01*
X163613974Y-93749664D01*
X163424195Y-93632158D01*
X163424186Y-93632154D01*
X163338430Y-93598932D01*
X163239547Y-93560625D01*
X163184148Y-93518054D01*
X163160557Y-93452288D01*
X163176268Y-93384207D01*
X163226292Y-93335428D01*
X163239538Y-93329378D01*
X163424192Y-93257843D01*
X163555168Y-93176746D01*
X163622527Y-93158191D01*
X163689226Y-93179000D01*
X163708125Y-93194493D01*
X164652130Y-94138498D01*
X164685615Y-94199821D01*
X164687977Y-94236986D01*
X164669341Y-94449997D01*
X164669341Y-94450000D01*
X164689936Y-94685403D01*
X164689938Y-94685413D01*
X164751094Y-94913655D01*
X164751096Y-94913659D01*
X164751097Y-94913663D01*
X164762107Y-94937273D01*
X164850965Y-95127830D01*
X164850967Y-95127834D01*
X164958275Y-95281085D01*
X164986505Y-95321401D01*
X165153599Y-95488495D01*
X165250384Y-95556265D01*
X165347165Y-95624032D01*
X165347167Y-95624033D01*
X165347170Y-95624035D01*
X165561337Y-95723903D01*
X165789592Y-95785063D01*
X165977918Y-95801539D01*
X166024999Y-95805659D01*
X166025000Y-95805659D01*
X166025001Y-95805659D01*
X166064234Y-95802226D01*
X166260408Y-95785063D01*
X166488663Y-95723903D01*
X166702830Y-95624035D01*
X166896401Y-95488495D01*
X167063495Y-95321401D01*
X167199035Y-95127830D01*
X167298903Y-94913663D01*
X167360063Y-94685408D01*
X167380659Y-94450000D01*
X167360063Y-94214592D01*
X167298903Y-93986337D01*
X167199035Y-93772171D01*
X167183281Y-93749671D01*
X167063494Y-93578597D01*
X166896402Y-93411506D01*
X166896395Y-93411501D01*
X166702834Y-93275967D01*
X166702828Y-93275964D01*
X166687444Y-93268790D01*
X166635005Y-93222616D01*
X166615855Y-93155422D01*
X166636072Y-93088541D01*
X166673859Y-93052802D01*
X166673396Y-93052140D01*
X166710484Y-93026170D01*
X166871401Y-92913495D01*
X167038495Y-92746401D01*
X167174035Y-92552830D01*
X167273903Y-92338663D01*
X167335063Y-92110408D01*
X167355659Y-91875000D01*
X167335063Y-91639592D01*
X167273903Y-91411337D01*
X167174035Y-91197171D01*
X167151048Y-91164341D01*
X167038494Y-91003597D01*
X166871402Y-90836506D01*
X166871396Y-90836501D01*
X166696553Y-90714075D01*
X166652928Y-90659498D01*
X166645734Y-90590000D01*
X166677257Y-90527645D01*
X166696553Y-90510925D01*
X166706936Y-90503655D01*
X166871401Y-90388495D01*
X167038495Y-90221401D01*
X167174035Y-90027830D01*
X167273903Y-89813663D01*
X167335063Y-89585408D01*
X167355659Y-89350000D01*
X167335063Y-89114592D01*
X167273903Y-88886337D01*
X167174035Y-88672171D01*
X167172285Y-88669671D01*
X167038494Y-88478597D01*
X166871402Y-88311506D01*
X166871395Y-88311501D01*
X166677834Y-88175967D01*
X166677828Y-88175964D01*
X166662444Y-88168790D01*
X166610005Y-88122616D01*
X166590855Y-88055422D01*
X166611072Y-87988541D01*
X166648859Y-87952802D01*
X166648396Y-87952140D01*
X166685484Y-87926170D01*
X166846401Y-87813495D01*
X167013495Y-87646401D01*
X167149035Y-87452830D01*
X167248903Y-87238663D01*
X167310063Y-87010408D01*
X167330659Y-86775000D01*
X167310063Y-86539592D01*
X167248903Y-86311337D01*
X167149035Y-86097171D01*
X167089508Y-86012156D01*
X167013494Y-85903597D01*
X166846402Y-85736506D01*
X166846395Y-85736501D01*
X166820661Y-85718482D01*
X166705497Y-85637843D01*
X166648396Y-85597860D01*
X166649023Y-85596963D01*
X166604636Y-85550411D01*
X166591412Y-85481804D01*
X166617380Y-85416939D01*
X166662445Y-85381208D01*
X166677830Y-85374035D01*
X166871401Y-85238495D01*
X167038495Y-85071401D01*
X167174035Y-84877830D01*
X167273903Y-84663663D01*
X167335063Y-84435408D01*
X167355659Y-84200000D01*
X167335063Y-83964592D01*
X167273903Y-83736337D01*
X167174035Y-83522171D01*
X167139015Y-83472156D01*
X167038494Y-83328597D01*
X166871402Y-83161506D01*
X166871396Y-83161501D01*
X166678701Y-83026575D01*
X166635076Y-82971998D01*
X166627882Y-82902500D01*
X166659405Y-82840145D01*
X166678701Y-82823425D01*
X166730980Y-82786819D01*
X166871401Y-82688495D01*
X167038495Y-82521401D01*
X167174035Y-82327830D01*
X167273903Y-82113663D01*
X167335063Y-81885408D01*
X167355659Y-81650000D01*
X167335063Y-81414592D01*
X167273903Y-81186337D01*
X167174035Y-80972171D01*
X167160930Y-80953454D01*
X167038494Y-80778597D01*
X166871402Y-80611506D01*
X166871395Y-80611501D01*
X166673396Y-80472860D01*
X166674023Y-80471963D01*
X166629636Y-80425411D01*
X166616412Y-80356804D01*
X166642380Y-80291939D01*
X166687445Y-80256208D01*
X166702830Y-80249035D01*
X166896401Y-80113495D01*
X167063495Y-79946401D01*
X167199035Y-79752830D01*
X167298903Y-79538663D01*
X167360063Y-79310408D01*
X167380659Y-79075000D01*
X167360063Y-78839592D01*
X167298903Y-78611337D01*
X167199035Y-78397171D01*
X167193871Y-78389795D01*
X167063494Y-78203597D01*
X166896402Y-78036506D01*
X166896395Y-78036501D01*
X166702834Y-77900967D01*
X166702824Y-77900962D01*
X166686889Y-77893531D01*
X166634450Y-77847358D01*
X166615299Y-77780165D01*
X166635516Y-77713284D01*
X166673561Y-77677301D01*
X166673144Y-77676706D01*
X166677175Y-77673883D01*
X166677314Y-77673752D01*
X166677591Y-77673592D01*
X166761373Y-77614926D01*
X166761373Y-77614925D01*
X166129409Y-76982962D01*
X166192993Y-76965925D01*
X166307007Y-76900099D01*
X166400099Y-76807007D01*
X166465925Y-76692993D01*
X166482962Y-76629410D01*
X167114925Y-77261373D01*
X167114926Y-77261373D01*
X167173598Y-77177582D01*
X167173600Y-77177578D01*
X167273429Y-76963492D01*
X167273433Y-76963483D01*
X167334567Y-76735326D01*
X167334569Y-76735315D01*
X167355157Y-76500001D01*
X167355157Y-76499998D01*
X167334569Y-76264684D01*
X167334567Y-76264673D01*
X167273433Y-76036516D01*
X167273429Y-76036507D01*
X167173600Y-75822423D01*
X167173599Y-75822421D01*
X167114925Y-75738626D01*
X167114925Y-75738625D01*
X166482962Y-76370589D01*
X166465925Y-76307007D01*
X166400099Y-76192993D01*
X166307007Y-76099901D01*
X166192993Y-76034075D01*
X166129410Y-76017037D01*
X166761373Y-75385073D01*
X166761373Y-75385072D01*
X166677583Y-75326402D01*
X166677579Y-75326400D01*
X166463492Y-75226570D01*
X166463483Y-75226566D01*
X166235326Y-75165432D01*
X166235315Y-75165430D01*
X166000002Y-75144843D01*
X165999998Y-75144843D01*
X165764684Y-75165430D01*
X165764673Y-75165432D01*
X165536516Y-75226566D01*
X165536507Y-75226570D01*
X165322419Y-75326401D01*
X165238625Y-75385072D01*
X165870590Y-76017037D01*
X165807007Y-76034075D01*
X165692993Y-76099901D01*
X165599901Y-76192993D01*
X165534075Y-76307007D01*
X165517037Y-76370590D01*
X164885072Y-75738625D01*
X164826401Y-75822419D01*
X164726570Y-76036507D01*
X164726566Y-76036516D01*
X164665432Y-76264673D01*
X164665430Y-76264683D01*
X164657281Y-76357831D01*
X164631828Y-76422899D01*
X164575237Y-76463878D01*
X164505475Y-76467756D01*
X164446072Y-76434704D01*
X163928413Y-75917045D01*
X163879179Y-75884150D01*
X163846355Y-75862218D01*
X163805495Y-75834916D01*
X163805494Y-75834915D01*
X163805492Y-75834914D01*
X163805490Y-75834913D01*
X163668917Y-75778343D01*
X163668907Y-75778340D01*
X163523920Y-75749500D01*
X163523918Y-75749500D01*
X158384499Y-75749500D01*
X158317460Y-75729815D01*
X158271705Y-75677011D01*
X158260499Y-75625500D01*
X158260499Y-75602129D01*
X158260498Y-75602123D01*
X158254091Y-75542516D01*
X158203797Y-75407671D01*
X158203793Y-75407664D01*
X158117547Y-75292455D01*
X158117544Y-75292452D01*
X158002335Y-75206206D01*
X158002328Y-75206202D01*
X157867482Y-75155908D01*
X157867483Y-75155908D01*
X157807883Y-75149501D01*
X157807881Y-75149500D01*
X157807873Y-75149500D01*
X157807864Y-75149500D01*
X156012129Y-75149500D01*
X156012123Y-75149501D01*
X155952516Y-75155908D01*
X155817671Y-75206202D01*
X155817664Y-75206206D01*
X155702455Y-75292452D01*
X155702452Y-75292455D01*
X155616206Y-75407664D01*
X155616202Y-75407671D01*
X155566997Y-75539598D01*
X155525126Y-75595532D01*
X155459661Y-75619949D01*
X155391388Y-75605097D01*
X155363134Y-75583946D01*
X155241082Y-75461894D01*
X155047578Y-75326399D01*
X154833492Y-75226570D01*
X154833486Y-75226567D01*
X154620000Y-75169364D01*
X154620000Y-76066988D01*
X154562993Y-76034075D01*
X154435826Y-76000000D01*
X154304174Y-76000000D01*
X154177007Y-76034075D01*
X154120000Y-76066988D01*
X154120000Y-75169364D01*
X154119999Y-75169364D01*
X153906513Y-75226567D01*
X153906507Y-75226570D01*
X153692422Y-75326399D01*
X153692420Y-75326400D01*
X153498926Y-75461886D01*
X153498920Y-75461891D01*
X153331891Y-75628920D01*
X153331890Y-75628922D01*
X153201880Y-75814595D01*
X153147303Y-75858219D01*
X153077804Y-75865412D01*
X153015450Y-75833890D01*
X152998730Y-75814594D01*
X152868494Y-75628597D01*
X152701402Y-75461506D01*
X152701395Y-75461501D01*
X152507834Y-75325967D01*
X152507830Y-75325965D01*
X152507828Y-75325964D01*
X152293663Y-75226097D01*
X152293659Y-75226096D01*
X152293655Y-75226094D01*
X152065413Y-75164938D01*
X152065403Y-75164936D01*
X151830001Y-75144341D01*
X151829999Y-75144341D01*
X151594596Y-75164936D01*
X151594586Y-75164938D01*
X151366344Y-75226094D01*
X151366335Y-75226098D01*
X151152171Y-75325964D01*
X151152169Y-75325965D01*
X150958597Y-75461505D01*
X150791505Y-75628597D01*
X150661575Y-75814158D01*
X150606998Y-75857783D01*
X150537500Y-75864977D01*
X150475145Y-75833454D01*
X150458425Y-75814158D01*
X150328494Y-75628597D01*
X150161402Y-75461506D01*
X150161395Y-75461501D01*
X149967834Y-75325967D01*
X149967830Y-75325965D01*
X149967828Y-75325964D01*
X149753663Y-75226097D01*
X149753659Y-75226096D01*
X149753655Y-75226094D01*
X149525413Y-75164938D01*
X149525403Y-75164936D01*
X149290001Y-75144341D01*
X149289999Y-75144341D01*
X149054596Y-75164936D01*
X149054586Y-75164938D01*
X148826344Y-75226094D01*
X148826335Y-75226098D01*
X148612171Y-75325964D01*
X148612169Y-75325965D01*
X148418597Y-75461505D01*
X148251505Y-75628597D01*
X148121575Y-75814158D01*
X148066998Y-75857783D01*
X147997500Y-75864977D01*
X147935145Y-75833454D01*
X147918425Y-75814158D01*
X147788494Y-75628597D01*
X147621402Y-75461506D01*
X147621395Y-75461501D01*
X147427834Y-75325967D01*
X147427830Y-75325965D01*
X147427828Y-75325964D01*
X147213663Y-75226097D01*
X147213659Y-75226096D01*
X147213655Y-75226094D01*
X146985413Y-75164938D01*
X146985403Y-75164936D01*
X146750001Y-75144341D01*
X146749999Y-75144341D01*
X146514596Y-75164936D01*
X146514586Y-75164938D01*
X146286344Y-75226094D01*
X146286335Y-75226098D01*
X146072171Y-75325964D01*
X146072169Y-75325965D01*
X145878597Y-75461505D01*
X145711505Y-75628597D01*
X145581575Y-75814158D01*
X145526998Y-75857783D01*
X145457500Y-75864977D01*
X145395145Y-75833454D01*
X145378425Y-75814158D01*
X145248494Y-75628597D01*
X145081402Y-75461506D01*
X145081395Y-75461501D01*
X144887834Y-75325967D01*
X144887830Y-75325965D01*
X144887828Y-75325964D01*
X144673663Y-75226097D01*
X144673659Y-75226096D01*
X144673655Y-75226094D01*
X144445413Y-75164938D01*
X144445403Y-75164936D01*
X144210001Y-75144341D01*
X144209999Y-75144341D01*
X143974596Y-75164936D01*
X143974586Y-75164938D01*
X143746344Y-75226094D01*
X143746335Y-75226098D01*
X143532171Y-75325964D01*
X143532169Y-75325965D01*
X143338597Y-75461505D01*
X143171505Y-75628597D01*
X143035965Y-75822169D01*
X143035964Y-75822171D01*
X142936098Y-76036335D01*
X142936094Y-76036344D01*
X142874938Y-76264586D01*
X142874936Y-76264596D01*
X142854341Y-76499999D01*
X142854341Y-76500000D01*
X142874936Y-76735403D01*
X142874938Y-76735413D01*
X142936094Y-76963655D01*
X142936096Y-76963659D01*
X142936097Y-76963663D01*
X143016004Y-77135023D01*
X143035965Y-77177830D01*
X143035967Y-77177834D01*
X143112280Y-77286819D01*
X143171505Y-77371401D01*
X143338599Y-77538495D01*
X143435384Y-77606265D01*
X143532165Y-77674032D01*
X143532167Y-77674033D01*
X143532170Y-77674035D01*
X143746337Y-77773903D01*
X143974592Y-77835063D01*
X144151034Y-77850500D01*
X144209999Y-77855659D01*
X144210000Y-77855659D01*
X144210001Y-77855659D01*
X144268966Y-77850500D01*
X144445408Y-77835063D01*
X144673663Y-77773903D01*
X144887830Y-77674035D01*
X145081401Y-77538495D01*
X145248495Y-77371401D01*
X145378425Y-77185842D01*
X145433002Y-77142217D01*
X145502500Y-77135023D01*
X145564855Y-77166546D01*
X145581575Y-77185842D01*
X145711500Y-77371395D01*
X145711505Y-77371401D01*
X145878599Y-77538495D01*
X145975384Y-77606265D01*
X146072165Y-77674032D01*
X146072167Y-77674033D01*
X146072170Y-77674035D01*
X146286337Y-77773903D01*
X146514592Y-77835063D01*
X146691034Y-77850500D01*
X146749999Y-77855659D01*
X146750000Y-77855659D01*
X146750001Y-77855659D01*
X146808966Y-77850500D01*
X146985408Y-77835063D01*
X147213663Y-77773903D01*
X147427830Y-77674035D01*
X147621401Y-77538495D01*
X147788495Y-77371401D01*
X147918425Y-77185842D01*
X147973002Y-77142217D01*
X148042500Y-77135023D01*
X148104855Y-77166546D01*
X148121575Y-77185842D01*
X148251500Y-77371395D01*
X148251505Y-77371401D01*
X148418599Y-77538495D01*
X148515384Y-77606265D01*
X148612165Y-77674032D01*
X148612167Y-77674033D01*
X148612170Y-77674035D01*
X148826337Y-77773903D01*
X149054592Y-77835063D01*
X149231034Y-77850500D01*
X149289999Y-77855659D01*
X149290000Y-77855659D01*
X149290001Y-77855659D01*
X149348966Y-77850500D01*
X149525408Y-77835063D01*
X149753663Y-77773903D01*
X149967830Y-77674035D01*
X150161401Y-77538495D01*
X150328495Y-77371401D01*
X150458425Y-77185842D01*
X150513002Y-77142217D01*
X150582500Y-77135023D01*
X150644855Y-77166546D01*
X150661575Y-77185842D01*
X150791500Y-77371395D01*
X150791505Y-77371401D01*
X150958599Y-77538495D01*
X151055384Y-77606265D01*
X151152165Y-77674032D01*
X151152167Y-77674033D01*
X151152170Y-77674035D01*
X151366337Y-77773903D01*
X151594592Y-77835063D01*
X151771034Y-77850500D01*
X151829999Y-77855659D01*
X151830000Y-77855659D01*
X151830001Y-77855659D01*
X151888966Y-77850500D01*
X152065408Y-77835063D01*
X152293663Y-77773903D01*
X152507830Y-77674035D01*
X152701401Y-77538495D01*
X152868495Y-77371401D01*
X152998730Y-77185405D01*
X153053307Y-77141781D01*
X153122805Y-77134587D01*
X153185160Y-77166110D01*
X153201879Y-77185405D01*
X153331890Y-77371078D01*
X153498917Y-77538105D01*
X153692421Y-77673600D01*
X153906507Y-77773429D01*
X153906516Y-77773433D01*
X154120000Y-77830634D01*
X154120000Y-76933012D01*
X154177007Y-76965925D01*
X154304174Y-77000000D01*
X154435826Y-77000000D01*
X154562993Y-76965925D01*
X154620000Y-76933012D01*
X154620000Y-77830633D01*
X154833483Y-77773433D01*
X154833492Y-77773429D01*
X155047578Y-77673600D01*
X155241078Y-77538108D01*
X155363133Y-77416053D01*
X155424456Y-77382568D01*
X155494148Y-77387552D01*
X155550082Y-77429423D01*
X155566997Y-77460401D01*
X155616202Y-77592328D01*
X155616206Y-77592335D01*
X155702452Y-77707544D01*
X155702455Y-77707547D01*
X155817664Y-77793793D01*
X155817671Y-77793797D01*
X155952517Y-77844091D01*
X155952516Y-77844091D01*
X155959444Y-77844835D01*
X156012127Y-77850500D01*
X157807872Y-77850499D01*
X157867483Y-77844091D01*
X158002331Y-77793796D01*
X158117546Y-77707546D01*
X158203796Y-77592331D01*
X158254091Y-77457483D01*
X158260500Y-77397873D01*
X158260500Y-77374500D01*
X158280185Y-77307461D01*
X158332989Y-77261706D01*
X158384500Y-77250500D01*
X163087770Y-77250500D01*
X163154809Y-77270185D01*
X163175451Y-77286819D01*
X164652130Y-78763498D01*
X164685615Y-78824821D01*
X164687977Y-78861986D01*
X164669341Y-79074997D01*
X164669341Y-79075000D01*
X164689936Y-79310403D01*
X164689938Y-79310413D01*
X164751094Y-79538655D01*
X164751096Y-79538659D01*
X164751097Y-79538663D01*
X164803078Y-79650136D01*
X164850965Y-79752830D01*
X164850967Y-79752834D01*
X164870756Y-79781095D01*
X164986505Y-79946401D01*
X165153599Y-80113495D01*
X165274544Y-80198182D01*
X165351604Y-80252140D01*
X165350974Y-80253038D01*
X165395359Y-80299580D01*
X165408587Y-80368186D01*
X165382625Y-80433053D01*
X165337558Y-80468789D01*
X165322170Y-80475965D01*
X165322169Y-80475965D01*
X165128597Y-80611505D01*
X164961505Y-80778597D01*
X164825965Y-80972169D01*
X164825964Y-80972171D01*
X164726098Y-81186335D01*
X164726094Y-81186344D01*
X164664938Y-81414586D01*
X164664936Y-81414596D01*
X164644341Y-81649999D01*
X164644341Y-81650000D01*
X164664936Y-81885403D01*
X164664938Y-81885413D01*
X164726094Y-82113655D01*
X164726096Y-82113659D01*
X164726097Y-82113663D01*
X164761085Y-82188694D01*
X164825965Y-82327830D01*
X164825967Y-82327834D01*
X164934281Y-82482521D01*
X164961505Y-82521401D01*
X165128599Y-82688495D01*
X165295792Y-82805565D01*
X165321299Y-82823425D01*
X165364923Y-82878002D01*
X165372116Y-82947501D01*
X165340594Y-83009855D01*
X165321299Y-83026575D01*
X165128594Y-83161508D01*
X164961505Y-83328597D01*
X164825965Y-83522169D01*
X164825964Y-83522171D01*
X164726098Y-83736335D01*
X164726094Y-83736344D01*
X164664938Y-83964586D01*
X164664936Y-83964596D01*
X164644341Y-84199999D01*
X164644341Y-84200000D01*
X164664936Y-84435403D01*
X164664938Y-84435413D01*
X164726094Y-84663655D01*
X164726096Y-84663659D01*
X164726097Y-84663663D01*
X164779075Y-84777274D01*
X164825965Y-84877830D01*
X164825967Y-84877834D01*
X164865680Y-84934549D01*
X164961505Y-85071401D01*
X165128599Y-85238495D01*
X165137911Y-85245015D01*
X165326604Y-85377140D01*
X165325974Y-85378038D01*
X165370359Y-85424580D01*
X165383587Y-85493186D01*
X165357625Y-85558053D01*
X165312558Y-85593789D01*
X165297170Y-85600965D01*
X165297169Y-85600965D01*
X165103597Y-85736505D01*
X164936505Y-85903597D01*
X164800965Y-86097169D01*
X164800964Y-86097171D01*
X164701098Y-86311335D01*
X164701094Y-86311344D01*
X164639938Y-86539586D01*
X164639936Y-86539596D01*
X164619341Y-86774999D01*
X164619341Y-86775000D01*
X164639936Y-87010403D01*
X164639938Y-87010413D01*
X164701094Y-87238655D01*
X164701096Y-87238659D01*
X164701097Y-87238663D01*
X164730692Y-87302129D01*
X164800965Y-87452830D01*
X164800967Y-87452834D01*
X164898790Y-87592539D01*
X164936505Y-87646401D01*
X165103599Y-87813495D01*
X165194363Y-87877049D01*
X165297165Y-87949032D01*
X165297167Y-87949033D01*
X165297170Y-87949035D01*
X165312553Y-87956208D01*
X165364992Y-88002381D01*
X165384144Y-88069574D01*
X165363928Y-88136455D01*
X165326144Y-88172202D01*
X165326605Y-88172860D01*
X165156112Y-88292239D01*
X165089906Y-88314566D01*
X165022138Y-88297556D01*
X164974326Y-88246607D01*
X164970435Y-88238135D01*
X164917408Y-88110117D01*
X164915764Y-88105522D01*
X164832954Y-87981588D01*
X164832953Y-87981587D01*
X164832951Y-87981584D01*
X164728416Y-87877049D01*
X164123244Y-87271877D01*
X164089759Y-87210554D01*
X164087454Y-87172756D01*
X164094660Y-87095000D01*
X164074063Y-86872726D01*
X164046258Y-86775000D01*
X164012976Y-86658024D01*
X164012973Y-86658018D01*
X163954001Y-86539586D01*
X163913474Y-86458196D01*
X163778950Y-86280057D01*
X163775594Y-86276998D01*
X163613984Y-86129671D01*
X163613974Y-86129664D01*
X163424195Y-86012158D01*
X163424186Y-86012154D01*
X163338430Y-85978932D01*
X163239547Y-85940625D01*
X163184148Y-85898054D01*
X163160557Y-85832288D01*
X163176268Y-85764207D01*
X163226292Y-85715428D01*
X163239538Y-85709378D01*
X163424192Y-85637843D01*
X163613983Y-85520330D01*
X163778950Y-85369943D01*
X163913474Y-85191804D01*
X164012974Y-84991980D01*
X164012974Y-84991977D01*
X164012976Y-84991975D01*
X164074062Y-84777276D01*
X164074063Y-84777273D01*
X164094660Y-84555000D01*
X164094660Y-84554999D01*
X164074063Y-84332726D01*
X164074062Y-84332723D01*
X164012976Y-84118024D01*
X164012973Y-84118018D01*
X163998323Y-84088597D01*
X163913474Y-83918196D01*
X163778950Y-83740057D01*
X163774869Y-83736337D01*
X163613984Y-83589671D01*
X163613974Y-83589664D01*
X163424195Y-83472158D01*
X163424189Y-83472156D01*
X163238855Y-83400357D01*
X163183457Y-83357786D01*
X163159866Y-83292019D01*
X163175577Y-83223939D01*
X163225601Y-83175160D01*
X163238859Y-83169105D01*
X163423964Y-83097395D01*
X163423971Y-83097392D01*
X163541231Y-83024786D01*
X163541231Y-83024785D01*
X162973585Y-82457137D01*
X163058694Y-82434333D01*
X163161306Y-82375090D01*
X163245090Y-82291306D01*
X163304333Y-82188694D01*
X163327138Y-82103585D01*
X163896716Y-82673163D01*
X163913049Y-82651536D01*
X163913053Y-82651529D01*
X164012499Y-82451813D01*
X164012506Y-82451795D01*
X164073570Y-82237181D01*
X164094158Y-82015000D01*
X164094158Y-82014999D01*
X164073570Y-81792818D01*
X164012506Y-81578204D01*
X164012501Y-81578191D01*
X163913046Y-81378458D01*
X163896716Y-81356836D01*
X163327138Y-81926414D01*
X163304333Y-81841306D01*
X163245090Y-81738694D01*
X163161306Y-81654910D01*
X163058694Y-81595667D01*
X162973584Y-81572861D01*
X163541232Y-81005213D01*
X163423966Y-80932605D01*
X163423965Y-80932604D01*
X163215904Y-80852002D01*
X162996565Y-80811000D01*
X162773435Y-80811000D01*
X162554095Y-80852002D01*
X162346034Y-80932604D01*
X162346028Y-80932607D01*
X162228767Y-81005212D01*
X162228766Y-81005213D01*
X162796415Y-81572861D01*
X162711306Y-81595667D01*
X162608694Y-81654910D01*
X162524910Y-81738694D01*
X162465667Y-81841306D01*
X162442861Y-81926415D01*
X161873282Y-81356836D01*
X161873281Y-81356836D01*
X161856953Y-81378458D01*
X161757498Y-81578191D01*
X161757493Y-81578204D01*
X161696429Y-81792818D01*
X161675842Y-82014999D01*
X161675842Y-82015000D01*
X161696429Y-82237181D01*
X161757493Y-82451795D01*
X161757498Y-82451808D01*
X161856953Y-82651540D01*
X161873282Y-82673163D01*
X162442861Y-82103584D01*
X162465667Y-82188694D01*
X162524910Y-82291306D01*
X162608694Y-82375090D01*
X162711306Y-82434333D01*
X162796414Y-82457137D01*
X162228766Y-83024785D01*
X162346031Y-83097393D01*
X162346032Y-83097394D01*
X162531141Y-83169105D01*
X162586542Y-83211678D01*
X162610133Y-83277445D01*
X162594422Y-83345525D01*
X162544398Y-83394304D01*
X162531147Y-83400355D01*
X162479431Y-83420391D01*
X162345810Y-83472155D01*
X162345804Y-83472158D01*
X162156025Y-83589664D01*
X162156015Y-83589671D01*
X161991051Y-83740055D01*
X161856526Y-83918195D01*
X161757026Y-84118018D01*
X161757023Y-84118024D01*
X161695937Y-84332723D01*
X161695936Y-84332726D01*
X161675340Y-84554999D01*
X161675340Y-84555000D01*
X161695936Y-84777273D01*
X161695937Y-84777276D01*
X161757023Y-84991975D01*
X161757026Y-84991981D01*
X161856526Y-85191804D01*
X161991051Y-85369944D01*
X161995539Y-85374035D01*
X162156017Y-85520330D01*
X162156024Y-85520334D01*
X162156025Y-85520335D01*
X162345804Y-85637841D01*
X162345805Y-85637841D01*
X162345808Y-85637843D01*
X162530452Y-85709374D01*
X162585851Y-85751946D01*
X162609442Y-85817713D01*
X162593731Y-85885793D01*
X162543707Y-85934572D01*
X162530461Y-85940621D01*
X162387216Y-85996115D01*
X162345810Y-86012156D01*
X162345804Y-86012158D01*
X162156025Y-86129664D01*
X162156015Y-86129671D01*
X161991051Y-86280055D01*
X161856526Y-86458195D01*
X161757026Y-86658018D01*
X161757023Y-86658024D01*
X161695937Y-86872723D01*
X161695936Y-86872726D01*
X161675340Y-87094999D01*
X161675340Y-87095000D01*
X161695936Y-87317273D01*
X161695937Y-87317276D01*
X161757023Y-87531975D01*
X161757026Y-87531981D01*
X161815544Y-87649501D01*
X161856526Y-87731804D01*
X161991050Y-87909943D01*
X162156017Y-88060330D01*
X162156024Y-88060334D01*
X162156025Y-88060335D01*
X162345804Y-88177841D01*
X162345805Y-88177841D01*
X162345808Y-88177843D01*
X162530452Y-88249374D01*
X162585851Y-88291946D01*
X162609442Y-88357713D01*
X162593731Y-88425793D01*
X162543707Y-88474572D01*
X162530461Y-88480621D01*
X162408250Y-88527967D01*
X162345810Y-88552156D01*
X162345804Y-88552158D01*
X162156025Y-88669664D01*
X162156015Y-88669671D01*
X161991051Y-88820055D01*
X161856526Y-88998195D01*
X161757026Y-89198018D01*
X161757023Y-89198024D01*
X161695937Y-89412723D01*
X161695936Y-89412726D01*
X161675340Y-89634999D01*
X161675340Y-89635000D01*
X161695936Y-89857273D01*
X161695937Y-89857276D01*
X161757023Y-90071975D01*
X161757026Y-90071981D01*
X161854100Y-90266932D01*
X161856526Y-90271804D01*
X161991050Y-90449943D01*
X162156017Y-90600330D01*
X162156024Y-90600334D01*
X162156025Y-90600335D01*
X162345804Y-90717841D01*
X162345805Y-90717841D01*
X162345808Y-90717843D01*
X162530452Y-90789374D01*
X162585851Y-90831946D01*
X162609442Y-90897713D01*
X162593731Y-90965793D01*
X162543707Y-91014572D01*
X162530461Y-91020621D01*
X162387216Y-91076115D01*
X162345810Y-91092156D01*
X162345804Y-91092158D01*
X162156025Y-91209664D01*
X162156015Y-91209671D01*
X161991051Y-91360055D01*
X161856526Y-91538195D01*
X161757026Y-91738018D01*
X161757023Y-91738024D01*
X161695937Y-91952723D01*
X161695936Y-91952726D01*
X161675340Y-92174999D01*
X161675340Y-92175000D01*
X161695936Y-92397273D01*
X161695937Y-92397276D01*
X161757023Y-92611975D01*
X161757026Y-92611980D01*
X161856526Y-92811804D01*
X161991050Y-92989943D01*
X162156017Y-93140330D01*
X162156024Y-93140334D01*
X162156025Y-93140335D01*
X162345804Y-93257841D01*
X162345805Y-93257841D01*
X162345808Y-93257843D01*
X162530452Y-93329374D01*
X162585851Y-93371946D01*
X162609442Y-93437713D01*
X162593731Y-93505793D01*
X162543707Y-93554572D01*
X162530461Y-93560621D01*
X162387216Y-93616115D01*
X162345810Y-93632156D01*
X162345804Y-93632158D01*
X162156025Y-93749664D01*
X162156015Y-93749671D01*
X161991050Y-93900055D01*
X161979593Y-93915228D01*
X161923484Y-93956863D01*
X161880640Y-93964500D01*
X161322800Y-93964500D01*
X161255761Y-93944815D01*
X161210006Y-93892011D01*
X161200062Y-93822853D01*
X161223533Y-93766189D01*
X161293796Y-93672331D01*
X161344091Y-93537483D01*
X161350500Y-93477873D01*
X161350499Y-91682128D01*
X161344091Y-91622517D01*
X161339945Y-91611402D01*
X161293797Y-91487671D01*
X161293793Y-91487664D01*
X161207547Y-91372455D01*
X161207544Y-91372452D01*
X161092335Y-91286206D01*
X161092328Y-91286202D01*
X160960917Y-91237189D01*
X160904983Y-91195318D01*
X160880566Y-91129853D01*
X160895418Y-91061580D01*
X160916563Y-91033332D01*
X161038495Y-90911401D01*
X161174035Y-90717830D01*
X161273903Y-90503663D01*
X161335063Y-90275408D01*
X161355659Y-90040000D01*
X161355493Y-90038108D01*
X161348695Y-89960401D01*
X161335063Y-89804592D01*
X161276332Y-89585403D01*
X161273905Y-89576344D01*
X161273904Y-89576343D01*
X161273903Y-89576337D01*
X161174035Y-89362171D01*
X161165513Y-89349999D01*
X161038494Y-89168597D01*
X160871402Y-89001506D01*
X160871396Y-89001501D01*
X160685842Y-88871575D01*
X160642217Y-88816998D01*
X160635023Y-88747500D01*
X160666546Y-88685145D01*
X160685842Y-88668425D01*
X160851888Y-88552158D01*
X160871401Y-88538495D01*
X161038495Y-88371401D01*
X161174035Y-88177830D01*
X161273903Y-87963663D01*
X161335063Y-87735408D01*
X161355659Y-87500000D01*
X161335063Y-87264592D01*
X161273903Y-87036337D01*
X161174035Y-86822171D01*
X161059095Y-86658018D01*
X161038494Y-86628597D01*
X160871402Y-86461506D01*
X160871396Y-86461501D01*
X160685842Y-86331575D01*
X160642217Y-86276998D01*
X160635023Y-86207500D01*
X160666546Y-86145145D01*
X160685842Y-86128425D01*
X160851888Y-86012158D01*
X160871401Y-85998495D01*
X161038495Y-85831401D01*
X161174035Y-85637830D01*
X161273903Y-85423663D01*
X161335063Y-85195408D01*
X161355659Y-84960000D01*
X161335063Y-84724592D01*
X161273903Y-84496337D01*
X161174035Y-84282171D01*
X161155198Y-84255268D01*
X161038494Y-84088597D01*
X160871402Y-83921506D01*
X160871395Y-83921501D01*
X160869621Y-83920259D01*
X160790681Y-83864984D01*
X160677834Y-83785967D01*
X160677830Y-83785965D01*
X160579380Y-83740057D01*
X160463663Y-83686097D01*
X160463659Y-83686096D01*
X160463655Y-83686094D01*
X160235413Y-83624938D01*
X160235403Y-83624936D01*
X160000001Y-83604341D01*
X159999999Y-83604341D01*
X159764596Y-83624936D01*
X159764586Y-83624938D01*
X159536344Y-83686094D01*
X159536335Y-83686098D01*
X159322171Y-83785964D01*
X159322169Y-83785965D01*
X159128597Y-83921505D01*
X158961505Y-84088597D01*
X158825965Y-84282169D01*
X158825964Y-84282171D01*
X158726098Y-84496335D01*
X158726094Y-84496344D01*
X158664938Y-84724586D01*
X158664936Y-84724596D01*
X158644341Y-84959999D01*
X158644341Y-84960000D01*
X158664936Y-85195403D01*
X158664938Y-85195413D01*
X158726094Y-85423655D01*
X158726096Y-85423659D01*
X158726097Y-85423663D01*
X158771173Y-85520328D01*
X158825965Y-85637830D01*
X158825967Y-85637834D01*
X158961501Y-85831395D01*
X158961506Y-85831402D01*
X159128597Y-85998493D01*
X159128603Y-85998498D01*
X159314158Y-86128425D01*
X159357783Y-86183002D01*
X159364977Y-86252500D01*
X159333454Y-86314855D01*
X159314158Y-86331575D01*
X159128597Y-86461505D01*
X158961505Y-86628597D01*
X158825965Y-86822169D01*
X158825964Y-86822171D01*
X158726098Y-87036335D01*
X158726094Y-87036344D01*
X158664938Y-87264586D01*
X158664936Y-87264596D01*
X158644341Y-87499999D01*
X158644341Y-87500000D01*
X158664936Y-87735403D01*
X158664938Y-87735413D01*
X158726094Y-87963655D01*
X158726096Y-87963659D01*
X158726097Y-87963663D01*
X158821750Y-88168790D01*
X158825965Y-88177830D01*
X158825967Y-88177834D01*
X158919565Y-88311505D01*
X158957311Y-88365412D01*
X158961501Y-88371395D01*
X158961506Y-88371402D01*
X159128597Y-88538493D01*
X159128603Y-88538498D01*
X159314158Y-88668425D01*
X159357783Y-88723002D01*
X159364977Y-88792500D01*
X159333454Y-88854855D01*
X159314158Y-88871575D01*
X159128597Y-89001505D01*
X158961505Y-89168597D01*
X158825965Y-89362169D01*
X158825964Y-89362171D01*
X158726098Y-89576335D01*
X158726094Y-89576344D01*
X158664938Y-89804586D01*
X158664936Y-89804596D01*
X158644341Y-90039999D01*
X158644341Y-90040000D01*
X158664936Y-90275403D01*
X158664938Y-90275413D01*
X158726094Y-90503655D01*
X158726096Y-90503659D01*
X158726097Y-90503663D01*
X158735597Y-90524035D01*
X158825965Y-90717830D01*
X158825967Y-90717834D01*
X158882438Y-90798482D01*
X158961501Y-90911396D01*
X158961506Y-90911402D01*
X159083430Y-91033326D01*
X159116915Y-91094649D01*
X159111931Y-91164341D01*
X159070059Y-91220274D01*
X159039083Y-91237189D01*
X158907669Y-91286203D01*
X158907664Y-91286206D01*
X158792455Y-91372452D01*
X158792452Y-91372455D01*
X158706206Y-91487664D01*
X158706202Y-91487671D01*
X158655908Y-91622517D01*
X158649501Y-91682116D01*
X158649501Y-91682123D01*
X158649500Y-91682135D01*
X158649500Y-93477870D01*
X158649501Y-93477876D01*
X158655908Y-93537483D01*
X158706202Y-93672328D01*
X158706204Y-93672331D01*
X158776466Y-93766189D01*
X158800884Y-93831653D01*
X158786033Y-93899926D01*
X158736628Y-93949332D01*
X158677200Y-93964500D01*
X153077230Y-93964500D01*
X153010191Y-93944815D01*
X152989549Y-93928181D01*
X152616819Y-93555451D01*
X152583334Y-93494128D01*
X152580500Y-93467770D01*
X152580500Y-90187700D01*
X152600185Y-90120661D01*
X152633375Y-90086126D01*
X152701401Y-90038495D01*
X152868495Y-89871401D01*
X152998730Y-89685405D01*
X153053307Y-89641781D01*
X153122805Y-89634587D01*
X153185160Y-89666110D01*
X153201879Y-89685405D01*
X153331890Y-89871078D01*
X153498917Y-90038105D01*
X153692421Y-90173600D01*
X153906507Y-90273429D01*
X153906516Y-90273433D01*
X154120000Y-90330634D01*
X154120000Y-89433012D01*
X154177007Y-89465925D01*
X154304174Y-89500000D01*
X154435826Y-89500000D01*
X154562993Y-89465925D01*
X154620000Y-89433012D01*
X154620000Y-90330633D01*
X154833483Y-90273433D01*
X154833492Y-90273429D01*
X155047578Y-90173600D01*
X155241078Y-90038108D01*
X155363133Y-89916053D01*
X155424456Y-89882568D01*
X155494148Y-89887552D01*
X155550082Y-89929423D01*
X155566997Y-89960401D01*
X155616202Y-90092328D01*
X155616206Y-90092335D01*
X155702452Y-90207544D01*
X155702455Y-90207547D01*
X155817664Y-90293793D01*
X155817671Y-90293797D01*
X155952517Y-90344091D01*
X155952516Y-90344091D01*
X155959444Y-90344835D01*
X156012127Y-90350500D01*
X157807872Y-90350499D01*
X157867483Y-90344091D01*
X158002331Y-90293796D01*
X158117546Y-90207546D01*
X158203796Y-90092331D01*
X158254091Y-89957483D01*
X158260500Y-89897873D01*
X158260499Y-88102128D01*
X158255299Y-88053757D01*
X158254091Y-88042516D01*
X158203797Y-87907671D01*
X158203793Y-87907664D01*
X158117547Y-87792455D01*
X158117544Y-87792452D01*
X158002335Y-87706206D01*
X158002328Y-87706202D01*
X157867482Y-87655908D01*
X157867483Y-87655908D01*
X157807883Y-87649501D01*
X157807881Y-87649500D01*
X157807873Y-87649500D01*
X157807865Y-87649500D01*
X157784500Y-87649500D01*
X157717461Y-87629815D01*
X157671706Y-87577011D01*
X157660500Y-87525500D01*
X157660500Y-84586079D01*
X157631659Y-84441092D01*
X157631658Y-84441091D01*
X157631658Y-84441087D01*
X157629304Y-84435403D01*
X157575086Y-84304509D01*
X157575085Y-84304507D01*
X157542186Y-84255270D01*
X157542185Y-84255268D01*
X157492956Y-84181589D01*
X157492952Y-84181584D01*
X154728421Y-81417052D01*
X154728414Y-81417046D01*
X154654729Y-81367812D01*
X154654729Y-81367813D01*
X154605491Y-81334913D01*
X154468917Y-81278343D01*
X154468907Y-81278340D01*
X154323920Y-81249500D01*
X154323918Y-81249500D01*
X148049972Y-81249500D01*
X148009017Y-81242542D01*
X147929254Y-81214631D01*
X147929249Y-81214630D01*
X147750004Y-81194435D01*
X147749996Y-81194435D01*
X147570750Y-81214630D01*
X147570745Y-81214631D01*
X147400476Y-81274211D01*
X147247737Y-81370184D01*
X147120184Y-81497737D01*
X147024211Y-81650476D01*
X146964631Y-81820745D01*
X146964630Y-81820750D01*
X146944435Y-81999996D01*
X146944435Y-82000003D01*
X146964630Y-82179249D01*
X146964631Y-82179254D01*
X147024211Y-82349523D01*
X147088485Y-82451813D01*
X147120184Y-82502262D01*
X147247738Y-82629816D01*
X147400478Y-82725789D01*
X147570745Y-82785368D01*
X147570750Y-82785369D01*
X147749996Y-82805565D01*
X147750000Y-82805565D01*
X147750004Y-82805565D01*
X147929249Y-82785369D01*
X147929252Y-82785368D01*
X147929255Y-82785368D01*
X148009017Y-82757457D01*
X148049972Y-82750500D01*
X153887770Y-82750500D01*
X153954809Y-82770185D01*
X153975451Y-82786819D01*
X156123181Y-84934549D01*
X156156666Y-84995872D01*
X156159500Y-85022230D01*
X156159500Y-87525500D01*
X156139815Y-87592539D01*
X156087011Y-87638294D01*
X156035505Y-87649500D01*
X156012132Y-87649500D01*
X156012123Y-87649501D01*
X155952516Y-87655908D01*
X155817671Y-87706202D01*
X155817664Y-87706206D01*
X155702455Y-87792452D01*
X155702452Y-87792455D01*
X155616206Y-87907664D01*
X155616202Y-87907671D01*
X155566997Y-88039598D01*
X155525126Y-88095532D01*
X155459661Y-88119949D01*
X155391388Y-88105097D01*
X155363134Y-88083946D01*
X155241082Y-87961894D01*
X155047578Y-87826399D01*
X154833492Y-87726570D01*
X154833486Y-87726567D01*
X154620000Y-87669364D01*
X154620000Y-88566988D01*
X154562993Y-88534075D01*
X154435826Y-88500000D01*
X154304174Y-88500000D01*
X154177007Y-88534075D01*
X154120000Y-88566988D01*
X154120000Y-87669364D01*
X154119999Y-87669364D01*
X153906513Y-87726567D01*
X153906507Y-87726570D01*
X153692422Y-87826399D01*
X153692420Y-87826400D01*
X153498926Y-87961886D01*
X153498920Y-87961891D01*
X153331891Y-88128920D01*
X153331890Y-88128922D01*
X153201880Y-88314595D01*
X153147303Y-88358219D01*
X153077804Y-88365412D01*
X153015450Y-88333890D01*
X152998730Y-88314594D01*
X152868494Y-88128597D01*
X152701402Y-87961506D01*
X152701395Y-87961501D01*
X152683590Y-87949034D01*
X152662521Y-87934281D01*
X152507834Y-87825967D01*
X152507830Y-87825965D01*
X152507828Y-87825964D01*
X152293663Y-87726097D01*
X152293659Y-87726096D01*
X152293655Y-87726094D01*
X152065413Y-87664938D01*
X152065403Y-87664936D01*
X151830001Y-87644341D01*
X151829999Y-87644341D01*
X151594596Y-87664936D01*
X151594586Y-87664938D01*
X151366344Y-87726094D01*
X151366337Y-87726096D01*
X151366337Y-87726097D01*
X151360253Y-87728934D01*
X151152171Y-87825964D01*
X151152169Y-87825965D01*
X150958597Y-87961505D01*
X150791505Y-88128597D01*
X150661575Y-88314158D01*
X150606998Y-88357783D01*
X150537500Y-88364977D01*
X150475145Y-88333454D01*
X150458425Y-88314158D01*
X150328494Y-88128597D01*
X150161402Y-87961506D01*
X150161395Y-87961501D01*
X150143590Y-87949034D01*
X150122521Y-87934281D01*
X149967834Y-87825967D01*
X149967830Y-87825965D01*
X149967828Y-87825964D01*
X149753663Y-87726097D01*
X149753659Y-87726096D01*
X149753655Y-87726094D01*
X149525413Y-87664938D01*
X149525403Y-87664936D01*
X149290001Y-87644341D01*
X149289999Y-87644341D01*
X149054596Y-87664936D01*
X149054586Y-87664938D01*
X148826344Y-87726094D01*
X148826337Y-87726096D01*
X148826337Y-87726097D01*
X148820253Y-87728934D01*
X148612171Y-87825964D01*
X148612169Y-87825965D01*
X148418597Y-87961505D01*
X148251505Y-88128597D01*
X148121575Y-88314158D01*
X148066998Y-88357783D01*
X147997500Y-88364977D01*
X147935145Y-88333454D01*
X147918425Y-88314158D01*
X147788494Y-88128597D01*
X147621402Y-87961506D01*
X147621395Y-87961501D01*
X147603590Y-87949034D01*
X147582521Y-87934281D01*
X147427834Y-87825967D01*
X147427830Y-87825965D01*
X147427828Y-87825964D01*
X147213663Y-87726097D01*
X147213659Y-87726096D01*
X147213655Y-87726094D01*
X146985413Y-87664938D01*
X146985403Y-87664936D01*
X146750001Y-87644341D01*
X146749999Y-87644341D01*
X146514596Y-87664936D01*
X146514586Y-87664938D01*
X146286344Y-87726094D01*
X146286337Y-87726096D01*
X146286337Y-87726097D01*
X146280253Y-87728934D01*
X146072171Y-87825964D01*
X146072169Y-87825965D01*
X145878597Y-87961505D01*
X145711505Y-88128597D01*
X145581575Y-88314158D01*
X145526998Y-88357783D01*
X145457500Y-88364977D01*
X145395145Y-88333454D01*
X145378425Y-88314158D01*
X145248494Y-88128597D01*
X145081402Y-87961506D01*
X145081395Y-87961501D01*
X145063590Y-87949034D01*
X145042521Y-87934281D01*
X144887834Y-87825967D01*
X144887830Y-87825965D01*
X144887828Y-87825964D01*
X144673663Y-87726097D01*
X144673659Y-87726096D01*
X144673655Y-87726094D01*
X144445413Y-87664938D01*
X144445403Y-87664936D01*
X144210001Y-87644341D01*
X144209999Y-87644341D01*
X143974596Y-87664936D01*
X143974586Y-87664938D01*
X143746344Y-87726094D01*
X143746337Y-87726096D01*
X143746337Y-87726097D01*
X143740253Y-87728934D01*
X143532171Y-87825964D01*
X143532169Y-87825965D01*
X143338597Y-87961505D01*
X143171506Y-88128596D01*
X143123874Y-88196623D01*
X143069297Y-88240248D01*
X143022299Y-88249500D01*
X141624500Y-88249500D01*
X141557461Y-88229815D01*
X141511706Y-88177011D01*
X141500500Y-88125500D01*
X141500500Y-79926081D01*
X141494763Y-79897242D01*
X141494763Y-79897240D01*
X141471660Y-79781095D01*
X141471659Y-79781088D01*
X141417408Y-79650117D01*
X141415764Y-79645522D01*
X141332954Y-79521588D01*
X141332953Y-79521587D01*
X141332951Y-79521584D01*
X141228416Y-79417049D01*
X141228415Y-79417048D01*
X141121770Y-79310403D01*
X140228421Y-78417052D01*
X140228414Y-78417046D01*
X140154729Y-78367812D01*
X140154729Y-78367813D01*
X140105491Y-78334913D01*
X139968917Y-78278343D01*
X139968907Y-78278340D01*
X139823920Y-78249500D01*
X139823918Y-78249500D01*
X133186132Y-78249500D01*
X133186126Y-78249500D01*
X133157292Y-78255234D01*
X133157293Y-78255235D01*
X133041143Y-78278339D01*
X133041133Y-78278342D01*
X132961131Y-78311479D01*
X132961132Y-78311480D01*
X132904555Y-78334915D01*
X132822422Y-78389795D01*
X132781635Y-78417047D01*
X132781631Y-78417050D01*
X131212181Y-79986501D01*
X131150858Y-80019986D01*
X131081166Y-80015002D01*
X131025233Y-79973130D01*
X131000816Y-79907666D01*
X131000500Y-79898820D01*
X131000500Y-72624500D01*
X131020185Y-72557461D01*
X131072989Y-72511706D01*
X131124500Y-72500500D01*
X168625500Y-72500500D01*
X168692539Y-72520185D01*
G37*
%TD.AperFunction*%
%TA.AperFunction,Conductor*%
G36*
X136394702Y-80770185D02*
G01*
X136440457Y-80822989D01*
X136450401Y-80892147D01*
X136426930Y-80948811D01*
X136337203Y-81068669D01*
X136337202Y-81068671D01*
X136286908Y-81203517D01*
X136280501Y-81263116D01*
X136280500Y-81263135D01*
X136280500Y-82766870D01*
X136280501Y-82766876D01*
X136286908Y-82826483D01*
X136337202Y-82961328D01*
X136337206Y-82961335D01*
X136423452Y-83076544D01*
X136423455Y-83076547D01*
X136538664Y-83162793D01*
X136538671Y-83162797D01*
X136673517Y-83213091D01*
X136673516Y-83213091D01*
X136680444Y-83213835D01*
X136733127Y-83219500D01*
X136934649Y-83219499D01*
X137001687Y-83239183D01*
X137047442Y-83291987D01*
X137057386Y-83361145D01*
X137028361Y-83424701D01*
X136979445Y-83459124D01*
X136945819Y-83472151D01*
X136945804Y-83472158D01*
X136756025Y-83589664D01*
X136756015Y-83589671D01*
X136591051Y-83740055D01*
X136456526Y-83918195D01*
X136357026Y-84118018D01*
X136357023Y-84118024D01*
X136295937Y-84332723D01*
X136295936Y-84332726D01*
X136275340Y-84554999D01*
X136275340Y-84555000D01*
X136295936Y-84777273D01*
X136295937Y-84777276D01*
X136357023Y-84991975D01*
X136357026Y-84991981D01*
X136456526Y-85191804D01*
X136591051Y-85369944D01*
X136595539Y-85374035D01*
X136756017Y-85520330D01*
X136756024Y-85520334D01*
X136756025Y-85520335D01*
X136945804Y-85637841D01*
X136945805Y-85637841D01*
X136945808Y-85637843D01*
X137130452Y-85709374D01*
X137185851Y-85751946D01*
X137209442Y-85817713D01*
X137193731Y-85885793D01*
X137143707Y-85934572D01*
X137130461Y-85940621D01*
X136987216Y-85996115D01*
X136945810Y-86012156D01*
X136945804Y-86012158D01*
X136756025Y-86129664D01*
X136756015Y-86129671D01*
X136591051Y-86280055D01*
X136456526Y-86458195D01*
X136357026Y-86658018D01*
X136357023Y-86658024D01*
X136295937Y-86872723D01*
X136295936Y-86872726D01*
X136275340Y-87094999D01*
X136275340Y-87095000D01*
X136295936Y-87317273D01*
X136295937Y-87317276D01*
X136357023Y-87531975D01*
X136357026Y-87531981D01*
X136415544Y-87649501D01*
X136456526Y-87731804D01*
X136591050Y-87909943D01*
X136756017Y-88060330D01*
X136756024Y-88060334D01*
X136756025Y-88060335D01*
X136945804Y-88177841D01*
X136945805Y-88177841D01*
X136945808Y-88177843D01*
X137130452Y-88249374D01*
X137185851Y-88291946D01*
X137209442Y-88357713D01*
X137193731Y-88425793D01*
X137143707Y-88474572D01*
X137130461Y-88480621D01*
X137008250Y-88527967D01*
X136945810Y-88552156D01*
X136945804Y-88552158D01*
X136756025Y-88669664D01*
X136756015Y-88669671D01*
X136591051Y-88820055D01*
X136456526Y-88998195D01*
X136357026Y-89198018D01*
X136357023Y-89198024D01*
X136295937Y-89412723D01*
X136295936Y-89412726D01*
X136275340Y-89634999D01*
X136275340Y-89635000D01*
X136295936Y-89857273D01*
X136295937Y-89857276D01*
X136357023Y-90071975D01*
X136357026Y-90071981D01*
X136454100Y-90266932D01*
X136456526Y-90271804D01*
X136591050Y-90449943D01*
X136756017Y-90600330D01*
X136756024Y-90600334D01*
X136756025Y-90600335D01*
X136945804Y-90717841D01*
X136945805Y-90717841D01*
X136945808Y-90717843D01*
X137130452Y-90789374D01*
X137185851Y-90831946D01*
X137209442Y-90897713D01*
X137193731Y-90965793D01*
X137143707Y-91014572D01*
X137130461Y-91020621D01*
X136987216Y-91076115D01*
X136945810Y-91092156D01*
X136945804Y-91092158D01*
X136756025Y-91209664D01*
X136756015Y-91209671D01*
X136591051Y-91360055D01*
X136456526Y-91538195D01*
X136357026Y-91738018D01*
X136357023Y-91738024D01*
X136295937Y-91952723D01*
X136295936Y-91952726D01*
X136275340Y-92174999D01*
X136275340Y-92175000D01*
X136295936Y-92397273D01*
X136295937Y-92397276D01*
X136357023Y-92611975D01*
X136357026Y-92611980D01*
X136456526Y-92811804D01*
X136591050Y-92989943D01*
X136756017Y-93140330D01*
X136756024Y-93140334D01*
X136756025Y-93140335D01*
X136945804Y-93257841D01*
X136945805Y-93257841D01*
X136945808Y-93257843D01*
X137130452Y-93329374D01*
X137185851Y-93371946D01*
X137209442Y-93437713D01*
X137193731Y-93505793D01*
X137143707Y-93554572D01*
X137130461Y-93560621D01*
X136987216Y-93616115D01*
X136945810Y-93632156D01*
X136945804Y-93632158D01*
X136756025Y-93749664D01*
X136756015Y-93749671D01*
X136591051Y-93900055D01*
X136456526Y-94078195D01*
X136357026Y-94278018D01*
X136357023Y-94278024D01*
X136295937Y-94492723D01*
X136295936Y-94492726D01*
X136275340Y-94714999D01*
X136275340Y-94715000D01*
X136295936Y-94937273D01*
X136295937Y-94937276D01*
X136357023Y-95151975D01*
X136357026Y-95151980D01*
X136456526Y-95351804D01*
X136591050Y-95529943D01*
X136756017Y-95680330D01*
X136756024Y-95680334D01*
X136756025Y-95680335D01*
X136945804Y-95797841D01*
X136945805Y-95797841D01*
X136945808Y-95797843D01*
X137130452Y-95869374D01*
X137185851Y-95911946D01*
X137209442Y-95977713D01*
X137193731Y-96045793D01*
X137143707Y-96094572D01*
X137130461Y-96100621D01*
X136987216Y-96156115D01*
X136945810Y-96172156D01*
X136945804Y-96172158D01*
X136756025Y-96289664D01*
X136756015Y-96289671D01*
X136591051Y-96440055D01*
X136456526Y-96618195D01*
X136357026Y-96818018D01*
X136357023Y-96818024D01*
X136295937Y-97032723D01*
X136295936Y-97032726D01*
X136275340Y-97254999D01*
X136275340Y-97255000D01*
X136295936Y-97477273D01*
X136295937Y-97477276D01*
X136357023Y-97691975D01*
X136357026Y-97691980D01*
X136456526Y-97891804D01*
X136591050Y-98069943D01*
X136756017Y-98220330D01*
X136756024Y-98220334D01*
X136756025Y-98220335D01*
X136945804Y-98337841D01*
X136945805Y-98337841D01*
X136945808Y-98337843D01*
X137130452Y-98409374D01*
X137185851Y-98451946D01*
X137209442Y-98517713D01*
X137193731Y-98585793D01*
X137143707Y-98634572D01*
X137130461Y-98640621D01*
X137006618Y-98688599D01*
X136945810Y-98712156D01*
X136945804Y-98712158D01*
X136756025Y-98829664D01*
X136756015Y-98829671D01*
X136591051Y-98980055D01*
X136456526Y-99158195D01*
X136357026Y-99358018D01*
X136357023Y-99358024D01*
X136295937Y-99572723D01*
X136295936Y-99572726D01*
X136275340Y-99794999D01*
X136275340Y-99795000D01*
X136295936Y-100017273D01*
X136295937Y-100017276D01*
X136357023Y-100231975D01*
X136357026Y-100231981D01*
X136404041Y-100326399D01*
X136456526Y-100431804D01*
X136587390Y-100605097D01*
X136591051Y-100609944D01*
X136611515Y-100628599D01*
X136756017Y-100760330D01*
X136756024Y-100760334D01*
X136756025Y-100760335D01*
X136945804Y-100877841D01*
X136945805Y-100877841D01*
X136945808Y-100877843D01*
X137130452Y-100949374D01*
X137185851Y-100991946D01*
X137209442Y-101057713D01*
X137193731Y-101125793D01*
X137143707Y-101174572D01*
X137130461Y-101180621D01*
X137005790Y-101228920D01*
X136945810Y-101252156D01*
X136945804Y-101252158D01*
X136756025Y-101369664D01*
X136756015Y-101369671D01*
X136591051Y-101520055D01*
X136456526Y-101698195D01*
X136357026Y-101898018D01*
X136357023Y-101898024D01*
X136295937Y-102112723D01*
X136295936Y-102112726D01*
X136275340Y-102334999D01*
X136275340Y-102335000D01*
X136295936Y-102557273D01*
X136295937Y-102557276D01*
X136357023Y-102771975D01*
X136357026Y-102771981D01*
X136424498Y-102907483D01*
X136456526Y-102971804D01*
X136591050Y-103149943D01*
X136756017Y-103300330D01*
X136756024Y-103300334D01*
X136756025Y-103300335D01*
X136945804Y-103417841D01*
X136945805Y-103417841D01*
X136945808Y-103417843D01*
X137130452Y-103489374D01*
X137185851Y-103531946D01*
X137209442Y-103597713D01*
X137193731Y-103665793D01*
X137143707Y-103714572D01*
X137130461Y-103720621D01*
X137006618Y-103768599D01*
X136945810Y-103792156D01*
X136945804Y-103792158D01*
X136756025Y-103909664D01*
X136756015Y-103909671D01*
X136591051Y-104060055D01*
X136456526Y-104238195D01*
X136357026Y-104438018D01*
X136357023Y-104438024D01*
X136295937Y-104652723D01*
X136295936Y-104652726D01*
X136275340Y-104874999D01*
X136275340Y-104875000D01*
X136295936Y-105097273D01*
X136295937Y-105097276D01*
X136357023Y-105311975D01*
X136357026Y-105311981D01*
X136381635Y-105361402D01*
X136456526Y-105511804D01*
X136591050Y-105689943D01*
X136756017Y-105840330D01*
X136756024Y-105840334D01*
X136756025Y-105840335D01*
X136945804Y-105957841D01*
X136945805Y-105957841D01*
X136945808Y-105957843D01*
X137130452Y-106029374D01*
X137185851Y-106071946D01*
X137209442Y-106137713D01*
X137193731Y-106205793D01*
X137143707Y-106254572D01*
X137130461Y-106260621D01*
X137005790Y-106308920D01*
X136945810Y-106332156D01*
X136945804Y-106332158D01*
X136756025Y-106449664D01*
X136756015Y-106449671D01*
X136591051Y-106600055D01*
X136456526Y-106778195D01*
X136357026Y-106978018D01*
X136357023Y-106978024D01*
X136295937Y-107192723D01*
X136295936Y-107192726D01*
X136275340Y-107414999D01*
X136275340Y-107415000D01*
X136295936Y-107637273D01*
X136295937Y-107637276D01*
X136357023Y-107851975D01*
X136357026Y-107851981D01*
X136381635Y-107901402D01*
X136456526Y-108051804D01*
X136591050Y-108229943D01*
X136756017Y-108380330D01*
X136756024Y-108380334D01*
X136756025Y-108380335D01*
X136945804Y-108497841D01*
X136945805Y-108497841D01*
X136945808Y-108497843D01*
X137130452Y-108569374D01*
X137185851Y-108611946D01*
X137209442Y-108677713D01*
X137193731Y-108745793D01*
X137143707Y-108794572D01*
X137130461Y-108800621D01*
X137006618Y-108848599D01*
X136945810Y-108872156D01*
X136945804Y-108872158D01*
X136756025Y-108989664D01*
X136756015Y-108989671D01*
X136591051Y-109140055D01*
X136456526Y-109318195D01*
X136357026Y-109518018D01*
X136357023Y-109518024D01*
X136295937Y-109732723D01*
X136295936Y-109732726D01*
X136275340Y-109954999D01*
X136275340Y-109955000D01*
X136295936Y-110177273D01*
X136295937Y-110177276D01*
X136357023Y-110391975D01*
X136357026Y-110391981D01*
X136381635Y-110441402D01*
X136456526Y-110591804D01*
X136591050Y-110769943D01*
X136756017Y-110920330D01*
X136756024Y-110920334D01*
X136756025Y-110920335D01*
X136945804Y-111037841D01*
X136945805Y-111037841D01*
X136945808Y-111037843D01*
X137130452Y-111109374D01*
X137185851Y-111151946D01*
X137209442Y-111217713D01*
X137193731Y-111285793D01*
X137143707Y-111334572D01*
X137130461Y-111340621D01*
X137005790Y-111388920D01*
X136945810Y-111412156D01*
X136945804Y-111412158D01*
X136756025Y-111529664D01*
X136756015Y-111529671D01*
X136591051Y-111680055D01*
X136456526Y-111858195D01*
X136357026Y-112058018D01*
X136357023Y-112058024D01*
X136295937Y-112272723D01*
X136295936Y-112272726D01*
X136275340Y-112494999D01*
X136275340Y-112495000D01*
X136295936Y-112717273D01*
X136295937Y-112717276D01*
X136357023Y-112931975D01*
X136357026Y-112931981D01*
X136450623Y-113119949D01*
X136456526Y-113131804D01*
X136582110Y-113298105D01*
X136591051Y-113309944D01*
X136616840Y-113333454D01*
X136756017Y-113460330D01*
X136756024Y-113460334D01*
X136756025Y-113460335D01*
X136945804Y-113577841D01*
X136945805Y-113577841D01*
X136945808Y-113577843D01*
X137130452Y-113649374D01*
X137185851Y-113691946D01*
X137209442Y-113757713D01*
X137193731Y-113825793D01*
X137143707Y-113874572D01*
X137130461Y-113880621D01*
X137005790Y-113928920D01*
X136945810Y-113952156D01*
X136945804Y-113952158D01*
X136756025Y-114069664D01*
X136756015Y-114069671D01*
X136591051Y-114220055D01*
X136456526Y-114398195D01*
X136357026Y-114598018D01*
X136357023Y-114598024D01*
X136295937Y-114812723D01*
X136295936Y-114812726D01*
X136275340Y-115034999D01*
X136275340Y-115035000D01*
X136295936Y-115257273D01*
X136295937Y-115257276D01*
X136357023Y-115471975D01*
X136357026Y-115471981D01*
X136428906Y-115616335D01*
X136456526Y-115671804D01*
X136591050Y-115849943D01*
X136756017Y-116000330D01*
X136756024Y-116000334D01*
X136756025Y-116000335D01*
X136945804Y-116117841D01*
X136945805Y-116117841D01*
X136945808Y-116117843D01*
X137130452Y-116189374D01*
X137185851Y-116231946D01*
X137209442Y-116297713D01*
X137193731Y-116365793D01*
X137143707Y-116414572D01*
X137130461Y-116420621D01*
X137006618Y-116468599D01*
X136945810Y-116492156D01*
X136945804Y-116492158D01*
X136756025Y-116609664D01*
X136756015Y-116609671D01*
X136591051Y-116760055D01*
X136456526Y-116938195D01*
X136357026Y-117138018D01*
X136357023Y-117138024D01*
X136295937Y-117352723D01*
X136295936Y-117352726D01*
X136275340Y-117574999D01*
X136275340Y-117575000D01*
X136295936Y-117797273D01*
X136295937Y-117797276D01*
X136357023Y-118011975D01*
X136357026Y-118011981D01*
X136405500Y-118109330D01*
X136456526Y-118211804D01*
X136591050Y-118389943D01*
X136756017Y-118540330D01*
X136756024Y-118540334D01*
X136756025Y-118540335D01*
X136945804Y-118657841D01*
X136945805Y-118657841D01*
X136945808Y-118657843D01*
X137130452Y-118729374D01*
X137185851Y-118771946D01*
X137209442Y-118837713D01*
X137193731Y-118905793D01*
X137143707Y-118954572D01*
X137130461Y-118960621D01*
X137008603Y-119007830D01*
X136945810Y-119032156D01*
X136945804Y-119032158D01*
X136756025Y-119149664D01*
X136756015Y-119149671D01*
X136591051Y-119300055D01*
X136456526Y-119478195D01*
X136357026Y-119678018D01*
X136357023Y-119678024D01*
X136295937Y-119892723D01*
X136295936Y-119892726D01*
X136275340Y-120114999D01*
X136275340Y-120115000D01*
X136295936Y-120337273D01*
X136295937Y-120337276D01*
X136357023Y-120551975D01*
X136357026Y-120551981D01*
X136400422Y-120639132D01*
X136456526Y-120751804D01*
X136591050Y-120929943D01*
X136756017Y-121080330D01*
X136756024Y-121080334D01*
X136756025Y-121080335D01*
X136945804Y-121197841D01*
X136945805Y-121197841D01*
X136945808Y-121197843D01*
X137130452Y-121269374D01*
X137185851Y-121311946D01*
X137209442Y-121377713D01*
X137193731Y-121445793D01*
X137143707Y-121494572D01*
X137130461Y-121500621D01*
X137006618Y-121548599D01*
X136945810Y-121572156D01*
X136945804Y-121572158D01*
X136756025Y-121689664D01*
X136756015Y-121689671D01*
X136591051Y-121840055D01*
X136456526Y-122018195D01*
X136357026Y-122218018D01*
X136357023Y-122218024D01*
X136295937Y-122432723D01*
X136295936Y-122432726D01*
X136275340Y-122654999D01*
X136275340Y-122655000D01*
X136295936Y-122877273D01*
X136295937Y-122877276D01*
X136357023Y-123091975D01*
X136357026Y-123091981D01*
X136371676Y-123121402D01*
X136456526Y-123291804D01*
X136591050Y-123469943D01*
X136756017Y-123620330D01*
X136756024Y-123620334D01*
X136756025Y-123620335D01*
X136945804Y-123737841D01*
X136945805Y-123737841D01*
X136945808Y-123737843D01*
X137130452Y-123809374D01*
X137185851Y-123851946D01*
X137209442Y-123917713D01*
X137193731Y-123985793D01*
X137143707Y-124034572D01*
X137130461Y-124040621D01*
X137005790Y-124088920D01*
X136945810Y-124112156D01*
X136945804Y-124112158D01*
X136756025Y-124229664D01*
X136756015Y-124229671D01*
X136591051Y-124380055D01*
X136456526Y-124558195D01*
X136357026Y-124758018D01*
X136357023Y-124758024D01*
X136295937Y-124972723D01*
X136295936Y-124972726D01*
X136275340Y-125194999D01*
X136275340Y-125195000D01*
X136295936Y-125417273D01*
X136295937Y-125417276D01*
X136357023Y-125631975D01*
X136357026Y-125631981D01*
X136447739Y-125814158D01*
X136456526Y-125831804D01*
X136591050Y-126009943D01*
X136756017Y-126160330D01*
X136756024Y-126160334D01*
X136756025Y-126160335D01*
X136945804Y-126277841D01*
X136945805Y-126277841D01*
X136945808Y-126277843D01*
X137130452Y-126349374D01*
X137185851Y-126391946D01*
X137209442Y-126457713D01*
X137193731Y-126525793D01*
X137143707Y-126574572D01*
X137130461Y-126580621D01*
X136987216Y-126636115D01*
X136945810Y-126652156D01*
X136945804Y-126652158D01*
X136756025Y-126769664D01*
X136756015Y-126769671D01*
X136591050Y-126920055D01*
X136579593Y-126935228D01*
X136523484Y-126976863D01*
X136480640Y-126984500D01*
X135474499Y-126984500D01*
X135407460Y-126964815D01*
X135361705Y-126912011D01*
X135350499Y-126860500D01*
X135350499Y-126602129D01*
X135350498Y-126602123D01*
X135348187Y-126580627D01*
X135344091Y-126542517D01*
X135342426Y-126538054D01*
X135293797Y-126407671D01*
X135293793Y-126407664D01*
X135207547Y-126292455D01*
X135207544Y-126292452D01*
X135092335Y-126206206D01*
X135092328Y-126206202D01*
X134960401Y-126156997D01*
X134904467Y-126115126D01*
X134880050Y-126049662D01*
X134894902Y-125981389D01*
X134916053Y-125953133D01*
X135038108Y-125831078D01*
X135173600Y-125637578D01*
X135273429Y-125423492D01*
X135273432Y-125423486D01*
X135330636Y-125210000D01*
X134433012Y-125210000D01*
X134465925Y-125152993D01*
X134500000Y-125025826D01*
X134500000Y-124894174D01*
X134465925Y-124767007D01*
X134433012Y-124710000D01*
X135330636Y-124710000D01*
X135330635Y-124709999D01*
X135273432Y-124496513D01*
X135273429Y-124496507D01*
X135173600Y-124282422D01*
X135173599Y-124282420D01*
X135038113Y-124088926D01*
X135038108Y-124088920D01*
X134871078Y-123921890D01*
X134685405Y-123791879D01*
X134641780Y-123737302D01*
X134634588Y-123667804D01*
X134666110Y-123605449D01*
X134685406Y-123588730D01*
X134693862Y-123582809D01*
X134871401Y-123458495D01*
X135038495Y-123291401D01*
X135174035Y-123097830D01*
X135273903Y-122883663D01*
X135335063Y-122655408D01*
X135355659Y-122420000D01*
X135335063Y-122184592D01*
X135273903Y-121956337D01*
X135174035Y-121742171D01*
X135137275Y-121689671D01*
X135038494Y-121548597D01*
X134871402Y-121381506D01*
X134871401Y-121381505D01*
X134685405Y-121251269D01*
X134641781Y-121196692D01*
X134634588Y-121127193D01*
X134666110Y-121064839D01*
X134685405Y-121048119D01*
X134871082Y-120918105D01*
X135038105Y-120751082D01*
X135173600Y-120557578D01*
X135273429Y-120343492D01*
X135273432Y-120343486D01*
X135330636Y-120130000D01*
X134433012Y-120130000D01*
X134465925Y-120072993D01*
X134500000Y-119945826D01*
X134500000Y-119814174D01*
X134465925Y-119687007D01*
X134433012Y-119630000D01*
X135330636Y-119630000D01*
X135330635Y-119629999D01*
X135273432Y-119416513D01*
X135273429Y-119416507D01*
X135173600Y-119202422D01*
X135173599Y-119202420D01*
X135038113Y-119008926D01*
X135038108Y-119008920D01*
X134871078Y-118841890D01*
X134685405Y-118711879D01*
X134641780Y-118657302D01*
X134634588Y-118587804D01*
X134666110Y-118525449D01*
X134685406Y-118508730D01*
X134871401Y-118378495D01*
X135038495Y-118211401D01*
X135174035Y-118017830D01*
X135273903Y-117803663D01*
X135335063Y-117575408D01*
X135355659Y-117340000D01*
X135335063Y-117104592D01*
X135273903Y-116876337D01*
X135174035Y-116662171D01*
X135137275Y-116609671D01*
X135038494Y-116468597D01*
X134871402Y-116301506D01*
X134871401Y-116301505D01*
X134685405Y-116171269D01*
X134641781Y-116116692D01*
X134634588Y-116047193D01*
X134666110Y-115984839D01*
X134685405Y-115968119D01*
X134871082Y-115838105D01*
X135038105Y-115671082D01*
X135173600Y-115477578D01*
X135273429Y-115263492D01*
X135273432Y-115263486D01*
X135330636Y-115050000D01*
X134433012Y-115050000D01*
X134465925Y-114992993D01*
X134500000Y-114865826D01*
X134500000Y-114734174D01*
X134465925Y-114607007D01*
X134433012Y-114550000D01*
X135330636Y-114550000D01*
X135330635Y-114549999D01*
X135273432Y-114336513D01*
X135273429Y-114336507D01*
X135173600Y-114122422D01*
X135173599Y-114122420D01*
X135038113Y-113928926D01*
X135038108Y-113928920D01*
X134871082Y-113761894D01*
X134684968Y-113631575D01*
X134641344Y-113576998D01*
X134634151Y-113507499D01*
X134665673Y-113445145D01*
X134684968Y-113428425D01*
X134871082Y-113298105D01*
X135038105Y-113131082D01*
X135173600Y-112937578D01*
X135273429Y-112723492D01*
X135273432Y-112723486D01*
X135330636Y-112510000D01*
X134433012Y-112510000D01*
X134465925Y-112452993D01*
X134500000Y-112325826D01*
X134500000Y-112194174D01*
X134465925Y-112067007D01*
X134433012Y-112010000D01*
X135330636Y-112010000D01*
X135330635Y-112009999D01*
X135273432Y-111796513D01*
X135273429Y-111796507D01*
X135173600Y-111582422D01*
X135173599Y-111582420D01*
X135038113Y-111388926D01*
X135038108Y-111388920D01*
X134871078Y-111221890D01*
X134685405Y-111091879D01*
X134641780Y-111037302D01*
X134634588Y-110967804D01*
X134666110Y-110905449D01*
X134685406Y-110888730D01*
X134749423Y-110843905D01*
X134871401Y-110758495D01*
X135038495Y-110591401D01*
X135174035Y-110397830D01*
X135273903Y-110183663D01*
X135335063Y-109955408D01*
X135355659Y-109720000D01*
X135335063Y-109484592D01*
X135273903Y-109256337D01*
X135174035Y-109042171D01*
X135137275Y-108989671D01*
X135038494Y-108848597D01*
X134871402Y-108681506D01*
X134871401Y-108681505D01*
X134685405Y-108551269D01*
X134641781Y-108496692D01*
X134634588Y-108427193D01*
X134666110Y-108364839D01*
X134685405Y-108348119D01*
X134871082Y-108218105D01*
X135038105Y-108051082D01*
X135173600Y-107857578D01*
X135273429Y-107643492D01*
X135273432Y-107643486D01*
X135330636Y-107430000D01*
X134433012Y-107430000D01*
X134465925Y-107372993D01*
X134500000Y-107245826D01*
X134500000Y-107114174D01*
X134465925Y-106987007D01*
X134433012Y-106930000D01*
X135330636Y-106930000D01*
X135330635Y-106929999D01*
X135273432Y-106716513D01*
X135273429Y-106716507D01*
X135173600Y-106502422D01*
X135173599Y-106502420D01*
X135038113Y-106308926D01*
X135038108Y-106308920D01*
X134871078Y-106141890D01*
X134685405Y-106011879D01*
X134641780Y-105957302D01*
X134634588Y-105887804D01*
X134666110Y-105825449D01*
X134685406Y-105808730D01*
X134687880Y-105806998D01*
X134871401Y-105678495D01*
X135038495Y-105511401D01*
X135174035Y-105317830D01*
X135273903Y-105103663D01*
X135335063Y-104875408D01*
X135355659Y-104640000D01*
X135335063Y-104404592D01*
X135273903Y-104176337D01*
X135174035Y-103962171D01*
X135171533Y-103958597D01*
X135038494Y-103768597D01*
X134871402Y-103601506D01*
X134871401Y-103601505D01*
X134685405Y-103471269D01*
X134641781Y-103416692D01*
X134634588Y-103347193D01*
X134666110Y-103284839D01*
X134685405Y-103268119D01*
X134871082Y-103138105D01*
X135038105Y-102971082D01*
X135173600Y-102777578D01*
X135273429Y-102563492D01*
X135273432Y-102563486D01*
X135330636Y-102350000D01*
X134433012Y-102350000D01*
X134465925Y-102292993D01*
X134500000Y-102165826D01*
X134500000Y-102034174D01*
X134465925Y-101907007D01*
X134433012Y-101850000D01*
X135330636Y-101850000D01*
X135330635Y-101849999D01*
X135273432Y-101636513D01*
X135273429Y-101636507D01*
X135173600Y-101422422D01*
X135173599Y-101422420D01*
X135038113Y-101228926D01*
X135038108Y-101228920D01*
X134871078Y-101061890D01*
X134685405Y-100931879D01*
X134641780Y-100877302D01*
X134634588Y-100807804D01*
X134666110Y-100745449D01*
X134685406Y-100728730D01*
X134871401Y-100598495D01*
X135038495Y-100431401D01*
X135174035Y-100237830D01*
X135273903Y-100023663D01*
X135335063Y-99795408D01*
X135355659Y-99560000D01*
X135335063Y-99324592D01*
X135273903Y-99096337D01*
X135174035Y-98882171D01*
X135171533Y-98878597D01*
X135038494Y-98688597D01*
X134871402Y-98521506D01*
X134871395Y-98521501D01*
X134677834Y-98385967D01*
X134677830Y-98385965D01*
X134650024Y-98372999D01*
X134463663Y-98286097D01*
X134463659Y-98286096D01*
X134463655Y-98286094D01*
X134235413Y-98224938D01*
X134235403Y-98224936D01*
X134000001Y-98204341D01*
X133999999Y-98204341D01*
X133764596Y-98224936D01*
X133764586Y-98224938D01*
X133536344Y-98286094D01*
X133536335Y-98286098D01*
X133322171Y-98385964D01*
X133322169Y-98385965D01*
X133195623Y-98474574D01*
X133129417Y-98496901D01*
X133061650Y-98479891D01*
X133013837Y-98428943D01*
X133000500Y-98372999D01*
X133000500Y-97007001D01*
X133020185Y-96939962D01*
X133072989Y-96894207D01*
X133142147Y-96884263D01*
X133195622Y-96905425D01*
X133322170Y-96994035D01*
X133536337Y-97093903D01*
X133764592Y-97155063D01*
X133952918Y-97171539D01*
X133999999Y-97175659D01*
X134000000Y-97175659D01*
X134000001Y-97175659D01*
X134039234Y-97172226D01*
X134235408Y-97155063D01*
X134463663Y-97093903D01*
X134677830Y-96994035D01*
X134871401Y-96858495D01*
X135038495Y-96691401D01*
X135174035Y-96497830D01*
X135273903Y-96283663D01*
X135335063Y-96055408D01*
X135355659Y-95820000D01*
X135353720Y-95797843D01*
X135351539Y-95772918D01*
X135335063Y-95584592D01*
X135273903Y-95356337D01*
X135174035Y-95142171D01*
X135163997Y-95127834D01*
X135038494Y-94948597D01*
X134871402Y-94781506D01*
X134871396Y-94781501D01*
X134685842Y-94651575D01*
X134642217Y-94596998D01*
X134635023Y-94527500D01*
X134666546Y-94465145D01*
X134685842Y-94448425D01*
X134708026Y-94432891D01*
X134871401Y-94318495D01*
X135038495Y-94151401D01*
X135174035Y-93957830D01*
X135273903Y-93743663D01*
X135335063Y-93515408D01*
X135355659Y-93280000D01*
X135353720Y-93257843D01*
X135345002Y-93158191D01*
X135335063Y-93044592D01*
X135273903Y-92816337D01*
X135174035Y-92602171D01*
X135139487Y-92552830D01*
X135038494Y-92408597D01*
X134871402Y-92241506D01*
X134871396Y-92241501D01*
X134685842Y-92111575D01*
X134642217Y-92056998D01*
X134635023Y-91987500D01*
X134666546Y-91925145D01*
X134685842Y-91908425D01*
X134733579Y-91874999D01*
X134871401Y-91778495D01*
X135038495Y-91611401D01*
X135174035Y-91417830D01*
X135273903Y-91203663D01*
X135335063Y-90975408D01*
X135355659Y-90740000D01*
X135353720Y-90717843D01*
X135344504Y-90612500D01*
X135335063Y-90504592D01*
X135273903Y-90276337D01*
X135174035Y-90062171D01*
X135149989Y-90027830D01*
X135038496Y-89868600D01*
X134983551Y-89813655D01*
X134916567Y-89746671D01*
X134883084Y-89685351D01*
X134888068Y-89615659D01*
X134929939Y-89559725D01*
X134960915Y-89542810D01*
X135092331Y-89493796D01*
X135207546Y-89407546D01*
X135293796Y-89292331D01*
X135344091Y-89157483D01*
X135350500Y-89097873D01*
X135350499Y-87302128D01*
X135344091Y-87242517D01*
X135293796Y-87107669D01*
X135293795Y-87107668D01*
X135293793Y-87107664D01*
X135207547Y-86992455D01*
X135207544Y-86992452D01*
X135092335Y-86906206D01*
X135092328Y-86906202D01*
X134957482Y-86855908D01*
X134957483Y-86855908D01*
X134897883Y-86849501D01*
X134897881Y-86849500D01*
X134897873Y-86849500D01*
X134897865Y-86849500D01*
X133124500Y-86849500D01*
X133057461Y-86829815D01*
X133011706Y-86777011D01*
X133000500Y-86725500D01*
X133000500Y-81362229D01*
X133020185Y-81295190D01*
X133036819Y-81274548D01*
X133524548Y-80786819D01*
X133585871Y-80753334D01*
X133612229Y-80750500D01*
X136327663Y-80750500D01*
X136394702Y-80770185D01*
G37*
%TD.AperFunction*%
%TA.AperFunction,Conductor*%
G36*
X134250000Y-114366988D02*
G01*
X134192993Y-114334075D01*
X134065826Y-114300000D01*
X133934174Y-114300000D01*
X133807007Y-114334075D01*
X133750000Y-114366988D01*
X133750000Y-112693012D01*
X133807007Y-112725925D01*
X133934174Y-112760000D01*
X134065826Y-112760000D01*
X134192993Y-112725925D01*
X134250000Y-112693012D01*
X134250000Y-114366988D01*
G37*
%TD.AperFunction*%
%TD*%
M02*
