%TF.GenerationSoftware,KiCad,Pcbnew,8.0.4-8.0.4-0~ubuntu24.04.1*%
%TF.CreationDate,2024-09-03T17:30:21+09:00*%
%TF.ProjectId,ESP32,45535033-322e-46b6-9963-61645f706362,rev?*%
%TF.SameCoordinates,Original*%
%TF.FileFunction,Legend,Top*%
%TF.FilePolarity,Positive*%
%FSLAX46Y46*%
G04 Gerber Fmt 4.6, Leading zero omitted, Abs format (unit mm)*
G04 Created by KiCad (PCBNEW 8.0.4-8.0.4-0~ubuntu24.04.1) date 2024-09-03 17:30:21*
%MOMM*%
%LPD*%
G01*
G04 APERTURE LIST*
%ADD10C,0.150000*%
%ADD11C,0.120000*%
%ADD12C,0.127000*%
%ADD13C,0.200000*%
G04 APERTURE END LIST*
D10*
X158694819Y-89333333D02*
X159409104Y-89333333D01*
X159409104Y-89333333D02*
X159551961Y-89380952D01*
X159551961Y-89380952D02*
X159647200Y-89476190D01*
X159647200Y-89476190D02*
X159694819Y-89619047D01*
X159694819Y-89619047D02*
X159694819Y-89714285D01*
X158790057Y-88904761D02*
X158742438Y-88857142D01*
X158742438Y-88857142D02*
X158694819Y-88761904D01*
X158694819Y-88761904D02*
X158694819Y-88523809D01*
X158694819Y-88523809D02*
X158742438Y-88428571D01*
X158742438Y-88428571D02*
X158790057Y-88380952D01*
X158790057Y-88380952D02*
X158885295Y-88333333D01*
X158885295Y-88333333D02*
X158980533Y-88333333D01*
X158980533Y-88333333D02*
X159123390Y-88380952D01*
X159123390Y-88380952D02*
X159694819Y-88952380D01*
X159694819Y-88952380D02*
X159694819Y-88333333D01*
D11*
%TO.C,J9*%
X164920000Y-123520000D02*
X164920000Y-120920000D01*
X167580000Y-120920000D02*
X164920000Y-120920000D01*
X167580000Y-123520000D02*
X164920000Y-123520000D01*
X167580000Y-123520000D02*
X167580000Y-120920000D01*
X167580000Y-124790000D02*
X167580000Y-126120000D01*
X167580000Y-126120000D02*
X166250000Y-126120000D01*
%TO.C,J8*%
X164920000Y-117350000D02*
X164920000Y-109670000D01*
X167580000Y-109670000D02*
X164920000Y-109670000D01*
X167580000Y-117350000D02*
X164920000Y-117350000D01*
X167580000Y-117350000D02*
X167580000Y-109670000D01*
X167580000Y-118620000D02*
X167580000Y-119950000D01*
X167580000Y-119950000D02*
X166250000Y-119950000D01*
%TO.C,J1*%
X142880000Y-75170000D02*
X142880000Y-77830000D01*
X155640000Y-75170000D02*
X142880000Y-75170000D01*
X155640000Y-75170000D02*
X155640000Y-77830000D01*
X155640000Y-77830000D02*
X142880000Y-77830000D01*
X156910000Y-75170000D02*
X158240000Y-75170000D01*
X158240000Y-75170000D02*
X158240000Y-76500000D01*
%TO.C,J15*%
X139170000Y-111920000D02*
X140500000Y-111920000D01*
X139170000Y-113250000D02*
X139170000Y-111920000D01*
X139170000Y-114520000D02*
X139170000Y-122200000D01*
X139170000Y-114520000D02*
X141830000Y-114520000D01*
X139170000Y-122200000D02*
X141830000Y-122200000D01*
X141830000Y-114520000D02*
X141830000Y-122200000D01*
%TO.C,J7*%
X132670000Y-126230000D02*
X132670000Y-98230000D01*
X135330000Y-98230000D02*
X132670000Y-98230000D01*
X135330000Y-126230000D02*
X132670000Y-126230000D01*
X135330000Y-126230000D02*
X135330000Y-98230000D01*
X135330000Y-127500000D02*
X135330000Y-128830000D01*
X135330000Y-128830000D02*
X134000000Y-128830000D01*
%TO.C,J5*%
X142880000Y-125170000D02*
X142880000Y-127830000D01*
X155640000Y-125170000D02*
X142880000Y-125170000D01*
X155640000Y-125170000D02*
X155640000Y-127830000D01*
X155640000Y-127830000D02*
X142880000Y-127830000D01*
X156910000Y-125170000D02*
X158240000Y-125170000D01*
X158240000Y-125170000D02*
X158240000Y-126500000D01*
%TO.C,J3*%
X142880000Y-100170000D02*
X142880000Y-102830000D01*
X155640000Y-100170000D02*
X142880000Y-100170000D01*
X155640000Y-100170000D02*
X155640000Y-102830000D01*
X155640000Y-102830000D02*
X142880000Y-102830000D01*
X156910000Y-100170000D02*
X158240000Y-100170000D01*
X158240000Y-100170000D02*
X158240000Y-101500000D01*
%TO.C,J13*%
X132670000Y-86870000D02*
X134000000Y-86870000D01*
X132670000Y-88200000D02*
X132670000Y-86870000D01*
X132670000Y-89470000D02*
X132670000Y-97150000D01*
X132670000Y-89470000D02*
X135330000Y-89470000D01*
X132670000Y-97150000D02*
X135330000Y-97150000D01*
X135330000Y-89470000D02*
X135330000Y-97150000D01*
%TO.C,J6*%
X164920000Y-106100000D02*
X164920000Y-98420000D01*
X167580000Y-98420000D02*
X164920000Y-98420000D01*
X167580000Y-106100000D02*
X164920000Y-106100000D01*
X167580000Y-106100000D02*
X167580000Y-98420000D01*
X167580000Y-107370000D02*
X167580000Y-108700000D01*
X167580000Y-108700000D02*
X166250000Y-108700000D01*
%TO.C,J4*%
X142880000Y-112670000D02*
X142880000Y-115330000D01*
X155640000Y-112670000D02*
X142880000Y-112670000D01*
X155640000Y-112670000D02*
X155640000Y-115330000D01*
X155640000Y-115330000D02*
X142880000Y-115330000D01*
X156910000Y-112670000D02*
X158240000Y-112670000D01*
X158240000Y-112670000D02*
X158240000Y-114000000D01*
%TO.C,J2*%
X142880000Y-87670000D02*
X142880000Y-90330000D01*
X155640000Y-87670000D02*
X142880000Y-87670000D01*
X155640000Y-87670000D02*
X155640000Y-90330000D01*
X155640000Y-90330000D02*
X142880000Y-90330000D01*
X156910000Y-87670000D02*
X158240000Y-87670000D01*
X158240000Y-87670000D02*
X158240000Y-89000000D01*
%TO.C,J16*%
X158670000Y-91310000D02*
X158670000Y-83630000D01*
X161330000Y-83630000D02*
X158670000Y-83630000D01*
X161330000Y-91310000D02*
X158670000Y-91310000D01*
X161330000Y-91310000D02*
X161330000Y-83630000D01*
X161330000Y-92580000D02*
X161330000Y-93910000D01*
X161330000Y-93910000D02*
X160000000Y-93910000D01*
D12*
%TO.C,U1*%
X136215000Y-127980000D02*
X136215000Y-81720000D01*
X137215000Y-80720000D02*
X141185000Y-80720000D01*
X137215000Y-128980000D02*
X146135000Y-128980000D01*
X141185000Y-73980000D02*
X159185000Y-73980000D01*
X141185000Y-80720000D02*
X141185000Y-73980000D01*
X146135000Y-128980000D02*
X146135000Y-129980000D01*
X146135000Y-129980000D02*
X154235000Y-129980000D01*
X154235000Y-128980000D02*
X163155000Y-128980000D01*
X154235000Y-129980000D02*
X154235000Y-128980000D01*
X159185000Y-73980000D02*
X159185000Y-80720000D01*
X159185000Y-80720000D02*
X163155000Y-80720000D01*
X164155000Y-127980000D02*
X164155000Y-81720000D01*
X136215000Y-81720000D02*
G75*
G02*
X137215000Y-80720000I999999J1D01*
G01*
X137215000Y-128980000D02*
G75*
G02*
X136215000Y-127980000I-1J999999D01*
G01*
X163155000Y-80720000D02*
G75*
G02*
X164155000Y-81720000I0J-1000000D01*
G01*
X164155000Y-127980000D02*
G75*
G02*
X163155000Y-128980000I-1000000J0D01*
G01*
D13*
X135785000Y-82015000D02*
G75*
G02*
X135585000Y-82015000I-100000J0D01*
G01*
X135585000Y-82015000D02*
G75*
G02*
X135785000Y-82015000I100000J0D01*
G01*
D11*
%TO.C,J14*%
X139170000Y-100620000D02*
X140500000Y-100620000D01*
X139170000Y-101950000D02*
X139170000Y-100620000D01*
X139170000Y-103220000D02*
X139170000Y-110900000D01*
X139170000Y-103220000D02*
X141830000Y-103220000D01*
X139170000Y-110900000D02*
X141830000Y-110900000D01*
X141830000Y-103220000D02*
X141830000Y-110900000D01*
%TD*%
M02*
