M48
; DRILL file {KiCad 8.0.4-8.0.4-0~ubuntu24.04.1} date 2024-09-03T17:30:41+0900
; FORMAT={-:-/ absolute / inch / decimal}
; #@! TF.CreationDate,2024-09-03T17:30:41+09:00
; #@! TF.GenerationSoftware,Kicad,Pcbnew,8.0.4-8.0.4-0~ubuntu24.04.1
; #@! TF.FileFunction,Plated,1,2,PTH
FMAT,2
INCH
; #@! TA.AperFunction,Plated,PTH,ViaDrill
T1C0.0118
; #@! TA.AperFunction,Plated,PTH,ComponentDrill
T2C0.0354
; #@! TA.AperFunction,Plated,PTH,ComponentDrill
T3C0.0394
%
G90
G05
T1
X5.1772Y-4.0453
X5.5118Y-5.0492
X5.5512Y-5.0492
X5.5512Y-5.128
X5.8169Y-3.2283
T2
X5.4128Y-3.2289
X5.4128Y-3.3289
X5.4128Y-3.4289
X5.4128Y-3.5289
X5.4128Y-3.6289
X5.4128Y-3.7289
X5.4128Y-3.8289
X5.4128Y-3.9289
X5.4128Y-4.0289
X5.4128Y-4.1289
X5.4128Y-4.2289
X5.4128Y-4.3289
X5.4128Y-4.4289
X5.4128Y-4.5289
X5.4128Y-4.6289
X5.4128Y-4.7289
X5.4128Y-4.8289
X5.4128Y-4.9289
X5.4128Y-5.0289
X6.4128Y-3.2289
X6.4128Y-3.3289
X6.4128Y-3.4289
X6.4128Y-3.5289
X6.4128Y-3.6289
X6.4128Y-3.7289
X6.4128Y-3.8289
X6.4128Y-3.9289
X6.4128Y-4.0289
X6.4128Y-4.1289
X6.4128Y-4.2289
X6.4128Y-4.3289
X6.4128Y-4.4289
X6.4128Y-4.5289
X6.4128Y-4.6289
X6.4128Y-4.7289
X6.4128Y-4.8289
X6.4128Y-4.9289
X6.4128Y-5.0289
T3
X5.2756Y-3.4724
X5.2756Y-3.5724
X5.2756Y-3.6724
X5.2756Y-3.7724
X5.2756Y-3.9197
X5.2756Y-4.0197
X5.2756Y-4.1197
X5.2756Y-4.2197
X5.2756Y-4.3197
X5.2756Y-4.4197
X5.2756Y-4.5197
X5.2756Y-4.6197
X5.2756Y-4.7197
X5.2756Y-4.8197
X5.2756Y-4.9197
X5.2756Y-5.0197
X5.5315Y-4.0138
X5.5315Y-4.1138
X5.5315Y-4.2138
X5.5315Y-4.3138
X5.5315Y-4.4587
X5.5315Y-4.5587
X5.5315Y-4.6587
X5.5315Y-4.7587
X5.6776Y-3.0118
X5.6776Y-3.5039
X5.6776Y-3.9961
X5.6776Y-4.4882
X5.6776Y-4.9803
X5.7776Y-3.0118
X5.7776Y-3.5039
X5.7776Y-3.9961
X5.7776Y-4.4882
X5.7776Y-4.9803
X5.8776Y-3.0118
X5.8776Y-3.5039
X5.8776Y-3.9961
X5.8776Y-4.4882
X5.8776Y-4.9803
X5.9776Y-3.0118
X5.9776Y-3.5039
X5.9776Y-3.9961
X5.9776Y-4.4882
X5.9776Y-4.9803
X6.0776Y-3.0118
X6.0776Y-3.5039
X6.0776Y-3.9961
X6.0776Y-4.4882
X6.0776Y-4.9803
X6.1776Y-3.0118
X6.1776Y-3.5039
X6.1776Y-3.9961
X6.1776Y-4.4882
X6.1776Y-4.9803
X6.2992Y-3.3449
X6.2992Y-3.4449
X6.2992Y-3.5449
X6.2992Y-3.6449
X6.5344Y-3.4163
X6.5354Y-3.0118
X6.5354Y-3.2146
X6.5354Y-3.315
X6.5354Y-3.5177
X6.5354Y-3.6171
X6.5364Y-3.1132
X6.5364Y-3.7185
X6.5453Y-3.9272
X6.5453Y-4.0272
X6.5453Y-4.1272
X6.5453Y-4.2272
X6.5453Y-4.3701
X6.5453Y-4.4701
X6.5453Y-4.5701
X6.5453Y-4.6701
X6.5453Y-4.813
X6.5453Y-4.913
M30
