%TF.GenerationSoftware,KiCad,Pcbnew,8.0.4-8.0.4-0~ubuntu22.04.1*%
%TF.CreationDate,2024-07-26T18:01:16+09:00*%
%TF.ProjectId,ESP32C3XIAO_mother,45535033-3243-4335-9849-414f5f6d6f74,rev?*%
%TF.SameCoordinates,Original*%
%TF.FileFunction,Drillmap*%
%TF.FilePolarity,Positive*%
%FSLAX45Y45*%
G04 Gerber Fmt 4.5, Leading zero omitted, Abs format (unit mm)*
G04 Created by KiCad (PCBNEW 8.0.4-8.0.4-0~ubuntu22.04.1) date 2024-07-26 18:01:16*
%MOMM*%
%LPD*%
G01*
G04 APERTURE LIST*
%ADD10C,0.050000*%
%ADD11C,0.200000*%
G04 APERTURE END LIST*
D10*
X11200000Y-6475000D02*
X15025000Y-6475000D01*
X15025000Y-9325000D01*
X11200000Y-9325000D01*
X11200000Y-6475000D01*
D11*
X11458277Y-9638984D02*
X11458277Y-9438984D01*
X11458277Y-9438984D02*
X11505896Y-9438984D01*
X11505896Y-9438984D02*
X11534467Y-9448508D01*
X11534467Y-9448508D02*
X11553515Y-9467555D01*
X11553515Y-9467555D02*
X11563039Y-9486603D01*
X11563039Y-9486603D02*
X11572562Y-9524698D01*
X11572562Y-9524698D02*
X11572562Y-9553270D01*
X11572562Y-9553270D02*
X11563039Y-9591365D01*
X11563039Y-9591365D02*
X11553515Y-9610412D01*
X11553515Y-9610412D02*
X11534467Y-9629460D01*
X11534467Y-9629460D02*
X11505896Y-9638984D01*
X11505896Y-9638984D02*
X11458277Y-9638984D01*
X11658277Y-9638984D02*
X11658277Y-9505650D01*
X11658277Y-9543746D02*
X11667801Y-9524698D01*
X11667801Y-9524698D02*
X11677324Y-9515174D01*
X11677324Y-9515174D02*
X11696372Y-9505650D01*
X11696372Y-9505650D02*
X11715420Y-9505650D01*
X11782086Y-9638984D02*
X11782086Y-9505650D01*
X11782086Y-9438984D02*
X11772562Y-9448508D01*
X11772562Y-9448508D02*
X11782086Y-9458031D01*
X11782086Y-9458031D02*
X11791610Y-9448508D01*
X11791610Y-9448508D02*
X11782086Y-9438984D01*
X11782086Y-9438984D02*
X11782086Y-9458031D01*
X11905896Y-9638984D02*
X11886848Y-9629460D01*
X11886848Y-9629460D02*
X11877324Y-9610412D01*
X11877324Y-9610412D02*
X11877324Y-9438984D01*
X12010658Y-9638984D02*
X11991610Y-9629460D01*
X11991610Y-9629460D02*
X11982086Y-9610412D01*
X11982086Y-9610412D02*
X11982086Y-9438984D01*
X12239229Y-9638984D02*
X12239229Y-9438984D01*
X12239229Y-9438984D02*
X12305896Y-9581841D01*
X12305896Y-9581841D02*
X12372562Y-9438984D01*
X12372562Y-9438984D02*
X12372562Y-9638984D01*
X12553515Y-9638984D02*
X12553515Y-9534222D01*
X12553515Y-9534222D02*
X12543991Y-9515174D01*
X12543991Y-9515174D02*
X12524943Y-9505650D01*
X12524943Y-9505650D02*
X12486848Y-9505650D01*
X12486848Y-9505650D02*
X12467801Y-9515174D01*
X12553515Y-9629460D02*
X12534467Y-9638984D01*
X12534467Y-9638984D02*
X12486848Y-9638984D01*
X12486848Y-9638984D02*
X12467801Y-9629460D01*
X12467801Y-9629460D02*
X12458277Y-9610412D01*
X12458277Y-9610412D02*
X12458277Y-9591365D01*
X12458277Y-9591365D02*
X12467801Y-9572317D01*
X12467801Y-9572317D02*
X12486848Y-9562793D01*
X12486848Y-9562793D02*
X12534467Y-9562793D01*
X12534467Y-9562793D02*
X12553515Y-9553270D01*
X12648753Y-9505650D02*
X12648753Y-9705650D01*
X12648753Y-9515174D02*
X12667801Y-9505650D01*
X12667801Y-9505650D02*
X12705896Y-9505650D01*
X12705896Y-9505650D02*
X12724943Y-9515174D01*
X12724943Y-9515174D02*
X12734467Y-9524698D01*
X12734467Y-9524698D02*
X12743991Y-9543746D01*
X12743991Y-9543746D02*
X12743991Y-9600889D01*
X12743991Y-9600889D02*
X12734467Y-9619936D01*
X12734467Y-9619936D02*
X12724943Y-9629460D01*
X12724943Y-9629460D02*
X12705896Y-9638984D01*
X12705896Y-9638984D02*
X12667801Y-9638984D01*
X12667801Y-9638984D02*
X12648753Y-9629460D01*
X12829705Y-9619936D02*
X12839229Y-9629460D01*
X12839229Y-9629460D02*
X12829705Y-9638984D01*
X12829705Y-9638984D02*
X12820182Y-9629460D01*
X12820182Y-9629460D02*
X12829705Y-9619936D01*
X12829705Y-9619936D02*
X12829705Y-9638984D01*
X12829705Y-9515174D02*
X12839229Y-9524698D01*
X12839229Y-9524698D02*
X12829705Y-9534222D01*
X12829705Y-9534222D02*
X12820182Y-9524698D01*
X12820182Y-9524698D02*
X12829705Y-9515174D01*
X12829705Y-9515174D02*
X12829705Y-9534222D01*
M02*
