%TF.GenerationSoftware,KiCad,Pcbnew,8.0.4-8.0.4-0~ubuntu22.04.1*%
%TF.CreationDate,2024-07-26T18:01:14+09:00*%
%TF.ProjectId,ESP32C3XIAO_mother,45535033-3243-4335-9849-414f5f6d6f74,rev?*%
%TF.SameCoordinates,Original*%
%TF.FileFunction,Legend,Bot*%
%TF.FilePolarity,Positive*%
%FSLAX46Y46*%
G04 Gerber Fmt 4.6, Leading zero omitted, Abs format (unit mm)*
G04 Created by KiCad (PCBNEW 8.0.4-8.0.4-0~ubuntu22.04.1) date 2024-07-26 18:01:14*
%MOMM*%
%LPD*%
G01*
G04 APERTURE LIST*
%ADD10C,0.150000*%
%ADD11C,0.127000*%
%ADD12C,0.200000*%
%ADD13C,0.120000*%
G04 APERTURE END LIST*
D10*
X145491904Y-66867319D02*
X145491904Y-67676842D01*
X145491904Y-67676842D02*
X145444285Y-67772080D01*
X145444285Y-67772080D02*
X145396666Y-67819700D01*
X145396666Y-67819700D02*
X145301428Y-67867319D01*
X145301428Y-67867319D02*
X145110952Y-67867319D01*
X145110952Y-67867319D02*
X145015714Y-67819700D01*
X145015714Y-67819700D02*
X144968095Y-67772080D01*
X144968095Y-67772080D02*
X144920476Y-67676842D01*
X144920476Y-67676842D02*
X144920476Y-66867319D01*
X143920476Y-67867319D02*
X144491904Y-67867319D01*
X144206190Y-67867319D02*
X144206190Y-66867319D01*
X144206190Y-66867319D02*
X144301428Y-67010176D01*
X144301428Y-67010176D02*
X144396666Y-67105414D01*
X144396666Y-67105414D02*
X144491904Y-67153033D01*
X119083333Y-87194819D02*
X119083333Y-87909104D01*
X119083333Y-87909104D02*
X119130952Y-88051961D01*
X119130952Y-88051961D02*
X119226190Y-88147200D01*
X119226190Y-88147200D02*
X119369047Y-88194819D01*
X119369047Y-88194819D02*
X119464285Y-88194819D01*
X118702380Y-87194819D02*
X118083333Y-87194819D01*
X118083333Y-87194819D02*
X118416666Y-87575771D01*
X118416666Y-87575771D02*
X118273809Y-87575771D01*
X118273809Y-87575771D02*
X118178571Y-87623390D01*
X118178571Y-87623390D02*
X118130952Y-87671009D01*
X118130952Y-87671009D02*
X118083333Y-87766247D01*
X118083333Y-87766247D02*
X118083333Y-88004342D01*
X118083333Y-88004342D02*
X118130952Y-88099580D01*
X118130952Y-88099580D02*
X118178571Y-88147200D01*
X118178571Y-88147200D02*
X118273809Y-88194819D01*
X118273809Y-88194819D02*
X118559523Y-88194819D01*
X118559523Y-88194819D02*
X118654761Y-88147200D01*
X118654761Y-88147200D02*
X118702380Y-88099580D01*
X126333333Y-87194819D02*
X126333333Y-87909104D01*
X126333333Y-87909104D02*
X126380952Y-88051961D01*
X126380952Y-88051961D02*
X126476190Y-88147200D01*
X126476190Y-88147200D02*
X126619047Y-88194819D01*
X126619047Y-88194819D02*
X126714285Y-88194819D01*
X125904761Y-87290057D02*
X125857142Y-87242438D01*
X125857142Y-87242438D02*
X125761904Y-87194819D01*
X125761904Y-87194819D02*
X125523809Y-87194819D01*
X125523809Y-87194819D02*
X125428571Y-87242438D01*
X125428571Y-87242438D02*
X125380952Y-87290057D01*
X125380952Y-87290057D02*
X125333333Y-87385295D01*
X125333333Y-87385295D02*
X125333333Y-87480533D01*
X125333333Y-87480533D02*
X125380952Y-87623390D01*
X125380952Y-87623390D02*
X125952380Y-88194819D01*
X125952380Y-88194819D02*
X125333333Y-88194819D01*
X129034819Y-89166666D02*
X129749104Y-89166666D01*
X129749104Y-89166666D02*
X129891961Y-89119047D01*
X129891961Y-89119047D02*
X129987200Y-89023809D01*
X129987200Y-89023809D02*
X130034819Y-88880952D01*
X130034819Y-88880952D02*
X130034819Y-88785714D01*
X130034819Y-90166666D02*
X130034819Y-89595238D01*
X130034819Y-89880952D02*
X129034819Y-89880952D01*
X129034819Y-89880952D02*
X129177676Y-89785714D01*
X129177676Y-89785714D02*
X129272914Y-89690476D01*
X129272914Y-89690476D02*
X129320533Y-89595238D01*
D11*
%TO.C,U1*%
X130125000Y-70070000D02*
X147905000Y-70070000D01*
X147905000Y-70070000D02*
X147905000Y-91025000D01*
X130125000Y-91025000D02*
X130125000Y-70070000D01*
X147905000Y-91025000D02*
X130125000Y-91025000D01*
D12*
X148615000Y-72864000D02*
G75*
G02*
X148415000Y-72864000I-100000J0D01*
G01*
X148415000Y-72864000D02*
G75*
G02*
X148615000Y-72864000I100000J0D01*
G01*
D13*
%TO.C,J3*%
X120080000Y-71380000D02*
X120080000Y-84140000D01*
X120080000Y-71380000D02*
X117420000Y-71380000D01*
X120080000Y-84140000D02*
X117420000Y-84140000D01*
X117420000Y-71380000D02*
X117420000Y-84140000D01*
X117420000Y-86740000D02*
X117420000Y-85410000D01*
X118750000Y-86740000D02*
X117420000Y-86740000D01*
%TO.C,J2*%
X126000000Y-86740000D02*
X124670000Y-86740000D01*
X124670000Y-86740000D02*
X124670000Y-85410000D01*
X124670000Y-71380000D02*
X124670000Y-84140000D01*
X127330000Y-84140000D02*
X124670000Y-84140000D01*
X127330000Y-71380000D02*
X124670000Y-71380000D01*
X127330000Y-71380000D02*
X127330000Y-84140000D01*
%TO.C,J1*%
X128580000Y-89500000D02*
X128580000Y-90830000D01*
X128580000Y-90830000D02*
X127250000Y-90830000D01*
X123380000Y-90830000D02*
X125980000Y-90830000D01*
X125980000Y-88170000D02*
X125980000Y-90830000D01*
X123380000Y-88170000D02*
X123380000Y-90830000D01*
X123380000Y-88170000D02*
X125980000Y-88170000D01*
%TD*%
M02*
