%TF.GenerationSoftware,KiCad,Pcbnew,8.0.4-8.0.4-0~ubuntu22.04.1*%
%TF.CreationDate,2024-07-26T18:01:13+09:00*%
%TF.ProjectId,ESP32C3XIAO_mother,45535033-3243-4335-9849-414f5f6d6f74,rev?*%
%TF.SameCoordinates,Original*%
%TF.FileFunction,Copper,L2,Bot*%
%TF.FilePolarity,Positive*%
%FSLAX46Y46*%
G04 Gerber Fmt 4.6, Leading zero omitted, Abs format (unit mm)*
G04 Created by KiCad (PCBNEW 8.0.4-8.0.4-0~ubuntu22.04.1) date 2024-07-26 18:01:13*
%MOMM*%
%LPD*%
G01*
G04 APERTURE LIST*
%TA.AperFunction,ComponentPad*%
%ADD10R,1.358000X1.358000*%
%TD*%
%TA.AperFunction,ComponentPad*%
%ADD11C,1.358000*%
%TD*%
%TA.AperFunction,ComponentPad*%
%ADD12O,1.700000X1.700000*%
%TD*%
%TA.AperFunction,ComponentPad*%
%ADD13R,1.700000X1.700000*%
%TD*%
%TA.AperFunction,Conductor*%
%ADD14C,0.500000*%
%TD*%
G04 APERTURE END LIST*
D10*
%TO.P,U1,1,D0*%
%TO.N,unconnected-(U1-D0-Pad1)*%
X146635000Y-72991000D03*
D11*
%TO.P,U1,2,D1*%
%TO.N,unconnected-(U1-D1-Pad2)*%
X146635000Y-75531000D03*
%TO.P,U1,3,D2*%
%TO.N,unconnected-(U1-D2-Pad3)*%
X146635000Y-78071000D03*
%TO.P,U1,4,D3*%
%TO.N,unconnected-(U1-D3-Pad4)*%
X146635000Y-80611000D03*
%TO.P,U1,5,D4*%
%TO.N,SDA*%
X146635000Y-83151000D03*
%TO.P,U1,6,D5*%
%TO.N,SCL*%
X146635000Y-85691000D03*
%TO.P,U1,7,TX_D6*%
%TO.N,unconnected-(U1-TX_D6-Pad7)*%
X146635000Y-88231000D03*
%TO.P,U1,8,RX_D7*%
%TO.N,unconnected-(U1-RX_D7-Pad8)*%
X131395000Y-88231000D03*
%TO.P,U1,9,D8*%
%TO.N,unconnected-(U1-D8-Pad9)*%
X131395000Y-85691000D03*
%TO.P,U1,10,D9*%
%TO.N,unconnected-(U1-D9-Pad10)*%
X131395000Y-83151000D03*
%TO.P,U1,11,D10*%
%TO.N,unconnected-(U1-D10-Pad11)*%
X131395000Y-80611000D03*
%TO.P,U1,12,VCC_3V3*%
%TO.N,unconnected-(U1-VCC_3V3-Pad12)*%
X131395000Y-78071000D03*
%TO.P,U1,13,GND*%
%TO.N,GND*%
X131395000Y-75531000D03*
%TO.P,U1,14,VUSB*%
%TO.N,+3V3*%
X131395000Y-72991000D03*
%TD*%
D12*
%TO.P,J3,6,Pin_6*%
%TO.N,+3V3*%
X118750000Y-72710000D03*
%TO.P,J3,5,Pin_5*%
%TO.N,GND*%
X118750000Y-75250000D03*
%TO.P,J3,4,Pin_4*%
%TO.N,SDA*%
X118750000Y-77790000D03*
%TO.P,J3,3,Pin_3*%
%TO.N,SCL*%
X118750000Y-80330000D03*
%TO.P,J3,2,Pin_2*%
%TO.N,unconnected-(J3-Pin_2-Pad2)*%
X118750000Y-82870000D03*
D13*
%TO.P,J3,1,Pin_1*%
%TO.N,+5V*%
X118750000Y-85410000D03*
%TD*%
%TO.P,J2,1,Pin_1*%
%TO.N,+5V*%
X126000000Y-85410000D03*
D12*
%TO.P,J2,2,Pin_2*%
%TO.N,unconnected-(J2-Pin_2-Pad2)*%
X126000000Y-82870000D03*
%TO.P,J2,3,Pin_3*%
%TO.N,SCL*%
X126000000Y-80330000D03*
%TO.P,J2,4,Pin_4*%
%TO.N,SDA*%
X126000000Y-77790000D03*
%TO.P,J2,5,Pin_5*%
%TO.N,GND*%
X126000000Y-75250000D03*
%TO.P,J2,6,Pin_6*%
%TO.N,+3V3*%
X126000000Y-72710000D03*
%TD*%
D13*
%TO.P,J1,1,Pin_1*%
%TO.N,+5V*%
X127250000Y-89500000D03*
D12*
%TO.P,J1,2,Pin_2*%
%TO.N,GND*%
X124710000Y-89500000D03*
%TD*%
D14*
%TO.N,SCL*%
X126000000Y-80330000D02*
X130170000Y-84500000D01*
X130170000Y-84500000D02*
X145444000Y-84500000D01*
X145444000Y-84500000D02*
X146635000Y-85691000D01*
%TO.N,SDA*%
X146635000Y-83151000D02*
X142966000Y-79482000D01*
X142966000Y-79482000D02*
X127692000Y-79482000D01*
X127692000Y-79482000D02*
X126000000Y-77790000D01*
%TO.N,GND*%
X118750000Y-75250000D02*
X116250000Y-75250000D01*
X116250000Y-75250000D02*
X115500000Y-76000000D01*
X115500000Y-76000000D02*
X115500000Y-88500000D01*
X115500000Y-88500000D02*
X116500000Y-89500000D01*
X116500000Y-89500000D02*
X124710000Y-89500000D01*
%TO.N,+5V*%
X126000000Y-85410000D02*
X126000000Y-88250000D01*
X126000000Y-88250000D02*
X127250000Y-89500000D01*
X118750000Y-85410000D02*
X126000000Y-85410000D01*
%TO.N,SCL*%
X126000000Y-80330000D02*
X118750000Y-80330000D01*
%TO.N,SDA*%
X118750000Y-77790000D02*
X126000000Y-77790000D01*
%TO.N,GND*%
X118750000Y-75250000D02*
X126000000Y-75250000D01*
X131395000Y-75531000D02*
X126281000Y-75531000D01*
X126281000Y-75531000D02*
X126000000Y-75250000D01*
%TO.N,+3V3*%
X126000000Y-72710000D02*
X131114000Y-72710000D01*
X131114000Y-72710000D02*
X131395000Y-72991000D01*
X118750000Y-72710000D02*
X126000000Y-72710000D01*
%TD*%
M02*
