M48
; DRILL file {KiCad 8.0.4-8.0.4-0~ubuntu22.04.1} date 2024-07-26T18:01:15+0900
; FORMAT={-:-/ absolute / inch / decimal}
; #@! TF.CreationDate,2024-07-26T18:01:15+09:00
; #@! TF.GenerationSoftware,Kicad,Pcbnew,8.0.4-8.0.4-0~ubuntu22.04.1
; #@! TF.FileFunction,Plated,1,2,PTH
FMAT,2
INCH
; #@! TA.AperFunction,Plated,PTH,ComponentDrill
T1C0.0335
; #@! TA.AperFunction,Plated,PTH,ComponentDrill
T2C0.0394
%
G90
G05
T1
X5.173Y-2.8737
X5.173Y-2.9737
X5.173Y-3.0737
X5.173Y-3.1737
X5.173Y-3.2737
X5.173Y-3.3737
X5.173Y-3.4737
X5.773Y-2.8737
X5.773Y-2.9737
X5.773Y-3.0737
X5.773Y-3.1737
X5.773Y-3.2737
X5.773Y-3.3737
X5.773Y-3.4737
T2
X4.6752Y-2.8626
X4.6752Y-2.9626
X4.6752Y-3.0626
X4.6752Y-3.1626
X4.6752Y-3.2626
X4.6752Y-3.3626
X4.9098Y-3.5236
X4.9606Y-2.8626
X4.9606Y-2.9626
X4.9606Y-3.0626
X4.9606Y-3.1626
X4.9606Y-3.2626
X4.9606Y-3.3626
X5.0098Y-3.5236
M30
