M48
; DRILL file {KiCad 8.0.2-8.0.2-0~ubuntu22.04.1} date 2024-06-01T15:22:27+0900
; FORMAT={-:-/ absolute / inch / decimal}
; #@! TF.CreationDate,2024-06-01T15:22:27+09:00
; #@! TF.GenerationSoftware,Kicad,Pcbnew,8.0.2-8.0.2-0~ubuntu22.04.1
; #@! TF.FileFunction,Plated,1,2,PTH
FMAT,2
INCH
; #@! TA.AperFunction,Plated,PTH,ViaDrill
T1C0.0118
; #@! TA.AperFunction,Plated,PTH,ComponentDrill
T2C0.0374
%
G90
G05
T1
X5.4528Y-3.563
X5.4528Y-3.7402
X5.4724Y-3.878
X5.5118Y-3.4449
X5.6102Y-4.0138
X5.7864Y-3.4636
X5.8268Y-3.622
X5.8268Y-3.6695
X5.8268Y-3.7795
T2
X5.2953Y-3.3071
X5.2953Y-3.4055
X5.2953Y-3.5039
X5.2953Y-3.6024
X5.2953Y-3.7008
X5.2953Y-3.7992
X5.2953Y-3.8976
X5.2953Y-3.9961
X5.9764Y-3.3071
X5.9764Y-3.4055
X5.9764Y-3.5039
X5.9764Y-3.6024
X5.9764Y-3.7008
X5.9764Y-3.7992
X5.9764Y-3.8976
X5.9764Y-3.9961
M30
