%TF.GenerationSoftware,KiCad,Pcbnew,8.0.2-8.0.2-0~ubuntu22.04.1*%
%TF.CreationDate,2024-06-01T15:22:32+09:00*%
%TF.ProjectId,TB6612,54423636-3132-42e6-9b69-6361645f7063,rev?*%
%TF.SameCoordinates,Original*%
%TF.FileFunction,Legend,Top*%
%TF.FilePolarity,Positive*%
%FSLAX46Y46*%
G04 Gerber Fmt 4.6, Leading zero omitted, Abs format (unit mm)*
G04 Created by KiCad (PCBNEW 8.0.2-8.0.2-0~ubuntu22.04.1) date 2024-06-01 15:22:32*
%MOMM*%
%LPD*%
G01*
G04 APERTURE LIST*
%ADD10C,0.150000*%
%ADD11C,0.120000*%
G04 APERTURE END LIST*
D10*
X142438095Y-87434819D02*
X142438095Y-88244342D01*
X142438095Y-88244342D02*
X142485714Y-88339580D01*
X142485714Y-88339580D02*
X142533333Y-88387200D01*
X142533333Y-88387200D02*
X142628571Y-88434819D01*
X142628571Y-88434819D02*
X142819047Y-88434819D01*
X142819047Y-88434819D02*
X142914285Y-88387200D01*
X142914285Y-88387200D02*
X142961904Y-88339580D01*
X142961904Y-88339580D02*
X143009523Y-88244342D01*
X143009523Y-88244342D02*
X143009523Y-87434819D01*
X144009523Y-88434819D02*
X143438095Y-88434819D01*
X143723809Y-88434819D02*
X143723809Y-87434819D01*
X143723809Y-87434819D02*
X143628571Y-87577676D01*
X143628571Y-87577676D02*
X143533333Y-87672914D01*
X143533333Y-87672914D02*
X143438095Y-87720533D01*
X143333333Y-81134819D02*
X143000000Y-80658628D01*
X142761905Y-81134819D02*
X142761905Y-80134819D01*
X142761905Y-80134819D02*
X143142857Y-80134819D01*
X143142857Y-80134819D02*
X143238095Y-80182438D01*
X143238095Y-80182438D02*
X143285714Y-80230057D01*
X143285714Y-80230057D02*
X143333333Y-80325295D01*
X143333333Y-80325295D02*
X143333333Y-80468152D01*
X143333333Y-80468152D02*
X143285714Y-80563390D01*
X143285714Y-80563390D02*
X143238095Y-80611009D01*
X143238095Y-80611009D02*
X143142857Y-80658628D01*
X143142857Y-80658628D02*
X142761905Y-80658628D01*
X143714286Y-80230057D02*
X143761905Y-80182438D01*
X143761905Y-80182438D02*
X143857143Y-80134819D01*
X143857143Y-80134819D02*
X144095238Y-80134819D01*
X144095238Y-80134819D02*
X144190476Y-80182438D01*
X144190476Y-80182438D02*
X144238095Y-80230057D01*
X144238095Y-80230057D02*
X144285714Y-80325295D01*
X144285714Y-80325295D02*
X144285714Y-80420533D01*
X144285714Y-80420533D02*
X144238095Y-80563390D01*
X144238095Y-80563390D02*
X143666667Y-81134819D01*
X143666667Y-81134819D02*
X144285714Y-81134819D01*
X144513333Y-101404819D02*
X144180000Y-100928628D01*
X143941905Y-101404819D02*
X143941905Y-100404819D01*
X143941905Y-100404819D02*
X144322857Y-100404819D01*
X144322857Y-100404819D02*
X144418095Y-100452438D01*
X144418095Y-100452438D02*
X144465714Y-100500057D01*
X144465714Y-100500057D02*
X144513333Y-100595295D01*
X144513333Y-100595295D02*
X144513333Y-100738152D01*
X144513333Y-100738152D02*
X144465714Y-100833390D01*
X144465714Y-100833390D02*
X144418095Y-100881009D01*
X144418095Y-100881009D02*
X144322857Y-100928628D01*
X144322857Y-100928628D02*
X143941905Y-100928628D01*
X145465714Y-101404819D02*
X144894286Y-101404819D01*
X145180000Y-101404819D02*
X145180000Y-100404819D01*
X145180000Y-100404819D02*
X145084762Y-100547676D01*
X145084762Y-100547676D02*
X144989524Y-100642914D01*
X144989524Y-100642914D02*
X144894286Y-100690533D01*
X154054819Y-93083333D02*
X154769104Y-93083333D01*
X154769104Y-93083333D02*
X154911961Y-93130952D01*
X154911961Y-93130952D02*
X155007200Y-93226190D01*
X155007200Y-93226190D02*
X155054819Y-93369047D01*
X155054819Y-93369047D02*
X155054819Y-93464285D01*
X154150057Y-92654761D02*
X154102438Y-92607142D01*
X154102438Y-92607142D02*
X154054819Y-92511904D01*
X154054819Y-92511904D02*
X154054819Y-92273809D01*
X154054819Y-92273809D02*
X154102438Y-92178571D01*
X154102438Y-92178571D02*
X154150057Y-92130952D01*
X154150057Y-92130952D02*
X154245295Y-92083333D01*
X154245295Y-92083333D02*
X154340533Y-92083333D01*
X154340533Y-92083333D02*
X154483390Y-92130952D01*
X154483390Y-92130952D02*
X155054819Y-92702380D01*
X155054819Y-92702380D02*
X155054819Y-92083333D01*
X131154819Y-93083333D02*
X131869104Y-93083333D01*
X131869104Y-93083333D02*
X132011961Y-93130952D01*
X132011961Y-93130952D02*
X132107200Y-93226190D01*
X132107200Y-93226190D02*
X132154819Y-93369047D01*
X132154819Y-93369047D02*
X132154819Y-93464285D01*
X132154819Y-92083333D02*
X132154819Y-92654761D01*
X132154819Y-92369047D02*
X131154819Y-92369047D01*
X131154819Y-92369047D02*
X131297676Y-92464285D01*
X131297676Y-92464285D02*
X131392914Y-92559523D01*
X131392914Y-92559523D02*
X131440533Y-92654761D01*
X139261905Y-99054819D02*
X139261905Y-98054819D01*
X139261905Y-98054819D02*
X139500000Y-98054819D01*
X139500000Y-98054819D02*
X139642857Y-98102438D01*
X139642857Y-98102438D02*
X139738095Y-98197676D01*
X139738095Y-98197676D02*
X139785714Y-98292914D01*
X139785714Y-98292914D02*
X139833333Y-98483390D01*
X139833333Y-98483390D02*
X139833333Y-98626247D01*
X139833333Y-98626247D02*
X139785714Y-98816723D01*
X139785714Y-98816723D02*
X139738095Y-98911961D01*
X139738095Y-98911961D02*
X139642857Y-99007200D01*
X139642857Y-99007200D02*
X139500000Y-99054819D01*
X139500000Y-99054819D02*
X139261905Y-99054819D01*
X140785714Y-99054819D02*
X140214286Y-99054819D01*
X140500000Y-99054819D02*
X140500000Y-98054819D01*
X140500000Y-98054819D02*
X140404762Y-98197676D01*
X140404762Y-98197676D02*
X140309524Y-98292914D01*
X140309524Y-98292914D02*
X140214286Y-98340533D01*
X143833333Y-85199580D02*
X143785714Y-85247200D01*
X143785714Y-85247200D02*
X143642857Y-85294819D01*
X143642857Y-85294819D02*
X143547619Y-85294819D01*
X143547619Y-85294819D02*
X143404762Y-85247200D01*
X143404762Y-85247200D02*
X143309524Y-85151961D01*
X143309524Y-85151961D02*
X143261905Y-85056723D01*
X143261905Y-85056723D02*
X143214286Y-84866247D01*
X143214286Y-84866247D02*
X143214286Y-84723390D01*
X143214286Y-84723390D02*
X143261905Y-84532914D01*
X143261905Y-84532914D02*
X143309524Y-84437676D01*
X143309524Y-84437676D02*
X143404762Y-84342438D01*
X143404762Y-84342438D02*
X143547619Y-84294819D01*
X143547619Y-84294819D02*
X143642857Y-84294819D01*
X143642857Y-84294819D02*
X143785714Y-84342438D01*
X143785714Y-84342438D02*
X143833333Y-84390057D01*
X144690476Y-84628152D02*
X144690476Y-85294819D01*
X144452381Y-84247200D02*
X144214286Y-84961485D01*
X144214286Y-84961485D02*
X144833333Y-84961485D01*
X144013333Y-99309580D02*
X143965714Y-99357200D01*
X143965714Y-99357200D02*
X143822857Y-99404819D01*
X143822857Y-99404819D02*
X143727619Y-99404819D01*
X143727619Y-99404819D02*
X143584762Y-99357200D01*
X143584762Y-99357200D02*
X143489524Y-99261961D01*
X143489524Y-99261961D02*
X143441905Y-99166723D01*
X143441905Y-99166723D02*
X143394286Y-98976247D01*
X143394286Y-98976247D02*
X143394286Y-98833390D01*
X143394286Y-98833390D02*
X143441905Y-98642914D01*
X143441905Y-98642914D02*
X143489524Y-98547676D01*
X143489524Y-98547676D02*
X143584762Y-98452438D01*
X143584762Y-98452438D02*
X143727619Y-98404819D01*
X143727619Y-98404819D02*
X143822857Y-98404819D01*
X143822857Y-98404819D02*
X143965714Y-98452438D01*
X143965714Y-98452438D02*
X144013333Y-98500057D01*
X144346667Y-98404819D02*
X144965714Y-98404819D01*
X144965714Y-98404819D02*
X144632381Y-98785771D01*
X144632381Y-98785771D02*
X144775238Y-98785771D01*
X144775238Y-98785771D02*
X144870476Y-98833390D01*
X144870476Y-98833390D02*
X144918095Y-98881009D01*
X144918095Y-98881009D02*
X144965714Y-98976247D01*
X144965714Y-98976247D02*
X144965714Y-99214342D01*
X144965714Y-99214342D02*
X144918095Y-99309580D01*
X144918095Y-99309580D02*
X144870476Y-99357200D01*
X144870476Y-99357200D02*
X144775238Y-99404819D01*
X144775238Y-99404819D02*
X144489524Y-99404819D01*
X144489524Y-99404819D02*
X144394286Y-99357200D01*
X144394286Y-99357200D02*
X144346667Y-99309580D01*
X139513333Y-85309580D02*
X139465714Y-85357200D01*
X139465714Y-85357200D02*
X139322857Y-85404819D01*
X139322857Y-85404819D02*
X139227619Y-85404819D01*
X139227619Y-85404819D02*
X139084762Y-85357200D01*
X139084762Y-85357200D02*
X138989524Y-85261961D01*
X138989524Y-85261961D02*
X138941905Y-85166723D01*
X138941905Y-85166723D02*
X138894286Y-84976247D01*
X138894286Y-84976247D02*
X138894286Y-84833390D01*
X138894286Y-84833390D02*
X138941905Y-84642914D01*
X138941905Y-84642914D02*
X138989524Y-84547676D01*
X138989524Y-84547676D02*
X139084762Y-84452438D01*
X139084762Y-84452438D02*
X139227619Y-84404819D01*
X139227619Y-84404819D02*
X139322857Y-84404819D01*
X139322857Y-84404819D02*
X139465714Y-84452438D01*
X139465714Y-84452438D02*
X139513333Y-84500057D01*
X139894286Y-84500057D02*
X139941905Y-84452438D01*
X139941905Y-84452438D02*
X140037143Y-84404819D01*
X140037143Y-84404819D02*
X140275238Y-84404819D01*
X140275238Y-84404819D02*
X140370476Y-84452438D01*
X140370476Y-84452438D02*
X140418095Y-84500057D01*
X140418095Y-84500057D02*
X140465714Y-84595295D01*
X140465714Y-84595295D02*
X140465714Y-84690533D01*
X140465714Y-84690533D02*
X140418095Y-84833390D01*
X140418095Y-84833390D02*
X139846667Y-85404819D01*
X139846667Y-85404819D02*
X140465714Y-85404819D01*
X139153333Y-83409580D02*
X139105714Y-83457200D01*
X139105714Y-83457200D02*
X138962857Y-83504819D01*
X138962857Y-83504819D02*
X138867619Y-83504819D01*
X138867619Y-83504819D02*
X138724762Y-83457200D01*
X138724762Y-83457200D02*
X138629524Y-83361961D01*
X138629524Y-83361961D02*
X138581905Y-83266723D01*
X138581905Y-83266723D02*
X138534286Y-83076247D01*
X138534286Y-83076247D02*
X138534286Y-82933390D01*
X138534286Y-82933390D02*
X138581905Y-82742914D01*
X138581905Y-82742914D02*
X138629524Y-82647676D01*
X138629524Y-82647676D02*
X138724762Y-82552438D01*
X138724762Y-82552438D02*
X138867619Y-82504819D01*
X138867619Y-82504819D02*
X138962857Y-82504819D01*
X138962857Y-82504819D02*
X139105714Y-82552438D01*
X139105714Y-82552438D02*
X139153333Y-82600057D01*
X140105714Y-83504819D02*
X139534286Y-83504819D01*
X139820000Y-83504819D02*
X139820000Y-82504819D01*
X139820000Y-82504819D02*
X139724762Y-82647676D01*
X139724762Y-82647676D02*
X139629524Y-82742914D01*
X139629524Y-82742914D02*
X139534286Y-82790533D01*
D11*
%TO.C,U1*%
X143200000Y-88795000D02*
X141000000Y-88795000D01*
X143200000Y-88795000D02*
X145400000Y-88795000D01*
X143200000Y-96865000D02*
X141000000Y-96865000D01*
X143200000Y-96865000D02*
X145400000Y-96865000D01*
X139290000Y-89255000D02*
X138960000Y-89495000D01*
X138960000Y-89015000D01*
X139290000Y-89255000D01*
G36*
X139290000Y-89255000D02*
G01*
X138960000Y-89495000D01*
X138960000Y-89015000D01*
X139290000Y-89255000D01*
G37*
%TO.C,R2*%
X142772936Y-81590000D02*
X144227064Y-81590000D01*
X142772936Y-83410000D02*
X144227064Y-83410000D01*
%TO.C,J2*%
X151690000Y-81090000D02*
X149190000Y-81090000D01*
X149190000Y-81090000D02*
X149190000Y-83590000D01*
X153510000Y-81390000D02*
X149490000Y-81390000D01*
X151800000Y-81390000D02*
X151800000Y-81890000D01*
X150990000Y-81390000D02*
X150990000Y-82390000D01*
X149490000Y-81390000D02*
X149490000Y-104110000D01*
X153010000Y-81890000D02*
X153010000Y-103610000D01*
X151800000Y-81890000D02*
X153010000Y-81890000D01*
X150990000Y-82390000D02*
X149490000Y-82390000D01*
X150990000Y-103110000D02*
X149490000Y-103110000D01*
X153010000Y-103610000D02*
X151800000Y-103610000D01*
X151800000Y-103610000D02*
X151800000Y-104110000D01*
X153510000Y-104110000D02*
X153510000Y-81390000D01*
X150990000Y-104110000D02*
X150990000Y-103110000D01*
X149490000Y-104110000D02*
X153510000Y-104110000D01*
%TO.C,J1*%
X136810000Y-81390000D02*
X132790000Y-81390000D01*
X135310000Y-81390000D02*
X135310000Y-82390000D01*
X132790000Y-81390000D02*
X132790000Y-104110000D01*
X134500000Y-81890000D02*
X134500000Y-81390000D01*
X133290000Y-81890000D02*
X134500000Y-81890000D01*
X135310000Y-82390000D02*
X136810000Y-82390000D01*
X135310000Y-103110000D02*
X136810000Y-103110000D01*
X134500000Y-103610000D02*
X133290000Y-103610000D01*
X133290000Y-103610000D02*
X133290000Y-81890000D01*
X136810000Y-104110000D02*
X136810000Y-81390000D01*
X135310000Y-104110000D02*
X135310000Y-103110000D01*
X134500000Y-104110000D02*
X134500000Y-103610000D01*
X132790000Y-104110000D02*
X136810000Y-104110000D01*
X137110000Y-104410000D02*
X137110000Y-101910000D01*
X134610000Y-104410000D02*
X137110000Y-104410000D01*
%TO.C,D1*%
X140000000Y-99440000D02*
X139350000Y-99440000D01*
X140000000Y-99440000D02*
X140650000Y-99440000D01*
X140000000Y-102560000D02*
X139350000Y-102560000D01*
X140000000Y-102560000D02*
X140650000Y-102560000D01*
X138837500Y-99490000D02*
X138597500Y-99160000D01*
X139077500Y-99160000D01*
X138837500Y-99490000D01*
G36*
X138837500Y-99490000D02*
G01*
X138597500Y-99160000D01*
X139077500Y-99160000D01*
X138837500Y-99490000D01*
G37*
%TO.C,C4*%
X143892164Y-85640000D02*
X144107836Y-85640000D01*
X143892164Y-86360000D02*
X144107836Y-86360000D01*
%TD*%
M02*
