%TF.GenerationSoftware,KiCad,Pcbnew,8.0.2-8.0.2-0~ubuntu22.04.1*%
%TF.CreationDate,2024-06-01T15:22:33+09:00*%
%TF.ProjectId,TB6612,54423636-3132-42e6-9b69-6361645f7063,rev?*%
%TF.SameCoordinates,Original*%
%TF.FileFunction,Soldermask,Top*%
%TF.FilePolarity,Negative*%
%FSLAX46Y46*%
G04 Gerber Fmt 4.6, Leading zero omitted, Abs format (unit mm)*
G04 Created by KiCad (PCBNEW 8.0.2-8.0.2-0~ubuntu22.04.1) date 2024-06-01 15:22:33*
%MOMM*%
%LPD*%
G01*
G04 APERTURE LIST*
G04 Aperture macros list*
%AMRoundRect*
0 Rectangle with rounded corners*
0 $1 Rounding radius*
0 $2 $3 $4 $5 $6 $7 $8 $9 X,Y pos of 4 corners*
0 Add a 4 corners polygon primitive as box body*
4,1,4,$2,$3,$4,$5,$6,$7,$8,$9,$2,$3,0*
0 Add four circle primitives for the rounded corners*
1,1,$1+$1,$2,$3*
1,1,$1+$1,$4,$5*
1,1,$1+$1,$6,$7*
1,1,$1+$1,$8,$9*
0 Add four rect primitives between the rounded corners*
20,1,$1+$1,$2,$3,$4,$5,0*
20,1,$1+$1,$4,$5,$6,$7,0*
20,1,$1+$1,$6,$7,$8,$9,0*
20,1,$1+$1,$8,$9,$2,$3,0*%
G04 Aperture macros list end*
%ADD10RoundRect,0.100000X-0.675000X-0.100000X0.675000X-0.100000X0.675000X0.100000X-0.675000X0.100000X0*%
%ADD11R,3.200000X5.000000*%
%ADD12RoundRect,0.250000X-0.312500X-0.625000X0.312500X-0.625000X0.312500X0.625000X-0.312500X0.625000X0*%
%ADD13RoundRect,0.100000X-0.130000X-0.100000X0.130000X-0.100000X0.130000X0.100000X-0.130000X0.100000X0*%
%ADD14RoundRect,0.250000X-0.725000X0.600000X-0.725000X-0.600000X0.725000X-0.600000X0.725000X0.600000X0*%
%ADD15O,1.950000X1.700000*%
%ADD16RoundRect,0.250000X0.725000X-0.600000X0.725000X0.600000X-0.725000X0.600000X-0.725000X-0.600000X0*%
%ADD17RoundRect,0.150000X-0.587500X-0.150000X0.587500X-0.150000X0.587500X0.150000X-0.587500X0.150000X0*%
%ADD18RoundRect,0.140000X-0.140000X-0.170000X0.140000X-0.170000X0.140000X0.170000X-0.140000X0.170000X0*%
%ADD19RoundRect,0.100000X0.130000X0.100000X-0.130000X0.100000X-0.130000X-0.100000X0.130000X-0.100000X0*%
G04 APERTURE END LIST*
D10*
%TO.C,U1*%
X140325000Y-89255000D03*
X140325000Y-89905000D03*
X140325000Y-90555000D03*
X140325000Y-91205000D03*
X140325000Y-91855000D03*
X140325000Y-92505000D03*
X140325000Y-93155000D03*
X140325000Y-93805000D03*
X140325000Y-94455000D03*
X140325000Y-95105000D03*
X140325000Y-95755000D03*
X140325000Y-96405000D03*
X146075000Y-96405000D03*
X146075000Y-95755000D03*
X146075000Y-95105000D03*
X146075000Y-94455000D03*
X146075000Y-93805000D03*
X146075000Y-93155000D03*
X146075000Y-92505000D03*
X146075000Y-91855000D03*
X146075000Y-91205000D03*
X146075000Y-90555000D03*
X146075000Y-89905000D03*
X146075000Y-89255000D03*
D11*
X143200000Y-92830000D03*
%TD*%
D12*
%TO.C,R2*%
X142037500Y-82500000D03*
X144962500Y-82500000D03*
%TD*%
D13*
%TO.C,R1*%
X144360000Y-102000000D03*
X145000000Y-102000000D03*
%TD*%
D14*
%TO.C,J2*%
X151800000Y-84000000D03*
D15*
X151800000Y-86500000D03*
X151800000Y-89000000D03*
X151800000Y-91500000D03*
X151800000Y-94000000D03*
X151800000Y-96500000D03*
X151800000Y-99000000D03*
X151800000Y-101500000D03*
%TD*%
%TO.C,J1*%
X134500000Y-84000000D03*
X134500000Y-86500000D03*
X134500000Y-89000000D03*
X134500000Y-91500000D03*
X134500000Y-94000000D03*
X134500000Y-96500000D03*
X134500000Y-99000000D03*
D16*
X134500000Y-101500000D03*
%TD*%
D17*
%TO.C,D1*%
X139062500Y-100050000D03*
X139062500Y-101950000D03*
X140937500Y-101000000D03*
%TD*%
D18*
%TO.C,C4*%
X143520000Y-86000000D03*
X144480000Y-86000000D03*
%TD*%
D13*
%TO.C,C3*%
X143860000Y-100000000D03*
X144500000Y-100000000D03*
%TD*%
%TO.C,C2*%
X139360000Y-86000000D03*
X140000000Y-86000000D03*
%TD*%
D19*
%TO.C,C1*%
X139640000Y-82000000D03*
X139000000Y-82000000D03*
%TD*%
M02*
