%TF.GenerationSoftware,KiCad,Pcbnew,8.0.2-8.0.2-0~ubuntu22.04.1*%
%TF.CreationDate,2024-06-01T15:22:32+09:00*%
%TF.ProjectId,TB6612,54423636-3132-42e6-9b69-6361645f7063,rev?*%
%TF.SameCoordinates,Original*%
%TF.FileFunction,Copper,L1,Top*%
%TF.FilePolarity,Positive*%
%FSLAX46Y46*%
G04 Gerber Fmt 4.6, Leading zero omitted, Abs format (unit mm)*
G04 Created by KiCad (PCBNEW 8.0.2-8.0.2-0~ubuntu22.04.1) date 2024-06-01 15:22:32*
%MOMM*%
%LPD*%
G01*
G04 APERTURE LIST*
G04 Aperture macros list*
%AMRoundRect*
0 Rectangle with rounded corners*
0 $1 Rounding radius*
0 $2 $3 $4 $5 $6 $7 $8 $9 X,Y pos of 4 corners*
0 Add a 4 corners polygon primitive as box body*
4,1,4,$2,$3,$4,$5,$6,$7,$8,$9,$2,$3,0*
0 Add four circle primitives for the rounded corners*
1,1,$1+$1,$2,$3*
1,1,$1+$1,$4,$5*
1,1,$1+$1,$6,$7*
1,1,$1+$1,$8,$9*
0 Add four rect primitives between the rounded corners*
20,1,$1+$1,$2,$3,$4,$5,0*
20,1,$1+$1,$4,$5,$6,$7,0*
20,1,$1+$1,$6,$7,$8,$9,0*
20,1,$1+$1,$8,$9,$2,$3,0*%
G04 Aperture macros list end*
%TA.AperFunction,SMDPad,CuDef*%
%ADD10RoundRect,0.100000X-0.675000X-0.100000X0.675000X-0.100000X0.675000X0.100000X-0.675000X0.100000X0*%
%TD*%
%TA.AperFunction,HeatsinkPad*%
%ADD11R,3.200000X5.000000*%
%TD*%
%TA.AperFunction,SMDPad,CuDef*%
%ADD12RoundRect,0.250000X-0.312500X-0.625000X0.312500X-0.625000X0.312500X0.625000X-0.312500X0.625000X0*%
%TD*%
%TA.AperFunction,SMDPad,CuDef*%
%ADD13RoundRect,0.100000X-0.130000X-0.100000X0.130000X-0.100000X0.130000X0.100000X-0.130000X0.100000X0*%
%TD*%
%TA.AperFunction,ComponentPad*%
%ADD14RoundRect,0.250000X-0.725000X0.600000X-0.725000X-0.600000X0.725000X-0.600000X0.725000X0.600000X0*%
%TD*%
%TA.AperFunction,ComponentPad*%
%ADD15O,1.950000X1.700000*%
%TD*%
%TA.AperFunction,ComponentPad*%
%ADD16RoundRect,0.250000X0.725000X-0.600000X0.725000X0.600000X-0.725000X0.600000X-0.725000X-0.600000X0*%
%TD*%
%TA.AperFunction,SMDPad,CuDef*%
%ADD17RoundRect,0.150000X-0.587500X-0.150000X0.587500X-0.150000X0.587500X0.150000X-0.587500X0.150000X0*%
%TD*%
%TA.AperFunction,SMDPad,CuDef*%
%ADD18RoundRect,0.140000X-0.140000X-0.170000X0.140000X-0.170000X0.140000X0.170000X-0.140000X0.170000X0*%
%TD*%
%TA.AperFunction,SMDPad,CuDef*%
%ADD19RoundRect,0.100000X0.130000X0.100000X-0.130000X0.100000X-0.130000X-0.100000X0.130000X-0.100000X0*%
%TD*%
%TA.AperFunction,ViaPad*%
%ADD20C,0.600000*%
%TD*%
%TA.AperFunction,Conductor*%
%ADD21C,0.200000*%
%TD*%
%TA.AperFunction,Conductor*%
%ADD22C,0.500000*%
%TD*%
G04 APERTURE END LIST*
D10*
%TO.P,U1,1,AO1*%
%TO.N,Net-(J1-Pin_6)*%
X140325000Y-89255000D03*
%TO.P,U1,2,AO1*%
X140325000Y-89905000D03*
%TO.P,U1,3,PGND1*%
%TO.N,8*%
X140325000Y-90555000D03*
%TO.P,U1,4,PGND1*%
X140325000Y-91205000D03*
%TO.P,U1,5,AO2*%
%TO.N,Net-(J1-Pin_5)*%
X140325000Y-91855000D03*
%TO.P,U1,6,AO2*%
X140325000Y-92505000D03*
%TO.P,U1,7,BO2*%
%TO.N,Net-(J1-Pin_4)*%
X140325000Y-93155000D03*
%TO.P,U1,8,BO2*%
X140325000Y-93805000D03*
%TO.P,U1,9,PGND2*%
%TO.N,8*%
X140325000Y-94455000D03*
%TO.P,U1,10,PGND2*%
X140325000Y-95105000D03*
%TO.P,U1,11,BO1*%
%TO.N,Net-(J1-Pin_3)*%
X140325000Y-95755000D03*
%TO.P,U1,12,BO1*%
X140325000Y-96405000D03*
%TO.P,U1,13,VM2*%
%TO.N,VM*%
X146075000Y-96405000D03*
%TO.P,U1,14,VM3*%
X146075000Y-95755000D03*
%TO.P,U1,15,PWMB*%
%TO.N,Net-(J2-Pin_7)*%
X146075000Y-95105000D03*
%TO.P,U1,16,BIN2*%
%TO.N,Net-(J2-Pin_6)*%
X146075000Y-94455000D03*
%TO.P,U1,17,BIN1*%
%TO.N,Net-(J2-Pin_5)*%
X146075000Y-93805000D03*
%TO.P,U1,18,GND*%
%TO.N,8*%
X146075000Y-93155000D03*
%TO.P,U1,19,STBY*%
%TO.N,Net-(J2-Pin_4)*%
X146075000Y-92505000D03*
%TO.P,U1,20,Vcc*%
%TO.N,VCC*%
X146075000Y-91855000D03*
%TO.P,U1,21,AIN1*%
%TO.N,Net-(J2-Pin_3)*%
X146075000Y-91205000D03*
%TO.P,U1,22,AIN2*%
%TO.N,Net-(J2-Pin_2)*%
X146075000Y-90555000D03*
%TO.P,U1,23,PWMA*%
%TO.N,Net-(J2-Pin_1)*%
X146075000Y-89905000D03*
%TO.P,U1,24,VM1*%
%TO.N,VM*%
X146075000Y-89255000D03*
D11*
%TO.P,U1,25*%
%TO.N,N/C*%
X143200000Y-92830000D03*
%TD*%
D12*
%TO.P,R2,1*%
%TO.N,VM*%
X142037500Y-82500000D03*
%TO.P,R2,2*%
%TO.N,Net-(C1-Pad1)*%
X144962500Y-82500000D03*
%TD*%
D13*
%TO.P,R1,1*%
%TO.N,Net-(D1-A)*%
X144360000Y-102000000D03*
%TO.P,R1,2*%
%TO.N,8*%
X145000000Y-102000000D03*
%TD*%
D14*
%TO.P,J2,1,Pin_1*%
%TO.N,Net-(J2-Pin_1)*%
X151800000Y-84000000D03*
D15*
%TO.P,J2,2,Pin_2*%
%TO.N,Net-(J2-Pin_2)*%
X151800000Y-86500000D03*
%TO.P,J2,3,Pin_3*%
%TO.N,Net-(J2-Pin_3)*%
X151800000Y-89000000D03*
%TO.P,J2,4,Pin_4*%
%TO.N,Net-(J2-Pin_4)*%
X151800000Y-91500000D03*
%TO.P,J2,5,Pin_5*%
%TO.N,Net-(J2-Pin_5)*%
X151800000Y-94000000D03*
%TO.P,J2,6,Pin_6*%
%TO.N,Net-(J2-Pin_6)*%
X151800000Y-96500000D03*
%TO.P,J2,7,Pin_7*%
%TO.N,Net-(J2-Pin_7)*%
X151800000Y-99000000D03*
%TO.P,J2,8,Pin_8*%
%TO.N,8*%
X151800000Y-101500000D03*
%TD*%
%TO.P,J1,8,Pin_8*%
%TO.N,8*%
X134500000Y-84000000D03*
%TO.P,J1,7,Pin_7*%
%TO.N,VCC*%
X134500000Y-86500000D03*
%TO.P,J1,6,Pin_6*%
%TO.N,Net-(J1-Pin_6)*%
X134500000Y-89000000D03*
%TO.P,J1,5,Pin_5*%
%TO.N,Net-(J1-Pin_5)*%
X134500000Y-91500000D03*
%TO.P,J1,4,Pin_4*%
%TO.N,Net-(J1-Pin_4)*%
X134500000Y-94000000D03*
%TO.P,J1,3,Pin_3*%
%TO.N,Net-(J1-Pin_3)*%
X134500000Y-96500000D03*
%TO.P,J1,2,Pin_2*%
%TO.N,VM*%
X134500000Y-99000000D03*
D16*
%TO.P,J1,1,Pin_1*%
%TO.N,8*%
X134500000Y-101500000D03*
%TD*%
D17*
%TO.P,D1,1,A*%
%TO.N,Net-(D1-A)*%
X139062500Y-100050000D03*
%TO.P,D1,2,NC*%
%TO.N,unconnected-(D1-NC-Pad2)*%
X139062500Y-101950000D03*
%TO.P,D1,3,K*%
%TO.N,VM*%
X140937500Y-101000000D03*
%TD*%
D18*
%TO.P,C4,1*%
%TO.N,VM*%
X143520000Y-86000000D03*
%TO.P,C4,2*%
%TO.N,8*%
X144480000Y-86000000D03*
%TD*%
D13*
%TO.P,C3,1*%
%TO.N,VM*%
X143860000Y-100000000D03*
%TO.P,C3,2*%
%TO.N,8*%
X144500000Y-100000000D03*
%TD*%
%TO.P,C2,1*%
%TO.N,VCC*%
X139360000Y-86000000D03*
%TO.P,C2,2*%
%TO.N,8*%
X140000000Y-86000000D03*
%TD*%
D19*
%TO.P,C1,1*%
%TO.N,Net-(C1-Pad1)*%
X139640000Y-82000000D03*
%TO.P,C1,2*%
%TO.N,8*%
X139000000Y-82000000D03*
%TD*%
D20*
%TO.N,8*%
X138500000Y-90500000D03*
X140000000Y-87500000D03*
X138500000Y-95000000D03*
X148000000Y-93205000D03*
%TO.N,VM*%
X146975735Y-87975735D03*
X148000000Y-96000000D03*
%TO.N,Net-(D1-A)*%
X142500000Y-101950000D03*
X139000000Y-98500000D03*
%TO.N,VCC*%
X148000000Y-92000000D03*
%TD*%
D21*
%TO.N,8*%
X144500000Y-100000000D02*
X144890000Y-100390000D01*
X144890000Y-100390000D02*
X144890000Y-102268456D01*
X144890000Y-102268456D02*
X144608456Y-102550000D01*
X144608456Y-102550000D02*
X136298654Y-102550000D01*
X136298654Y-102550000D02*
X133225000Y-99476346D01*
X133225000Y-99476346D02*
X133225000Y-96023654D01*
X140175000Y-95255000D02*
X140325000Y-95105000D01*
X133225000Y-96023654D02*
X133993654Y-95255000D01*
X133993654Y-95255000D02*
X140175000Y-95255000D01*
X140325000Y-90555000D02*
X138555000Y-90555000D01*
X138555000Y-90555000D02*
X138500000Y-90500000D01*
X140325000Y-90555000D02*
X140325000Y-91205000D01*
X140000000Y-87500000D02*
X140000000Y-86000000D01*
X146075000Y-93155000D02*
X147950000Y-93155000D01*
X147950000Y-93155000D02*
X148000000Y-93205000D01*
X138500000Y-95000000D02*
X140220000Y-95000000D01*
X140220000Y-95000000D02*
X140325000Y-95105000D01*
X140325000Y-94455000D02*
X140325000Y-95105000D01*
%TO.N,VM*%
X146075000Y-95755000D02*
X147755000Y-95755000D01*
X147755000Y-95755000D02*
X148000000Y-96000000D01*
X146975735Y-87975735D02*
X146075000Y-88876470D01*
X146075000Y-88876470D02*
X146075000Y-89255000D01*
%TO.N,Net-(D1-A)*%
X139062500Y-100050000D02*
X139062500Y-98562500D01*
X139062500Y-98562500D02*
X139000000Y-98500000D01*
X142500000Y-101950000D02*
X144310000Y-101950000D01*
X144310000Y-101950000D02*
X144360000Y-102000000D01*
%TO.N,8*%
X134500000Y-101500000D02*
X135550000Y-102550000D01*
X135550000Y-102550000D02*
X150750000Y-102550000D01*
X150750000Y-102550000D02*
X151800000Y-101500000D01*
%TO.N,Net-(J2-Pin_4)*%
X151800000Y-91500000D02*
X150700000Y-92600000D01*
X150700000Y-92600000D02*
X146170000Y-92600000D01*
X146170000Y-92600000D02*
X146075000Y-92505000D01*
%TO.N,Net-(J1-Pin_6)*%
X140325000Y-89255000D02*
X140325000Y-89905000D01*
X134500000Y-89000000D02*
X140070000Y-89000000D01*
X140070000Y-89000000D02*
X140325000Y-89255000D01*
%TO.N,Net-(J1-Pin_5)*%
X140325000Y-91855000D02*
X140325000Y-92505000D01*
X134500000Y-91500000D02*
X134855000Y-91855000D01*
X134855000Y-91855000D02*
X140325000Y-91855000D01*
%TO.N,Net-(J1-Pin_4)*%
X140325000Y-93155000D02*
X140325000Y-93805000D01*
X134500000Y-94000000D02*
X134695000Y-93805000D01*
X134695000Y-93805000D02*
X140325000Y-93805000D01*
%TO.N,Net-(J1-Pin_3)*%
X140325000Y-95755000D02*
X140325000Y-96405000D01*
X134500000Y-96500000D02*
X140230000Y-96500000D01*
X140230000Y-96500000D02*
X140325000Y-96405000D01*
%TO.N,VCC*%
X147855000Y-91855000D02*
X148000000Y-92000000D01*
X146075000Y-91855000D02*
X147855000Y-91855000D01*
%TO.N,Net-(J2-Pin_3)*%
X146075000Y-91205000D02*
X149595000Y-91205000D01*
X149595000Y-91205000D02*
X151800000Y-89000000D01*
%TO.N,Net-(J2-Pin_2)*%
X146075000Y-90555000D02*
X146849999Y-90555000D01*
X146849999Y-90555000D02*
X150904999Y-86500000D01*
X150904999Y-86500000D02*
X151800000Y-86500000D01*
%TO.N,Net-(J2-Pin_1)*%
X151800000Y-84000000D02*
X147150000Y-88650000D01*
X147150000Y-88650000D02*
X147150000Y-89604999D01*
X147150000Y-89604999D02*
X146849999Y-89905000D01*
X146849999Y-89905000D02*
X146075000Y-89905000D01*
%TO.N,VM*%
X146075000Y-89255000D02*
X146075000Y-86658866D01*
X146075000Y-86658866D02*
X144806134Y-85390000D01*
X144806134Y-85390000D02*
X144130000Y-85390000D01*
X144130000Y-85390000D02*
X143520000Y-86000000D01*
%TO.N,8*%
X140000000Y-86000000D02*
X140000000Y-84065686D01*
X140000000Y-84065686D02*
X139000000Y-83065686D01*
X139000000Y-83065686D02*
X139000000Y-82000000D01*
X144480000Y-86000000D02*
X143870000Y-86610000D01*
X143870000Y-86610000D02*
X140610000Y-86610000D01*
X140610000Y-86610000D02*
X140000000Y-86000000D01*
%TO.N,VM*%
X143520000Y-86000000D02*
X143520000Y-85480000D01*
X143520000Y-85480000D02*
X144000000Y-85000000D01*
X142037500Y-82500000D02*
X143212500Y-81325000D01*
X143212500Y-81325000D02*
X146325000Y-81325000D01*
X146325000Y-81325000D02*
X147000000Y-82000000D01*
X147000000Y-82000000D02*
X147000000Y-84500000D01*
X147000000Y-84500000D02*
X146500000Y-85000000D01*
X146500000Y-85000000D02*
X144000000Y-85000000D01*
%TO.N,Net-(C1-Pad1)*%
X140500000Y-84000000D02*
X144500000Y-84000000D01*
X139640000Y-82000000D02*
X139640000Y-83140000D01*
X144500000Y-84000000D02*
X144962500Y-83537500D01*
X139640000Y-83140000D02*
X140500000Y-84000000D01*
X144962500Y-83537500D02*
X144962500Y-82500000D01*
%TO.N,8*%
X134500000Y-84000000D02*
X136500000Y-82000000D01*
X136500000Y-82000000D02*
X139000000Y-82000000D01*
%TO.N,VM*%
X134500000Y-99000000D02*
X136500000Y-101000000D01*
X136500000Y-101000000D02*
X140937500Y-101000000D01*
X146075000Y-96405000D02*
X146075000Y-96575000D01*
X146075000Y-96575000D02*
X143860000Y-98790000D01*
X143860000Y-98790000D02*
X143860000Y-100000000D01*
X146075000Y-95755000D02*
X146075000Y-96405000D01*
%TO.N,Net-(J2-Pin_7)*%
X151800000Y-99000000D02*
X150500000Y-99000000D01*
X150500000Y-99000000D02*
X149500000Y-98000000D01*
X149500000Y-98000000D02*
X149500000Y-95500000D01*
X149500000Y-95500000D02*
X149105000Y-95105000D01*
X149105000Y-95105000D02*
X146075000Y-95105000D01*
%TO.N,Net-(J2-Pin_6)*%
X151800000Y-96500000D02*
X150500000Y-96500000D01*
X149455000Y-94455000D02*
X146075000Y-94455000D01*
X150500000Y-96500000D02*
X150000000Y-96000000D01*
X150000000Y-96000000D02*
X150000000Y-95000000D01*
X150000000Y-95000000D02*
X149455000Y-94455000D01*
%TO.N,Net-(J2-Pin_5)*%
X151800000Y-94000000D02*
X151605000Y-93805000D01*
X151605000Y-93805000D02*
X146075000Y-93805000D01*
%TO.N,8*%
X145000000Y-102000000D02*
X151300000Y-102000000D01*
X151300000Y-102000000D02*
X151800000Y-101500000D01*
X144500000Y-100000000D02*
X145000000Y-100500000D01*
X145000000Y-100500000D02*
X145000000Y-102000000D01*
%TO.N,VM*%
X140937500Y-101000000D02*
X142860000Y-101000000D01*
X142860000Y-101000000D02*
X143860000Y-100000000D01*
D22*
%TO.N,VCC*%
X134500000Y-86500000D02*
X138820000Y-86500000D01*
X138820000Y-86500000D02*
X139320000Y-86000000D01*
%TD*%
%TA.AperFunction,Conductor*%
%TO.N,VCC*%
G36*
X138539844Y-86249248D02*
G01*
X138608297Y-86257836D01*
X138661916Y-86302633D01*
X138673385Y-86324087D01*
X138705899Y-86402586D01*
X138802079Y-86527929D01*
X138807469Y-86533319D01*
X138840954Y-86594642D01*
X138835970Y-86664334D01*
X138794098Y-86720267D01*
X138728634Y-86744684D01*
X138719788Y-86745000D01*
X135812221Y-86745000D01*
X135812212Y-86745000D01*
X135812207Y-86745001D01*
X135764247Y-86749466D01*
X135752753Y-86750000D01*
X134904146Y-86750000D01*
X134942630Y-86683343D01*
X134975000Y-86562535D01*
X134975000Y-86437465D01*
X134942630Y-86316657D01*
X134904146Y-86250000D01*
X135768576Y-86250000D01*
X135786222Y-86251262D01*
X135812221Y-86255000D01*
X135812224Y-86255000D01*
X138457772Y-86255000D01*
X138467918Y-86254455D01*
X138511810Y-86252103D01*
X138511818Y-86252102D01*
X138511820Y-86252102D01*
X138511821Y-86252102D01*
X138519632Y-86251262D01*
X138538168Y-86249269D01*
X138538172Y-86249268D01*
X138538175Y-86249268D01*
X138538971Y-86249139D01*
X138539055Y-86249149D01*
X138539817Y-86249047D01*
X138539844Y-86249248D01*
G37*
%TD.AperFunction*%
%TD*%
%TA.AperFunction,Conductor*%
%TO.N,VM*%
G36*
X148842539Y-95725185D02*
G01*
X148888294Y-95777989D01*
X148899500Y-95829500D01*
X148899500Y-97913330D01*
X148899499Y-97913348D01*
X148899499Y-98079054D01*
X148899498Y-98079054D01*
X148940424Y-98231789D01*
X148940425Y-98231790D01*
X148961455Y-98268214D01*
X148961456Y-98268216D01*
X149019475Y-98368709D01*
X149019481Y-98368717D01*
X149138349Y-98487585D01*
X149138354Y-98487589D01*
X150131284Y-99480520D01*
X150131286Y-99480521D01*
X150131290Y-99480524D01*
X150249991Y-99549055D01*
X150268216Y-99559577D01*
X150418952Y-99599967D01*
X150478610Y-99636331D01*
X150497340Y-99663445D01*
X150519949Y-99707817D01*
X150644890Y-99879786D01*
X150795209Y-100030105D01*
X150795214Y-100030109D01*
X150959793Y-100149682D01*
X151002459Y-100205011D01*
X151008438Y-100274625D01*
X150975833Y-100336420D01*
X150959793Y-100350318D01*
X150795214Y-100469890D01*
X150795209Y-100469894D01*
X150644890Y-100620213D01*
X150519951Y-100792179D01*
X150423444Y-100981585D01*
X150357753Y-101183759D01*
X150340151Y-101294898D01*
X150310222Y-101358033D01*
X150250910Y-101394964D01*
X150217678Y-101399500D01*
X145724500Y-101399500D01*
X145657461Y-101379815D01*
X145611706Y-101327011D01*
X145600500Y-101275500D01*
X145600500Y-100589060D01*
X145600501Y-100589047D01*
X145600501Y-100420944D01*
X145598543Y-100413637D01*
X145559577Y-100268216D01*
X145534844Y-100225376D01*
X145480524Y-100131290D01*
X145480518Y-100131282D01*
X145263390Y-99914154D01*
X145229905Y-99852831D01*
X145228132Y-99842656D01*
X145215046Y-99743246D01*
X145215044Y-99743241D01*
X145215044Y-99743238D01*
X145154536Y-99597159D01*
X145058282Y-99471718D01*
X144932841Y-99375464D01*
X144786762Y-99314956D01*
X144786760Y-99314955D01*
X144669361Y-99299500D01*
X144330637Y-99299500D01*
X144213236Y-99314955D01*
X144211111Y-99315525D01*
X144208910Y-99315525D01*
X144205181Y-99316016D01*
X144205116Y-99315525D01*
X144154815Y-99315525D01*
X144154687Y-99316505D01*
X144147251Y-99315525D01*
X144146937Y-99315526D01*
X144146633Y-99315444D01*
X144060000Y-99304038D01*
X144060000Y-99319807D01*
X144040315Y-99386846D01*
X144011488Y-99418181D01*
X143941718Y-99471718D01*
X143882374Y-99549056D01*
X143825948Y-99590257D01*
X143756202Y-99594412D01*
X143695281Y-99560199D01*
X143662529Y-99498482D01*
X143660000Y-99473568D01*
X143660000Y-99304038D01*
X143573369Y-99315444D01*
X143573365Y-99315445D01*
X143427413Y-99375899D01*
X143302075Y-99472075D01*
X143205899Y-99597413D01*
X143145444Y-99743368D01*
X143137987Y-99800000D01*
X143645500Y-99800000D01*
X143712539Y-99819685D01*
X143758294Y-99872489D01*
X143769500Y-99923999D01*
X143769501Y-100075999D01*
X143749817Y-100143039D01*
X143697013Y-100188794D01*
X143645501Y-100200000D01*
X143137990Y-100200000D01*
X143137988Y-100200001D01*
X143145442Y-100256627D01*
X143145444Y-100256633D01*
X143205899Y-100402585D01*
X143302075Y-100527924D01*
X143427413Y-100624100D01*
X143573365Y-100684554D01*
X143573369Y-100684555D01*
X143660000Y-100695961D01*
X143660000Y-100526431D01*
X143679685Y-100459392D01*
X143732489Y-100413637D01*
X143801647Y-100403693D01*
X143865203Y-100432718D01*
X143882372Y-100450941D01*
X143941718Y-100528282D01*
X144011487Y-100581817D01*
X144052689Y-100638243D01*
X144060000Y-100680192D01*
X144060000Y-100695959D01*
X144060001Y-100695960D01*
X144149317Y-100684203D01*
X144218352Y-100694969D01*
X144270607Y-100741350D01*
X144289500Y-100807142D01*
X144289500Y-101177740D01*
X144269815Y-101244779D01*
X144217011Y-101290534D01*
X144181684Y-101300679D01*
X144073246Y-101314954D01*
X144073237Y-101314956D01*
X144012630Y-101340061D01*
X143965177Y-101349500D01*
X143082412Y-101349500D01*
X143015373Y-101329815D01*
X143005097Y-101322445D01*
X143002263Y-101320185D01*
X143002262Y-101320184D01*
X142941364Y-101281919D01*
X142849523Y-101224211D01*
X142679254Y-101164631D01*
X142679249Y-101164630D01*
X142500004Y-101144435D01*
X142499996Y-101144435D01*
X142320750Y-101164630D01*
X142320745Y-101164631D01*
X142150478Y-101224210D01*
X142139685Y-101230993D01*
X142073711Y-101250000D01*
X140031815Y-101250000D01*
X139968694Y-101232732D01*
X139910396Y-101198255D01*
X139910393Y-101198254D01*
X139752573Y-101152402D01*
X139752567Y-101152401D01*
X139715701Y-101149500D01*
X139715694Y-101149500D01*
X138409306Y-101149500D01*
X138409298Y-101149500D01*
X138372432Y-101152401D01*
X138372426Y-101152402D01*
X138214606Y-101198254D01*
X138214603Y-101198255D01*
X138073137Y-101281917D01*
X138073129Y-101281923D01*
X137956923Y-101398129D01*
X137956917Y-101398137D01*
X137873255Y-101539603D01*
X137873254Y-101539606D01*
X137827402Y-101697426D01*
X137827401Y-101697432D01*
X137824500Y-101734298D01*
X137824500Y-101825500D01*
X137804815Y-101892539D01*
X137752011Y-101938294D01*
X137700500Y-101949500D01*
X136598751Y-101949500D01*
X136531712Y-101929815D01*
X136511070Y-101913181D01*
X136011818Y-101413929D01*
X135978333Y-101352606D01*
X135975499Y-101326248D01*
X135975499Y-100849998D01*
X135975498Y-100849981D01*
X135964999Y-100747203D01*
X135964998Y-100747200D01*
X135909814Y-100580666D01*
X135817712Y-100431344D01*
X135693656Y-100307288D01*
X135544334Y-100215186D01*
X135544332Y-100215185D01*
X135538440Y-100211551D01*
X135491716Y-100159603D01*
X135480493Y-100090641D01*
X135508337Y-100026558D01*
X135515856Y-100018330D01*
X135654728Y-99879458D01*
X135687538Y-99834298D01*
X137824500Y-99834298D01*
X137824500Y-100265701D01*
X137827401Y-100302567D01*
X137827402Y-100302573D01*
X137873254Y-100460393D01*
X137873255Y-100460396D01*
X137956917Y-100601862D01*
X137956923Y-100601870D01*
X138073129Y-100718076D01*
X138073133Y-100718079D01*
X138073135Y-100718081D01*
X138214602Y-100801744D01*
X138233182Y-100807142D01*
X138372426Y-100847597D01*
X138372429Y-100847597D01*
X138372431Y-100847598D01*
X138409306Y-100850500D01*
X138409314Y-100850500D01*
X139715686Y-100850500D01*
X139715694Y-100850500D01*
X139752569Y-100847598D01*
X139752571Y-100847597D01*
X139752573Y-100847597D01*
X139794191Y-100835505D01*
X139910398Y-100801744D01*
X139968694Y-100767268D01*
X140031815Y-100750000D01*
X140687500Y-100750000D01*
X141187500Y-100750000D01*
X142172295Y-100750000D01*
X142172295Y-100749998D01*
X142172100Y-100747513D01*
X142126281Y-100589801D01*
X142042685Y-100448447D01*
X142042678Y-100448438D01*
X141926561Y-100332321D01*
X141926552Y-100332314D01*
X141785196Y-100248717D01*
X141785193Y-100248716D01*
X141627495Y-100202900D01*
X141627489Y-100202899D01*
X141590649Y-100200000D01*
X141187500Y-100200000D01*
X141187500Y-100750000D01*
X140687500Y-100750000D01*
X140687500Y-100200000D01*
X140424500Y-100200000D01*
X140357461Y-100180315D01*
X140311706Y-100127511D01*
X140300500Y-100076000D01*
X140300500Y-99834313D01*
X140300499Y-99834298D01*
X140297598Y-99797432D01*
X140297597Y-99797426D01*
X140251745Y-99639606D01*
X140251744Y-99639603D01*
X140251744Y-99639602D01*
X140168081Y-99498135D01*
X140168079Y-99498133D01*
X140168076Y-99498129D01*
X140051870Y-99381923D01*
X140051862Y-99381917D01*
X139946839Y-99319807D01*
X139910398Y-99298256D01*
X139910397Y-99298255D01*
X139910396Y-99298255D01*
X139910395Y-99298254D01*
X139752404Y-99252353D01*
X139693519Y-99214746D01*
X139664313Y-99151274D01*
X139663000Y-99133277D01*
X139663000Y-98985174D01*
X139682006Y-98919202D01*
X139725789Y-98849522D01*
X139785368Y-98679255D01*
X139799101Y-98557370D01*
X139805565Y-98500003D01*
X139805565Y-98499996D01*
X139785369Y-98320750D01*
X139785368Y-98320745D01*
X139754241Y-98231789D01*
X139725789Y-98150478D01*
X139629816Y-97997738D01*
X139502262Y-97870184D01*
X139470647Y-97850319D01*
X139349523Y-97774211D01*
X139179254Y-97714631D01*
X139179249Y-97714630D01*
X139000004Y-97694435D01*
X138999996Y-97694435D01*
X138820750Y-97714630D01*
X138820745Y-97714631D01*
X138650476Y-97774211D01*
X138497737Y-97870184D01*
X138370184Y-97997737D01*
X138274211Y-98150476D01*
X138214631Y-98320745D01*
X138214630Y-98320750D01*
X138194435Y-98499996D01*
X138194435Y-98500003D01*
X138214630Y-98679249D01*
X138214631Y-98679254D01*
X138274211Y-98849523D01*
X138370184Y-99002262D01*
X138416256Y-99048334D01*
X138449741Y-99109657D01*
X138444757Y-99179349D01*
X138402885Y-99235282D01*
X138363171Y-99255091D01*
X138214604Y-99298254D01*
X138214603Y-99298255D01*
X138073137Y-99381917D01*
X138073129Y-99381923D01*
X137956923Y-99498129D01*
X137956917Y-99498137D01*
X137873255Y-99639603D01*
X137873254Y-99639606D01*
X137827402Y-99797426D01*
X137827401Y-99797432D01*
X137824500Y-99834298D01*
X135687538Y-99834298D01*
X135779620Y-99707557D01*
X135876095Y-99518217D01*
X135941757Y-99316129D01*
X135941757Y-99316126D01*
X135952231Y-99250000D01*
X134904146Y-99250000D01*
X134942630Y-99183343D01*
X134975000Y-99062535D01*
X134975000Y-98937465D01*
X134942630Y-98816657D01*
X134904146Y-98750000D01*
X135952231Y-98750000D01*
X135941757Y-98683873D01*
X135941757Y-98683870D01*
X135876095Y-98481782D01*
X135779620Y-98292442D01*
X135654727Y-98120540D01*
X135654723Y-98120535D01*
X135504464Y-97970276D01*
X135504459Y-97970272D01*
X135339781Y-97850627D01*
X135297115Y-97795297D01*
X135291136Y-97725684D01*
X135323741Y-97663889D01*
X135339776Y-97649994D01*
X135504792Y-97530104D01*
X135655104Y-97379792D01*
X135655106Y-97379788D01*
X135655109Y-97379786D01*
X135713661Y-97299193D01*
X135780051Y-97207816D01*
X135780349Y-97207230D01*
X135800235Y-97168205D01*
X135848209Y-97117409D01*
X135910719Y-97100500D01*
X139564534Y-97100500D01*
X139580718Y-97101560D01*
X139610639Y-97105500D01*
X141039360Y-97105499D01*
X141039363Y-97105499D01*
X141156753Y-97090046D01*
X141156757Y-97090044D01*
X141156762Y-97090044D01*
X141302841Y-97029536D01*
X141428282Y-96933282D01*
X141524536Y-96807841D01*
X141585044Y-96661762D01*
X141592517Y-96605001D01*
X144807988Y-96605001D01*
X144815442Y-96661627D01*
X144815444Y-96661633D01*
X144875899Y-96807585D01*
X144972075Y-96932924D01*
X145097413Y-97029100D01*
X145243365Y-97089554D01*
X145243369Y-97089555D01*
X145360676Y-97104999D01*
X145874999Y-97104999D01*
X146275000Y-97104999D01*
X146789324Y-97104999D01*
X146906628Y-97089557D01*
X146906633Y-97089555D01*
X147052585Y-97029100D01*
X147177924Y-96932924D01*
X147274100Y-96807586D01*
X147334555Y-96661631D01*
X147342012Y-96605000D01*
X146275000Y-96605000D01*
X146275000Y-97104999D01*
X145874999Y-97104999D01*
X145875000Y-97104998D01*
X145875000Y-96605000D01*
X144807990Y-96605000D01*
X144807988Y-96605001D01*
X141592517Y-96605001D01*
X141600500Y-96544361D01*
X141600499Y-96265640D01*
X141585044Y-96148238D01*
X141576434Y-96127454D01*
X141568965Y-96057986D01*
X141576435Y-96032545D01*
X141585044Y-96011762D01*
X141592517Y-95955000D01*
X141594714Y-95938313D01*
X141622981Y-95874417D01*
X141681306Y-95835946D01*
X141717653Y-95830499D01*
X144682853Y-95830499D01*
X144749892Y-95850184D01*
X144795647Y-95902988D01*
X144805792Y-95938315D01*
X144815442Y-96011628D01*
X144815443Y-96011629D01*
X144824108Y-96032549D01*
X144831576Y-96102018D01*
X144824109Y-96127449D01*
X144815443Y-96148370D01*
X144807987Y-96205000D01*
X145875000Y-96205000D01*
X145875000Y-95929499D01*
X145894685Y-95862460D01*
X145947489Y-95816705D01*
X145998997Y-95805499D01*
X146151001Y-95805499D01*
X146218039Y-95825184D01*
X146263794Y-95877988D01*
X146275000Y-95929499D01*
X146275000Y-96205000D01*
X147342010Y-96205000D01*
X147342011Y-96204998D01*
X147334558Y-96148377D01*
X147334555Y-96148368D01*
X147325892Y-96127453D01*
X147318423Y-96057983D01*
X147325892Y-96032546D01*
X147334556Y-96011629D01*
X147342012Y-95955000D01*
X147124303Y-95955000D01*
X147057264Y-95935315D01*
X147011509Y-95882511D01*
X147001565Y-95813353D01*
X147030590Y-95749797D01*
X147048796Y-95732640D01*
X147050750Y-95731140D01*
X147115914Y-95705932D01*
X147126257Y-95705500D01*
X148775500Y-95705500D01*
X148842539Y-95725185D01*
G37*
%TD.AperFunction*%
%TA.AperFunction,Conductor*%
G36*
X141343948Y-81020185D02*
G01*
X141389703Y-81072989D01*
X141399647Y-81142147D01*
X141370622Y-81205703D01*
X141342006Y-81230039D01*
X141256654Y-81282684D01*
X141132684Y-81406654D01*
X141040643Y-81555875D01*
X141040641Y-81555880D01*
X140985494Y-81722302D01*
X140985493Y-81722309D01*
X140975000Y-81825013D01*
X140975000Y-82250000D01*
X143099999Y-82250000D01*
X143099999Y-81825028D01*
X143099998Y-81825013D01*
X143089505Y-81722302D01*
X143034358Y-81555880D01*
X143034356Y-81555875D01*
X142942315Y-81406654D01*
X142818345Y-81282684D01*
X142732994Y-81230039D01*
X142686270Y-81178091D01*
X142675047Y-81109128D01*
X142702891Y-81045046D01*
X142760960Y-81006190D01*
X142798091Y-81000500D01*
X144200957Y-81000500D01*
X144267996Y-81020185D01*
X144313751Y-81072989D01*
X144323695Y-81142147D01*
X144294670Y-81205703D01*
X144266054Y-81230039D01*
X144181342Y-81282289D01*
X144057289Y-81406342D01*
X143965187Y-81555663D01*
X143965185Y-81555668D01*
X143951436Y-81597160D01*
X143910001Y-81722203D01*
X143910001Y-81722204D01*
X143910000Y-81722204D01*
X143899500Y-81824983D01*
X143899500Y-83175001D01*
X143899501Y-83175019D01*
X143908479Y-83262899D01*
X143895709Y-83331592D01*
X143847828Y-83382476D01*
X143785121Y-83399500D01*
X143214376Y-83399500D01*
X143147337Y-83379815D01*
X143101582Y-83327011D01*
X143091018Y-83262897D01*
X143099999Y-83174986D01*
X143100000Y-83174973D01*
X143100000Y-82750000D01*
X140975001Y-82750000D01*
X140975001Y-83174989D01*
X140983982Y-83262899D01*
X140971212Y-83331592D01*
X140923331Y-83382476D01*
X140860624Y-83399500D01*
X140800098Y-83399500D01*
X140733059Y-83379815D01*
X140712417Y-83363181D01*
X140276819Y-82927583D01*
X140243334Y-82866260D01*
X140240500Y-82839902D01*
X140240500Y-82515354D01*
X140260185Y-82448315D01*
X140266113Y-82439881D01*
X140294536Y-82402841D01*
X140355044Y-82256762D01*
X140370500Y-82139361D01*
X140370499Y-81860640D01*
X140370499Y-81860636D01*
X140355046Y-81743246D01*
X140355044Y-81743241D01*
X140355044Y-81743238D01*
X140294536Y-81597159D01*
X140198282Y-81471718D01*
X140072841Y-81375464D01*
X139959998Y-81328723D01*
X139926762Y-81314956D01*
X139926760Y-81314955D01*
X139809361Y-81299500D01*
X139470636Y-81299500D01*
X139353234Y-81314955D01*
X139352083Y-81315264D01*
X139350891Y-81315264D01*
X139345179Y-81316016D01*
X139345080Y-81315264D01*
X139294919Y-81315264D01*
X139294820Y-81316017D01*
X139289107Y-81315264D01*
X139287917Y-81315265D01*
X139286765Y-81314956D01*
X139169361Y-81299500D01*
X138830636Y-81299500D01*
X138713246Y-81314953D01*
X138713234Y-81314957D01*
X138567163Y-81375461D01*
X138560124Y-81379526D01*
X138559117Y-81377783D01*
X138504068Y-81399069D01*
X138493743Y-81399500D01*
X136579057Y-81399500D01*
X136420943Y-81399500D01*
X136268215Y-81440423D01*
X136268214Y-81440423D01*
X136268212Y-81440424D01*
X136268209Y-81440425D01*
X136218096Y-81469359D01*
X136218095Y-81469360D01*
X136214011Y-81471718D01*
X136131285Y-81519479D01*
X136131282Y-81519481D01*
X136019478Y-81631286D01*
X135009025Y-82641738D01*
X134947702Y-82675223D01*
X134901946Y-82676530D01*
X134731287Y-82649500D01*
X134268713Y-82649500D01*
X134220042Y-82657208D01*
X134058760Y-82682753D01*
X133856585Y-82748444D01*
X133667179Y-82844951D01*
X133495213Y-82969890D01*
X133344890Y-83120213D01*
X133219951Y-83292179D01*
X133123444Y-83481585D01*
X133057753Y-83683760D01*
X133031580Y-83849010D01*
X133024500Y-83893713D01*
X133024500Y-84106287D01*
X133057754Y-84316243D01*
X133065286Y-84339425D01*
X133123444Y-84518414D01*
X133219951Y-84707820D01*
X133344890Y-84879786D01*
X133495209Y-85030105D01*
X133495214Y-85030109D01*
X133659793Y-85149682D01*
X133702459Y-85205011D01*
X133708438Y-85274625D01*
X133675833Y-85336420D01*
X133659793Y-85350318D01*
X133495214Y-85469890D01*
X133495209Y-85469894D01*
X133344890Y-85620213D01*
X133219951Y-85792179D01*
X133123444Y-85981585D01*
X133057753Y-86183760D01*
X133024500Y-86393713D01*
X133024500Y-86606286D01*
X133056391Y-86807642D01*
X133057754Y-86816243D01*
X133067688Y-86846818D01*
X133123444Y-87018414D01*
X133219951Y-87207820D01*
X133344890Y-87379786D01*
X133495209Y-87530105D01*
X133495214Y-87530109D01*
X133659793Y-87649682D01*
X133702459Y-87705011D01*
X133708438Y-87774625D01*
X133675833Y-87836420D01*
X133659793Y-87850318D01*
X133495214Y-87969890D01*
X133495209Y-87969894D01*
X133344890Y-88120213D01*
X133219951Y-88292179D01*
X133123444Y-88481585D01*
X133057753Y-88683760D01*
X133031081Y-88852160D01*
X133024500Y-88893713D01*
X133024500Y-89106287D01*
X133027858Y-89127489D01*
X133057753Y-89316239D01*
X133057753Y-89316241D01*
X133057754Y-89316243D01*
X133121282Y-89511762D01*
X133123444Y-89518414D01*
X133219951Y-89707820D01*
X133344890Y-89879786D01*
X133495209Y-90030105D01*
X133495214Y-90030109D01*
X133659793Y-90149682D01*
X133702459Y-90205011D01*
X133708438Y-90274625D01*
X133675833Y-90336420D01*
X133659793Y-90350318D01*
X133495214Y-90469890D01*
X133495209Y-90469894D01*
X133344890Y-90620213D01*
X133219951Y-90792179D01*
X133123444Y-90981585D01*
X133057753Y-91183760D01*
X133024500Y-91393713D01*
X133024500Y-91606286D01*
X133056052Y-91805501D01*
X133057754Y-91816243D01*
X133064557Y-91837181D01*
X133123444Y-92018414D01*
X133219951Y-92207820D01*
X133344890Y-92379786D01*
X133495209Y-92530105D01*
X133495214Y-92530109D01*
X133659793Y-92649682D01*
X133702459Y-92705011D01*
X133708438Y-92774625D01*
X133675833Y-92836420D01*
X133659793Y-92850318D01*
X133495214Y-92969890D01*
X133495209Y-92969894D01*
X133344890Y-93120213D01*
X133219951Y-93292179D01*
X133123444Y-93481585D01*
X133057753Y-93683760D01*
X133030606Y-93855164D01*
X133024500Y-93893713D01*
X133024500Y-94106287D01*
X133057754Y-94316243D01*
X133114917Y-94492173D01*
X133123444Y-94518414D01*
X133219951Y-94707820D01*
X133344890Y-94879786D01*
X133348053Y-94883488D01*
X133347178Y-94884234D01*
X133378065Y-94940799D01*
X133373081Y-95010491D01*
X133344580Y-95054838D01*
X132744481Y-95654936D01*
X132744477Y-95654941D01*
X132731887Y-95676749D01*
X132681320Y-95724965D01*
X132612713Y-95738188D01*
X132547848Y-95712220D01*
X132507320Y-95655305D01*
X132500500Y-95614749D01*
X132500500Y-81124500D01*
X132520185Y-81057461D01*
X132572989Y-81011706D01*
X132624500Y-81000500D01*
X141276909Y-81000500D01*
X141343948Y-81020185D01*
G37*
%TD.AperFunction*%
%TA.AperFunction,Conductor*%
G36*
X153442539Y-81020185D02*
G01*
X153488294Y-81072989D01*
X153499500Y-81124500D01*
X153499500Y-83186455D01*
X153479815Y-83253494D01*
X153427011Y-83299249D01*
X153357853Y-83309193D01*
X153294297Y-83280168D01*
X153257794Y-83225459D01*
X153244217Y-83184488D01*
X153209814Y-83080666D01*
X153117712Y-82931344D01*
X152993656Y-82807288D01*
X152898253Y-82748443D01*
X152844336Y-82715187D01*
X152844331Y-82715185D01*
X152842862Y-82714698D01*
X152677797Y-82660001D01*
X152677795Y-82660000D01*
X152575010Y-82649500D01*
X151024998Y-82649500D01*
X151024981Y-82649501D01*
X150922203Y-82660000D01*
X150922200Y-82660001D01*
X150755668Y-82715185D01*
X150755663Y-82715187D01*
X150606342Y-82807289D01*
X150482289Y-82931342D01*
X150390187Y-83080663D01*
X150390186Y-83080666D01*
X150335001Y-83247203D01*
X150335001Y-83247204D01*
X150335000Y-83247204D01*
X150324500Y-83349983D01*
X150324500Y-84574902D01*
X150304815Y-84641941D01*
X150288181Y-84662583D01*
X146669481Y-88281282D01*
X146669479Y-88281285D01*
X146663187Y-88292184D01*
X146626492Y-88355743D01*
X146619361Y-88368094D01*
X146619359Y-88368096D01*
X146590425Y-88418209D01*
X146590423Y-88418212D01*
X146578398Y-88463094D01*
X146542033Y-88522754D01*
X146479186Y-88553283D01*
X146458623Y-88555000D01*
X146275000Y-88555000D01*
X146275000Y-89080500D01*
X146255315Y-89147539D01*
X146202511Y-89193294D01*
X146151000Y-89204500D01*
X145999000Y-89204500D01*
X145931961Y-89184815D01*
X145886206Y-89132011D01*
X145875000Y-89080500D01*
X145875000Y-88555000D01*
X145360675Y-88555000D01*
X145243371Y-88570442D01*
X145243366Y-88570444D01*
X145097414Y-88630899D01*
X144972075Y-88727075D01*
X144875899Y-88852413D01*
X144815444Y-88998368D01*
X144807987Y-89055000D01*
X145025697Y-89055000D01*
X145092736Y-89074685D01*
X145138491Y-89127489D01*
X145148435Y-89196647D01*
X145119410Y-89260203D01*
X145101184Y-89277376D01*
X145097160Y-89280463D01*
X145097159Y-89280464D01*
X145050536Y-89316239D01*
X144971715Y-89376720D01*
X144948875Y-89406487D01*
X144892447Y-89447690D01*
X144850500Y-89455000D01*
X144807990Y-89455000D01*
X144807988Y-89455001D01*
X144815441Y-89511622D01*
X144815445Y-89511634D01*
X144823837Y-89531895D01*
X144831304Y-89601364D01*
X144823838Y-89626794D01*
X144814956Y-89648238D01*
X144814955Y-89648239D01*
X144812327Y-89668205D01*
X144807113Y-89707816D01*
X144805287Y-89721685D01*
X144777021Y-89785581D01*
X144718697Y-89824053D01*
X144682348Y-89829500D01*
X141717652Y-89829500D01*
X141650613Y-89809815D01*
X141604858Y-89757011D01*
X141594713Y-89721685D01*
X141587672Y-89668205D01*
X141585044Y-89648238D01*
X141576434Y-89627454D01*
X141568965Y-89557986D01*
X141576435Y-89532545D01*
X141576704Y-89531895D01*
X141585044Y-89511762D01*
X141600500Y-89394361D01*
X141600499Y-89115640D01*
X141600499Y-89115636D01*
X141585046Y-88998246D01*
X141585044Y-88998241D01*
X141585044Y-88998238D01*
X141524536Y-88852159D01*
X141428282Y-88726718D01*
X141302841Y-88630464D01*
X141156762Y-88569956D01*
X141156760Y-88569955D01*
X141039370Y-88554501D01*
X141039367Y-88554500D01*
X141039361Y-88554500D01*
X141039354Y-88554500D01*
X140525098Y-88554500D01*
X140458059Y-88534815D01*
X140445163Y-88524423D01*
X140445161Y-88524426D01*
X140438718Y-88519482D01*
X140438716Y-88519480D01*
X140351904Y-88469360D01*
X140351904Y-88469359D01*
X140351900Y-88469358D01*
X140322417Y-88452335D01*
X140274204Y-88401769D01*
X140260982Y-88333161D01*
X140286951Y-88268297D01*
X140343469Y-88227907D01*
X140349522Y-88225789D01*
X140354214Y-88222841D01*
X140502262Y-88129816D01*
X140629816Y-88002262D01*
X140725789Y-87849522D01*
X140785368Y-87679255D01*
X140797106Y-87575080D01*
X140805565Y-87500003D01*
X140805565Y-87499996D01*
X140788483Y-87348383D01*
X140800538Y-87279561D01*
X140847887Y-87228182D01*
X140911703Y-87210500D01*
X143783331Y-87210500D01*
X143783347Y-87210501D01*
X143790943Y-87210501D01*
X143949054Y-87210501D01*
X143949057Y-87210501D01*
X144101785Y-87169577D01*
X144151904Y-87140639D01*
X144238716Y-87090520D01*
X144350520Y-86978716D01*
X144350520Y-86978714D01*
X144360728Y-86968507D01*
X144360728Y-86968505D01*
X144482417Y-86846818D01*
X144543741Y-86813334D01*
X144570098Y-86810500D01*
X144684682Y-86810500D01*
X144684690Y-86810500D01*
X144720993Y-86807643D01*
X144720995Y-86807642D01*
X144720997Y-86807642D01*
X144761975Y-86795736D01*
X144876395Y-86762494D01*
X145015687Y-86680117D01*
X145130117Y-86565687D01*
X145212494Y-86426395D01*
X145257643Y-86270993D01*
X145260500Y-86234690D01*
X145260500Y-85765310D01*
X145257643Y-85729007D01*
X145248746Y-85698385D01*
X145219337Y-85597157D01*
X145212494Y-85573605D01*
X145130117Y-85434313D01*
X145130115Y-85434311D01*
X145130112Y-85434307D01*
X145015692Y-85319887D01*
X145015684Y-85319881D01*
X144926422Y-85267092D01*
X144876395Y-85237506D01*
X144876394Y-85237505D01*
X144876393Y-85237505D01*
X144876390Y-85237504D01*
X144720997Y-85192357D01*
X144720991Y-85192356D01*
X144684697Y-85189500D01*
X144684690Y-85189500D01*
X144275310Y-85189500D01*
X144275302Y-85189500D01*
X144239008Y-85192356D01*
X144239002Y-85192357D01*
X144083609Y-85237504D01*
X144083604Y-85237506D01*
X144062628Y-85249911D01*
X143994903Y-85267092D01*
X143936389Y-85249911D01*
X143916191Y-85237966D01*
X143916190Y-85237965D01*
X143770001Y-85195493D01*
X143770000Y-85195494D01*
X143770000Y-85501645D01*
X143752734Y-85564763D01*
X143747507Y-85573600D01*
X143747504Y-85573608D01*
X143702357Y-85729002D01*
X143702356Y-85729008D01*
X143699500Y-85765302D01*
X143699500Y-85879903D01*
X143679815Y-85946942D01*
X143663181Y-85967584D01*
X143657584Y-85973181D01*
X143596261Y-86006666D01*
X143569903Y-86009500D01*
X143394000Y-86009500D01*
X143326961Y-85989815D01*
X143281206Y-85937011D01*
X143270000Y-85885500D01*
X143270000Y-85195494D01*
X143269998Y-85195493D01*
X143123809Y-85237965D01*
X143123806Y-85237967D01*
X142984625Y-85320278D01*
X142984616Y-85320285D01*
X142870285Y-85434616D01*
X142870278Y-85434625D01*
X142787969Y-85573803D01*
X142742854Y-85729089D01*
X142742854Y-85729092D01*
X142740000Y-85765355D01*
X142740000Y-85885500D01*
X142720315Y-85952539D01*
X142667511Y-85998294D01*
X142616000Y-86009500D01*
X140910097Y-86009500D01*
X140843058Y-85989815D01*
X140822416Y-85973181D01*
X140763390Y-85914155D01*
X140729905Y-85852832D01*
X140728132Y-85842657D01*
X140715046Y-85743246D01*
X140715044Y-85743241D01*
X140715044Y-85743238D01*
X140654536Y-85597159D01*
X140654535Y-85597158D01*
X140654535Y-85597157D01*
X140626124Y-85560131D01*
X140600930Y-85494962D01*
X140600500Y-85484645D01*
X140600500Y-84724500D01*
X140620185Y-84657461D01*
X140672989Y-84611706D01*
X140724500Y-84600500D01*
X144413331Y-84600500D01*
X144413347Y-84600501D01*
X144420943Y-84600501D01*
X144579054Y-84600501D01*
X144579057Y-84600501D01*
X144731785Y-84559577D01*
X144781904Y-84530639D01*
X144868716Y-84480520D01*
X144980520Y-84368716D01*
X144980521Y-84368714D01*
X145443020Y-83906216D01*
X145452453Y-83889876D01*
X145503018Y-83841659D01*
X145520832Y-83834169D01*
X145594334Y-83809814D01*
X145743656Y-83717712D01*
X145867712Y-83593656D01*
X145959814Y-83444334D01*
X146014999Y-83277797D01*
X146025500Y-83175009D01*
X146025499Y-81824992D01*
X146014999Y-81722203D01*
X145959814Y-81555666D01*
X145867712Y-81406344D01*
X145743656Y-81282288D01*
X145658945Y-81230038D01*
X145612222Y-81178091D01*
X145600999Y-81109128D01*
X145628843Y-81045046D01*
X145686911Y-81006190D01*
X145724043Y-81000500D01*
X153375500Y-81000500D01*
X153442539Y-81020185D01*
G37*
%TD.AperFunction*%
%TD*%
M02*
