%TF.GenerationSoftware,KiCad,Pcbnew,8.0.4-8.0.4-0~ubuntu24.04.1*%
%TF.CreationDate,2024-09-03T18:29:32+09:00*%
%TF.ProjectId,ESP32,45535033-322e-46b6-9963-61645f706362,rev?*%
%TF.SameCoordinates,Original*%
%TF.FileFunction,Drillmap*%
%TF.FilePolarity,Positive*%
%FSLAX45Y45*%
G04 Gerber Fmt 4.5, Leading zero omitted, Abs format (unit mm)*
G04 Created by KiCad (PCBNEW 8.0.4-8.0.4-0~ubuntu24.04.1) date 2024-09-03 18:29:32*
%MOMM*%
%LPD*%
G01*
G04 APERTURE LIST*
%ADD10C,0.050000*%
%ADD11C,0.200000*%
%ADD12C,0.100000*%
G04 APERTURE END LIST*
D10*
X14250000Y-7625000D02*
X17775000Y-7625000D01*
X17775000Y-13500000D01*
X14250000Y-13500000D01*
X14250000Y-7625000D01*
D11*
D12*
X14578500Y-8539500D02*
X14668500Y-8629500D01*
X14668500Y-8539500D02*
X14578500Y-8629500D01*
X14578500Y-8793500D02*
X14668500Y-8883500D01*
X14668500Y-8793500D02*
X14578500Y-8883500D01*
X14578500Y-9047500D02*
X14668500Y-9137500D01*
X14668500Y-9047500D02*
X14578500Y-9137500D01*
X14578500Y-9301500D02*
X14668500Y-9391500D01*
X14668500Y-9301500D02*
X14578500Y-9391500D01*
X14578500Y-9555500D02*
X14668500Y-9645500D01*
X14668500Y-9555500D02*
X14578500Y-9645500D01*
X14578500Y-9809500D02*
X14668500Y-9899500D01*
X14668500Y-9809500D02*
X14578500Y-9899500D01*
X14578500Y-10063500D02*
X14668500Y-10153500D01*
X14668500Y-10063500D02*
X14578500Y-10153500D01*
X14578500Y-10317500D02*
X14668500Y-10407500D01*
X14668500Y-10317500D02*
X14578500Y-10407500D01*
X14578500Y-10571500D02*
X14668500Y-10661500D01*
X14668500Y-10571500D02*
X14578500Y-10661500D01*
X14578500Y-10825500D02*
X14668500Y-10915500D01*
X14668500Y-10825500D02*
X14578500Y-10915500D01*
X14578500Y-11079500D02*
X14668500Y-11169500D01*
X14668500Y-11079500D02*
X14578500Y-11169500D01*
X14578500Y-11333500D02*
X14668500Y-11423500D01*
X14668500Y-11333500D02*
X14578500Y-11423500D01*
X14578500Y-11587500D02*
X14668500Y-11677500D01*
X14668500Y-11587500D02*
X14578500Y-11677500D01*
X14578500Y-11841500D02*
X14668500Y-11931500D01*
X14668500Y-11841500D02*
X14578500Y-11931500D01*
X14578500Y-12095500D02*
X14668500Y-12185500D01*
X14668500Y-12095500D02*
X14578500Y-12185500D01*
X14578500Y-12349500D02*
X14668500Y-12439500D01*
X14668500Y-12349500D02*
X14578500Y-12439500D01*
X14578500Y-12603500D02*
X14668500Y-12693500D01*
X14668500Y-12603500D02*
X14578500Y-12693500D01*
X14578500Y-12857500D02*
X14668500Y-12947500D01*
X14668500Y-12857500D02*
X14578500Y-12947500D01*
X14578500Y-13111500D02*
X14668500Y-13201500D01*
X14668500Y-13111500D02*
X14578500Y-13201500D01*
X17118500Y-8539500D02*
X17208500Y-8629500D01*
X17208500Y-8539500D02*
X17118500Y-8629500D01*
X17118500Y-8793500D02*
X17208500Y-8883500D01*
X17208500Y-8793500D02*
X17118500Y-8883500D01*
X17118500Y-9047500D02*
X17208500Y-9137500D01*
X17208500Y-9047500D02*
X17118500Y-9137500D01*
X17118500Y-9301500D02*
X17208500Y-9391500D01*
X17208500Y-9301500D02*
X17118500Y-9391500D01*
X17118500Y-9555500D02*
X17208500Y-9645500D01*
X17208500Y-9555500D02*
X17118500Y-9645500D01*
X17118500Y-9809500D02*
X17208500Y-9899500D01*
X17208500Y-9809500D02*
X17118500Y-9899500D01*
X17118500Y-10063500D02*
X17208500Y-10153500D01*
X17208500Y-10063500D02*
X17118500Y-10153500D01*
X17118500Y-10317500D02*
X17208500Y-10407500D01*
X17208500Y-10317500D02*
X17118500Y-10407500D01*
X17118500Y-10571500D02*
X17208500Y-10661500D01*
X17208500Y-10571500D02*
X17118500Y-10661500D01*
X17118500Y-10825500D02*
X17208500Y-10915500D01*
X17208500Y-10825500D02*
X17118500Y-10915500D01*
X17118500Y-11079500D02*
X17208500Y-11169500D01*
X17208500Y-11079500D02*
X17118500Y-11169500D01*
X17118500Y-11333500D02*
X17208500Y-11423500D01*
X17208500Y-11333500D02*
X17118500Y-11423500D01*
X17118500Y-11587500D02*
X17208500Y-11677500D01*
X17208500Y-11587500D02*
X17118500Y-11677500D01*
X17118500Y-11841500D02*
X17208500Y-11931500D01*
X17208500Y-11841500D02*
X17118500Y-11931500D01*
X17118500Y-12095500D02*
X17208500Y-12185500D01*
X17208500Y-12095500D02*
X17118500Y-12185500D01*
X17118500Y-12349500D02*
X17208500Y-12439500D01*
X17208500Y-12349500D02*
X17118500Y-12439500D01*
X17118500Y-12603500D02*
X17208500Y-12693500D01*
X17208500Y-12603500D02*
X17118500Y-12693500D01*
X17118500Y-12857500D02*
X17208500Y-12947500D01*
X17208500Y-12857500D02*
X17118500Y-12947500D01*
X17118500Y-13111500D02*
X17208500Y-13201500D01*
X17208500Y-13111500D02*
X17118500Y-13201500D01*
X15040000Y-8025000D02*
G75*
G02*
X14940000Y-8025000I-50000J0D01*
G01*
X14940000Y-8025000D02*
G75*
G02*
X15040000Y-8025000I50000J0D01*
G01*
X15040000Y-9275000D02*
G75*
G02*
X14940000Y-9275000I-50000J0D01*
G01*
X14940000Y-9275000D02*
G75*
G02*
X15040000Y-9275000I50000J0D01*
G01*
X15040000Y-10525000D02*
G75*
G02*
X14940000Y-10525000I-50000J0D01*
G01*
X14940000Y-10525000D02*
G75*
G02*
X15040000Y-10525000I50000J0D01*
G01*
X15040000Y-11775000D02*
G75*
G02*
X14940000Y-11775000I-50000J0D01*
G01*
X14940000Y-11775000D02*
G75*
G02*
X15040000Y-11775000I50000J0D01*
G01*
X15040000Y-13025000D02*
G75*
G02*
X14940000Y-13025000I-50000J0D01*
G01*
X14940000Y-13025000D02*
G75*
G02*
X15040000Y-13025000I50000J0D01*
G01*
X15294000Y-8025000D02*
G75*
G02*
X15194000Y-8025000I-50000J0D01*
G01*
X15194000Y-8025000D02*
G75*
G02*
X15294000Y-8025000I50000J0D01*
G01*
X15294000Y-9275000D02*
G75*
G02*
X15194000Y-9275000I-50000J0D01*
G01*
X15194000Y-9275000D02*
G75*
G02*
X15294000Y-9275000I50000J0D01*
G01*
X15294000Y-10525000D02*
G75*
G02*
X15194000Y-10525000I-50000J0D01*
G01*
X15194000Y-10525000D02*
G75*
G02*
X15294000Y-10525000I50000J0D01*
G01*
X15294000Y-11775000D02*
G75*
G02*
X15194000Y-11775000I-50000J0D01*
G01*
X15194000Y-11775000D02*
G75*
G02*
X15294000Y-11775000I50000J0D01*
G01*
X15294000Y-13025000D02*
G75*
G02*
X15194000Y-13025000I-50000J0D01*
G01*
X15194000Y-13025000D02*
G75*
G02*
X15294000Y-13025000I50000J0D01*
G01*
X15548000Y-8025000D02*
G75*
G02*
X15448000Y-8025000I-50000J0D01*
G01*
X15448000Y-8025000D02*
G75*
G02*
X15548000Y-8025000I50000J0D01*
G01*
X15548000Y-9275000D02*
G75*
G02*
X15448000Y-9275000I-50000J0D01*
G01*
X15448000Y-9275000D02*
G75*
G02*
X15548000Y-9275000I50000J0D01*
G01*
X15548000Y-10525000D02*
G75*
G02*
X15448000Y-10525000I-50000J0D01*
G01*
X15448000Y-10525000D02*
G75*
G02*
X15548000Y-10525000I50000J0D01*
G01*
X15548000Y-11775000D02*
G75*
G02*
X15448000Y-11775000I-50000J0D01*
G01*
X15448000Y-11775000D02*
G75*
G02*
X15548000Y-11775000I50000J0D01*
G01*
X15548000Y-13025000D02*
G75*
G02*
X15448000Y-13025000I-50000J0D01*
G01*
X15448000Y-13025000D02*
G75*
G02*
X15548000Y-13025000I50000J0D01*
G01*
X15802000Y-8025000D02*
G75*
G02*
X15702000Y-8025000I-50000J0D01*
G01*
X15702000Y-8025000D02*
G75*
G02*
X15802000Y-8025000I50000J0D01*
G01*
X15802000Y-9275000D02*
G75*
G02*
X15702000Y-9275000I-50000J0D01*
G01*
X15702000Y-9275000D02*
G75*
G02*
X15802000Y-9275000I50000J0D01*
G01*
X15802000Y-10525000D02*
G75*
G02*
X15702000Y-10525000I-50000J0D01*
G01*
X15702000Y-10525000D02*
G75*
G02*
X15802000Y-10525000I50000J0D01*
G01*
X15802000Y-11775000D02*
G75*
G02*
X15702000Y-11775000I-50000J0D01*
G01*
X15702000Y-11775000D02*
G75*
G02*
X15802000Y-11775000I50000J0D01*
G01*
X15802000Y-13025000D02*
G75*
G02*
X15702000Y-13025000I-50000J0D01*
G01*
X15702000Y-13025000D02*
G75*
G02*
X15802000Y-13025000I50000J0D01*
G01*
X16056000Y-8025000D02*
G75*
G02*
X15956000Y-8025000I-50000J0D01*
G01*
X15956000Y-8025000D02*
G75*
G02*
X16056000Y-8025000I50000J0D01*
G01*
X16056000Y-9275000D02*
G75*
G02*
X15956000Y-9275000I-50000J0D01*
G01*
X15956000Y-9275000D02*
G75*
G02*
X16056000Y-9275000I50000J0D01*
G01*
X16056000Y-10525000D02*
G75*
G02*
X15956000Y-10525000I-50000J0D01*
G01*
X15956000Y-10525000D02*
G75*
G02*
X16056000Y-10525000I50000J0D01*
G01*
X16056000Y-11775000D02*
G75*
G02*
X15956000Y-11775000I-50000J0D01*
G01*
X15956000Y-11775000D02*
G75*
G02*
X16056000Y-11775000I50000J0D01*
G01*
X16056000Y-13025000D02*
G75*
G02*
X15956000Y-13025000I-50000J0D01*
G01*
X15956000Y-13025000D02*
G75*
G02*
X16056000Y-13025000I50000J0D01*
G01*
X16310000Y-8025000D02*
G75*
G02*
X16210000Y-8025000I-50000J0D01*
G01*
X16210000Y-8025000D02*
G75*
G02*
X16310000Y-8025000I50000J0D01*
G01*
X16310000Y-9275000D02*
G75*
G02*
X16210000Y-9275000I-50000J0D01*
G01*
X16210000Y-9275000D02*
G75*
G02*
X16310000Y-9275000I50000J0D01*
G01*
X16310000Y-10525000D02*
G75*
G02*
X16210000Y-10525000I-50000J0D01*
G01*
X16210000Y-10525000D02*
G75*
G02*
X16310000Y-10525000I50000J0D01*
G01*
X16310000Y-11775000D02*
G75*
G02*
X16210000Y-11775000I-50000J0D01*
G01*
X16210000Y-11775000D02*
G75*
G02*
X16310000Y-11775000I50000J0D01*
G01*
X16310000Y-13025000D02*
G75*
G02*
X16210000Y-13025000I-50000J0D01*
G01*
X16210000Y-13025000D02*
G75*
G02*
X16310000Y-13025000I50000J0D01*
G01*
X16800000Y-9375000D02*
G75*
G02*
X16700000Y-9375000I-50000J0D01*
G01*
X16700000Y-9375000D02*
G75*
G02*
X16800000Y-9375000I50000J0D01*
G01*
X16800000Y-9629000D02*
G75*
G02*
X16700000Y-9629000I-50000J0D01*
G01*
X16700000Y-9629000D02*
G75*
G02*
X16800000Y-9629000I50000J0D01*
G01*
X16800000Y-9883000D02*
G75*
G02*
X16700000Y-9883000I-50000J0D01*
G01*
X16700000Y-9883000D02*
G75*
G02*
X16800000Y-9883000I50000J0D01*
G01*
X16800000Y-10137000D02*
G75*
G02*
X16700000Y-10137000I-50000J0D01*
G01*
X16700000Y-10137000D02*
G75*
G02*
X16800000Y-10137000I50000J0D01*
G01*
X16800000Y-10391000D02*
G75*
G02*
X16700000Y-10391000I-50000J0D01*
G01*
X16700000Y-10391000D02*
G75*
G02*
X16800000Y-10391000I50000J0D01*
G01*
X16800000Y-10645000D02*
G75*
G02*
X16700000Y-10645000I-50000J0D01*
G01*
X16700000Y-10645000D02*
G75*
G02*
X16800000Y-10645000I50000J0D01*
G01*
X16800000Y-10899000D02*
G75*
G02*
X16700000Y-10899000I-50000J0D01*
G01*
X16700000Y-10899000D02*
G75*
G02*
X16800000Y-10899000I50000J0D01*
G01*
X16800000Y-11153000D02*
G75*
G02*
X16700000Y-11153000I-50000J0D01*
G01*
X16700000Y-11153000D02*
G75*
G02*
X16800000Y-11153000I50000J0D01*
G01*
X16800000Y-11407000D02*
G75*
G02*
X16700000Y-11407000I-50000J0D01*
G01*
X16700000Y-11407000D02*
G75*
G02*
X16800000Y-11407000I50000J0D01*
G01*
X16800000Y-11661000D02*
G75*
G02*
X16700000Y-11661000I-50000J0D01*
G01*
X16700000Y-11661000D02*
G75*
G02*
X16800000Y-11661000I50000J0D01*
G01*
X16800000Y-11915000D02*
G75*
G02*
X16700000Y-11915000I-50000J0D01*
G01*
X16700000Y-11915000D02*
G75*
G02*
X16800000Y-11915000I50000J0D01*
G01*
X16800000Y-12169000D02*
G75*
G02*
X16700000Y-12169000I-50000J0D01*
G01*
X16700000Y-12169000D02*
G75*
G02*
X16800000Y-12169000I50000J0D01*
G01*
X17550000Y-12871000D02*
G75*
G02*
X17450000Y-12871000I-50000J0D01*
G01*
X17450000Y-12871000D02*
G75*
G02*
X17550000Y-12871000I50000J0D01*
G01*
X17550000Y-13125000D02*
G75*
G02*
X17450000Y-13125000I-50000J0D01*
G01*
X17450000Y-13125000D02*
G75*
G02*
X17550000Y-13125000I50000J0D01*
G01*
D11*
X14508277Y-13813984D02*
X14508277Y-13613984D01*
X14508277Y-13613984D02*
X14555896Y-13613984D01*
X14555896Y-13613984D02*
X14584467Y-13623508D01*
X14584467Y-13623508D02*
X14603515Y-13642555D01*
X14603515Y-13642555D02*
X14613039Y-13661603D01*
X14613039Y-13661603D02*
X14622562Y-13699698D01*
X14622562Y-13699698D02*
X14622562Y-13728269D01*
X14622562Y-13728269D02*
X14613039Y-13766365D01*
X14613039Y-13766365D02*
X14603515Y-13785412D01*
X14603515Y-13785412D02*
X14584467Y-13804460D01*
X14584467Y-13804460D02*
X14555896Y-13813984D01*
X14555896Y-13813984D02*
X14508277Y-13813984D01*
X14708277Y-13813984D02*
X14708277Y-13680650D01*
X14708277Y-13718746D02*
X14717801Y-13699698D01*
X14717801Y-13699698D02*
X14727324Y-13690174D01*
X14727324Y-13690174D02*
X14746372Y-13680650D01*
X14746372Y-13680650D02*
X14765420Y-13680650D01*
X14832086Y-13813984D02*
X14832086Y-13680650D01*
X14832086Y-13613984D02*
X14822562Y-13623508D01*
X14822562Y-13623508D02*
X14832086Y-13633031D01*
X14832086Y-13633031D02*
X14841610Y-13623508D01*
X14841610Y-13623508D02*
X14832086Y-13613984D01*
X14832086Y-13613984D02*
X14832086Y-13633031D01*
X14955896Y-13813984D02*
X14936848Y-13804460D01*
X14936848Y-13804460D02*
X14927324Y-13785412D01*
X14927324Y-13785412D02*
X14927324Y-13613984D01*
X15060658Y-13813984D02*
X15041610Y-13804460D01*
X15041610Y-13804460D02*
X15032086Y-13785412D01*
X15032086Y-13785412D02*
X15032086Y-13613984D01*
X15289229Y-13813984D02*
X15289229Y-13613984D01*
X15289229Y-13613984D02*
X15355896Y-13756841D01*
X15355896Y-13756841D02*
X15422562Y-13613984D01*
X15422562Y-13613984D02*
X15422562Y-13813984D01*
X15603515Y-13813984D02*
X15603515Y-13709222D01*
X15603515Y-13709222D02*
X15593991Y-13690174D01*
X15593991Y-13690174D02*
X15574943Y-13680650D01*
X15574943Y-13680650D02*
X15536848Y-13680650D01*
X15536848Y-13680650D02*
X15517801Y-13690174D01*
X15603515Y-13804460D02*
X15584467Y-13813984D01*
X15584467Y-13813984D02*
X15536848Y-13813984D01*
X15536848Y-13813984D02*
X15517801Y-13804460D01*
X15517801Y-13804460D02*
X15508277Y-13785412D01*
X15508277Y-13785412D02*
X15508277Y-13766365D01*
X15508277Y-13766365D02*
X15517801Y-13747317D01*
X15517801Y-13747317D02*
X15536848Y-13737793D01*
X15536848Y-13737793D02*
X15584467Y-13737793D01*
X15584467Y-13737793D02*
X15603515Y-13728269D01*
X15698753Y-13680650D02*
X15698753Y-13880650D01*
X15698753Y-13690174D02*
X15717801Y-13680650D01*
X15717801Y-13680650D02*
X15755896Y-13680650D01*
X15755896Y-13680650D02*
X15774943Y-13690174D01*
X15774943Y-13690174D02*
X15784467Y-13699698D01*
X15784467Y-13699698D02*
X15793991Y-13718746D01*
X15793991Y-13718746D02*
X15793991Y-13775888D01*
X15793991Y-13775888D02*
X15784467Y-13794936D01*
X15784467Y-13794936D02*
X15774943Y-13804460D01*
X15774943Y-13804460D02*
X15755896Y-13813984D01*
X15755896Y-13813984D02*
X15717801Y-13813984D01*
X15717801Y-13813984D02*
X15698753Y-13804460D01*
X15879705Y-13794936D02*
X15889229Y-13804460D01*
X15889229Y-13804460D02*
X15879705Y-13813984D01*
X15879705Y-13813984D02*
X15870182Y-13804460D01*
X15870182Y-13804460D02*
X15879705Y-13794936D01*
X15879705Y-13794936D02*
X15879705Y-13813984D01*
X15879705Y-13690174D02*
X15889229Y-13699698D01*
X15889229Y-13699698D02*
X15879705Y-13709222D01*
X15879705Y-13709222D02*
X15870182Y-13699698D01*
X15870182Y-13699698D02*
X15879705Y-13690174D01*
X15879705Y-13690174D02*
X15879705Y-13709222D01*
D12*
X14157500Y-14097500D02*
X14247500Y-14187500D01*
X14247500Y-14097500D02*
X14157500Y-14187500D01*
D11*
X14546372Y-14033984D02*
X14565420Y-14033984D01*
X14565420Y-14033984D02*
X14584467Y-14043508D01*
X14584467Y-14043508D02*
X14593991Y-14053031D01*
X14593991Y-14053031D02*
X14603515Y-14072079D01*
X14603515Y-14072079D02*
X14613039Y-14110174D01*
X14613039Y-14110174D02*
X14613039Y-14157793D01*
X14613039Y-14157793D02*
X14603515Y-14195888D01*
X14603515Y-14195888D02*
X14593991Y-14214936D01*
X14593991Y-14214936D02*
X14584467Y-14224460D01*
X14584467Y-14224460D02*
X14565420Y-14233984D01*
X14565420Y-14233984D02*
X14546372Y-14233984D01*
X14546372Y-14233984D02*
X14527324Y-14224460D01*
X14527324Y-14224460D02*
X14517801Y-14214936D01*
X14517801Y-14214936D02*
X14508277Y-14195888D01*
X14508277Y-14195888D02*
X14498753Y-14157793D01*
X14498753Y-14157793D02*
X14498753Y-14110174D01*
X14498753Y-14110174D02*
X14508277Y-14072079D01*
X14508277Y-14072079D02*
X14517801Y-14053031D01*
X14517801Y-14053031D02*
X14527324Y-14043508D01*
X14527324Y-14043508D02*
X14546372Y-14033984D01*
X14698753Y-14214936D02*
X14708277Y-14224460D01*
X14708277Y-14224460D02*
X14698753Y-14233984D01*
X14698753Y-14233984D02*
X14689229Y-14224460D01*
X14689229Y-14224460D02*
X14698753Y-14214936D01*
X14698753Y-14214936D02*
X14698753Y-14233984D01*
X14803515Y-14233984D02*
X14841610Y-14233984D01*
X14841610Y-14233984D02*
X14860658Y-14224460D01*
X14860658Y-14224460D02*
X14870182Y-14214936D01*
X14870182Y-14214936D02*
X14889229Y-14186365D01*
X14889229Y-14186365D02*
X14898753Y-14148269D01*
X14898753Y-14148269D02*
X14898753Y-14072079D01*
X14898753Y-14072079D02*
X14889229Y-14053031D01*
X14889229Y-14053031D02*
X14879705Y-14043508D01*
X14879705Y-14043508D02*
X14860658Y-14033984D01*
X14860658Y-14033984D02*
X14822562Y-14033984D01*
X14822562Y-14033984D02*
X14803515Y-14043508D01*
X14803515Y-14043508D02*
X14793991Y-14053031D01*
X14793991Y-14053031D02*
X14784467Y-14072079D01*
X14784467Y-14072079D02*
X14784467Y-14119698D01*
X14784467Y-14119698D02*
X14793991Y-14138746D01*
X14793991Y-14138746D02*
X14803515Y-14148269D01*
X14803515Y-14148269D02*
X14822562Y-14157793D01*
X14822562Y-14157793D02*
X14860658Y-14157793D01*
X14860658Y-14157793D02*
X14879705Y-14148269D01*
X14879705Y-14148269D02*
X14889229Y-14138746D01*
X14889229Y-14138746D02*
X14898753Y-14119698D01*
X15022562Y-14033984D02*
X15041610Y-14033984D01*
X15041610Y-14033984D02*
X15060658Y-14043508D01*
X15060658Y-14043508D02*
X15070182Y-14053031D01*
X15070182Y-14053031D02*
X15079705Y-14072079D01*
X15079705Y-14072079D02*
X15089229Y-14110174D01*
X15089229Y-14110174D02*
X15089229Y-14157793D01*
X15089229Y-14157793D02*
X15079705Y-14195888D01*
X15079705Y-14195888D02*
X15070182Y-14214936D01*
X15070182Y-14214936D02*
X15060658Y-14224460D01*
X15060658Y-14224460D02*
X15041610Y-14233984D01*
X15041610Y-14233984D02*
X15022562Y-14233984D01*
X15022562Y-14233984D02*
X15003515Y-14224460D01*
X15003515Y-14224460D02*
X14993991Y-14214936D01*
X14993991Y-14214936D02*
X14984467Y-14195888D01*
X14984467Y-14195888D02*
X14974943Y-14157793D01*
X14974943Y-14157793D02*
X14974943Y-14110174D01*
X14974943Y-14110174D02*
X14984467Y-14072079D01*
X14984467Y-14072079D02*
X14993991Y-14053031D01*
X14993991Y-14053031D02*
X15003515Y-14043508D01*
X15003515Y-14043508D02*
X15022562Y-14033984D01*
X15213039Y-14033984D02*
X15232086Y-14033984D01*
X15232086Y-14033984D02*
X15251134Y-14043508D01*
X15251134Y-14043508D02*
X15260658Y-14053031D01*
X15260658Y-14053031D02*
X15270182Y-14072079D01*
X15270182Y-14072079D02*
X15279705Y-14110174D01*
X15279705Y-14110174D02*
X15279705Y-14157793D01*
X15279705Y-14157793D02*
X15270182Y-14195888D01*
X15270182Y-14195888D02*
X15260658Y-14214936D01*
X15260658Y-14214936D02*
X15251134Y-14224460D01*
X15251134Y-14224460D02*
X15232086Y-14233984D01*
X15232086Y-14233984D02*
X15213039Y-14233984D01*
X15213039Y-14233984D02*
X15193991Y-14224460D01*
X15193991Y-14224460D02*
X15184467Y-14214936D01*
X15184467Y-14214936D02*
X15174943Y-14195888D01*
X15174943Y-14195888D02*
X15165420Y-14157793D01*
X15165420Y-14157793D02*
X15165420Y-14110174D01*
X15165420Y-14110174D02*
X15174943Y-14072079D01*
X15174943Y-14072079D02*
X15184467Y-14053031D01*
X15184467Y-14053031D02*
X15193991Y-14043508D01*
X15193991Y-14043508D02*
X15213039Y-14033984D01*
X15365420Y-14233984D02*
X15365420Y-14100650D01*
X15365420Y-14119698D02*
X15374943Y-14110174D01*
X15374943Y-14110174D02*
X15393991Y-14100650D01*
X15393991Y-14100650D02*
X15422563Y-14100650D01*
X15422563Y-14100650D02*
X15441610Y-14110174D01*
X15441610Y-14110174D02*
X15451134Y-14129222D01*
X15451134Y-14129222D02*
X15451134Y-14233984D01*
X15451134Y-14129222D02*
X15460658Y-14110174D01*
X15460658Y-14110174D02*
X15479705Y-14100650D01*
X15479705Y-14100650D02*
X15508277Y-14100650D01*
X15508277Y-14100650D02*
X15527324Y-14110174D01*
X15527324Y-14110174D02*
X15536848Y-14129222D01*
X15536848Y-14129222D02*
X15536848Y-14233984D01*
X15632086Y-14233984D02*
X15632086Y-14100650D01*
X15632086Y-14119698D02*
X15641610Y-14110174D01*
X15641610Y-14110174D02*
X15660658Y-14100650D01*
X15660658Y-14100650D02*
X15689229Y-14100650D01*
X15689229Y-14100650D02*
X15708277Y-14110174D01*
X15708277Y-14110174D02*
X15717801Y-14129222D01*
X15717801Y-14129222D02*
X15717801Y-14233984D01*
X15717801Y-14129222D02*
X15727324Y-14110174D01*
X15727324Y-14110174D02*
X15746372Y-14100650D01*
X15746372Y-14100650D02*
X15774943Y-14100650D01*
X15774943Y-14100650D02*
X15793991Y-14110174D01*
X15793991Y-14110174D02*
X15803515Y-14129222D01*
X15803515Y-14129222D02*
X15803515Y-14233984D01*
X16193991Y-14024460D02*
X16022563Y-14281603D01*
X16451134Y-14033984D02*
X16470182Y-14033984D01*
X16470182Y-14033984D02*
X16489229Y-14043508D01*
X16489229Y-14043508D02*
X16498753Y-14053031D01*
X16498753Y-14053031D02*
X16508277Y-14072079D01*
X16508277Y-14072079D02*
X16517801Y-14110174D01*
X16517801Y-14110174D02*
X16517801Y-14157793D01*
X16517801Y-14157793D02*
X16508277Y-14195888D01*
X16508277Y-14195888D02*
X16498753Y-14214936D01*
X16498753Y-14214936D02*
X16489229Y-14224460D01*
X16489229Y-14224460D02*
X16470182Y-14233984D01*
X16470182Y-14233984D02*
X16451134Y-14233984D01*
X16451134Y-14233984D02*
X16432086Y-14224460D01*
X16432086Y-14224460D02*
X16422563Y-14214936D01*
X16422563Y-14214936D02*
X16413039Y-14195888D01*
X16413039Y-14195888D02*
X16403515Y-14157793D01*
X16403515Y-14157793D02*
X16403515Y-14110174D01*
X16403515Y-14110174D02*
X16413039Y-14072079D01*
X16413039Y-14072079D02*
X16422563Y-14053031D01*
X16422563Y-14053031D02*
X16432086Y-14043508D01*
X16432086Y-14043508D02*
X16451134Y-14033984D01*
X16603515Y-14214936D02*
X16613039Y-14224460D01*
X16613039Y-14224460D02*
X16603515Y-14233984D01*
X16603515Y-14233984D02*
X16593991Y-14224460D01*
X16593991Y-14224460D02*
X16603515Y-14214936D01*
X16603515Y-14214936D02*
X16603515Y-14233984D01*
X16736848Y-14033984D02*
X16755896Y-14033984D01*
X16755896Y-14033984D02*
X16774944Y-14043508D01*
X16774944Y-14043508D02*
X16784468Y-14053031D01*
X16784468Y-14053031D02*
X16793991Y-14072079D01*
X16793991Y-14072079D02*
X16803515Y-14110174D01*
X16803515Y-14110174D02*
X16803515Y-14157793D01*
X16803515Y-14157793D02*
X16793991Y-14195888D01*
X16793991Y-14195888D02*
X16784468Y-14214936D01*
X16784468Y-14214936D02*
X16774944Y-14224460D01*
X16774944Y-14224460D02*
X16755896Y-14233984D01*
X16755896Y-14233984D02*
X16736848Y-14233984D01*
X16736848Y-14233984D02*
X16717801Y-14224460D01*
X16717801Y-14224460D02*
X16708277Y-14214936D01*
X16708277Y-14214936D02*
X16698753Y-14195888D01*
X16698753Y-14195888D02*
X16689229Y-14157793D01*
X16689229Y-14157793D02*
X16689229Y-14110174D01*
X16689229Y-14110174D02*
X16698753Y-14072079D01*
X16698753Y-14072079D02*
X16708277Y-14053031D01*
X16708277Y-14053031D02*
X16717801Y-14043508D01*
X16717801Y-14043508D02*
X16736848Y-14033984D01*
X16870182Y-14033984D02*
X16993991Y-14033984D01*
X16993991Y-14033984D02*
X16927325Y-14110174D01*
X16927325Y-14110174D02*
X16955896Y-14110174D01*
X16955896Y-14110174D02*
X16974944Y-14119698D01*
X16974944Y-14119698D02*
X16984468Y-14129222D01*
X16984468Y-14129222D02*
X16993991Y-14148269D01*
X16993991Y-14148269D02*
X16993991Y-14195888D01*
X16993991Y-14195888D02*
X16984468Y-14214936D01*
X16984468Y-14214936D02*
X16974944Y-14224460D01*
X16974944Y-14224460D02*
X16955896Y-14233984D01*
X16955896Y-14233984D02*
X16898753Y-14233984D01*
X16898753Y-14233984D02*
X16879706Y-14224460D01*
X16879706Y-14224460D02*
X16870182Y-14214936D01*
X17174944Y-14033984D02*
X17079706Y-14033984D01*
X17079706Y-14033984D02*
X17070182Y-14129222D01*
X17070182Y-14129222D02*
X17079706Y-14119698D01*
X17079706Y-14119698D02*
X17098753Y-14110174D01*
X17098753Y-14110174D02*
X17146372Y-14110174D01*
X17146372Y-14110174D02*
X17165420Y-14119698D01*
X17165420Y-14119698D02*
X17174944Y-14129222D01*
X17174944Y-14129222D02*
X17184468Y-14148269D01*
X17184468Y-14148269D02*
X17184468Y-14195888D01*
X17184468Y-14195888D02*
X17174944Y-14214936D01*
X17174944Y-14214936D02*
X17165420Y-14224460D01*
X17165420Y-14224460D02*
X17146372Y-14233984D01*
X17146372Y-14233984D02*
X17098753Y-14233984D01*
X17098753Y-14233984D02*
X17079706Y-14224460D01*
X17079706Y-14224460D02*
X17070182Y-14214936D01*
X17355896Y-14100650D02*
X17355896Y-14233984D01*
X17308277Y-14024460D02*
X17260658Y-14167317D01*
X17260658Y-14167317D02*
X17384468Y-14167317D01*
X17451134Y-14033984D02*
X17451134Y-14072079D01*
X17527325Y-14033984D02*
X17527325Y-14072079D01*
X17822563Y-14310174D02*
X17813039Y-14300650D01*
X17813039Y-14300650D02*
X17793991Y-14272079D01*
X17793991Y-14272079D02*
X17784468Y-14253031D01*
X17784468Y-14253031D02*
X17774944Y-14224460D01*
X17774944Y-14224460D02*
X17765420Y-14176841D01*
X17765420Y-14176841D02*
X17765420Y-14138746D01*
X17765420Y-14138746D02*
X17774944Y-14091127D01*
X17774944Y-14091127D02*
X17784468Y-14062555D01*
X17784468Y-14062555D02*
X17793991Y-14043508D01*
X17793991Y-14043508D02*
X17813039Y-14014936D01*
X17813039Y-14014936D02*
X17822563Y-14005412D01*
X17879706Y-14033984D02*
X18003515Y-14033984D01*
X18003515Y-14033984D02*
X17936849Y-14110174D01*
X17936849Y-14110174D02*
X17965420Y-14110174D01*
X17965420Y-14110174D02*
X17984468Y-14119698D01*
X17984468Y-14119698D02*
X17993991Y-14129222D01*
X17993991Y-14129222D02*
X18003515Y-14148269D01*
X18003515Y-14148269D02*
X18003515Y-14195888D01*
X18003515Y-14195888D02*
X17993991Y-14214936D01*
X17993991Y-14214936D02*
X17984468Y-14224460D01*
X17984468Y-14224460D02*
X17965420Y-14233984D01*
X17965420Y-14233984D02*
X17908277Y-14233984D01*
X17908277Y-14233984D02*
X17889230Y-14224460D01*
X17889230Y-14224460D02*
X17879706Y-14214936D01*
X18117801Y-14119698D02*
X18098753Y-14110174D01*
X18098753Y-14110174D02*
X18089230Y-14100650D01*
X18089230Y-14100650D02*
X18079706Y-14081603D01*
X18079706Y-14081603D02*
X18079706Y-14072079D01*
X18079706Y-14072079D02*
X18089230Y-14053031D01*
X18089230Y-14053031D02*
X18098753Y-14043508D01*
X18098753Y-14043508D02*
X18117801Y-14033984D01*
X18117801Y-14033984D02*
X18155896Y-14033984D01*
X18155896Y-14033984D02*
X18174944Y-14043508D01*
X18174944Y-14043508D02*
X18184468Y-14053031D01*
X18184468Y-14053031D02*
X18193991Y-14072079D01*
X18193991Y-14072079D02*
X18193991Y-14081603D01*
X18193991Y-14081603D02*
X18184468Y-14100650D01*
X18184468Y-14100650D02*
X18174944Y-14110174D01*
X18174944Y-14110174D02*
X18155896Y-14119698D01*
X18155896Y-14119698D02*
X18117801Y-14119698D01*
X18117801Y-14119698D02*
X18098753Y-14129222D01*
X18098753Y-14129222D02*
X18089230Y-14138746D01*
X18089230Y-14138746D02*
X18079706Y-14157793D01*
X18079706Y-14157793D02*
X18079706Y-14195888D01*
X18079706Y-14195888D02*
X18089230Y-14214936D01*
X18089230Y-14214936D02*
X18098753Y-14224460D01*
X18098753Y-14224460D02*
X18117801Y-14233984D01*
X18117801Y-14233984D02*
X18155896Y-14233984D01*
X18155896Y-14233984D02*
X18174944Y-14224460D01*
X18174944Y-14224460D02*
X18184468Y-14214936D01*
X18184468Y-14214936D02*
X18193991Y-14195888D01*
X18193991Y-14195888D02*
X18193991Y-14157793D01*
X18193991Y-14157793D02*
X18184468Y-14138746D01*
X18184468Y-14138746D02*
X18174944Y-14129222D01*
X18174944Y-14129222D02*
X18155896Y-14119698D01*
X18432087Y-14233984D02*
X18432087Y-14033984D01*
X18517801Y-14233984D02*
X18517801Y-14129222D01*
X18517801Y-14129222D02*
X18508277Y-14110174D01*
X18508277Y-14110174D02*
X18489230Y-14100650D01*
X18489230Y-14100650D02*
X18460658Y-14100650D01*
X18460658Y-14100650D02*
X18441611Y-14110174D01*
X18441611Y-14110174D02*
X18432087Y-14119698D01*
X18641611Y-14233984D02*
X18622563Y-14224460D01*
X18622563Y-14224460D02*
X18613039Y-14214936D01*
X18613039Y-14214936D02*
X18603515Y-14195888D01*
X18603515Y-14195888D02*
X18603515Y-14138746D01*
X18603515Y-14138746D02*
X18613039Y-14119698D01*
X18613039Y-14119698D02*
X18622563Y-14110174D01*
X18622563Y-14110174D02*
X18641611Y-14100650D01*
X18641611Y-14100650D02*
X18670182Y-14100650D01*
X18670182Y-14100650D02*
X18689230Y-14110174D01*
X18689230Y-14110174D02*
X18698753Y-14119698D01*
X18698753Y-14119698D02*
X18708277Y-14138746D01*
X18708277Y-14138746D02*
X18708277Y-14195888D01*
X18708277Y-14195888D02*
X18698753Y-14214936D01*
X18698753Y-14214936D02*
X18689230Y-14224460D01*
X18689230Y-14224460D02*
X18670182Y-14233984D01*
X18670182Y-14233984D02*
X18641611Y-14233984D01*
X18822563Y-14233984D02*
X18803515Y-14224460D01*
X18803515Y-14224460D02*
X18793992Y-14205412D01*
X18793992Y-14205412D02*
X18793992Y-14033984D01*
X18974944Y-14224460D02*
X18955896Y-14233984D01*
X18955896Y-14233984D02*
X18917801Y-14233984D01*
X18917801Y-14233984D02*
X18898753Y-14224460D01*
X18898753Y-14224460D02*
X18889230Y-14205412D01*
X18889230Y-14205412D02*
X18889230Y-14129222D01*
X18889230Y-14129222D02*
X18898753Y-14110174D01*
X18898753Y-14110174D02*
X18917801Y-14100650D01*
X18917801Y-14100650D02*
X18955896Y-14100650D01*
X18955896Y-14100650D02*
X18974944Y-14110174D01*
X18974944Y-14110174D02*
X18984468Y-14129222D01*
X18984468Y-14129222D02*
X18984468Y-14148269D01*
X18984468Y-14148269D02*
X18889230Y-14167317D01*
X19060658Y-14224460D02*
X19079706Y-14233984D01*
X19079706Y-14233984D02*
X19117801Y-14233984D01*
X19117801Y-14233984D02*
X19136849Y-14224460D01*
X19136849Y-14224460D02*
X19146373Y-14205412D01*
X19146373Y-14205412D02*
X19146373Y-14195888D01*
X19146373Y-14195888D02*
X19136849Y-14176841D01*
X19136849Y-14176841D02*
X19117801Y-14167317D01*
X19117801Y-14167317D02*
X19089230Y-14167317D01*
X19089230Y-14167317D02*
X19070182Y-14157793D01*
X19070182Y-14157793D02*
X19060658Y-14138746D01*
X19060658Y-14138746D02*
X19060658Y-14129222D01*
X19060658Y-14129222D02*
X19070182Y-14110174D01*
X19070182Y-14110174D02*
X19089230Y-14100650D01*
X19089230Y-14100650D02*
X19117801Y-14100650D01*
X19117801Y-14100650D02*
X19136849Y-14110174D01*
X19213039Y-14310174D02*
X19222563Y-14300650D01*
X19222563Y-14300650D02*
X19241611Y-14272079D01*
X19241611Y-14272079D02*
X19251134Y-14253031D01*
X19251134Y-14253031D02*
X19260658Y-14224460D01*
X19260658Y-14224460D02*
X19270182Y-14176841D01*
X19270182Y-14176841D02*
X19270182Y-14138746D01*
X19270182Y-14138746D02*
X19260658Y-14091127D01*
X19260658Y-14091127D02*
X19251134Y-14062555D01*
X19251134Y-14062555D02*
X19241611Y-14043508D01*
X19241611Y-14043508D02*
X19222563Y-14014936D01*
X19222563Y-14014936D02*
X19213039Y-14005412D01*
D12*
X14247500Y-14406500D02*
G75*
G02*
X14147500Y-14406500I-50000J0D01*
G01*
X14147500Y-14406500D02*
G75*
G02*
X14247500Y-14406500I50000J0D01*
G01*
D11*
X14613039Y-14497984D02*
X14498753Y-14497984D01*
X14555896Y-14497984D02*
X14555896Y-14297984D01*
X14555896Y-14297984D02*
X14536848Y-14326555D01*
X14536848Y-14326555D02*
X14517801Y-14345603D01*
X14517801Y-14345603D02*
X14498753Y-14355127D01*
X14698753Y-14478936D02*
X14708277Y-14488460D01*
X14708277Y-14488460D02*
X14698753Y-14497984D01*
X14698753Y-14497984D02*
X14689229Y-14488460D01*
X14689229Y-14488460D02*
X14698753Y-14478936D01*
X14698753Y-14478936D02*
X14698753Y-14497984D01*
X14832086Y-14297984D02*
X14851134Y-14297984D01*
X14851134Y-14297984D02*
X14870182Y-14307508D01*
X14870182Y-14307508D02*
X14879705Y-14317031D01*
X14879705Y-14317031D02*
X14889229Y-14336079D01*
X14889229Y-14336079D02*
X14898753Y-14374174D01*
X14898753Y-14374174D02*
X14898753Y-14421793D01*
X14898753Y-14421793D02*
X14889229Y-14459888D01*
X14889229Y-14459888D02*
X14879705Y-14478936D01*
X14879705Y-14478936D02*
X14870182Y-14488460D01*
X14870182Y-14488460D02*
X14851134Y-14497984D01*
X14851134Y-14497984D02*
X14832086Y-14497984D01*
X14832086Y-14497984D02*
X14813039Y-14488460D01*
X14813039Y-14488460D02*
X14803515Y-14478936D01*
X14803515Y-14478936D02*
X14793991Y-14459888D01*
X14793991Y-14459888D02*
X14784467Y-14421793D01*
X14784467Y-14421793D02*
X14784467Y-14374174D01*
X14784467Y-14374174D02*
X14793991Y-14336079D01*
X14793991Y-14336079D02*
X14803515Y-14317031D01*
X14803515Y-14317031D02*
X14813039Y-14307508D01*
X14813039Y-14307508D02*
X14832086Y-14297984D01*
X15022562Y-14297984D02*
X15041610Y-14297984D01*
X15041610Y-14297984D02*
X15060658Y-14307508D01*
X15060658Y-14307508D02*
X15070182Y-14317031D01*
X15070182Y-14317031D02*
X15079705Y-14336079D01*
X15079705Y-14336079D02*
X15089229Y-14374174D01*
X15089229Y-14374174D02*
X15089229Y-14421793D01*
X15089229Y-14421793D02*
X15079705Y-14459888D01*
X15079705Y-14459888D02*
X15070182Y-14478936D01*
X15070182Y-14478936D02*
X15060658Y-14488460D01*
X15060658Y-14488460D02*
X15041610Y-14497984D01*
X15041610Y-14497984D02*
X15022562Y-14497984D01*
X15022562Y-14497984D02*
X15003515Y-14488460D01*
X15003515Y-14488460D02*
X14993991Y-14478936D01*
X14993991Y-14478936D02*
X14984467Y-14459888D01*
X14984467Y-14459888D02*
X14974943Y-14421793D01*
X14974943Y-14421793D02*
X14974943Y-14374174D01*
X14974943Y-14374174D02*
X14984467Y-14336079D01*
X14984467Y-14336079D02*
X14993991Y-14317031D01*
X14993991Y-14317031D02*
X15003515Y-14307508D01*
X15003515Y-14307508D02*
X15022562Y-14297984D01*
X15213039Y-14297984D02*
X15232086Y-14297984D01*
X15232086Y-14297984D02*
X15251134Y-14307508D01*
X15251134Y-14307508D02*
X15260658Y-14317031D01*
X15260658Y-14317031D02*
X15270182Y-14336079D01*
X15270182Y-14336079D02*
X15279705Y-14374174D01*
X15279705Y-14374174D02*
X15279705Y-14421793D01*
X15279705Y-14421793D02*
X15270182Y-14459888D01*
X15270182Y-14459888D02*
X15260658Y-14478936D01*
X15260658Y-14478936D02*
X15251134Y-14488460D01*
X15251134Y-14488460D02*
X15232086Y-14497984D01*
X15232086Y-14497984D02*
X15213039Y-14497984D01*
X15213039Y-14497984D02*
X15193991Y-14488460D01*
X15193991Y-14488460D02*
X15184467Y-14478936D01*
X15184467Y-14478936D02*
X15174943Y-14459888D01*
X15174943Y-14459888D02*
X15165420Y-14421793D01*
X15165420Y-14421793D02*
X15165420Y-14374174D01*
X15165420Y-14374174D02*
X15174943Y-14336079D01*
X15174943Y-14336079D02*
X15184467Y-14317031D01*
X15184467Y-14317031D02*
X15193991Y-14307508D01*
X15193991Y-14307508D02*
X15213039Y-14297984D01*
X15365420Y-14497984D02*
X15365420Y-14364650D01*
X15365420Y-14383698D02*
X15374943Y-14374174D01*
X15374943Y-14374174D02*
X15393991Y-14364650D01*
X15393991Y-14364650D02*
X15422563Y-14364650D01*
X15422563Y-14364650D02*
X15441610Y-14374174D01*
X15441610Y-14374174D02*
X15451134Y-14393222D01*
X15451134Y-14393222D02*
X15451134Y-14497984D01*
X15451134Y-14393222D02*
X15460658Y-14374174D01*
X15460658Y-14374174D02*
X15479705Y-14364650D01*
X15479705Y-14364650D02*
X15508277Y-14364650D01*
X15508277Y-14364650D02*
X15527324Y-14374174D01*
X15527324Y-14374174D02*
X15536848Y-14393222D01*
X15536848Y-14393222D02*
X15536848Y-14497984D01*
X15632086Y-14497984D02*
X15632086Y-14364650D01*
X15632086Y-14383698D02*
X15641610Y-14374174D01*
X15641610Y-14374174D02*
X15660658Y-14364650D01*
X15660658Y-14364650D02*
X15689229Y-14364650D01*
X15689229Y-14364650D02*
X15708277Y-14374174D01*
X15708277Y-14374174D02*
X15717801Y-14393222D01*
X15717801Y-14393222D02*
X15717801Y-14497984D01*
X15717801Y-14393222D02*
X15727324Y-14374174D01*
X15727324Y-14374174D02*
X15746372Y-14364650D01*
X15746372Y-14364650D02*
X15774943Y-14364650D01*
X15774943Y-14364650D02*
X15793991Y-14374174D01*
X15793991Y-14374174D02*
X15803515Y-14393222D01*
X15803515Y-14393222D02*
X15803515Y-14497984D01*
X16193991Y-14288460D02*
X16022563Y-14545603D01*
X16451134Y-14297984D02*
X16470182Y-14297984D01*
X16470182Y-14297984D02*
X16489229Y-14307508D01*
X16489229Y-14307508D02*
X16498753Y-14317031D01*
X16498753Y-14317031D02*
X16508277Y-14336079D01*
X16508277Y-14336079D02*
X16517801Y-14374174D01*
X16517801Y-14374174D02*
X16517801Y-14421793D01*
X16517801Y-14421793D02*
X16508277Y-14459888D01*
X16508277Y-14459888D02*
X16498753Y-14478936D01*
X16498753Y-14478936D02*
X16489229Y-14488460D01*
X16489229Y-14488460D02*
X16470182Y-14497984D01*
X16470182Y-14497984D02*
X16451134Y-14497984D01*
X16451134Y-14497984D02*
X16432086Y-14488460D01*
X16432086Y-14488460D02*
X16422563Y-14478936D01*
X16422563Y-14478936D02*
X16413039Y-14459888D01*
X16413039Y-14459888D02*
X16403515Y-14421793D01*
X16403515Y-14421793D02*
X16403515Y-14374174D01*
X16403515Y-14374174D02*
X16413039Y-14336079D01*
X16413039Y-14336079D02*
X16422563Y-14317031D01*
X16422563Y-14317031D02*
X16432086Y-14307508D01*
X16432086Y-14307508D02*
X16451134Y-14297984D01*
X16603515Y-14478936D02*
X16613039Y-14488460D01*
X16613039Y-14488460D02*
X16603515Y-14497984D01*
X16603515Y-14497984D02*
X16593991Y-14488460D01*
X16593991Y-14488460D02*
X16603515Y-14478936D01*
X16603515Y-14478936D02*
X16603515Y-14497984D01*
X16736848Y-14297984D02*
X16755896Y-14297984D01*
X16755896Y-14297984D02*
X16774944Y-14307508D01*
X16774944Y-14307508D02*
X16784468Y-14317031D01*
X16784468Y-14317031D02*
X16793991Y-14336079D01*
X16793991Y-14336079D02*
X16803515Y-14374174D01*
X16803515Y-14374174D02*
X16803515Y-14421793D01*
X16803515Y-14421793D02*
X16793991Y-14459888D01*
X16793991Y-14459888D02*
X16784468Y-14478936D01*
X16784468Y-14478936D02*
X16774944Y-14488460D01*
X16774944Y-14488460D02*
X16755896Y-14497984D01*
X16755896Y-14497984D02*
X16736848Y-14497984D01*
X16736848Y-14497984D02*
X16717801Y-14488460D01*
X16717801Y-14488460D02*
X16708277Y-14478936D01*
X16708277Y-14478936D02*
X16698753Y-14459888D01*
X16698753Y-14459888D02*
X16689229Y-14421793D01*
X16689229Y-14421793D02*
X16689229Y-14374174D01*
X16689229Y-14374174D02*
X16698753Y-14336079D01*
X16698753Y-14336079D02*
X16708277Y-14317031D01*
X16708277Y-14317031D02*
X16717801Y-14307508D01*
X16717801Y-14307508D02*
X16736848Y-14297984D01*
X16870182Y-14297984D02*
X16993991Y-14297984D01*
X16993991Y-14297984D02*
X16927325Y-14374174D01*
X16927325Y-14374174D02*
X16955896Y-14374174D01*
X16955896Y-14374174D02*
X16974944Y-14383698D01*
X16974944Y-14383698D02*
X16984468Y-14393222D01*
X16984468Y-14393222D02*
X16993991Y-14412269D01*
X16993991Y-14412269D02*
X16993991Y-14459888D01*
X16993991Y-14459888D02*
X16984468Y-14478936D01*
X16984468Y-14478936D02*
X16974944Y-14488460D01*
X16974944Y-14488460D02*
X16955896Y-14497984D01*
X16955896Y-14497984D02*
X16898753Y-14497984D01*
X16898753Y-14497984D02*
X16879706Y-14488460D01*
X16879706Y-14488460D02*
X16870182Y-14478936D01*
X17089229Y-14497984D02*
X17127325Y-14497984D01*
X17127325Y-14497984D02*
X17146372Y-14488460D01*
X17146372Y-14488460D02*
X17155896Y-14478936D01*
X17155896Y-14478936D02*
X17174944Y-14450365D01*
X17174944Y-14450365D02*
X17184468Y-14412269D01*
X17184468Y-14412269D02*
X17184468Y-14336079D01*
X17184468Y-14336079D02*
X17174944Y-14317031D01*
X17174944Y-14317031D02*
X17165420Y-14307508D01*
X17165420Y-14307508D02*
X17146372Y-14297984D01*
X17146372Y-14297984D02*
X17108277Y-14297984D01*
X17108277Y-14297984D02*
X17089229Y-14307508D01*
X17089229Y-14307508D02*
X17079706Y-14317031D01*
X17079706Y-14317031D02*
X17070182Y-14336079D01*
X17070182Y-14336079D02*
X17070182Y-14383698D01*
X17070182Y-14383698D02*
X17079706Y-14402746D01*
X17079706Y-14402746D02*
X17089229Y-14412269D01*
X17089229Y-14412269D02*
X17108277Y-14421793D01*
X17108277Y-14421793D02*
X17146372Y-14421793D01*
X17146372Y-14421793D02*
X17165420Y-14412269D01*
X17165420Y-14412269D02*
X17174944Y-14402746D01*
X17174944Y-14402746D02*
X17184468Y-14383698D01*
X17355896Y-14364650D02*
X17355896Y-14497984D01*
X17308277Y-14288460D02*
X17260658Y-14431317D01*
X17260658Y-14431317D02*
X17384468Y-14431317D01*
X17451134Y-14297984D02*
X17451134Y-14336079D01*
X17527325Y-14297984D02*
X17527325Y-14336079D01*
X17822563Y-14574174D02*
X17813039Y-14564650D01*
X17813039Y-14564650D02*
X17793991Y-14536079D01*
X17793991Y-14536079D02*
X17784468Y-14517031D01*
X17784468Y-14517031D02*
X17774944Y-14488460D01*
X17774944Y-14488460D02*
X17765420Y-14440841D01*
X17765420Y-14440841D02*
X17765420Y-14402746D01*
X17765420Y-14402746D02*
X17774944Y-14355127D01*
X17774944Y-14355127D02*
X17784468Y-14326555D01*
X17784468Y-14326555D02*
X17793991Y-14307508D01*
X17793991Y-14307508D02*
X17813039Y-14278936D01*
X17813039Y-14278936D02*
X17822563Y-14269412D01*
X17984468Y-14364650D02*
X17984468Y-14497984D01*
X17936849Y-14288460D02*
X17889230Y-14431317D01*
X17889230Y-14431317D02*
X18013039Y-14431317D01*
X18174944Y-14364650D02*
X18174944Y-14497984D01*
X18127325Y-14288460D02*
X18079706Y-14431317D01*
X18079706Y-14431317D02*
X18203515Y-14431317D01*
X18432087Y-14497984D02*
X18432087Y-14297984D01*
X18517801Y-14497984D02*
X18517801Y-14393222D01*
X18517801Y-14393222D02*
X18508277Y-14374174D01*
X18508277Y-14374174D02*
X18489230Y-14364650D01*
X18489230Y-14364650D02*
X18460658Y-14364650D01*
X18460658Y-14364650D02*
X18441611Y-14374174D01*
X18441611Y-14374174D02*
X18432087Y-14383698D01*
X18641611Y-14497984D02*
X18622563Y-14488460D01*
X18622563Y-14488460D02*
X18613039Y-14478936D01*
X18613039Y-14478936D02*
X18603515Y-14459888D01*
X18603515Y-14459888D02*
X18603515Y-14402746D01*
X18603515Y-14402746D02*
X18613039Y-14383698D01*
X18613039Y-14383698D02*
X18622563Y-14374174D01*
X18622563Y-14374174D02*
X18641611Y-14364650D01*
X18641611Y-14364650D02*
X18670182Y-14364650D01*
X18670182Y-14364650D02*
X18689230Y-14374174D01*
X18689230Y-14374174D02*
X18698753Y-14383698D01*
X18698753Y-14383698D02*
X18708277Y-14402746D01*
X18708277Y-14402746D02*
X18708277Y-14459888D01*
X18708277Y-14459888D02*
X18698753Y-14478936D01*
X18698753Y-14478936D02*
X18689230Y-14488460D01*
X18689230Y-14488460D02*
X18670182Y-14497984D01*
X18670182Y-14497984D02*
X18641611Y-14497984D01*
X18822563Y-14497984D02*
X18803515Y-14488460D01*
X18803515Y-14488460D02*
X18793992Y-14469412D01*
X18793992Y-14469412D02*
X18793992Y-14297984D01*
X18974944Y-14488460D02*
X18955896Y-14497984D01*
X18955896Y-14497984D02*
X18917801Y-14497984D01*
X18917801Y-14497984D02*
X18898753Y-14488460D01*
X18898753Y-14488460D02*
X18889230Y-14469412D01*
X18889230Y-14469412D02*
X18889230Y-14393222D01*
X18889230Y-14393222D02*
X18898753Y-14374174D01*
X18898753Y-14374174D02*
X18917801Y-14364650D01*
X18917801Y-14364650D02*
X18955896Y-14364650D01*
X18955896Y-14364650D02*
X18974944Y-14374174D01*
X18974944Y-14374174D02*
X18984468Y-14393222D01*
X18984468Y-14393222D02*
X18984468Y-14412269D01*
X18984468Y-14412269D02*
X18889230Y-14431317D01*
X19060658Y-14488460D02*
X19079706Y-14497984D01*
X19079706Y-14497984D02*
X19117801Y-14497984D01*
X19117801Y-14497984D02*
X19136849Y-14488460D01*
X19136849Y-14488460D02*
X19146373Y-14469412D01*
X19146373Y-14469412D02*
X19146373Y-14459888D01*
X19146373Y-14459888D02*
X19136849Y-14440841D01*
X19136849Y-14440841D02*
X19117801Y-14431317D01*
X19117801Y-14431317D02*
X19089230Y-14431317D01*
X19089230Y-14431317D02*
X19070182Y-14421793D01*
X19070182Y-14421793D02*
X19060658Y-14402746D01*
X19060658Y-14402746D02*
X19060658Y-14393222D01*
X19060658Y-14393222D02*
X19070182Y-14374174D01*
X19070182Y-14374174D02*
X19089230Y-14364650D01*
X19089230Y-14364650D02*
X19117801Y-14364650D01*
X19117801Y-14364650D02*
X19136849Y-14374174D01*
X19213039Y-14574174D02*
X19222563Y-14564650D01*
X19222563Y-14564650D02*
X19241611Y-14536079D01*
X19241611Y-14536079D02*
X19251134Y-14517031D01*
X19251134Y-14517031D02*
X19260658Y-14488460D01*
X19260658Y-14488460D02*
X19270182Y-14440841D01*
X19270182Y-14440841D02*
X19270182Y-14402746D01*
X19270182Y-14402746D02*
X19260658Y-14355127D01*
X19260658Y-14355127D02*
X19251134Y-14326555D01*
X19251134Y-14326555D02*
X19241611Y-14307508D01*
X19241611Y-14307508D02*
X19222563Y-14278936D01*
X19222563Y-14278936D02*
X19213039Y-14269412D01*
M02*
