%TF.GenerationSoftware,KiCad,Pcbnew,8.0.4-8.0.4-0~ubuntu24.04.1*%
%TF.CreationDate,2024-09-03T18:29:15+09:00*%
%TF.ProjectId,ESP32,45535033-322e-46b6-9963-61645f706362,rev?*%
%TF.SameCoordinates,Original*%
%TF.FileFunction,Soldermask,Top*%
%TF.FilePolarity,Negative*%
%FSLAX46Y46*%
G04 Gerber Fmt 4.6, Leading zero omitted, Abs format (unit mm)*
G04 Created by KiCad (PCBNEW 8.0.4-8.0.4-0~ubuntu24.04.1) date 2024-09-03 18:29:15*
%MOMM*%
%LPD*%
G01*
G04 APERTURE LIST*
G04 Aperture macros list*
%AMRoundRect*
0 Rectangle with rounded corners*
0 $1 Rounding radius*
0 $2 $3 $4 $5 $6 $7 $8 $9 X,Y pos of 4 corners*
0 Add a 4 corners polygon primitive as box body*
4,1,4,$2,$3,$4,$5,$6,$7,$8,$9,$2,$3,0*
0 Add four circle primitives for the rounded corners*
1,1,$1+$1,$2,$3*
1,1,$1+$1,$4,$5*
1,1,$1+$1,$6,$7*
1,1,$1+$1,$8,$9*
0 Add four rect primitives between the rounded corners*
20,1,$1+$1,$2,$3,$4,$5,0*
20,1,$1+$1,$4,$5,$6,$7,0*
20,1,$1+$1,$6,$7,$8,$9,0*
20,1,$1+$1,$8,$9,$2,$3,0*%
G04 Aperture macros list end*
%ADD10RoundRect,0.102000X-0.704000X-0.704000X0.704000X-0.704000X0.704000X0.704000X-0.704000X0.704000X0*%
%ADD11C,1.612000*%
%ADD12R,1.700000X1.700000*%
%ADD13O,1.700000X1.700000*%
G04 APERTURE END LIST*
D10*
%TO.C,U1*%
X146235000Y-85845000D03*
D11*
X171635000Y-85845000D03*
X146235000Y-88385000D03*
X171635000Y-88385000D03*
X146235000Y-90925000D03*
X171635000Y-90925000D03*
X146235000Y-93465000D03*
X171635000Y-93465000D03*
X146235000Y-96005000D03*
X171635000Y-96005000D03*
X146235000Y-98545000D03*
X171635000Y-98545000D03*
X146235000Y-101085000D03*
X171635000Y-101085000D03*
X146235000Y-103625000D03*
X171635000Y-103625000D03*
X146235000Y-106165000D03*
X171635000Y-106165000D03*
X146235000Y-108705000D03*
X171635000Y-108705000D03*
X146235000Y-111245000D03*
X171635000Y-111245000D03*
X146235000Y-113785000D03*
X171635000Y-113785000D03*
X146235000Y-116325000D03*
X171635000Y-116325000D03*
X146235000Y-118865000D03*
X171635000Y-118865000D03*
X146235000Y-121405000D03*
X171635000Y-121405000D03*
X146235000Y-123945000D03*
X171635000Y-123945000D03*
X146235000Y-126485000D03*
X171635000Y-126485000D03*
X146235000Y-129025000D03*
X171635000Y-129025000D03*
X146235000Y-131565000D03*
X171635000Y-131565000D03*
%TD*%
D12*
%TO.C,J9*%
X175000000Y-131250000D03*
D13*
X175000000Y-128710000D03*
%TD*%
%TO.C,J7*%
X167500000Y-121690000D03*
X167500000Y-119150000D03*
X167500000Y-116610000D03*
X167500000Y-114070000D03*
X167500000Y-111530000D03*
X167500000Y-108990000D03*
X167500000Y-106450000D03*
X167500000Y-103910000D03*
X167500000Y-101370000D03*
X167500000Y-98830000D03*
X167500000Y-96290000D03*
D12*
X167500000Y-93750000D03*
%TD*%
%TO.C,J1*%
X149900000Y-130250000D03*
D13*
X152440000Y-130250000D03*
X154980000Y-130250000D03*
X157520000Y-130250000D03*
X160060000Y-130250000D03*
X162600000Y-130250000D03*
%TD*%
D12*
%TO.C,J5*%
X149900000Y-80250000D03*
D13*
X152440000Y-80250000D03*
X154980000Y-80250000D03*
X157520000Y-80250000D03*
X160060000Y-80250000D03*
X162600000Y-80250000D03*
%TD*%
D12*
%TO.C,J3*%
X149900000Y-105250000D03*
D13*
X152440000Y-105250000D03*
X154980000Y-105250000D03*
X157520000Y-105250000D03*
X160060000Y-105250000D03*
X162600000Y-105250000D03*
%TD*%
D12*
%TO.C,J4*%
X149900000Y-92750000D03*
D13*
X152440000Y-92750000D03*
X154980000Y-92750000D03*
X157520000Y-92750000D03*
X160060000Y-92750000D03*
X162600000Y-92750000D03*
%TD*%
D12*
%TO.C,J2*%
X149900000Y-117750000D03*
D13*
X152440000Y-117750000D03*
X154980000Y-117750000D03*
X157520000Y-117750000D03*
X160060000Y-117750000D03*
X162600000Y-117750000D03*
%TD*%
M02*
