%TF.GenerationSoftware,KiCad,Pcbnew,8.0.4-8.0.4-0~ubuntu24.04.1*%
%TF.CreationDate,2024-09-03T15:59:57+09:00*%
%TF.ProjectId,ESP32,45535033-322e-46b6-9963-61645f706362,rev?*%
%TF.SameCoordinates,Original*%
%TF.FileFunction,Drillmap*%
%TF.FilePolarity,Positive*%
%FSLAX45Y45*%
G04 Gerber Fmt 4.5, Leading zero omitted, Abs format (unit mm)*
G04 Created by KiCad (PCBNEW 8.0.4-8.0.4-0~ubuntu24.04.1) date 2024-09-03 15:59:57*
%MOMM*%
%LPD*%
G01*
G04 APERTURE LIST*
%ADD10C,0.050000*%
%ADD11C,0.200000*%
G04 APERTURE END LIST*
D10*
X13050000Y-7200000D02*
X16925000Y-7200000D01*
X16925000Y-13125000D01*
X13050000Y-13125000D01*
X13050000Y-7200000D01*
D11*
X13308277Y-13438984D02*
X13308277Y-13238984D01*
X13308277Y-13238984D02*
X13355896Y-13238984D01*
X13355896Y-13238984D02*
X13384467Y-13248508D01*
X13384467Y-13248508D02*
X13403515Y-13267555D01*
X13403515Y-13267555D02*
X13413039Y-13286603D01*
X13413039Y-13286603D02*
X13422562Y-13324698D01*
X13422562Y-13324698D02*
X13422562Y-13353269D01*
X13422562Y-13353269D02*
X13413039Y-13391365D01*
X13413039Y-13391365D02*
X13403515Y-13410412D01*
X13403515Y-13410412D02*
X13384467Y-13429460D01*
X13384467Y-13429460D02*
X13355896Y-13438984D01*
X13355896Y-13438984D02*
X13308277Y-13438984D01*
X13508277Y-13438984D02*
X13508277Y-13305650D01*
X13508277Y-13343746D02*
X13517801Y-13324698D01*
X13517801Y-13324698D02*
X13527324Y-13315174D01*
X13527324Y-13315174D02*
X13546372Y-13305650D01*
X13546372Y-13305650D02*
X13565420Y-13305650D01*
X13632086Y-13438984D02*
X13632086Y-13305650D01*
X13632086Y-13238984D02*
X13622562Y-13248508D01*
X13622562Y-13248508D02*
X13632086Y-13258031D01*
X13632086Y-13258031D02*
X13641610Y-13248508D01*
X13641610Y-13248508D02*
X13632086Y-13238984D01*
X13632086Y-13238984D02*
X13632086Y-13258031D01*
X13755896Y-13438984D02*
X13736848Y-13429460D01*
X13736848Y-13429460D02*
X13727324Y-13410412D01*
X13727324Y-13410412D02*
X13727324Y-13238984D01*
X13860658Y-13438984D02*
X13841610Y-13429460D01*
X13841610Y-13429460D02*
X13832086Y-13410412D01*
X13832086Y-13410412D02*
X13832086Y-13238984D01*
X14089229Y-13438984D02*
X14089229Y-13238984D01*
X14089229Y-13238984D02*
X14155896Y-13381841D01*
X14155896Y-13381841D02*
X14222562Y-13238984D01*
X14222562Y-13238984D02*
X14222562Y-13438984D01*
X14403515Y-13438984D02*
X14403515Y-13334222D01*
X14403515Y-13334222D02*
X14393991Y-13315174D01*
X14393991Y-13315174D02*
X14374943Y-13305650D01*
X14374943Y-13305650D02*
X14336848Y-13305650D01*
X14336848Y-13305650D02*
X14317801Y-13315174D01*
X14403515Y-13429460D02*
X14384467Y-13438984D01*
X14384467Y-13438984D02*
X14336848Y-13438984D01*
X14336848Y-13438984D02*
X14317801Y-13429460D01*
X14317801Y-13429460D02*
X14308277Y-13410412D01*
X14308277Y-13410412D02*
X14308277Y-13391365D01*
X14308277Y-13391365D02*
X14317801Y-13372317D01*
X14317801Y-13372317D02*
X14336848Y-13362793D01*
X14336848Y-13362793D02*
X14384467Y-13362793D01*
X14384467Y-13362793D02*
X14403515Y-13353269D01*
X14498753Y-13305650D02*
X14498753Y-13505650D01*
X14498753Y-13315174D02*
X14517801Y-13305650D01*
X14517801Y-13305650D02*
X14555896Y-13305650D01*
X14555896Y-13305650D02*
X14574943Y-13315174D01*
X14574943Y-13315174D02*
X14584467Y-13324698D01*
X14584467Y-13324698D02*
X14593991Y-13343746D01*
X14593991Y-13343746D02*
X14593991Y-13400888D01*
X14593991Y-13400888D02*
X14584467Y-13419936D01*
X14584467Y-13419936D02*
X14574943Y-13429460D01*
X14574943Y-13429460D02*
X14555896Y-13438984D01*
X14555896Y-13438984D02*
X14517801Y-13438984D01*
X14517801Y-13438984D02*
X14498753Y-13429460D01*
X14679705Y-13419936D02*
X14689229Y-13429460D01*
X14689229Y-13429460D02*
X14679705Y-13438984D01*
X14679705Y-13438984D02*
X14670182Y-13429460D01*
X14670182Y-13429460D02*
X14679705Y-13419936D01*
X14679705Y-13419936D02*
X14679705Y-13438984D01*
X14679705Y-13315174D02*
X14689229Y-13324698D01*
X14689229Y-13324698D02*
X14679705Y-13334222D01*
X14679705Y-13334222D02*
X14670182Y-13324698D01*
X14670182Y-13324698D02*
X14679705Y-13315174D01*
X14679705Y-13315174D02*
X14679705Y-13334222D01*
M02*
