%TF.GenerationSoftware,KiCad,Pcbnew,8.0.4-8.0.4-0~ubuntu24.04.1*%
%TF.CreationDate,2024-09-03T18:29:06+09:00*%
%TF.ProjectId,ESP32,45535033-322e-46b6-9963-61645f706362,rev?*%
%TF.SameCoordinates,Original*%
%TF.FileFunction,Copper,L1,Top*%
%TF.FilePolarity,Positive*%
%FSLAX46Y46*%
G04 Gerber Fmt 4.6, Leading zero omitted, Abs format (unit mm)*
G04 Created by KiCad (PCBNEW 8.0.4-8.0.4-0~ubuntu24.04.1) date 2024-09-03 18:29:06*
%MOMM*%
%LPD*%
G01*
G04 APERTURE LIST*
%TA.AperFunction,ComponentPad*%
%ADD10R,1.408000X1.408000*%
%TD*%
%TA.AperFunction,ComponentPad*%
%ADD11C,1.408000*%
%TD*%
%TA.AperFunction,ComponentPad*%
%ADD12R,1.700000X1.700000*%
%TD*%
%TA.AperFunction,ComponentPad*%
%ADD13O,1.700000X1.700000*%
%TD*%
G04 APERTURE END LIST*
D10*
%TO.P,U1,J2_1,3V3*%
%TO.N,+3V3*%
X146235000Y-85845000D03*
D11*
%TO.P,U1,J3_1,GND_J3_1*%
%TO.N,GND1*%
X171635000Y-85845000D03*
%TO.P,U1,J2_2,EN*%
%TO.N,unconnected-(U1-EN-PadJ2_2)*%
X146235000Y-88385000D03*
%TO.P,U1,J3_2,IO23*%
%TO.N,unconnected-(U1-IO23-PadJ3_2)*%
X171635000Y-88385000D03*
%TO.P,U1,J2_3,SENSOR_VP*%
%TO.N,unconnected-(U1-SENSOR_VP-PadJ2_3)*%
X146235000Y-90925000D03*
%TO.P,U1,J3_3,IO22*%
%TO.N,SCL*%
X171635000Y-90925000D03*
%TO.P,U1,J2_4,SENSOR_VN*%
%TO.N,unconnected-(U1-SENSOR_VN-PadJ2_4)*%
X146235000Y-93465000D03*
%TO.P,U1,J3_4,TXD0*%
%TO.N,unconnected-(U1-TXD0-PadJ3_4)*%
X171635000Y-93465000D03*
%TO.P,U1,J2_5,IO34*%
%TO.N,unconnected-(U1-IO34-PadJ2_5)*%
X146235000Y-96005000D03*
%TO.P,U1,J3_5,RXD0*%
%TO.N,unconnected-(U1-RXD0-PadJ3_5)*%
X171635000Y-96005000D03*
%TO.P,U1,J2_6,IO35*%
%TO.N,unconnected-(U1-IO35-PadJ2_6)*%
X146235000Y-98545000D03*
%TO.P,U1,J3_6,IO21*%
%TO.N,SDA*%
X171635000Y-98545000D03*
%TO.P,U1,J2_7,IO32*%
%TO.N,unconnected-(U1-IO32-PadJ2_7)*%
X146235000Y-101085000D03*
%TO.P,U1,J3_7,GND_J3_7*%
%TO.N,unconnected-(U1-GND_J3_7-PadJ3_7)*%
X171635000Y-101085000D03*
%TO.P,U1,J2_8,IO33*%
%TO.N,unconnected-(U1-IO33-PadJ2_8)*%
X146235000Y-103625000D03*
%TO.P,U1,J3_8,IO19*%
%TO.N,Net-(J6-Pin_4)*%
X171635000Y-103625000D03*
%TO.P,U1,J2_9,IO25*%
%TO.N,unconnected-(U1-IO25-PadJ2_9)*%
X146235000Y-106165000D03*
%TO.P,U1,J3_9,IO18*%
%TO.N,Net-(J6-Pin_3)*%
X171635000Y-106165000D03*
%TO.P,U1,J2_10,IO26*%
%TO.N,unconnected-(U1-IO26-PadJ2_10)*%
X146235000Y-108705000D03*
%TO.P,U1,J3_10,IO5*%
%TO.N,Net-(J6-Pin_2)*%
X171635000Y-108705000D03*
%TO.P,U1,J2_11,IO27*%
%TO.N,unconnected-(U1-IO27-PadJ2_11)*%
X146235000Y-111245000D03*
%TO.P,U1,J3_11,IO17*%
%TO.N,Net-(J6-Pin_1)*%
X171635000Y-111245000D03*
%TO.P,U1,J2_12,IO14*%
%TO.N,unconnected-(U1-IO14-PadJ2_12)*%
X146235000Y-113785000D03*
%TO.P,U1,J3_12,IO16*%
%TO.N,unconnected-(U1-IO16-PadJ3_12)*%
X171635000Y-113785000D03*
%TO.P,U1,J2_13,IO12*%
%TO.N,unconnected-(U1-IO12-PadJ2_13)*%
X146235000Y-116325000D03*
%TO.P,U1,J3_13,IO4*%
%TO.N,unconnected-(U1-IO4-PadJ3_13)*%
X171635000Y-116325000D03*
%TO.P,U1,J2_14,GND_J2_14*%
%TO.N,unconnected-(U1-GND_J2_14-PadJ2_14)*%
X146235000Y-118865000D03*
%TO.P,U1,J3_14,IO0*%
%TO.N,Net-(J9-Pin_2)*%
X171635000Y-118865000D03*
%TO.P,U1,J2_15,IO13*%
%TO.N,unconnected-(U1-IO13-PadJ2_15)*%
X146235000Y-121405000D03*
%TO.P,U1,J3_15,IO2*%
%TO.N,unconnected-(U1-IO2-PadJ3_15)*%
X171635000Y-121405000D03*
%TO.P,U1,J2_16,SD2*%
%TO.N,unconnected-(U1-SD2-PadJ2_16)*%
X146235000Y-123945000D03*
%TO.P,U1,J3_16,IO15*%
%TO.N,unconnected-(U1-IO15-PadJ3_16)*%
X171635000Y-123945000D03*
%TO.P,U1,J2_17,SD3*%
%TO.N,unconnected-(U1-SD3-PadJ2_17)*%
X146235000Y-126485000D03*
%TO.P,U1,J3_17,SD1*%
%TO.N,unconnected-(U1-SD1-PadJ3_17)*%
X171635000Y-126485000D03*
%TO.P,U1,J2_18,CMD*%
%TO.N,unconnected-(U1-CMD-PadJ2_18)*%
X146235000Y-129025000D03*
%TO.P,U1,J3_18,SD0*%
%TO.N,unconnected-(U1-SD0-PadJ3_18)*%
X171635000Y-129025000D03*
%TO.P,U1,J2_19,EXT_5V*%
%TO.N,VIN*%
X146235000Y-131565000D03*
%TO.P,U1,J3_19,CLK*%
%TO.N,unconnected-(U1-CLK-PadJ3_19)*%
X171635000Y-131565000D03*
%TD*%
D12*
%TO.P,J9,1,Pin_1*%
%TO.N,GND1*%
X175000000Y-131250000D03*
D13*
%TO.P,J9,2,Pin_2*%
%TO.N,Net-(J9-Pin_2)*%
X175000000Y-128710000D03*
%TD*%
%TO.P,J7,12,Pin_12*%
%TO.N,VCC1*%
X167500000Y-121690000D03*
%TO.P,J7,11,Pin_11*%
%TO.N,GND1*%
X167500000Y-119150000D03*
%TO.P,J7,10,Pin_10*%
%TO.N,VCC2*%
X167500000Y-116610000D03*
%TO.P,J7,9,Pin_9*%
%TO.N,GND1*%
X167500000Y-114070000D03*
%TO.P,J7,8,Pin_8*%
%TO.N,VCC3*%
X167500000Y-111530000D03*
%TO.P,J7,7,Pin_7*%
%TO.N,GND1*%
X167500000Y-108990000D03*
%TO.P,J7,6,Pin_6*%
X167500000Y-106450000D03*
%TO.P,J7,5,Pin_5*%
%TO.N,VCC4*%
X167500000Y-103910000D03*
%TO.P,J7,4,Pin_4*%
%TO.N,GND1*%
X167500000Y-101370000D03*
%TO.P,J7,3,Pin_3*%
%TO.N,VCC5*%
X167500000Y-98830000D03*
%TO.P,J7,2,Pin_2*%
%TO.N,GND1*%
X167500000Y-96290000D03*
D12*
%TO.P,J7,1,Pin_1*%
%TO.N,VIN*%
X167500000Y-93750000D03*
%TD*%
%TO.P,J1,1,Pin_1*%
%TO.N,+3V3*%
X149900000Y-130250000D03*
D13*
%TO.P,J1,2,Pin_2*%
%TO.N,GND1*%
X152440000Y-130250000D03*
%TO.P,J1,3,Pin_3*%
%TO.N,SDA*%
X154980000Y-130250000D03*
%TO.P,J1,4,Pin_4*%
%TO.N,SCL*%
X157520000Y-130250000D03*
%TO.P,J1,5,Pin_5*%
%TO.N,unconnected-(J1-Pin_5-Pad5)*%
X160060000Y-130250000D03*
%TO.P,J1,6,Pin_6*%
%TO.N,VCC1*%
X162600000Y-130250000D03*
%TD*%
D12*
%TO.P,J5,1,Pin_1*%
%TO.N,+3V3*%
X149900000Y-80250000D03*
D13*
%TO.P,J5,2,Pin_2*%
%TO.N,GND1*%
X152440000Y-80250000D03*
%TO.P,J5,3,Pin_3*%
%TO.N,SDA*%
X154980000Y-80250000D03*
%TO.P,J5,4,Pin_4*%
%TO.N,SCL*%
X157520000Y-80250000D03*
%TO.P,J5,5,Pin_5*%
%TO.N,unconnected-(J5-Pin_5-Pad5)*%
X160060000Y-80250000D03*
%TO.P,J5,6,Pin_6*%
%TO.N,VCC5*%
X162600000Y-80250000D03*
%TD*%
D12*
%TO.P,J3,1,Pin_1*%
%TO.N,+3V3*%
X149900000Y-105250000D03*
D13*
%TO.P,J3,2,Pin_2*%
%TO.N,GND1*%
X152440000Y-105250000D03*
%TO.P,J3,3,Pin_3*%
%TO.N,SDA*%
X154980000Y-105250000D03*
%TO.P,J3,4,Pin_4*%
%TO.N,SCL*%
X157520000Y-105250000D03*
%TO.P,J3,5,Pin_5*%
%TO.N,unconnected-(J3-Pin_5-Pad5)*%
X160060000Y-105250000D03*
%TO.P,J3,6,Pin_6*%
%TO.N,VCC3*%
X162600000Y-105250000D03*
%TD*%
D12*
%TO.P,J4,1,Pin_1*%
%TO.N,+3V3*%
X149900000Y-92750000D03*
D13*
%TO.P,J4,2,Pin_2*%
%TO.N,GND1*%
X152440000Y-92750000D03*
%TO.P,J4,3,Pin_3*%
%TO.N,SDA*%
X154980000Y-92750000D03*
%TO.P,J4,4,Pin_4*%
%TO.N,SCL*%
X157520000Y-92750000D03*
%TO.P,J4,5,Pin_5*%
%TO.N,unconnected-(J4-Pin_5-Pad5)*%
X160060000Y-92750000D03*
%TO.P,J4,6,Pin_6*%
%TO.N,VCC4*%
X162600000Y-92750000D03*
%TD*%
D12*
%TO.P,J2,1,Pin_1*%
%TO.N,+3V3*%
X149900000Y-117750000D03*
D13*
%TO.P,J2,2,Pin_2*%
%TO.N,GND1*%
X152440000Y-117750000D03*
%TO.P,J2,3,Pin_3*%
%TO.N,SDA*%
X154980000Y-117750000D03*
%TO.P,J2,4,Pin_4*%
%TO.N,SCL*%
X157520000Y-117750000D03*
%TO.P,J2,5,Pin_5*%
%TO.N,unconnected-(J2-Pin_5-Pad5)*%
X160060000Y-117750000D03*
%TO.P,J2,6,Pin_6*%
%TO.N,VCC2*%
X162600000Y-117750000D03*
%TD*%
M02*
