M48
; DRILL file {KiCad 8.0.4-8.0.4-0~ubuntu24.04.1} date 2024-09-03T18:23:42+0900
; FORMAT={-:-/ absolute / inch / decimal}
; #@! TF.CreationDate,2024-09-03T18:23:42+09:00
; #@! TF.GenerationSoftware,Kicad,Pcbnew,8.0.4-8.0.4-0~ubuntu24.04.1
; #@! TF.FileFunction,Plated,1,2,PTH
FMAT,2
INCH
; #@! TA.AperFunction,Plated,PTH,ComponentDrill
T1C0.0354
; #@! TA.AperFunction,Plated,PTH,ComponentDrill
T2C0.0394
%
G90
G05
T1
X5.7573Y-3.3797
X5.7573Y-3.4797
X5.7573Y-3.5797
X5.7573Y-3.6797
X5.7573Y-3.7797
X5.7573Y-3.8797
X5.7573Y-3.9797
X5.7573Y-4.0797
X5.7573Y-4.1797
X5.7573Y-4.2797
X5.7573Y-4.3797
X5.7573Y-4.4797
X5.7573Y-4.5797
X5.7573Y-4.6797
X5.7573Y-4.7797
X5.7573Y-4.8797
X5.7573Y-4.9797
X5.7573Y-5.0797
X5.7573Y-5.1797
X6.7573Y-3.3797
X6.7573Y-3.4797
X6.7573Y-3.5797
X6.7573Y-3.6797
X6.7573Y-3.7797
X6.7573Y-3.8797
X6.7573Y-3.9797
X6.7573Y-4.0797
X6.7573Y-4.1797
X6.7573Y-4.2797
X6.7573Y-4.3797
X6.7573Y-4.4797
X6.7573Y-4.5797
X6.7573Y-4.6797
X6.7573Y-4.7797
X6.7573Y-4.8797
X6.7573Y-4.9797
X6.7573Y-5.0797
X6.7573Y-5.1797
T2
X5.9016Y-3.1594
X5.9016Y-3.6516
X5.9016Y-4.1437
X5.9016Y-4.6358
X5.9016Y-5.128
X6.0016Y-3.1594
X6.0016Y-3.6516
X6.0016Y-4.1437
X6.0016Y-4.6358
X6.0016Y-5.128
X6.1016Y-3.1594
X6.1016Y-3.6516
X6.1016Y-4.1437
X6.1016Y-4.6358
X6.1016Y-5.128
X6.2016Y-3.1594
X6.2016Y-3.6516
X6.2016Y-4.1437
X6.2016Y-4.6358
X6.2016Y-5.128
X6.3016Y-3.1594
X6.3016Y-3.6516
X6.3016Y-4.1437
X6.3016Y-4.6358
X6.3016Y-5.128
X6.4016Y-3.1594
X6.4016Y-3.6516
X6.4016Y-4.1437
X6.4016Y-4.6358
X6.4016Y-5.128
X6.5945Y-3.6909
X6.5945Y-3.7909
X6.5945Y-3.8909
X6.5945Y-3.9909
X6.5945Y-4.0909
X6.5945Y-4.1909
X6.5945Y-4.2909
X6.5945Y-4.3909
X6.5945Y-4.4909
X6.5945Y-4.5909
X6.5945Y-4.6909
X6.5945Y-4.7909
X6.8898Y-5.0673
X6.8898Y-5.1673
M30
