%TF.GenerationSoftware,KiCad,Pcbnew,8.0.5*%
%TF.CreationDate,2024-12-01T15:07:40+09:00*%
%TF.ProjectId,PCA9685_ver4,50434139-3638-4355-9f76-6572342e6b69,rev?*%
%TF.SameCoordinates,Original*%
%TF.FileFunction,Drillmap*%
%TF.FilePolarity,Positive*%
%FSLAX45Y45*%
G04 Gerber Fmt 4.5, Leading zero omitted, Abs format (unit mm)*
G04 Created by KiCad (PCBNEW 8.0.5) date 2024-12-01 15:07:40*
%MOMM*%
%LPD*%
G01*
G04 APERTURE LIST*
%ADD10C,0.050000*%
%ADD11C,0.200000*%
%ADD12C,0.100000*%
G04 APERTURE END LIST*
D10*
X13470000Y-5220000D02*
X16270000Y-5220000D01*
X16270000Y-7520000D01*
X13470000Y-7520000D01*
X13470000Y-5220000D01*
D11*
D12*
X13803109Y-7033109D02*
X13833109Y-7063109D01*
X13833109Y-7033109D02*
X13803109Y-7063109D01*
X13805000Y-6905000D02*
X13835000Y-6935000D01*
X13835000Y-6905000D02*
X13805000Y-6935000D01*
X13925000Y-5515000D02*
X13955000Y-5545000D01*
X13955000Y-5515000D02*
X13925000Y-5545000D01*
X13925000Y-7055000D02*
X13955000Y-7085000D01*
X13955000Y-7055000D02*
X13925000Y-7085000D01*
X13945000Y-6135000D02*
X13975000Y-6165000D01*
X13975000Y-6135000D02*
X13945000Y-6165000D01*
X13945000Y-6535000D02*
X13975000Y-6565000D01*
X13975000Y-6535000D02*
X13945000Y-6565000D01*
X13955000Y-5735000D02*
X13985000Y-5765000D01*
X13985000Y-5735000D02*
X13955000Y-5765000D01*
X13990000Y-5885000D02*
X14020000Y-5915000D01*
X14020000Y-5885000D02*
X13990000Y-5915000D01*
X14021391Y-6983609D02*
X14051391Y-7013609D01*
X14051391Y-6983609D02*
X14021391Y-7013609D01*
X14035000Y-6535000D02*
X14065000Y-6565000D01*
X14065000Y-6535000D02*
X14035000Y-6565000D01*
X14135000Y-6135000D02*
X14165000Y-6165000D01*
X14165000Y-6135000D02*
X14135000Y-6165000D01*
X14135000Y-6535000D02*
X14165000Y-6565000D01*
X14165000Y-6535000D02*
X14135000Y-6565000D01*
X14135000Y-6945000D02*
X14165000Y-6975000D01*
X14165000Y-6945000D02*
X14135000Y-6975000D01*
X14145000Y-5345000D02*
X14175000Y-5375000D01*
X14175000Y-5345000D02*
X14145000Y-5375000D01*
X14190000Y-7115000D02*
X14220000Y-7145000D01*
X14220000Y-7115000D02*
X14190000Y-7145000D01*
X14210000Y-6945000D02*
X14240000Y-6975000D01*
X14240000Y-6945000D02*
X14210000Y-6975000D01*
X14244500Y-6114500D02*
X14274500Y-6144500D01*
X14274500Y-6114500D02*
X14244500Y-6144500D01*
X14275797Y-5605797D02*
X14305797Y-5635797D01*
X14305797Y-5605797D02*
X14275797Y-5635797D01*
X14334853Y-5714743D02*
X14364853Y-5744743D01*
X14364853Y-5714743D02*
X14334853Y-5744743D01*
X14373000Y-6085000D02*
X14403000Y-6115000D01*
X14403000Y-6085000D02*
X14373000Y-6115000D01*
X14385000Y-5785000D02*
X14415000Y-5815000D01*
X14415000Y-5785000D02*
X14385000Y-5815000D01*
X14398000Y-5984855D02*
X14428000Y-6014855D01*
X14428000Y-5984855D02*
X14398000Y-6014855D01*
X14405145Y-5884855D02*
X14435145Y-5914855D01*
X14435145Y-5884855D02*
X14405145Y-5914855D01*
X14455000Y-5675000D02*
X14485000Y-5705000D01*
X14485000Y-5675000D02*
X14455000Y-5705000D01*
X14488541Y-5742082D02*
X14518541Y-5772082D01*
X14518541Y-5742082D02*
X14488541Y-5772082D01*
X14585000Y-5805000D02*
X14615000Y-5835000D01*
X14615000Y-5805000D02*
X14585000Y-5835000D01*
X14655000Y-5955000D02*
X14685000Y-5985000D01*
X14685000Y-5955000D02*
X14655000Y-5985000D01*
X14685000Y-5325000D02*
X14715000Y-5355000D01*
X14715000Y-5325000D02*
X14685000Y-5355000D01*
X14705000Y-6015000D02*
X14735000Y-6045000D01*
X14735000Y-6015000D02*
X14705000Y-6045000D01*
X14758033Y-6085000D02*
X14788033Y-6115000D01*
X14788033Y-6085000D02*
X14758033Y-6115000D01*
X14759950Y-5322266D02*
X14789950Y-5352266D01*
X14789950Y-5322266D02*
X14759950Y-5352266D01*
X14770000Y-6275000D02*
X14800000Y-6305000D01*
X14800000Y-6275000D02*
X14770000Y-6305000D01*
X14849687Y-5680312D02*
X14879687Y-5710312D01*
X14879687Y-5680312D02*
X14849687Y-5710312D01*
X14855711Y-6024289D02*
X14885711Y-6054289D01*
X14885711Y-6024289D02*
X14855711Y-6054289D01*
X14858033Y-5880305D02*
X14888033Y-5910305D01*
X14888033Y-5880305D02*
X14858033Y-5910305D01*
X14890000Y-5955000D02*
X14920000Y-5985000D01*
X14920000Y-5955000D02*
X14890000Y-5985000D01*
X14890000Y-6137782D02*
X14920000Y-6167782D01*
X14920000Y-6137782D02*
X14890000Y-6167782D01*
X14945000Y-6022500D02*
X14975000Y-6052500D01*
X14975000Y-6022500D02*
X14945000Y-6052500D01*
X14945000Y-6275000D02*
X14975000Y-6305000D01*
X14975000Y-6275000D02*
X14945000Y-6305000D01*
X14945000Y-6405000D02*
X14975000Y-6435000D01*
X14975000Y-6405000D02*
X14945000Y-6435000D01*
X14965000Y-6585000D02*
X14995000Y-6615000D01*
X14995000Y-6585000D02*
X14965000Y-6615000D01*
X14975000Y-5405000D02*
X15005000Y-5435000D01*
X15005000Y-5405000D02*
X14975000Y-5435000D01*
X15002500Y-6214711D02*
X15032500Y-6244711D01*
X15032500Y-6214711D02*
X15002500Y-6244711D01*
X15015000Y-6335000D02*
X15045000Y-6365000D01*
X15045000Y-6335000D02*
X15015000Y-6365000D01*
X15055000Y-5915000D02*
X15085000Y-5945000D01*
X15085000Y-5915000D02*
X15055000Y-5945000D01*
X15094375Y-5685000D02*
X15124375Y-5715000D01*
X15124375Y-5685000D02*
X15094375Y-5715000D01*
X15105000Y-5385000D02*
X15135000Y-5415000D01*
X15135000Y-5385000D02*
X15105000Y-5415000D01*
X15190375Y-5455000D02*
X15220375Y-5485000D01*
X15220375Y-5455000D02*
X15190375Y-5485000D01*
X15265000Y-6115000D02*
X15295000Y-6145000D01*
X15295000Y-6115000D02*
X15265000Y-6145000D01*
X15269645Y-5659645D02*
X15299645Y-5689645D01*
X15299645Y-5659645D02*
X15269645Y-5689645D01*
X15285000Y-5805000D02*
X15315000Y-5835000D01*
X15315000Y-5805000D02*
X15285000Y-5835000D01*
X15285000Y-7055000D02*
X15315000Y-7085000D01*
X15315000Y-7055000D02*
X15285000Y-7085000D01*
X15310000Y-5335000D02*
X15340000Y-5365000D01*
X15340000Y-5335000D02*
X15310000Y-5365000D01*
X15395000Y-5695000D02*
X15425000Y-5725000D01*
X15425000Y-5695000D02*
X15395000Y-5725000D01*
X15415000Y-5805000D02*
X15445000Y-5835000D01*
X15445000Y-5805000D02*
X15415000Y-5835000D01*
X15447813Y-5900000D02*
X15477813Y-5930000D01*
X15477813Y-5900000D02*
X15447813Y-5930000D01*
X15465000Y-7045000D02*
X15495000Y-7075000D01*
X15495000Y-7045000D02*
X15465000Y-7075000D01*
X15472903Y-5693968D02*
X15502903Y-5723968D01*
X15502903Y-5693968D02*
X15472903Y-5723968D01*
X15535000Y-6965000D02*
X15565000Y-6995000D01*
X15565000Y-6965000D02*
X15535000Y-6995000D01*
X15536500Y-6562600D02*
X15566500Y-6592600D01*
X15566500Y-6562600D02*
X15536500Y-6592600D01*
X15565000Y-6155000D02*
X15595000Y-6185000D01*
X15595000Y-6155000D02*
X15565000Y-6185000D01*
X15590000Y-7055000D02*
X15620000Y-7085000D01*
X15620000Y-7055000D02*
X15590000Y-7085000D01*
X15610000Y-5385000D02*
X15640000Y-5415000D01*
X15640000Y-5385000D02*
X15610000Y-5415000D01*
X15620000Y-5822077D02*
X15650000Y-5852077D01*
X15650000Y-5822077D02*
X15620000Y-5852077D01*
X15645000Y-7195000D02*
X15675000Y-7225000D01*
X15675000Y-7195000D02*
X15645000Y-7225000D01*
X15645000Y-7365000D02*
X15675000Y-7395000D01*
X15675000Y-7365000D02*
X15645000Y-7395000D01*
X15675000Y-6115000D02*
X15705000Y-6145000D01*
X15705000Y-6115000D02*
X15675000Y-6145000D01*
X15685000Y-5685000D02*
X15715000Y-5715000D01*
X15715000Y-5685000D02*
X15685000Y-5715000D01*
X15725000Y-6565000D02*
X15755000Y-6595000D01*
X15755000Y-6565000D02*
X15725000Y-6595000D01*
X15725000Y-6965000D02*
X15755000Y-6995000D01*
X15755000Y-6965000D02*
X15725000Y-6995000D01*
X15805000Y-7145000D02*
X15835000Y-7175000D01*
X15835000Y-7145000D02*
X15805000Y-7175000D01*
X14387500Y-7310000D02*
G75*
G02*
X14292500Y-7310000I-47500J0D01*
G01*
X14292500Y-7310000D02*
G75*
G02*
X14387500Y-7310000I47500J0D01*
G01*
X14637500Y-7310000D02*
G75*
G02*
X14542500Y-7310000I-47500J0D01*
G01*
X14542500Y-7310000D02*
G75*
G02*
X14637500Y-7310000I47500J0D01*
G01*
X14887500Y-7310000D02*
G75*
G02*
X14792500Y-7310000I-47500J0D01*
G01*
X14792500Y-7310000D02*
G75*
G02*
X14887500Y-7310000I47500J0D01*
G01*
X15137500Y-7310000D02*
G75*
G02*
X15042500Y-7310000I-47500J0D01*
G01*
X15042500Y-7310000D02*
G75*
G02*
X15137500Y-7310000I47500J0D01*
G01*
X15387500Y-7310000D02*
G75*
G02*
X15292500Y-7310000I-47500J0D01*
G01*
X15292500Y-7310000D02*
G75*
G02*
X15387500Y-7310000I47500J0D01*
G01*
X13700000Y-5416000D02*
X13700000Y-5516000D01*
X13650000Y-5466000D02*
X13750000Y-5466000D01*
X13700000Y-5670000D02*
X13700000Y-5770000D01*
X13650000Y-5720000D02*
X13750000Y-5720000D01*
X13700000Y-5924000D02*
X13700000Y-6024000D01*
X13650000Y-5974000D02*
X13750000Y-5974000D01*
X13700000Y-6178000D02*
X13700000Y-6278000D01*
X13650000Y-6228000D02*
X13750000Y-6228000D01*
X13700000Y-6432000D02*
X13700000Y-6532000D01*
X13650000Y-6482000D02*
X13750000Y-6482000D01*
X13700000Y-6686000D02*
X13700000Y-6786000D01*
X13650000Y-6736000D02*
X13750000Y-6736000D01*
X13700000Y-6940000D02*
X13700000Y-7040000D01*
X13650000Y-6990000D02*
X13750000Y-6990000D01*
X13700000Y-7194000D02*
X13700000Y-7294000D01*
X13650000Y-7244000D02*
X13750000Y-7244000D01*
X16010000Y-5416000D02*
X16010000Y-5516000D01*
X15960000Y-5466000D02*
X16060000Y-5466000D01*
X16010000Y-5670000D02*
X16010000Y-5770000D01*
X15960000Y-5720000D02*
X16060000Y-5720000D01*
X16010000Y-5924000D02*
X16010000Y-6024000D01*
X15960000Y-5974000D02*
X16060000Y-5974000D01*
X16010000Y-6178000D02*
X16010000Y-6278000D01*
X15960000Y-6228000D02*
X16060000Y-6228000D01*
X16010000Y-6432000D02*
X16010000Y-6532000D01*
X15960000Y-6482000D02*
X16060000Y-6482000D01*
X16010000Y-6686000D02*
X16010000Y-6786000D01*
X15960000Y-6736000D02*
X16060000Y-6736000D01*
X16010000Y-6940000D02*
X16010000Y-7040000D01*
X15960000Y-6990000D02*
X16060000Y-6990000D01*
X16010000Y-7194000D02*
X16010000Y-7294000D01*
X15960000Y-7244000D02*
X16060000Y-7244000D01*
D11*
X13728277Y-7833984D02*
X13728277Y-7633984D01*
X13728277Y-7633984D02*
X13775896Y-7633984D01*
X13775896Y-7633984D02*
X13804467Y-7643508D01*
X13804467Y-7643508D02*
X13823515Y-7662555D01*
X13823515Y-7662555D02*
X13833039Y-7681603D01*
X13833039Y-7681603D02*
X13842562Y-7719698D01*
X13842562Y-7719698D02*
X13842562Y-7748269D01*
X13842562Y-7748269D02*
X13833039Y-7786365D01*
X13833039Y-7786365D02*
X13823515Y-7805412D01*
X13823515Y-7805412D02*
X13804467Y-7824460D01*
X13804467Y-7824460D02*
X13775896Y-7833984D01*
X13775896Y-7833984D02*
X13728277Y-7833984D01*
X13928277Y-7833984D02*
X13928277Y-7700650D01*
X13928277Y-7738746D02*
X13937801Y-7719698D01*
X13937801Y-7719698D02*
X13947324Y-7710174D01*
X13947324Y-7710174D02*
X13966372Y-7700650D01*
X13966372Y-7700650D02*
X13985420Y-7700650D01*
X14052086Y-7833984D02*
X14052086Y-7700650D01*
X14052086Y-7633984D02*
X14042562Y-7643508D01*
X14042562Y-7643508D02*
X14052086Y-7653031D01*
X14052086Y-7653031D02*
X14061610Y-7643508D01*
X14061610Y-7643508D02*
X14052086Y-7633984D01*
X14052086Y-7633984D02*
X14052086Y-7653031D01*
X14175896Y-7833984D02*
X14156848Y-7824460D01*
X14156848Y-7824460D02*
X14147324Y-7805412D01*
X14147324Y-7805412D02*
X14147324Y-7633984D01*
X14280658Y-7833984D02*
X14261610Y-7824460D01*
X14261610Y-7824460D02*
X14252086Y-7805412D01*
X14252086Y-7805412D02*
X14252086Y-7633984D01*
X14509229Y-7833984D02*
X14509229Y-7633984D01*
X14509229Y-7633984D02*
X14575896Y-7776841D01*
X14575896Y-7776841D02*
X14642562Y-7633984D01*
X14642562Y-7633984D02*
X14642562Y-7833984D01*
X14823515Y-7833984D02*
X14823515Y-7729222D01*
X14823515Y-7729222D02*
X14813991Y-7710174D01*
X14813991Y-7710174D02*
X14794943Y-7700650D01*
X14794943Y-7700650D02*
X14756848Y-7700650D01*
X14756848Y-7700650D02*
X14737801Y-7710174D01*
X14823515Y-7824460D02*
X14804467Y-7833984D01*
X14804467Y-7833984D02*
X14756848Y-7833984D01*
X14756848Y-7833984D02*
X14737801Y-7824460D01*
X14737801Y-7824460D02*
X14728277Y-7805412D01*
X14728277Y-7805412D02*
X14728277Y-7786365D01*
X14728277Y-7786365D02*
X14737801Y-7767317D01*
X14737801Y-7767317D02*
X14756848Y-7757793D01*
X14756848Y-7757793D02*
X14804467Y-7757793D01*
X14804467Y-7757793D02*
X14823515Y-7748269D01*
X14918753Y-7700650D02*
X14918753Y-7900650D01*
X14918753Y-7710174D02*
X14937801Y-7700650D01*
X14937801Y-7700650D02*
X14975896Y-7700650D01*
X14975896Y-7700650D02*
X14994943Y-7710174D01*
X14994943Y-7710174D02*
X15004467Y-7719698D01*
X15004467Y-7719698D02*
X15013991Y-7738746D01*
X15013991Y-7738746D02*
X15013991Y-7795888D01*
X15013991Y-7795888D02*
X15004467Y-7814936D01*
X15004467Y-7814936D02*
X14994943Y-7824460D01*
X14994943Y-7824460D02*
X14975896Y-7833984D01*
X14975896Y-7833984D02*
X14937801Y-7833984D01*
X14937801Y-7833984D02*
X14918753Y-7824460D01*
X15099705Y-7814936D02*
X15109229Y-7824460D01*
X15109229Y-7824460D02*
X15099705Y-7833984D01*
X15099705Y-7833984D02*
X15090182Y-7824460D01*
X15090182Y-7824460D02*
X15099705Y-7814936D01*
X15099705Y-7814936D02*
X15099705Y-7833984D01*
X15099705Y-7710174D02*
X15109229Y-7719698D01*
X15109229Y-7719698D02*
X15099705Y-7729222D01*
X15099705Y-7729222D02*
X15090182Y-7719698D01*
X15090182Y-7719698D02*
X15099705Y-7710174D01*
X15099705Y-7710174D02*
X15099705Y-7729222D01*
D12*
X13437500Y-8147500D02*
X13467500Y-8177500D01*
X13467500Y-8147500D02*
X13437500Y-8177500D01*
D11*
X13766372Y-8053984D02*
X13785420Y-8053984D01*
X13785420Y-8053984D02*
X13804467Y-8063508D01*
X13804467Y-8063508D02*
X13813991Y-8073031D01*
X13813991Y-8073031D02*
X13823515Y-8092079D01*
X13823515Y-8092079D02*
X13833039Y-8130174D01*
X13833039Y-8130174D02*
X13833039Y-8177793D01*
X13833039Y-8177793D02*
X13823515Y-8215888D01*
X13823515Y-8215888D02*
X13813991Y-8234936D01*
X13813991Y-8234936D02*
X13804467Y-8244460D01*
X13804467Y-8244460D02*
X13785420Y-8253984D01*
X13785420Y-8253984D02*
X13766372Y-8253984D01*
X13766372Y-8253984D02*
X13747324Y-8244460D01*
X13747324Y-8244460D02*
X13737801Y-8234936D01*
X13737801Y-8234936D02*
X13728277Y-8215888D01*
X13728277Y-8215888D02*
X13718753Y-8177793D01*
X13718753Y-8177793D02*
X13718753Y-8130174D01*
X13718753Y-8130174D02*
X13728277Y-8092079D01*
X13728277Y-8092079D02*
X13737801Y-8073031D01*
X13737801Y-8073031D02*
X13747324Y-8063508D01*
X13747324Y-8063508D02*
X13766372Y-8053984D01*
X13918753Y-8234936D02*
X13928277Y-8244460D01*
X13928277Y-8244460D02*
X13918753Y-8253984D01*
X13918753Y-8253984D02*
X13909229Y-8244460D01*
X13909229Y-8244460D02*
X13918753Y-8234936D01*
X13918753Y-8234936D02*
X13918753Y-8253984D01*
X13994943Y-8053984D02*
X14118753Y-8053984D01*
X14118753Y-8053984D02*
X14052086Y-8130174D01*
X14052086Y-8130174D02*
X14080658Y-8130174D01*
X14080658Y-8130174D02*
X14099705Y-8139698D01*
X14099705Y-8139698D02*
X14109229Y-8149222D01*
X14109229Y-8149222D02*
X14118753Y-8168269D01*
X14118753Y-8168269D02*
X14118753Y-8215888D01*
X14118753Y-8215888D02*
X14109229Y-8234936D01*
X14109229Y-8234936D02*
X14099705Y-8244460D01*
X14099705Y-8244460D02*
X14080658Y-8253984D01*
X14080658Y-8253984D02*
X14023515Y-8253984D01*
X14023515Y-8253984D02*
X14004467Y-8244460D01*
X14004467Y-8244460D02*
X13994943Y-8234936D01*
X14242562Y-8053984D02*
X14261610Y-8053984D01*
X14261610Y-8053984D02*
X14280658Y-8063508D01*
X14280658Y-8063508D02*
X14290182Y-8073031D01*
X14290182Y-8073031D02*
X14299705Y-8092079D01*
X14299705Y-8092079D02*
X14309229Y-8130174D01*
X14309229Y-8130174D02*
X14309229Y-8177793D01*
X14309229Y-8177793D02*
X14299705Y-8215888D01*
X14299705Y-8215888D02*
X14290182Y-8234936D01*
X14290182Y-8234936D02*
X14280658Y-8244460D01*
X14280658Y-8244460D02*
X14261610Y-8253984D01*
X14261610Y-8253984D02*
X14242562Y-8253984D01*
X14242562Y-8253984D02*
X14223515Y-8244460D01*
X14223515Y-8244460D02*
X14213991Y-8234936D01*
X14213991Y-8234936D02*
X14204467Y-8215888D01*
X14204467Y-8215888D02*
X14194943Y-8177793D01*
X14194943Y-8177793D02*
X14194943Y-8130174D01*
X14194943Y-8130174D02*
X14204467Y-8092079D01*
X14204467Y-8092079D02*
X14213991Y-8073031D01*
X14213991Y-8073031D02*
X14223515Y-8063508D01*
X14223515Y-8063508D02*
X14242562Y-8053984D01*
X14433039Y-8053984D02*
X14452086Y-8053984D01*
X14452086Y-8053984D02*
X14471134Y-8063508D01*
X14471134Y-8063508D02*
X14480658Y-8073031D01*
X14480658Y-8073031D02*
X14490182Y-8092079D01*
X14490182Y-8092079D02*
X14499705Y-8130174D01*
X14499705Y-8130174D02*
X14499705Y-8177793D01*
X14499705Y-8177793D02*
X14490182Y-8215888D01*
X14490182Y-8215888D02*
X14480658Y-8234936D01*
X14480658Y-8234936D02*
X14471134Y-8244460D01*
X14471134Y-8244460D02*
X14452086Y-8253984D01*
X14452086Y-8253984D02*
X14433039Y-8253984D01*
X14433039Y-8253984D02*
X14413991Y-8244460D01*
X14413991Y-8244460D02*
X14404467Y-8234936D01*
X14404467Y-8234936D02*
X14394943Y-8215888D01*
X14394943Y-8215888D02*
X14385420Y-8177793D01*
X14385420Y-8177793D02*
X14385420Y-8130174D01*
X14385420Y-8130174D02*
X14394943Y-8092079D01*
X14394943Y-8092079D02*
X14404467Y-8073031D01*
X14404467Y-8073031D02*
X14413991Y-8063508D01*
X14413991Y-8063508D02*
X14433039Y-8053984D01*
X14585420Y-8253984D02*
X14585420Y-8120650D01*
X14585420Y-8139698D02*
X14594943Y-8130174D01*
X14594943Y-8130174D02*
X14613991Y-8120650D01*
X14613991Y-8120650D02*
X14642563Y-8120650D01*
X14642563Y-8120650D02*
X14661610Y-8130174D01*
X14661610Y-8130174D02*
X14671134Y-8149222D01*
X14671134Y-8149222D02*
X14671134Y-8253984D01*
X14671134Y-8149222D02*
X14680658Y-8130174D01*
X14680658Y-8130174D02*
X14699705Y-8120650D01*
X14699705Y-8120650D02*
X14728277Y-8120650D01*
X14728277Y-8120650D02*
X14747324Y-8130174D01*
X14747324Y-8130174D02*
X14756848Y-8149222D01*
X14756848Y-8149222D02*
X14756848Y-8253984D01*
X14852086Y-8253984D02*
X14852086Y-8120650D01*
X14852086Y-8139698D02*
X14861610Y-8130174D01*
X14861610Y-8130174D02*
X14880658Y-8120650D01*
X14880658Y-8120650D02*
X14909229Y-8120650D01*
X14909229Y-8120650D02*
X14928277Y-8130174D01*
X14928277Y-8130174D02*
X14937801Y-8149222D01*
X14937801Y-8149222D02*
X14937801Y-8253984D01*
X14937801Y-8149222D02*
X14947324Y-8130174D01*
X14947324Y-8130174D02*
X14966372Y-8120650D01*
X14966372Y-8120650D02*
X14994943Y-8120650D01*
X14994943Y-8120650D02*
X15013991Y-8130174D01*
X15013991Y-8130174D02*
X15023515Y-8149222D01*
X15023515Y-8149222D02*
X15023515Y-8253984D01*
X15413991Y-8044460D02*
X15242563Y-8301603D01*
X15671134Y-8053984D02*
X15690182Y-8053984D01*
X15690182Y-8053984D02*
X15709229Y-8063508D01*
X15709229Y-8063508D02*
X15718753Y-8073031D01*
X15718753Y-8073031D02*
X15728277Y-8092079D01*
X15728277Y-8092079D02*
X15737801Y-8130174D01*
X15737801Y-8130174D02*
X15737801Y-8177793D01*
X15737801Y-8177793D02*
X15728277Y-8215888D01*
X15728277Y-8215888D02*
X15718753Y-8234936D01*
X15718753Y-8234936D02*
X15709229Y-8244460D01*
X15709229Y-8244460D02*
X15690182Y-8253984D01*
X15690182Y-8253984D02*
X15671134Y-8253984D01*
X15671134Y-8253984D02*
X15652086Y-8244460D01*
X15652086Y-8244460D02*
X15642563Y-8234936D01*
X15642563Y-8234936D02*
X15633039Y-8215888D01*
X15633039Y-8215888D02*
X15623515Y-8177793D01*
X15623515Y-8177793D02*
X15623515Y-8130174D01*
X15623515Y-8130174D02*
X15633039Y-8092079D01*
X15633039Y-8092079D02*
X15642563Y-8073031D01*
X15642563Y-8073031D02*
X15652086Y-8063508D01*
X15652086Y-8063508D02*
X15671134Y-8053984D01*
X15823515Y-8234936D02*
X15833039Y-8244460D01*
X15833039Y-8244460D02*
X15823515Y-8253984D01*
X15823515Y-8253984D02*
X15813991Y-8244460D01*
X15813991Y-8244460D02*
X15823515Y-8234936D01*
X15823515Y-8234936D02*
X15823515Y-8253984D01*
X15956848Y-8053984D02*
X15975896Y-8053984D01*
X15975896Y-8053984D02*
X15994944Y-8063508D01*
X15994944Y-8063508D02*
X16004467Y-8073031D01*
X16004467Y-8073031D02*
X16013991Y-8092079D01*
X16013991Y-8092079D02*
X16023515Y-8130174D01*
X16023515Y-8130174D02*
X16023515Y-8177793D01*
X16023515Y-8177793D02*
X16013991Y-8215888D01*
X16013991Y-8215888D02*
X16004467Y-8234936D01*
X16004467Y-8234936D02*
X15994944Y-8244460D01*
X15994944Y-8244460D02*
X15975896Y-8253984D01*
X15975896Y-8253984D02*
X15956848Y-8253984D01*
X15956848Y-8253984D02*
X15937801Y-8244460D01*
X15937801Y-8244460D02*
X15928277Y-8234936D01*
X15928277Y-8234936D02*
X15918753Y-8215888D01*
X15918753Y-8215888D02*
X15909229Y-8177793D01*
X15909229Y-8177793D02*
X15909229Y-8130174D01*
X15909229Y-8130174D02*
X15918753Y-8092079D01*
X15918753Y-8092079D02*
X15928277Y-8073031D01*
X15928277Y-8073031D02*
X15937801Y-8063508D01*
X15937801Y-8063508D02*
X15956848Y-8053984D01*
X16213991Y-8253984D02*
X16099706Y-8253984D01*
X16156848Y-8253984D02*
X16156848Y-8053984D01*
X16156848Y-8053984D02*
X16137801Y-8082555D01*
X16137801Y-8082555D02*
X16118753Y-8101603D01*
X16118753Y-8101603D02*
X16099706Y-8111127D01*
X16404467Y-8253984D02*
X16290182Y-8253984D01*
X16347325Y-8253984D02*
X16347325Y-8053984D01*
X16347325Y-8053984D02*
X16328277Y-8082555D01*
X16328277Y-8082555D02*
X16309229Y-8101603D01*
X16309229Y-8101603D02*
X16290182Y-8111127D01*
X16518753Y-8139698D02*
X16499706Y-8130174D01*
X16499706Y-8130174D02*
X16490182Y-8120650D01*
X16490182Y-8120650D02*
X16480658Y-8101603D01*
X16480658Y-8101603D02*
X16480658Y-8092079D01*
X16480658Y-8092079D02*
X16490182Y-8073031D01*
X16490182Y-8073031D02*
X16499706Y-8063508D01*
X16499706Y-8063508D02*
X16518753Y-8053984D01*
X16518753Y-8053984D02*
X16556848Y-8053984D01*
X16556848Y-8053984D02*
X16575896Y-8063508D01*
X16575896Y-8063508D02*
X16585420Y-8073031D01*
X16585420Y-8073031D02*
X16594944Y-8092079D01*
X16594944Y-8092079D02*
X16594944Y-8101603D01*
X16594944Y-8101603D02*
X16585420Y-8120650D01*
X16585420Y-8120650D02*
X16575896Y-8130174D01*
X16575896Y-8130174D02*
X16556848Y-8139698D01*
X16556848Y-8139698D02*
X16518753Y-8139698D01*
X16518753Y-8139698D02*
X16499706Y-8149222D01*
X16499706Y-8149222D02*
X16490182Y-8158746D01*
X16490182Y-8158746D02*
X16480658Y-8177793D01*
X16480658Y-8177793D02*
X16480658Y-8215888D01*
X16480658Y-8215888D02*
X16490182Y-8234936D01*
X16490182Y-8234936D02*
X16499706Y-8244460D01*
X16499706Y-8244460D02*
X16518753Y-8253984D01*
X16518753Y-8253984D02*
X16556848Y-8253984D01*
X16556848Y-8253984D02*
X16575896Y-8244460D01*
X16575896Y-8244460D02*
X16585420Y-8234936D01*
X16585420Y-8234936D02*
X16594944Y-8215888D01*
X16594944Y-8215888D02*
X16594944Y-8177793D01*
X16594944Y-8177793D02*
X16585420Y-8158746D01*
X16585420Y-8158746D02*
X16575896Y-8149222D01*
X16575896Y-8149222D02*
X16556848Y-8139698D01*
X16671134Y-8053984D02*
X16671134Y-8092079D01*
X16747325Y-8053984D02*
X16747325Y-8092079D01*
X17042563Y-8330174D02*
X17033039Y-8320650D01*
X17033039Y-8320650D02*
X17013991Y-8292079D01*
X17013991Y-8292079D02*
X17004468Y-8273031D01*
X17004468Y-8273031D02*
X16994944Y-8244460D01*
X16994944Y-8244460D02*
X16985420Y-8196841D01*
X16985420Y-8196841D02*
X16985420Y-8158746D01*
X16985420Y-8158746D02*
X16994944Y-8111127D01*
X16994944Y-8111127D02*
X17004468Y-8082555D01*
X17004468Y-8082555D02*
X17013991Y-8063508D01*
X17013991Y-8063508D02*
X17033039Y-8034936D01*
X17033039Y-8034936D02*
X17042563Y-8025412D01*
X17099706Y-8053984D02*
X17233039Y-8053984D01*
X17233039Y-8053984D02*
X17147325Y-8253984D01*
X17413991Y-8253984D02*
X17299706Y-8253984D01*
X17356849Y-8253984D02*
X17356849Y-8053984D01*
X17356849Y-8053984D02*
X17337801Y-8082555D01*
X17337801Y-8082555D02*
X17318753Y-8101603D01*
X17318753Y-8101603D02*
X17299706Y-8111127D01*
X17652087Y-8253984D02*
X17652087Y-8053984D01*
X17737801Y-8253984D02*
X17737801Y-8149222D01*
X17737801Y-8149222D02*
X17728277Y-8130174D01*
X17728277Y-8130174D02*
X17709230Y-8120650D01*
X17709230Y-8120650D02*
X17680658Y-8120650D01*
X17680658Y-8120650D02*
X17661611Y-8130174D01*
X17661611Y-8130174D02*
X17652087Y-8139698D01*
X17861611Y-8253984D02*
X17842563Y-8244460D01*
X17842563Y-8244460D02*
X17833039Y-8234936D01*
X17833039Y-8234936D02*
X17823515Y-8215888D01*
X17823515Y-8215888D02*
X17823515Y-8158746D01*
X17823515Y-8158746D02*
X17833039Y-8139698D01*
X17833039Y-8139698D02*
X17842563Y-8130174D01*
X17842563Y-8130174D02*
X17861611Y-8120650D01*
X17861611Y-8120650D02*
X17890182Y-8120650D01*
X17890182Y-8120650D02*
X17909230Y-8130174D01*
X17909230Y-8130174D02*
X17918753Y-8139698D01*
X17918753Y-8139698D02*
X17928277Y-8158746D01*
X17928277Y-8158746D02*
X17928277Y-8215888D01*
X17928277Y-8215888D02*
X17918753Y-8234936D01*
X17918753Y-8234936D02*
X17909230Y-8244460D01*
X17909230Y-8244460D02*
X17890182Y-8253984D01*
X17890182Y-8253984D02*
X17861611Y-8253984D01*
X18042563Y-8253984D02*
X18023515Y-8244460D01*
X18023515Y-8244460D02*
X18013992Y-8225412D01*
X18013992Y-8225412D02*
X18013992Y-8053984D01*
X18194944Y-8244460D02*
X18175896Y-8253984D01*
X18175896Y-8253984D02*
X18137801Y-8253984D01*
X18137801Y-8253984D02*
X18118753Y-8244460D01*
X18118753Y-8244460D02*
X18109230Y-8225412D01*
X18109230Y-8225412D02*
X18109230Y-8149222D01*
X18109230Y-8149222D02*
X18118753Y-8130174D01*
X18118753Y-8130174D02*
X18137801Y-8120650D01*
X18137801Y-8120650D02*
X18175896Y-8120650D01*
X18175896Y-8120650D02*
X18194944Y-8130174D01*
X18194944Y-8130174D02*
X18204468Y-8149222D01*
X18204468Y-8149222D02*
X18204468Y-8168269D01*
X18204468Y-8168269D02*
X18109230Y-8187317D01*
X18280658Y-8244460D02*
X18299706Y-8253984D01*
X18299706Y-8253984D02*
X18337801Y-8253984D01*
X18337801Y-8253984D02*
X18356849Y-8244460D01*
X18356849Y-8244460D02*
X18366373Y-8225412D01*
X18366373Y-8225412D02*
X18366373Y-8215888D01*
X18366373Y-8215888D02*
X18356849Y-8196841D01*
X18356849Y-8196841D02*
X18337801Y-8187317D01*
X18337801Y-8187317D02*
X18309230Y-8187317D01*
X18309230Y-8187317D02*
X18290182Y-8177793D01*
X18290182Y-8177793D02*
X18280658Y-8158746D01*
X18280658Y-8158746D02*
X18280658Y-8149222D01*
X18280658Y-8149222D02*
X18290182Y-8130174D01*
X18290182Y-8130174D02*
X18309230Y-8120650D01*
X18309230Y-8120650D02*
X18337801Y-8120650D01*
X18337801Y-8120650D02*
X18356849Y-8130174D01*
X18433039Y-8330174D02*
X18442563Y-8320650D01*
X18442563Y-8320650D02*
X18461611Y-8292079D01*
X18461611Y-8292079D02*
X18471134Y-8273031D01*
X18471134Y-8273031D02*
X18480658Y-8244460D01*
X18480658Y-8244460D02*
X18490182Y-8196841D01*
X18490182Y-8196841D02*
X18490182Y-8158746D01*
X18490182Y-8158746D02*
X18480658Y-8111127D01*
X18480658Y-8111127D02*
X18471134Y-8082555D01*
X18471134Y-8082555D02*
X18461611Y-8063508D01*
X18461611Y-8063508D02*
X18442563Y-8034936D01*
X18442563Y-8034936D02*
X18433039Y-8025412D01*
D12*
X13467500Y-8426500D02*
G75*
G02*
X13372500Y-8426500I-47500J0D01*
G01*
X13372500Y-8426500D02*
G75*
G02*
X13467500Y-8426500I47500J0D01*
G01*
D11*
X13766372Y-8317984D02*
X13785420Y-8317984D01*
X13785420Y-8317984D02*
X13804467Y-8327508D01*
X13804467Y-8327508D02*
X13813991Y-8337031D01*
X13813991Y-8337031D02*
X13823515Y-8356079D01*
X13823515Y-8356079D02*
X13833039Y-8394174D01*
X13833039Y-8394174D02*
X13833039Y-8441793D01*
X13833039Y-8441793D02*
X13823515Y-8479889D01*
X13823515Y-8479889D02*
X13813991Y-8498936D01*
X13813991Y-8498936D02*
X13804467Y-8508460D01*
X13804467Y-8508460D02*
X13785420Y-8517984D01*
X13785420Y-8517984D02*
X13766372Y-8517984D01*
X13766372Y-8517984D02*
X13747324Y-8508460D01*
X13747324Y-8508460D02*
X13737801Y-8498936D01*
X13737801Y-8498936D02*
X13728277Y-8479889D01*
X13728277Y-8479889D02*
X13718753Y-8441793D01*
X13718753Y-8441793D02*
X13718753Y-8394174D01*
X13718753Y-8394174D02*
X13728277Y-8356079D01*
X13728277Y-8356079D02*
X13737801Y-8337031D01*
X13737801Y-8337031D02*
X13747324Y-8327508D01*
X13747324Y-8327508D02*
X13766372Y-8317984D01*
X13918753Y-8498936D02*
X13928277Y-8508460D01*
X13928277Y-8508460D02*
X13918753Y-8517984D01*
X13918753Y-8517984D02*
X13909229Y-8508460D01*
X13909229Y-8508460D02*
X13918753Y-8498936D01*
X13918753Y-8498936D02*
X13918753Y-8517984D01*
X14023515Y-8517984D02*
X14061610Y-8517984D01*
X14061610Y-8517984D02*
X14080658Y-8508460D01*
X14080658Y-8508460D02*
X14090182Y-8498936D01*
X14090182Y-8498936D02*
X14109229Y-8470365D01*
X14109229Y-8470365D02*
X14118753Y-8432270D01*
X14118753Y-8432270D02*
X14118753Y-8356079D01*
X14118753Y-8356079D02*
X14109229Y-8337031D01*
X14109229Y-8337031D02*
X14099705Y-8327508D01*
X14099705Y-8327508D02*
X14080658Y-8317984D01*
X14080658Y-8317984D02*
X14042562Y-8317984D01*
X14042562Y-8317984D02*
X14023515Y-8327508D01*
X14023515Y-8327508D02*
X14013991Y-8337031D01*
X14013991Y-8337031D02*
X14004467Y-8356079D01*
X14004467Y-8356079D02*
X14004467Y-8403698D01*
X14004467Y-8403698D02*
X14013991Y-8422746D01*
X14013991Y-8422746D02*
X14023515Y-8432270D01*
X14023515Y-8432270D02*
X14042562Y-8441793D01*
X14042562Y-8441793D02*
X14080658Y-8441793D01*
X14080658Y-8441793D02*
X14099705Y-8432270D01*
X14099705Y-8432270D02*
X14109229Y-8422746D01*
X14109229Y-8422746D02*
X14118753Y-8403698D01*
X14299705Y-8317984D02*
X14204467Y-8317984D01*
X14204467Y-8317984D02*
X14194943Y-8413222D01*
X14194943Y-8413222D02*
X14204467Y-8403698D01*
X14204467Y-8403698D02*
X14223515Y-8394174D01*
X14223515Y-8394174D02*
X14271134Y-8394174D01*
X14271134Y-8394174D02*
X14290182Y-8403698D01*
X14290182Y-8403698D02*
X14299705Y-8413222D01*
X14299705Y-8413222D02*
X14309229Y-8432270D01*
X14309229Y-8432270D02*
X14309229Y-8479889D01*
X14309229Y-8479889D02*
X14299705Y-8498936D01*
X14299705Y-8498936D02*
X14290182Y-8508460D01*
X14290182Y-8508460D02*
X14271134Y-8517984D01*
X14271134Y-8517984D02*
X14223515Y-8517984D01*
X14223515Y-8517984D02*
X14204467Y-8508460D01*
X14204467Y-8508460D02*
X14194943Y-8498936D01*
X14433039Y-8317984D02*
X14452086Y-8317984D01*
X14452086Y-8317984D02*
X14471134Y-8327508D01*
X14471134Y-8327508D02*
X14480658Y-8337031D01*
X14480658Y-8337031D02*
X14490182Y-8356079D01*
X14490182Y-8356079D02*
X14499705Y-8394174D01*
X14499705Y-8394174D02*
X14499705Y-8441793D01*
X14499705Y-8441793D02*
X14490182Y-8479889D01*
X14490182Y-8479889D02*
X14480658Y-8498936D01*
X14480658Y-8498936D02*
X14471134Y-8508460D01*
X14471134Y-8508460D02*
X14452086Y-8517984D01*
X14452086Y-8517984D02*
X14433039Y-8517984D01*
X14433039Y-8517984D02*
X14413991Y-8508460D01*
X14413991Y-8508460D02*
X14404467Y-8498936D01*
X14404467Y-8498936D02*
X14394943Y-8479889D01*
X14394943Y-8479889D02*
X14385420Y-8441793D01*
X14385420Y-8441793D02*
X14385420Y-8394174D01*
X14385420Y-8394174D02*
X14394943Y-8356079D01*
X14394943Y-8356079D02*
X14404467Y-8337031D01*
X14404467Y-8337031D02*
X14413991Y-8327508D01*
X14413991Y-8327508D02*
X14433039Y-8317984D01*
X14585420Y-8517984D02*
X14585420Y-8384650D01*
X14585420Y-8403698D02*
X14594943Y-8394174D01*
X14594943Y-8394174D02*
X14613991Y-8384650D01*
X14613991Y-8384650D02*
X14642563Y-8384650D01*
X14642563Y-8384650D02*
X14661610Y-8394174D01*
X14661610Y-8394174D02*
X14671134Y-8413222D01*
X14671134Y-8413222D02*
X14671134Y-8517984D01*
X14671134Y-8413222D02*
X14680658Y-8394174D01*
X14680658Y-8394174D02*
X14699705Y-8384650D01*
X14699705Y-8384650D02*
X14728277Y-8384650D01*
X14728277Y-8384650D02*
X14747324Y-8394174D01*
X14747324Y-8394174D02*
X14756848Y-8413222D01*
X14756848Y-8413222D02*
X14756848Y-8517984D01*
X14852086Y-8517984D02*
X14852086Y-8384650D01*
X14852086Y-8403698D02*
X14861610Y-8394174D01*
X14861610Y-8394174D02*
X14880658Y-8384650D01*
X14880658Y-8384650D02*
X14909229Y-8384650D01*
X14909229Y-8384650D02*
X14928277Y-8394174D01*
X14928277Y-8394174D02*
X14937801Y-8413222D01*
X14937801Y-8413222D02*
X14937801Y-8517984D01*
X14937801Y-8413222D02*
X14947324Y-8394174D01*
X14947324Y-8394174D02*
X14966372Y-8384650D01*
X14966372Y-8384650D02*
X14994943Y-8384650D01*
X14994943Y-8384650D02*
X15013991Y-8394174D01*
X15013991Y-8394174D02*
X15023515Y-8413222D01*
X15023515Y-8413222D02*
X15023515Y-8517984D01*
X15413991Y-8308460D02*
X15242563Y-8565603D01*
X15671134Y-8317984D02*
X15690182Y-8317984D01*
X15690182Y-8317984D02*
X15709229Y-8327508D01*
X15709229Y-8327508D02*
X15718753Y-8337031D01*
X15718753Y-8337031D02*
X15728277Y-8356079D01*
X15728277Y-8356079D02*
X15737801Y-8394174D01*
X15737801Y-8394174D02*
X15737801Y-8441793D01*
X15737801Y-8441793D02*
X15728277Y-8479889D01*
X15728277Y-8479889D02*
X15718753Y-8498936D01*
X15718753Y-8498936D02*
X15709229Y-8508460D01*
X15709229Y-8508460D02*
X15690182Y-8517984D01*
X15690182Y-8517984D02*
X15671134Y-8517984D01*
X15671134Y-8517984D02*
X15652086Y-8508460D01*
X15652086Y-8508460D02*
X15642563Y-8498936D01*
X15642563Y-8498936D02*
X15633039Y-8479889D01*
X15633039Y-8479889D02*
X15623515Y-8441793D01*
X15623515Y-8441793D02*
X15623515Y-8394174D01*
X15623515Y-8394174D02*
X15633039Y-8356079D01*
X15633039Y-8356079D02*
X15642563Y-8337031D01*
X15642563Y-8337031D02*
X15652086Y-8327508D01*
X15652086Y-8327508D02*
X15671134Y-8317984D01*
X15823515Y-8498936D02*
X15833039Y-8508460D01*
X15833039Y-8508460D02*
X15823515Y-8517984D01*
X15823515Y-8517984D02*
X15813991Y-8508460D01*
X15813991Y-8508460D02*
X15823515Y-8498936D01*
X15823515Y-8498936D02*
X15823515Y-8517984D01*
X15956848Y-8317984D02*
X15975896Y-8317984D01*
X15975896Y-8317984D02*
X15994944Y-8327508D01*
X15994944Y-8327508D02*
X16004467Y-8337031D01*
X16004467Y-8337031D02*
X16013991Y-8356079D01*
X16013991Y-8356079D02*
X16023515Y-8394174D01*
X16023515Y-8394174D02*
X16023515Y-8441793D01*
X16023515Y-8441793D02*
X16013991Y-8479889D01*
X16013991Y-8479889D02*
X16004467Y-8498936D01*
X16004467Y-8498936D02*
X15994944Y-8508460D01*
X15994944Y-8508460D02*
X15975896Y-8517984D01*
X15975896Y-8517984D02*
X15956848Y-8517984D01*
X15956848Y-8517984D02*
X15937801Y-8508460D01*
X15937801Y-8508460D02*
X15928277Y-8498936D01*
X15928277Y-8498936D02*
X15918753Y-8479889D01*
X15918753Y-8479889D02*
X15909229Y-8441793D01*
X15909229Y-8441793D02*
X15909229Y-8394174D01*
X15909229Y-8394174D02*
X15918753Y-8356079D01*
X15918753Y-8356079D02*
X15928277Y-8337031D01*
X15928277Y-8337031D02*
X15937801Y-8327508D01*
X15937801Y-8327508D02*
X15956848Y-8317984D01*
X16090182Y-8317984D02*
X16213991Y-8317984D01*
X16213991Y-8317984D02*
X16147325Y-8394174D01*
X16147325Y-8394174D02*
X16175896Y-8394174D01*
X16175896Y-8394174D02*
X16194944Y-8403698D01*
X16194944Y-8403698D02*
X16204467Y-8413222D01*
X16204467Y-8413222D02*
X16213991Y-8432270D01*
X16213991Y-8432270D02*
X16213991Y-8479889D01*
X16213991Y-8479889D02*
X16204467Y-8498936D01*
X16204467Y-8498936D02*
X16194944Y-8508460D01*
X16194944Y-8508460D02*
X16175896Y-8517984D01*
X16175896Y-8517984D02*
X16118753Y-8517984D01*
X16118753Y-8517984D02*
X16099706Y-8508460D01*
X16099706Y-8508460D02*
X16090182Y-8498936D01*
X16280658Y-8317984D02*
X16413991Y-8317984D01*
X16413991Y-8317984D02*
X16328277Y-8517984D01*
X16575896Y-8384650D02*
X16575896Y-8517984D01*
X16528277Y-8308460D02*
X16480658Y-8451317D01*
X16480658Y-8451317D02*
X16604467Y-8451317D01*
X16671134Y-8317984D02*
X16671134Y-8356079D01*
X16747325Y-8317984D02*
X16747325Y-8356079D01*
X17042563Y-8594174D02*
X17033039Y-8584650D01*
X17033039Y-8584650D02*
X17013991Y-8556079D01*
X17013991Y-8556079D02*
X17004468Y-8537031D01*
X17004468Y-8537031D02*
X16994944Y-8508460D01*
X16994944Y-8508460D02*
X16985420Y-8460841D01*
X16985420Y-8460841D02*
X16985420Y-8422746D01*
X16985420Y-8422746D02*
X16994944Y-8375127D01*
X16994944Y-8375127D02*
X17004468Y-8346555D01*
X17004468Y-8346555D02*
X17013991Y-8327508D01*
X17013991Y-8327508D02*
X17033039Y-8298936D01*
X17033039Y-8298936D02*
X17042563Y-8289412D01*
X17213991Y-8317984D02*
X17118753Y-8317984D01*
X17118753Y-8317984D02*
X17109230Y-8413222D01*
X17109230Y-8413222D02*
X17118753Y-8403698D01*
X17118753Y-8403698D02*
X17137801Y-8394174D01*
X17137801Y-8394174D02*
X17185420Y-8394174D01*
X17185420Y-8394174D02*
X17204468Y-8403698D01*
X17204468Y-8403698D02*
X17213991Y-8413222D01*
X17213991Y-8413222D02*
X17223515Y-8432270D01*
X17223515Y-8432270D02*
X17223515Y-8479889D01*
X17223515Y-8479889D02*
X17213991Y-8498936D01*
X17213991Y-8498936D02*
X17204468Y-8508460D01*
X17204468Y-8508460D02*
X17185420Y-8517984D01*
X17185420Y-8517984D02*
X17137801Y-8517984D01*
X17137801Y-8517984D02*
X17118753Y-8508460D01*
X17118753Y-8508460D02*
X17109230Y-8498936D01*
X17461611Y-8517984D02*
X17461611Y-8317984D01*
X17547325Y-8517984D02*
X17547325Y-8413222D01*
X17547325Y-8413222D02*
X17537801Y-8394174D01*
X17537801Y-8394174D02*
X17518753Y-8384650D01*
X17518753Y-8384650D02*
X17490182Y-8384650D01*
X17490182Y-8384650D02*
X17471134Y-8394174D01*
X17471134Y-8394174D02*
X17461611Y-8403698D01*
X17671134Y-8517984D02*
X17652087Y-8508460D01*
X17652087Y-8508460D02*
X17642563Y-8498936D01*
X17642563Y-8498936D02*
X17633039Y-8479889D01*
X17633039Y-8479889D02*
X17633039Y-8422746D01*
X17633039Y-8422746D02*
X17642563Y-8403698D01*
X17642563Y-8403698D02*
X17652087Y-8394174D01*
X17652087Y-8394174D02*
X17671134Y-8384650D01*
X17671134Y-8384650D02*
X17699706Y-8384650D01*
X17699706Y-8384650D02*
X17718753Y-8394174D01*
X17718753Y-8394174D02*
X17728277Y-8403698D01*
X17728277Y-8403698D02*
X17737801Y-8422746D01*
X17737801Y-8422746D02*
X17737801Y-8479889D01*
X17737801Y-8479889D02*
X17728277Y-8498936D01*
X17728277Y-8498936D02*
X17718753Y-8508460D01*
X17718753Y-8508460D02*
X17699706Y-8517984D01*
X17699706Y-8517984D02*
X17671134Y-8517984D01*
X17852087Y-8517984D02*
X17833039Y-8508460D01*
X17833039Y-8508460D02*
X17823515Y-8489412D01*
X17823515Y-8489412D02*
X17823515Y-8317984D01*
X18004468Y-8508460D02*
X17985420Y-8517984D01*
X17985420Y-8517984D02*
X17947325Y-8517984D01*
X17947325Y-8517984D02*
X17928277Y-8508460D01*
X17928277Y-8508460D02*
X17918753Y-8489412D01*
X17918753Y-8489412D02*
X17918753Y-8413222D01*
X17918753Y-8413222D02*
X17928277Y-8394174D01*
X17928277Y-8394174D02*
X17947325Y-8384650D01*
X17947325Y-8384650D02*
X17985420Y-8384650D01*
X17985420Y-8384650D02*
X18004468Y-8394174D01*
X18004468Y-8394174D02*
X18013992Y-8413222D01*
X18013992Y-8413222D02*
X18013992Y-8432270D01*
X18013992Y-8432270D02*
X17918753Y-8451317D01*
X18090182Y-8508460D02*
X18109230Y-8517984D01*
X18109230Y-8517984D02*
X18147325Y-8517984D01*
X18147325Y-8517984D02*
X18166373Y-8508460D01*
X18166373Y-8508460D02*
X18175896Y-8489412D01*
X18175896Y-8489412D02*
X18175896Y-8479889D01*
X18175896Y-8479889D02*
X18166373Y-8460841D01*
X18166373Y-8460841D02*
X18147325Y-8451317D01*
X18147325Y-8451317D02*
X18118753Y-8451317D01*
X18118753Y-8451317D02*
X18099706Y-8441793D01*
X18099706Y-8441793D02*
X18090182Y-8422746D01*
X18090182Y-8422746D02*
X18090182Y-8413222D01*
X18090182Y-8413222D02*
X18099706Y-8394174D01*
X18099706Y-8394174D02*
X18118753Y-8384650D01*
X18118753Y-8384650D02*
X18147325Y-8384650D01*
X18147325Y-8384650D02*
X18166373Y-8394174D01*
X18242563Y-8594174D02*
X18252087Y-8584650D01*
X18252087Y-8584650D02*
X18271134Y-8556079D01*
X18271134Y-8556079D02*
X18280658Y-8537031D01*
X18280658Y-8537031D02*
X18290182Y-8508460D01*
X18290182Y-8508460D02*
X18299706Y-8460841D01*
X18299706Y-8460841D02*
X18299706Y-8422746D01*
X18299706Y-8422746D02*
X18290182Y-8375127D01*
X18290182Y-8375127D02*
X18280658Y-8346555D01*
X18280658Y-8346555D02*
X18271134Y-8327508D01*
X18271134Y-8327508D02*
X18252087Y-8298936D01*
X18252087Y-8298936D02*
X18242563Y-8289412D01*
D12*
X13417500Y-8640500D02*
X13417500Y-8740500D01*
X13367500Y-8690500D02*
X13467500Y-8690500D01*
D11*
X13833039Y-8781984D02*
X13718753Y-8781984D01*
X13775896Y-8781984D02*
X13775896Y-8581984D01*
X13775896Y-8581984D02*
X13756848Y-8610555D01*
X13756848Y-8610555D02*
X13737801Y-8629603D01*
X13737801Y-8629603D02*
X13718753Y-8639127D01*
X13918753Y-8762936D02*
X13928277Y-8772460D01*
X13928277Y-8772460D02*
X13918753Y-8781984D01*
X13918753Y-8781984D02*
X13909229Y-8772460D01*
X13909229Y-8772460D02*
X13918753Y-8762936D01*
X13918753Y-8762936D02*
X13918753Y-8781984D01*
X14052086Y-8581984D02*
X14071134Y-8581984D01*
X14071134Y-8581984D02*
X14090182Y-8591508D01*
X14090182Y-8591508D02*
X14099705Y-8601031D01*
X14099705Y-8601031D02*
X14109229Y-8620079D01*
X14109229Y-8620079D02*
X14118753Y-8658174D01*
X14118753Y-8658174D02*
X14118753Y-8705793D01*
X14118753Y-8705793D02*
X14109229Y-8743889D01*
X14109229Y-8743889D02*
X14099705Y-8762936D01*
X14099705Y-8762936D02*
X14090182Y-8772460D01*
X14090182Y-8772460D02*
X14071134Y-8781984D01*
X14071134Y-8781984D02*
X14052086Y-8781984D01*
X14052086Y-8781984D02*
X14033039Y-8772460D01*
X14033039Y-8772460D02*
X14023515Y-8762936D01*
X14023515Y-8762936D02*
X14013991Y-8743889D01*
X14013991Y-8743889D02*
X14004467Y-8705793D01*
X14004467Y-8705793D02*
X14004467Y-8658174D01*
X14004467Y-8658174D02*
X14013991Y-8620079D01*
X14013991Y-8620079D02*
X14023515Y-8601031D01*
X14023515Y-8601031D02*
X14033039Y-8591508D01*
X14033039Y-8591508D02*
X14052086Y-8581984D01*
X14242562Y-8581984D02*
X14261610Y-8581984D01*
X14261610Y-8581984D02*
X14280658Y-8591508D01*
X14280658Y-8591508D02*
X14290182Y-8601031D01*
X14290182Y-8601031D02*
X14299705Y-8620079D01*
X14299705Y-8620079D02*
X14309229Y-8658174D01*
X14309229Y-8658174D02*
X14309229Y-8705793D01*
X14309229Y-8705793D02*
X14299705Y-8743889D01*
X14299705Y-8743889D02*
X14290182Y-8762936D01*
X14290182Y-8762936D02*
X14280658Y-8772460D01*
X14280658Y-8772460D02*
X14261610Y-8781984D01*
X14261610Y-8781984D02*
X14242562Y-8781984D01*
X14242562Y-8781984D02*
X14223515Y-8772460D01*
X14223515Y-8772460D02*
X14213991Y-8762936D01*
X14213991Y-8762936D02*
X14204467Y-8743889D01*
X14204467Y-8743889D02*
X14194943Y-8705793D01*
X14194943Y-8705793D02*
X14194943Y-8658174D01*
X14194943Y-8658174D02*
X14204467Y-8620079D01*
X14204467Y-8620079D02*
X14213991Y-8601031D01*
X14213991Y-8601031D02*
X14223515Y-8591508D01*
X14223515Y-8591508D02*
X14242562Y-8581984D01*
X14433039Y-8581984D02*
X14452086Y-8581984D01*
X14452086Y-8581984D02*
X14471134Y-8591508D01*
X14471134Y-8591508D02*
X14480658Y-8601031D01*
X14480658Y-8601031D02*
X14490182Y-8620079D01*
X14490182Y-8620079D02*
X14499705Y-8658174D01*
X14499705Y-8658174D02*
X14499705Y-8705793D01*
X14499705Y-8705793D02*
X14490182Y-8743889D01*
X14490182Y-8743889D02*
X14480658Y-8762936D01*
X14480658Y-8762936D02*
X14471134Y-8772460D01*
X14471134Y-8772460D02*
X14452086Y-8781984D01*
X14452086Y-8781984D02*
X14433039Y-8781984D01*
X14433039Y-8781984D02*
X14413991Y-8772460D01*
X14413991Y-8772460D02*
X14404467Y-8762936D01*
X14404467Y-8762936D02*
X14394943Y-8743889D01*
X14394943Y-8743889D02*
X14385420Y-8705793D01*
X14385420Y-8705793D02*
X14385420Y-8658174D01*
X14385420Y-8658174D02*
X14394943Y-8620079D01*
X14394943Y-8620079D02*
X14404467Y-8601031D01*
X14404467Y-8601031D02*
X14413991Y-8591508D01*
X14413991Y-8591508D02*
X14433039Y-8581984D01*
X14585420Y-8781984D02*
X14585420Y-8648650D01*
X14585420Y-8667698D02*
X14594943Y-8658174D01*
X14594943Y-8658174D02*
X14613991Y-8648650D01*
X14613991Y-8648650D02*
X14642563Y-8648650D01*
X14642563Y-8648650D02*
X14661610Y-8658174D01*
X14661610Y-8658174D02*
X14671134Y-8677222D01*
X14671134Y-8677222D02*
X14671134Y-8781984D01*
X14671134Y-8677222D02*
X14680658Y-8658174D01*
X14680658Y-8658174D02*
X14699705Y-8648650D01*
X14699705Y-8648650D02*
X14728277Y-8648650D01*
X14728277Y-8648650D02*
X14747324Y-8658174D01*
X14747324Y-8658174D02*
X14756848Y-8677222D01*
X14756848Y-8677222D02*
X14756848Y-8781984D01*
X14852086Y-8781984D02*
X14852086Y-8648650D01*
X14852086Y-8667698D02*
X14861610Y-8658174D01*
X14861610Y-8658174D02*
X14880658Y-8648650D01*
X14880658Y-8648650D02*
X14909229Y-8648650D01*
X14909229Y-8648650D02*
X14928277Y-8658174D01*
X14928277Y-8658174D02*
X14937801Y-8677222D01*
X14937801Y-8677222D02*
X14937801Y-8781984D01*
X14937801Y-8677222D02*
X14947324Y-8658174D01*
X14947324Y-8658174D02*
X14966372Y-8648650D01*
X14966372Y-8648650D02*
X14994943Y-8648650D01*
X14994943Y-8648650D02*
X15013991Y-8658174D01*
X15013991Y-8658174D02*
X15023515Y-8677222D01*
X15023515Y-8677222D02*
X15023515Y-8781984D01*
X15413991Y-8572460D02*
X15242563Y-8829603D01*
X15671134Y-8581984D02*
X15690182Y-8581984D01*
X15690182Y-8581984D02*
X15709229Y-8591508D01*
X15709229Y-8591508D02*
X15718753Y-8601031D01*
X15718753Y-8601031D02*
X15728277Y-8620079D01*
X15728277Y-8620079D02*
X15737801Y-8658174D01*
X15737801Y-8658174D02*
X15737801Y-8705793D01*
X15737801Y-8705793D02*
X15728277Y-8743889D01*
X15728277Y-8743889D02*
X15718753Y-8762936D01*
X15718753Y-8762936D02*
X15709229Y-8772460D01*
X15709229Y-8772460D02*
X15690182Y-8781984D01*
X15690182Y-8781984D02*
X15671134Y-8781984D01*
X15671134Y-8781984D02*
X15652086Y-8772460D01*
X15652086Y-8772460D02*
X15642563Y-8762936D01*
X15642563Y-8762936D02*
X15633039Y-8743889D01*
X15633039Y-8743889D02*
X15623515Y-8705793D01*
X15623515Y-8705793D02*
X15623515Y-8658174D01*
X15623515Y-8658174D02*
X15633039Y-8620079D01*
X15633039Y-8620079D02*
X15642563Y-8601031D01*
X15642563Y-8601031D02*
X15652086Y-8591508D01*
X15652086Y-8591508D02*
X15671134Y-8581984D01*
X15823515Y-8762936D02*
X15833039Y-8772460D01*
X15833039Y-8772460D02*
X15823515Y-8781984D01*
X15823515Y-8781984D02*
X15813991Y-8772460D01*
X15813991Y-8772460D02*
X15823515Y-8762936D01*
X15823515Y-8762936D02*
X15823515Y-8781984D01*
X15956848Y-8581984D02*
X15975896Y-8581984D01*
X15975896Y-8581984D02*
X15994944Y-8591508D01*
X15994944Y-8591508D02*
X16004467Y-8601031D01*
X16004467Y-8601031D02*
X16013991Y-8620079D01*
X16013991Y-8620079D02*
X16023515Y-8658174D01*
X16023515Y-8658174D02*
X16023515Y-8705793D01*
X16023515Y-8705793D02*
X16013991Y-8743889D01*
X16013991Y-8743889D02*
X16004467Y-8762936D01*
X16004467Y-8762936D02*
X15994944Y-8772460D01*
X15994944Y-8772460D02*
X15975896Y-8781984D01*
X15975896Y-8781984D02*
X15956848Y-8781984D01*
X15956848Y-8781984D02*
X15937801Y-8772460D01*
X15937801Y-8772460D02*
X15928277Y-8762936D01*
X15928277Y-8762936D02*
X15918753Y-8743889D01*
X15918753Y-8743889D02*
X15909229Y-8705793D01*
X15909229Y-8705793D02*
X15909229Y-8658174D01*
X15909229Y-8658174D02*
X15918753Y-8620079D01*
X15918753Y-8620079D02*
X15928277Y-8601031D01*
X15928277Y-8601031D02*
X15937801Y-8591508D01*
X15937801Y-8591508D02*
X15956848Y-8581984D01*
X16090182Y-8581984D02*
X16213991Y-8581984D01*
X16213991Y-8581984D02*
X16147325Y-8658174D01*
X16147325Y-8658174D02*
X16175896Y-8658174D01*
X16175896Y-8658174D02*
X16194944Y-8667698D01*
X16194944Y-8667698D02*
X16204467Y-8677222D01*
X16204467Y-8677222D02*
X16213991Y-8696270D01*
X16213991Y-8696270D02*
X16213991Y-8743889D01*
X16213991Y-8743889D02*
X16204467Y-8762936D01*
X16204467Y-8762936D02*
X16194944Y-8772460D01*
X16194944Y-8772460D02*
X16175896Y-8781984D01*
X16175896Y-8781984D02*
X16118753Y-8781984D01*
X16118753Y-8781984D02*
X16099706Y-8772460D01*
X16099706Y-8772460D02*
X16090182Y-8762936D01*
X16309229Y-8781984D02*
X16347325Y-8781984D01*
X16347325Y-8781984D02*
X16366372Y-8772460D01*
X16366372Y-8772460D02*
X16375896Y-8762936D01*
X16375896Y-8762936D02*
X16394944Y-8734365D01*
X16394944Y-8734365D02*
X16404467Y-8696270D01*
X16404467Y-8696270D02*
X16404467Y-8620079D01*
X16404467Y-8620079D02*
X16394944Y-8601031D01*
X16394944Y-8601031D02*
X16385420Y-8591508D01*
X16385420Y-8591508D02*
X16366372Y-8581984D01*
X16366372Y-8581984D02*
X16328277Y-8581984D01*
X16328277Y-8581984D02*
X16309229Y-8591508D01*
X16309229Y-8591508D02*
X16299706Y-8601031D01*
X16299706Y-8601031D02*
X16290182Y-8620079D01*
X16290182Y-8620079D02*
X16290182Y-8667698D01*
X16290182Y-8667698D02*
X16299706Y-8686746D01*
X16299706Y-8686746D02*
X16309229Y-8696270D01*
X16309229Y-8696270D02*
X16328277Y-8705793D01*
X16328277Y-8705793D02*
X16366372Y-8705793D01*
X16366372Y-8705793D02*
X16385420Y-8696270D01*
X16385420Y-8696270D02*
X16394944Y-8686746D01*
X16394944Y-8686746D02*
X16404467Y-8667698D01*
X16575896Y-8648650D02*
X16575896Y-8781984D01*
X16528277Y-8572460D02*
X16480658Y-8715317D01*
X16480658Y-8715317D02*
X16604467Y-8715317D01*
X16671134Y-8581984D02*
X16671134Y-8620079D01*
X16747325Y-8581984D02*
X16747325Y-8620079D01*
X17042563Y-8858174D02*
X17033039Y-8848650D01*
X17033039Y-8848650D02*
X17013991Y-8820079D01*
X17013991Y-8820079D02*
X17004468Y-8801031D01*
X17004468Y-8801031D02*
X16994944Y-8772460D01*
X16994944Y-8772460D02*
X16985420Y-8724841D01*
X16985420Y-8724841D02*
X16985420Y-8686746D01*
X16985420Y-8686746D02*
X16994944Y-8639127D01*
X16994944Y-8639127D02*
X17004468Y-8610555D01*
X17004468Y-8610555D02*
X17013991Y-8591508D01*
X17013991Y-8591508D02*
X17033039Y-8562936D01*
X17033039Y-8562936D02*
X17042563Y-8553412D01*
X17223515Y-8781984D02*
X17109230Y-8781984D01*
X17166372Y-8781984D02*
X17166372Y-8581984D01*
X17166372Y-8581984D02*
X17147325Y-8610555D01*
X17147325Y-8610555D02*
X17128277Y-8629603D01*
X17128277Y-8629603D02*
X17109230Y-8639127D01*
X17394944Y-8581984D02*
X17356849Y-8581984D01*
X17356849Y-8581984D02*
X17337801Y-8591508D01*
X17337801Y-8591508D02*
X17328277Y-8601031D01*
X17328277Y-8601031D02*
X17309230Y-8629603D01*
X17309230Y-8629603D02*
X17299706Y-8667698D01*
X17299706Y-8667698D02*
X17299706Y-8743889D01*
X17299706Y-8743889D02*
X17309230Y-8762936D01*
X17309230Y-8762936D02*
X17318753Y-8772460D01*
X17318753Y-8772460D02*
X17337801Y-8781984D01*
X17337801Y-8781984D02*
X17375896Y-8781984D01*
X17375896Y-8781984D02*
X17394944Y-8772460D01*
X17394944Y-8772460D02*
X17404468Y-8762936D01*
X17404468Y-8762936D02*
X17413991Y-8743889D01*
X17413991Y-8743889D02*
X17413991Y-8696270D01*
X17413991Y-8696270D02*
X17404468Y-8677222D01*
X17404468Y-8677222D02*
X17394944Y-8667698D01*
X17394944Y-8667698D02*
X17375896Y-8658174D01*
X17375896Y-8658174D02*
X17337801Y-8658174D01*
X17337801Y-8658174D02*
X17318753Y-8667698D01*
X17318753Y-8667698D02*
X17309230Y-8677222D01*
X17309230Y-8677222D02*
X17299706Y-8696270D01*
X17652087Y-8781984D02*
X17652087Y-8581984D01*
X17737801Y-8781984D02*
X17737801Y-8677222D01*
X17737801Y-8677222D02*
X17728277Y-8658174D01*
X17728277Y-8658174D02*
X17709230Y-8648650D01*
X17709230Y-8648650D02*
X17680658Y-8648650D01*
X17680658Y-8648650D02*
X17661611Y-8658174D01*
X17661611Y-8658174D02*
X17652087Y-8667698D01*
X17861611Y-8781984D02*
X17842563Y-8772460D01*
X17842563Y-8772460D02*
X17833039Y-8762936D01*
X17833039Y-8762936D02*
X17823515Y-8743889D01*
X17823515Y-8743889D02*
X17823515Y-8686746D01*
X17823515Y-8686746D02*
X17833039Y-8667698D01*
X17833039Y-8667698D02*
X17842563Y-8658174D01*
X17842563Y-8658174D02*
X17861611Y-8648650D01*
X17861611Y-8648650D02*
X17890182Y-8648650D01*
X17890182Y-8648650D02*
X17909230Y-8658174D01*
X17909230Y-8658174D02*
X17918753Y-8667698D01*
X17918753Y-8667698D02*
X17928277Y-8686746D01*
X17928277Y-8686746D02*
X17928277Y-8743889D01*
X17928277Y-8743889D02*
X17918753Y-8762936D01*
X17918753Y-8762936D02*
X17909230Y-8772460D01*
X17909230Y-8772460D02*
X17890182Y-8781984D01*
X17890182Y-8781984D02*
X17861611Y-8781984D01*
X18042563Y-8781984D02*
X18023515Y-8772460D01*
X18023515Y-8772460D02*
X18013992Y-8753412D01*
X18013992Y-8753412D02*
X18013992Y-8581984D01*
X18194944Y-8772460D02*
X18175896Y-8781984D01*
X18175896Y-8781984D02*
X18137801Y-8781984D01*
X18137801Y-8781984D02*
X18118753Y-8772460D01*
X18118753Y-8772460D02*
X18109230Y-8753412D01*
X18109230Y-8753412D02*
X18109230Y-8677222D01*
X18109230Y-8677222D02*
X18118753Y-8658174D01*
X18118753Y-8658174D02*
X18137801Y-8648650D01*
X18137801Y-8648650D02*
X18175896Y-8648650D01*
X18175896Y-8648650D02*
X18194944Y-8658174D01*
X18194944Y-8658174D02*
X18204468Y-8677222D01*
X18204468Y-8677222D02*
X18204468Y-8696270D01*
X18204468Y-8696270D02*
X18109230Y-8715317D01*
X18280658Y-8772460D02*
X18299706Y-8781984D01*
X18299706Y-8781984D02*
X18337801Y-8781984D01*
X18337801Y-8781984D02*
X18356849Y-8772460D01*
X18356849Y-8772460D02*
X18366373Y-8753412D01*
X18366373Y-8753412D02*
X18366373Y-8743889D01*
X18366373Y-8743889D02*
X18356849Y-8724841D01*
X18356849Y-8724841D02*
X18337801Y-8715317D01*
X18337801Y-8715317D02*
X18309230Y-8715317D01*
X18309230Y-8715317D02*
X18290182Y-8705793D01*
X18290182Y-8705793D02*
X18280658Y-8686746D01*
X18280658Y-8686746D02*
X18280658Y-8677222D01*
X18280658Y-8677222D02*
X18290182Y-8658174D01*
X18290182Y-8658174D02*
X18309230Y-8648650D01*
X18309230Y-8648650D02*
X18337801Y-8648650D01*
X18337801Y-8648650D02*
X18356849Y-8658174D01*
X18433039Y-8858174D02*
X18442563Y-8848650D01*
X18442563Y-8848650D02*
X18461611Y-8820079D01*
X18461611Y-8820079D02*
X18471134Y-8801031D01*
X18471134Y-8801031D02*
X18480658Y-8772460D01*
X18480658Y-8772460D02*
X18490182Y-8724841D01*
X18490182Y-8724841D02*
X18490182Y-8686746D01*
X18490182Y-8686746D02*
X18480658Y-8639127D01*
X18480658Y-8639127D02*
X18471134Y-8610555D01*
X18471134Y-8610555D02*
X18461611Y-8591508D01*
X18461611Y-8591508D02*
X18442563Y-8562936D01*
X18442563Y-8562936D02*
X18433039Y-8553412D01*
M02*
