%TF.GenerationSoftware,KiCad,Pcbnew,8.0.5*%
%TF.CreationDate,2024-12-01T15:07:37+09:00*%
%TF.ProjectId,PCA9685_ver4,50434139-3638-4355-9f76-6572342e6b69,rev?*%
%TF.SameCoordinates,Original*%
%TF.FileFunction,Copper,L1,Top*%
%TF.FilePolarity,Positive*%
%FSLAX46Y46*%
G04 Gerber Fmt 4.6, Leading zero omitted, Abs format (unit mm)*
G04 Created by KiCad (PCBNEW 8.0.5) date 2024-12-01 15:07:37*
%MOMM*%
%LPD*%
G01*
G04 APERTURE LIST*
G04 Aperture macros list*
%AMRoundRect*
0 Rectangle with rounded corners*
0 $1 Rounding radius*
0 $2 $3 $4 $5 $6 $7 $8 $9 X,Y pos of 4 corners*
0 Add a 4 corners polygon primitive as box body*
4,1,4,$2,$3,$4,$5,$6,$7,$8,$9,$2,$3,0*
0 Add four circle primitives for the rounded corners*
1,1,$1+$1,$2,$3*
1,1,$1+$1,$4,$5*
1,1,$1+$1,$6,$7*
1,1,$1+$1,$8,$9*
0 Add four rect primitives between the rounded corners*
20,1,$1+$1,$2,$3,$4,$5,0*
20,1,$1+$1,$4,$5,$6,$7,0*
20,1,$1+$1,$6,$7,$8,$9,0*
20,1,$1+$1,$8,$9,$2,$3,0*%
%AMFreePoly0*
4,1,153,0.406581,1.004743,0.408810,1.004000,0.410000,1.004000,0.411581,1.003743,0.413810,1.003000,0.415000,1.003000,0.416581,1.002743,0.419581,1.001743,0.420236,1.001472,0.421920,1.000630,0.424581,0.999743,0.426536,0.998536,0.427964,0.997108,0.429236,0.996472,0.430536,0.995536,0.431964,0.994108,0.433236,0.993472,0.434536,0.992536,0.442536,0.984536,0.443472,0.983236,
0.444108,0.981964,0.445536,0.980536,0.446472,0.979236,0.447108,0.977964,0.448536,0.976536,0.449743,0.974581,0.450630,0.971920,0.451472,0.970236,0.451743,0.969581,0.452743,0.966581,0.453000,0.965000,0.453000,0.963810,0.453743,0.961581,0.454000,0.960000,0.454000,0.958810,0.454743,0.956581,0.455000,0.955000,0.455000,-0.955000,0.454743,-0.956581,0.454000,-0.958810,
0.454000,-0.960000,0.453743,-0.961581,0.453000,-0.963810,0.453000,-0.965000,0.452743,-0.966581,0.451743,-0.969581,0.451472,-0.970236,0.450630,-0.971920,0.449743,-0.974581,0.448536,-0.976536,0.447108,-0.977964,0.446472,-0.979236,0.445536,-0.980536,0.444108,-0.981964,0.443472,-0.983236,0.442536,-0.984536,0.434536,-0.992536,0.433236,-0.993472,0.431964,-0.994108,0.430536,-0.995536,
0.429236,-0.996472,0.427964,-0.997108,0.426536,-0.998536,0.424581,-0.999743,0.421920,-1.000630,0.420236,-1.001472,0.419581,-1.001743,0.416581,-1.002743,0.415000,-1.003000,0.413810,-1.003000,0.411581,-1.003743,0.410000,-1.004000,0.408810,-1.004000,0.406581,-1.004743,0.405000,-1.005000,-0.405000,-1.005000,-0.406581,-1.004743,-0.408810,-1.004000,-0.410000,-1.004000,-0.411581,-1.003743,
-0.413810,-1.003000,-0.415000,-1.003000,-0.416581,-1.002743,-0.419581,-1.001743,-0.420236,-1.001472,-0.421920,-1.000630,-0.424581,-0.999743,-0.426536,-0.998536,-0.427964,-0.997108,-0.429236,-0.996472,-0.430536,-0.995536,-0.431964,-0.994108,-0.433236,-0.993472,-0.434536,-0.992536,-0.442536,-0.984536,-0.443472,-0.983236,-0.444108,-0.981964,-0.445536,-0.980536,-0.446472,-0.979236,-0.447108,-0.977964,
-0.448536,-0.976536,-0.449743,-0.974581,-0.450630,-0.971920,-0.451472,-0.970236,-0.451743,-0.969581,-0.452743,-0.966581,-0.453000,-0.965000,-0.453000,-0.963810,-0.453743,-0.961581,-0.454000,-0.960000,-0.454000,-0.958810,-0.454743,-0.956581,-0.455000,-0.955000,-0.455000,0.955000,-0.454743,0.956581,-0.454000,0.958810,-0.454000,0.960000,-0.453743,0.961581,-0.453000,0.963810,-0.453000,0.965000,
-0.452743,0.966581,-0.451743,0.969581,-0.451472,0.970236,-0.450630,0.971920,-0.449743,0.974581,-0.448536,0.976536,-0.447108,0.977964,-0.446472,0.979236,-0.445536,0.980536,-0.444108,0.981964,-0.443472,0.983236,-0.442536,0.984536,-0.434536,0.992536,-0.433236,0.993472,-0.431964,0.994108,-0.430536,0.995536,-0.429236,0.996472,-0.427964,0.997108,-0.426536,0.998536,-0.424581,0.999743,
-0.421920,1.000630,-0.420236,1.001472,-0.419581,1.001743,-0.416581,1.002743,-0.415000,1.003000,-0.413810,1.003000,-0.411581,1.003743,-0.410000,1.004000,-0.408810,1.004000,-0.406581,1.004743,-0.405000,1.005000,0.405000,1.005000,0.406581,1.004743,0.406581,1.004743,$1*%
G04 Aperture macros list end*
%TA.AperFunction,SMDPad,CuDef*%
%ADD10R,0.800000X0.600000*%
%TD*%
%TA.AperFunction,SMDPad,CuDef*%
%ADD11RoundRect,0.250000X0.262500X0.450000X-0.262500X0.450000X-0.262500X-0.450000X0.262500X-0.450000X0*%
%TD*%
%TA.AperFunction,SMDPad,CuDef*%
%ADD12RoundRect,0.135000X-0.135000X-0.185000X0.135000X-0.185000X0.135000X0.185000X-0.135000X0.185000X0*%
%TD*%
%TA.AperFunction,SMDPad,CuDef*%
%ADD13RoundRect,0.050000X-0.200000X-0.075000X0.200000X-0.075000X0.200000X0.075000X-0.200000X0.075000X0*%
%TD*%
%TA.AperFunction,SMDPad,CuDef*%
%ADD14FreePoly0,0.000000*%
%TD*%
%TA.AperFunction,SMDPad,CuDef*%
%ADD15RoundRect,0.135000X0.135000X0.185000X-0.135000X0.185000X-0.135000X-0.185000X0.135000X-0.185000X0*%
%TD*%
%TA.AperFunction,ComponentPad*%
%ADD16R,1.700000X1.700000*%
%TD*%
%TA.AperFunction,ComponentPad*%
%ADD17O,1.700000X1.700000*%
%TD*%
%TA.AperFunction,SMDPad,CuDef*%
%ADD18RoundRect,0.050000X0.200000X0.075000X-0.200000X0.075000X-0.200000X-0.075000X0.200000X-0.075000X0*%
%TD*%
%TA.AperFunction,SMDPad,CuDef*%
%ADD19FreePoly0,180.000000*%
%TD*%
%TA.AperFunction,SMDPad,CuDef*%
%ADD20RoundRect,0.140000X-0.140000X-0.170000X0.140000X-0.170000X0.140000X0.170000X-0.140000X0.170000X0*%
%TD*%
%TA.AperFunction,SMDPad,CuDef*%
%ADD21RoundRect,0.140000X0.170000X-0.140000X0.170000X0.140000X-0.170000X0.140000X-0.170000X-0.140000X0*%
%TD*%
%TA.AperFunction,SMDPad,CuDef*%
%ADD22RoundRect,0.100000X-0.637500X-0.100000X0.637500X-0.100000X0.637500X0.100000X-0.637500X0.100000X0*%
%TD*%
%TA.AperFunction,SMDPad,CuDef*%
%ADD23RoundRect,0.140000X0.140000X0.170000X-0.140000X0.170000X-0.140000X-0.170000X0.140000X-0.170000X0*%
%TD*%
%TA.AperFunction,SMDPad,CuDef*%
%ADD24RoundRect,0.062500X0.062500X-0.350000X0.062500X0.350000X-0.062500X0.350000X-0.062500X-0.350000X0*%
%TD*%
%TA.AperFunction,SMDPad,CuDef*%
%ADD25RoundRect,0.062500X0.350000X-0.062500X0.350000X0.062500X-0.350000X0.062500X-0.350000X-0.062500X0*%
%TD*%
%TA.AperFunction,HeatsinkPad*%
%ADD26R,2.600000X2.600000*%
%TD*%
%TA.AperFunction,ComponentPad*%
%ADD27RoundRect,0.250000X-0.600000X-0.725000X0.600000X-0.725000X0.600000X0.725000X-0.600000X0.725000X0*%
%TD*%
%TA.AperFunction,ComponentPad*%
%ADD28O,1.700000X1.950000*%
%TD*%
%TA.AperFunction,SMDPad,CuDef*%
%ADD29RoundRect,0.250000X-0.475000X0.250000X-0.475000X-0.250000X0.475000X-0.250000X0.475000X0.250000X0*%
%TD*%
%TA.AperFunction,ViaPad*%
%ADD30C,0.600000*%
%TD*%
%TA.AperFunction,Conductor*%
%ADD31C,0.200000*%
%TD*%
%TA.AperFunction,Conductor*%
%ADD32C,0.100000*%
%TD*%
%TA.AperFunction,Conductor*%
%ADD33C,0.500000*%
%TD*%
G04 APERTURE END LIST*
D10*
%TO.P,JP7,1,A*%
%TO.N,AD0*%
X153300000Y-55200000D03*
%TO.P,JP7,2,B*%
%TO.N,+3V3*%
X153300000Y-56100000D03*
%TD*%
D11*
%TO.P,R26,1*%
%TO.N,+3V3*%
X157212500Y-60100000D03*
%TO.P,R26,2*%
%TO.N,SCL*%
X155387500Y-60100000D03*
%TD*%
D12*
%TO.P,R1,1*%
%TO.N,Net-(U1-#OE)*%
X153090000Y-61200000D03*
%TO.P,R1,2*%
%TO.N,A4*%
X154110000Y-61200000D03*
%TD*%
%TO.P,R19,1*%
%TO.N,A4*%
X142890000Y-58000000D03*
%TO.P,R19,2*%
%TO.N,A0*%
X143910000Y-58000000D03*
%TD*%
%TO.P,R18,1*%
%TO.N,Net-(U1-PWM15)*%
X153080000Y-62200000D03*
%TO.P,R18,2*%
%TO.N,HIN2*%
X154100000Y-62200000D03*
%TD*%
D10*
%TO.P,JP6,1,A*%
%TO.N,A4*%
X157600000Y-56100000D03*
%TO.P,JP6,2,B*%
%TO.N,AD1*%
X157600000Y-55200000D03*
%TD*%
D13*
%TO.P,U3,1,VM*%
%TO.N,+5V*%
X139550000Y-62250000D03*
%TO.P,U3,2,AOUT1*%
%TO.N,AOUT1*%
X139550000Y-62750000D03*
%TO.P,U3,3,AOUT2*%
%TO.N,Net-(J6-Pin_7)*%
X139550000Y-63250000D03*
%TO.P,U3,4,BOUT1*%
%TO.N,BOUT1*%
X139550000Y-63750000D03*
%TO.P,U3,5,BOUT2*%
%TO.N,Net-(J6-Pin_5)*%
X139550000Y-64250000D03*
%TO.P,U3,6,GND*%
%TO.N,A4*%
X139550000Y-64750000D03*
%TO.P,U3,7,BIN2*%
%TO.N,BIN2*%
X141450000Y-64750000D03*
%TO.P,U3,8,BIN1*%
%TO.N,BIN1*%
X141450000Y-64250000D03*
%TO.P,U3,9,AIN2*%
%TO.N,AIN2*%
X141450000Y-63750000D03*
%TO.P,U3,10,AIN1*%
%TO.N,AIN1*%
X141450000Y-63250000D03*
%TO.P,U3,11,MODE*%
%TO.N,A4*%
X141450000Y-62750000D03*
%TO.P,U3,12,VCC*%
%TO.N,+3V3*%
X141450000Y-62250000D03*
D14*
%TO.P,U3,13,GND*%
%TO.N,A4*%
X140500000Y-63500000D03*
%TD*%
D12*
%TO.P,R16,1*%
%TO.N,Net-(U1-PWM13)*%
X153070000Y-64200000D03*
%TO.P,R16,2*%
%TO.N,GIN2*%
X154090000Y-64200000D03*
%TD*%
D15*
%TO.P,R4,1*%
%TO.N,Net-(U1-PWM1)*%
X144010000Y-63000000D03*
%TO.P,R4,2*%
%TO.N,AIN2*%
X142990000Y-63000000D03*
%TD*%
D16*
%TO.P,J6,1,Pin_1*%
%TO.N,Net-(J6-Pin_1)*%
X137000000Y-72440000D03*
D17*
%TO.P,J6,2,Pin_2*%
%TO.N,DOUT1*%
X137000000Y-69900000D03*
%TO.P,J6,3,Pin_3*%
%TO.N,Net-(J6-Pin_3)*%
X137000000Y-67360000D03*
%TO.P,J6,4,Pin_4*%
%TO.N,COUT1*%
X137000000Y-64820000D03*
%TO.P,J6,5,Pin_5*%
%TO.N,Net-(J6-Pin_5)*%
X137000000Y-62280000D03*
%TO.P,J6,6,Pin_6*%
%TO.N,BOUT1*%
X137000000Y-59740000D03*
%TO.P,J6,7,Pin_7*%
%TO.N,Net-(J6-Pin_7)*%
X137000000Y-57200000D03*
%TO.P,J6,8,Pin_8*%
%TO.N,AOUT1*%
X137000000Y-54660000D03*
%TD*%
D16*
%TO.P,J3,1,Pin_1*%
%TO.N,Net-(J3-Pin_1)*%
X160100000Y-54660000D03*
D17*
%TO.P,J3,2,Pin_2*%
%TO.N,HOUT1*%
X160100000Y-57200000D03*
%TO.P,J3,3,Pin_3*%
%TO.N,Net-(J3-Pin_3)*%
X160100000Y-59740000D03*
%TO.P,J3,4,Pin_4*%
%TO.N,GOUT1*%
X160100000Y-62280000D03*
%TO.P,J3,5,Pin_5*%
%TO.N,Net-(J3-Pin_5)*%
X160100000Y-64820000D03*
%TO.P,J3,6,Pin_6*%
%TO.N,FOUT1*%
X160100000Y-67360000D03*
%TO.P,J3,7,Pin_7*%
%TO.N,Net-(J3-Pin_7)*%
X160100000Y-69900000D03*
%TO.P,J3,8,Pin_8*%
%TO.N,EOUT1*%
X160100000Y-72440000D03*
%TD*%
D18*
%TO.P,U6,1,VM*%
%TO.N,+5V*%
X157400000Y-65000000D03*
%TO.P,U6,2,AOUT1*%
%TO.N,GOUT1*%
X157400000Y-64500000D03*
%TO.P,U6,3,AOUT2*%
%TO.N,Net-(J3-Pin_3)*%
X157400000Y-64000000D03*
%TO.P,U6,4,BOUT1*%
%TO.N,HOUT1*%
X157400000Y-63500000D03*
%TO.P,U6,5,BOUT2*%
%TO.N,Net-(J3-Pin_1)*%
X157400000Y-63000000D03*
%TO.P,U6,6,GND*%
%TO.N,A4*%
X157400000Y-62500000D03*
%TO.P,U6,7,BIN2*%
%TO.N,HIN2*%
X155500000Y-62500000D03*
%TO.P,U6,8,BIN1*%
%TO.N,HIN1*%
X155500000Y-63000000D03*
%TO.P,U6,9,AIN2*%
%TO.N,GIN2*%
X155500000Y-63500000D03*
%TO.P,U6,10,AIN1*%
%TO.N,GIN1*%
X155500000Y-64000000D03*
%TO.P,U6,11,MODE*%
%TO.N,A4*%
X155500000Y-64500000D03*
%TO.P,U6,12,VCC*%
%TO.N,+3V3*%
X155500000Y-65000000D03*
D19*
%TO.P,U6,13,GND*%
%TO.N,A4*%
X156450000Y-63750000D03*
%TD*%
D20*
%TO.P,C5,1*%
%TO.N,+3V3*%
X151093750Y-54700000D03*
%TO.P,C5,2*%
%TO.N,A4*%
X152053750Y-54700000D03*
%TD*%
D15*
%TO.P,R3,1*%
%TO.N,Net-(U1-PWM0)*%
X144020000Y-62000000D03*
%TO.P,R3,2*%
%TO.N,AIN1*%
X143000000Y-62000000D03*
%TD*%
D18*
%TO.P,U5,1,VM*%
%TO.N,+5V*%
X157450000Y-69000000D03*
%TO.P,U5,2,AOUT1*%
%TO.N,EOUT1*%
X157450000Y-68500000D03*
%TO.P,U5,3,AOUT2*%
%TO.N,Net-(J3-Pin_7)*%
X157450000Y-68000000D03*
%TO.P,U5,4,BOUT1*%
%TO.N,FOUT1*%
X157450000Y-67500000D03*
%TO.P,U5,5,BOUT2*%
%TO.N,Net-(J3-Pin_5)*%
X157450000Y-67000000D03*
%TO.P,U5,6,GND*%
%TO.N,A4*%
X157450000Y-66500000D03*
%TO.P,U5,7,BIN2*%
%TO.N,FIN2*%
X155550000Y-66500000D03*
%TO.P,U5,8,BIN1*%
%TO.N,FIN1*%
X155550000Y-67000000D03*
%TO.P,U5,9,AIN2*%
%TO.N,EIN2*%
X155550000Y-67500000D03*
%TO.P,U5,10,AIN1*%
%TO.N,EIN1*%
X155550000Y-68000000D03*
%TO.P,U5,11,MODE*%
%TO.N,A4*%
X155550000Y-68500000D03*
%TO.P,U5,12,VCC*%
%TO.N,+3V3*%
X155550000Y-69000000D03*
D19*
%TO.P,U5,13,GND*%
%TO.N,A4*%
X156500000Y-67750000D03*
%TD*%
D21*
%TO.P,C3,1*%
%TO.N,+5V*%
X139400000Y-61100000D03*
%TO.P,C3,2*%
%TO.N,A4*%
X139400000Y-60140000D03*
%TD*%
D12*
%TO.P,R14,1*%
%TO.N,Net-(U1-PWM11)*%
X153070000Y-66200000D03*
%TO.P,R14,2*%
%TO.N,FIN2*%
X154090000Y-66200000D03*
%TD*%
%TO.P,R21,1*%
%TO.N,A4*%
X142880000Y-60000000D03*
%TO.P,R21,2*%
%TO.N,A2*%
X143900000Y-60000000D03*
%TD*%
%TO.P,R11,1*%
%TO.N,Net-(U1-PWM8)*%
X153070000Y-69200000D03*
%TO.P,R11,2*%
%TO.N,EIN1*%
X154090000Y-69200000D03*
%TD*%
D22*
%TO.P,U1,1,A0*%
%TO.N,A0*%
X145637500Y-60275000D03*
%TO.P,U1,2,A1*%
%TO.N,A1*%
X145637500Y-60925000D03*
%TO.P,U1,3,A2*%
%TO.N,A2*%
X145637500Y-61575000D03*
%TO.P,U1,4,A3*%
%TO.N,A3*%
X145637500Y-62225000D03*
%TO.P,U1,5,A4*%
%TO.N,A4*%
X145637500Y-62875000D03*
%TO.P,U1,6,PWM0*%
%TO.N,Net-(U1-PWM0)*%
X145637500Y-63525000D03*
%TO.P,U1,7,PWM1*%
%TO.N,Net-(U1-PWM1)*%
X145637500Y-64175000D03*
%TO.P,U1,8,PWM2*%
%TO.N,Net-(U1-PWM2)*%
X145637500Y-64825000D03*
%TO.P,U1,9,PWM3*%
%TO.N,Net-(U1-PWM3)*%
X145637500Y-65475000D03*
%TO.P,U1,10,PWM4*%
%TO.N,Net-(U1-PWM4)*%
X145637500Y-66125000D03*
%TO.P,U1,11,PWM5*%
%TO.N,Net-(U1-PWM5)*%
X145637500Y-66775000D03*
%TO.P,U1,12,PWM6*%
%TO.N,Net-(U1-PWM6)*%
X145637500Y-67425000D03*
%TO.P,U1,13,PWM7*%
%TO.N,Net-(U1-PWM7)*%
X145637500Y-68075000D03*
%TO.P,U1,14,GND*%
%TO.N,A4*%
X145637500Y-68725000D03*
%TO.P,U1,15,PWM8*%
%TO.N,Net-(U1-PWM8)*%
X151362500Y-68725000D03*
%TO.P,U1,16,PWM9*%
%TO.N,Net-(U1-PWM9)*%
X151362500Y-68075000D03*
%TO.P,U1,17,PWM10*%
%TO.N,Net-(U1-PWM10)*%
X151362500Y-67425000D03*
%TO.P,U1,18,PWM11*%
%TO.N,Net-(U1-PWM11)*%
X151362500Y-66775000D03*
%TO.P,U1,19,PWM12*%
%TO.N,Net-(U1-PWM12)*%
X151362500Y-66125000D03*
%TO.P,U1,20,PWM13*%
%TO.N,Net-(U1-PWM13)*%
X151362500Y-65475000D03*
%TO.P,U1,21,PWM14*%
%TO.N,Net-(U1-PWM14)*%
X151362500Y-64825000D03*
%TO.P,U1,22,PWM15*%
%TO.N,Net-(U1-PWM15)*%
X151362500Y-64175000D03*
%TO.P,U1,23,#OE*%
%TO.N,Net-(U1-#OE)*%
X151362500Y-63525000D03*
%TO.P,U1,24,A5*%
%TO.N,A4*%
X151362500Y-62875000D03*
%TO.P,U1,25,EXTCLK*%
%TO.N,Net-(U1-EXTCLK)*%
X151362500Y-62225000D03*
%TO.P,U1,26,SCL*%
%TO.N,SCL*%
X151362500Y-61575000D03*
%TO.P,U1,27,SDA*%
%TO.N,SDA*%
X151362500Y-60925000D03*
%TO.P,U1,28,VDD*%
%TO.N,+3V3*%
X151362500Y-60275000D03*
%TD*%
D15*
%TO.P,R5,1*%
%TO.N,Net-(U1-PWM2)*%
X144010000Y-64000000D03*
%TO.P,R5,2*%
%TO.N,BIN1*%
X142990000Y-64000000D03*
%TD*%
D12*
%TO.P,R15,1*%
%TO.N,Net-(U1-PWM12)*%
X153080000Y-65200000D03*
%TO.P,R15,2*%
%TO.N,GIN1*%
X154100000Y-65200000D03*
%TD*%
D10*
%TO.P,JP5,1,A*%
%TO.N,+3V3*%
X156150000Y-56100000D03*
%TO.P,JP5,2,B*%
%TO.N,AD1*%
X156150000Y-55200000D03*
%TD*%
D11*
%TO.P,R25,1*%
%TO.N,+3V3*%
X157212500Y-58200000D03*
%TO.P,R25,2*%
%TO.N,SDA*%
X155387500Y-58200000D03*
%TD*%
D20*
%TO.P,C1,1*%
%TO.N,+3V3*%
X153120000Y-59200000D03*
%TO.P,C1,2*%
%TO.N,A4*%
X154080000Y-59200000D03*
%TD*%
D12*
%TO.P,R13,1*%
%TO.N,Net-(U1-PWM10)*%
X153070000Y-67200000D03*
%TO.P,R13,2*%
%TO.N,FIN1*%
X154090000Y-67200000D03*
%TD*%
D15*
%TO.P,R8,1*%
%TO.N,Net-(U1-PWM5)*%
X144010000Y-67000000D03*
%TO.P,R8,2*%
%TO.N,CIN2*%
X142990000Y-67000000D03*
%TD*%
%TO.P,R9,1*%
%TO.N,Net-(U1-PWM6)*%
X144010000Y-68000000D03*
%TO.P,R9,2*%
%TO.N,DIN1*%
X142990000Y-68000000D03*
%TD*%
D20*
%TO.P,C7,1*%
%TO.N,Net-(U2-REFCOMP)*%
X151093750Y-56000000D03*
%TO.P,C7,2*%
%TO.N,A4*%
X152053750Y-56000000D03*
%TD*%
D15*
%TO.P,R10,1*%
%TO.N,Net-(U1-PWM7)*%
X144020000Y-69000000D03*
%TO.P,R10,2*%
%TO.N,DIN2*%
X143000000Y-69000000D03*
%TD*%
D23*
%TO.P,C4,1*%
%TO.N,+3V3*%
X144753750Y-56100000D03*
%TO.P,C4,2*%
%TO.N,A4*%
X143793750Y-56100000D03*
%TD*%
D24*
%TO.P,U2,1,CH3*%
%TO.N,DOUT1*%
X146693750Y-58187500D03*
%TO.P,U2,2,CH4*%
%TO.N,EOUT1*%
X147193750Y-58187500D03*
%TO.P,U2,3,CH5*%
%TO.N,FOUT1*%
X147693750Y-58187500D03*
%TO.P,U2,4,CH6*%
%TO.N,GOUT1*%
X148193750Y-58187500D03*
%TO.P,U2,5,CH7*%
%TO.N,HOUT1*%
X148693750Y-58187500D03*
%TO.P,U2,6,COM*%
%TO.N,A4*%
X149193750Y-58187500D03*
D25*
%TO.P,U2,7,VREF*%
%TO.N,Net-(U2-VREF)*%
X149881250Y-57500000D03*
%TO.P,U2,8,REFCOMP*%
%TO.N,Net-(U2-REFCOMP)*%
X149881250Y-57000000D03*
%TO.P,U2,9,GND*%
%TO.N,A4*%
X149881250Y-56500000D03*
%TO.P,U2,10,GND*%
X149881250Y-56000000D03*
%TO.P,U2,11,GND*%
X149881250Y-55500000D03*
%TO.P,U2,12,VDD*%
%TO.N,+3V3*%
X149881250Y-55000000D03*
D24*
%TO.P,U2,13,VDD*%
X149193750Y-54312500D03*
%TO.P,U2,14,AD0*%
%TO.N,AD0*%
X148693750Y-54312500D03*
%TO.P,U2,15,AD1*%
%TO.N,AD1*%
X148193750Y-54312500D03*
%TO.P,U2,16,SCL*%
%TO.N,SDA*%
X147693750Y-54312500D03*
%TO.P,U2,17,SDA*%
%TO.N,SCL*%
X147193750Y-54312500D03*
%TO.P,U2,18,GND*%
%TO.N,A4*%
X146693750Y-54312500D03*
D25*
%TO.P,U2,19,GND*%
X146006250Y-55000000D03*
%TO.P,U2,20,GND*%
X146006250Y-55500000D03*
%TO.P,U2,21,VDD*%
%TO.N,+3V3*%
X146006250Y-56000000D03*
%TO.P,U2,22,CH0*%
%TO.N,AOUT1*%
X146006250Y-56500000D03*
%TO.P,U2,23,CH1*%
%TO.N,BOUT1*%
X146006250Y-57000000D03*
%TO.P,U2,24,CH2*%
%TO.N,COUT1*%
X146006250Y-57500000D03*
D26*
%TO.P,U2,25,GND*%
%TO.N,A4*%
X147943750Y-56250000D03*
%TD*%
D27*
%TO.P,J1,1,Pin_1*%
%TO.N,+3V3*%
X143400000Y-73100000D03*
D28*
%TO.P,J1,2,Pin_2*%
%TO.N,A4*%
X145900000Y-73100000D03*
%TO.P,J1,3,Pin_3*%
%TO.N,SDA*%
X148400000Y-73100000D03*
%TO.P,J1,4,Pin_4*%
%TO.N,SCL*%
X150900000Y-73100000D03*
%TO.P,J1,5,Pin_5*%
%TO.N,+5V*%
X153400000Y-73100000D03*
%TD*%
D29*
%TO.P,C2,1*%
%TO.N,+5V*%
X141300000Y-58500000D03*
%TO.P,C2,2*%
%TO.N,A4*%
X141300000Y-60400000D03*
%TD*%
D12*
%TO.P,R12,1*%
%TO.N,Net-(U1-PWM9)*%
X153060000Y-68200000D03*
%TO.P,R12,2*%
%TO.N,EIN2*%
X154080000Y-68200000D03*
%TD*%
D10*
%TO.P,JP8,1,A*%
%TO.N,A4*%
X154700000Y-56100000D03*
%TO.P,JP8,2,B*%
%TO.N,AD0*%
X154700000Y-55200000D03*
%TD*%
D15*
%TO.P,R6,1*%
%TO.N,Net-(U1-PWM3)*%
X144010000Y-65000000D03*
%TO.P,R6,2*%
%TO.N,BIN2*%
X142990000Y-65000000D03*
%TD*%
D12*
%TO.P,R20,1*%
%TO.N,A4*%
X142890000Y-59000000D03*
%TO.P,R20,2*%
%TO.N,A1*%
X143910000Y-59000000D03*
%TD*%
D20*
%TO.P,C8,1*%
%TO.N,Net-(U2-REFCOMP)*%
X154270000Y-53500000D03*
%TO.P,C8,2*%
%TO.N,A4*%
X155230000Y-53500000D03*
%TD*%
D12*
%TO.P,R2,1*%
%TO.N,Net-(U1-EXTCLK)*%
X153090000Y-60200000D03*
%TO.P,R2,2*%
%TO.N,A4*%
X154110000Y-60200000D03*
%TD*%
%TO.P,R22,1*%
%TO.N,A4*%
X142890000Y-61000000D03*
%TO.P,R22,2*%
%TO.N,A3*%
X143910000Y-61000000D03*
%TD*%
D20*
%TO.P,C6,1*%
%TO.N,Net-(U2-VREF)*%
X151093750Y-58000000D03*
%TO.P,C6,2*%
%TO.N,A4*%
X152053750Y-58000000D03*
%TD*%
D15*
%TO.P,R7,1*%
%TO.N,Net-(U1-PWM4)*%
X144020000Y-66000000D03*
%TO.P,R7,2*%
%TO.N,CIN1*%
X143000000Y-66000000D03*
%TD*%
D12*
%TO.P,R17,1*%
%TO.N,Net-(U1-PWM14)*%
X153080000Y-63190000D03*
%TO.P,R17,2*%
%TO.N,HIN1*%
X154100000Y-63190000D03*
%TD*%
D13*
%TO.P,U4,1,VM*%
%TO.N,+5V*%
X139550000Y-66250000D03*
%TO.P,U4,2,AOUT1*%
%TO.N,COUT1*%
X139550000Y-66750000D03*
%TO.P,U4,3,AOUT2*%
%TO.N,Net-(J6-Pin_3)*%
X139550000Y-67250000D03*
%TO.P,U4,4,BOUT1*%
%TO.N,DOUT1*%
X139550000Y-67750000D03*
%TO.P,U4,5,BOUT2*%
%TO.N,Net-(J6-Pin_1)*%
X139550000Y-68250000D03*
%TO.P,U4,6,GND*%
%TO.N,A4*%
X139550000Y-68750000D03*
%TO.P,U4,7,BIN2*%
%TO.N,DIN2*%
X141450000Y-68750000D03*
%TO.P,U4,8,BIN1*%
%TO.N,DIN1*%
X141450000Y-68250000D03*
%TO.P,U4,9,AIN2*%
%TO.N,CIN2*%
X141450000Y-67750000D03*
%TO.P,U4,10,AIN1*%
%TO.N,CIN1*%
X141450000Y-67250000D03*
%TO.P,U4,11,MODE*%
%TO.N,A4*%
X141450000Y-66750000D03*
%TO.P,U4,12,VCC*%
%TO.N,+3V3*%
X141450000Y-66250000D03*
D14*
%TO.P,U4,13,GND*%
%TO.N,A4*%
X140500000Y-67500000D03*
%TD*%
D30*
%TO.N,Net-(U2-REFCOMP)*%
X151093750Y-57000000D03*
X153250000Y-53500000D03*
%TO.N,+3V3*%
X156350000Y-58370774D03*
X151200000Y-54000000D03*
X152846446Y-56746446D03*
X143498527Y-57297430D03*
X149900000Y-54200000D03*
X153000000Y-58200000D03*
X155515000Y-65776000D03*
X141500000Y-65500000D03*
X141500000Y-61500000D03*
X141500000Y-69600000D03*
X154100000Y-57100000D03*
X142907966Y-56207966D03*
X155500000Y-69800000D03*
%TO.N,+5V*%
X153000000Y-70700000D03*
X140049998Y-59000000D03*
X157400000Y-65800000D03*
X139600000Y-61500000D03*
X139600000Y-65500000D03*
X157400000Y-69800000D03*
%TO.N,SCL*%
X147000000Y-53400000D03*
X150175001Y-62297107D03*
X156900000Y-61300000D03*
X149050000Y-61527817D03*
%TO.N,SDA*%
X147749504Y-53372663D03*
X148707107Y-60392892D03*
X150700000Y-59300000D03*
X154300000Y-58200000D03*
%TO.N,EOUT1*%
X154800000Y-70600000D03*
X156050000Y-70700000D03*
X147200000Y-60300000D03*
%TO.N,GOUT1*%
X149050000Y-59700000D03*
%TO.N,FOUT1*%
X147730332Y-61000000D03*
%TO.N,HOUT1*%
X148730332Y-58953047D03*
%TO.N,A0*%
X144000000Y-58000000D03*
%TO.N,A1*%
X144201446Y-58998554D03*
%TO.N,A2*%
X144130000Y-59998554D03*
%TO.N,A3*%
X143880000Y-61000000D03*
%TO.N,A4*%
X156600000Y-73800000D03*
X149600000Y-62900000D03*
X149600000Y-60375000D03*
X157000000Y-57000000D03*
X141600000Y-53600000D03*
X148646875Y-56953125D03*
X154879035Y-57089685D03*
X140500000Y-65500000D03*
X158200000Y-71600000D03*
X142595000Y-61295000D03*
X155800000Y-61700000D03*
X156600000Y-72100000D03*
X154628130Y-59150000D03*
X149800000Y-66000000D03*
X149600000Y-64200000D03*
X139700000Y-57500000D03*
X147850000Y-62900000D03*
X139400000Y-55300000D03*
%TO.N,BOUT1*%
X145035412Y-57570822D03*
%TO.N,AOUT1*%
X144700000Y-56900000D03*
%TO.N,COUT1*%
X142050000Y-71300000D03*
X138181091Y-70481091D03*
X146000000Y-58200000D03*
X138200000Y-69200000D03*
X142250003Y-69600000D03*
%TO.N,DOUT1*%
X146700000Y-59700000D03*
X140363909Y-69986091D03*
X139400000Y-70700000D03*
%TO.N,Net-(U1-#OE)*%
X152800000Y-61300000D03*
X150300000Y-63500000D03*
%TO.N,A4*%
X156250000Y-54000000D03*
X152053750Y-54700000D03*
%TD*%
D31*
%TO.N,A4*%
X143793750Y-56100000D02*
X143793750Y-55250000D01*
D32*
X146062500Y-54312500D02*
X146000000Y-54250000D01*
X146693750Y-54312500D02*
X146062500Y-54312500D01*
D31*
%TO.N,Net-(U2-REFCOMP)*%
X154270000Y-53500000D02*
X153250000Y-53500000D01*
D32*
%TO.N,+3V3*%
X142907966Y-56207966D02*
X142225000Y-56890932D01*
X142225000Y-56890932D02*
X142225000Y-60843324D01*
D33*
X157212500Y-58200000D02*
X157212500Y-60100000D01*
D31*
X153120000Y-59200000D02*
X152437500Y-59200000D01*
D32*
X149881250Y-55000000D02*
X150793750Y-55000000D01*
X150793750Y-55000000D02*
X151093750Y-54700000D01*
X149900000Y-54200000D02*
X149306250Y-54200000D01*
D31*
X142100000Y-73100000D02*
X141500000Y-72500000D01*
D32*
X151093750Y-54700000D02*
X151093750Y-54106250D01*
D31*
X156150000Y-56100000D02*
X156150000Y-57137500D01*
X153000000Y-58200000D02*
X153000000Y-59080000D01*
X155500000Y-69800000D02*
X155500000Y-69050000D01*
X154100000Y-57100000D02*
X153300000Y-56300000D01*
X153000000Y-59080000D02*
X153120000Y-59200000D01*
D32*
X151093750Y-54106250D02*
X151200000Y-54000000D01*
D31*
X156150000Y-57137500D02*
X157212500Y-58200000D01*
X143400000Y-73100000D02*
X142100000Y-73100000D01*
X155500000Y-65000000D02*
X155500000Y-65761000D01*
X152437500Y-59200000D02*
X151362500Y-60275000D01*
X153300000Y-56300000D02*
X153300000Y-56100000D01*
X141500000Y-61500000D02*
X141500000Y-62200000D01*
X155500000Y-65761000D02*
X155515000Y-65776000D01*
X156350000Y-58370774D02*
X157041726Y-58370774D01*
D32*
X143498527Y-57297430D02*
X143556320Y-57297430D01*
D31*
X155500000Y-69050000D02*
X155550000Y-69000000D01*
X141500000Y-72500000D02*
X141500000Y-69600000D01*
X157041726Y-58370774D02*
X157212500Y-58200000D01*
D32*
X152846446Y-56553554D02*
X153300000Y-56100000D01*
X149193750Y-54312500D02*
X149881250Y-55000000D01*
X144853750Y-56000000D02*
X144753750Y-56100000D01*
X149306250Y-54200000D02*
X149193750Y-54312500D01*
X152846446Y-56746446D02*
X152846446Y-56553554D01*
X146006250Y-56000000D02*
X144853750Y-56000000D01*
X143556320Y-57297430D02*
X144753750Y-56100000D01*
X142225000Y-60843324D02*
X141568324Y-61500000D01*
D31*
X141450000Y-66250000D02*
X141450000Y-65550000D01*
X141450000Y-65550000D02*
X141500000Y-65500000D01*
X141500000Y-62200000D02*
X141450000Y-62250000D01*
D32*
X141568324Y-61500000D02*
X141500000Y-61500000D01*
D31*
%TO.N,+5V*%
X139600000Y-61500000D02*
X139600000Y-62200000D01*
X139600000Y-62200000D02*
X139550000Y-62250000D01*
X139400000Y-61100000D02*
X139400000Y-61300000D01*
X153400000Y-73100000D02*
X156800000Y-73100000D01*
X157400000Y-69800000D02*
X157400000Y-69050000D01*
X153000000Y-70700000D02*
X153400000Y-71100000D01*
X157400000Y-69050000D02*
X157450000Y-69000000D01*
X157400000Y-72500000D02*
X157400000Y-69800000D01*
X153400000Y-71100000D02*
X153400000Y-73100000D01*
X140549998Y-58500000D02*
X140049998Y-59000000D01*
X141300000Y-58500000D02*
X140549998Y-58500000D01*
X157400000Y-65000000D02*
X157400000Y-65800000D01*
X139550000Y-65550000D02*
X139600000Y-65500000D01*
X139400000Y-61300000D02*
X139600000Y-61500000D01*
X139550000Y-66250000D02*
X139550000Y-65550000D01*
X156800000Y-73100000D02*
X157400000Y-72500000D01*
D32*
%TO.N,Net-(U2-VREF)*%
X150381250Y-58000000D02*
X149881250Y-57500000D01*
X151093750Y-58000000D02*
X150381250Y-58000000D01*
%TO.N,Net-(U2-REFCOMP)*%
X151093750Y-57000000D02*
X149881250Y-57000000D01*
D31*
X151093750Y-56000000D02*
X151093750Y-57000000D01*
%TO.N,SCL*%
X149000000Y-61900000D02*
X149325000Y-61575000D01*
D32*
X147000000Y-53400000D02*
X147193750Y-53593750D01*
X156587500Y-61300000D02*
X155387500Y-60100000D01*
D31*
X149325000Y-61575000D02*
X151362500Y-61575000D01*
D32*
X150175001Y-62297107D02*
X150175001Y-62025000D01*
X149050000Y-61527817D02*
X149097183Y-61575000D01*
X147193750Y-53593750D02*
X147193750Y-54312500D01*
X150625001Y-61575000D02*
X151362500Y-61575000D01*
X156900000Y-61300000D02*
X156587500Y-61300000D01*
X149097183Y-61575000D02*
X151362500Y-61575000D01*
D31*
X149000000Y-71000000D02*
X149000000Y-61900000D01*
D32*
X150175001Y-62025000D02*
X150625001Y-61575000D01*
D31*
X150900000Y-72900000D02*
X149000000Y-71000000D01*
X150900000Y-73100000D02*
X150900000Y-72900000D01*
%TO.N,SDA*%
X148875000Y-60925000D02*
X151362500Y-60925000D01*
D32*
X149239215Y-60925000D02*
X150300000Y-60925000D01*
X147693750Y-53428417D02*
X147749504Y-53372663D01*
X150300000Y-60925000D02*
X151362500Y-60925000D01*
X155387500Y-58200000D02*
X154300000Y-58200000D01*
X150700000Y-59300000D02*
X150300000Y-59700000D01*
X148707107Y-60392892D02*
X149239215Y-60925000D01*
D31*
X148400000Y-73100000D02*
X148400000Y-61400000D01*
D32*
X147693750Y-54312500D02*
X147693750Y-53428417D01*
X150300000Y-59700000D02*
X150300000Y-60925000D01*
D31*
X148400000Y-61400000D02*
X148875000Y-60925000D01*
D32*
%TO.N,EOUT1*%
X147285653Y-58279403D02*
X147193750Y-58187500D01*
D31*
X158400000Y-70740000D02*
X160100000Y-72440000D01*
D32*
X156050000Y-70700000D02*
X154900000Y-70700000D01*
X147285653Y-60214347D02*
X147285653Y-58279403D01*
D31*
X158400000Y-69200000D02*
X158400000Y-70740000D01*
X157700000Y-68500000D02*
X158400000Y-69200000D01*
D32*
X147200000Y-60300000D02*
X147285653Y-60214347D01*
D31*
X157450000Y-68500000D02*
X157700000Y-68500000D01*
D32*
X154900000Y-70700000D02*
X154800000Y-70600000D01*
D31*
%TO.N,Net-(J3-Pin_7)*%
X160100000Y-69900000D02*
X158200000Y-68000000D01*
X158200000Y-68000000D02*
X157450000Y-68000000D01*
D32*
%TO.N,GOUT1*%
X149050000Y-59700000D02*
X148770178Y-59700000D01*
X148770178Y-59700000D02*
X148193750Y-59123572D01*
D31*
X157880000Y-64500000D02*
X160100000Y-62280000D01*
X157400000Y-64500000D02*
X157880000Y-64500000D01*
D32*
X148193750Y-59123572D02*
X148193750Y-58187500D01*
D31*
%TO.N,FOUT1*%
X159960000Y-67500000D02*
X157450000Y-67500000D01*
D32*
X147700000Y-60969668D02*
X147700000Y-58193750D01*
X147730332Y-61000000D02*
X147700000Y-60969668D01*
D31*
X160100000Y-67360000D02*
X159960000Y-67500000D01*
D32*
X147700000Y-58193750D02*
X147693750Y-58187500D01*
D31*
%TO.N,Net-(J3-Pin_1)*%
X157400000Y-63000000D02*
X157600650Y-63000000D01*
X158300000Y-62300650D02*
X158300000Y-56460000D01*
X157600650Y-63000000D02*
X158300000Y-62300650D01*
X158300000Y-56460000D02*
X160100000Y-54660000D01*
%TO.N,Net-(J3-Pin_5)*%
X157920000Y-67000000D02*
X160100000Y-64820000D01*
X157450000Y-67000000D02*
X157920000Y-67000000D01*
%TO.N,HOUT1*%
X158650000Y-62500000D02*
X157650000Y-63500000D01*
X160100000Y-57200000D02*
X158650000Y-58650000D01*
D32*
X148693750Y-58916465D02*
X148730332Y-58953047D01*
X148693750Y-58187500D02*
X148693750Y-58916465D01*
D31*
X158650000Y-58650000D02*
X158650000Y-62500000D01*
X157650000Y-63500000D02*
X157400000Y-63500000D01*
%TO.N,Net-(J3-Pin_3)*%
X159000000Y-60840000D02*
X160100000Y-59740000D01*
X157650000Y-64000000D02*
X159000000Y-62650000D01*
X159000000Y-62650000D02*
X159000000Y-60840000D01*
X157400000Y-64000000D02*
X157650000Y-64000000D01*
D32*
%TO.N,A0*%
X145637500Y-60275000D02*
X145637500Y-59727500D01*
X143910000Y-58000000D02*
X144000000Y-58000000D01*
X145637500Y-59727500D02*
X143910000Y-58000000D01*
%TO.N,A1*%
X144925000Y-60925000D02*
X145637500Y-60925000D01*
X143910000Y-59000000D02*
X144630000Y-59720000D01*
X144630000Y-60630000D02*
X144925000Y-60925000D01*
X144200000Y-59000000D02*
X144201446Y-58998554D01*
X144630000Y-59720000D02*
X144630000Y-60630000D01*
X143910000Y-59000000D02*
X144200000Y-59000000D01*
%TO.N,A2*%
X144900001Y-61575000D02*
X144380000Y-61054999D01*
X144128554Y-60000000D02*
X144130000Y-59998554D01*
X144380000Y-61054999D02*
X144380000Y-60480000D01*
X144380000Y-60480000D02*
X143900000Y-60000000D01*
X145637500Y-61575000D02*
X144900001Y-61575000D01*
X143900000Y-60000000D02*
X144128554Y-60000000D01*
%TO.N,A3*%
X143910000Y-61000000D02*
X143880000Y-61000000D01*
X145122964Y-62225000D02*
X143910000Y-61012036D01*
X145637500Y-62225000D02*
X145122964Y-62225000D01*
X143910000Y-61012036D02*
X143910000Y-61000000D01*
X145637500Y-62225000D02*
X145042502Y-62225000D01*
D31*
%TO.N,A4*%
X154080000Y-60170000D02*
X154110000Y-60200000D01*
X157600000Y-56400000D02*
X157000000Y-57000000D01*
D32*
X142595000Y-61295000D02*
X142890000Y-61000000D01*
X140500000Y-67500000D02*
X141250000Y-66750000D01*
D31*
X154700000Y-56910650D02*
X154879035Y-57089685D01*
X142890000Y-58000000D02*
X142890000Y-57003750D01*
X152053750Y-58000000D02*
X152453750Y-57600000D01*
D32*
X139550000Y-64750000D02*
X139800000Y-64750000D01*
D31*
X144393750Y-55500000D02*
X146006250Y-55500000D01*
D32*
X156500000Y-66735000D02*
X156735000Y-66500000D01*
D31*
X140913909Y-67913909D02*
X140500000Y-67500000D01*
D32*
X146006250Y-55000000D02*
X146693750Y-55000000D01*
X154110000Y-61200000D02*
X154110000Y-60200000D01*
D31*
X152053750Y-54700000D02*
X152053750Y-55300000D01*
X139400000Y-60140000D02*
X139400000Y-60234576D01*
X147850000Y-67097746D02*
X147850000Y-62900000D01*
X156450000Y-62735000D02*
X156450000Y-63750000D01*
D32*
X156450000Y-62735000D02*
X156685000Y-62500000D01*
D31*
X149625000Y-62875000D02*
X149600000Y-62900000D01*
D32*
X146693750Y-54312500D02*
X146693750Y-55000000D01*
X156500000Y-67750000D02*
X156500000Y-66735000D01*
D31*
X145900000Y-73100000D02*
X144400000Y-74600000D01*
X153400000Y-57600000D02*
X153750000Y-57950000D01*
X152453750Y-57600000D02*
X153400000Y-57600000D01*
D32*
X142530000Y-61920000D02*
X142530000Y-61360000D01*
X148646875Y-56953125D02*
X147943750Y-56250000D01*
D31*
X145637500Y-68725000D02*
X145900000Y-68987500D01*
D32*
X155750000Y-68500000D02*
X155550000Y-68500000D01*
D31*
X155800000Y-74600000D02*
X156600000Y-73800000D01*
X142890000Y-58000000D02*
X142890000Y-61000000D01*
D32*
X146693750Y-55000000D02*
X147943750Y-56250000D01*
X141250000Y-66750000D02*
X141450000Y-66750000D01*
X150293749Y-55500000D02*
X150493749Y-55300000D01*
D31*
X154072182Y-58750000D02*
X154080000Y-58750000D01*
X141300000Y-60400000D02*
X140500000Y-61200000D01*
X154628130Y-59150000D02*
X154130000Y-59150000D01*
X156450000Y-61750000D02*
X156450000Y-62735000D01*
X145900000Y-73100000D02*
X147400000Y-74600000D01*
D32*
X147193750Y-55500000D02*
X147943750Y-56250000D01*
X140500000Y-67500000D02*
X140500000Y-65500000D01*
D31*
X142000000Y-74600000D02*
X140913909Y-73513909D01*
X154080000Y-59200000D02*
X154080000Y-60170000D01*
X152053750Y-55300000D02*
X152053750Y-56000000D01*
D32*
X141450000Y-62750000D02*
X141700000Y-62750000D01*
D31*
X147850000Y-62900000D02*
X147300000Y-62900000D01*
D32*
X139800000Y-64750000D02*
X140500000Y-64050000D01*
D31*
X140913909Y-73513909D02*
X140913909Y-67913909D01*
X140500000Y-61200000D02*
X140500000Y-63500000D01*
D32*
X156500000Y-67750000D02*
X155750000Y-68500000D01*
X156450000Y-63750000D02*
X156450000Y-67700000D01*
X149881250Y-55500000D02*
X150293749Y-55500000D01*
X140265000Y-68750000D02*
X139550000Y-68750000D01*
X146006250Y-55500000D02*
X147193750Y-55500000D01*
D31*
X155700000Y-74600000D02*
X155800000Y-74600000D01*
X144400000Y-74600000D02*
X142000000Y-74600000D01*
D32*
X156735000Y-66500000D02*
X157450000Y-66500000D01*
D31*
X154130000Y-59150000D02*
X154080000Y-59200000D01*
X146222746Y-68725000D02*
X147850000Y-67097746D01*
X155900000Y-61200000D02*
X154110000Y-61200000D01*
X156600000Y-72100000D02*
X156600000Y-67850000D01*
D32*
X140500000Y-67500000D02*
X140500000Y-68515000D01*
X156450000Y-63750000D02*
X155700000Y-64500000D01*
X150493749Y-55300000D02*
X152053750Y-55300000D01*
X148193750Y-56500000D02*
X147943750Y-56250000D01*
D31*
X152053750Y-56000000D02*
X152053750Y-58000000D01*
X147300000Y-62900000D02*
X147275000Y-62875000D01*
D32*
X140500000Y-68515000D02*
X140265000Y-68750000D01*
X156685000Y-62500000D02*
X157400000Y-62500000D01*
X155700000Y-64500000D02*
X155500000Y-64500000D01*
D31*
X140500000Y-61334576D02*
X140500000Y-63500000D01*
X156600000Y-67850000D02*
X156500000Y-67750000D01*
X154080000Y-58750000D02*
X154080000Y-59200000D01*
D32*
X149881250Y-56500000D02*
X149881250Y-55500000D01*
D31*
X145637500Y-68725000D02*
X146222746Y-68725000D01*
X151362500Y-62875000D02*
X149625000Y-62875000D01*
D32*
X142530000Y-61360000D02*
X142595000Y-61295000D01*
D31*
X147275000Y-62875000D02*
X145637500Y-62875000D01*
D32*
X149881250Y-56500000D02*
X148193750Y-56500000D01*
D31*
X155900000Y-61200000D02*
X156450000Y-61750000D01*
D32*
X140500000Y-63500000D02*
X141250000Y-62750000D01*
D31*
X157600000Y-56100000D02*
X157600000Y-56400000D01*
D32*
X149193750Y-58187500D02*
X149193750Y-57500000D01*
X141250000Y-62750000D02*
X141450000Y-62750000D01*
X156450000Y-67700000D02*
X156500000Y-67750000D01*
X140500000Y-64050000D02*
X140500000Y-63500000D01*
D31*
X154700000Y-56100000D02*
X154700000Y-56910650D01*
D32*
X149193750Y-57500000D02*
X148646875Y-56953125D01*
X141700000Y-62750000D02*
X142530000Y-61920000D01*
D31*
X149600000Y-60375000D02*
X149600000Y-58593750D01*
X143793750Y-56100000D02*
X144393750Y-55500000D01*
X147400000Y-74600000D02*
X155700000Y-74600000D01*
X149600000Y-58593750D02*
X149193750Y-58187500D01*
X145900000Y-68987500D02*
X145900000Y-73100000D01*
X139400000Y-60234576D02*
X140500000Y-61334576D01*
X153750000Y-57950000D02*
X153750000Y-58427818D01*
D32*
X140500000Y-65500000D02*
X140500000Y-63500000D01*
D31*
X153750000Y-58427818D02*
X154072182Y-58750000D01*
X142890000Y-57003750D02*
X143793750Y-56100000D01*
D32*
%TO.N,BOUT1*%
X145606234Y-57000000D02*
X145035412Y-57570822D01*
D31*
X138100000Y-63000000D02*
X138100000Y-60840000D01*
X139550000Y-63750000D02*
X138850000Y-63750000D01*
X138850000Y-63750000D02*
X138100000Y-63000000D01*
X138100000Y-60840000D02*
X137000000Y-59740000D01*
D32*
X146006250Y-57000000D02*
X145606234Y-57000000D01*
D31*
%TO.N,AOUT1*%
X139300000Y-62750000D02*
X138800000Y-62250000D01*
X139550000Y-62750000D02*
X139300000Y-62750000D01*
D32*
X145593751Y-56500000D02*
X146006250Y-56500000D01*
X145193751Y-56900000D02*
X145593751Y-56500000D01*
X144700000Y-56900000D02*
X145193751Y-56900000D01*
D31*
X138800000Y-56460000D02*
X137000000Y-54660000D01*
X138800000Y-62250000D02*
X138800000Y-56460000D01*
%TO.N,COUT1*%
X138930000Y-66750000D02*
X137000000Y-64820000D01*
D32*
X146006250Y-58193750D02*
X146000000Y-58200000D01*
X142250003Y-69600000D02*
X142250003Y-71099997D01*
X138181091Y-70481091D02*
X138181091Y-69218909D01*
X142250003Y-71099997D02*
X142050000Y-71300000D01*
X138181091Y-69218909D02*
X138200000Y-69200000D01*
X146006250Y-57500000D02*
X146006250Y-58193750D01*
D31*
X139550000Y-66750000D02*
X138930000Y-66750000D01*
D32*
%TO.N,DOUT1*%
X146693750Y-59693750D02*
X146693750Y-58187500D01*
X140363909Y-69986091D02*
X139650000Y-70700000D01*
D31*
X138750000Y-67750000D02*
X139550000Y-67750000D01*
D32*
X146700000Y-59700000D02*
X146693750Y-59693750D01*
D31*
X137000000Y-69500000D02*
X138750000Y-67750000D01*
X137000000Y-69900000D02*
X137000000Y-69500000D01*
D32*
X139650000Y-70700000D02*
X139400000Y-70700000D01*
%TO.N,Net-(U1-#OE)*%
X152900000Y-61200000D02*
X152800000Y-61300000D01*
X150325000Y-63525000D02*
X151362500Y-63525000D01*
X150300000Y-63500000D02*
X150325000Y-63525000D01*
X153090000Y-61200000D02*
X152900000Y-61200000D01*
%TO.N,Net-(U1-EXTCLK)*%
X152099999Y-62225000D02*
X152300000Y-62024999D01*
X152300000Y-62024999D02*
X152300000Y-60700000D01*
X152300000Y-60700000D02*
X152800000Y-60200000D01*
X151362500Y-62225000D02*
X152099999Y-62225000D01*
X152800000Y-60200000D02*
X153090000Y-60200000D01*
%TO.N,Net-(U1-PWM0)*%
X144700000Y-62680000D02*
X144020000Y-62000000D01*
X144900001Y-63525000D02*
X144700000Y-63324999D01*
X145637500Y-63525000D02*
X144900001Y-63525000D01*
X144700000Y-63324999D02*
X144700000Y-62680000D01*
%TO.N,AIN1*%
X141450000Y-63250000D02*
X141750000Y-63250000D01*
X141750000Y-63250000D02*
X143000000Y-62000000D01*
%TO.N,AIN2*%
X141450000Y-63750000D02*
X142240000Y-63750000D01*
X142240000Y-63750000D02*
X142990000Y-63000000D01*
%TO.N,Net-(U1-PWM1)*%
X144010000Y-63062036D02*
X145122964Y-64175000D01*
X145122964Y-64175000D02*
X145637500Y-64175000D01*
X144010000Y-63000000D02*
X144010000Y-63062036D01*
%TO.N,BIN1*%
X141450000Y-64250000D02*
X142740000Y-64250000D01*
X142740000Y-64250000D02*
X142990000Y-64000000D01*
%TO.N,Net-(U1-PWM2)*%
X145637500Y-64825000D02*
X144835000Y-64825000D01*
X144835000Y-64825000D02*
X144010000Y-64000000D01*
%TO.N,Net-(U1-PWM3)*%
X144485000Y-65475000D02*
X145637500Y-65475000D01*
X144010000Y-65000000D02*
X144485000Y-65475000D01*
%TO.N,BIN2*%
X142740000Y-64750000D02*
X142990000Y-65000000D01*
X141450000Y-64750000D02*
X142740000Y-64750000D01*
%TO.N,Net-(U1-PWM4)*%
X145512500Y-66000000D02*
X145637500Y-66125000D01*
X144020000Y-66000000D02*
X145512500Y-66000000D01*
%TO.N,CIN1*%
X141750000Y-67250000D02*
X143000000Y-66000000D01*
X141450000Y-67250000D02*
X141750000Y-67250000D01*
%TO.N,CIN2*%
X141450000Y-67750000D02*
X142240000Y-67750000D01*
X142240000Y-67750000D02*
X142990000Y-67000000D01*
%TO.N,Net-(U1-PWM5)*%
X144010000Y-67000000D02*
X145412500Y-67000000D01*
X145412500Y-67000000D02*
X145637500Y-66775000D01*
%TO.N,DIN1*%
X142740000Y-68250000D02*
X141450000Y-68250000D01*
X142990000Y-68000000D02*
X142740000Y-68250000D01*
%TO.N,Net-(U1-PWM6)*%
X145637500Y-67425000D02*
X144585000Y-67425000D01*
X144585000Y-67425000D02*
X144010000Y-68000000D01*
%TO.N,Net-(U1-PWM7)*%
X144945000Y-68075000D02*
X145637500Y-68075000D01*
X144020000Y-69000000D02*
X144945000Y-68075000D01*
%TO.N,DIN2*%
X142750000Y-68750000D02*
X143000000Y-69000000D01*
X141450000Y-68750000D02*
X142750000Y-68750000D01*
%TO.N,EIN1*%
X155290000Y-68000000D02*
X154090000Y-69200000D01*
X155550000Y-68000000D02*
X155290000Y-68000000D01*
%TO.N,Net-(U1-PWM8)*%
X152595000Y-68725000D02*
X153070000Y-69200000D01*
X151362500Y-68725000D02*
X152595000Y-68725000D01*
%TO.N,EIN2*%
X154780000Y-67500000D02*
X155550000Y-67500000D01*
X154080000Y-68200000D02*
X154780000Y-67500000D01*
%TO.N,Net-(U1-PWM9)*%
X152935000Y-68075000D02*
X153060000Y-68200000D01*
X151362500Y-68075000D02*
X152935000Y-68075000D01*
%TO.N,FIN1*%
X154090000Y-67200000D02*
X154290000Y-67000000D01*
X154290000Y-67000000D02*
X155550000Y-67000000D01*
%TO.N,Net-(U1-PWM10)*%
X151362500Y-67425000D02*
X152845000Y-67425000D01*
X152845000Y-67425000D02*
X153070000Y-67200000D01*
%TO.N,Net-(U1-PWM11)*%
X152495000Y-66775000D02*
X153070000Y-66200000D01*
X151362500Y-66775000D02*
X152495000Y-66775000D01*
%TO.N,FIN2*%
X154090000Y-66200000D02*
X155250000Y-66200000D01*
X155250000Y-66200000D02*
X155550000Y-66500000D01*
%TO.N,Net-(U1-PWM12)*%
X153080000Y-65200000D02*
X152155000Y-66125000D01*
X152155000Y-66125000D02*
X151362500Y-66125000D01*
%TO.N,GIN1*%
X154170060Y-65200000D02*
X154100000Y-65200000D01*
X155500000Y-64000000D02*
X155370060Y-64000000D01*
X155370060Y-64000000D02*
X154170060Y-65200000D01*
%TO.N,GIN2*%
X154090000Y-64200000D02*
X154790000Y-63500000D01*
X154790000Y-63500000D02*
X155500000Y-63500000D01*
%TO.N,Net-(U1-PWM13)*%
X153070000Y-64412498D02*
X152007498Y-65475000D01*
X153070000Y-64200000D02*
X153070000Y-64412498D01*
X152007498Y-65475000D02*
X151362500Y-65475000D01*
%TO.N,HIN1*%
X154290000Y-63000000D02*
X154100000Y-63190000D01*
X155500000Y-63000000D02*
X154290000Y-63000000D01*
%TO.N,Net-(U1-PWM14)*%
X153080000Y-63190000D02*
X152710000Y-63190000D01*
X152175000Y-64825000D02*
X151362500Y-64825000D01*
X152550000Y-63350000D02*
X152550000Y-64450000D01*
X152710000Y-63190000D02*
X152550000Y-63350000D01*
X152550000Y-64450000D02*
X152175000Y-64825000D01*
%TO.N,Net-(U1-PWM15)*%
X152600000Y-62680000D02*
X153080000Y-62200000D01*
X152600000Y-62946446D02*
X152600000Y-62680000D01*
X152099999Y-64175000D02*
X152300000Y-63974999D01*
X152300000Y-63974999D02*
X152300000Y-63246446D01*
X151362500Y-64175000D02*
X152099999Y-64175000D01*
X152300000Y-63246446D02*
X152600000Y-62946446D01*
%TO.N,HIN2*%
X154100000Y-62200000D02*
X155200000Y-62200000D01*
X155200000Y-62200000D02*
X155500000Y-62500000D01*
%TO.N,AD1*%
X148893751Y-53200000D02*
X152100000Y-53200000D01*
X148193750Y-54312500D02*
X148193750Y-53900001D01*
X156150000Y-55200000D02*
X157600000Y-55200000D01*
X152100000Y-53200000D02*
X153400000Y-54500000D01*
X153400000Y-54500000D02*
X155450000Y-54500000D01*
X155450000Y-54500000D02*
X156150000Y-55200000D01*
X148193750Y-53900001D02*
X148893751Y-53200000D01*
%TO.N,AD0*%
X153300000Y-55200000D02*
X153300000Y-54800000D01*
X152000000Y-53500000D02*
X149093751Y-53500000D01*
X153300000Y-54800000D02*
X152000000Y-53500000D01*
X148693750Y-53900001D02*
X148693750Y-54312500D01*
X153300000Y-55200000D02*
X154700000Y-55200000D01*
X149093751Y-53500000D02*
X148693750Y-53900001D01*
D31*
%TO.N,Net-(J6-Pin_1)*%
X139300000Y-68250000D02*
X138800000Y-68750000D01*
X138800000Y-68750000D02*
X138800000Y-70640000D01*
X138800000Y-70640000D02*
X137000000Y-72440000D01*
X139550000Y-68250000D02*
X139300000Y-68250000D01*
%TO.N,Net-(J6-Pin_7)*%
X138450000Y-58650000D02*
X137000000Y-57200000D01*
X139550000Y-63250000D02*
X139150000Y-63250000D01*
X139150000Y-63250000D02*
X138450000Y-62550000D01*
X138450000Y-62550000D02*
X138450000Y-58650000D01*
%TO.N,Net-(J6-Pin_5)*%
X139550000Y-64250000D02*
X138350000Y-64250000D01*
X137000000Y-62900000D02*
X137000000Y-62280000D01*
X138350000Y-64250000D02*
X137000000Y-62900000D01*
%TO.N,Net-(J6-Pin_3)*%
X139440000Y-67360000D02*
X139550000Y-67250000D01*
X137000000Y-67360000D02*
X139440000Y-67360000D01*
%TO.N,A4*%
X155230000Y-53500000D02*
X155750000Y-53500000D01*
X155750000Y-53500000D02*
X156250000Y-54000000D01*
%TD*%
%TA.AperFunction,Conductor*%
%TO.N,A4*%
G36*
X146337027Y-52720185D02*
G01*
X146382782Y-52772989D01*
X146392726Y-52842147D01*
X146371805Y-52890532D01*
X146373889Y-52891842D01*
X146274211Y-53050476D01*
X146214631Y-53220745D01*
X146214630Y-53220750D01*
X146194435Y-53399996D01*
X146194435Y-53400002D01*
X146209247Y-53531463D01*
X146197193Y-53600285D01*
X146184404Y-53620832D01*
X146139907Y-53678822D01*
X146083228Y-53815657D01*
X146083228Y-53815658D01*
X146068750Y-53925622D01*
X146068750Y-54187500D01*
X146444250Y-54187500D01*
X146511289Y-54207185D01*
X146557044Y-54259989D01*
X146568250Y-54311438D01*
X146568250Y-54313440D01*
X146548600Y-54380487D01*
X146495819Y-54426269D01*
X146444251Y-54437500D01*
X146131250Y-54437500D01*
X146131250Y-55001000D01*
X146111565Y-55068039D01*
X146058761Y-55113794D01*
X146007250Y-55125000D01*
X145097124Y-55125000D01*
X145100472Y-55150434D01*
X145089706Y-55219469D01*
X145043327Y-55271725D01*
X144976058Y-55290610D01*
X144967805Y-55290237D01*
X144958447Y-55289500D01*
X144958440Y-55289500D01*
X144549060Y-55289500D01*
X144549052Y-55289500D01*
X144512758Y-55292356D01*
X144512752Y-55292357D01*
X144357359Y-55337504D01*
X144357354Y-55337506D01*
X144336378Y-55349911D01*
X144268653Y-55367092D01*
X144210139Y-55349911D01*
X144189941Y-55337966D01*
X144189940Y-55337965D01*
X144043751Y-55295493D01*
X144043750Y-55295494D01*
X144043750Y-55601645D01*
X144026484Y-55664763D01*
X144021257Y-55673600D01*
X144021254Y-55673608D01*
X143976107Y-55829002D01*
X143976106Y-55829008D01*
X143973250Y-55865302D01*
X143973250Y-56050612D01*
X143953565Y-56117651D01*
X143936931Y-56138293D01*
X143911170Y-56164054D01*
X143849847Y-56197539D01*
X143780155Y-56192555D01*
X143724222Y-56150683D01*
X143700269Y-56090256D01*
X143693335Y-56028716D01*
X143693334Y-56028711D01*
X143684271Y-56002810D01*
X143633755Y-55858444D01*
X143615259Y-55829008D01*
X143562756Y-55745449D01*
X143543750Y-55679477D01*
X143543750Y-55295494D01*
X143543748Y-55295493D01*
X143397559Y-55337965D01*
X143397556Y-55337967D01*
X143258370Y-55420281D01*
X143256400Y-55421810D01*
X143254573Y-55422526D01*
X143251657Y-55424252D01*
X143251378Y-55423781D01*
X143191364Y-55447344D01*
X143139448Y-55440872D01*
X143087219Y-55422597D01*
X142907970Y-55402401D01*
X142907962Y-55402401D01*
X142728716Y-55422596D01*
X142728711Y-55422597D01*
X142558442Y-55482177D01*
X142405703Y-55578150D01*
X142278150Y-55705703D01*
X142182177Y-55858442D01*
X142122597Y-56028711D01*
X142122596Y-56028715D01*
X142103825Y-56195322D01*
X142076759Y-56259735D01*
X142068287Y-56269119D01*
X141911012Y-56426395D01*
X141784490Y-56552917D01*
X141732772Y-56642496D01*
X141712016Y-56678447D01*
X141674500Y-56818457D01*
X141674500Y-56818459D01*
X141674500Y-57375500D01*
X141654815Y-57442539D01*
X141602011Y-57488294D01*
X141550500Y-57499500D01*
X140774998Y-57499500D01*
X140774980Y-57499501D01*
X140672203Y-57510000D01*
X140672200Y-57510001D01*
X140505668Y-57565185D01*
X140505663Y-57565187D01*
X140356342Y-57657289D01*
X140232289Y-57781342D01*
X140140187Y-57930663D01*
X140140186Y-57930666D01*
X140085048Y-58097060D01*
X140055023Y-58145736D01*
X140031461Y-58169298D01*
X139970138Y-58202783D01*
X139957664Y-58204837D01*
X139870748Y-58214630D01*
X139700476Y-58274210D01*
X139590472Y-58343331D01*
X139523235Y-58362331D01*
X139456400Y-58341963D01*
X139411186Y-58288695D01*
X139400500Y-58238337D01*
X139400500Y-56380943D01*
X139399697Y-56377948D01*
X139399692Y-56377929D01*
X139376273Y-56290528D01*
X139375466Y-56287515D01*
X139359577Y-56228216D01*
X139340586Y-56195322D01*
X139280524Y-56091290D01*
X139280521Y-56091286D01*
X139280520Y-56091284D01*
X139168716Y-55979480D01*
X139168715Y-55979479D01*
X139164385Y-55975149D01*
X139164374Y-55975139D01*
X138332766Y-55143531D01*
X138299281Y-55082208D01*
X138300672Y-55023757D01*
X138314810Y-54970993D01*
X138335063Y-54895408D01*
X138336849Y-54875000D01*
X145097123Y-54875000D01*
X145881250Y-54875000D01*
X145881250Y-54375000D01*
X145619372Y-54375000D01*
X145509408Y-54389478D01*
X145509407Y-54389478D01*
X145372574Y-54446156D01*
X145255070Y-54536320D01*
X145164906Y-54653824D01*
X145108228Y-54790657D01*
X145108228Y-54790659D01*
X145097123Y-54875000D01*
X138336849Y-54875000D01*
X138355659Y-54660000D01*
X138353352Y-54633637D01*
X138343243Y-54518090D01*
X138335063Y-54424592D01*
X138273903Y-54196337D01*
X138174035Y-53982171D01*
X138168654Y-53974485D01*
X138038494Y-53788597D01*
X137871402Y-53621506D01*
X137871395Y-53621501D01*
X137677834Y-53485967D01*
X137677830Y-53485965D01*
X137677828Y-53485964D01*
X137463663Y-53386097D01*
X137463659Y-53386096D01*
X137463655Y-53386094D01*
X137235413Y-53324938D01*
X137235403Y-53324936D01*
X137000001Y-53304341D01*
X136999999Y-53304341D01*
X136764596Y-53324936D01*
X136764586Y-53324938D01*
X136536344Y-53386094D01*
X136536335Y-53386098D01*
X136322171Y-53485964D01*
X136322169Y-53485965D01*
X136128597Y-53621505D01*
X135961505Y-53788597D01*
X135825965Y-53982169D01*
X135825964Y-53982171D01*
X135726098Y-54196335D01*
X135726094Y-54196344D01*
X135664938Y-54424586D01*
X135664936Y-54424596D01*
X135644341Y-54659999D01*
X135644341Y-54660000D01*
X135664936Y-54895403D01*
X135664938Y-54895413D01*
X135726094Y-55123655D01*
X135726096Y-55123659D01*
X135726097Y-55123663D01*
X135767386Y-55212207D01*
X135825965Y-55337830D01*
X135825967Y-55337834D01*
X135961501Y-55531395D01*
X135961506Y-55531402D01*
X136128597Y-55698493D01*
X136128603Y-55698498D01*
X136314158Y-55828425D01*
X136357783Y-55883002D01*
X136364977Y-55952500D01*
X136333454Y-56014855D01*
X136314158Y-56031575D01*
X136128597Y-56161505D01*
X135961505Y-56328597D01*
X135825965Y-56522169D01*
X135825964Y-56522171D01*
X135726098Y-56736335D01*
X135726094Y-56736344D01*
X135664938Y-56964586D01*
X135664936Y-56964596D01*
X135644341Y-57199999D01*
X135644341Y-57200000D01*
X135664936Y-57435403D01*
X135664938Y-57435413D01*
X135726094Y-57663655D01*
X135726096Y-57663659D01*
X135726097Y-57663663D01*
X135773496Y-57765310D01*
X135825965Y-57877830D01*
X135825967Y-57877834D01*
X135961501Y-58071395D01*
X135961506Y-58071402D01*
X136128597Y-58238493D01*
X136128603Y-58238498D01*
X136314158Y-58368425D01*
X136357783Y-58423002D01*
X136364977Y-58492500D01*
X136333454Y-58554855D01*
X136314158Y-58571575D01*
X136128597Y-58701505D01*
X135961505Y-58868597D01*
X135825965Y-59062169D01*
X135825964Y-59062171D01*
X135726098Y-59276335D01*
X135726094Y-59276344D01*
X135664938Y-59504586D01*
X135664936Y-59504596D01*
X135644341Y-59739999D01*
X135644341Y-59740000D01*
X135664936Y-59975403D01*
X135664938Y-59975413D01*
X135726094Y-60203655D01*
X135726096Y-60203659D01*
X135726097Y-60203663D01*
X135825965Y-60417830D01*
X135825967Y-60417834D01*
X135961501Y-60611395D01*
X135961506Y-60611402D01*
X136128597Y-60778493D01*
X136128603Y-60778498D01*
X136314158Y-60908425D01*
X136357783Y-60963002D01*
X136364977Y-61032500D01*
X136333454Y-61094855D01*
X136314158Y-61111575D01*
X136128597Y-61241505D01*
X135961505Y-61408597D01*
X135825965Y-61602169D01*
X135825964Y-61602171D01*
X135726098Y-61816335D01*
X135726094Y-61816344D01*
X135664938Y-62044586D01*
X135664936Y-62044596D01*
X135644341Y-62279999D01*
X135644341Y-62280000D01*
X135664936Y-62515403D01*
X135664938Y-62515413D01*
X135726094Y-62743655D01*
X135726096Y-62743659D01*
X135726097Y-62743663D01*
X135745709Y-62785721D01*
X135825965Y-62957830D01*
X135825967Y-62957834D01*
X135961501Y-63151395D01*
X135961506Y-63151402D01*
X136128597Y-63318493D01*
X136128603Y-63318498D01*
X136314158Y-63448425D01*
X136357783Y-63503002D01*
X136364977Y-63572500D01*
X136333454Y-63634855D01*
X136314158Y-63651575D01*
X136128597Y-63781505D01*
X135961505Y-63948597D01*
X135825965Y-64142169D01*
X135825964Y-64142171D01*
X135726098Y-64356335D01*
X135726094Y-64356344D01*
X135664938Y-64584586D01*
X135664936Y-64584596D01*
X135644341Y-64819999D01*
X135644341Y-64820000D01*
X135664936Y-65055403D01*
X135664938Y-65055413D01*
X135726094Y-65283655D01*
X135726096Y-65283659D01*
X135726097Y-65283663D01*
X135803884Y-65450478D01*
X135825965Y-65497830D01*
X135825967Y-65497834D01*
X135961501Y-65691395D01*
X135961506Y-65691402D01*
X136128597Y-65858493D01*
X136128603Y-65858498D01*
X136314158Y-65988425D01*
X136357783Y-66043002D01*
X136364977Y-66112500D01*
X136333454Y-66174855D01*
X136314158Y-66191575D01*
X136128597Y-66321505D01*
X135961505Y-66488597D01*
X135825965Y-66682169D01*
X135825964Y-66682171D01*
X135726098Y-66896335D01*
X135726094Y-66896344D01*
X135664938Y-67124586D01*
X135664936Y-67124596D01*
X135644341Y-67359999D01*
X135644341Y-67360000D01*
X135664936Y-67595403D01*
X135664938Y-67595413D01*
X135726094Y-67823655D01*
X135726096Y-67823659D01*
X135726097Y-67823663D01*
X135778313Y-67935640D01*
X135825965Y-68037830D01*
X135825967Y-68037834D01*
X135829890Y-68043436D01*
X135949573Y-68214361D01*
X135961501Y-68231395D01*
X135961506Y-68231402D01*
X136128597Y-68398493D01*
X136128603Y-68398498D01*
X136314158Y-68528425D01*
X136357783Y-68583002D01*
X136364977Y-68652500D01*
X136333454Y-68714855D01*
X136314158Y-68731575D01*
X136128597Y-68861505D01*
X135961505Y-69028597D01*
X135825965Y-69222169D01*
X135825964Y-69222171D01*
X135726098Y-69436335D01*
X135726094Y-69436344D01*
X135664938Y-69664586D01*
X135664936Y-69664596D01*
X135644341Y-69899999D01*
X135644341Y-69900000D01*
X135664936Y-70135403D01*
X135664938Y-70135413D01*
X135726094Y-70363655D01*
X135726096Y-70363659D01*
X135726097Y-70363663D01*
X135767353Y-70452136D01*
X135825965Y-70577830D01*
X135825967Y-70577834D01*
X135961501Y-70771395D01*
X135961506Y-70771402D01*
X136083430Y-70893326D01*
X136116915Y-70954649D01*
X136111931Y-71024341D01*
X136070059Y-71080274D01*
X136039083Y-71097189D01*
X135907669Y-71146203D01*
X135907664Y-71146206D01*
X135792455Y-71232452D01*
X135792452Y-71232455D01*
X135706206Y-71347664D01*
X135706202Y-71347671D01*
X135655908Y-71482517D01*
X135649501Y-71542116D01*
X135649500Y-71542135D01*
X135649500Y-73337870D01*
X135649501Y-73337876D01*
X135655908Y-73397483D01*
X135706202Y-73532328D01*
X135706206Y-73532335D01*
X135792452Y-73647544D01*
X135792455Y-73647547D01*
X135907664Y-73733793D01*
X135907671Y-73733797D01*
X136042517Y-73784091D01*
X136042516Y-73784091D01*
X136049444Y-73784835D01*
X136102127Y-73790500D01*
X137897872Y-73790499D01*
X137957483Y-73784091D01*
X138092331Y-73733796D01*
X138207546Y-73647546D01*
X138293796Y-73532331D01*
X138344091Y-73397483D01*
X138350500Y-73337873D01*
X138350499Y-71990095D01*
X138370184Y-71923057D01*
X138386813Y-71902420D01*
X138865695Y-71423538D01*
X138927016Y-71390055D01*
X138996708Y-71395039D01*
X139019342Y-71406225D01*
X139044540Y-71422058D01*
X139050478Y-71425789D01*
X139220745Y-71485368D01*
X139220750Y-71485369D01*
X139399996Y-71505565D01*
X139400000Y-71505565D01*
X139400004Y-71505565D01*
X139579249Y-71485369D01*
X139579252Y-71485368D01*
X139579255Y-71485368D01*
X139749522Y-71425789D01*
X139902262Y-71329816D01*
X140029816Y-71202262D01*
X140125789Y-71049522D01*
X140141624Y-71004266D01*
X140170983Y-70957540D01*
X140302755Y-70825768D01*
X140364076Y-70792285D01*
X140376539Y-70790232D01*
X140473972Y-70779255D01*
X140543159Y-70771460D01*
X140543162Y-70771459D01*
X140543164Y-70771459D01*
X140713431Y-70711880D01*
X140713432Y-70711878D01*
X140713438Y-70711877D01*
X140719704Y-70708860D01*
X140720807Y-70711150D01*
X140776733Y-70695332D01*
X140843573Y-70715682D01*
X140888801Y-70768939D01*
X140899500Y-70819326D01*
X140899500Y-72413330D01*
X140899499Y-72413348D01*
X140899499Y-72579054D01*
X140899498Y-72579054D01*
X140940423Y-72731784D01*
X140940423Y-72731786D01*
X140940457Y-72731843D01*
X140940575Y-72732048D01*
X141019477Y-72868712D01*
X141019481Y-72868717D01*
X141138349Y-72987585D01*
X141138355Y-72987590D01*
X141615139Y-73464374D01*
X141615149Y-73464385D01*
X141619479Y-73468715D01*
X141619480Y-73468716D01*
X141731284Y-73580520D01*
X141818095Y-73630639D01*
X141818097Y-73630641D01*
X141847379Y-73647547D01*
X141868215Y-73659577D01*
X141957596Y-73683526D01*
X142017254Y-73719889D01*
X142047784Y-73782736D01*
X142049501Y-73803300D01*
X142049501Y-73875018D01*
X142060000Y-73977796D01*
X142060001Y-73977799D01*
X142094031Y-74080493D01*
X142115186Y-74144334D01*
X142207288Y-74293656D01*
X142331344Y-74417712D01*
X142408035Y-74465015D01*
X142416054Y-74469961D01*
X142462778Y-74521909D01*
X142474001Y-74590872D01*
X142446157Y-74654954D01*
X142388089Y-74693810D01*
X142350957Y-74699500D01*
X135324500Y-74699500D01*
X135257461Y-74679815D01*
X135211706Y-74627011D01*
X135200500Y-74575500D01*
X135200500Y-52824500D01*
X135220185Y-52757461D01*
X135272989Y-52711706D01*
X135324500Y-52700500D01*
X146269988Y-52700500D01*
X146337027Y-52720185D01*
G37*
%TD.AperFunction*%
%TA.AperFunction,Conductor*%
G36*
X144873440Y-74108336D02*
G01*
X144881668Y-74115856D01*
X145020535Y-74254723D01*
X145020540Y-74254727D01*
X145192442Y-74379620D01*
X145360036Y-74465015D01*
X145410832Y-74512990D01*
X145427627Y-74580811D01*
X145405089Y-74646946D01*
X145350374Y-74690397D01*
X145303741Y-74699500D01*
X144449043Y-74699500D01*
X144382004Y-74679815D01*
X144336249Y-74627011D01*
X144326305Y-74557853D01*
X144355330Y-74494297D01*
X144383946Y-74469961D01*
X144391965Y-74465015D01*
X144468656Y-74417712D01*
X144592712Y-74293656D01*
X144684814Y-74144334D01*
X144684814Y-74144331D01*
X144688448Y-74138441D01*
X144740395Y-74091716D01*
X144809358Y-74080493D01*
X144873440Y-74108336D01*
G37*
%TD.AperFunction*%
%TA.AperFunction,Conductor*%
G36*
X147236110Y-73923741D02*
G01*
X147250008Y-73939781D01*
X147369890Y-74104785D01*
X147369894Y-74104790D01*
X147520213Y-74255109D01*
X147681134Y-74372023D01*
X147692184Y-74380051D01*
X147823336Y-74446876D01*
X147858935Y-74465015D01*
X147909731Y-74512990D01*
X147926526Y-74580811D01*
X147903989Y-74646946D01*
X147849273Y-74690397D01*
X147802640Y-74699500D01*
X146496259Y-74699500D01*
X146429220Y-74679815D01*
X146383465Y-74627011D01*
X146373521Y-74557853D01*
X146402546Y-74494297D01*
X146439964Y-74465015D01*
X146607557Y-74379620D01*
X146779459Y-74254727D01*
X146779464Y-74254723D01*
X146929721Y-74104466D01*
X147049371Y-73939781D01*
X147104701Y-73897115D01*
X147174314Y-73891136D01*
X147236110Y-73923741D01*
G37*
%TD.AperFunction*%
%TA.AperFunction,Conductor*%
G36*
X149736420Y-73924166D02*
G01*
X149750313Y-73940199D01*
X149852242Y-74080493D01*
X149869896Y-74104792D01*
X150020213Y-74255109D01*
X150181134Y-74372023D01*
X150192184Y-74380051D01*
X150323336Y-74446876D01*
X150358935Y-74465015D01*
X150409731Y-74512990D01*
X150426526Y-74580811D01*
X150403989Y-74646946D01*
X150349273Y-74690397D01*
X150302640Y-74699500D01*
X148997360Y-74699500D01*
X148930321Y-74679815D01*
X148884566Y-74627011D01*
X148874622Y-74557853D01*
X148903647Y-74494297D01*
X148941065Y-74465015D01*
X148966194Y-74452210D01*
X149107816Y-74380051D01*
X149226728Y-74293657D01*
X149279786Y-74255109D01*
X149279788Y-74255106D01*
X149279792Y-74255104D01*
X149430104Y-74104792D01*
X149549683Y-73940204D01*
X149605011Y-73897540D01*
X149674624Y-73891561D01*
X149736420Y-73924166D01*
G37*
%TD.AperFunction*%
%TA.AperFunction,Conductor*%
G36*
X152236420Y-73924166D02*
G01*
X152250313Y-73940199D01*
X152352242Y-74080493D01*
X152369896Y-74104792D01*
X152520213Y-74255109D01*
X152681134Y-74372023D01*
X152692184Y-74380051D01*
X152823336Y-74446876D01*
X152858935Y-74465015D01*
X152909731Y-74512990D01*
X152926526Y-74580811D01*
X152903989Y-74646946D01*
X152849273Y-74690397D01*
X152802640Y-74699500D01*
X151497360Y-74699500D01*
X151430321Y-74679815D01*
X151384566Y-74627011D01*
X151374622Y-74557853D01*
X151403647Y-74494297D01*
X151441065Y-74465015D01*
X151466194Y-74452210D01*
X151607816Y-74380051D01*
X151726728Y-74293657D01*
X151779786Y-74255109D01*
X151779788Y-74255106D01*
X151779792Y-74255104D01*
X151930104Y-74104792D01*
X152049683Y-73940204D01*
X152105011Y-73897540D01*
X152174624Y-73891561D01*
X152236420Y-73924166D01*
G37*
%TD.AperFunction*%
%TA.AperFunction,Conductor*%
G36*
X162142539Y-52720185D02*
G01*
X162188294Y-52772989D01*
X162199500Y-52824500D01*
X162199500Y-74575500D01*
X162179815Y-74642539D01*
X162127011Y-74688294D01*
X162075500Y-74699500D01*
X153997360Y-74699500D01*
X153930321Y-74679815D01*
X153884566Y-74627011D01*
X153874622Y-74557853D01*
X153903647Y-74494297D01*
X153941065Y-74465015D01*
X153966194Y-74452210D01*
X154107816Y-74380051D01*
X154226728Y-74293657D01*
X154279786Y-74255109D01*
X154279788Y-74255106D01*
X154279792Y-74255104D01*
X154430104Y-74104792D01*
X154430106Y-74104788D01*
X154430109Y-74104786D01*
X154555048Y-73932820D01*
X154555047Y-73932820D01*
X154555051Y-73932816D01*
X154638924Y-73768204D01*
X154686898Y-73717409D01*
X154749409Y-73700500D01*
X156713331Y-73700500D01*
X156713347Y-73700501D01*
X156720943Y-73700501D01*
X156879054Y-73700501D01*
X156879057Y-73700501D01*
X157031785Y-73659577D01*
X157081904Y-73630639D01*
X157168716Y-73580520D01*
X157280520Y-73468716D01*
X157280520Y-73468714D01*
X157290728Y-73458507D01*
X157290730Y-73458504D01*
X157758506Y-72990728D01*
X157758511Y-72990724D01*
X157768714Y-72980520D01*
X157768716Y-72980520D01*
X157880520Y-72868716D01*
X157959435Y-72732029D01*
X157959550Y-72731832D01*
X157959576Y-72731786D01*
X157959577Y-72731785D01*
X158000500Y-72579057D01*
X158000500Y-72420943D01*
X158000500Y-71489097D01*
X158020185Y-71422058D01*
X158072989Y-71376303D01*
X158142147Y-71366359D01*
X158205703Y-71395384D01*
X158212181Y-71401416D01*
X158767233Y-71956468D01*
X158800718Y-72017791D01*
X158799327Y-72076241D01*
X158764939Y-72204583D01*
X158764936Y-72204596D01*
X158744341Y-72439999D01*
X158744341Y-72440000D01*
X158764936Y-72675403D01*
X158764938Y-72675413D01*
X158826094Y-72903655D01*
X158826096Y-72903659D01*
X158826097Y-72903663D01*
X158866698Y-72990732D01*
X158925965Y-73117830D01*
X158925967Y-73117834D01*
X159034281Y-73272521D01*
X159061505Y-73311401D01*
X159228599Y-73478495D01*
X159318212Y-73541243D01*
X159422165Y-73614032D01*
X159422167Y-73614033D01*
X159422170Y-73614035D01*
X159636337Y-73713903D01*
X159636343Y-73713904D01*
X159636344Y-73713905D01*
X159658677Y-73719889D01*
X159864592Y-73775063D01*
X160041034Y-73790500D01*
X160099999Y-73795659D01*
X160100000Y-73795659D01*
X160100001Y-73795659D01*
X160158966Y-73790500D01*
X160335408Y-73775063D01*
X160563663Y-73713903D01*
X160777830Y-73614035D01*
X160971401Y-73478495D01*
X161138495Y-73311401D01*
X161274035Y-73117830D01*
X161373903Y-72903663D01*
X161435063Y-72675408D01*
X161455659Y-72440000D01*
X161435063Y-72204592D01*
X161373903Y-71976337D01*
X161274035Y-71762171D01*
X161269939Y-71756320D01*
X161138494Y-71568597D01*
X160971402Y-71401506D01*
X160971396Y-71401501D01*
X160785842Y-71271575D01*
X160742217Y-71216998D01*
X160735023Y-71147500D01*
X160766546Y-71085145D01*
X160785842Y-71068425D01*
X160890022Y-70995477D01*
X160971401Y-70938495D01*
X161138495Y-70771401D01*
X161274035Y-70577830D01*
X161373903Y-70363663D01*
X161435063Y-70135408D01*
X161455659Y-69900000D01*
X161435063Y-69664592D01*
X161377692Y-69450478D01*
X161373905Y-69436344D01*
X161373904Y-69436343D01*
X161373903Y-69436337D01*
X161274035Y-69222171D01*
X161207984Y-69127839D01*
X161138494Y-69028597D01*
X160971402Y-68861506D01*
X160971396Y-68861501D01*
X160785842Y-68731575D01*
X160742217Y-68676998D01*
X160735023Y-68607500D01*
X160766546Y-68545145D01*
X160785842Y-68528425D01*
X160871796Y-68468239D01*
X160971401Y-68398495D01*
X161138495Y-68231401D01*
X161274035Y-68037830D01*
X161373903Y-67823663D01*
X161435063Y-67595408D01*
X161455659Y-67360000D01*
X161435063Y-67124592D01*
X161378733Y-66914363D01*
X161373905Y-66896344D01*
X161373904Y-66896343D01*
X161373903Y-66896337D01*
X161274035Y-66682171D01*
X161264636Y-66668747D01*
X161138494Y-66488597D01*
X160971402Y-66321506D01*
X160971396Y-66321501D01*
X160785842Y-66191575D01*
X160742217Y-66136998D01*
X160735023Y-66067500D01*
X160766546Y-66005145D01*
X160785842Y-65988425D01*
X160808026Y-65972891D01*
X160971401Y-65858495D01*
X161138495Y-65691401D01*
X161274035Y-65497830D01*
X161373903Y-65283663D01*
X161435063Y-65055408D01*
X161455659Y-64820000D01*
X161435063Y-64584592D01*
X161377054Y-64368096D01*
X161373905Y-64356344D01*
X161373904Y-64356343D01*
X161373903Y-64356337D01*
X161274035Y-64142171D01*
X161266846Y-64131903D01*
X161138494Y-63948597D01*
X160971402Y-63781506D01*
X160971396Y-63781501D01*
X160785842Y-63651575D01*
X160742217Y-63596998D01*
X160735023Y-63527500D01*
X160766546Y-63465145D01*
X160785842Y-63448425D01*
X160880852Y-63381898D01*
X160971401Y-63318495D01*
X161138495Y-63151401D01*
X161274035Y-62957830D01*
X161373903Y-62743663D01*
X161435063Y-62515408D01*
X161455659Y-62280000D01*
X161435063Y-62044592D01*
X161373903Y-61816337D01*
X161274035Y-61602171D01*
X161207994Y-61507853D01*
X161138494Y-61408597D01*
X160971402Y-61241506D01*
X160971396Y-61241501D01*
X160785842Y-61111575D01*
X160742217Y-61056998D01*
X160735023Y-60987500D01*
X160766546Y-60925145D01*
X160785842Y-60908425D01*
X160840456Y-60870184D01*
X160971401Y-60778495D01*
X161138495Y-60611401D01*
X161274035Y-60417830D01*
X161373903Y-60203663D01*
X161435063Y-59975408D01*
X161455659Y-59740000D01*
X161435063Y-59504592D01*
X161373903Y-59276337D01*
X161274035Y-59062171D01*
X161247031Y-59023604D01*
X161138494Y-58868597D01*
X160971402Y-58701506D01*
X160971396Y-58701501D01*
X160785842Y-58571575D01*
X160742217Y-58516998D01*
X160735023Y-58447500D01*
X160766546Y-58385145D01*
X160785842Y-58368425D01*
X160821680Y-58343331D01*
X160971401Y-58238495D01*
X161138495Y-58071401D01*
X161274035Y-57877830D01*
X161373903Y-57663663D01*
X161435063Y-57435408D01*
X161455659Y-57200000D01*
X161435063Y-56964592D01*
X161373903Y-56736337D01*
X161274035Y-56522171D01*
X161263750Y-56507483D01*
X161138496Y-56328600D01*
X161079015Y-56269119D01*
X161016567Y-56206671D01*
X160983084Y-56145351D01*
X160988068Y-56075659D01*
X161029939Y-56019725D01*
X161060915Y-56002810D01*
X161192331Y-55953796D01*
X161307546Y-55867546D01*
X161393796Y-55752331D01*
X161444091Y-55617483D01*
X161450500Y-55557873D01*
X161450499Y-53762128D01*
X161444091Y-53702517D01*
X161435253Y-53678822D01*
X161393797Y-53567671D01*
X161393793Y-53567664D01*
X161307547Y-53452455D01*
X161307544Y-53452452D01*
X161192335Y-53366206D01*
X161192328Y-53366202D01*
X161057482Y-53315908D01*
X161057483Y-53315908D01*
X160997883Y-53309501D01*
X160997881Y-53309500D01*
X160997873Y-53309500D01*
X160997864Y-53309500D01*
X159202129Y-53309500D01*
X159202123Y-53309501D01*
X159142516Y-53315908D01*
X159007671Y-53366202D01*
X159007664Y-53366206D01*
X158892455Y-53452452D01*
X158892452Y-53452455D01*
X158806206Y-53567664D01*
X158806202Y-53567671D01*
X158755908Y-53702517D01*
X158749501Y-53762116D01*
X158749501Y-53762123D01*
X158749500Y-53762135D01*
X158749500Y-55109902D01*
X158729815Y-55176941D01*
X158713181Y-55197583D01*
X158712180Y-55198584D01*
X158650857Y-55232069D01*
X158581165Y-55227085D01*
X158525232Y-55185213D01*
X158500815Y-55119749D01*
X158500499Y-55110903D01*
X158500499Y-54852129D01*
X158500498Y-54852123D01*
X158494091Y-54792516D01*
X158443797Y-54657671D01*
X158443793Y-54657664D01*
X158357547Y-54542455D01*
X158357544Y-54542452D01*
X158242335Y-54456206D01*
X158242328Y-54456202D01*
X158107482Y-54405908D01*
X158107483Y-54405908D01*
X158047883Y-54399501D01*
X158047881Y-54399500D01*
X158047873Y-54399500D01*
X158047864Y-54399500D01*
X157152129Y-54399500D01*
X157152123Y-54399501D01*
X157092516Y-54405908D01*
X156957671Y-54456202D01*
X156957662Y-54456207D01*
X156949307Y-54462462D01*
X156883842Y-54486877D01*
X156815570Y-54472023D01*
X156800693Y-54462462D01*
X156792337Y-54456207D01*
X156792328Y-54456202D01*
X156657482Y-54405908D01*
X156657483Y-54405908D01*
X156597883Y-54399501D01*
X156597881Y-54399500D01*
X156597873Y-54399500D01*
X156597865Y-54399500D01*
X156179387Y-54399500D01*
X156112348Y-54379815D01*
X156091706Y-54363181D01*
X155915840Y-54187315D01*
X155882355Y-54125992D01*
X155887339Y-54056300D01*
X155896789Y-54036512D01*
X155962033Y-53926191D01*
X155962033Y-53926190D01*
X156007144Y-53770918D01*
X156007145Y-53770912D01*
X156008790Y-53750000D01*
X155174500Y-53750000D01*
X155107461Y-53730315D01*
X155061706Y-53677511D01*
X155050500Y-53626000D01*
X155050500Y-53374000D01*
X155070185Y-53306961D01*
X155122989Y-53261206D01*
X155174500Y-53250000D01*
X156008790Y-53250000D01*
X156007145Y-53229089D01*
X155962031Y-53073804D01*
X155879721Y-52934625D01*
X155879714Y-52934616D01*
X155857279Y-52912181D01*
X155823794Y-52850858D01*
X155828778Y-52781166D01*
X155870650Y-52725233D01*
X155936114Y-52700816D01*
X155944960Y-52700500D01*
X162075500Y-52700500D01*
X162142539Y-52720185D01*
G37*
%TD.AperFunction*%
%TA.AperFunction,Conductor*%
G36*
X147080701Y-61480757D02*
G01*
X147096445Y-61497157D01*
X147100515Y-61502260D01*
X147100516Y-61502262D01*
X147228070Y-61629816D01*
X147380810Y-61725789D01*
X147477119Y-61759489D01*
X147551077Y-61785368D01*
X147551081Y-61785369D01*
X147652645Y-61796811D01*
X147689383Y-61800951D01*
X147753797Y-61828017D01*
X147793352Y-61885612D01*
X147799500Y-61924171D01*
X147799500Y-71689281D01*
X147779815Y-71756320D01*
X147731795Y-71799765D01*
X147692185Y-71819947D01*
X147692184Y-71819948D01*
X147520213Y-71944890D01*
X147369894Y-72095209D01*
X147369890Y-72095214D01*
X147250008Y-72260218D01*
X147194678Y-72302884D01*
X147125065Y-72308863D01*
X147063270Y-72276257D01*
X147049372Y-72260218D01*
X146929727Y-72095540D01*
X146929723Y-72095535D01*
X146779464Y-71945276D01*
X146779459Y-71945272D01*
X146607557Y-71820379D01*
X146418215Y-71723903D01*
X146216124Y-71658241D01*
X146150000Y-71647768D01*
X146150000Y-72695854D01*
X146083343Y-72657370D01*
X145962535Y-72625000D01*
X145837465Y-72625000D01*
X145716657Y-72657370D01*
X145650000Y-72695854D01*
X145650000Y-71647768D01*
X145649999Y-71647768D01*
X145583875Y-71658241D01*
X145381784Y-71723903D01*
X145192442Y-71820379D01*
X145020541Y-71945271D01*
X144881668Y-72084144D01*
X144820345Y-72117628D01*
X144750653Y-72112644D01*
X144694720Y-72070772D01*
X144688448Y-72061558D01*
X144635882Y-71976335D01*
X144592712Y-71906344D01*
X144468656Y-71782288D01*
X144319334Y-71690186D01*
X144152797Y-71635001D01*
X144152795Y-71635000D01*
X144050016Y-71624500D01*
X144050009Y-71624500D01*
X142957708Y-71624500D01*
X142890669Y-71604815D01*
X142844914Y-71552011D01*
X142835461Y-71486274D01*
X142834589Y-71486176D01*
X142855565Y-71300003D01*
X142855565Y-71299996D01*
X142835369Y-71120750D01*
X142835367Y-71120742D01*
X142807461Y-71040990D01*
X142800503Y-71000036D01*
X142800503Y-70232940D01*
X142820188Y-70165901D01*
X142836822Y-70145259D01*
X142850112Y-70131969D01*
X142879819Y-70102262D01*
X142975792Y-69949522D01*
X142991880Y-69903543D01*
X143032602Y-69846768D01*
X143097555Y-69821021D01*
X143108922Y-69820499D01*
X143199168Y-69820499D01*
X143199180Y-69820499D01*
X143235204Y-69817665D01*
X143389393Y-69772869D01*
X143446882Y-69738869D01*
X143514602Y-69721688D01*
X143573117Y-69738869D01*
X143630607Y-69772869D01*
X143630610Y-69772869D01*
X143630612Y-69772871D01*
X143784791Y-69817664D01*
X143784794Y-69817664D01*
X143784796Y-69817665D01*
X143820819Y-69820500D01*
X144219180Y-69820499D01*
X144255204Y-69817665D01*
X144409393Y-69772869D01*
X144547598Y-69691135D01*
X144661135Y-69577598D01*
X144724801Y-69469943D01*
X144775867Y-69422263D01*
X144844609Y-69409759D01*
X144847717Y-69410128D01*
X144960676Y-69424999D01*
X145437499Y-69424999D01*
X145437500Y-69424998D01*
X145437500Y-68899499D01*
X145457185Y-68832460D01*
X145509989Y-68786705D01*
X145561500Y-68775499D01*
X145713500Y-68775499D01*
X145780539Y-68795184D01*
X145826294Y-68847988D01*
X145837500Y-68899499D01*
X145837500Y-69424999D01*
X146314324Y-69424999D01*
X146431628Y-69409557D01*
X146431633Y-69409555D01*
X146577585Y-69349100D01*
X146702924Y-69252924D01*
X146799100Y-69127586D01*
X146859555Y-68981631D01*
X146867012Y-68925000D01*
X146649303Y-68925000D01*
X146582264Y-68905315D01*
X146536509Y-68852511D01*
X146526565Y-68783353D01*
X146555590Y-68719797D01*
X146573816Y-68702624D01*
X146577839Y-68699536D01*
X146577841Y-68699536D01*
X146703282Y-68603282D01*
X146716821Y-68585638D01*
X146726125Y-68573513D01*
X146782553Y-68532310D01*
X146824500Y-68525000D01*
X146867010Y-68525000D01*
X146867011Y-68524998D01*
X146859558Y-68468377D01*
X146859554Y-68468365D01*
X146851163Y-68448106D01*
X146843694Y-68378637D01*
X146851164Y-68353199D01*
X146851433Y-68352550D01*
X146860044Y-68331762D01*
X146875500Y-68214361D01*
X146875499Y-67935640D01*
X146860044Y-67818238D01*
X146860042Y-67818234D01*
X146851435Y-67797455D01*
X146843965Y-67727986D01*
X146851435Y-67702545D01*
X146860044Y-67681762D01*
X146875500Y-67564361D01*
X146875499Y-67285640D01*
X146875448Y-67285256D01*
X146870807Y-67250000D01*
X146860044Y-67168238D01*
X146860042Y-67168234D01*
X146851435Y-67147455D01*
X146843965Y-67077986D01*
X146851435Y-67052545D01*
X146855208Y-67043436D01*
X146860044Y-67031762D01*
X146875500Y-66914361D01*
X146875499Y-66635640D01*
X146875006Y-66631898D01*
X146863361Y-66543438D01*
X146860044Y-66518238D01*
X146860042Y-66518234D01*
X146851435Y-66497455D01*
X146843965Y-66427986D01*
X146851435Y-66402545D01*
X146860044Y-66381762D01*
X146875500Y-66264361D01*
X146875499Y-65985640D01*
X146874658Y-65979255D01*
X146870567Y-65948176D01*
X146860044Y-65868238D01*
X146860042Y-65868234D01*
X146852291Y-65849522D01*
X146851434Y-65847454D01*
X146843965Y-65777986D01*
X146851435Y-65752545D01*
X146860044Y-65731762D01*
X146875500Y-65614361D01*
X146875499Y-65335640D01*
X146860044Y-65218238D01*
X146860042Y-65218234D01*
X146851435Y-65197455D01*
X146843965Y-65127986D01*
X146851435Y-65102545D01*
X146853590Y-65097342D01*
X146860044Y-65081762D01*
X146875500Y-64964361D01*
X146875499Y-64685640D01*
X146860044Y-64568238D01*
X146860042Y-64568234D01*
X146851435Y-64547455D01*
X146843965Y-64477986D01*
X146851435Y-64452545D01*
X146860044Y-64431762D01*
X146875500Y-64314361D01*
X146875499Y-64035640D01*
X146875448Y-64035256D01*
X146870807Y-64000000D01*
X146860044Y-63918238D01*
X146851434Y-63897454D01*
X146843965Y-63827986D01*
X146851435Y-63802545D01*
X146855208Y-63793436D01*
X146860044Y-63781762D01*
X146875500Y-63664361D01*
X146875499Y-63385640D01*
X146875499Y-63385636D01*
X146860046Y-63268246D01*
X146860044Y-63268241D01*
X146860044Y-63268238D01*
X146851162Y-63246797D01*
X146843694Y-63177328D01*
X146851164Y-63151890D01*
X146859555Y-63131632D01*
X146859555Y-63131630D01*
X146867012Y-63075000D01*
X146824500Y-63075000D01*
X146757461Y-63055315D01*
X146726125Y-63026487D01*
X146703283Y-62996719D01*
X146703282Y-62996718D01*
X146672860Y-62973374D01*
X146631658Y-62916949D01*
X146627503Y-62847203D01*
X146661714Y-62786282D01*
X146672851Y-62776631D01*
X146703282Y-62753282D01*
X146724288Y-62725907D01*
X146726125Y-62723513D01*
X146782553Y-62682310D01*
X146824500Y-62675000D01*
X146867010Y-62675000D01*
X146867011Y-62674998D01*
X146859558Y-62618377D01*
X146859554Y-62618365D01*
X146851163Y-62598106D01*
X146843694Y-62528637D01*
X146851164Y-62503199D01*
X146860044Y-62481762D01*
X146875500Y-62364361D01*
X146875499Y-62085640D01*
X146860044Y-61968238D01*
X146851434Y-61947454D01*
X146843965Y-61877986D01*
X146851435Y-61852545D01*
X146852688Y-61849520D01*
X146860044Y-61831762D01*
X146875500Y-61714361D01*
X146875499Y-61574470D01*
X146895183Y-61507432D01*
X146947987Y-61461677D01*
X147017145Y-61451733D01*
X147080701Y-61480757D01*
G37*
%TD.AperFunction*%
%TA.AperFunction,Conductor*%
G36*
X154205703Y-71138227D02*
G01*
X154212181Y-71144259D01*
X154297738Y-71229816D01*
X154450478Y-71325789D01*
X154585668Y-71373094D01*
X154620745Y-71385368D01*
X154620750Y-71385369D01*
X154799996Y-71405565D01*
X154800000Y-71405565D01*
X154800004Y-71405565D01*
X154979249Y-71385369D01*
X154979251Y-71385368D01*
X154979255Y-71385368D01*
X154979258Y-71385366D01*
X154979262Y-71385366D01*
X155086987Y-71347671D01*
X155149522Y-71325789D01*
X155239096Y-71269505D01*
X155305068Y-71250500D01*
X155417060Y-71250500D01*
X155484099Y-71270185D01*
X155504741Y-71286819D01*
X155547738Y-71329816D01*
X155621722Y-71376303D01*
X155696898Y-71423540D01*
X155700478Y-71425789D01*
X155849500Y-71477934D01*
X155870745Y-71485368D01*
X155870750Y-71485369D01*
X156049996Y-71505565D01*
X156050000Y-71505565D01*
X156050004Y-71505565D01*
X156229249Y-71485369D01*
X156229252Y-71485368D01*
X156229255Y-71485368D01*
X156399522Y-71425789D01*
X156552262Y-71329816D01*
X156587819Y-71294259D01*
X156649142Y-71260774D01*
X156718834Y-71265758D01*
X156774767Y-71307630D01*
X156799184Y-71373094D01*
X156799500Y-71381940D01*
X156799500Y-72199903D01*
X156779815Y-72266942D01*
X156763181Y-72287584D01*
X156587584Y-72463181D01*
X156526261Y-72496666D01*
X156499903Y-72499500D01*
X154749409Y-72499500D01*
X154682370Y-72479815D01*
X154638924Y-72431795D01*
X154629516Y-72413330D01*
X154555051Y-72267184D01*
X154555049Y-72267181D01*
X154555048Y-72267179D01*
X154430109Y-72095213D01*
X154279786Y-71944890D01*
X154107815Y-71819948D01*
X154107814Y-71819947D01*
X154068205Y-71799765D01*
X154017409Y-71751791D01*
X154000500Y-71689281D01*
X154000500Y-71231940D01*
X154020185Y-71164901D01*
X154072989Y-71119146D01*
X154142147Y-71109202D01*
X154205703Y-71138227D01*
G37*
%TD.AperFunction*%
%TA.AperFunction,Conductor*%
G36*
X149790532Y-64128194D02*
G01*
X149791842Y-64126111D01*
X149797737Y-64129815D01*
X149797738Y-64129816D01*
X149950478Y-64225789D01*
X150048656Y-64260143D01*
X150105431Y-64300863D01*
X150130640Y-64361000D01*
X150139954Y-64431753D01*
X150139957Y-64431765D01*
X150148566Y-64452550D01*
X150156033Y-64522019D01*
X150148566Y-64547450D01*
X150139957Y-64568234D01*
X150139955Y-64568239D01*
X150124500Y-64685638D01*
X150124500Y-64964363D01*
X150139953Y-65081753D01*
X150139957Y-65081765D01*
X150148566Y-65102550D01*
X150156033Y-65172019D01*
X150148566Y-65197450D01*
X150139957Y-65218234D01*
X150139955Y-65218239D01*
X150124500Y-65335638D01*
X150124500Y-65614363D01*
X150139953Y-65731753D01*
X150139957Y-65731765D01*
X150148566Y-65752550D01*
X150156033Y-65822019D01*
X150148566Y-65847450D01*
X150139957Y-65868234D01*
X150139955Y-65868239D01*
X150124500Y-65985638D01*
X150124500Y-66264363D01*
X150139953Y-66381753D01*
X150139957Y-66381765D01*
X150148566Y-66402550D01*
X150156033Y-66472019D01*
X150148566Y-66497450D01*
X150139957Y-66518234D01*
X150139955Y-66518239D01*
X150124500Y-66635638D01*
X150124500Y-66914363D01*
X150139953Y-67031753D01*
X150139957Y-67031765D01*
X150148566Y-67052550D01*
X150156033Y-67122019D01*
X150148566Y-67147450D01*
X150139957Y-67168234D01*
X150139955Y-67168239D01*
X150124500Y-67285638D01*
X150124500Y-67564363D01*
X150139953Y-67681753D01*
X150139957Y-67681765D01*
X150148566Y-67702550D01*
X150156033Y-67772019D01*
X150148566Y-67797450D01*
X150139957Y-67818234D01*
X150139955Y-67818239D01*
X150124500Y-67935638D01*
X150124500Y-68214363D01*
X150139953Y-68331753D01*
X150139957Y-68331765D01*
X150148566Y-68352550D01*
X150156033Y-68422019D01*
X150148566Y-68447450D01*
X150139957Y-68468234D01*
X150139955Y-68468239D01*
X150124500Y-68585638D01*
X150124500Y-68864363D01*
X150139953Y-68981753D01*
X150139956Y-68981762D01*
X150159356Y-69028599D01*
X150200464Y-69127841D01*
X150296718Y-69253282D01*
X150422159Y-69349536D01*
X150568238Y-69410044D01*
X150685639Y-69425500D01*
X152039360Y-69425499D01*
X152039363Y-69425499D01*
X152164821Y-69408984D01*
X152165082Y-69410972D01*
X152224098Y-69412367D01*
X152281967Y-69451519D01*
X152305439Y-69495891D01*
X152347129Y-69639387D01*
X152347131Y-69639393D01*
X152428863Y-69777595D01*
X152428869Y-69777603D01*
X152525175Y-69873909D01*
X152558660Y-69935232D01*
X152553676Y-70004924D01*
X152511804Y-70060857D01*
X152503473Y-70066579D01*
X152497744Y-70070179D01*
X152497737Y-70070184D01*
X152370184Y-70197737D01*
X152274211Y-70350476D01*
X152214631Y-70520745D01*
X152214630Y-70520750D01*
X152194435Y-70699996D01*
X152194435Y-70700003D01*
X152214630Y-70879249D01*
X152214631Y-70879254D01*
X152274211Y-71049523D01*
X152349912Y-71170000D01*
X152370184Y-71202262D01*
X152497738Y-71329816D01*
X152586150Y-71385369D01*
X152650478Y-71425789D01*
X152716454Y-71448875D01*
X152773230Y-71489597D01*
X152798978Y-71554549D01*
X152799500Y-71565917D01*
X152799500Y-71689281D01*
X152779815Y-71756320D01*
X152731795Y-71799765D01*
X152692185Y-71819947D01*
X152692184Y-71819948D01*
X152520213Y-71944890D01*
X152369894Y-72095209D01*
X152369890Y-72095214D01*
X152250318Y-72259793D01*
X152194989Y-72302459D01*
X152125375Y-72308438D01*
X152063580Y-72275833D01*
X152049682Y-72259793D01*
X151930109Y-72095214D01*
X151930105Y-72095209D01*
X151779786Y-71944890D01*
X151607820Y-71819951D01*
X151418414Y-71723444D01*
X151418413Y-71723443D01*
X151418412Y-71723443D01*
X151216243Y-71657754D01*
X151216241Y-71657753D01*
X151216240Y-71657753D01*
X151054957Y-71632208D01*
X151006287Y-71624500D01*
X150793713Y-71624500D01*
X150579887Y-71658366D01*
X150510594Y-71649411D01*
X150472809Y-71623574D01*
X149636819Y-70787583D01*
X149603334Y-70726260D01*
X149600500Y-70699902D01*
X149600500Y-64230012D01*
X149620185Y-64162973D01*
X149672989Y-64117218D01*
X149742147Y-64107274D01*
X149790532Y-64128194D01*
G37*
%TD.AperFunction*%
%TA.AperFunction,Conductor*%
G36*
X155074991Y-61300500D02*
G01*
X155700008Y-61300499D01*
X155740710Y-61296341D01*
X155809403Y-61309110D01*
X155840993Y-61332018D01*
X156190896Y-61681921D01*
X156208208Y-61703630D01*
X156270179Y-61802256D01*
X156270184Y-61802262D01*
X156397738Y-61929816D01*
X156496662Y-61991974D01*
X156550478Y-62025789D01*
X156618346Y-62049537D01*
X156675122Y-62090259D01*
X156700870Y-62155211D01*
X156692746Y-62212069D01*
X156691447Y-62215360D01*
X156699957Y-62241744D01*
X156700000Y-62245016D01*
X156700000Y-62668747D01*
X156691355Y-62714236D01*
X156660122Y-62793436D01*
X156653666Y-62847203D01*
X156649500Y-62881898D01*
X156649500Y-63118102D01*
X156656582Y-63177076D01*
X156660123Y-63206567D01*
X156662070Y-63214268D01*
X156660237Y-63214731D01*
X156665592Y-63274109D01*
X156661396Y-63288397D01*
X156660123Y-63293432D01*
X156657114Y-63318493D01*
X156649500Y-63381898D01*
X156649500Y-63618102D01*
X156651512Y-63634855D01*
X156660123Y-63706567D01*
X156662070Y-63714268D01*
X156660237Y-63714731D01*
X156665592Y-63774109D01*
X156661396Y-63788397D01*
X156660123Y-63793432D01*
X156659029Y-63802545D01*
X156649500Y-63881898D01*
X156649500Y-64118102D01*
X156656582Y-64177076D01*
X156660123Y-64206567D01*
X156662070Y-64214268D01*
X156660237Y-64214731D01*
X156665592Y-64274109D01*
X156661396Y-64288397D01*
X156660123Y-64293432D01*
X156660123Y-64293436D01*
X156649500Y-64381898D01*
X156649500Y-64618102D01*
X156655582Y-64668747D01*
X156660123Y-64706567D01*
X156662070Y-64714268D01*
X156660237Y-64714731D01*
X156665592Y-64774109D01*
X156661396Y-64788397D01*
X156660123Y-64793432D01*
X156656933Y-64819997D01*
X156649500Y-64881898D01*
X156649500Y-65118102D01*
X156653388Y-65150478D01*
X156660122Y-65206561D01*
X156660122Y-65206563D01*
X156660123Y-65206564D01*
X156698362Y-65303530D01*
X156701642Y-65311848D01*
X156707923Y-65381435D01*
X156691281Y-65423309D01*
X156674212Y-65450474D01*
X156614631Y-65620745D01*
X156614630Y-65620750D01*
X156594435Y-65799996D01*
X156594435Y-65800003D01*
X156614630Y-65979249D01*
X156614631Y-65979254D01*
X156674211Y-66149524D01*
X156730993Y-66239890D01*
X156750000Y-66305863D01*
X156750000Y-66668747D01*
X156741355Y-66714236D01*
X156710122Y-66793436D01*
X156703485Y-66848713D01*
X156699500Y-66881898D01*
X156699500Y-67118102D01*
X156703025Y-67147455D01*
X156710123Y-67206567D01*
X156712070Y-67214268D01*
X156710237Y-67214731D01*
X156715592Y-67274109D01*
X156711396Y-67288397D01*
X156710123Y-67293432D01*
X156705401Y-67332752D01*
X156699500Y-67381898D01*
X156699500Y-67618102D01*
X156701599Y-67635578D01*
X156710123Y-67706567D01*
X156712070Y-67714268D01*
X156710237Y-67714731D01*
X156715592Y-67774109D01*
X156711396Y-67788397D01*
X156710123Y-67793432D01*
X156706494Y-67823655D01*
X156699500Y-67881898D01*
X156699500Y-68118102D01*
X156701157Y-68131898D01*
X156710123Y-68206567D01*
X156712070Y-68214268D01*
X156710237Y-68214731D01*
X156715592Y-68274109D01*
X156711396Y-68288397D01*
X156710123Y-68293432D01*
X156710123Y-68293436D01*
X156699500Y-68381898D01*
X156699500Y-68618102D01*
X156700929Y-68630000D01*
X156710123Y-68706567D01*
X156712070Y-68714268D01*
X156710237Y-68714731D01*
X156715592Y-68774109D01*
X156711396Y-68788397D01*
X156710123Y-68793432D01*
X156705437Y-68832460D01*
X156699500Y-68881898D01*
X156699500Y-69118102D01*
X156700670Y-69127841D01*
X156710122Y-69206561D01*
X156710122Y-69206563D01*
X156710123Y-69206564D01*
X156728546Y-69253282D01*
X156732362Y-69262957D01*
X156738643Y-69332544D01*
X156722001Y-69374418D01*
X156674213Y-69450472D01*
X156674209Y-69450481D01*
X156614633Y-69620737D01*
X156614630Y-69620750D01*
X156594435Y-69799996D01*
X156594435Y-69800000D01*
X156598107Y-69832598D01*
X156601580Y-69863418D01*
X156589524Y-69932240D01*
X156542174Y-69983619D01*
X156474564Y-70001242D01*
X156412388Y-69982295D01*
X156399522Y-69974211D01*
X156383581Y-69968633D01*
X156326805Y-69927911D01*
X156301058Y-69862958D01*
X156301315Y-69837710D01*
X156305565Y-69800000D01*
X156305565Y-69799996D01*
X156285369Y-69620750D01*
X156285368Y-69620745D01*
X156225338Y-69449189D01*
X156221777Y-69379410D01*
X156231250Y-69355233D01*
X156231249Y-69355233D01*
X156231544Y-69354484D01*
X156234299Y-69347452D01*
X156234357Y-69347346D01*
X156234361Y-69347342D01*
X156289877Y-69206564D01*
X156300500Y-69118102D01*
X156300500Y-68881898D01*
X156289877Y-68793436D01*
X156282804Y-68775499D01*
X156258645Y-68714236D01*
X156250000Y-68668747D01*
X156250000Y-68331249D01*
X156258645Y-68285761D01*
X156289877Y-68206564D01*
X156300500Y-68118102D01*
X156300500Y-67881898D01*
X156289877Y-67793436D01*
X156289875Y-67793432D01*
X156287927Y-67785721D01*
X156289764Y-67785256D01*
X156284405Y-67725907D01*
X156288590Y-67711653D01*
X156289874Y-67706569D01*
X156289877Y-67706564D01*
X156300500Y-67618102D01*
X156300500Y-67381898D01*
X156289877Y-67293436D01*
X156289875Y-67293432D01*
X156287927Y-67285721D01*
X156289764Y-67285256D01*
X156284405Y-67225907D01*
X156288590Y-67211653D01*
X156289874Y-67206569D01*
X156289877Y-67206564D01*
X156300500Y-67118102D01*
X156300500Y-66881898D01*
X156289877Y-66793436D01*
X156289875Y-66793432D01*
X156287927Y-66785721D01*
X156289764Y-66785256D01*
X156284405Y-66725907D01*
X156288590Y-66711653D01*
X156289874Y-66706569D01*
X156289877Y-66706564D01*
X156300500Y-66618102D01*
X156300500Y-66381898D01*
X156289877Y-66293436D01*
X156249657Y-66191445D01*
X156243375Y-66121859D01*
X156247970Y-66105000D01*
X156300366Y-65955262D01*
X156300369Y-65955249D01*
X156320565Y-65776003D01*
X156320565Y-65775996D01*
X156300369Y-65596750D01*
X156300368Y-65596745D01*
X156267803Y-65503680D01*
X156240789Y-65426478D01*
X156220315Y-65393895D01*
X156201316Y-65326663D01*
X156209955Y-65282439D01*
X156239877Y-65206564D01*
X156250500Y-65118102D01*
X156250500Y-64881898D01*
X156239877Y-64793436D01*
X156237890Y-64788397D01*
X156208645Y-64714236D01*
X156200000Y-64668747D01*
X156200000Y-64331249D01*
X156208645Y-64285761D01*
X156239877Y-64206564D01*
X156250500Y-64118102D01*
X156250500Y-63881898D01*
X156239877Y-63793436D01*
X156239875Y-63793432D01*
X156237927Y-63785721D01*
X156239764Y-63785256D01*
X156234405Y-63725907D01*
X156238590Y-63711653D01*
X156239874Y-63706569D01*
X156239877Y-63706564D01*
X156250500Y-63618102D01*
X156250500Y-63381898D01*
X156239877Y-63293436D01*
X156239875Y-63293432D01*
X156237927Y-63285721D01*
X156239764Y-63285256D01*
X156234405Y-63225907D01*
X156238590Y-63211653D01*
X156239874Y-63206569D01*
X156239877Y-63206564D01*
X156250500Y-63118102D01*
X156250500Y-62881898D01*
X156239877Y-62793436D01*
X156239875Y-62793432D01*
X156237927Y-62785721D01*
X156239764Y-62785256D01*
X156234405Y-62725907D01*
X156238590Y-62711653D01*
X156239874Y-62706569D01*
X156239877Y-62706564D01*
X156250500Y-62618102D01*
X156250500Y-62381898D01*
X156239877Y-62293436D01*
X156184361Y-62152658D01*
X156184360Y-62152657D01*
X156184360Y-62152656D01*
X156092922Y-62032077D01*
X155972343Y-61940639D01*
X155869289Y-61900000D01*
X155831564Y-61885123D01*
X155831563Y-61885122D01*
X155831561Y-61885122D01*
X155785926Y-61879642D01*
X155743102Y-61874500D01*
X155743097Y-61874500D01*
X155704387Y-61874500D01*
X155637348Y-61854815D01*
X155616706Y-61838181D01*
X155538016Y-61759491D01*
X155538015Y-61759490D01*
X155412485Y-61687016D01*
X155342323Y-61668216D01*
X155342322Y-61668215D01*
X155291190Y-61654514D01*
X155272475Y-61649500D01*
X155272474Y-61649500D01*
X154994564Y-61649500D01*
X154927525Y-61629815D01*
X154881770Y-61577011D01*
X154871826Y-61507853D01*
X154875488Y-61490903D01*
X154877167Y-61485123D01*
X154879999Y-61449135D01*
X154880000Y-61449120D01*
X154880000Y-61417893D01*
X154899685Y-61350854D01*
X154952489Y-61305099D01*
X155016603Y-61294535D01*
X155074991Y-61300500D01*
G37*
%TD.AperFunction*%
%TA.AperFunction,Conductor*%
G36*
X140566203Y-61354348D02*
G01*
X140610161Y-61368914D01*
X140667606Y-61408686D01*
X140694430Y-61473202D01*
X140694392Y-61493037D01*
X140694435Y-61493037D01*
X140694435Y-61500003D01*
X140714630Y-61679249D01*
X140714632Y-61679257D01*
X140764798Y-61822624D01*
X140768359Y-61892403D01*
X140763111Y-61909068D01*
X140710122Y-62043438D01*
X140705055Y-62085638D01*
X140699500Y-62131898D01*
X140699500Y-62368102D01*
X140701544Y-62385123D01*
X140710122Y-62456563D01*
X140717751Y-62475907D01*
X140741354Y-62535761D01*
X140750000Y-62581249D01*
X140750000Y-62918747D01*
X140741355Y-62964236D01*
X140710122Y-63043436D01*
X140703485Y-63098713D01*
X140699500Y-63131898D01*
X140699500Y-63368102D01*
X140706582Y-63427076D01*
X140710123Y-63456567D01*
X140712070Y-63464268D01*
X140710237Y-63464731D01*
X140715592Y-63524109D01*
X140711396Y-63538397D01*
X140710123Y-63543432D01*
X140706633Y-63572500D01*
X140699500Y-63631898D01*
X140699500Y-63868102D01*
X140702293Y-63891360D01*
X140710123Y-63956567D01*
X140712070Y-63964268D01*
X140710237Y-63964731D01*
X140715592Y-64024109D01*
X140711396Y-64038397D01*
X140710123Y-64043432D01*
X140705401Y-64082752D01*
X140699500Y-64131898D01*
X140699500Y-64368102D01*
X140705764Y-64420268D01*
X140710123Y-64456567D01*
X140712070Y-64464268D01*
X140710237Y-64464731D01*
X140715592Y-64524109D01*
X140711396Y-64538397D01*
X140710123Y-64543432D01*
X140705582Y-64581249D01*
X140699500Y-64631898D01*
X140699500Y-64868102D01*
X140703165Y-64898624D01*
X140710122Y-64956561D01*
X140710122Y-64956563D01*
X140710123Y-64956564D01*
X140713198Y-64964361D01*
X140763111Y-65090932D01*
X140769392Y-65160519D01*
X140764798Y-65177376D01*
X140714632Y-65320742D01*
X140714630Y-65320750D01*
X140694435Y-65499996D01*
X140694435Y-65500003D01*
X140714630Y-65679249D01*
X140714632Y-65679257D01*
X140764798Y-65822624D01*
X140768359Y-65892403D01*
X140763111Y-65909068D01*
X140710122Y-66043438D01*
X140707233Y-66067500D01*
X140699500Y-66131898D01*
X140699500Y-66368102D01*
X140703636Y-66402545D01*
X140710122Y-66456563D01*
X140717751Y-66475907D01*
X140741354Y-66535761D01*
X140750000Y-66581249D01*
X140750000Y-66918747D01*
X140741355Y-66964236D01*
X140710122Y-67043436D01*
X140705974Y-67077986D01*
X140699500Y-67131898D01*
X140699500Y-67368102D01*
X140706582Y-67427076D01*
X140710123Y-67456567D01*
X140712070Y-67464268D01*
X140710237Y-67464731D01*
X140715592Y-67524109D01*
X140711396Y-67538397D01*
X140710123Y-67543432D01*
X140703882Y-67595408D01*
X140701158Y-67618096D01*
X140699499Y-67631908D01*
X140699409Y-67633417D01*
X140699272Y-67633795D01*
X140699059Y-67635576D01*
X140698649Y-67635526D01*
X140675750Y-67699159D01*
X140620304Y-67741673D01*
X140575631Y-67750000D01*
X140424369Y-67750000D01*
X140357330Y-67730315D01*
X140311575Y-67677511D01*
X140301123Y-67635556D01*
X140300942Y-67635578D01*
X140300767Y-67634126D01*
X140300591Y-67633417D01*
X140300500Y-67631908D01*
X140300500Y-67631898D01*
X140289877Y-67543436D01*
X140289875Y-67543432D01*
X140287927Y-67535721D01*
X140289764Y-67535256D01*
X140284405Y-67475907D01*
X140288590Y-67461653D01*
X140289874Y-67456569D01*
X140289877Y-67456564D01*
X140300500Y-67368102D01*
X140300500Y-67131898D01*
X140289877Y-67043436D01*
X140289875Y-67043432D01*
X140287927Y-67035721D01*
X140289764Y-67035256D01*
X140284405Y-66975907D01*
X140288590Y-66961653D01*
X140289874Y-66956569D01*
X140289877Y-66956564D01*
X140300500Y-66868102D01*
X140300500Y-66631898D01*
X140289877Y-66543436D01*
X140289875Y-66543432D01*
X140287927Y-66535721D01*
X140289764Y-66535256D01*
X140284405Y-66475907D01*
X140288590Y-66461653D01*
X140289874Y-66456569D01*
X140289877Y-66456564D01*
X140300500Y-66368102D01*
X140300500Y-66131898D01*
X140289877Y-66043436D01*
X140279751Y-66017760D01*
X140273470Y-65948176D01*
X140290111Y-65906301D01*
X140325789Y-65849522D01*
X140385368Y-65679255D01*
X140391960Y-65620750D01*
X140405565Y-65500003D01*
X140405565Y-65499996D01*
X140385369Y-65320750D01*
X140385366Y-65320737D01*
X140325790Y-65150481D01*
X140325789Y-65150478D01*
X140269006Y-65060108D01*
X140250000Y-64994136D01*
X140250000Y-64581249D01*
X140258645Y-64535761D01*
X140289877Y-64456564D01*
X140300500Y-64368102D01*
X140300500Y-64131898D01*
X140289877Y-64043436D01*
X140289875Y-64043432D01*
X140287927Y-64035721D01*
X140289764Y-64035256D01*
X140284405Y-63975907D01*
X140288590Y-63961653D01*
X140289874Y-63956569D01*
X140289877Y-63956564D01*
X140300500Y-63868102D01*
X140300500Y-63631898D01*
X140289877Y-63543436D01*
X140289875Y-63543432D01*
X140287927Y-63535721D01*
X140289764Y-63535256D01*
X140284405Y-63475907D01*
X140288590Y-63461653D01*
X140289874Y-63456569D01*
X140289877Y-63456564D01*
X140300500Y-63368102D01*
X140300500Y-63131898D01*
X140299330Y-63122159D01*
X140289877Y-63043438D01*
X140289877Y-63043436D01*
X140289875Y-63043432D01*
X140287927Y-63035721D01*
X140289764Y-63035256D01*
X140284405Y-62975907D01*
X140288590Y-62961653D01*
X140289874Y-62956569D01*
X140289877Y-62956564D01*
X140300500Y-62868102D01*
X140300500Y-62631898D01*
X140289877Y-62543436D01*
X140289875Y-62543432D01*
X140287927Y-62535721D01*
X140289764Y-62535256D01*
X140284405Y-62475907D01*
X140288590Y-62461653D01*
X140289874Y-62456569D01*
X140289877Y-62456564D01*
X140300500Y-62368102D01*
X140300500Y-62131898D01*
X140289877Y-62043436D01*
X140279751Y-62017760D01*
X140273470Y-61948176D01*
X140290111Y-61906301D01*
X140325789Y-61849522D01*
X140385368Y-61679255D01*
X140390939Y-61629815D01*
X140404680Y-61507853D01*
X140405565Y-61500000D01*
X140403980Y-61485938D01*
X140416032Y-61417120D01*
X140463379Y-61365739D01*
X140530989Y-61348112D01*
X140566203Y-61354348D01*
G37*
%TD.AperFunction*%
%TA.AperFunction,Conductor*%
G36*
X154065455Y-58966022D02*
G01*
X154120737Y-58985366D01*
X154120749Y-58985369D01*
X154209245Y-58995339D01*
X154219883Y-58996538D01*
X154284297Y-59023604D01*
X154323852Y-59081198D01*
X154330000Y-59119758D01*
X154330000Y-59342253D01*
X154357166Y-59392004D01*
X154360000Y-59418362D01*
X154360000Y-61255500D01*
X154340315Y-61322539D01*
X154287511Y-61368294D01*
X154236000Y-61379500D01*
X153984499Y-61379500D01*
X153917460Y-61359815D01*
X153871705Y-61307011D01*
X153860499Y-61255500D01*
X153860499Y-60950831D01*
X153860498Y-60950806D01*
X153860382Y-60949332D01*
X153860000Y-60939607D01*
X153860000Y-60460408D01*
X153860382Y-60450679D01*
X153860500Y-60449181D01*
X153860499Y-59950820D01*
X153857665Y-59914796D01*
X153834924Y-59836520D01*
X153830000Y-59801925D01*
X153830000Y-59698352D01*
X153847267Y-59635233D01*
X153852494Y-59626395D01*
X153871608Y-59560607D01*
X153897642Y-59470997D01*
X153897643Y-59470991D01*
X153897647Y-59470938D01*
X153900500Y-59434690D01*
X153900500Y-59083063D01*
X153920185Y-59016024D01*
X153972989Y-58970269D01*
X154042147Y-58960325D01*
X154065455Y-58966022D01*
G37*
%TD.AperFunction*%
%TA.AperFunction,Conductor*%
G36*
X142980703Y-57912130D02*
G01*
X142987181Y-57918162D01*
X142996267Y-57927248D01*
X143081471Y-57980784D01*
X143127763Y-58033118D01*
X143139500Y-58085777D01*
X143139500Y-58249170D01*
X143139501Y-58249182D01*
X143139618Y-58250663D01*
X143140000Y-58260393D01*
X143140000Y-58739591D01*
X143139618Y-58749316D01*
X143139500Y-58750803D01*
X143139500Y-59249170D01*
X143139501Y-59249182D01*
X143139618Y-59250663D01*
X143140000Y-59260393D01*
X143140000Y-59670764D01*
X143135078Y-59705355D01*
X143132335Y-59714795D01*
X143132334Y-59714802D01*
X143129500Y-59750811D01*
X143129500Y-60249169D01*
X143129501Y-60249191D01*
X143132334Y-60285201D01*
X143132335Y-60285204D01*
X143135076Y-60294641D01*
X143140000Y-60329233D01*
X143140000Y-60670020D01*
X143133042Y-60710974D01*
X143094632Y-60820742D01*
X143094630Y-60820750D01*
X143074435Y-60999996D01*
X143079124Y-61041618D01*
X143067068Y-61110440D01*
X143019718Y-61161819D01*
X142955903Y-61179500D01*
X142866441Y-61179500D01*
X142799402Y-61159815D01*
X142753647Y-61107011D01*
X142743703Y-61037853D01*
X142746664Y-61023414D01*
X142775500Y-60915799D01*
X142775500Y-58005843D01*
X142795185Y-57938804D01*
X142847989Y-57893049D01*
X142917147Y-57883105D01*
X142980703Y-57912130D01*
G37*
%TD.AperFunction*%
%TA.AperFunction,Conductor*%
G36*
X150023953Y-58421674D02*
G01*
X150030431Y-58427706D01*
X150043235Y-58440510D01*
X150142358Y-58497738D01*
X150146844Y-58500328D01*
X150195060Y-58550895D01*
X150208283Y-58619502D01*
X150182314Y-58684367D01*
X150172526Y-58695396D01*
X150070183Y-58797739D01*
X149974211Y-58950476D01*
X149914631Y-59120745D01*
X149914630Y-59120749D01*
X149911248Y-59150772D01*
X149884181Y-59215186D01*
X149826586Y-59254741D01*
X149756749Y-59256878D01*
X149696843Y-59220919D01*
X149683034Y-59202860D01*
X149679815Y-59197737D01*
X149623495Y-59141417D01*
X149590010Y-59080094D01*
X149594994Y-59010402D01*
X149635693Y-58955358D01*
X149657428Y-58938681D01*
X149747593Y-58821175D01*
X149804271Y-58684342D01*
X149804271Y-58684341D01*
X149818749Y-58574377D01*
X149818750Y-58574363D01*
X149818750Y-58515387D01*
X149838435Y-58448348D01*
X149891239Y-58402593D01*
X149960397Y-58392649D01*
X150023953Y-58421674D01*
G37*
%TD.AperFunction*%
%TA.AperFunction,Conductor*%
G36*
X148476264Y-55209501D02*
G01*
X148476424Y-55208905D01*
X148484274Y-55211008D01*
X148484276Y-55211008D01*
X148484278Y-55211009D01*
X148594349Y-55225500D01*
X148793150Y-55225499D01*
X148835093Y-55219977D01*
X148904126Y-55230742D01*
X148956382Y-55277122D01*
X148975268Y-55344391D01*
X148974216Y-55359100D01*
X148972122Y-55374999D01*
X148972124Y-55375000D01*
X149000244Y-55375000D01*
X149067283Y-55394685D01*
X149098612Y-55423503D01*
X149100147Y-55425503D01*
X149125348Y-55490669D01*
X149111317Y-55559116D01*
X149062509Y-55609111D01*
X149001779Y-55625000D01*
X148972124Y-55625000D01*
X148983228Y-55709340D01*
X148985332Y-55717193D01*
X148982097Y-55718059D01*
X148987862Y-55772126D01*
X148984769Y-55782656D01*
X148985332Y-55782807D01*
X148983228Y-55790659D01*
X148972123Y-55875000D01*
X149756250Y-55875000D01*
X149756250Y-55749499D01*
X149775935Y-55682460D01*
X149828739Y-55636705D01*
X149880247Y-55625499D01*
X149882251Y-55625499D01*
X149949289Y-55645184D01*
X149995044Y-55697988D01*
X150006250Y-55749499D01*
X150006250Y-56250500D01*
X149986565Y-56317539D01*
X149933761Y-56363294D01*
X149882250Y-56374500D01*
X149880250Y-56374500D01*
X149813211Y-56354815D01*
X149767456Y-56302011D01*
X149756250Y-56250500D01*
X149756250Y-56125000D01*
X148972124Y-56125000D01*
X148983228Y-56209340D01*
X148985332Y-56217193D01*
X148982097Y-56218059D01*
X148987862Y-56272126D01*
X148984769Y-56282656D01*
X148985332Y-56282807D01*
X148983228Y-56290659D01*
X148972123Y-56375000D01*
X149001779Y-56375000D01*
X149068818Y-56394685D01*
X149114573Y-56447489D01*
X149124517Y-56516647D01*
X149100147Y-56574497D01*
X149098612Y-56576497D01*
X149042179Y-56617694D01*
X149000244Y-56625000D01*
X148972124Y-56625000D01*
X148983228Y-56709346D01*
X148985332Y-56717197D01*
X148982063Y-56718072D01*
X148987398Y-56772512D01*
X148984400Y-56782554D01*
X148984845Y-56782673D01*
X148982741Y-56790524D01*
X148968250Y-56900598D01*
X148968250Y-57099396D01*
X148973705Y-57140833D01*
X148962937Y-57209868D01*
X148916556Y-57262123D01*
X148849286Y-57281006D01*
X148834580Y-57279954D01*
X148793151Y-57274500D01*
X148594346Y-57274500D01*
X148484281Y-57288989D01*
X148476428Y-57291094D01*
X148475552Y-57287824D01*
X148421603Y-57293567D01*
X148411227Y-57290518D01*
X148411073Y-57291095D01*
X148403220Y-57288990D01*
X148293151Y-57274500D01*
X148094346Y-57274500D01*
X147984281Y-57288989D01*
X147976428Y-57291094D01*
X147975552Y-57287824D01*
X147921603Y-57293567D01*
X147911227Y-57290518D01*
X147911073Y-57291095D01*
X147903220Y-57288990D01*
X147793151Y-57274500D01*
X147594346Y-57274500D01*
X147484281Y-57288989D01*
X147476428Y-57291094D01*
X147475552Y-57287824D01*
X147421603Y-57293567D01*
X147411227Y-57290518D01*
X147411073Y-57291095D01*
X147403220Y-57288990D01*
X147293151Y-57274500D01*
X147094353Y-57274500D01*
X147052916Y-57279955D01*
X146983881Y-57269187D01*
X146931626Y-57222805D01*
X146912743Y-57155536D01*
X146913795Y-57140833D01*
X146919250Y-57099401D01*
X146919249Y-56900600D01*
X146904759Y-56790528D01*
X146904758Y-56790525D01*
X146902655Y-56782674D01*
X146905957Y-56781789D01*
X146900142Y-56728075D01*
X146903251Y-56717485D01*
X146902655Y-56717326D01*
X146904758Y-56709475D01*
X146904758Y-56709474D01*
X146904759Y-56709472D01*
X146919250Y-56599401D01*
X146919249Y-56400600D01*
X146918470Y-56394685D01*
X146909771Y-56328600D01*
X146904759Y-56290528D01*
X146904758Y-56290525D01*
X146902655Y-56282674D01*
X146905957Y-56281789D01*
X146900142Y-56228075D01*
X146903251Y-56217485D01*
X146902655Y-56217326D01*
X146904758Y-56209475D01*
X146904758Y-56209474D01*
X146904759Y-56209472D01*
X146919250Y-56099401D01*
X146919249Y-55900600D01*
X146919249Y-55900596D01*
X146904761Y-55790536D01*
X146902656Y-55782682D01*
X146905757Y-55781850D01*
X146899878Y-55727382D01*
X146902897Y-55717389D01*
X146902168Y-55717194D01*
X146904271Y-55709342D01*
X146915376Y-55625000D01*
X146887256Y-55625000D01*
X146820217Y-55605315D01*
X146788888Y-55576497D01*
X146787353Y-55574497D01*
X146762152Y-55509331D01*
X146776183Y-55440884D01*
X146824991Y-55390889D01*
X146885721Y-55375000D01*
X146915376Y-55375000D01*
X146913283Y-55359103D01*
X146924048Y-55290068D01*
X146970428Y-55237812D01*
X147037697Y-55218926D01*
X147052401Y-55219977D01*
X147094349Y-55225500D01*
X147293150Y-55225499D01*
X147293151Y-55225499D01*
X147309837Y-55223302D01*
X147403222Y-55211009D01*
X147403225Y-55211007D01*
X147411076Y-55208905D01*
X147411960Y-55212207D01*
X147465675Y-55206392D01*
X147476264Y-55209501D01*
X147476424Y-55208905D01*
X147484274Y-55211008D01*
X147484276Y-55211008D01*
X147484278Y-55211009D01*
X147594349Y-55225500D01*
X147793150Y-55225499D01*
X147793151Y-55225499D01*
X147809837Y-55223302D01*
X147903222Y-55211009D01*
X147903225Y-55211007D01*
X147911076Y-55208905D01*
X147911960Y-55212207D01*
X147965675Y-55206392D01*
X147976264Y-55209501D01*
X147976424Y-55208905D01*
X147984274Y-55211008D01*
X147984276Y-55211008D01*
X147984278Y-55211009D01*
X148094349Y-55225500D01*
X148293150Y-55225499D01*
X148293151Y-55225499D01*
X148309837Y-55223302D01*
X148403222Y-55211009D01*
X148403225Y-55211007D01*
X148411076Y-55208905D01*
X148411960Y-55212207D01*
X148465675Y-55206392D01*
X148476264Y-55209501D01*
G37*
%TD.AperFunction*%
%TA.AperFunction,Conductor*%
G36*
X152187151Y-54469685D02*
G01*
X152207793Y-54486318D01*
X152267431Y-54545955D01*
X152300916Y-54607278D01*
X152303750Y-54633637D01*
X152303750Y-56105702D01*
X152284065Y-56172741D01*
X152267431Y-56193383D01*
X152247133Y-56213681D01*
X152185810Y-56247166D01*
X152159452Y-56250000D01*
X151998250Y-56250000D01*
X151931211Y-56230315D01*
X151885456Y-56177511D01*
X151874250Y-56126000D01*
X151874250Y-55765317D01*
X151874249Y-55765302D01*
X151873228Y-55752331D01*
X151871393Y-55729007D01*
X151868212Y-55718059D01*
X151826245Y-55573608D01*
X151826242Y-55573600D01*
X151821016Y-55564763D01*
X151803750Y-55501645D01*
X151803750Y-55198352D01*
X151821017Y-55135233D01*
X151826244Y-55126395D01*
X151826650Y-55125000D01*
X151871392Y-54970997D01*
X151871393Y-54970991D01*
X151874249Y-54934697D01*
X151874250Y-54934690D01*
X151874250Y-54574000D01*
X151893935Y-54506961D01*
X151946739Y-54461206D01*
X151998250Y-54450000D01*
X152120112Y-54450000D01*
X152187151Y-54469685D01*
G37*
%TD.AperFunction*%
%TD*%
M02*
