%TF.GenerationSoftware,KiCad,Pcbnew,8.0.5*%
%TF.CreationDate,2024-12-01T15:07:40+09:00*%
%TF.ProjectId,PCA9685_ver4,50434139-3638-4355-9f76-6572342e6b69,rev?*%
%TF.SameCoordinates,Original*%
%TF.FileFunction,Drillmap*%
%TF.FilePolarity,Positive*%
%FSLAX45Y45*%
G04 Gerber Fmt 4.5, Leading zero omitted, Abs format (unit mm)*
G04 Created by KiCad (PCBNEW 8.0.5) date 2024-12-01 15:07:40*
%MOMM*%
%LPD*%
G01*
G04 APERTURE LIST*
%ADD10C,0.050000*%
%ADD11C,0.200000*%
G04 APERTURE END LIST*
D10*
X13470000Y-5220000D02*
X16270000Y-5220000D01*
X16270000Y-7520000D01*
X13470000Y-7520000D01*
X13470000Y-5220000D01*
D11*
X13728277Y-7833984D02*
X13728277Y-7633984D01*
X13728277Y-7633984D02*
X13775896Y-7633984D01*
X13775896Y-7633984D02*
X13804467Y-7643508D01*
X13804467Y-7643508D02*
X13823515Y-7662555D01*
X13823515Y-7662555D02*
X13833039Y-7681603D01*
X13833039Y-7681603D02*
X13842562Y-7719698D01*
X13842562Y-7719698D02*
X13842562Y-7748269D01*
X13842562Y-7748269D02*
X13833039Y-7786365D01*
X13833039Y-7786365D02*
X13823515Y-7805412D01*
X13823515Y-7805412D02*
X13804467Y-7824460D01*
X13804467Y-7824460D02*
X13775896Y-7833984D01*
X13775896Y-7833984D02*
X13728277Y-7833984D01*
X13928277Y-7833984D02*
X13928277Y-7700650D01*
X13928277Y-7738746D02*
X13937801Y-7719698D01*
X13937801Y-7719698D02*
X13947324Y-7710174D01*
X13947324Y-7710174D02*
X13966372Y-7700650D01*
X13966372Y-7700650D02*
X13985420Y-7700650D01*
X14052086Y-7833984D02*
X14052086Y-7700650D01*
X14052086Y-7633984D02*
X14042562Y-7643508D01*
X14042562Y-7643508D02*
X14052086Y-7653031D01*
X14052086Y-7653031D02*
X14061610Y-7643508D01*
X14061610Y-7643508D02*
X14052086Y-7633984D01*
X14052086Y-7633984D02*
X14052086Y-7653031D01*
X14175896Y-7833984D02*
X14156848Y-7824460D01*
X14156848Y-7824460D02*
X14147324Y-7805412D01*
X14147324Y-7805412D02*
X14147324Y-7633984D01*
X14280658Y-7833984D02*
X14261610Y-7824460D01*
X14261610Y-7824460D02*
X14252086Y-7805412D01*
X14252086Y-7805412D02*
X14252086Y-7633984D01*
X14509229Y-7833984D02*
X14509229Y-7633984D01*
X14509229Y-7633984D02*
X14575896Y-7776841D01*
X14575896Y-7776841D02*
X14642562Y-7633984D01*
X14642562Y-7633984D02*
X14642562Y-7833984D01*
X14823515Y-7833984D02*
X14823515Y-7729222D01*
X14823515Y-7729222D02*
X14813991Y-7710174D01*
X14813991Y-7710174D02*
X14794943Y-7700650D01*
X14794943Y-7700650D02*
X14756848Y-7700650D01*
X14756848Y-7700650D02*
X14737801Y-7710174D01*
X14823515Y-7824460D02*
X14804467Y-7833984D01*
X14804467Y-7833984D02*
X14756848Y-7833984D01*
X14756848Y-7833984D02*
X14737801Y-7824460D01*
X14737801Y-7824460D02*
X14728277Y-7805412D01*
X14728277Y-7805412D02*
X14728277Y-7786365D01*
X14728277Y-7786365D02*
X14737801Y-7767317D01*
X14737801Y-7767317D02*
X14756848Y-7757793D01*
X14756848Y-7757793D02*
X14804467Y-7757793D01*
X14804467Y-7757793D02*
X14823515Y-7748269D01*
X14918753Y-7700650D02*
X14918753Y-7900650D01*
X14918753Y-7710174D02*
X14937801Y-7700650D01*
X14937801Y-7700650D02*
X14975896Y-7700650D01*
X14975896Y-7700650D02*
X14994943Y-7710174D01*
X14994943Y-7710174D02*
X15004467Y-7719698D01*
X15004467Y-7719698D02*
X15013991Y-7738746D01*
X15013991Y-7738746D02*
X15013991Y-7795888D01*
X15013991Y-7795888D02*
X15004467Y-7814936D01*
X15004467Y-7814936D02*
X14994943Y-7824460D01*
X14994943Y-7824460D02*
X14975896Y-7833984D01*
X14975896Y-7833984D02*
X14937801Y-7833984D01*
X14937801Y-7833984D02*
X14918753Y-7824460D01*
X15099705Y-7814936D02*
X15109229Y-7824460D01*
X15109229Y-7824460D02*
X15099705Y-7833984D01*
X15099705Y-7833984D02*
X15090182Y-7824460D01*
X15090182Y-7824460D02*
X15099705Y-7814936D01*
X15099705Y-7814936D02*
X15099705Y-7833984D01*
X15099705Y-7710174D02*
X15109229Y-7719698D01*
X15109229Y-7719698D02*
X15099705Y-7729222D01*
X15099705Y-7729222D02*
X15090182Y-7719698D01*
X15090182Y-7719698D02*
X15099705Y-7710174D01*
X15099705Y-7710174D02*
X15099705Y-7729222D01*
M02*
