M48
; DRILL file {KiCad 8.0.5} date 2024-12-01T15:07:40+0900
; FORMAT={-:-/ absolute / inch / decimal}
; #@! TF.CreationDate,2024-12-01T15:07:40+09:00
; #@! TF.GenerationSoftware,Kicad,Pcbnew,8.0.5
; #@! TF.FileFunction,Plated,1,2,PTH
FMAT,2
INCH
; #@! TA.AperFunction,Plated,PTH,ViaDrill
T1C0.0118
; #@! TA.AperFunction,Plated,PTH,ComponentDrill
T2C0.0374
; #@! TA.AperFunction,Plated,PTH,ComponentDrill
T3C0.0394
%
G90
G05
T1
X5.4402Y-2.7748
X5.4409Y-2.7244
X5.4882Y-2.1772
X5.4882Y-2.7835
X5.4961Y-2.4213
X5.4961Y-2.5787
X5.5Y-2.2638
X5.5138Y-2.3228
X5.5261Y-2.7554
X5.5315Y-2.5787
X5.5709Y-2.4213
X5.5709Y-2.5787
X5.5709Y-2.7402
X5.5748Y-2.1102
X5.5925Y-2.8071
X5.6004Y-2.7402
X5.614Y-2.4132
X5.6263Y-2.2129
X5.6495Y-2.2558
X5.6646Y-2.4016
X5.6693Y-2.2835
X5.6744Y-2.3621
X5.6772Y-2.3228
X5.6969Y-2.2402
X5.7101Y-2.2666
X5.748Y-2.2913
X5.7756Y-2.3504
X5.7874Y-2.1024
X5.7953Y-2.374
X5.8162Y-2.4016
X5.8169Y-2.1013
X5.8209Y-2.4764
X5.8522Y-2.2422
X5.8546Y-2.3777
X5.8555Y-2.321
X5.8681Y-2.3504
X5.8681Y-2.4224
X5.8898Y-2.377
X5.8898Y-2.4764
X5.8898Y-2.5276
X5.8976Y-2.5984
X5.9016Y-2.1339
X5.9124Y-2.4526
X5.9173Y-2.5
X5.9331Y-2.3346
X5.9486Y-2.2441
X5.9528Y-2.126
X5.9864Y-2.1535
X6.0157Y-2.4134
X6.0176Y-2.2341
X6.0236Y-2.2913
X6.0236Y-2.7835
X6.0335Y-2.1063
X6.0669Y-2.248
X6.0748Y-2.2913
X6.0877Y-2.3287
X6.0945Y-2.7795
X6.0976Y-2.2476
X6.122Y-2.748
X6.1226Y-2.5896
X6.1339Y-2.4291
X6.1437Y-2.7835
X6.1516Y-2.126
X6.1555Y-2.2981
X6.1654Y-2.8386
X6.1654Y-2.9055
X6.1772Y-2.4134
X6.1811Y-2.2441
X6.1969Y-2.5906
X6.1969Y-2.748
X6.2283Y-2.8189
T2
X5.6457Y-2.878
X5.7441Y-2.878
X5.8425Y-2.878
X5.9409Y-2.878
X6.0394Y-2.878
T3
X5.3937Y-2.152
X5.3937Y-2.252
X5.3937Y-2.352
X5.3937Y-2.452
X5.3937Y-2.552
X5.3937Y-2.652
X5.3937Y-2.752
X5.3937Y-2.852
X6.3031Y-2.152
X6.3031Y-2.252
X6.3031Y-2.352
X6.3031Y-2.452
X6.3031Y-2.552
X6.3031Y-2.652
X6.3031Y-2.752
X6.3031Y-2.852
M30
