%TF.GenerationSoftware,KiCad,Pcbnew,8.0.5*%
%TF.CreationDate,2024-12-01T15:07:37+09:00*%
%TF.ProjectId,PCA9685_ver4,50434139-3638-4355-9f76-6572342e6b69,rev?*%
%TF.SameCoordinates,Original*%
%TF.FileFunction,Copper,L2,Bot*%
%TF.FilePolarity,Positive*%
%FSLAX46Y46*%
G04 Gerber Fmt 4.6, Leading zero omitted, Abs format (unit mm)*
G04 Created by KiCad (PCBNEW 8.0.5) date 2024-12-01 15:07:37*
%MOMM*%
%LPD*%
G01*
G04 APERTURE LIST*
G04 Aperture macros list*
%AMRoundRect*
0 Rectangle with rounded corners*
0 $1 Rounding radius*
0 $2 $3 $4 $5 $6 $7 $8 $9 X,Y pos of 4 corners*
0 Add a 4 corners polygon primitive as box body*
4,1,4,$2,$3,$4,$5,$6,$7,$8,$9,$2,$3,0*
0 Add four circle primitives for the rounded corners*
1,1,$1+$1,$2,$3*
1,1,$1+$1,$4,$5*
1,1,$1+$1,$6,$7*
1,1,$1+$1,$8,$9*
0 Add four rect primitives between the rounded corners*
20,1,$1+$1,$2,$3,$4,$5,0*
20,1,$1+$1,$4,$5,$6,$7,0*
20,1,$1+$1,$6,$7,$8,$9,0*
20,1,$1+$1,$8,$9,$2,$3,0*%
G04 Aperture macros list end*
%TA.AperFunction,ComponentPad*%
%ADD10R,1.700000X1.700000*%
%TD*%
%TA.AperFunction,ComponentPad*%
%ADD11O,1.700000X1.700000*%
%TD*%
%TA.AperFunction,ComponentPad*%
%ADD12RoundRect,0.250000X-0.600000X-0.725000X0.600000X-0.725000X0.600000X0.725000X-0.600000X0.725000X0*%
%TD*%
%TA.AperFunction,ComponentPad*%
%ADD13O,1.700000X1.950000*%
%TD*%
%TA.AperFunction,SMDPad,CuDef*%
%ADD14R,0.600000X0.800000*%
%TD*%
%TA.AperFunction,ViaPad*%
%ADD15C,0.600000*%
%TD*%
%TA.AperFunction,Conductor*%
%ADD16C,0.200000*%
%TD*%
%TA.AperFunction,Conductor*%
%ADD17C,0.100000*%
%TD*%
G04 APERTURE END LIST*
D10*
%TO.P,J6,1,Pin_1*%
%TO.N,Net-(J6-Pin_1)*%
X137000000Y-72440000D03*
D11*
%TO.P,J6,2,Pin_2*%
%TO.N,DOUT1*%
X137000000Y-69900000D03*
%TO.P,J6,3,Pin_3*%
%TO.N,Net-(J6-Pin_3)*%
X137000000Y-67360000D03*
%TO.P,J6,4,Pin_4*%
%TO.N,COUT1*%
X137000000Y-64820000D03*
%TO.P,J6,5,Pin_5*%
%TO.N,Net-(J6-Pin_5)*%
X137000000Y-62280000D03*
%TO.P,J6,6,Pin_6*%
%TO.N,BOUT1*%
X137000000Y-59740000D03*
%TO.P,J6,7,Pin_7*%
%TO.N,Net-(J6-Pin_7)*%
X137000000Y-57200000D03*
%TO.P,J6,8,Pin_8*%
%TO.N,AOUT1*%
X137000000Y-54660000D03*
%TD*%
D10*
%TO.P,J3,1,Pin_1*%
%TO.N,Net-(J3-Pin_1)*%
X160100000Y-54660000D03*
D11*
%TO.P,J3,2,Pin_2*%
%TO.N,HOUT1*%
X160100000Y-57200000D03*
%TO.P,J3,3,Pin_3*%
%TO.N,Net-(J3-Pin_3)*%
X160100000Y-59740000D03*
%TO.P,J3,4,Pin_4*%
%TO.N,GOUT1*%
X160100000Y-62280000D03*
%TO.P,J3,5,Pin_5*%
%TO.N,Net-(J3-Pin_5)*%
X160100000Y-64820000D03*
%TO.P,J3,6,Pin_6*%
%TO.N,FOUT1*%
X160100000Y-67360000D03*
%TO.P,J3,7,Pin_7*%
%TO.N,Net-(J3-Pin_7)*%
X160100000Y-69900000D03*
%TO.P,J3,8,Pin_8*%
%TO.N,EOUT1*%
X160100000Y-72440000D03*
%TD*%
D12*
%TO.P,J1,1,Pin_1*%
%TO.N,+3V3*%
X143400000Y-73100000D03*
D13*
%TO.P,J1,2,Pin_2*%
%TO.N,A4*%
X145900000Y-73100000D03*
%TO.P,J1,3,Pin_3*%
%TO.N,SDA*%
X148400000Y-73100000D03*
%TO.P,J1,4,Pin_4*%
%TO.N,SCL*%
X150900000Y-73100000D03*
%TO.P,J1,5,Pin_5*%
%TO.N,+5V*%
X153400000Y-73100000D03*
%TD*%
D14*
%TO.P,JP2,1,A*%
%TO.N,+3V3*%
X140800000Y-57500000D03*
%TO.P,JP2,2,B*%
%TO.N,A1*%
X141700000Y-57500000D03*
%TD*%
%TO.P,JP4,1,A*%
%TO.N,+3V3*%
X140800000Y-60400000D03*
%TO.P,JP4,2,B*%
%TO.N,A3*%
X141700000Y-60400000D03*
%TD*%
%TO.P,JP1,1,A*%
%TO.N,+3V3*%
X140800000Y-56050000D03*
%TO.P,JP1,2,B*%
%TO.N,A0*%
X141700000Y-56050000D03*
%TD*%
%TO.P,JP3,1,A*%
%TO.N,+3V3*%
X140800000Y-58950000D03*
%TO.P,JP3,2,B*%
%TO.N,A2*%
X141700000Y-58950000D03*
%TD*%
D15*
%TO.N,Net-(U2-REFCOMP)*%
X151093750Y-57000000D03*
X153250000Y-53500000D03*
%TO.N,+3V3*%
X156350000Y-58370774D03*
X151200000Y-54000000D03*
X152846446Y-56746446D03*
X143498527Y-57297430D03*
X149900000Y-54200000D03*
X153000000Y-58200000D03*
X155515000Y-65776000D03*
X141500000Y-65500000D03*
X141500000Y-61500000D03*
X141500000Y-69600000D03*
X154100000Y-57100000D03*
X142907966Y-56207966D03*
X155500000Y-69800000D03*
%TO.N,+5V*%
X153000000Y-70700000D03*
X140049998Y-59000000D03*
X157400000Y-65800000D03*
X139600000Y-61500000D03*
X139600000Y-65500000D03*
X157400000Y-69800000D03*
%TO.N,SCL*%
X147000000Y-53400000D03*
X150175001Y-62297107D03*
X156900000Y-61300000D03*
X149050000Y-61527817D03*
%TO.N,SDA*%
X147749504Y-53372663D03*
X148707107Y-60392892D03*
X150700000Y-59300000D03*
X154300000Y-58200000D03*
%TO.N,EOUT1*%
X154800000Y-70600000D03*
X156050000Y-70700000D03*
X147200000Y-60300000D03*
%TO.N,GOUT1*%
X149050000Y-59700000D03*
%TO.N,FOUT1*%
X147730332Y-61000000D03*
%TO.N,HOUT1*%
X148730332Y-58953047D03*
%TO.N,A0*%
X144000000Y-58000000D03*
%TO.N,A1*%
X144201446Y-58998554D03*
%TO.N,A2*%
X144130000Y-59998554D03*
%TO.N,A3*%
X143880000Y-61000000D03*
%TO.N,A4*%
X156600000Y-73800000D03*
X149600000Y-62900000D03*
X149600000Y-60375000D03*
X157000000Y-57000000D03*
X141600000Y-53600000D03*
X148646875Y-56953125D03*
X154879035Y-57089685D03*
X140500000Y-65500000D03*
X158200000Y-71600000D03*
X142595000Y-61295000D03*
X155800000Y-61700000D03*
X156600000Y-72100000D03*
X154628130Y-59150000D03*
X149800000Y-66000000D03*
X149600000Y-64200000D03*
X139700000Y-57500000D03*
X147850000Y-62900000D03*
X139400000Y-55300000D03*
%TO.N,BOUT1*%
X145035412Y-57570822D03*
%TO.N,AOUT1*%
X144700000Y-56900000D03*
%TO.N,COUT1*%
X142050000Y-71300000D03*
X138181091Y-70481091D03*
X146000000Y-58200000D03*
X138200000Y-69200000D03*
X142250003Y-69600000D03*
%TO.N,DOUT1*%
X146700000Y-59700000D03*
X140363909Y-69986091D03*
X139400000Y-70700000D03*
%TO.N,Net-(U1-#OE)*%
X152800000Y-61300000D03*
X150300000Y-63500000D03*
%TO.N,A4*%
X156250000Y-54000000D03*
X152053750Y-54700000D03*
%TD*%
D16*
%TO.N,Net-(U2-REFCOMP)*%
X150650000Y-56556250D02*
X151093750Y-57000000D01*
X153250000Y-53500000D02*
X153200000Y-53450000D01*
X153200000Y-53450000D02*
X150972182Y-53450000D01*
X150650000Y-53772182D02*
X150650000Y-56556250D01*
X150972182Y-53450000D02*
X150650000Y-53772182D01*
D17*
%TO.N,+3V3*%
X144800000Y-58100000D02*
X145300000Y-58100000D01*
X143302570Y-57297430D02*
X143300000Y-57300000D01*
X143498527Y-57297430D02*
X142907966Y-56706869D01*
D16*
X156407044Y-58370774D02*
X156350000Y-58370774D01*
X154100000Y-57100000D02*
X153000000Y-58200000D01*
D17*
X142907966Y-56706869D02*
X142907966Y-56207966D01*
X151200000Y-55200000D02*
X152746446Y-56746446D01*
D16*
X155200000Y-71400000D02*
X145100000Y-71400000D01*
X155500000Y-69800000D02*
X155500000Y-71100000D01*
X154740902Y-56450000D02*
X157227818Y-56450000D01*
D17*
X148600000Y-54200000D02*
X149900000Y-54200000D01*
X144500000Y-57800000D02*
X144800000Y-58100000D01*
X140800000Y-60400000D02*
X140800000Y-60800000D01*
X143790323Y-57297430D02*
X143992893Y-57500000D01*
D16*
X154100000Y-57090902D02*
X154740902Y-56450000D01*
D17*
X146820230Y-52872663D02*
X147956611Y-52872663D01*
X140800000Y-60800000D02*
X141500000Y-61500000D01*
D16*
X155515000Y-69785000D02*
X155500000Y-69800000D01*
X155500000Y-71100000D02*
X155200000Y-71400000D01*
X155515000Y-65776000D02*
X155515000Y-69785000D01*
D17*
X152746446Y-56746446D02*
X152846446Y-56746446D01*
D16*
X157550000Y-57227818D02*
X156407044Y-58370774D01*
D17*
X144207107Y-57500000D02*
X144500000Y-57792893D01*
X144500000Y-57792893D02*
X144500000Y-57800000D01*
X146500000Y-56900000D02*
X146500000Y-53192893D01*
X151200000Y-54000000D02*
X151200000Y-55200000D01*
X140800000Y-56050000D02*
X140800000Y-60400000D01*
D16*
X157550000Y-56772182D02*
X157550000Y-57227818D01*
D17*
X143498527Y-57297430D02*
X143790323Y-57297430D01*
X146500000Y-53192893D02*
X146820230Y-52872663D01*
X148249504Y-53165556D02*
X148249504Y-53849504D01*
X143992893Y-57500000D02*
X144207107Y-57500000D01*
X148249504Y-53849504D02*
X148600000Y-54200000D01*
D16*
X145100000Y-71400000D02*
X143400000Y-73100000D01*
D17*
X145300000Y-58100000D02*
X146500000Y-56900000D01*
D16*
X154100000Y-57100000D02*
X154100000Y-57090902D01*
X157227818Y-56450000D02*
X157550000Y-56772182D01*
X141500000Y-65500000D02*
X141500000Y-61500000D01*
D17*
X147956611Y-52872663D02*
X148249504Y-53165556D01*
D16*
X141500000Y-65500000D02*
X141500000Y-69600000D01*
%TO.N,+5V*%
X139600000Y-65500000D02*
X139600000Y-61500000D01*
X139600000Y-70000000D02*
X140200000Y-70600000D01*
X140200000Y-70600000D02*
X152900000Y-70600000D01*
X157400000Y-65800000D02*
X157400000Y-69800000D01*
X152900000Y-70600000D02*
X153000000Y-70700000D01*
X140049998Y-59000000D02*
X140049998Y-61050002D01*
X139600000Y-65500000D02*
X139600000Y-69600000D01*
X140049998Y-61050002D02*
X139600000Y-61500000D01*
X139600000Y-69600000D02*
X139600000Y-70000000D01*
D17*
%TO.N,SCL*%
X156400000Y-60800000D02*
X151672108Y-60800000D01*
X156900000Y-61300000D02*
X156400000Y-60800000D01*
X147200000Y-59592893D02*
X149050000Y-61442893D01*
X151672108Y-60800000D02*
X150175001Y-62297107D01*
X147000000Y-53400000D02*
X147200000Y-53600000D01*
X147200000Y-53600000D02*
X147200000Y-59592893D01*
X149050000Y-61442893D02*
X149050000Y-61527817D01*
%TO.N,SDA*%
X147749504Y-53372663D02*
X147700000Y-53422167D01*
X147700000Y-53422167D02*
X147700000Y-59385785D01*
X147700000Y-59385785D02*
X148707107Y-60392892D01*
X153200000Y-59300000D02*
X150700000Y-59300000D01*
X154300000Y-58200000D02*
X153200000Y-59300000D01*
%TO.N,EOUT1*%
X147600000Y-70100000D02*
X154300000Y-70100000D01*
X156050000Y-70700000D02*
X157790000Y-72440000D01*
X146950000Y-69450000D02*
X147600000Y-70100000D01*
X157790000Y-72440000D02*
X160100000Y-72440000D01*
X147200000Y-60300000D02*
X146950000Y-60550000D01*
X154300000Y-70100000D02*
X154800000Y-70600000D01*
X146950000Y-60550000D02*
X146950000Y-69450000D01*
%TO.N,GOUT1*%
X149225000Y-59875000D02*
X157695000Y-59875000D01*
X157695000Y-59875000D02*
X160100000Y-62280000D01*
X149050000Y-59700000D02*
X149225000Y-59875000D01*
%TO.N,FOUT1*%
X157840000Y-65100000D02*
X160100000Y-67360000D01*
X147350000Y-63150000D02*
X149200000Y-65000000D01*
X157700000Y-65100000D02*
X157840000Y-65100000D01*
X147350000Y-61380332D02*
X147350000Y-63150000D01*
X157600000Y-65000000D02*
X157700000Y-65100000D01*
X147730332Y-61000000D02*
X147350000Y-61380332D01*
X149200000Y-65000000D02*
X157600000Y-65000000D01*
%TO.N,HOUT1*%
X153800000Y-56499999D02*
X153800000Y-55700000D01*
X154200000Y-55300000D02*
X158200000Y-55300000D01*
X148730332Y-58953047D02*
X148983379Y-58700000D01*
X153800000Y-55700000D02*
X154200000Y-55300000D01*
X158200000Y-55300000D02*
X160100000Y-57200000D01*
X148983379Y-58700000D02*
X151599999Y-58700000D01*
X151599999Y-58700000D02*
X153800000Y-56499999D01*
%TO.N,A0*%
X143493990Y-58000000D02*
X141700000Y-56206010D01*
X144000000Y-58000000D02*
X143493990Y-58000000D01*
X141700000Y-56206010D02*
X141700000Y-56050000D01*
%TO.N,A1*%
X142000000Y-57500000D02*
X141700000Y-57500000D01*
X143498554Y-58998554D02*
X142000000Y-57500000D01*
X144201446Y-58998554D02*
X143498554Y-58998554D01*
%TO.N,A2*%
X143081446Y-58950000D02*
X141700000Y-58950000D01*
X144130000Y-59998554D02*
X143081446Y-58950000D01*
%TO.N,A3*%
X141700000Y-60400000D02*
X143280000Y-60400000D01*
X143280000Y-60400000D02*
X143880000Y-61000000D01*
D16*
%TO.N,A4*%
X149600000Y-62900000D02*
X149600000Y-60375000D01*
X156600000Y-73800000D02*
X156600000Y-72100000D01*
X154968720Y-57000000D02*
X154879035Y-57089685D01*
X157000000Y-57000000D02*
X154968720Y-57000000D01*
X154879035Y-58899095D02*
X154628130Y-59150000D01*
X154879035Y-57089685D02*
X154879035Y-58899095D01*
X149600000Y-62900000D02*
X147850000Y-62900000D01*
D17*
%TO.N,BOUT1*%
X143500000Y-56439339D02*
X143500000Y-56092893D01*
X144631483Y-57570822D02*
X143500000Y-56439339D01*
X142857107Y-55450000D02*
X140350000Y-55450000D01*
X143500000Y-56092893D02*
X142857107Y-55450000D01*
X145035412Y-57570822D02*
X144631483Y-57570822D01*
X140350000Y-55450000D02*
X137000000Y-58800000D01*
X137000000Y-58800000D02*
X137000000Y-59740000D01*
%TO.N,AOUT1*%
X144700000Y-56900000D02*
X142460000Y-54660000D01*
X142460000Y-54660000D02*
X137000000Y-54660000D01*
%TO.N,COUT1*%
X146000000Y-58200000D02*
X146000000Y-65850003D01*
X138200000Y-66020000D02*
X137000000Y-64820000D01*
X139000000Y-71300000D02*
X138181091Y-70481091D01*
X142050000Y-71300000D02*
X139000000Y-71300000D01*
X146000000Y-65850003D02*
X142250003Y-69600000D01*
X138200000Y-69200000D02*
X138200000Y-66020000D01*
%TO.N,DOUT1*%
X139400000Y-70700000D02*
X138600000Y-69900000D01*
X140477818Y-70100000D02*
X140363909Y-69986091D01*
X146700000Y-69500000D02*
X146100000Y-70100000D01*
X138600000Y-69900000D02*
X137000000Y-69900000D01*
X146700000Y-59700000D02*
X146700000Y-69500000D01*
X146100000Y-70100000D02*
X140477818Y-70100000D01*
%TO.N,Net-(U1-#OE)*%
X152800000Y-61300000D02*
X150600000Y-63500000D01*
X150600000Y-63500000D02*
X150300000Y-63500000D01*
D16*
%TO.N,A4*%
X156250000Y-54000000D02*
X155550000Y-54700000D01*
X155550000Y-54700000D02*
X152053750Y-54700000D01*
%TD*%
%TA.AperFunction,Conductor*%
%TO.N,A4*%
G36*
X146000885Y-52720185D02*
G01*
X146046640Y-52772989D01*
X146056584Y-52842147D01*
X146041233Y-52886500D01*
X145995639Y-52965471D01*
X145987017Y-52980403D01*
X145982372Y-52997738D01*
X145949500Y-53120418D01*
X145949500Y-53120420D01*
X145949500Y-56620612D01*
X145929815Y-56687651D01*
X145913181Y-56708293D01*
X145709500Y-56911973D01*
X145648177Y-56945458D01*
X145578485Y-56940474D01*
X145522552Y-56898602D01*
X145498599Y-56838175D01*
X145485369Y-56720749D01*
X145485368Y-56720745D01*
X145475456Y-56692417D01*
X145425789Y-56550478D01*
X145419453Y-56540395D01*
X145329815Y-56397737D01*
X145202262Y-56270184D01*
X145049523Y-56174211D01*
X144879254Y-56114631D01*
X144879249Y-56114630D01*
X144712643Y-56095859D01*
X144648229Y-56068793D01*
X144638845Y-56060320D01*
X142798016Y-54219491D01*
X142798015Y-54219490D01*
X142672485Y-54147016D01*
X142672486Y-54147016D01*
X142608294Y-54129816D01*
X142532475Y-54109500D01*
X142532472Y-54109500D01*
X138312407Y-54109500D01*
X138245368Y-54089815D01*
X138200025Y-54037906D01*
X138195745Y-54028728D01*
X138174035Y-53982171D01*
X138174033Y-53982168D01*
X138038494Y-53788597D01*
X137871402Y-53621506D01*
X137871395Y-53621501D01*
X137677834Y-53485967D01*
X137677830Y-53485965D01*
X137677828Y-53485964D01*
X137463663Y-53386097D01*
X137463659Y-53386096D01*
X137463655Y-53386094D01*
X137235413Y-53324938D01*
X137235403Y-53324936D01*
X137000001Y-53304341D01*
X136999999Y-53304341D01*
X136764596Y-53324936D01*
X136764586Y-53324938D01*
X136536344Y-53386094D01*
X136536335Y-53386098D01*
X136322171Y-53485964D01*
X136322169Y-53485965D01*
X136128597Y-53621505D01*
X135961505Y-53788597D01*
X135825965Y-53982169D01*
X135825964Y-53982171D01*
X135726098Y-54196335D01*
X135726094Y-54196344D01*
X135664938Y-54424586D01*
X135664936Y-54424596D01*
X135644341Y-54659999D01*
X135644341Y-54660000D01*
X135664936Y-54895403D01*
X135664938Y-54895413D01*
X135726094Y-55123655D01*
X135726096Y-55123659D01*
X135726097Y-55123663D01*
X135766590Y-55210500D01*
X135825965Y-55337830D01*
X135825967Y-55337834D01*
X135961501Y-55531395D01*
X135961506Y-55531402D01*
X136128597Y-55698493D01*
X136128603Y-55698498D01*
X136314158Y-55828425D01*
X136357783Y-55883002D01*
X136364977Y-55952500D01*
X136333454Y-56014855D01*
X136314158Y-56031575D01*
X136128597Y-56161505D01*
X135961505Y-56328597D01*
X135825965Y-56522169D01*
X135825964Y-56522171D01*
X135726098Y-56736335D01*
X135726094Y-56736344D01*
X135664938Y-56964586D01*
X135664936Y-56964596D01*
X135644341Y-57199999D01*
X135644341Y-57200000D01*
X135664936Y-57435403D01*
X135664938Y-57435413D01*
X135726094Y-57663655D01*
X135726096Y-57663659D01*
X135726097Y-57663663D01*
X135775745Y-57770133D01*
X135825965Y-57877830D01*
X135825967Y-57877834D01*
X135961501Y-58071395D01*
X135961506Y-58071402D01*
X136128597Y-58238493D01*
X136128603Y-58238498D01*
X136314158Y-58368425D01*
X136357783Y-58423002D01*
X136364977Y-58492500D01*
X136333454Y-58554855D01*
X136314158Y-58571575D01*
X136128597Y-58701505D01*
X135961505Y-58868597D01*
X135825965Y-59062169D01*
X135825964Y-59062171D01*
X135726098Y-59276335D01*
X135726094Y-59276344D01*
X135664938Y-59504586D01*
X135664936Y-59504596D01*
X135644341Y-59739999D01*
X135644341Y-59740000D01*
X135664936Y-59975403D01*
X135664938Y-59975413D01*
X135726094Y-60203655D01*
X135726096Y-60203659D01*
X135726097Y-60203663D01*
X135793438Y-60348076D01*
X135825965Y-60417830D01*
X135825967Y-60417834D01*
X135961501Y-60611395D01*
X135961506Y-60611402D01*
X136128597Y-60778493D01*
X136128603Y-60778498D01*
X136314158Y-60908425D01*
X136357783Y-60963002D01*
X136364977Y-61032500D01*
X136333454Y-61094855D01*
X136314158Y-61111575D01*
X136128597Y-61241505D01*
X135961505Y-61408597D01*
X135825965Y-61602169D01*
X135825964Y-61602171D01*
X135726098Y-61816335D01*
X135726094Y-61816344D01*
X135664938Y-62044586D01*
X135664936Y-62044596D01*
X135644341Y-62279999D01*
X135644341Y-62280000D01*
X135664936Y-62515403D01*
X135664938Y-62515413D01*
X135726094Y-62743655D01*
X135726096Y-62743659D01*
X135726097Y-62743663D01*
X135811553Y-62926923D01*
X135825965Y-62957830D01*
X135825967Y-62957834D01*
X135934281Y-63112521D01*
X135960857Y-63150476D01*
X135961501Y-63151395D01*
X135961506Y-63151402D01*
X136128597Y-63318493D01*
X136128603Y-63318498D01*
X136314158Y-63448425D01*
X136357783Y-63503002D01*
X136364977Y-63572500D01*
X136333454Y-63634855D01*
X136314158Y-63651575D01*
X136128597Y-63781505D01*
X135961505Y-63948597D01*
X135825965Y-64142169D01*
X135825964Y-64142171D01*
X135726098Y-64356335D01*
X135726094Y-64356344D01*
X135664938Y-64584586D01*
X135664936Y-64584596D01*
X135644341Y-64819999D01*
X135644341Y-64820000D01*
X135664936Y-65055403D01*
X135664938Y-65055413D01*
X135726094Y-65283655D01*
X135726096Y-65283659D01*
X135726097Y-65283663D01*
X135799235Y-65440508D01*
X135825965Y-65497830D01*
X135825967Y-65497834D01*
X135923871Y-65637654D01*
X135959392Y-65688384D01*
X135961501Y-65691395D01*
X135961506Y-65691402D01*
X136128597Y-65858493D01*
X136128603Y-65858498D01*
X136314158Y-65988425D01*
X136357783Y-66043002D01*
X136364977Y-66112500D01*
X136333454Y-66174855D01*
X136314158Y-66191575D01*
X136128597Y-66321505D01*
X135961505Y-66488597D01*
X135825965Y-66682169D01*
X135825964Y-66682171D01*
X135726098Y-66896335D01*
X135726094Y-66896344D01*
X135664938Y-67124586D01*
X135664936Y-67124596D01*
X135644341Y-67359999D01*
X135644341Y-67360000D01*
X135664936Y-67595403D01*
X135664938Y-67595413D01*
X135726094Y-67823655D01*
X135726096Y-67823659D01*
X135726097Y-67823663D01*
X135825965Y-68037830D01*
X135825967Y-68037834D01*
X135961501Y-68231395D01*
X135961506Y-68231402D01*
X136128597Y-68398493D01*
X136128603Y-68398498D01*
X136314158Y-68528425D01*
X136357783Y-68583002D01*
X136364977Y-68652500D01*
X136333454Y-68714855D01*
X136314158Y-68731575D01*
X136128597Y-68861505D01*
X135961505Y-69028597D01*
X135825965Y-69222169D01*
X135825964Y-69222171D01*
X135726098Y-69436335D01*
X135726094Y-69436344D01*
X135664938Y-69664586D01*
X135664936Y-69664596D01*
X135644341Y-69899999D01*
X135644341Y-69900000D01*
X135664936Y-70135403D01*
X135664938Y-70135413D01*
X135726094Y-70363655D01*
X135726096Y-70363659D01*
X135726097Y-70363663D01*
X135756945Y-70429816D01*
X135825965Y-70577830D01*
X135825967Y-70577834D01*
X135961501Y-70771395D01*
X135961506Y-70771402D01*
X136083430Y-70893326D01*
X136116915Y-70954649D01*
X136111931Y-71024341D01*
X136070059Y-71080274D01*
X136039083Y-71097189D01*
X135907669Y-71146203D01*
X135907664Y-71146206D01*
X135792455Y-71232452D01*
X135792452Y-71232455D01*
X135706206Y-71347664D01*
X135706202Y-71347671D01*
X135655908Y-71482517D01*
X135649501Y-71542116D01*
X135649500Y-71542135D01*
X135649500Y-73337870D01*
X135649501Y-73337876D01*
X135655908Y-73397483D01*
X135706202Y-73532328D01*
X135706206Y-73532335D01*
X135792452Y-73647544D01*
X135792455Y-73647547D01*
X135907664Y-73733793D01*
X135907671Y-73733797D01*
X136042517Y-73784091D01*
X136042516Y-73784091D01*
X136049444Y-73784835D01*
X136102127Y-73790500D01*
X137897872Y-73790499D01*
X137957483Y-73784091D01*
X138092331Y-73733796D01*
X138207546Y-73647546D01*
X138293796Y-73532331D01*
X138344091Y-73397483D01*
X138350500Y-73337873D01*
X138350499Y-71728385D01*
X138370184Y-71661347D01*
X138422987Y-71615592D01*
X138492146Y-71605648D01*
X138555702Y-71634673D01*
X138562180Y-71640705D01*
X138661985Y-71740510D01*
X138768868Y-71802218D01*
X138787515Y-71812984D01*
X138927525Y-71850500D01*
X141417060Y-71850500D01*
X141484099Y-71870185D01*
X141504741Y-71886819D01*
X141547738Y-71929816D01*
X141700478Y-72025789D01*
X141870745Y-72085368D01*
X141870750Y-72085369D01*
X141929527Y-72091991D01*
X141949719Y-72094266D01*
X142014133Y-72121332D01*
X142053689Y-72178926D01*
X142059195Y-72230088D01*
X142049500Y-72324981D01*
X142049500Y-73875001D01*
X142049501Y-73875018D01*
X142060000Y-73977796D01*
X142060001Y-73977799D01*
X142094031Y-74080493D01*
X142115186Y-74144334D01*
X142207288Y-74293656D01*
X142331344Y-74417712D01*
X142408035Y-74465015D01*
X142416054Y-74469961D01*
X142462778Y-74521909D01*
X142474001Y-74590872D01*
X142446157Y-74654954D01*
X142388089Y-74693810D01*
X142350957Y-74699500D01*
X135324500Y-74699500D01*
X135257461Y-74679815D01*
X135211706Y-74627011D01*
X135200500Y-74575500D01*
X135200500Y-52824500D01*
X135220185Y-52757461D01*
X135272989Y-52711706D01*
X135324500Y-52700500D01*
X145933846Y-52700500D01*
X146000885Y-52720185D01*
G37*
%TD.AperFunction*%
%TA.AperFunction,Conductor*%
G36*
X162142539Y-52720185D02*
G01*
X162188294Y-52772989D01*
X162199500Y-52824500D01*
X162199500Y-74575500D01*
X162179815Y-74642539D01*
X162127011Y-74688294D01*
X162075500Y-74699500D01*
X153997360Y-74699500D01*
X153930321Y-74679815D01*
X153884566Y-74627011D01*
X153874622Y-74557853D01*
X153903647Y-74494297D01*
X153941065Y-74465015D01*
X153966194Y-74452210D01*
X154107816Y-74380051D01*
X154226728Y-74293657D01*
X154279786Y-74255109D01*
X154279788Y-74255106D01*
X154279792Y-74255104D01*
X154430104Y-74104792D01*
X154430106Y-74104788D01*
X154430109Y-74104786D01*
X154555048Y-73932820D01*
X154555047Y-73932820D01*
X154555051Y-73932816D01*
X154651557Y-73743412D01*
X154717246Y-73541243D01*
X154750500Y-73331287D01*
X154750500Y-72868713D01*
X154717246Y-72658757D01*
X154651557Y-72456588D01*
X154555051Y-72267184D01*
X154548044Y-72257540D01*
X154504340Y-72197385D01*
X154480860Y-72131579D01*
X154496686Y-72063525D01*
X154546791Y-72014830D01*
X154604658Y-72000500D01*
X155113331Y-72000500D01*
X155113347Y-72000501D01*
X155120943Y-72000501D01*
X155279054Y-72000501D01*
X155279057Y-72000501D01*
X155431785Y-71959577D01*
X155488182Y-71927016D01*
X155568716Y-71880520D01*
X155680520Y-71768716D01*
X155680520Y-71768714D01*
X155690724Y-71758511D01*
X155690728Y-71758506D01*
X155858505Y-71590729D01*
X155858510Y-71590725D01*
X155868714Y-71580520D01*
X155868716Y-71580520D01*
X155912214Y-71537021D01*
X155973534Y-71503537D01*
X156013775Y-71501483D01*
X156037359Y-71504140D01*
X156101772Y-71531207D01*
X156111155Y-71539679D01*
X157451986Y-72880510D01*
X157509844Y-72913914D01*
X157577515Y-72952984D01*
X157717525Y-72990500D01*
X157717526Y-72990500D01*
X157862474Y-72990500D01*
X158787593Y-72990500D01*
X158854632Y-73010185D01*
X158899974Y-73062093D01*
X158925965Y-73117830D01*
X158925966Y-73117832D01*
X158925967Y-73117833D01*
X158925967Y-73117834D01*
X159034281Y-73272521D01*
X159061505Y-73311401D01*
X159228599Y-73478495D01*
X159318207Y-73541239D01*
X159422165Y-73614032D01*
X159422167Y-73614033D01*
X159422170Y-73614035D01*
X159636337Y-73713903D01*
X159864592Y-73775063D01*
X160041034Y-73790500D01*
X160099999Y-73795659D01*
X160100000Y-73795659D01*
X160100001Y-73795659D01*
X160158966Y-73790500D01*
X160335408Y-73775063D01*
X160563663Y-73713903D01*
X160777830Y-73614035D01*
X160971401Y-73478495D01*
X161138495Y-73311401D01*
X161274035Y-73117830D01*
X161373903Y-72903663D01*
X161435063Y-72675408D01*
X161455659Y-72440000D01*
X161435063Y-72204592D01*
X161373903Y-71976337D01*
X161274035Y-71762171D01*
X161271473Y-71758511D01*
X161138494Y-71568597D01*
X160971402Y-71401506D01*
X160971396Y-71401501D01*
X160785842Y-71271575D01*
X160742217Y-71216998D01*
X160735023Y-71147500D01*
X160766546Y-71085145D01*
X160785842Y-71068425D01*
X160848800Y-71024341D01*
X160971401Y-70938495D01*
X161138495Y-70771401D01*
X161274035Y-70577830D01*
X161373903Y-70363663D01*
X161435063Y-70135408D01*
X161455659Y-69900000D01*
X161435063Y-69664592D01*
X161377692Y-69450478D01*
X161373905Y-69436344D01*
X161373904Y-69436343D01*
X161373903Y-69436337D01*
X161274035Y-69222171D01*
X161270826Y-69217587D01*
X161138494Y-69028597D01*
X160971402Y-68861506D01*
X160971396Y-68861501D01*
X160785842Y-68731575D01*
X160742217Y-68676998D01*
X160735023Y-68607500D01*
X160766546Y-68545145D01*
X160785842Y-68528425D01*
X160808026Y-68512891D01*
X160971401Y-68398495D01*
X161138495Y-68231401D01*
X161274035Y-68037830D01*
X161373903Y-67823663D01*
X161435063Y-67595408D01*
X161455659Y-67360000D01*
X161435063Y-67124592D01*
X161373903Y-66896337D01*
X161274035Y-66682171D01*
X161260057Y-66662207D01*
X161138494Y-66488597D01*
X160971402Y-66321506D01*
X160971396Y-66321501D01*
X160785842Y-66191575D01*
X160742217Y-66136998D01*
X160735023Y-66067500D01*
X160766546Y-66005145D01*
X160785842Y-65988425D01*
X160828693Y-65958420D01*
X160971401Y-65858495D01*
X161138495Y-65691401D01*
X161274035Y-65497830D01*
X161373903Y-65283663D01*
X161435063Y-65055408D01*
X161455659Y-64820000D01*
X161435063Y-64584592D01*
X161373903Y-64356337D01*
X161274035Y-64142171D01*
X161265384Y-64129815D01*
X161138494Y-63948597D01*
X160971402Y-63781506D01*
X160971396Y-63781501D01*
X160785842Y-63651575D01*
X160742217Y-63596998D01*
X160735023Y-63527500D01*
X160766546Y-63465145D01*
X160785842Y-63448425D01*
X160808026Y-63432891D01*
X160971401Y-63318495D01*
X161138495Y-63151401D01*
X161274035Y-62957830D01*
X161373903Y-62743663D01*
X161435063Y-62515408D01*
X161455659Y-62280000D01*
X161435063Y-62044592D01*
X161373903Y-61816337D01*
X161274035Y-61602171D01*
X161246008Y-61562143D01*
X161138494Y-61408597D01*
X160971402Y-61241506D01*
X160971396Y-61241501D01*
X160785842Y-61111575D01*
X160742217Y-61056998D01*
X160735023Y-60987500D01*
X160766546Y-60925145D01*
X160785842Y-60908425D01*
X160853450Y-60861085D01*
X160971401Y-60778495D01*
X161138495Y-60611401D01*
X161274035Y-60417830D01*
X161373903Y-60203663D01*
X161435063Y-59975408D01*
X161455659Y-59740000D01*
X161435063Y-59504592D01*
X161373903Y-59276337D01*
X161274035Y-59062171D01*
X161234400Y-59005565D01*
X161138494Y-58868597D01*
X160971402Y-58701506D01*
X160971396Y-58701501D01*
X160785842Y-58571575D01*
X160742217Y-58516998D01*
X160735023Y-58447500D01*
X160766546Y-58385145D01*
X160785842Y-58368425D01*
X160920393Y-58274211D01*
X160971401Y-58238495D01*
X161138495Y-58071401D01*
X161274035Y-57877830D01*
X161373903Y-57663663D01*
X161435063Y-57435408D01*
X161455659Y-57200000D01*
X161453843Y-57179249D01*
X161446239Y-57092331D01*
X161435063Y-56964592D01*
X161373903Y-56736337D01*
X161274035Y-56522171D01*
X161274032Y-56522167D01*
X161138496Y-56328600D01*
X161080080Y-56270184D01*
X161016567Y-56206671D01*
X160983084Y-56145351D01*
X160988068Y-56075659D01*
X161029939Y-56019725D01*
X161060915Y-56002810D01*
X161192331Y-55953796D01*
X161307546Y-55867546D01*
X161393796Y-55752331D01*
X161444091Y-55617483D01*
X161450500Y-55557873D01*
X161450499Y-53762128D01*
X161444091Y-53702517D01*
X161435414Y-53679254D01*
X161393797Y-53567671D01*
X161393793Y-53567664D01*
X161307547Y-53452455D01*
X161307544Y-53452452D01*
X161192335Y-53366206D01*
X161192328Y-53366202D01*
X161057482Y-53315908D01*
X161057483Y-53315908D01*
X160997883Y-53309501D01*
X160997881Y-53309500D01*
X160997873Y-53309500D01*
X160997864Y-53309500D01*
X159202129Y-53309500D01*
X159202123Y-53309501D01*
X159142516Y-53315908D01*
X159007671Y-53366202D01*
X159007664Y-53366206D01*
X158892455Y-53452452D01*
X158892452Y-53452455D01*
X158806206Y-53567664D01*
X158806202Y-53567671D01*
X158755908Y-53702517D01*
X158749501Y-53762116D01*
X158749501Y-53762123D01*
X158749500Y-53762135D01*
X158749500Y-54771613D01*
X158729815Y-54838652D01*
X158677011Y-54884407D01*
X158607853Y-54894351D01*
X158544297Y-54865326D01*
X158538099Y-54859554D01*
X158538011Y-54859487D01*
X158412488Y-54787017D01*
X158412483Y-54787015D01*
X158406339Y-54785369D01*
X158406335Y-54785368D01*
X158272475Y-54749500D01*
X154127525Y-54749500D01*
X154022517Y-54777637D01*
X153987514Y-54787016D01*
X153861986Y-54859489D01*
X153861983Y-54859491D01*
X153359491Y-55361983D01*
X153359490Y-55361985D01*
X153290098Y-55482177D01*
X153287016Y-55487515D01*
X153249500Y-55627525D01*
X153249500Y-55627527D01*
X153249500Y-55864626D01*
X153229815Y-55931665D01*
X153177011Y-55977420D01*
X153107853Y-55987364D01*
X153084546Y-55981668D01*
X153025703Y-55961078D01*
X153025695Y-55961076D01*
X152846450Y-55940881D01*
X152846443Y-55940881D01*
X152791609Y-55947059D01*
X152722787Y-55935004D01*
X152690045Y-55911520D01*
X151786819Y-55008294D01*
X151753334Y-54946971D01*
X151750500Y-54920613D01*
X151750500Y-54632940D01*
X151770185Y-54565901D01*
X151786819Y-54545259D01*
X151829816Y-54502262D01*
X151925789Y-54349522D01*
X151985368Y-54179255D01*
X151985369Y-54179250D01*
X151987469Y-54160615D01*
X152014536Y-54096201D01*
X152072132Y-54056647D01*
X152110689Y-54050500D01*
X152617060Y-54050500D01*
X152684099Y-54070185D01*
X152704741Y-54086819D01*
X152747738Y-54129816D01*
X152826412Y-54179250D01*
X152890454Y-54219491D01*
X152900478Y-54225789D01*
X153070745Y-54285368D01*
X153070750Y-54285369D01*
X153249996Y-54305565D01*
X153250000Y-54305565D01*
X153250004Y-54305565D01*
X153429249Y-54285369D01*
X153429252Y-54285368D01*
X153429255Y-54285368D01*
X153599522Y-54225789D01*
X153752262Y-54129816D01*
X153879816Y-54002262D01*
X153975789Y-53849522D01*
X154035368Y-53679255D01*
X154039040Y-53646666D01*
X154055565Y-53500003D01*
X154055565Y-53499996D01*
X154035369Y-53320750D01*
X154035368Y-53320745D01*
X153975788Y-53150476D01*
X153879815Y-52997737D01*
X153794259Y-52912181D01*
X153760774Y-52850858D01*
X153765758Y-52781166D01*
X153807630Y-52725233D01*
X153873094Y-52700816D01*
X153881940Y-52700500D01*
X162075500Y-52700500D01*
X162142539Y-52720185D01*
G37*
%TD.AperFunction*%
%TA.AperFunction,Conductor*%
G36*
X158222591Y-66261698D02*
G01*
X158230030Y-66268554D01*
X158782176Y-66820700D01*
X158815661Y-66882023D01*
X158814270Y-66940474D01*
X158764938Y-67124586D01*
X158764936Y-67124596D01*
X158744341Y-67359999D01*
X158744341Y-67360000D01*
X158764936Y-67595403D01*
X158764938Y-67595413D01*
X158826094Y-67823655D01*
X158826096Y-67823659D01*
X158826097Y-67823663D01*
X158925965Y-68037830D01*
X158925967Y-68037834D01*
X159061501Y-68231395D01*
X159061506Y-68231402D01*
X159228597Y-68398493D01*
X159228603Y-68398498D01*
X159414158Y-68528425D01*
X159457783Y-68583002D01*
X159464977Y-68652500D01*
X159433454Y-68714855D01*
X159414158Y-68731575D01*
X159228597Y-68861505D01*
X159061505Y-69028597D01*
X158925965Y-69222169D01*
X158925964Y-69222171D01*
X158826098Y-69436335D01*
X158826094Y-69436344D01*
X158764938Y-69664586D01*
X158764936Y-69664596D01*
X158744341Y-69899999D01*
X158744341Y-69900000D01*
X158764936Y-70135403D01*
X158764938Y-70135413D01*
X158826094Y-70363655D01*
X158826096Y-70363659D01*
X158826097Y-70363663D01*
X158856945Y-70429816D01*
X158925965Y-70577830D01*
X158925967Y-70577834D01*
X159061501Y-70771395D01*
X159061506Y-70771402D01*
X159228597Y-70938493D01*
X159228603Y-70938498D01*
X159414158Y-71068425D01*
X159457783Y-71123002D01*
X159464977Y-71192500D01*
X159433454Y-71254855D01*
X159414158Y-71271575D01*
X159228597Y-71401505D01*
X159061505Y-71568597D01*
X158925966Y-71762168D01*
X158899975Y-71817906D01*
X158853802Y-71870345D01*
X158787593Y-71889500D01*
X158069386Y-71889500D01*
X158002347Y-71869815D01*
X157981705Y-71853181D01*
X156889679Y-70761155D01*
X156856194Y-70699832D01*
X156854143Y-70687379D01*
X156848419Y-70636578D01*
X156860476Y-70567757D01*
X156907826Y-70516379D01*
X156975436Y-70498756D01*
X157037615Y-70517706D01*
X157050478Y-70525789D01*
X157170416Y-70567757D01*
X157220745Y-70585368D01*
X157220750Y-70585369D01*
X157399996Y-70605565D01*
X157400000Y-70605565D01*
X157400004Y-70605565D01*
X157579249Y-70585369D01*
X157579252Y-70585368D01*
X157579255Y-70585368D01*
X157749522Y-70525789D01*
X157902262Y-70429816D01*
X158029816Y-70302262D01*
X158125789Y-70149522D01*
X158185368Y-69979255D01*
X158185369Y-69979249D01*
X158205565Y-69800003D01*
X158205565Y-69799996D01*
X158185369Y-69620750D01*
X158185368Y-69620745D01*
X158133939Y-69473770D01*
X158125789Y-69450478D01*
X158116902Y-69436335D01*
X158092645Y-69397730D01*
X158029816Y-69297738D01*
X158029814Y-69297736D01*
X158029813Y-69297734D01*
X158027550Y-69294896D01*
X158026659Y-69292715D01*
X158026111Y-69291842D01*
X158026264Y-69291745D01*
X158001144Y-69230209D01*
X158000500Y-69217587D01*
X158000500Y-66382412D01*
X158020185Y-66315373D01*
X158027555Y-66305097D01*
X158029815Y-66302263D01*
X158029816Y-66302262D01*
X158037355Y-66290264D01*
X158089689Y-66243972D01*
X158158742Y-66233323D01*
X158222591Y-66261698D01*
G37*
%TD.AperFunction*%
%TA.AperFunction,Conductor*%
G36*
X147705703Y-64284674D02*
G01*
X147712181Y-64290706D01*
X148861985Y-65440510D01*
X148965026Y-65500000D01*
X148987515Y-65512984D01*
X149127525Y-65550500D01*
X149127526Y-65550500D01*
X149272474Y-65550500D01*
X154596086Y-65550500D01*
X154663125Y-65570185D01*
X154708880Y-65622989D01*
X154719306Y-65688383D01*
X154709435Y-65775995D01*
X154709435Y-65776003D01*
X154729630Y-65955249D01*
X154729631Y-65955254D01*
X154789211Y-66125523D01*
X154885185Y-66278263D01*
X154887445Y-66281097D01*
X154888334Y-66283275D01*
X154888889Y-66284158D01*
X154888734Y-66284255D01*
X154913855Y-66345783D01*
X154914500Y-66358412D01*
X154914500Y-69202060D01*
X154894815Y-69269099D01*
X154878181Y-69289741D01*
X154870184Y-69297737D01*
X154774209Y-69450480D01*
X154739905Y-69548515D01*
X154699184Y-69605291D01*
X154634231Y-69631038D01*
X154565669Y-69617582D01*
X154560865Y-69614948D01*
X154544138Y-69605291D01*
X154512485Y-69587016D01*
X154512486Y-69587016D01*
X154477482Y-69577637D01*
X154372475Y-69549500D01*
X154372472Y-69549500D01*
X147879387Y-69549500D01*
X147812348Y-69529815D01*
X147791706Y-69513181D01*
X147536819Y-69258294D01*
X147503334Y-69196971D01*
X147500500Y-69170613D01*
X147500500Y-64378387D01*
X147520185Y-64311348D01*
X147572989Y-64265593D01*
X147642147Y-64255649D01*
X147705703Y-64284674D01*
G37*
%TD.AperFunction*%
%TA.AperFunction,Conductor*%
G36*
X140618548Y-61433201D02*
G01*
X140674481Y-61475073D01*
X140698434Y-61535499D01*
X140714630Y-61679250D01*
X140714631Y-61679254D01*
X140774211Y-61849523D01*
X140870185Y-62002263D01*
X140872445Y-62005097D01*
X140873334Y-62007275D01*
X140873889Y-62008158D01*
X140873734Y-62008255D01*
X140898855Y-62069783D01*
X140899500Y-62082412D01*
X140899500Y-64917587D01*
X140879815Y-64984626D01*
X140872450Y-64994896D01*
X140870186Y-64997734D01*
X140774211Y-65150476D01*
X140714631Y-65320745D01*
X140714630Y-65320750D01*
X140694435Y-65499996D01*
X140694435Y-65500000D01*
X140714630Y-65679249D01*
X140714631Y-65679254D01*
X140774211Y-65849523D01*
X140834515Y-65945496D01*
X140848884Y-65968364D01*
X140870185Y-66002263D01*
X140872445Y-66005097D01*
X140873334Y-66007275D01*
X140873889Y-66008158D01*
X140873734Y-66008255D01*
X140898855Y-66069783D01*
X140899500Y-66082412D01*
X140899500Y-69017587D01*
X140879815Y-69084626D01*
X140872450Y-69094896D01*
X140870184Y-69097737D01*
X140810805Y-69192236D01*
X140758470Y-69238527D01*
X140689416Y-69249174D01*
X140664858Y-69243305D01*
X140543166Y-69200723D01*
X140543158Y-69200721D01*
X140363913Y-69180526D01*
X140363912Y-69180526D01*
X140363910Y-69180526D01*
X140363909Y-69180526D01*
X140347695Y-69182352D01*
X140338381Y-69183402D01*
X140269559Y-69171345D01*
X140218181Y-69123995D01*
X140200500Y-69060181D01*
X140200500Y-66082412D01*
X140220185Y-66015373D01*
X140227555Y-66005097D01*
X140229810Y-66002267D01*
X140229816Y-66002262D01*
X140325789Y-65849522D01*
X140385368Y-65679255D01*
X140387730Y-65658296D01*
X140405565Y-65500000D01*
X140405565Y-65499996D01*
X140385369Y-65320750D01*
X140385368Y-65320745D01*
X140325788Y-65150476D01*
X140268906Y-65059950D01*
X140229816Y-64997738D01*
X140229814Y-64997736D01*
X140229813Y-64997734D01*
X140227550Y-64994896D01*
X140226659Y-64992715D01*
X140226111Y-64991842D01*
X140226264Y-64991745D01*
X140201144Y-64930209D01*
X140200500Y-64917587D01*
X140200500Y-62082412D01*
X140220185Y-62015373D01*
X140227555Y-62005097D01*
X140229810Y-62002267D01*
X140229816Y-62002262D01*
X140325789Y-61849522D01*
X140385368Y-61679255D01*
X140395161Y-61592330D01*
X140422226Y-61527920D01*
X140430690Y-61518545D01*
X140487535Y-61461700D01*
X140548856Y-61428217D01*
X140618548Y-61433201D01*
G37*
%TD.AperFunction*%
%TA.AperFunction,Conductor*%
G36*
X145336229Y-58670185D02*
G01*
X145366135Y-58697185D01*
X145370183Y-58702261D01*
X145413181Y-58745259D01*
X145446666Y-58806582D01*
X145449500Y-58832940D01*
X145449500Y-65570615D01*
X145429815Y-65637654D01*
X145413181Y-65658296D01*
X142312181Y-68759296D01*
X142250858Y-68792781D01*
X142181166Y-68787797D01*
X142125233Y-68745925D01*
X142100816Y-68680461D01*
X142100500Y-68671615D01*
X142100500Y-66082412D01*
X142120185Y-66015373D01*
X142127555Y-66005097D01*
X142129810Y-66002267D01*
X142129816Y-66002262D01*
X142225789Y-65849522D01*
X142285368Y-65679255D01*
X142287730Y-65658296D01*
X142305565Y-65500000D01*
X142305565Y-65499996D01*
X142285369Y-65320750D01*
X142285368Y-65320745D01*
X142225788Y-65150476D01*
X142168906Y-65059950D01*
X142129816Y-64997738D01*
X142129814Y-64997736D01*
X142129813Y-64997734D01*
X142127550Y-64994896D01*
X142126659Y-64992715D01*
X142126111Y-64991842D01*
X142126264Y-64991745D01*
X142101144Y-64930209D01*
X142100500Y-64917587D01*
X142100500Y-62082412D01*
X142120185Y-62015373D01*
X142127555Y-62005097D01*
X142129810Y-62002267D01*
X142129816Y-62002262D01*
X142225789Y-61849522D01*
X142285368Y-61679255D01*
X142288718Y-61649522D01*
X142305565Y-61500003D01*
X142305565Y-61499996D01*
X142285369Y-61320750D01*
X142285367Y-61320740D01*
X142285110Y-61320006D01*
X142285084Y-61319501D01*
X142283818Y-61313953D01*
X142284789Y-61313731D01*
X142281547Y-61250227D01*
X142316276Y-61189599D01*
X142327832Y-61179789D01*
X142357546Y-61157546D01*
X142443796Y-61042331D01*
X142447960Y-61031165D01*
X142489829Y-60975234D01*
X142555293Y-60950816D01*
X142564141Y-60950500D01*
X142958044Y-60950500D01*
X143025083Y-60970185D01*
X143070838Y-61022989D01*
X143081264Y-61060616D01*
X143094630Y-61179250D01*
X143094631Y-61179254D01*
X143154211Y-61349523D01*
X143235727Y-61479254D01*
X143250184Y-61502262D01*
X143377738Y-61629816D01*
X143456410Y-61679249D01*
X143507466Y-61711330D01*
X143530478Y-61725789D01*
X143641385Y-61764597D01*
X143700745Y-61785368D01*
X143700750Y-61785369D01*
X143879996Y-61805565D01*
X143880000Y-61805565D01*
X143880004Y-61805565D01*
X144059249Y-61785369D01*
X144059252Y-61785368D01*
X144059255Y-61785368D01*
X144229522Y-61725789D01*
X144382262Y-61629816D01*
X144509816Y-61502262D01*
X144605789Y-61349522D01*
X144665368Y-61179255D01*
X144665476Y-61178295D01*
X144685565Y-61000003D01*
X144685565Y-60999996D01*
X144665369Y-60820750D01*
X144665367Y-60820740D01*
X144634885Y-60733630D01*
X144632653Y-60727253D01*
X144629091Y-60657476D01*
X144662014Y-60598618D01*
X144693485Y-60567147D01*
X144759816Y-60500816D01*
X144855789Y-60348076D01*
X144915368Y-60177809D01*
X144935565Y-59998554D01*
X144932957Y-59975408D01*
X144915369Y-59819304D01*
X144915366Y-59819291D01*
X144855790Y-59649035D01*
X144855789Y-59649031D01*
X144838413Y-59621378D01*
X144819413Y-59554142D01*
X144838414Y-59489433D01*
X144927234Y-59348078D01*
X144927235Y-59348076D01*
X144986814Y-59177809D01*
X144986980Y-59176339D01*
X145007011Y-58998557D01*
X145007011Y-58998550D01*
X144986815Y-58819304D01*
X144986813Y-58819296D01*
X144985469Y-58815454D01*
X144985334Y-58812815D01*
X144985264Y-58812507D01*
X144985317Y-58812494D01*
X144981908Y-58745675D01*
X145016637Y-58685048D01*
X145078631Y-58652821D01*
X145102511Y-58650500D01*
X145227526Y-58650500D01*
X145269190Y-58650500D01*
X145336229Y-58670185D01*
G37*
%TD.AperFunction*%
%TA.AperFunction,Conductor*%
G36*
X139983636Y-56697401D02*
G01*
X140039569Y-56739273D01*
X140063986Y-56804737D01*
X140056484Y-56856916D01*
X140005908Y-56992517D01*
X139999501Y-57052116D01*
X139999500Y-57052135D01*
X139999500Y-57947870D01*
X139999501Y-57947876D01*
X140005908Y-58007481D01*
X140019114Y-58042888D01*
X140024097Y-58112580D01*
X139990611Y-58173903D01*
X139929287Y-58207387D01*
X139916815Y-58209440D01*
X139870747Y-58214630D01*
X139870743Y-58214631D01*
X139700474Y-58274211D01*
X139547735Y-58370184D01*
X139420182Y-58497737D01*
X139324209Y-58650476D01*
X139264629Y-58820745D01*
X139264628Y-58820750D01*
X139244433Y-58999996D01*
X139244433Y-59000003D01*
X139264628Y-59179249D01*
X139264629Y-59179254D01*
X139308565Y-59304815D01*
X139324209Y-59349522D01*
X139419273Y-59500816D01*
X139420183Y-59502263D01*
X139422443Y-59505097D01*
X139423332Y-59507275D01*
X139423887Y-59508158D01*
X139423732Y-59508255D01*
X139448853Y-59569783D01*
X139449498Y-59582412D01*
X139449498Y-60616588D01*
X139429813Y-60683627D01*
X139377009Y-60729382D01*
X139366452Y-60733630D01*
X139250478Y-60774210D01*
X139097737Y-60870184D01*
X138970184Y-60997737D01*
X138874211Y-61150476D01*
X138814631Y-61320745D01*
X138814630Y-61320750D01*
X138794435Y-61499996D01*
X138794435Y-61500003D01*
X138814630Y-61679249D01*
X138814631Y-61679254D01*
X138874211Y-61849523D01*
X138970185Y-62002263D01*
X138972445Y-62005097D01*
X138973334Y-62007275D01*
X138973889Y-62008158D01*
X138973734Y-62008255D01*
X138998855Y-62069783D01*
X138999500Y-62082412D01*
X138999500Y-64917587D01*
X138979815Y-64984626D01*
X138972450Y-64994896D01*
X138970186Y-64997734D01*
X138874211Y-65150476D01*
X138814631Y-65320745D01*
X138814630Y-65320750D01*
X138794435Y-65499996D01*
X138797412Y-65526422D01*
X138785356Y-65595244D01*
X138738006Y-65646623D01*
X138670395Y-65664246D01*
X138603990Y-65642518D01*
X138586510Y-65627985D01*
X138317823Y-65359298D01*
X138284338Y-65297975D01*
X138285728Y-65239527D01*
X138335063Y-65055408D01*
X138355659Y-64820000D01*
X138335063Y-64584592D01*
X138273903Y-64356337D01*
X138174035Y-64142171D01*
X138165384Y-64129815D01*
X138038494Y-63948597D01*
X137871402Y-63781506D01*
X137871396Y-63781501D01*
X137685842Y-63651575D01*
X137642217Y-63596998D01*
X137635023Y-63527500D01*
X137666546Y-63465145D01*
X137685842Y-63448425D01*
X137708026Y-63432891D01*
X137871401Y-63318495D01*
X138038495Y-63151401D01*
X138174035Y-62957830D01*
X138273903Y-62743663D01*
X138335063Y-62515408D01*
X138355659Y-62280000D01*
X138335063Y-62044592D01*
X138273903Y-61816337D01*
X138174035Y-61602171D01*
X138146008Y-61562143D01*
X138038494Y-61408597D01*
X137871402Y-61241506D01*
X137871396Y-61241501D01*
X137685842Y-61111575D01*
X137642217Y-61056998D01*
X137635023Y-60987500D01*
X137666546Y-60925145D01*
X137685842Y-60908425D01*
X137753450Y-60861085D01*
X137871401Y-60778495D01*
X138038495Y-60611401D01*
X138174035Y-60417830D01*
X138273903Y-60203663D01*
X138335063Y-59975408D01*
X138355659Y-59740000D01*
X138335063Y-59504592D01*
X138273903Y-59276337D01*
X138174035Y-59062171D01*
X138134400Y-59005565D01*
X138038494Y-58868597D01*
X137961891Y-58791994D01*
X137928406Y-58730671D01*
X137933390Y-58660979D01*
X137961889Y-58616634D01*
X139852623Y-56725900D01*
X139913944Y-56692417D01*
X139983636Y-56697401D01*
G37*
%TD.AperFunction*%
%TA.AperFunction,Conductor*%
G36*
X157779402Y-60738253D02*
G01*
X157784915Y-60743439D01*
X158153051Y-61111575D01*
X158782176Y-61740700D01*
X158815661Y-61802023D01*
X158814270Y-61860474D01*
X158764938Y-62044586D01*
X158764936Y-62044596D01*
X158744341Y-62279999D01*
X158744341Y-62280000D01*
X158764936Y-62515403D01*
X158764938Y-62515413D01*
X158826094Y-62743655D01*
X158826096Y-62743659D01*
X158826097Y-62743663D01*
X158911553Y-62926923D01*
X158925965Y-62957830D01*
X158925967Y-62957834D01*
X159034281Y-63112521D01*
X159060857Y-63150476D01*
X159061501Y-63151395D01*
X159061506Y-63151402D01*
X159228597Y-63318493D01*
X159228603Y-63318498D01*
X159414158Y-63448425D01*
X159457783Y-63503002D01*
X159464977Y-63572500D01*
X159433454Y-63634855D01*
X159414158Y-63651575D01*
X159228597Y-63781505D01*
X159061505Y-63948597D01*
X158925965Y-64142169D01*
X158925964Y-64142171D01*
X158826098Y-64356335D01*
X158826094Y-64356344D01*
X158764938Y-64584586D01*
X158764936Y-64584596D01*
X158744341Y-64819999D01*
X158744341Y-64820002D01*
X158753556Y-64925334D01*
X158739789Y-64993834D01*
X158691174Y-65044017D01*
X158623145Y-65059950D01*
X158557302Y-65036574D01*
X158542347Y-65023822D01*
X158178016Y-64659491D01*
X158178015Y-64659490D01*
X158052485Y-64587016D01*
X158052486Y-64587016D01*
X157949761Y-64559491D01*
X157949761Y-64559490D01*
X157949757Y-64559490D01*
X157943611Y-64557843D01*
X157913709Y-64545457D01*
X157812485Y-64487016D01*
X157812480Y-64487014D01*
X157793710Y-64481984D01*
X157793710Y-64481985D01*
X157733092Y-64465742D01*
X157672475Y-64449500D01*
X157672474Y-64449500D01*
X150723902Y-64449500D01*
X150656863Y-64429815D01*
X150611108Y-64377011D01*
X150601164Y-64307853D01*
X150630189Y-64244297D01*
X150657930Y-64220506D01*
X150671277Y-64212119D01*
X150802262Y-64129816D01*
X150929816Y-64002262D01*
X150963535Y-63948599D01*
X151012923Y-63869997D01*
X151030232Y-63848291D01*
X152738846Y-62139677D01*
X152800167Y-62106194D01*
X152812630Y-62104141D01*
X152909204Y-62093260D01*
X152979250Y-62085369D01*
X152979253Y-62085368D01*
X152979255Y-62085368D01*
X153149522Y-62025789D01*
X153302262Y-61929816D01*
X153429816Y-61802262D01*
X153525789Y-61649522D01*
X153585368Y-61479255D01*
X153585769Y-61475697D01*
X153587469Y-61460615D01*
X153614536Y-61396201D01*
X153672132Y-61356647D01*
X153710689Y-61350500D01*
X155989311Y-61350500D01*
X156056350Y-61370185D01*
X156102105Y-61422989D01*
X156112531Y-61460615D01*
X156114630Y-61479250D01*
X156114631Y-61479254D01*
X156174211Y-61649523D01*
X156231502Y-61740700D01*
X156270184Y-61802262D01*
X156397738Y-61929816D01*
X156488080Y-61986582D01*
X156513036Y-62002263D01*
X156550478Y-62025789D01*
X156676206Y-62069783D01*
X156720745Y-62085368D01*
X156720750Y-62085369D01*
X156899996Y-62105565D01*
X156900000Y-62105565D01*
X156900004Y-62105565D01*
X157079249Y-62085369D01*
X157079252Y-62085368D01*
X157079255Y-62085368D01*
X157249522Y-62025789D01*
X157402262Y-61929816D01*
X157529816Y-61802262D01*
X157625789Y-61649522D01*
X157685368Y-61479255D01*
X157685769Y-61475697D01*
X157705565Y-61300003D01*
X157705565Y-61299996D01*
X157685369Y-61120750D01*
X157685368Y-61120745D01*
X157654024Y-61031169D01*
X157625789Y-60950478D01*
X157625788Y-60950476D01*
X157592253Y-60897105D01*
X157573253Y-60829868D01*
X157593621Y-60763033D01*
X157646889Y-60717819D01*
X157716145Y-60708582D01*
X157779402Y-60738253D01*
G37*
%TD.AperFunction*%
%TA.AperFunction,Conductor*%
G36*
X148239107Y-61711330D02*
G01*
X148284323Y-61764597D01*
X148288051Y-61774003D01*
X148324209Y-61877336D01*
X148402705Y-62002262D01*
X148420184Y-62030079D01*
X148547738Y-62157633D01*
X148700478Y-62253606D01*
X148755346Y-62272805D01*
X148870745Y-62313185D01*
X148870750Y-62313186D01*
X149049996Y-62333382D01*
X149050000Y-62333382D01*
X149050004Y-62333382D01*
X149229239Y-62313187D01*
X149229240Y-62313186D01*
X149229255Y-62313185D01*
X149229268Y-62313180D01*
X149232394Y-62312467D01*
X149234493Y-62312595D01*
X149236175Y-62312406D01*
X149236208Y-62312700D01*
X149302133Y-62316732D01*
X149358496Y-62358023D01*
X149383222Y-62419471D01*
X149389631Y-62476357D01*
X149389632Y-62476361D01*
X149449212Y-62646630D01*
X149545185Y-62799369D01*
X149628572Y-62882756D01*
X149662057Y-62944079D01*
X149657073Y-63013771D01*
X149645885Y-63036409D01*
X149574211Y-63150476D01*
X149514631Y-63320745D01*
X149514630Y-63320750D01*
X149494435Y-63499996D01*
X149494435Y-63500003D01*
X149514630Y-63679249D01*
X149514631Y-63679254D01*
X149574211Y-63849523D01*
X149579644Y-63858169D01*
X149670184Y-64002262D01*
X149797738Y-64129816D01*
X149817398Y-64142169D01*
X149942070Y-64220506D01*
X149988361Y-64272841D01*
X149999009Y-64341895D01*
X149970634Y-64405743D01*
X149912244Y-64444115D01*
X149876098Y-64449500D01*
X149479387Y-64449500D01*
X149412348Y-64429815D01*
X149391706Y-64413181D01*
X147936819Y-62958294D01*
X147903334Y-62896971D01*
X147900500Y-62870613D01*
X147900500Y-61876530D01*
X147920185Y-61809491D01*
X147972989Y-61763736D01*
X147983534Y-61759492D01*
X148079854Y-61725789D01*
X148105037Y-61709965D01*
X148172272Y-61690964D01*
X148239107Y-61711330D01*
G37*
%TD.AperFunction*%
%TA.AperFunction,Conductor*%
G36*
X151035760Y-60445185D02*
G01*
X151081515Y-60497989D01*
X151091459Y-60567147D01*
X151062434Y-60630703D01*
X151056402Y-60637181D01*
X150236154Y-61457427D01*
X150174831Y-61490912D01*
X150162357Y-61492966D01*
X149995739Y-61511739D01*
X149992580Y-61512460D01*
X149990483Y-61512331D01*
X149988827Y-61512518D01*
X149988794Y-61512227D01*
X149922842Y-61508181D01*
X149866488Y-61466878D01*
X149841778Y-61405450D01*
X149835369Y-61348567D01*
X149835368Y-61348562D01*
X149779744Y-61189599D01*
X149775789Y-61178295D01*
X149758310Y-61150478D01*
X149690357Y-61042331D01*
X149679816Y-61025555D01*
X149552262Y-60898001D01*
X149493509Y-60861084D01*
X149447219Y-60808750D01*
X149436571Y-60739697D01*
X149442441Y-60715136D01*
X149492473Y-60572154D01*
X149492474Y-60572150D01*
X149492474Y-60572149D01*
X149492475Y-60572147D01*
X149496591Y-60535615D01*
X149523656Y-60471204D01*
X149581251Y-60431648D01*
X149619811Y-60425500D01*
X150968721Y-60425500D01*
X151035760Y-60445185D01*
G37*
%TD.AperFunction*%
%TA.AperFunction,Conductor*%
G36*
X156645760Y-57070185D02*
G01*
X156691515Y-57122989D01*
X156701459Y-57192147D01*
X156672434Y-57255703D01*
X156666421Y-57262161D01*
X156451602Y-57476980D01*
X156395752Y-57532830D01*
X156334429Y-57566314D01*
X156321955Y-57568368D01*
X156170749Y-57585404D01*
X156170745Y-57585405D01*
X156000476Y-57644985D01*
X155847737Y-57740958D01*
X155720184Y-57868511D01*
X155624211Y-58021250D01*
X155564631Y-58191519D01*
X155564630Y-58191524D01*
X155544435Y-58370770D01*
X155544435Y-58370777D01*
X155564630Y-58550023D01*
X155564631Y-58550028D01*
X155624211Y-58720297D01*
X155684003Y-58815454D01*
X155720184Y-58873036D01*
X155847738Y-59000590D01*
X155851297Y-59002826D01*
X155998795Y-59095506D01*
X156045086Y-59147841D01*
X156055734Y-59216895D01*
X156027359Y-59280743D01*
X155968969Y-59319115D01*
X155932823Y-59324500D01*
X154253386Y-59324500D01*
X154186347Y-59304815D01*
X154140592Y-59252011D01*
X154130648Y-59182853D01*
X154159673Y-59119297D01*
X154165685Y-59112838D01*
X154238847Y-59039676D01*
X154300166Y-59006194D01*
X154312630Y-59004141D01*
X154409204Y-58993260D01*
X154479250Y-58985369D01*
X154479253Y-58985368D01*
X154479255Y-58985368D01*
X154649522Y-58925789D01*
X154802262Y-58829816D01*
X154929816Y-58702262D01*
X155025789Y-58549522D01*
X155085368Y-58379255D01*
X155085956Y-58374035D01*
X155105565Y-58200003D01*
X155105565Y-58199996D01*
X155085369Y-58020750D01*
X155085368Y-58020745D01*
X155025788Y-57850476D01*
X154949499Y-57729064D01*
X154929816Y-57697738D01*
X154840073Y-57607995D01*
X154806588Y-57546672D01*
X154811572Y-57476980D01*
X154822761Y-57454340D01*
X154825789Y-57449522D01*
X154885368Y-57279255D01*
X154885648Y-57276776D01*
X154896317Y-57182079D01*
X154923383Y-57117665D01*
X154931858Y-57108279D01*
X154953321Y-57086817D01*
X155014645Y-57053333D01*
X155041000Y-57050500D01*
X156578721Y-57050500D01*
X156645760Y-57070185D01*
G37*
%TD.AperFunction*%
%TA.AperFunction,Conductor*%
G36*
X148406573Y-54718090D02*
G01*
X148527525Y-54750500D01*
X149267060Y-54750500D01*
X149334099Y-54770185D01*
X149354741Y-54786819D01*
X149397738Y-54829816D01*
X149550478Y-54925789D01*
X149611013Y-54946971D01*
X149720745Y-54985368D01*
X149720750Y-54985369D01*
X149899996Y-55005565D01*
X149899998Y-55005565D01*
X149899998Y-55005564D01*
X149900000Y-55005565D01*
X149911614Y-55004256D01*
X149980435Y-55016309D01*
X150031816Y-55063657D01*
X150049500Y-55127476D01*
X150049500Y-56469580D01*
X150049499Y-56469598D01*
X150049499Y-56635304D01*
X150049498Y-56635304D01*
X150049499Y-56635307D01*
X150088397Y-56780475D01*
X150090423Y-56788034D01*
X150090424Y-56788038D01*
X150119144Y-56837783D01*
X150119145Y-56837783D01*
X150169477Y-56924962D01*
X150169481Y-56924967D01*
X150263048Y-57018534D01*
X150296533Y-57079857D01*
X150298587Y-57092331D01*
X150308380Y-57179249D01*
X150367960Y-57349521D01*
X150448048Y-57476980D01*
X150463934Y-57502262D01*
X150591488Y-57629816D01*
X150645355Y-57663663D01*
X150732697Y-57718544D01*
X150744228Y-57725789D01*
X150787579Y-57740958D01*
X150914495Y-57785368D01*
X150914500Y-57785369D01*
X151093746Y-57805565D01*
X151093750Y-57805565D01*
X151093754Y-57805565D01*
X151272999Y-57785369D01*
X151273002Y-57785368D01*
X151273005Y-57785368D01*
X151443272Y-57725789D01*
X151459640Y-57715503D01*
X151526876Y-57696501D01*
X151593712Y-57716866D01*
X151638928Y-57770133D01*
X151648168Y-57839389D01*
X151618499Y-57902646D01*
X151613297Y-57908176D01*
X151408293Y-58113181D01*
X151346970Y-58146666D01*
X151320612Y-58149500D01*
X148910902Y-58149500D01*
X148885413Y-58156330D01*
X148839437Y-58159775D01*
X148730335Y-58147482D01*
X148730328Y-58147482D01*
X148551082Y-58167677D01*
X148551074Y-58167679D01*
X148415454Y-58215135D01*
X148345676Y-58218696D01*
X148285048Y-58183967D01*
X148252821Y-58121974D01*
X148250500Y-58098093D01*
X148250500Y-54837870D01*
X148270185Y-54770831D01*
X148322989Y-54725076D01*
X148392147Y-54715132D01*
X148406573Y-54718090D01*
G37*
%TD.AperFunction*%
%TA.AperFunction,Conductor*%
G36*
X139578652Y-55230185D02*
G01*
X139624407Y-55282989D01*
X139634351Y-55352147D01*
X139605326Y-55415703D01*
X139599294Y-55422181D01*
X138402696Y-56618777D01*
X138341373Y-56652262D01*
X138271681Y-56647278D01*
X138215748Y-56605406D01*
X138202638Y-56583510D01*
X138174035Y-56522171D01*
X138174034Y-56522169D01*
X138174033Y-56522167D01*
X138038494Y-56328597D01*
X137871402Y-56161506D01*
X137871396Y-56161501D01*
X137685842Y-56031575D01*
X137642217Y-55976998D01*
X137635023Y-55907500D01*
X137666546Y-55845145D01*
X137685842Y-55828425D01*
X137708026Y-55812891D01*
X137871401Y-55698495D01*
X138038495Y-55531401D01*
X138174035Y-55337830D01*
X138200025Y-55282093D01*
X138246198Y-55229655D01*
X138312407Y-55210500D01*
X139511613Y-55210500D01*
X139578652Y-55230185D01*
G37*
%TD.AperFunction*%
%TD*%
M02*
