%TF.GenerationSoftware,KiCad,Pcbnew,8.0.5*%
%TF.CreationDate,2024-11-17T20:05:27+09:00*%
%TF.ProjectId,VR_glove,56525f67-6c6f-4766-952e-6b696361645f,rev?*%
%TF.SameCoordinates,Original*%
%TF.FileFunction,Copper,L1,Top*%
%TF.FilePolarity,Positive*%
%FSLAX46Y46*%
G04 Gerber Fmt 4.6, Leading zero omitted, Abs format (unit mm)*
G04 Created by KiCad (PCBNEW 8.0.5) date 2024-11-17 20:05:27*
%MOMM*%
%LPD*%
G01*
G04 APERTURE LIST*
%TA.AperFunction,ComponentPad*%
%ADD10R,1.560000X1.560000*%
%TD*%
%TA.AperFunction,ComponentPad*%
%ADD11C,1.560000*%
%TD*%
%TA.AperFunction,ComponentPad*%
%ADD12C,2.286000*%
%TD*%
%TA.AperFunction,ComponentPad*%
%ADD13C,1.800000*%
%TD*%
%TA.AperFunction,ComponentPad*%
%ADD14R,1.800000X1.800000*%
%TD*%
%TA.AperFunction,ComponentPad*%
%ADD15O,1.700000X1.700000*%
%TD*%
%TA.AperFunction,ComponentPad*%
%ADD16R,1.700000X1.700000*%
%TD*%
G04 APERTURE END LIST*
D10*
%TO.P,U1,J2-1,3V3*%
%TO.N,Net-(U1-3V3)*%
X144200000Y-61660000D03*
D11*
%TO.P,U1,J2-2,EN*%
%TO.N,unconnected-(U1-EN-PadJ2-2)*%
X144200000Y-64200000D03*
%TO.P,U1,J2-3,SENSOR_VP*%
%TO.N,Net-(U1-SENSOR_VP)*%
X144200000Y-66740000D03*
%TO.P,U1,J2-4,SENSOR_VN*%
%TO.N,Net-(U1-SENSOR_VN)*%
X144200000Y-69280000D03*
%TO.P,U1,J2-5,IO34*%
%TO.N,Net-(U1-IO34)*%
X144200000Y-71820000D03*
%TO.P,U1,J2-6,IO35*%
%TO.N,Net-(U1-IO35)*%
X144200000Y-74360000D03*
%TO.P,U1,J2-7,IO32*%
%TO.N,Net-(U1-IO32)*%
X144200000Y-76900000D03*
%TO.P,U1,J2-8,IO33*%
%TO.N,unconnected-(U1-IO33-PadJ2-8)*%
X144200000Y-79440000D03*
%TO.P,U1,J2-9,IO25*%
%TO.N,unconnected-(U1-IO25-PadJ2-9)*%
X144200000Y-81980000D03*
%TO.P,U1,J2-10,IO26*%
%TO.N,unconnected-(U1-IO26-PadJ2-10)*%
X144200000Y-84520000D03*
%TO.P,U1,J2-11,IO27*%
%TO.N,unconnected-(U1-IO27-PadJ2-11)*%
X144200000Y-87060000D03*
%TO.P,U1,J2-12,IO14*%
%TO.N,unconnected-(U1-IO14-PadJ2-12)*%
X144200000Y-89600000D03*
%TO.P,U1,J2-13,IO12*%
%TO.N,CALIB*%
X144200000Y-92140000D03*
%TO.P,U1,J2-14,GND1*%
%TO.N,unconnected-(U1-GND1-PadJ2-14)*%
X144200000Y-94680000D03*
%TO.P,U1,J2-15,IO13*%
%TO.N,unconnected-(U1-IO13-PadJ2-15)*%
X144200000Y-97220000D03*
%TO.P,U1,J2-16,SD2*%
%TO.N,unconnected-(U1-SD2-PadJ2-16)*%
X144200000Y-99760000D03*
%TO.P,U1,J2-17,SD3*%
%TO.N,unconnected-(U1-SD3-PadJ2-17)*%
X144200000Y-102300000D03*
%TO.P,U1,J2-18,CMD*%
%TO.N,unconnected-(U1-CMD-PadJ2-18)*%
X144200000Y-104840000D03*
%TO.P,U1,J2-19,EXT_5V*%
%TO.N,+5V*%
X144200000Y-107380000D03*
%TO.P,U1,J3-1,GND3*%
%TO.N,GND*%
X169600000Y-61660000D03*
%TO.P,U1,J3-2,IO23*%
%TO.N,unconnected-(U1-IO23-PadJ3-2)*%
X169600000Y-64200000D03*
%TO.P,U1,J3-3,IO22*%
%TO.N,PINCH*%
X169600000Y-66740000D03*
%TO.P,U1,J3-4,TXD0*%
%TO.N,unconnected-(U1-TXD0-PadJ3-4)*%
X169600000Y-69280000D03*
%TO.P,U1,J3-5,RXD0*%
%TO.N,unconnected-(U1-RXD0-PadJ3-5)*%
X169600000Y-71820000D03*
%TO.P,U1,J3-6,IO21*%
%TO.N,unconnected-(U1-IO21-PadJ3-6)*%
X169600000Y-74360000D03*
%TO.P,U1,J3-7,GND2*%
%TO.N,unconnected-(U1-GND2-PadJ3-7)*%
X169600000Y-76900000D03*
%TO.P,U1,J3-8,IO19*%
%TO.N,unconnected-(U1-IO19-PadJ3-8)*%
X169600000Y-79440000D03*
%TO.P,U1,J3-9,IO18*%
%TO.N,unconnected-(U1-IO18-PadJ3-9)*%
X169600000Y-81980000D03*
%TO.P,U1,J3-10,IO5*%
%TO.N,unconnected-(U1-IO5-PadJ3-10)*%
X169600000Y-84520000D03*
%TO.P,U1,J3-11,IO17*%
%TO.N,unconnected-(U1-IO17-PadJ3-11)*%
X169600000Y-87060000D03*
%TO.P,U1,J3-12,IO16*%
%TO.N,unconnected-(U1-IO16-PadJ3-12)*%
X169600000Y-89600000D03*
%TO.P,U1,J3-13,IO4*%
%TO.N,unconnected-(U1-IO4-PadJ3-13)*%
X169600000Y-92140000D03*
%TO.P,U1,J3-14,IO0*%
%TO.N,unconnected-(U1-IO0-PadJ3-14)*%
X169600000Y-94680000D03*
%TO.P,U1,J3-15,IO2*%
%TO.N,unconnected-(U1-IO2-PadJ3-15)*%
X169600000Y-97220000D03*
%TO.P,U1,J3-16,IO15*%
%TO.N,unconnected-(U1-IO15-PadJ3-16)*%
X169600000Y-99760000D03*
%TO.P,U1,J3-17,SD1*%
%TO.N,unconnected-(U1-SD1-PadJ3-17)*%
X169600000Y-102300000D03*
%TO.P,U1,J3-18,SD0*%
%TO.N,unconnected-(U1-SD0-PadJ3-18)*%
X169600000Y-104840000D03*
%TO.P,U1,J3-19,CLK*%
%TO.N,unconnected-(U1-CLK-PadJ3-19)*%
X169600000Y-107380000D03*
%TD*%
D12*
%TO.P,J9,1,Pin_1*%
%TO.N,GND*%
X128750000Y-57250000D03*
%TD*%
D13*
%TO.P,RV1,3,3*%
%TO.N,Net-(U1-3V3)*%
X133750000Y-51000000D03*
%TO.P,RV1,2,2*%
%TO.N,Net-(U1-SENSOR_VP)*%
X133750000Y-53500000D03*
D14*
%TO.P,RV1,1,1*%
%TO.N,GND*%
X133750000Y-56000000D03*
%TD*%
D12*
%TO.P,J7,1,Pin_1*%
%TO.N,GND*%
X128750000Y-70500000D03*
%TD*%
%TO.P,J1,1,Pin_1*%
%TO.N,GND*%
X122500000Y-82500000D03*
%TD*%
%TO.P,J6,1,Pin_1*%
%TO.N,GND*%
X128750000Y-82500000D03*
%TD*%
%TO.P,J5,1,Pin_1*%
%TO.N,GND*%
X122250000Y-57250000D03*
%TD*%
%TO.P,SW3,1,1*%
%TO.N,CALIB*%
X177250000Y-83170000D03*
%TO.P,SW3,2,2*%
X177250000Y-93330000D03*
%TO.P,SW3,3,K*%
%TO.N,GND*%
X182330000Y-83170000D03*
%TO.P,SW3,4,A*%
X182330000Y-93330000D03*
%TD*%
%TO.P,J3,1,Pin_1*%
%TO.N,GND*%
X122392000Y-70572000D03*
%TD*%
%TO.P,J4,1,Pin_1*%
%TO.N,GND*%
X128750000Y-95750000D03*
%TD*%
D14*
%TO.P,RV2,1,1*%
%TO.N,GND*%
X133750000Y-69000000D03*
D13*
%TO.P,RV2,2,2*%
%TO.N,Net-(U1-SENSOR_VN)*%
X133750000Y-66500000D03*
%TO.P,RV2,3,3*%
%TO.N,Net-(U1-3V3)*%
X133750000Y-64000000D03*
%TD*%
D15*
%TO.P,J2,2,Pin_2*%
%TO.N,GND*%
X135485000Y-112250000D03*
D16*
%TO.P,J2,1,Pin_1*%
%TO.N,+5V*%
X138025000Y-112250000D03*
%TD*%
D12*
%TO.P,J8,1,Pin_1*%
%TO.N,GND*%
X122500000Y-95750000D03*
%TD*%
%TO.P,SW4,1,1*%
%TO.N,PINCH*%
X177250000Y-65670000D03*
%TO.P,SW4,2,2*%
X177250000Y-75830000D03*
%TO.P,SW4,3,K*%
%TO.N,GND*%
X182330000Y-65670000D03*
%TO.P,SW4,4,A*%
X182330000Y-75830000D03*
%TD*%
D14*
%TO.P,RV5,1,1*%
%TO.N,GND*%
X133750000Y-107500000D03*
D13*
%TO.P,RV5,2,2*%
%TO.N,Net-(U1-IO32)*%
X133750000Y-105000000D03*
%TO.P,RV5,3,3*%
%TO.N,Net-(U1-3V3)*%
X133750000Y-102500000D03*
%TD*%
D14*
%TO.P,RV4,1,1*%
%TO.N,GND*%
X133750000Y-94750000D03*
D13*
%TO.P,RV4,2,2*%
%TO.N,Net-(U1-IO35)*%
X133750000Y-92250000D03*
%TO.P,RV4,3,3*%
%TO.N,Net-(U1-3V3)*%
X133750000Y-89750000D03*
%TD*%
D14*
%TO.P,RV3,1,1*%
%TO.N,GND*%
X133750000Y-81750000D03*
D13*
%TO.P,RV3,2,2*%
%TO.N,Net-(U1-IO34)*%
X133750000Y-79250000D03*
%TO.P,RV3,3,3*%
%TO.N,Net-(U1-3V3)*%
X133750000Y-76750000D03*
%TD*%
%TA.AperFunction,Conductor*%
%TO.N,GND*%
G36*
X186742539Y-46470185D02*
G01*
X186788294Y-46522989D01*
X186799500Y-46574500D01*
X186799500Y-116925500D01*
X186779815Y-116992539D01*
X186727011Y-117038294D01*
X186675500Y-117049500D01*
X118074500Y-117049500D01*
X118007461Y-117029815D01*
X117961706Y-116977011D01*
X117950500Y-116925500D01*
X117950500Y-111999999D01*
X134154364Y-111999999D01*
X134154364Y-112000000D01*
X135051988Y-112000000D01*
X135019075Y-112057007D01*
X134985000Y-112184174D01*
X134985000Y-112315826D01*
X135019075Y-112442993D01*
X135051988Y-112500000D01*
X134154364Y-112500000D01*
X134211567Y-112713486D01*
X134211570Y-112713492D01*
X134311399Y-112927578D01*
X134446894Y-113121082D01*
X134613917Y-113288105D01*
X134807421Y-113423600D01*
X135021507Y-113523429D01*
X135021516Y-113523433D01*
X135235000Y-113580634D01*
X135235000Y-112683012D01*
X135292007Y-112715925D01*
X135419174Y-112750000D01*
X135550826Y-112750000D01*
X135677993Y-112715925D01*
X135735000Y-112683012D01*
X135735000Y-113580633D01*
X135948483Y-113523433D01*
X135948492Y-113523429D01*
X136162578Y-113423600D01*
X136356078Y-113288108D01*
X136478133Y-113166053D01*
X136539456Y-113132568D01*
X136609148Y-113137552D01*
X136665082Y-113179423D01*
X136681997Y-113210401D01*
X136731202Y-113342328D01*
X136731206Y-113342335D01*
X136817452Y-113457544D01*
X136817455Y-113457547D01*
X136932664Y-113543793D01*
X136932671Y-113543797D01*
X137067517Y-113594091D01*
X137067516Y-113594091D01*
X137074444Y-113594835D01*
X137127127Y-113600500D01*
X138922872Y-113600499D01*
X138982483Y-113594091D01*
X139117331Y-113543796D01*
X139232546Y-113457546D01*
X139318796Y-113342331D01*
X139369091Y-113207483D01*
X139375500Y-113147873D01*
X139375499Y-111352128D01*
X139369091Y-111292517D01*
X139368002Y-111289598D01*
X139318797Y-111157671D01*
X139318793Y-111157664D01*
X139232547Y-111042455D01*
X139232544Y-111042452D01*
X139117335Y-110956206D01*
X139117328Y-110956202D01*
X138982482Y-110905908D01*
X138982483Y-110905908D01*
X138922883Y-110899501D01*
X138922881Y-110899500D01*
X138922873Y-110899500D01*
X138922864Y-110899500D01*
X137127129Y-110899500D01*
X137127123Y-110899501D01*
X137067516Y-110905908D01*
X136932671Y-110956202D01*
X136932664Y-110956206D01*
X136817455Y-111042452D01*
X136817452Y-111042455D01*
X136731206Y-111157664D01*
X136731202Y-111157671D01*
X136681997Y-111289598D01*
X136640126Y-111345532D01*
X136574661Y-111369949D01*
X136506388Y-111355097D01*
X136478134Y-111333946D01*
X136356082Y-111211894D01*
X136162578Y-111076399D01*
X135948492Y-110976570D01*
X135948486Y-110976567D01*
X135735000Y-110919364D01*
X135735000Y-111816988D01*
X135677993Y-111784075D01*
X135550826Y-111750000D01*
X135419174Y-111750000D01*
X135292007Y-111784075D01*
X135235000Y-111816988D01*
X135235000Y-110919364D01*
X135234999Y-110919364D01*
X135021513Y-110976567D01*
X135021507Y-110976570D01*
X134807422Y-111076399D01*
X134807420Y-111076400D01*
X134613926Y-111211886D01*
X134613920Y-111211891D01*
X134446891Y-111378920D01*
X134446886Y-111378926D01*
X134311400Y-111572420D01*
X134311399Y-111572422D01*
X134211570Y-111786507D01*
X134211567Y-111786513D01*
X134154364Y-111999999D01*
X117950500Y-111999999D01*
X117950500Y-102499993D01*
X132344700Y-102499993D01*
X132344700Y-102500006D01*
X132363864Y-102731297D01*
X132363866Y-102731308D01*
X132420842Y-102956300D01*
X132514075Y-103168848D01*
X132641016Y-103363147D01*
X132641019Y-103363151D01*
X132641021Y-103363153D01*
X132798216Y-103533913D01*
X132798219Y-103533915D01*
X132798222Y-103533918D01*
X132950122Y-103652147D01*
X132990935Y-103708857D01*
X132994610Y-103778630D01*
X132959978Y-103839313D01*
X132950122Y-103847853D01*
X132798222Y-103966081D01*
X132798219Y-103966084D01*
X132641016Y-104136852D01*
X132514075Y-104331151D01*
X132420842Y-104543699D01*
X132363866Y-104768691D01*
X132363864Y-104768702D01*
X132344700Y-104999993D01*
X132344700Y-105000006D01*
X132363864Y-105231297D01*
X132363866Y-105231308D01*
X132420842Y-105456300D01*
X132514075Y-105668848D01*
X132641016Y-105863147D01*
X132641019Y-105863150D01*
X132641021Y-105863153D01*
X132708757Y-105936734D01*
X132739678Y-105999387D01*
X132731818Y-106068813D01*
X132687670Y-106122968D01*
X132660861Y-106136896D01*
X132607916Y-106156644D01*
X132607906Y-106156649D01*
X132492812Y-106242809D01*
X132492809Y-106242812D01*
X132406649Y-106357906D01*
X132406645Y-106357913D01*
X132356403Y-106492620D01*
X132356401Y-106492627D01*
X132350000Y-106552155D01*
X132350000Y-107250000D01*
X133316988Y-107250000D01*
X133284075Y-107307007D01*
X133250000Y-107434174D01*
X133250000Y-107565826D01*
X133284075Y-107692993D01*
X133316988Y-107750000D01*
X132350000Y-107750000D01*
X132350000Y-108447844D01*
X132356401Y-108507372D01*
X132356403Y-108507379D01*
X132406645Y-108642086D01*
X132406649Y-108642093D01*
X132492809Y-108757187D01*
X132492812Y-108757190D01*
X132607906Y-108843350D01*
X132607913Y-108843354D01*
X132742620Y-108893596D01*
X132742627Y-108893598D01*
X132802155Y-108899999D01*
X132802172Y-108900000D01*
X133500000Y-108900000D01*
X133500000Y-107933012D01*
X133557007Y-107965925D01*
X133684174Y-108000000D01*
X133815826Y-108000000D01*
X133942993Y-107965925D01*
X134000000Y-107933012D01*
X134000000Y-108900000D01*
X134697828Y-108900000D01*
X134697844Y-108899999D01*
X134757372Y-108893598D01*
X134757379Y-108893596D01*
X134892086Y-108843354D01*
X134892093Y-108843350D01*
X135007187Y-108757190D01*
X135007190Y-108757187D01*
X135093350Y-108642093D01*
X135093354Y-108642086D01*
X135143596Y-108507379D01*
X135143598Y-108507372D01*
X135149999Y-108447844D01*
X135150000Y-108447827D01*
X135150000Y-107750000D01*
X134183012Y-107750000D01*
X134215925Y-107692993D01*
X134250000Y-107565826D01*
X134250000Y-107434174D01*
X134215925Y-107307007D01*
X134183012Y-107250000D01*
X135150000Y-107250000D01*
X135150000Y-106552172D01*
X135149999Y-106552155D01*
X135143598Y-106492627D01*
X135143596Y-106492620D01*
X135093354Y-106357913D01*
X135093350Y-106357906D01*
X135007190Y-106242812D01*
X135007187Y-106242809D01*
X134892093Y-106156649D01*
X134892084Y-106156644D01*
X134839138Y-106136896D01*
X134783205Y-106095025D01*
X134758789Y-106029560D01*
X134773641Y-105961287D01*
X134791240Y-105936737D01*
X134858979Y-105863153D01*
X134985924Y-105668849D01*
X135079157Y-105456300D01*
X135136134Y-105231305D01*
X135150063Y-105063206D01*
X135155300Y-105000006D01*
X135155300Y-104999993D01*
X135136135Y-104768702D01*
X135136133Y-104768691D01*
X135079157Y-104543699D01*
X134985924Y-104331151D01*
X134858983Y-104136852D01*
X134858980Y-104136849D01*
X134858979Y-104136847D01*
X134701784Y-103966087D01*
X134549876Y-103847852D01*
X134509064Y-103791143D01*
X134505389Y-103721370D01*
X134540020Y-103660687D01*
X134549876Y-103652147D01*
X134701784Y-103533913D01*
X134858979Y-103363153D01*
X134985924Y-103168849D01*
X135079157Y-102956300D01*
X135136134Y-102731305D01*
X135153377Y-102523208D01*
X135155300Y-102500006D01*
X135155300Y-102499993D01*
X135136135Y-102268702D01*
X135136133Y-102268691D01*
X135079157Y-102043699D01*
X134985924Y-101831151D01*
X134858983Y-101636852D01*
X134858980Y-101636849D01*
X134858979Y-101636847D01*
X134701784Y-101466087D01*
X134701779Y-101466083D01*
X134701777Y-101466081D01*
X134518634Y-101323535D01*
X134518628Y-101323531D01*
X134314504Y-101213064D01*
X134314495Y-101213061D01*
X134094984Y-101137702D01*
X133923282Y-101109050D01*
X133866049Y-101099500D01*
X133633951Y-101099500D01*
X133588164Y-101107140D01*
X133405015Y-101137702D01*
X133185504Y-101213061D01*
X133185495Y-101213064D01*
X132981371Y-101323531D01*
X132981365Y-101323535D01*
X132798222Y-101466081D01*
X132798219Y-101466084D01*
X132641016Y-101636852D01*
X132514075Y-101831151D01*
X132420842Y-102043699D01*
X132363866Y-102268691D01*
X132363864Y-102268702D01*
X132344700Y-102499993D01*
X117950500Y-102499993D01*
X117950500Y-95750000D01*
X120851920Y-95750000D01*
X120872211Y-96007820D01*
X120932582Y-96259285D01*
X121031549Y-96498213D01*
X121166673Y-96718714D01*
X121166676Y-96718719D01*
X121171767Y-96724679D01*
X121860690Y-96035756D01*
X121879668Y-96081574D01*
X121956274Y-96196224D01*
X122053776Y-96293726D01*
X122168426Y-96370332D01*
X122214242Y-96389309D01*
X121525319Y-97078232D01*
X121531283Y-97083325D01*
X121751786Y-97218450D01*
X121990714Y-97317417D01*
X122242179Y-97377788D01*
X122500000Y-97398079D01*
X122757820Y-97377788D01*
X123009285Y-97317417D01*
X123248213Y-97218450D01*
X123468713Y-97083326D01*
X123468723Y-97083319D01*
X123474678Y-97078232D01*
X123474678Y-97078231D01*
X122785756Y-96389309D01*
X122831574Y-96370332D01*
X122946224Y-96293726D01*
X123043726Y-96196224D01*
X123120332Y-96081574D01*
X123139309Y-96035756D01*
X123828231Y-96724678D01*
X123828232Y-96724678D01*
X123833319Y-96718723D01*
X123833326Y-96718713D01*
X123968450Y-96498213D01*
X124067417Y-96259285D01*
X124127788Y-96007820D01*
X124148079Y-95750000D01*
X127101920Y-95750000D01*
X127122211Y-96007820D01*
X127182582Y-96259285D01*
X127281549Y-96498213D01*
X127416673Y-96718714D01*
X127416676Y-96718719D01*
X127421767Y-96724679D01*
X128110690Y-96035756D01*
X128129668Y-96081574D01*
X128206274Y-96196224D01*
X128303776Y-96293726D01*
X128418426Y-96370332D01*
X128464242Y-96389309D01*
X127775319Y-97078232D01*
X127781283Y-97083325D01*
X128001786Y-97218450D01*
X128240714Y-97317417D01*
X128492179Y-97377788D01*
X128750000Y-97398079D01*
X129007820Y-97377788D01*
X129259285Y-97317417D01*
X129498213Y-97218450D01*
X129718713Y-97083326D01*
X129718723Y-97083319D01*
X129724678Y-97078232D01*
X129724678Y-97078231D01*
X129035756Y-96389309D01*
X129081574Y-96370332D01*
X129196224Y-96293726D01*
X129293726Y-96196224D01*
X129370332Y-96081574D01*
X129389309Y-96035756D01*
X130078231Y-96724678D01*
X130078232Y-96724678D01*
X130083319Y-96718723D01*
X130083326Y-96718713D01*
X130218450Y-96498213D01*
X130317417Y-96259285D01*
X130377788Y-96007820D01*
X130398079Y-95750000D01*
X130377788Y-95492179D01*
X130317417Y-95240714D01*
X130218450Y-95001786D01*
X130083325Y-94781283D01*
X130078232Y-94775319D01*
X129389309Y-95464242D01*
X129370332Y-95418426D01*
X129293726Y-95303776D01*
X129196224Y-95206274D01*
X129081574Y-95129668D01*
X129035756Y-95110689D01*
X129724679Y-94421767D01*
X129724679Y-94421766D01*
X129718719Y-94416676D01*
X129718714Y-94416673D01*
X129498213Y-94281549D01*
X129259285Y-94182582D01*
X129007820Y-94122211D01*
X128750000Y-94101920D01*
X128492179Y-94122211D01*
X128240714Y-94182582D01*
X128001786Y-94281549D01*
X127781289Y-94416670D01*
X127781273Y-94416682D01*
X127775320Y-94421766D01*
X128464243Y-95110689D01*
X128418426Y-95129668D01*
X128303776Y-95206274D01*
X128206274Y-95303776D01*
X128129668Y-95418426D01*
X128110690Y-95464243D01*
X127421766Y-94775320D01*
X127416682Y-94781273D01*
X127416670Y-94781289D01*
X127281549Y-95001786D01*
X127182582Y-95240714D01*
X127122211Y-95492179D01*
X127101920Y-95750000D01*
X124148079Y-95750000D01*
X124127788Y-95492179D01*
X124067417Y-95240714D01*
X123968450Y-95001786D01*
X123833325Y-94781283D01*
X123828232Y-94775319D01*
X123139309Y-95464242D01*
X123120332Y-95418426D01*
X123043726Y-95303776D01*
X122946224Y-95206274D01*
X122831574Y-95129668D01*
X122785756Y-95110689D01*
X123474679Y-94421767D01*
X123474679Y-94421766D01*
X123468719Y-94416676D01*
X123468714Y-94416673D01*
X123248213Y-94281549D01*
X123009285Y-94182582D01*
X122757820Y-94122211D01*
X122500000Y-94101920D01*
X122242179Y-94122211D01*
X121990714Y-94182582D01*
X121751786Y-94281549D01*
X121531289Y-94416670D01*
X121531273Y-94416682D01*
X121525320Y-94421766D01*
X122214243Y-95110689D01*
X122168426Y-95129668D01*
X122053776Y-95206274D01*
X121956274Y-95303776D01*
X121879668Y-95418426D01*
X121860690Y-95464243D01*
X121171766Y-94775320D01*
X121166682Y-94781273D01*
X121166670Y-94781289D01*
X121031549Y-95001786D01*
X120932582Y-95240714D01*
X120872211Y-95492179D01*
X120851920Y-95750000D01*
X117950500Y-95750000D01*
X117950500Y-89749993D01*
X132344700Y-89749993D01*
X132344700Y-89750006D01*
X132363864Y-89981297D01*
X132363866Y-89981308D01*
X132420842Y-90206300D01*
X132514075Y-90418848D01*
X132641016Y-90613147D01*
X132641019Y-90613151D01*
X132641021Y-90613153D01*
X132798216Y-90783913D01*
X132798219Y-90783915D01*
X132798222Y-90783918D01*
X132950122Y-90902147D01*
X132990935Y-90958857D01*
X132994610Y-91028630D01*
X132959978Y-91089313D01*
X132950122Y-91097853D01*
X132798222Y-91216081D01*
X132798219Y-91216084D01*
X132641016Y-91386852D01*
X132514075Y-91581151D01*
X132420842Y-91793699D01*
X132363866Y-92018691D01*
X132363864Y-92018702D01*
X132344700Y-92249993D01*
X132344700Y-92250006D01*
X132363864Y-92481297D01*
X132363866Y-92481308D01*
X132420842Y-92706300D01*
X132514075Y-92918848D01*
X132641016Y-93113147D01*
X132641019Y-93113150D01*
X132641021Y-93113153D01*
X132708757Y-93186734D01*
X132739678Y-93249387D01*
X132731818Y-93318813D01*
X132687670Y-93372968D01*
X132660861Y-93386896D01*
X132607916Y-93406644D01*
X132607906Y-93406649D01*
X132492812Y-93492809D01*
X132492809Y-93492812D01*
X132406649Y-93607906D01*
X132406645Y-93607913D01*
X132356403Y-93742620D01*
X132356401Y-93742627D01*
X132350000Y-93802155D01*
X132350000Y-94500000D01*
X133316988Y-94500000D01*
X133284075Y-94557007D01*
X133250000Y-94684174D01*
X133250000Y-94815826D01*
X133284075Y-94942993D01*
X133316988Y-95000000D01*
X132350000Y-95000000D01*
X132350000Y-95697844D01*
X132356401Y-95757372D01*
X132356403Y-95757379D01*
X132406645Y-95892086D01*
X132406649Y-95892093D01*
X132492809Y-96007187D01*
X132492812Y-96007190D01*
X132607906Y-96093350D01*
X132607913Y-96093354D01*
X132742620Y-96143596D01*
X132742627Y-96143598D01*
X132802155Y-96149999D01*
X132802172Y-96150000D01*
X133500000Y-96150000D01*
X133500000Y-95183012D01*
X133557007Y-95215925D01*
X133684174Y-95250000D01*
X133815826Y-95250000D01*
X133942993Y-95215925D01*
X134000000Y-95183012D01*
X134000000Y-96150000D01*
X134697828Y-96150000D01*
X134697844Y-96149999D01*
X134757372Y-96143598D01*
X134757379Y-96143596D01*
X134892086Y-96093354D01*
X134892093Y-96093350D01*
X135007187Y-96007190D01*
X135007190Y-96007187D01*
X135093350Y-95892093D01*
X135093354Y-95892086D01*
X135143596Y-95757379D01*
X135143598Y-95757372D01*
X135149999Y-95697844D01*
X135150000Y-95697827D01*
X135150000Y-95000000D01*
X134183012Y-95000000D01*
X134215925Y-94942993D01*
X134250000Y-94815826D01*
X134250000Y-94684174D01*
X134215925Y-94557007D01*
X134183012Y-94500000D01*
X135150000Y-94500000D01*
X135150000Y-93802172D01*
X135149999Y-93802155D01*
X135143598Y-93742627D01*
X135143596Y-93742620D01*
X135093354Y-93607913D01*
X135093350Y-93607906D01*
X135007190Y-93492812D01*
X135007187Y-93492809D01*
X134892093Y-93406649D01*
X134892084Y-93406644D01*
X134839138Y-93386896D01*
X134783205Y-93345025D01*
X134758789Y-93279560D01*
X134773641Y-93211287D01*
X134791240Y-93186737D01*
X134858979Y-93113153D01*
X134985924Y-92918849D01*
X135079157Y-92706300D01*
X135136134Y-92481305D01*
X135145920Y-92363206D01*
X135155300Y-92250006D01*
X135155300Y-92249993D01*
X135136135Y-92018702D01*
X135136133Y-92018691D01*
X135079157Y-91793699D01*
X134985924Y-91581151D01*
X134858983Y-91386852D01*
X134858980Y-91386849D01*
X134858979Y-91386847D01*
X134701784Y-91216087D01*
X134549876Y-91097852D01*
X134509064Y-91041143D01*
X134505389Y-90971370D01*
X134540020Y-90910687D01*
X134549876Y-90902147D01*
X134701784Y-90783913D01*
X134858979Y-90613153D01*
X134985924Y-90418849D01*
X135079157Y-90206300D01*
X135136134Y-89981305D01*
X135149234Y-89823208D01*
X135155300Y-89750006D01*
X135155300Y-89749993D01*
X135136135Y-89518702D01*
X135136133Y-89518691D01*
X135079157Y-89293699D01*
X134985924Y-89081151D01*
X134858983Y-88886852D01*
X134858980Y-88886849D01*
X134858979Y-88886847D01*
X134701784Y-88716087D01*
X134701779Y-88716083D01*
X134701777Y-88716081D01*
X134518634Y-88573535D01*
X134518628Y-88573531D01*
X134314504Y-88463064D01*
X134314495Y-88463061D01*
X134094984Y-88387702D01*
X133923282Y-88359050D01*
X133866049Y-88349500D01*
X133633951Y-88349500D01*
X133588164Y-88357140D01*
X133405015Y-88387702D01*
X133185504Y-88463061D01*
X133185495Y-88463064D01*
X132981371Y-88573531D01*
X132981365Y-88573535D01*
X132798222Y-88716081D01*
X132798219Y-88716084D01*
X132641016Y-88886852D01*
X132514075Y-89081151D01*
X132420842Y-89293699D01*
X132363866Y-89518691D01*
X132363864Y-89518702D01*
X132344700Y-89749993D01*
X117950500Y-89749993D01*
X117950500Y-82500000D01*
X120851920Y-82500000D01*
X120872211Y-82757820D01*
X120932582Y-83009285D01*
X121031549Y-83248213D01*
X121166673Y-83468714D01*
X121166676Y-83468719D01*
X121171767Y-83474679D01*
X121860690Y-82785756D01*
X121879668Y-82831574D01*
X121956274Y-82946224D01*
X122053776Y-83043726D01*
X122168426Y-83120332D01*
X122214242Y-83139309D01*
X121525319Y-83828232D01*
X121531283Y-83833325D01*
X121751786Y-83968450D01*
X121990714Y-84067417D01*
X122242179Y-84127788D01*
X122500000Y-84148079D01*
X122757820Y-84127788D01*
X123009285Y-84067417D01*
X123248213Y-83968450D01*
X123468713Y-83833326D01*
X123468723Y-83833319D01*
X123474678Y-83828232D01*
X123474678Y-83828231D01*
X122785756Y-83139309D01*
X122831574Y-83120332D01*
X122946224Y-83043726D01*
X123043726Y-82946224D01*
X123120332Y-82831574D01*
X123139309Y-82785756D01*
X123828231Y-83474678D01*
X123828232Y-83474678D01*
X123833319Y-83468723D01*
X123833326Y-83468713D01*
X123968450Y-83248213D01*
X124067417Y-83009285D01*
X124127788Y-82757820D01*
X124148079Y-82500000D01*
X127101920Y-82500000D01*
X127122211Y-82757820D01*
X127182582Y-83009285D01*
X127281549Y-83248213D01*
X127416673Y-83468714D01*
X127416676Y-83468719D01*
X127421767Y-83474679D01*
X128110690Y-82785756D01*
X128129668Y-82831574D01*
X128206274Y-82946224D01*
X128303776Y-83043726D01*
X128418426Y-83120332D01*
X128464242Y-83139309D01*
X127775319Y-83828232D01*
X127781283Y-83833325D01*
X128001786Y-83968450D01*
X128240714Y-84067417D01*
X128492179Y-84127788D01*
X128750000Y-84148079D01*
X129007820Y-84127788D01*
X129259285Y-84067417D01*
X129498213Y-83968450D01*
X129718713Y-83833326D01*
X129718723Y-83833319D01*
X129724678Y-83828232D01*
X129724678Y-83828231D01*
X129035756Y-83139309D01*
X129081574Y-83120332D01*
X129196224Y-83043726D01*
X129293726Y-82946224D01*
X129370332Y-82831574D01*
X129389309Y-82785756D01*
X130078231Y-83474678D01*
X130078232Y-83474678D01*
X130083319Y-83468723D01*
X130083326Y-83468713D01*
X130218450Y-83248213D01*
X130317417Y-83009285D01*
X130377788Y-82757820D01*
X130398079Y-82500000D01*
X130377788Y-82242179D01*
X130317417Y-81990714D01*
X130218450Y-81751786D01*
X130083325Y-81531283D01*
X130078232Y-81525319D01*
X129389309Y-82214242D01*
X129370332Y-82168426D01*
X129293726Y-82053776D01*
X129196224Y-81956274D01*
X129081574Y-81879668D01*
X129035756Y-81860689D01*
X129724679Y-81171767D01*
X129724679Y-81171766D01*
X129718719Y-81166676D01*
X129718714Y-81166673D01*
X129498213Y-81031549D01*
X129259285Y-80932582D01*
X129007820Y-80872211D01*
X128750000Y-80851920D01*
X128492179Y-80872211D01*
X128240714Y-80932582D01*
X128001786Y-81031549D01*
X127781289Y-81166670D01*
X127781273Y-81166682D01*
X127775320Y-81171766D01*
X128464243Y-81860689D01*
X128418426Y-81879668D01*
X128303776Y-81956274D01*
X128206274Y-82053776D01*
X128129668Y-82168426D01*
X128110690Y-82214243D01*
X127421766Y-81525320D01*
X127416682Y-81531273D01*
X127416670Y-81531289D01*
X127281549Y-81751786D01*
X127182582Y-81990714D01*
X127122211Y-82242179D01*
X127101920Y-82500000D01*
X124148079Y-82500000D01*
X124127788Y-82242179D01*
X124067417Y-81990714D01*
X123968450Y-81751786D01*
X123833325Y-81531283D01*
X123828232Y-81525319D01*
X123139309Y-82214242D01*
X123120332Y-82168426D01*
X123043726Y-82053776D01*
X122946224Y-81956274D01*
X122831574Y-81879668D01*
X122785756Y-81860689D01*
X123474679Y-81171767D01*
X123474679Y-81171766D01*
X123468719Y-81166676D01*
X123468714Y-81166673D01*
X123248213Y-81031549D01*
X123009285Y-80932582D01*
X122757820Y-80872211D01*
X122500000Y-80851920D01*
X122242179Y-80872211D01*
X121990714Y-80932582D01*
X121751786Y-81031549D01*
X121531289Y-81166670D01*
X121531273Y-81166682D01*
X121525320Y-81171766D01*
X122214243Y-81860689D01*
X122168426Y-81879668D01*
X122053776Y-81956274D01*
X121956274Y-82053776D01*
X121879668Y-82168426D01*
X121860690Y-82214243D01*
X121171766Y-81525320D01*
X121166682Y-81531273D01*
X121166670Y-81531289D01*
X121031549Y-81751786D01*
X120932582Y-81990714D01*
X120872211Y-82242179D01*
X120851920Y-82500000D01*
X117950500Y-82500000D01*
X117950500Y-76749993D01*
X132344700Y-76749993D01*
X132344700Y-76750006D01*
X132363864Y-76981297D01*
X132363866Y-76981308D01*
X132420842Y-77206300D01*
X132514075Y-77418848D01*
X132641016Y-77613147D01*
X132641019Y-77613151D01*
X132641021Y-77613153D01*
X132798216Y-77783913D01*
X132798219Y-77783915D01*
X132798222Y-77783918D01*
X132950122Y-77902147D01*
X132990935Y-77958857D01*
X132994610Y-78028630D01*
X132959978Y-78089313D01*
X132950122Y-78097853D01*
X132798222Y-78216081D01*
X132798219Y-78216084D01*
X132641016Y-78386852D01*
X132514075Y-78581151D01*
X132420842Y-78793699D01*
X132363866Y-79018691D01*
X132363864Y-79018702D01*
X132344700Y-79249993D01*
X132344700Y-79250006D01*
X132363864Y-79481297D01*
X132363866Y-79481308D01*
X132420842Y-79706300D01*
X132514075Y-79918848D01*
X132641016Y-80113147D01*
X132641019Y-80113150D01*
X132641021Y-80113153D01*
X132708757Y-80186734D01*
X132739678Y-80249387D01*
X132731818Y-80318813D01*
X132687670Y-80372968D01*
X132660861Y-80386896D01*
X132607916Y-80406644D01*
X132607906Y-80406649D01*
X132492812Y-80492809D01*
X132492809Y-80492812D01*
X132406649Y-80607906D01*
X132406645Y-80607913D01*
X132356403Y-80742620D01*
X132356401Y-80742627D01*
X132350000Y-80802155D01*
X132350000Y-81500000D01*
X133316988Y-81500000D01*
X133284075Y-81557007D01*
X133250000Y-81684174D01*
X133250000Y-81815826D01*
X133284075Y-81942993D01*
X133316988Y-82000000D01*
X132350000Y-82000000D01*
X132350000Y-82697844D01*
X132356401Y-82757372D01*
X132356403Y-82757379D01*
X132406645Y-82892086D01*
X132406649Y-82892093D01*
X132492809Y-83007187D01*
X132492812Y-83007190D01*
X132607906Y-83093350D01*
X132607913Y-83093354D01*
X132742620Y-83143596D01*
X132742627Y-83143598D01*
X132802155Y-83149999D01*
X132802172Y-83150000D01*
X133500000Y-83150000D01*
X133500000Y-82183012D01*
X133557007Y-82215925D01*
X133684174Y-82250000D01*
X133815826Y-82250000D01*
X133942993Y-82215925D01*
X134000000Y-82183012D01*
X134000000Y-83150000D01*
X134697828Y-83150000D01*
X134697844Y-83149999D01*
X134757372Y-83143598D01*
X134757379Y-83143596D01*
X134892086Y-83093354D01*
X134892093Y-83093350D01*
X135007187Y-83007190D01*
X135007190Y-83007187D01*
X135093350Y-82892093D01*
X135093354Y-82892086D01*
X135143596Y-82757379D01*
X135143598Y-82757372D01*
X135149999Y-82697844D01*
X135150000Y-82697827D01*
X135150000Y-82000000D01*
X134183012Y-82000000D01*
X134215925Y-81942993D01*
X134250000Y-81815826D01*
X134250000Y-81684174D01*
X134215925Y-81557007D01*
X134183012Y-81500000D01*
X135150000Y-81500000D01*
X135150000Y-80802172D01*
X135149999Y-80802155D01*
X135143598Y-80742627D01*
X135143596Y-80742620D01*
X135093354Y-80607913D01*
X135093350Y-80607906D01*
X135007190Y-80492812D01*
X135007187Y-80492809D01*
X134892093Y-80406649D01*
X134892084Y-80406644D01*
X134839138Y-80386896D01*
X134783205Y-80345025D01*
X134758789Y-80279560D01*
X134773641Y-80211287D01*
X134791240Y-80186737D01*
X134858979Y-80113153D01*
X134985924Y-79918849D01*
X135079157Y-79706300D01*
X135136134Y-79481305D01*
X135136135Y-79481297D01*
X135155300Y-79250006D01*
X135155300Y-79249993D01*
X135136135Y-79018702D01*
X135136133Y-79018691D01*
X135079157Y-78793699D01*
X134985924Y-78581151D01*
X134858983Y-78386852D01*
X134858980Y-78386849D01*
X134858979Y-78386847D01*
X134701784Y-78216087D01*
X134549876Y-78097852D01*
X134509064Y-78041143D01*
X134505389Y-77971370D01*
X134540020Y-77910687D01*
X134549876Y-77902147D01*
X134701784Y-77783913D01*
X134858979Y-77613153D01*
X134985924Y-77418849D01*
X135079157Y-77206300D01*
X135136134Y-76981305D01*
X135142871Y-76900000D01*
X135155300Y-76750006D01*
X135155300Y-76749993D01*
X135136135Y-76518702D01*
X135136133Y-76518691D01*
X135079157Y-76293699D01*
X134985924Y-76081151D01*
X134858983Y-75886852D01*
X134858980Y-75886849D01*
X134858979Y-75886847D01*
X134701784Y-75716087D01*
X134701779Y-75716083D01*
X134701777Y-75716081D01*
X134518634Y-75573535D01*
X134518628Y-75573531D01*
X134314504Y-75463064D01*
X134314495Y-75463061D01*
X134094984Y-75387702D01*
X133880449Y-75351903D01*
X133866049Y-75349500D01*
X133633951Y-75349500D01*
X133619551Y-75351903D01*
X133405015Y-75387702D01*
X133185504Y-75463061D01*
X133185495Y-75463064D01*
X132981371Y-75573531D01*
X132981365Y-75573535D01*
X132798222Y-75716081D01*
X132798219Y-75716084D01*
X132641016Y-75886852D01*
X132514075Y-76081151D01*
X132420842Y-76293699D01*
X132363866Y-76518691D01*
X132363864Y-76518702D01*
X132344700Y-76749993D01*
X117950500Y-76749993D01*
X117950500Y-70572000D01*
X120743920Y-70572000D01*
X120764211Y-70829820D01*
X120824582Y-71081285D01*
X120923549Y-71320213D01*
X121058673Y-71540714D01*
X121058676Y-71540719D01*
X121063767Y-71546679D01*
X121752690Y-70857756D01*
X121771668Y-70903574D01*
X121848274Y-71018224D01*
X121945776Y-71115726D01*
X122060426Y-71192332D01*
X122106242Y-71211309D01*
X121417319Y-71900232D01*
X121423283Y-71905325D01*
X121643786Y-72040450D01*
X121882714Y-72139417D01*
X122134179Y-72199788D01*
X122392000Y-72220079D01*
X122649820Y-72199788D01*
X122901285Y-72139417D01*
X123140213Y-72040450D01*
X123360713Y-71905326D01*
X123360723Y-71905319D01*
X123366678Y-71900232D01*
X123366678Y-71900231D01*
X122677756Y-71211309D01*
X122723574Y-71192332D01*
X122838224Y-71115726D01*
X122935726Y-71018224D01*
X123012332Y-70903574D01*
X123031309Y-70857756D01*
X123720231Y-71546678D01*
X123720232Y-71546678D01*
X123725319Y-71540723D01*
X123725326Y-71540713D01*
X123860450Y-71320213D01*
X123959417Y-71081285D01*
X124019788Y-70829820D01*
X124040079Y-70572000D01*
X124034412Y-70500000D01*
X127101920Y-70500000D01*
X127122211Y-70757820D01*
X127182582Y-71009285D01*
X127281549Y-71248213D01*
X127416673Y-71468714D01*
X127416676Y-71468719D01*
X127421767Y-71474679D01*
X128110690Y-70785756D01*
X128129668Y-70831574D01*
X128206274Y-70946224D01*
X128303776Y-71043726D01*
X128418426Y-71120332D01*
X128464242Y-71139309D01*
X127775319Y-71828232D01*
X127781283Y-71833325D01*
X128001786Y-71968450D01*
X128240714Y-72067417D01*
X128492179Y-72127788D01*
X128750000Y-72148079D01*
X129007820Y-72127788D01*
X129259285Y-72067417D01*
X129498213Y-71968450D01*
X129718713Y-71833326D01*
X129718723Y-71833319D01*
X129724678Y-71828232D01*
X129724678Y-71828231D01*
X129035756Y-71139309D01*
X129081574Y-71120332D01*
X129196224Y-71043726D01*
X129293726Y-70946224D01*
X129370332Y-70831574D01*
X129389309Y-70785756D01*
X130078231Y-71474678D01*
X130078232Y-71474678D01*
X130083319Y-71468723D01*
X130083326Y-71468713D01*
X130218450Y-71248213D01*
X130317417Y-71009285D01*
X130377788Y-70757820D01*
X130398079Y-70500000D01*
X130377788Y-70242179D01*
X130317417Y-69990714D01*
X130218450Y-69751786D01*
X130083325Y-69531283D01*
X130078232Y-69525319D01*
X129389309Y-70214242D01*
X129370332Y-70168426D01*
X129293726Y-70053776D01*
X129196224Y-69956274D01*
X129081574Y-69879668D01*
X129035756Y-69860689D01*
X129724679Y-69171767D01*
X129724679Y-69171766D01*
X129718719Y-69166676D01*
X129718714Y-69166673D01*
X129498213Y-69031549D01*
X129259285Y-68932582D01*
X129007820Y-68872211D01*
X128750000Y-68851920D01*
X128492179Y-68872211D01*
X128240714Y-68932582D01*
X128001786Y-69031549D01*
X127781289Y-69166670D01*
X127781273Y-69166682D01*
X127775320Y-69171766D01*
X128464243Y-69860689D01*
X128418426Y-69879668D01*
X128303776Y-69956274D01*
X128206274Y-70053776D01*
X128129668Y-70168426D01*
X128110690Y-70214243D01*
X127421766Y-69525320D01*
X127416682Y-69531273D01*
X127416670Y-69531289D01*
X127281549Y-69751786D01*
X127182582Y-69990714D01*
X127122211Y-70242179D01*
X127101920Y-70500000D01*
X124034412Y-70500000D01*
X124019788Y-70314179D01*
X123959417Y-70062714D01*
X123860450Y-69823786D01*
X123725325Y-69603283D01*
X123720232Y-69597319D01*
X123031309Y-70286242D01*
X123012332Y-70240426D01*
X122935726Y-70125776D01*
X122838224Y-70028274D01*
X122723574Y-69951668D01*
X122677756Y-69932689D01*
X123366679Y-69243767D01*
X123366679Y-69243766D01*
X123360719Y-69238676D01*
X123360714Y-69238673D01*
X123140213Y-69103549D01*
X122901285Y-69004582D01*
X122649820Y-68944211D01*
X122392000Y-68923920D01*
X122134179Y-68944211D01*
X121882714Y-69004582D01*
X121643786Y-69103549D01*
X121423289Y-69238670D01*
X121423273Y-69238682D01*
X121417320Y-69243766D01*
X122106243Y-69932689D01*
X122060426Y-69951668D01*
X121945776Y-70028274D01*
X121848274Y-70125776D01*
X121771668Y-70240426D01*
X121752690Y-70286243D01*
X121063766Y-69597320D01*
X121058682Y-69603273D01*
X121058670Y-69603289D01*
X120923549Y-69823786D01*
X120824582Y-70062714D01*
X120764211Y-70314179D01*
X120743920Y-70572000D01*
X117950500Y-70572000D01*
X117950500Y-63999993D01*
X132344700Y-63999993D01*
X132344700Y-64000006D01*
X132363864Y-64231297D01*
X132363866Y-64231308D01*
X132420842Y-64456300D01*
X132514075Y-64668848D01*
X132641016Y-64863147D01*
X132641019Y-64863151D01*
X132641021Y-64863153D01*
X132798216Y-65033913D01*
X132798219Y-65033915D01*
X132798222Y-65033918D01*
X132950122Y-65152147D01*
X132990935Y-65208857D01*
X132994610Y-65278630D01*
X132959978Y-65339313D01*
X132950122Y-65347853D01*
X132798222Y-65466081D01*
X132798219Y-65466084D01*
X132798216Y-65466086D01*
X132798216Y-65466087D01*
X132739267Y-65530122D01*
X132641016Y-65636852D01*
X132514075Y-65831151D01*
X132420842Y-66043699D01*
X132363866Y-66268691D01*
X132363864Y-66268702D01*
X132344700Y-66499993D01*
X132344700Y-66500006D01*
X132363864Y-66731297D01*
X132363866Y-66731308D01*
X132420842Y-66956300D01*
X132514075Y-67168848D01*
X132641016Y-67363147D01*
X132641019Y-67363150D01*
X132641021Y-67363153D01*
X132708757Y-67436734D01*
X132739678Y-67499387D01*
X132731818Y-67568813D01*
X132687670Y-67622968D01*
X132660861Y-67636896D01*
X132607916Y-67656644D01*
X132607906Y-67656649D01*
X132492812Y-67742809D01*
X132492809Y-67742812D01*
X132406649Y-67857906D01*
X132406645Y-67857913D01*
X132356403Y-67992620D01*
X132356401Y-67992627D01*
X132350000Y-68052155D01*
X132350000Y-68750000D01*
X133316988Y-68750000D01*
X133284075Y-68807007D01*
X133250000Y-68934174D01*
X133250000Y-69065826D01*
X133284075Y-69192993D01*
X133316988Y-69250000D01*
X132350000Y-69250000D01*
X132350000Y-69947844D01*
X132356401Y-70007372D01*
X132356403Y-70007379D01*
X132406645Y-70142086D01*
X132406649Y-70142093D01*
X132492809Y-70257187D01*
X132492812Y-70257190D01*
X132607906Y-70343350D01*
X132607913Y-70343354D01*
X132742620Y-70393596D01*
X132742627Y-70393598D01*
X132802155Y-70399999D01*
X132802172Y-70400000D01*
X133500000Y-70400000D01*
X133500000Y-69433012D01*
X133557007Y-69465925D01*
X133684174Y-69500000D01*
X133815826Y-69500000D01*
X133942993Y-69465925D01*
X134000000Y-69433012D01*
X134000000Y-70400000D01*
X134697828Y-70400000D01*
X134697844Y-70399999D01*
X134757372Y-70393598D01*
X134757379Y-70393596D01*
X134892086Y-70343354D01*
X134892093Y-70343350D01*
X135007187Y-70257190D01*
X135007190Y-70257187D01*
X135093350Y-70142093D01*
X135093354Y-70142086D01*
X135143596Y-70007379D01*
X135143598Y-70007372D01*
X135149999Y-69947844D01*
X135150000Y-69947827D01*
X135150000Y-69250000D01*
X134183012Y-69250000D01*
X134215925Y-69192993D01*
X134250000Y-69065826D01*
X134250000Y-68934174D01*
X134215925Y-68807007D01*
X134183012Y-68750000D01*
X135150000Y-68750000D01*
X135150000Y-68052172D01*
X135149999Y-68052155D01*
X135143598Y-67992627D01*
X135143596Y-67992620D01*
X135093354Y-67857913D01*
X135093350Y-67857906D01*
X135007190Y-67742812D01*
X135007187Y-67742809D01*
X134892093Y-67656649D01*
X134892084Y-67656644D01*
X134839138Y-67636896D01*
X134783205Y-67595025D01*
X134758789Y-67529560D01*
X134773641Y-67461287D01*
X134791240Y-67436737D01*
X134858979Y-67363153D01*
X134985924Y-67168849D01*
X135079157Y-66956300D01*
X135136134Y-66731305D01*
X135143312Y-66644678D01*
X135155300Y-66500006D01*
X135155300Y-66499993D01*
X135136135Y-66268702D01*
X135136133Y-66268691D01*
X135079157Y-66043699D01*
X134985924Y-65831151D01*
X134858983Y-65636852D01*
X134858980Y-65636849D01*
X134858979Y-65636847D01*
X134701784Y-65466087D01*
X134549876Y-65347852D01*
X134509064Y-65291143D01*
X134505389Y-65221370D01*
X134540020Y-65160687D01*
X134549876Y-65152147D01*
X134701784Y-65033913D01*
X134858979Y-64863153D01*
X134985924Y-64668849D01*
X135079157Y-64456300D01*
X135136134Y-64231305D01*
X135138728Y-64199998D01*
X142914609Y-64199998D01*
X142914609Y-64200001D01*
X142934136Y-64423200D01*
X142934137Y-64423208D01*
X142992126Y-64639625D01*
X142992127Y-64639627D01*
X142992128Y-64639630D01*
X143020880Y-64701289D01*
X143086819Y-64842696D01*
X143086821Y-64842700D01*
X143215329Y-65026228D01*
X143215334Y-65026234D01*
X143373765Y-65184665D01*
X143373771Y-65184670D01*
X143557299Y-65313178D01*
X143557301Y-65313179D01*
X143557304Y-65313181D01*
X143631659Y-65347853D01*
X143652600Y-65357618D01*
X143705039Y-65403790D01*
X143724191Y-65470984D01*
X143703975Y-65537865D01*
X143652600Y-65582382D01*
X143557306Y-65626818D01*
X143557304Y-65626819D01*
X143373764Y-65755334D01*
X143215334Y-65913764D01*
X143086819Y-66097304D01*
X143086818Y-66097306D01*
X142992129Y-66300368D01*
X142992126Y-66300374D01*
X142934137Y-66516791D01*
X142934136Y-66516799D01*
X142914609Y-66739998D01*
X142914609Y-66740001D01*
X142934136Y-66963200D01*
X142934137Y-66963208D01*
X142992126Y-67179625D01*
X142992127Y-67179627D01*
X142992128Y-67179630D01*
X143047226Y-67297788D01*
X143086819Y-67382696D01*
X143086821Y-67382700D01*
X143215329Y-67566228D01*
X143215334Y-67566234D01*
X143373765Y-67724665D01*
X143373771Y-67724670D01*
X143557299Y-67853178D01*
X143557301Y-67853179D01*
X143557304Y-67853181D01*
X143576856Y-67862298D01*
X143652600Y-67897618D01*
X143705039Y-67943790D01*
X143724191Y-68010984D01*
X143703975Y-68077865D01*
X143652600Y-68122382D01*
X143557306Y-68166818D01*
X143557304Y-68166819D01*
X143373764Y-68295334D01*
X143215334Y-68453764D01*
X143086819Y-68637304D01*
X143086818Y-68637306D01*
X142992129Y-68840368D01*
X142992126Y-68840374D01*
X142934137Y-69056791D01*
X142934136Y-69056799D01*
X142914609Y-69279998D01*
X142914609Y-69280001D01*
X142934136Y-69503200D01*
X142934137Y-69503208D01*
X142992126Y-69719625D01*
X142992127Y-69719627D01*
X142992128Y-69719630D01*
X143007123Y-69751786D01*
X143086819Y-69922696D01*
X143086821Y-69922700D01*
X143215329Y-70106228D01*
X143215334Y-70106234D01*
X143373765Y-70264665D01*
X143373771Y-70264670D01*
X143557299Y-70393178D01*
X143557301Y-70393179D01*
X143557304Y-70393181D01*
X143652600Y-70437618D01*
X143705039Y-70483790D01*
X143724191Y-70550984D01*
X143703975Y-70617865D01*
X143652600Y-70662382D01*
X143557306Y-70706818D01*
X143557304Y-70706819D01*
X143373764Y-70835334D01*
X143215334Y-70993764D01*
X143086819Y-71177304D01*
X143086818Y-71177306D01*
X142992129Y-71380368D01*
X142992126Y-71380374D01*
X142934137Y-71596791D01*
X142934136Y-71596799D01*
X142914609Y-71819998D01*
X142914609Y-71820001D01*
X142934136Y-72043200D01*
X142934137Y-72043208D01*
X142992126Y-72259625D01*
X142992127Y-72259627D01*
X142992128Y-72259630D01*
X143086819Y-72462696D01*
X143086821Y-72462700D01*
X143215329Y-72646228D01*
X143215334Y-72646234D01*
X143373765Y-72804665D01*
X143373771Y-72804670D01*
X143557299Y-72933178D01*
X143557301Y-72933179D01*
X143557304Y-72933181D01*
X143652600Y-72977618D01*
X143705039Y-73023790D01*
X143724191Y-73090984D01*
X143703975Y-73157865D01*
X143652600Y-73202382D01*
X143557306Y-73246818D01*
X143557304Y-73246819D01*
X143373764Y-73375334D01*
X143215334Y-73533764D01*
X143086819Y-73717304D01*
X143086818Y-73717306D01*
X142992129Y-73920368D01*
X142992126Y-73920374D01*
X142934137Y-74136791D01*
X142934136Y-74136799D01*
X142914609Y-74359998D01*
X142914609Y-74360001D01*
X142934136Y-74583200D01*
X142934137Y-74583208D01*
X142992126Y-74799625D01*
X142992127Y-74799627D01*
X142992128Y-74799630D01*
X143020880Y-74861289D01*
X143086819Y-75002696D01*
X143086821Y-75002700D01*
X143215329Y-75186228D01*
X143215334Y-75186234D01*
X143373765Y-75344665D01*
X143373771Y-75344670D01*
X143557299Y-75473178D01*
X143557301Y-75473179D01*
X143557304Y-75473181D01*
X143652600Y-75517618D01*
X143705039Y-75563790D01*
X143724191Y-75630984D01*
X143703975Y-75697865D01*
X143652600Y-75742382D01*
X143557306Y-75786818D01*
X143557304Y-75786819D01*
X143373764Y-75915334D01*
X143215334Y-76073764D01*
X143086819Y-76257304D01*
X143086818Y-76257306D01*
X142992129Y-76460368D01*
X142992126Y-76460374D01*
X142934137Y-76676791D01*
X142934136Y-76676799D01*
X142914609Y-76899998D01*
X142914609Y-76900001D01*
X142934136Y-77123200D01*
X142934137Y-77123208D01*
X142992126Y-77339625D01*
X142992127Y-77339627D01*
X142992128Y-77339630D01*
X143047226Y-77457788D01*
X143086819Y-77542696D01*
X143086821Y-77542700D01*
X143215329Y-77726228D01*
X143215334Y-77726234D01*
X143373765Y-77884665D01*
X143373771Y-77884670D01*
X143557299Y-78013178D01*
X143557301Y-78013179D01*
X143557304Y-78013181D01*
X143590435Y-78028630D01*
X143652600Y-78057618D01*
X143705039Y-78103790D01*
X143724191Y-78170984D01*
X143703975Y-78237865D01*
X143652600Y-78282382D01*
X143557306Y-78326818D01*
X143557304Y-78326819D01*
X143373764Y-78455334D01*
X143215334Y-78613764D01*
X143086819Y-78797304D01*
X143086818Y-78797306D01*
X142992129Y-79000368D01*
X142992126Y-79000374D01*
X142934137Y-79216791D01*
X142934136Y-79216799D01*
X142914609Y-79439998D01*
X142914609Y-79440001D01*
X142934136Y-79663200D01*
X142934137Y-79663208D01*
X142992126Y-79879625D01*
X142992127Y-79879627D01*
X142992128Y-79879630D01*
X143086819Y-80082696D01*
X143086821Y-80082700D01*
X143215329Y-80266228D01*
X143215334Y-80266234D01*
X143373765Y-80424665D01*
X143373771Y-80424670D01*
X143557299Y-80553178D01*
X143557301Y-80553179D01*
X143557304Y-80553181D01*
X143652600Y-80597618D01*
X143705039Y-80643790D01*
X143724191Y-80710984D01*
X143703975Y-80777865D01*
X143652600Y-80822382D01*
X143557306Y-80866818D01*
X143557304Y-80866819D01*
X143373764Y-80995334D01*
X143215334Y-81153764D01*
X143086819Y-81337304D01*
X143086818Y-81337306D01*
X142992129Y-81540368D01*
X142992126Y-81540374D01*
X142934137Y-81756791D01*
X142934136Y-81756799D01*
X142914609Y-81979998D01*
X142914609Y-81980001D01*
X142934136Y-82203200D01*
X142934137Y-82203208D01*
X142992126Y-82419625D01*
X142992127Y-82419627D01*
X142992128Y-82419630D01*
X143086819Y-82622696D01*
X143086821Y-82622700D01*
X143215329Y-82806228D01*
X143215334Y-82806234D01*
X143373765Y-82964665D01*
X143373771Y-82964670D01*
X143557299Y-83093178D01*
X143557301Y-83093179D01*
X143557304Y-83093181D01*
X143615530Y-83120332D01*
X143652600Y-83137618D01*
X143705039Y-83183790D01*
X143724191Y-83250984D01*
X143703975Y-83317865D01*
X143652600Y-83362382D01*
X143557306Y-83406818D01*
X143557304Y-83406819D01*
X143373764Y-83535334D01*
X143215334Y-83693764D01*
X143086819Y-83877304D01*
X143086818Y-83877306D01*
X142992129Y-84080368D01*
X142992126Y-84080374D01*
X142934137Y-84296791D01*
X142934136Y-84296799D01*
X142914609Y-84519998D01*
X142914609Y-84520001D01*
X142934136Y-84743200D01*
X142934137Y-84743208D01*
X142992126Y-84959625D01*
X142992127Y-84959627D01*
X142992128Y-84959630D01*
X143086819Y-85162696D01*
X143086821Y-85162700D01*
X143215329Y-85346228D01*
X143215334Y-85346234D01*
X143373765Y-85504665D01*
X143373771Y-85504670D01*
X143557299Y-85633178D01*
X143557301Y-85633179D01*
X143557304Y-85633181D01*
X143652600Y-85677618D01*
X143705039Y-85723790D01*
X143724191Y-85790984D01*
X143703975Y-85857865D01*
X143652600Y-85902382D01*
X143557306Y-85946818D01*
X143557304Y-85946819D01*
X143373764Y-86075334D01*
X143215334Y-86233764D01*
X143086819Y-86417304D01*
X143086818Y-86417306D01*
X142992129Y-86620368D01*
X142992126Y-86620374D01*
X142934137Y-86836791D01*
X142934136Y-86836799D01*
X142914609Y-87059998D01*
X142914609Y-87060001D01*
X142934136Y-87283200D01*
X142934137Y-87283208D01*
X142992126Y-87499625D01*
X142992127Y-87499627D01*
X142992128Y-87499630D01*
X143086819Y-87702696D01*
X143086821Y-87702700D01*
X143215329Y-87886228D01*
X143215334Y-87886234D01*
X143373765Y-88044665D01*
X143373771Y-88044670D01*
X143557299Y-88173178D01*
X143557301Y-88173179D01*
X143557304Y-88173181D01*
X143652600Y-88217618D01*
X143705039Y-88263790D01*
X143724191Y-88330984D01*
X143703975Y-88397865D01*
X143652600Y-88442382D01*
X143557306Y-88486818D01*
X143557304Y-88486819D01*
X143373764Y-88615334D01*
X143215334Y-88773764D01*
X143086819Y-88957304D01*
X143086818Y-88957306D01*
X142992129Y-89160368D01*
X142992126Y-89160374D01*
X142934137Y-89376791D01*
X142934136Y-89376799D01*
X142914609Y-89599998D01*
X142914609Y-89600001D01*
X142934136Y-89823200D01*
X142934137Y-89823208D01*
X142992126Y-90039625D01*
X142992127Y-90039627D01*
X142992128Y-90039630D01*
X143069847Y-90206300D01*
X143086819Y-90242696D01*
X143086821Y-90242700D01*
X143215329Y-90426228D01*
X143215334Y-90426234D01*
X143373765Y-90584665D01*
X143373771Y-90584670D01*
X143557299Y-90713178D01*
X143557301Y-90713179D01*
X143557304Y-90713181D01*
X143652600Y-90757618D01*
X143705039Y-90803790D01*
X143724191Y-90870984D01*
X143703975Y-90937865D01*
X143652600Y-90982382D01*
X143557306Y-91026818D01*
X143557304Y-91026819D01*
X143373764Y-91155334D01*
X143215334Y-91313764D01*
X143086819Y-91497304D01*
X143086818Y-91497306D01*
X142992129Y-91700368D01*
X142992126Y-91700374D01*
X142934137Y-91916791D01*
X142934136Y-91916799D01*
X142914609Y-92139998D01*
X142914609Y-92140001D01*
X142934136Y-92363200D01*
X142934137Y-92363208D01*
X142992126Y-92579625D01*
X142992127Y-92579627D01*
X142992128Y-92579630D01*
X143086819Y-92782696D01*
X143086821Y-92782700D01*
X143215329Y-92966228D01*
X143215334Y-92966234D01*
X143373765Y-93124665D01*
X143373771Y-93124670D01*
X143557299Y-93253178D01*
X143557301Y-93253179D01*
X143557304Y-93253181D01*
X143652600Y-93297618D01*
X143705039Y-93343790D01*
X143724191Y-93410984D01*
X143703975Y-93477865D01*
X143652600Y-93522382D01*
X143557306Y-93566818D01*
X143557304Y-93566819D01*
X143373764Y-93695334D01*
X143215334Y-93853764D01*
X143086819Y-94037304D01*
X143086818Y-94037306D01*
X142992129Y-94240368D01*
X142992126Y-94240374D01*
X142934137Y-94456791D01*
X142934136Y-94456799D01*
X142914609Y-94679998D01*
X142914609Y-94680001D01*
X142934136Y-94903200D01*
X142934137Y-94903208D01*
X142992126Y-95119625D01*
X142992127Y-95119627D01*
X142992128Y-95119630D01*
X143086819Y-95322696D01*
X143086821Y-95322700D01*
X143215329Y-95506228D01*
X143215334Y-95506234D01*
X143373765Y-95664665D01*
X143373771Y-95664670D01*
X143557299Y-95793178D01*
X143557301Y-95793179D01*
X143557304Y-95793181D01*
X143652600Y-95837618D01*
X143705039Y-95883790D01*
X143724191Y-95950984D01*
X143703975Y-96017865D01*
X143652600Y-96062382D01*
X143557306Y-96106818D01*
X143557304Y-96106819D01*
X143373764Y-96235334D01*
X143215334Y-96393764D01*
X143086819Y-96577304D01*
X143086818Y-96577306D01*
X142992129Y-96780368D01*
X142992126Y-96780374D01*
X142934137Y-96996791D01*
X142934136Y-96996799D01*
X142914609Y-97219998D01*
X142914609Y-97220001D01*
X142934136Y-97443200D01*
X142934137Y-97443208D01*
X142992126Y-97659625D01*
X142992127Y-97659627D01*
X142992128Y-97659630D01*
X143086819Y-97862696D01*
X143086821Y-97862700D01*
X143215329Y-98046228D01*
X143215334Y-98046234D01*
X143373765Y-98204665D01*
X143373771Y-98204670D01*
X143557299Y-98333178D01*
X143557301Y-98333179D01*
X143557304Y-98333181D01*
X143652600Y-98377618D01*
X143705039Y-98423790D01*
X143724191Y-98490984D01*
X143703975Y-98557865D01*
X143652600Y-98602382D01*
X143557306Y-98646818D01*
X143557304Y-98646819D01*
X143373764Y-98775334D01*
X143215334Y-98933764D01*
X143086819Y-99117304D01*
X143086818Y-99117306D01*
X142992129Y-99320368D01*
X142992126Y-99320374D01*
X142934137Y-99536791D01*
X142934136Y-99536799D01*
X142914609Y-99759998D01*
X142914609Y-99760001D01*
X142934136Y-99983200D01*
X142934137Y-99983208D01*
X142992126Y-100199625D01*
X142992127Y-100199627D01*
X142992128Y-100199630D01*
X143086819Y-100402696D01*
X143086821Y-100402700D01*
X143215329Y-100586228D01*
X143215334Y-100586234D01*
X143373765Y-100744665D01*
X143373771Y-100744670D01*
X143557299Y-100873178D01*
X143557301Y-100873179D01*
X143557304Y-100873181D01*
X143652600Y-100917618D01*
X143705039Y-100963790D01*
X143724191Y-101030984D01*
X143703975Y-101097865D01*
X143652600Y-101142382D01*
X143557306Y-101186818D01*
X143557304Y-101186819D01*
X143373764Y-101315334D01*
X143215334Y-101473764D01*
X143086819Y-101657304D01*
X143086818Y-101657306D01*
X142992129Y-101860368D01*
X142992126Y-101860374D01*
X142934137Y-102076791D01*
X142934136Y-102076799D01*
X142914609Y-102299998D01*
X142914609Y-102300001D01*
X142934136Y-102523200D01*
X142934137Y-102523208D01*
X142992126Y-102739625D01*
X142992127Y-102739627D01*
X142992128Y-102739630D01*
X143086819Y-102942696D01*
X143086821Y-102942700D01*
X143215329Y-103126228D01*
X143215334Y-103126234D01*
X143373765Y-103284665D01*
X143373771Y-103284670D01*
X143557299Y-103413178D01*
X143557301Y-103413179D01*
X143557304Y-103413181D01*
X143652600Y-103457618D01*
X143705039Y-103503790D01*
X143724191Y-103570984D01*
X143703975Y-103637865D01*
X143652600Y-103682382D01*
X143557306Y-103726818D01*
X143557304Y-103726819D01*
X143373764Y-103855334D01*
X143215334Y-104013764D01*
X143086819Y-104197304D01*
X143086818Y-104197306D01*
X142992129Y-104400368D01*
X142992126Y-104400374D01*
X142934137Y-104616791D01*
X142934136Y-104616799D01*
X142914609Y-104839998D01*
X142914609Y-104840001D01*
X142934136Y-105063200D01*
X142934137Y-105063208D01*
X142992126Y-105279625D01*
X142992127Y-105279627D01*
X142992128Y-105279630D01*
X143074510Y-105456300D01*
X143086819Y-105482696D01*
X143086821Y-105482700D01*
X143215329Y-105666228D01*
X143215334Y-105666234D01*
X143373765Y-105824665D01*
X143373771Y-105824670D01*
X143557299Y-105953178D01*
X143557301Y-105953179D01*
X143557304Y-105953181D01*
X143652600Y-105997618D01*
X143705039Y-106043790D01*
X143724191Y-106110984D01*
X143703975Y-106177865D01*
X143652600Y-106222382D01*
X143557306Y-106266818D01*
X143557304Y-106266819D01*
X143373764Y-106395334D01*
X143215334Y-106553764D01*
X143086819Y-106737304D01*
X143086818Y-106737306D01*
X142992129Y-106940368D01*
X142992126Y-106940374D01*
X142934137Y-107156791D01*
X142934136Y-107156799D01*
X142914609Y-107379998D01*
X142914609Y-107380001D01*
X142934136Y-107603200D01*
X142934137Y-107603208D01*
X142992126Y-107819625D01*
X142992127Y-107819627D01*
X142992128Y-107819630D01*
X143060346Y-107965925D01*
X143086819Y-108022696D01*
X143086821Y-108022700D01*
X143215329Y-108206228D01*
X143215334Y-108206234D01*
X143373765Y-108364665D01*
X143373771Y-108364670D01*
X143557299Y-108493178D01*
X143557301Y-108493179D01*
X143557304Y-108493181D01*
X143760370Y-108587872D01*
X143976794Y-108645863D01*
X144136226Y-108659811D01*
X144199998Y-108665391D01*
X144200000Y-108665391D01*
X144200002Y-108665391D01*
X144255801Y-108660509D01*
X144423206Y-108645863D01*
X144639630Y-108587872D01*
X144842696Y-108493181D01*
X145026233Y-108364667D01*
X145184667Y-108206233D01*
X145313181Y-108022696D01*
X145407872Y-107819630D01*
X145465863Y-107603206D01*
X145485391Y-107380000D01*
X145465863Y-107156794D01*
X145407872Y-106940370D01*
X145313181Y-106737305D01*
X145184667Y-106553767D01*
X145026233Y-106395333D01*
X145026229Y-106395330D01*
X145026228Y-106395329D01*
X144842700Y-106266821D01*
X144842692Y-106266817D01*
X144747400Y-106222382D01*
X144694960Y-106176210D01*
X144675808Y-106109017D01*
X144696023Y-106042135D01*
X144747400Y-105997618D01*
X144842696Y-105953181D01*
X145026233Y-105824667D01*
X145184667Y-105666233D01*
X145313181Y-105482696D01*
X145407872Y-105279630D01*
X145465863Y-105063206D01*
X145485391Y-104840000D01*
X145465863Y-104616794D01*
X145407872Y-104400370D01*
X145313181Y-104197305D01*
X145184667Y-104013767D01*
X145026233Y-103855333D01*
X145026229Y-103855330D01*
X145026228Y-103855329D01*
X144842700Y-103726821D01*
X144842692Y-103726817D01*
X144747400Y-103682382D01*
X144694960Y-103636210D01*
X144675808Y-103569017D01*
X144696023Y-103502135D01*
X144747400Y-103457618D01*
X144842696Y-103413181D01*
X145026233Y-103284667D01*
X145184667Y-103126233D01*
X145313181Y-102942696D01*
X145407872Y-102739630D01*
X145465863Y-102523206D01*
X145485391Y-102300000D01*
X145465863Y-102076794D01*
X145407872Y-101860370D01*
X145313181Y-101657305D01*
X145184667Y-101473767D01*
X145026233Y-101315333D01*
X145026229Y-101315330D01*
X145026228Y-101315329D01*
X144842700Y-101186821D01*
X144842692Y-101186817D01*
X144747400Y-101142382D01*
X144694960Y-101096210D01*
X144675808Y-101029017D01*
X144696023Y-100962135D01*
X144747400Y-100917618D01*
X144842696Y-100873181D01*
X145026233Y-100744667D01*
X145184667Y-100586233D01*
X145313181Y-100402696D01*
X145407872Y-100199630D01*
X145465863Y-99983206D01*
X145485391Y-99760000D01*
X145465863Y-99536794D01*
X145407872Y-99320370D01*
X145313181Y-99117305D01*
X145184667Y-98933767D01*
X145026233Y-98775333D01*
X145026229Y-98775330D01*
X145026228Y-98775329D01*
X144842700Y-98646821D01*
X144842692Y-98646817D01*
X144747400Y-98602382D01*
X144694960Y-98556210D01*
X144675808Y-98489017D01*
X144696023Y-98422135D01*
X144747400Y-98377618D01*
X144842696Y-98333181D01*
X145026233Y-98204667D01*
X145184667Y-98046233D01*
X145313181Y-97862696D01*
X145407872Y-97659630D01*
X145465863Y-97443206D01*
X145485391Y-97220000D01*
X145485255Y-97218450D01*
X145479811Y-97156226D01*
X145465863Y-96996794D01*
X145407872Y-96780370D01*
X145313181Y-96577305D01*
X145224042Y-96450000D01*
X145184668Y-96393768D01*
X145161232Y-96370332D01*
X145026233Y-96235333D01*
X145026229Y-96235330D01*
X145026228Y-96235329D01*
X144842700Y-96106821D01*
X144842692Y-96106817D01*
X144747400Y-96062382D01*
X144694960Y-96016210D01*
X144675808Y-95949017D01*
X144696023Y-95882135D01*
X144747400Y-95837618D01*
X144842696Y-95793181D01*
X145026233Y-95664667D01*
X145184667Y-95506233D01*
X145313181Y-95322696D01*
X145407872Y-95119630D01*
X145465863Y-94903206D01*
X145485391Y-94680000D01*
X145483967Y-94663729D01*
X145479811Y-94616226D01*
X145465863Y-94456794D01*
X145407872Y-94240370D01*
X145313181Y-94037305D01*
X145184667Y-93853767D01*
X145026233Y-93695333D01*
X145026229Y-93695330D01*
X145026228Y-93695329D01*
X144842700Y-93566821D01*
X144842692Y-93566817D01*
X144796988Y-93545505D01*
X144747399Y-93522381D01*
X144694960Y-93476210D01*
X144675808Y-93409017D01*
X144696023Y-93342135D01*
X144747400Y-93297618D01*
X144842696Y-93253181D01*
X145026233Y-93124667D01*
X145184667Y-92966233D01*
X145313181Y-92782696D01*
X145407872Y-92579630D01*
X145465863Y-92363206D01*
X145485391Y-92140000D01*
X145465863Y-91916794D01*
X145407872Y-91700370D01*
X145313181Y-91497305D01*
X145184667Y-91313767D01*
X145026233Y-91155333D01*
X145026229Y-91155330D01*
X145026228Y-91155329D01*
X144842700Y-91026821D01*
X144842692Y-91026817D01*
X144747400Y-90982382D01*
X144694960Y-90936210D01*
X144675808Y-90869017D01*
X144696023Y-90802135D01*
X144747400Y-90757618D01*
X144842696Y-90713181D01*
X145026233Y-90584667D01*
X145184667Y-90426233D01*
X145313181Y-90242696D01*
X145407872Y-90039630D01*
X145465863Y-89823206D01*
X145485391Y-89600000D01*
X145465863Y-89376794D01*
X145407872Y-89160370D01*
X145313181Y-88957305D01*
X145184667Y-88773767D01*
X145026233Y-88615333D01*
X145026229Y-88615330D01*
X145026228Y-88615329D01*
X144842700Y-88486821D01*
X144842692Y-88486817D01*
X144747400Y-88442382D01*
X144694960Y-88396210D01*
X144675808Y-88329017D01*
X144696023Y-88262135D01*
X144747400Y-88217618D01*
X144842696Y-88173181D01*
X145026233Y-88044667D01*
X145184667Y-87886233D01*
X145313181Y-87702696D01*
X145407872Y-87499630D01*
X145465863Y-87283206D01*
X145485391Y-87060000D01*
X145465863Y-86836794D01*
X145407872Y-86620370D01*
X145313181Y-86417305D01*
X145184667Y-86233767D01*
X145026233Y-86075333D01*
X145026229Y-86075330D01*
X145026228Y-86075329D01*
X144842700Y-85946821D01*
X144842692Y-85946817D01*
X144747400Y-85902382D01*
X144694960Y-85856210D01*
X144675808Y-85789017D01*
X144696023Y-85722135D01*
X144747400Y-85677618D01*
X144842696Y-85633181D01*
X145026233Y-85504667D01*
X145184667Y-85346233D01*
X145313181Y-85162696D01*
X145407872Y-84959630D01*
X145465863Y-84743206D01*
X145485391Y-84520000D01*
X145483967Y-84503729D01*
X145465863Y-84296799D01*
X145465863Y-84296794D01*
X145407872Y-84080370D01*
X145313181Y-83877305D01*
X145184667Y-83693767D01*
X145026233Y-83535333D01*
X145026229Y-83535330D01*
X145026228Y-83535329D01*
X144842700Y-83406821D01*
X144842692Y-83406817D01*
X144747400Y-83362382D01*
X144694960Y-83316210D01*
X144675808Y-83249017D01*
X144696023Y-83182135D01*
X144747400Y-83137618D01*
X144842696Y-83093181D01*
X145026233Y-82964667D01*
X145184667Y-82806233D01*
X145313181Y-82622696D01*
X145407872Y-82419630D01*
X145465863Y-82203206D01*
X145485391Y-81980000D01*
X145465863Y-81756794D01*
X145407872Y-81540370D01*
X145313181Y-81337305D01*
X145184667Y-81153767D01*
X145026233Y-80995333D01*
X145026229Y-80995330D01*
X145026228Y-80995329D01*
X144842700Y-80866821D01*
X144842692Y-80866817D01*
X144747400Y-80822382D01*
X144694960Y-80776210D01*
X144675808Y-80709017D01*
X144696023Y-80642135D01*
X144747400Y-80597618D01*
X144842696Y-80553181D01*
X145026233Y-80424667D01*
X145184667Y-80266233D01*
X145313181Y-80082696D01*
X145407872Y-79879630D01*
X145465863Y-79663206D01*
X145485391Y-79440000D01*
X145465863Y-79216794D01*
X145407872Y-79000370D01*
X145313181Y-78797305D01*
X145184667Y-78613767D01*
X145026233Y-78455333D01*
X145026229Y-78455330D01*
X145026228Y-78455329D01*
X144842700Y-78326821D01*
X144842692Y-78326817D01*
X144747400Y-78282382D01*
X144694960Y-78236210D01*
X144675808Y-78169017D01*
X144696023Y-78102135D01*
X144747400Y-78057618D01*
X144842696Y-78013181D01*
X145026233Y-77884667D01*
X145184667Y-77726233D01*
X145313181Y-77542696D01*
X145407872Y-77339630D01*
X145465863Y-77123206D01*
X145485391Y-76900000D01*
X145465863Y-76676794D01*
X145407872Y-76460370D01*
X145313181Y-76257305D01*
X145194562Y-76087898D01*
X145184668Y-76073768D01*
X145159667Y-76048767D01*
X145026233Y-75915333D01*
X145026229Y-75915330D01*
X145026228Y-75915329D01*
X144842700Y-75786821D01*
X144842692Y-75786817D01*
X144747400Y-75742382D01*
X144694960Y-75696210D01*
X144675808Y-75629017D01*
X144696023Y-75562135D01*
X144747400Y-75517618D01*
X144842696Y-75473181D01*
X145026233Y-75344667D01*
X145184667Y-75186233D01*
X145313181Y-75002696D01*
X145407872Y-74799630D01*
X145465863Y-74583206D01*
X145482601Y-74391886D01*
X145485391Y-74360001D01*
X145485391Y-74359998D01*
X145465863Y-74136799D01*
X145465863Y-74136794D01*
X145407872Y-73920370D01*
X145313181Y-73717305D01*
X145184667Y-73533767D01*
X145026233Y-73375333D01*
X145026229Y-73375330D01*
X145026228Y-73375329D01*
X144842700Y-73246821D01*
X144842692Y-73246817D01*
X144747400Y-73202382D01*
X144694960Y-73156210D01*
X144675808Y-73089017D01*
X144696023Y-73022135D01*
X144747400Y-72977618D01*
X144842696Y-72933181D01*
X145026233Y-72804667D01*
X145184667Y-72646233D01*
X145313181Y-72462696D01*
X145407872Y-72259630D01*
X145465863Y-72043206D01*
X145485391Y-71820000D01*
X145465863Y-71596794D01*
X145407872Y-71380370D01*
X145313181Y-71177305D01*
X145245947Y-71081285D01*
X145184668Y-70993768D01*
X145116453Y-70925553D01*
X145026233Y-70835333D01*
X145026229Y-70835330D01*
X145026228Y-70835329D01*
X144842700Y-70706821D01*
X144842692Y-70706817D01*
X144747400Y-70662382D01*
X144694960Y-70616210D01*
X144675808Y-70549017D01*
X144696023Y-70482135D01*
X144747400Y-70437618D01*
X144842696Y-70393181D01*
X145026233Y-70264667D01*
X145184667Y-70106233D01*
X145313181Y-69922696D01*
X145407872Y-69719630D01*
X145465863Y-69503206D01*
X145485391Y-69280000D01*
X145465863Y-69056794D01*
X145407872Y-68840370D01*
X145313181Y-68637305D01*
X145184667Y-68453767D01*
X145026233Y-68295333D01*
X145026229Y-68295330D01*
X145026228Y-68295329D01*
X144842700Y-68166821D01*
X144842692Y-68166817D01*
X144747400Y-68122382D01*
X144694960Y-68076210D01*
X144675808Y-68009017D01*
X144696023Y-67942135D01*
X144747400Y-67897618D01*
X144842696Y-67853181D01*
X145026233Y-67724667D01*
X145184667Y-67566233D01*
X145313181Y-67382696D01*
X145407872Y-67179630D01*
X145465863Y-66963206D01*
X145485391Y-66740000D01*
X145465863Y-66516794D01*
X145407872Y-66300370D01*
X145313181Y-66097305D01*
X145194562Y-65927898D01*
X145184668Y-65913768D01*
X145159667Y-65888767D01*
X145026233Y-65755333D01*
X145026229Y-65755330D01*
X145026228Y-65755329D01*
X144842700Y-65626821D01*
X144842692Y-65626817D01*
X144747400Y-65582382D01*
X144694960Y-65536210D01*
X144675808Y-65469017D01*
X144696023Y-65402135D01*
X144747400Y-65357618D01*
X144768341Y-65347853D01*
X144842696Y-65313181D01*
X145026233Y-65184667D01*
X145184667Y-65026233D01*
X145313181Y-64842696D01*
X145407872Y-64639630D01*
X145465863Y-64423206D01*
X145482653Y-64231297D01*
X145485391Y-64200001D01*
X145485391Y-64199998D01*
X168314609Y-64199998D01*
X168314609Y-64200001D01*
X168334136Y-64423200D01*
X168334137Y-64423208D01*
X168392126Y-64639625D01*
X168392127Y-64639627D01*
X168392128Y-64639630D01*
X168420880Y-64701289D01*
X168486819Y-64842696D01*
X168486821Y-64842700D01*
X168615329Y-65026228D01*
X168615334Y-65026234D01*
X168773765Y-65184665D01*
X168773771Y-65184670D01*
X168957299Y-65313178D01*
X168957301Y-65313179D01*
X168957304Y-65313181D01*
X169031659Y-65347853D01*
X169052600Y-65357618D01*
X169105039Y-65403790D01*
X169124191Y-65470984D01*
X169103975Y-65537865D01*
X169052600Y-65582382D01*
X168957306Y-65626818D01*
X168957304Y-65626819D01*
X168773764Y-65755334D01*
X168615334Y-65913764D01*
X168486819Y-66097304D01*
X168486818Y-66097306D01*
X168392129Y-66300368D01*
X168392126Y-66300374D01*
X168334137Y-66516791D01*
X168334136Y-66516799D01*
X168314609Y-66739998D01*
X168314609Y-66740001D01*
X168334136Y-66963200D01*
X168334137Y-66963208D01*
X168392126Y-67179625D01*
X168392127Y-67179627D01*
X168392128Y-67179630D01*
X168447226Y-67297788D01*
X168486819Y-67382696D01*
X168486821Y-67382700D01*
X168615329Y-67566228D01*
X168615334Y-67566234D01*
X168773765Y-67724665D01*
X168773771Y-67724670D01*
X168957299Y-67853178D01*
X168957301Y-67853179D01*
X168957304Y-67853181D01*
X168976856Y-67862298D01*
X169052600Y-67897618D01*
X169105039Y-67943790D01*
X169124191Y-68010984D01*
X169103975Y-68077865D01*
X169052600Y-68122382D01*
X168957306Y-68166818D01*
X168957304Y-68166819D01*
X168773764Y-68295334D01*
X168615334Y-68453764D01*
X168486819Y-68637304D01*
X168486818Y-68637306D01*
X168392129Y-68840368D01*
X168392126Y-68840374D01*
X168334137Y-69056791D01*
X168334136Y-69056799D01*
X168314609Y-69279998D01*
X168314609Y-69280001D01*
X168334136Y-69503200D01*
X168334137Y-69503208D01*
X168392126Y-69719625D01*
X168392127Y-69719627D01*
X168392128Y-69719630D01*
X168407123Y-69751786D01*
X168486819Y-69922696D01*
X168486821Y-69922700D01*
X168615329Y-70106228D01*
X168615334Y-70106234D01*
X168773765Y-70264665D01*
X168773771Y-70264670D01*
X168957299Y-70393178D01*
X168957301Y-70393179D01*
X168957304Y-70393181D01*
X169052600Y-70437618D01*
X169105039Y-70483790D01*
X169124191Y-70550984D01*
X169103975Y-70617865D01*
X169052600Y-70662382D01*
X168957306Y-70706818D01*
X168957304Y-70706819D01*
X168773764Y-70835334D01*
X168615334Y-70993764D01*
X168486819Y-71177304D01*
X168486818Y-71177306D01*
X168392129Y-71380368D01*
X168392126Y-71380374D01*
X168334137Y-71596791D01*
X168334136Y-71596799D01*
X168314609Y-71819998D01*
X168314609Y-71820001D01*
X168334136Y-72043200D01*
X168334137Y-72043208D01*
X168392126Y-72259625D01*
X168392127Y-72259627D01*
X168392128Y-72259630D01*
X168486819Y-72462696D01*
X168486821Y-72462700D01*
X168615329Y-72646228D01*
X168615334Y-72646234D01*
X168773765Y-72804665D01*
X168773771Y-72804670D01*
X168957299Y-72933178D01*
X168957301Y-72933179D01*
X168957304Y-72933181D01*
X169052600Y-72977618D01*
X169105039Y-73023790D01*
X169124191Y-73090984D01*
X169103975Y-73157865D01*
X169052600Y-73202382D01*
X168957306Y-73246818D01*
X168957304Y-73246819D01*
X168773764Y-73375334D01*
X168615334Y-73533764D01*
X168486819Y-73717304D01*
X168486818Y-73717306D01*
X168392129Y-73920368D01*
X168392126Y-73920374D01*
X168334137Y-74136791D01*
X168334136Y-74136799D01*
X168314609Y-74359998D01*
X168314609Y-74360001D01*
X168334136Y-74583200D01*
X168334137Y-74583208D01*
X168392126Y-74799625D01*
X168392127Y-74799627D01*
X168392128Y-74799630D01*
X168420880Y-74861289D01*
X168486819Y-75002696D01*
X168486821Y-75002700D01*
X168615329Y-75186228D01*
X168615334Y-75186234D01*
X168773765Y-75344665D01*
X168773771Y-75344670D01*
X168957299Y-75473178D01*
X168957301Y-75473179D01*
X168957304Y-75473181D01*
X169052600Y-75517618D01*
X169105039Y-75563790D01*
X169124191Y-75630984D01*
X169103975Y-75697865D01*
X169052600Y-75742382D01*
X168957306Y-75786818D01*
X168957304Y-75786819D01*
X168773764Y-75915334D01*
X168615334Y-76073764D01*
X168486819Y-76257304D01*
X168486818Y-76257306D01*
X168392129Y-76460368D01*
X168392126Y-76460374D01*
X168334137Y-76676791D01*
X168334136Y-76676799D01*
X168314609Y-76899998D01*
X168314609Y-76900001D01*
X168334136Y-77123200D01*
X168334137Y-77123208D01*
X168392126Y-77339625D01*
X168392127Y-77339627D01*
X168392128Y-77339630D01*
X168447226Y-77457788D01*
X168486819Y-77542696D01*
X168486821Y-77542700D01*
X168615329Y-77726228D01*
X168615334Y-77726234D01*
X168773765Y-77884665D01*
X168773771Y-77884670D01*
X168957299Y-78013178D01*
X168957301Y-78013179D01*
X168957304Y-78013181D01*
X168990435Y-78028630D01*
X169052600Y-78057618D01*
X169105039Y-78103790D01*
X169124191Y-78170984D01*
X169103975Y-78237865D01*
X169052600Y-78282382D01*
X168957306Y-78326818D01*
X168957304Y-78326819D01*
X168773764Y-78455334D01*
X168615334Y-78613764D01*
X168486819Y-78797304D01*
X168486818Y-78797306D01*
X168392129Y-79000368D01*
X168392126Y-79000374D01*
X168334137Y-79216791D01*
X168334136Y-79216799D01*
X168314609Y-79439998D01*
X168314609Y-79440001D01*
X168334136Y-79663200D01*
X168334137Y-79663208D01*
X168392126Y-79879625D01*
X168392127Y-79879627D01*
X168392128Y-79879630D01*
X168486819Y-80082696D01*
X168486821Y-80082700D01*
X168615329Y-80266228D01*
X168615334Y-80266234D01*
X168773765Y-80424665D01*
X168773771Y-80424670D01*
X168957299Y-80553178D01*
X168957301Y-80553179D01*
X168957304Y-80553181D01*
X169052600Y-80597618D01*
X169105039Y-80643790D01*
X169124191Y-80710984D01*
X169103975Y-80777865D01*
X169052600Y-80822382D01*
X168957306Y-80866818D01*
X168957304Y-80866819D01*
X168773764Y-80995334D01*
X168615334Y-81153764D01*
X168486819Y-81337304D01*
X168486818Y-81337306D01*
X168392129Y-81540368D01*
X168392126Y-81540374D01*
X168334137Y-81756791D01*
X168334136Y-81756799D01*
X168314609Y-81979998D01*
X168314609Y-81980001D01*
X168334136Y-82203200D01*
X168334137Y-82203208D01*
X168392126Y-82419625D01*
X168392127Y-82419627D01*
X168392128Y-82419630D01*
X168486819Y-82622696D01*
X168486821Y-82622700D01*
X168615329Y-82806228D01*
X168615334Y-82806234D01*
X168773765Y-82964665D01*
X168773771Y-82964670D01*
X168957299Y-83093178D01*
X168957301Y-83093179D01*
X168957304Y-83093181D01*
X169015530Y-83120332D01*
X169052600Y-83137618D01*
X169105039Y-83183790D01*
X169124191Y-83250984D01*
X169103975Y-83317865D01*
X169052600Y-83362382D01*
X168957306Y-83406818D01*
X168957304Y-83406819D01*
X168773764Y-83535334D01*
X168615334Y-83693764D01*
X168486819Y-83877304D01*
X168486818Y-83877306D01*
X168392129Y-84080368D01*
X168392126Y-84080374D01*
X168334137Y-84296791D01*
X168334136Y-84296799D01*
X168314609Y-84519998D01*
X168314609Y-84520001D01*
X168334136Y-84743200D01*
X168334137Y-84743208D01*
X168392126Y-84959625D01*
X168392127Y-84959627D01*
X168392128Y-84959630D01*
X168486819Y-85162696D01*
X168486821Y-85162700D01*
X168615329Y-85346228D01*
X168615334Y-85346234D01*
X168773765Y-85504665D01*
X168773771Y-85504670D01*
X168957299Y-85633178D01*
X168957301Y-85633179D01*
X168957304Y-85633181D01*
X169052600Y-85677618D01*
X169105039Y-85723790D01*
X169124191Y-85790984D01*
X169103975Y-85857865D01*
X169052600Y-85902382D01*
X168957306Y-85946818D01*
X168957304Y-85946819D01*
X168773764Y-86075334D01*
X168615334Y-86233764D01*
X168486819Y-86417304D01*
X168486818Y-86417306D01*
X168392129Y-86620368D01*
X168392126Y-86620374D01*
X168334137Y-86836791D01*
X168334136Y-86836799D01*
X168314609Y-87059998D01*
X168314609Y-87060001D01*
X168334136Y-87283200D01*
X168334137Y-87283208D01*
X168392126Y-87499625D01*
X168392127Y-87499627D01*
X168392128Y-87499630D01*
X168486819Y-87702696D01*
X168486821Y-87702700D01*
X168615329Y-87886228D01*
X168615334Y-87886234D01*
X168773765Y-88044665D01*
X168773771Y-88044670D01*
X168957299Y-88173178D01*
X168957301Y-88173179D01*
X168957304Y-88173181D01*
X169052600Y-88217618D01*
X169105039Y-88263790D01*
X169124191Y-88330984D01*
X169103975Y-88397865D01*
X169052600Y-88442382D01*
X168957306Y-88486818D01*
X168957304Y-88486819D01*
X168773764Y-88615334D01*
X168615334Y-88773764D01*
X168486819Y-88957304D01*
X168486818Y-88957306D01*
X168392129Y-89160368D01*
X168392126Y-89160374D01*
X168334137Y-89376791D01*
X168334136Y-89376799D01*
X168314609Y-89599998D01*
X168314609Y-89600001D01*
X168334136Y-89823200D01*
X168334137Y-89823208D01*
X168392126Y-90039625D01*
X168392127Y-90039627D01*
X168392128Y-90039630D01*
X168469847Y-90206300D01*
X168486819Y-90242696D01*
X168486821Y-90242700D01*
X168615329Y-90426228D01*
X168615334Y-90426234D01*
X168773765Y-90584665D01*
X168773771Y-90584670D01*
X168957299Y-90713178D01*
X168957301Y-90713179D01*
X168957304Y-90713181D01*
X169052600Y-90757618D01*
X169105039Y-90803790D01*
X169124191Y-90870984D01*
X169103975Y-90937865D01*
X169052600Y-90982382D01*
X168957306Y-91026818D01*
X168957304Y-91026819D01*
X168773764Y-91155334D01*
X168615334Y-91313764D01*
X168486819Y-91497304D01*
X168486818Y-91497306D01*
X168392129Y-91700368D01*
X168392126Y-91700374D01*
X168334137Y-91916791D01*
X168334136Y-91916799D01*
X168314609Y-92139998D01*
X168314609Y-92140001D01*
X168334136Y-92363200D01*
X168334137Y-92363208D01*
X168392126Y-92579625D01*
X168392127Y-92579627D01*
X168392128Y-92579630D01*
X168486819Y-92782696D01*
X168486821Y-92782700D01*
X168615329Y-92966228D01*
X168615334Y-92966234D01*
X168773765Y-93124665D01*
X168773771Y-93124670D01*
X168957299Y-93253178D01*
X168957301Y-93253179D01*
X168957304Y-93253181D01*
X169052600Y-93297618D01*
X169105039Y-93343790D01*
X169124191Y-93410984D01*
X169103975Y-93477865D01*
X169052600Y-93522382D01*
X168957306Y-93566818D01*
X168957304Y-93566819D01*
X168773764Y-93695334D01*
X168615334Y-93853764D01*
X168486819Y-94037304D01*
X168486818Y-94037306D01*
X168392129Y-94240368D01*
X168392126Y-94240374D01*
X168334137Y-94456791D01*
X168334136Y-94456799D01*
X168314609Y-94679998D01*
X168314609Y-94680001D01*
X168334136Y-94903200D01*
X168334137Y-94903208D01*
X168392126Y-95119625D01*
X168392127Y-95119627D01*
X168392128Y-95119630D01*
X168486819Y-95322696D01*
X168486821Y-95322700D01*
X168615329Y-95506228D01*
X168615334Y-95506234D01*
X168773765Y-95664665D01*
X168773771Y-95664670D01*
X168957299Y-95793178D01*
X168957301Y-95793179D01*
X168957304Y-95793181D01*
X169052600Y-95837618D01*
X169105039Y-95883790D01*
X169124191Y-95950984D01*
X169103975Y-96017865D01*
X169052600Y-96062382D01*
X168957306Y-96106818D01*
X168957304Y-96106819D01*
X168773764Y-96235334D01*
X168615334Y-96393764D01*
X168486819Y-96577304D01*
X168486818Y-96577306D01*
X168392129Y-96780368D01*
X168392126Y-96780374D01*
X168334137Y-96996791D01*
X168334136Y-96996799D01*
X168314609Y-97219998D01*
X168314609Y-97220001D01*
X168334136Y-97443200D01*
X168334137Y-97443208D01*
X168392126Y-97659625D01*
X168392127Y-97659627D01*
X168392128Y-97659630D01*
X168486819Y-97862696D01*
X168486821Y-97862700D01*
X168615329Y-98046228D01*
X168615334Y-98046234D01*
X168773765Y-98204665D01*
X168773771Y-98204670D01*
X168957299Y-98333178D01*
X168957301Y-98333179D01*
X168957304Y-98333181D01*
X169052600Y-98377618D01*
X169105039Y-98423790D01*
X169124191Y-98490984D01*
X169103975Y-98557865D01*
X169052600Y-98602382D01*
X168957306Y-98646818D01*
X168957304Y-98646819D01*
X168773764Y-98775334D01*
X168615334Y-98933764D01*
X168486819Y-99117304D01*
X168486818Y-99117306D01*
X168392129Y-99320368D01*
X168392126Y-99320374D01*
X168334137Y-99536791D01*
X168334136Y-99536799D01*
X168314609Y-99759998D01*
X168314609Y-99760001D01*
X168334136Y-99983200D01*
X168334137Y-99983208D01*
X168392126Y-100199625D01*
X168392127Y-100199627D01*
X168392128Y-100199630D01*
X168486819Y-100402696D01*
X168486821Y-100402700D01*
X168615329Y-100586228D01*
X168615334Y-100586234D01*
X168773765Y-100744665D01*
X168773771Y-100744670D01*
X168957299Y-100873178D01*
X168957301Y-100873179D01*
X168957304Y-100873181D01*
X169052600Y-100917618D01*
X169105039Y-100963790D01*
X169124191Y-101030984D01*
X169103975Y-101097865D01*
X169052600Y-101142382D01*
X168957306Y-101186818D01*
X168957304Y-101186819D01*
X168773764Y-101315334D01*
X168615334Y-101473764D01*
X168486819Y-101657304D01*
X168486818Y-101657306D01*
X168392129Y-101860368D01*
X168392126Y-101860374D01*
X168334137Y-102076791D01*
X168334136Y-102076799D01*
X168314609Y-102299998D01*
X168314609Y-102300001D01*
X168334136Y-102523200D01*
X168334137Y-102523208D01*
X168392126Y-102739625D01*
X168392127Y-102739627D01*
X168392128Y-102739630D01*
X168486819Y-102942696D01*
X168486821Y-102942700D01*
X168615329Y-103126228D01*
X168615334Y-103126234D01*
X168773765Y-103284665D01*
X168773771Y-103284670D01*
X168957299Y-103413178D01*
X168957301Y-103413179D01*
X168957304Y-103413181D01*
X169052600Y-103457618D01*
X169105039Y-103503790D01*
X169124191Y-103570984D01*
X169103975Y-103637865D01*
X169052600Y-103682382D01*
X168957306Y-103726818D01*
X168957304Y-103726819D01*
X168773764Y-103855334D01*
X168615334Y-104013764D01*
X168486819Y-104197304D01*
X168486818Y-104197306D01*
X168392129Y-104400368D01*
X168392126Y-104400374D01*
X168334137Y-104616791D01*
X168334136Y-104616799D01*
X168314609Y-104839998D01*
X168314609Y-104840001D01*
X168334136Y-105063200D01*
X168334137Y-105063208D01*
X168392126Y-105279625D01*
X168392127Y-105279627D01*
X168392128Y-105279630D01*
X168474510Y-105456300D01*
X168486819Y-105482696D01*
X168486821Y-105482700D01*
X168615329Y-105666228D01*
X168615334Y-105666234D01*
X168773765Y-105824665D01*
X168773771Y-105824670D01*
X168957299Y-105953178D01*
X168957301Y-105953179D01*
X168957304Y-105953181D01*
X169052600Y-105997618D01*
X169105039Y-106043790D01*
X169124191Y-106110984D01*
X169103975Y-106177865D01*
X169052600Y-106222382D01*
X168957306Y-106266818D01*
X168957304Y-106266819D01*
X168773764Y-106395334D01*
X168615334Y-106553764D01*
X168486819Y-106737304D01*
X168486818Y-106737306D01*
X168392129Y-106940368D01*
X168392126Y-106940374D01*
X168334137Y-107156791D01*
X168334136Y-107156799D01*
X168314609Y-107379998D01*
X168314609Y-107380001D01*
X168334136Y-107603200D01*
X168334137Y-107603208D01*
X168392126Y-107819625D01*
X168392127Y-107819627D01*
X168392128Y-107819630D01*
X168460346Y-107965925D01*
X168486819Y-108022696D01*
X168486821Y-108022700D01*
X168615329Y-108206228D01*
X168615334Y-108206234D01*
X168773765Y-108364665D01*
X168773771Y-108364670D01*
X168957299Y-108493178D01*
X168957301Y-108493179D01*
X168957304Y-108493181D01*
X169160370Y-108587872D01*
X169376794Y-108645863D01*
X169536226Y-108659811D01*
X169599998Y-108665391D01*
X169600000Y-108665391D01*
X169600002Y-108665391D01*
X169655801Y-108660509D01*
X169823206Y-108645863D01*
X170039630Y-108587872D01*
X170242696Y-108493181D01*
X170426233Y-108364667D01*
X170584667Y-108206233D01*
X170713181Y-108022696D01*
X170807872Y-107819630D01*
X170865863Y-107603206D01*
X170885391Y-107380000D01*
X170865863Y-107156794D01*
X170807872Y-106940370D01*
X170713181Y-106737305D01*
X170584667Y-106553767D01*
X170426233Y-106395333D01*
X170426229Y-106395330D01*
X170426228Y-106395329D01*
X170242700Y-106266821D01*
X170242692Y-106266817D01*
X170147400Y-106222382D01*
X170094960Y-106176210D01*
X170075808Y-106109017D01*
X170096023Y-106042135D01*
X170147400Y-105997618D01*
X170242696Y-105953181D01*
X170426233Y-105824667D01*
X170584667Y-105666233D01*
X170713181Y-105482696D01*
X170807872Y-105279630D01*
X170865863Y-105063206D01*
X170885391Y-104840000D01*
X170865863Y-104616794D01*
X170807872Y-104400370D01*
X170713181Y-104197305D01*
X170584667Y-104013767D01*
X170426233Y-103855333D01*
X170426229Y-103855330D01*
X170426228Y-103855329D01*
X170242700Y-103726821D01*
X170242692Y-103726817D01*
X170147400Y-103682382D01*
X170094960Y-103636210D01*
X170075808Y-103569017D01*
X170096023Y-103502135D01*
X170147400Y-103457618D01*
X170242696Y-103413181D01*
X170426233Y-103284667D01*
X170584667Y-103126233D01*
X170713181Y-102942696D01*
X170807872Y-102739630D01*
X170865863Y-102523206D01*
X170885391Y-102300000D01*
X170865863Y-102076794D01*
X170807872Y-101860370D01*
X170713181Y-101657305D01*
X170584667Y-101473767D01*
X170426233Y-101315333D01*
X170426229Y-101315330D01*
X170426228Y-101315329D01*
X170242700Y-101186821D01*
X170242692Y-101186817D01*
X170147400Y-101142382D01*
X170094960Y-101096210D01*
X170075808Y-101029017D01*
X170096023Y-100962135D01*
X170147400Y-100917618D01*
X170242696Y-100873181D01*
X170426233Y-100744667D01*
X170584667Y-100586233D01*
X170713181Y-100402696D01*
X170807872Y-100199630D01*
X170865863Y-99983206D01*
X170885391Y-99760000D01*
X170865863Y-99536794D01*
X170807872Y-99320370D01*
X170713181Y-99117305D01*
X170584667Y-98933767D01*
X170426233Y-98775333D01*
X170426229Y-98775330D01*
X170426228Y-98775329D01*
X170242700Y-98646821D01*
X170242692Y-98646817D01*
X170147400Y-98602382D01*
X170094960Y-98556210D01*
X170075808Y-98489017D01*
X170096023Y-98422135D01*
X170147400Y-98377618D01*
X170242696Y-98333181D01*
X170426233Y-98204667D01*
X170584667Y-98046233D01*
X170713181Y-97862696D01*
X170807872Y-97659630D01*
X170865863Y-97443206D01*
X170885391Y-97220000D01*
X170885255Y-97218450D01*
X170879811Y-97156226D01*
X170865863Y-96996794D01*
X170807872Y-96780370D01*
X170713181Y-96577305D01*
X170624042Y-96450000D01*
X170584668Y-96393768D01*
X170561232Y-96370332D01*
X170426233Y-96235333D01*
X170426229Y-96235330D01*
X170426228Y-96235329D01*
X170242700Y-96106821D01*
X170242692Y-96106817D01*
X170147400Y-96062382D01*
X170094960Y-96016210D01*
X170075808Y-95949017D01*
X170096023Y-95882135D01*
X170147400Y-95837618D01*
X170242696Y-95793181D01*
X170426233Y-95664667D01*
X170584667Y-95506233D01*
X170713181Y-95322696D01*
X170807872Y-95119630D01*
X170865863Y-94903206D01*
X170885391Y-94680000D01*
X170883967Y-94663729D01*
X170879811Y-94616226D01*
X170865863Y-94456794D01*
X170807872Y-94240370D01*
X170713181Y-94037305D01*
X170584667Y-93853767D01*
X170426233Y-93695333D01*
X170426229Y-93695330D01*
X170426228Y-93695329D01*
X170242700Y-93566821D01*
X170242692Y-93566817D01*
X170196988Y-93545505D01*
X170147399Y-93522381D01*
X170094960Y-93476210D01*
X170075808Y-93409017D01*
X170096023Y-93342135D01*
X170110028Y-93330000D01*
X175601418Y-93330000D01*
X175621715Y-93587898D01*
X175682102Y-93839430D01*
X175682104Y-93839436D01*
X175682105Y-93839440D01*
X175688040Y-93853768D01*
X175781102Y-94078441D01*
X175916267Y-94299009D01*
X175916270Y-94299014D01*
X175959732Y-94349901D01*
X176084276Y-94495724D01*
X176156030Y-94557007D01*
X176280985Y-94663729D01*
X176280987Y-94663730D01*
X176280988Y-94663731D01*
X176307537Y-94680000D01*
X176501558Y-94798897D01*
X176586057Y-94833897D01*
X176740560Y-94897895D01*
X176992105Y-94958285D01*
X177250000Y-94978582D01*
X177507895Y-94958285D01*
X177759440Y-94897895D01*
X177998441Y-94798897D01*
X178219012Y-94663731D01*
X178415724Y-94495724D01*
X178583731Y-94299012D01*
X178718897Y-94078441D01*
X178817895Y-93839440D01*
X178878285Y-93587895D01*
X178898582Y-93330000D01*
X180681920Y-93330000D01*
X180702211Y-93587820D01*
X180762582Y-93839285D01*
X180861549Y-94078213D01*
X180996673Y-94298714D01*
X180996676Y-94298719D01*
X181001767Y-94304679D01*
X181652421Y-93654024D01*
X181665359Y-93685258D01*
X181747437Y-93808097D01*
X181851903Y-93912563D01*
X181974742Y-93994641D01*
X182005974Y-94007577D01*
X181355319Y-94658232D01*
X181361283Y-94663325D01*
X181581786Y-94798450D01*
X181820714Y-94897417D01*
X182072179Y-94957788D01*
X182330000Y-94978079D01*
X182587820Y-94957788D01*
X182839285Y-94897417D01*
X183078213Y-94798450D01*
X183298713Y-94663326D01*
X183298723Y-94663319D01*
X183304678Y-94658232D01*
X183304678Y-94658231D01*
X182654025Y-94007578D01*
X182685258Y-93994641D01*
X182808097Y-93912563D01*
X182912563Y-93808097D01*
X182994641Y-93685258D01*
X183007578Y-93654025D01*
X183658231Y-94304678D01*
X183658232Y-94304678D01*
X183663319Y-94298723D01*
X183663326Y-94298713D01*
X183798450Y-94078213D01*
X183897417Y-93839285D01*
X183957788Y-93587820D01*
X183978079Y-93330000D01*
X183957788Y-93072179D01*
X183897417Y-92820714D01*
X183798450Y-92581786D01*
X183663325Y-92361283D01*
X183658232Y-92355319D01*
X183007577Y-93005973D01*
X182994641Y-92974742D01*
X182912563Y-92851903D01*
X182808097Y-92747437D01*
X182685258Y-92665359D01*
X182654024Y-92652421D01*
X183304679Y-92001767D01*
X183304679Y-92001766D01*
X183298719Y-91996676D01*
X183298714Y-91996673D01*
X183078213Y-91861549D01*
X182839285Y-91762582D01*
X182587820Y-91702211D01*
X182330000Y-91681920D01*
X182072179Y-91702211D01*
X181820714Y-91762582D01*
X181581786Y-91861549D01*
X181361289Y-91996670D01*
X181361273Y-91996682D01*
X181355320Y-92001766D01*
X182005975Y-92652421D01*
X181974742Y-92665359D01*
X181851903Y-92747437D01*
X181747437Y-92851903D01*
X181665359Y-92974742D01*
X181652421Y-93005974D01*
X181001767Y-92355320D01*
X181001766Y-92355320D01*
X180996682Y-92361273D01*
X180996670Y-92361289D01*
X180861549Y-92581786D01*
X180762582Y-92820714D01*
X180702211Y-93072179D01*
X180681920Y-93330000D01*
X178898582Y-93330000D01*
X178878285Y-93072105D01*
X178817895Y-92820560D01*
X178718897Y-92581559D01*
X178718897Y-92581558D01*
X178585090Y-92363206D01*
X178583731Y-92360988D01*
X178583730Y-92360987D01*
X178583729Y-92360985D01*
X178488944Y-92250006D01*
X178415724Y-92164276D01*
X178245270Y-92018695D01*
X178219014Y-91996270D01*
X178219009Y-91996267D01*
X177998441Y-91861102D01*
X177794441Y-91776603D01*
X177759440Y-91762105D01*
X177759436Y-91762104D01*
X177759430Y-91762102D01*
X177507898Y-91701715D01*
X177250000Y-91681418D01*
X176992101Y-91701715D01*
X176740569Y-91762102D01*
X176740557Y-91762106D01*
X176501558Y-91861102D01*
X176280990Y-91996267D01*
X176280985Y-91996270D01*
X176084276Y-92164276D01*
X175916270Y-92360985D01*
X175916267Y-92360990D01*
X175781102Y-92581558D01*
X175682106Y-92820557D01*
X175682102Y-92820569D01*
X175621715Y-93072101D01*
X175601418Y-93330000D01*
X170110028Y-93330000D01*
X170147400Y-93297618D01*
X170242696Y-93253181D01*
X170426233Y-93124667D01*
X170584667Y-92966233D01*
X170713181Y-92782696D01*
X170807872Y-92579630D01*
X170865863Y-92363206D01*
X170885391Y-92140000D01*
X170865863Y-91916794D01*
X170807872Y-91700370D01*
X170713181Y-91497305D01*
X170584667Y-91313767D01*
X170426233Y-91155333D01*
X170426229Y-91155330D01*
X170426228Y-91155329D01*
X170242700Y-91026821D01*
X170242692Y-91026817D01*
X170147400Y-90982382D01*
X170094960Y-90936210D01*
X170075808Y-90869017D01*
X170096023Y-90802135D01*
X170147400Y-90757618D01*
X170242696Y-90713181D01*
X170426233Y-90584667D01*
X170584667Y-90426233D01*
X170713181Y-90242696D01*
X170807872Y-90039630D01*
X170865863Y-89823206D01*
X170885391Y-89600000D01*
X170865863Y-89376794D01*
X170807872Y-89160370D01*
X170713181Y-88957305D01*
X170584667Y-88773767D01*
X170426233Y-88615333D01*
X170426229Y-88615330D01*
X170426228Y-88615329D01*
X170242700Y-88486821D01*
X170242692Y-88486817D01*
X170147400Y-88442382D01*
X170094960Y-88396210D01*
X170075808Y-88329017D01*
X170096023Y-88262135D01*
X170147400Y-88217618D01*
X170242696Y-88173181D01*
X170426233Y-88044667D01*
X170584667Y-87886233D01*
X170713181Y-87702696D01*
X170807872Y-87499630D01*
X170865863Y-87283206D01*
X170885391Y-87060000D01*
X170865863Y-86836794D01*
X170807872Y-86620370D01*
X170713181Y-86417305D01*
X170584667Y-86233767D01*
X170426233Y-86075333D01*
X170426229Y-86075330D01*
X170426228Y-86075329D01*
X170242700Y-85946821D01*
X170242692Y-85946817D01*
X170147400Y-85902382D01*
X170094960Y-85856210D01*
X170075808Y-85789017D01*
X170096023Y-85722135D01*
X170147400Y-85677618D01*
X170242696Y-85633181D01*
X170426233Y-85504667D01*
X170584667Y-85346233D01*
X170713181Y-85162696D01*
X170807872Y-84959630D01*
X170865863Y-84743206D01*
X170885391Y-84520000D01*
X170883967Y-84503729D01*
X170865863Y-84296799D01*
X170865863Y-84296794D01*
X170807872Y-84080370D01*
X170713181Y-83877305D01*
X170584667Y-83693767D01*
X170426233Y-83535333D01*
X170426229Y-83535330D01*
X170426228Y-83535329D01*
X170242700Y-83406821D01*
X170242692Y-83406817D01*
X170147400Y-83362382D01*
X170094960Y-83316210D01*
X170075808Y-83249017D01*
X170096023Y-83182135D01*
X170110028Y-83170000D01*
X175601418Y-83170000D01*
X175621715Y-83427898D01*
X175682102Y-83679430D01*
X175682104Y-83679436D01*
X175682105Y-83679440D01*
X175688040Y-83693768D01*
X175781102Y-83918441D01*
X175916267Y-84139009D01*
X175916270Y-84139014D01*
X175992426Y-84228181D01*
X176084276Y-84335724D01*
X176210191Y-84443265D01*
X176280985Y-84503729D01*
X176280987Y-84503730D01*
X176280988Y-84503731D01*
X176307537Y-84520000D01*
X176501558Y-84638897D01*
X176586057Y-84673897D01*
X176740560Y-84737895D01*
X176992105Y-84798285D01*
X177250000Y-84818582D01*
X177507895Y-84798285D01*
X177759440Y-84737895D01*
X177998441Y-84638897D01*
X178219012Y-84503731D01*
X178415724Y-84335724D01*
X178583731Y-84139012D01*
X178718897Y-83918441D01*
X178817895Y-83679440D01*
X178878285Y-83427895D01*
X178898582Y-83170000D01*
X180681920Y-83170000D01*
X180702211Y-83427820D01*
X180762582Y-83679285D01*
X180861549Y-83918213D01*
X180996673Y-84138714D01*
X180996676Y-84138719D01*
X181001767Y-84144679D01*
X181652421Y-83494024D01*
X181665359Y-83525258D01*
X181747437Y-83648097D01*
X181851903Y-83752563D01*
X181974742Y-83834641D01*
X182005974Y-83847577D01*
X181355319Y-84498232D01*
X181361283Y-84503325D01*
X181581786Y-84638450D01*
X181820714Y-84737417D01*
X182072179Y-84797788D01*
X182330000Y-84818079D01*
X182587820Y-84797788D01*
X182839285Y-84737417D01*
X183078213Y-84638450D01*
X183298713Y-84503326D01*
X183298723Y-84503319D01*
X183304678Y-84498232D01*
X183304678Y-84498231D01*
X182654025Y-83847578D01*
X182685258Y-83834641D01*
X182808097Y-83752563D01*
X182912563Y-83648097D01*
X182994641Y-83525258D01*
X183007578Y-83494025D01*
X183658231Y-84144678D01*
X183658232Y-84144678D01*
X183663319Y-84138723D01*
X183663326Y-84138713D01*
X183798450Y-83918213D01*
X183897417Y-83679285D01*
X183957788Y-83427820D01*
X183978079Y-83170000D01*
X183957788Y-82912179D01*
X183897417Y-82660714D01*
X183798450Y-82421786D01*
X183663325Y-82201283D01*
X183658232Y-82195319D01*
X183007577Y-82845973D01*
X182994641Y-82814742D01*
X182912563Y-82691903D01*
X182808097Y-82587437D01*
X182685258Y-82505359D01*
X182654024Y-82492421D01*
X183304679Y-81841767D01*
X183304679Y-81841766D01*
X183298719Y-81836676D01*
X183298714Y-81836673D01*
X183078213Y-81701549D01*
X182839285Y-81602582D01*
X182587820Y-81542211D01*
X182330000Y-81521920D01*
X182072179Y-81542211D01*
X181820714Y-81602582D01*
X181581786Y-81701549D01*
X181361289Y-81836670D01*
X181361273Y-81836682D01*
X181355320Y-81841766D01*
X182005975Y-82492421D01*
X181974742Y-82505359D01*
X181851903Y-82587437D01*
X181747437Y-82691903D01*
X181665359Y-82814742D01*
X181652421Y-82845974D01*
X181001767Y-82195320D01*
X181001766Y-82195320D01*
X180996682Y-82201273D01*
X180996670Y-82201289D01*
X180861549Y-82421786D01*
X180762582Y-82660714D01*
X180702211Y-82912179D01*
X180681920Y-83170000D01*
X178898582Y-83170000D01*
X178878285Y-82912105D01*
X178817895Y-82660560D01*
X178718897Y-82421559D01*
X178718897Y-82421558D01*
X178585090Y-82203206D01*
X178583731Y-82200988D01*
X178583730Y-82200987D01*
X178583729Y-82200985D01*
X178460760Y-82057007D01*
X178415724Y-82004276D01*
X178269826Y-81879668D01*
X178219014Y-81836270D01*
X178219009Y-81836267D01*
X177998441Y-81701102D01*
X177794441Y-81616603D01*
X177759440Y-81602105D01*
X177759436Y-81602104D01*
X177759430Y-81602102D01*
X177507898Y-81541715D01*
X177250000Y-81521418D01*
X176992101Y-81541715D01*
X176740569Y-81602102D01*
X176740557Y-81602106D01*
X176501558Y-81701102D01*
X176280990Y-81836267D01*
X176280985Y-81836270D01*
X176084276Y-82004276D01*
X175916270Y-82200985D01*
X175916267Y-82200990D01*
X175781102Y-82421558D01*
X175682106Y-82660557D01*
X175682102Y-82660569D01*
X175621715Y-82912101D01*
X175601418Y-83170000D01*
X170110028Y-83170000D01*
X170147400Y-83137618D01*
X170242696Y-83093181D01*
X170426233Y-82964667D01*
X170584667Y-82806233D01*
X170713181Y-82622696D01*
X170807872Y-82419630D01*
X170865863Y-82203206D01*
X170885391Y-81980000D01*
X170865863Y-81756794D01*
X170807872Y-81540370D01*
X170713181Y-81337305D01*
X170584667Y-81153767D01*
X170426233Y-80995333D01*
X170426229Y-80995330D01*
X170426228Y-80995329D01*
X170242700Y-80866821D01*
X170242692Y-80866817D01*
X170147400Y-80822382D01*
X170094960Y-80776210D01*
X170075808Y-80709017D01*
X170096023Y-80642135D01*
X170147400Y-80597618D01*
X170242696Y-80553181D01*
X170426233Y-80424667D01*
X170584667Y-80266233D01*
X170713181Y-80082696D01*
X170807872Y-79879630D01*
X170865863Y-79663206D01*
X170885391Y-79440000D01*
X170865863Y-79216794D01*
X170807872Y-79000370D01*
X170713181Y-78797305D01*
X170584667Y-78613767D01*
X170426233Y-78455333D01*
X170426229Y-78455330D01*
X170426228Y-78455329D01*
X170242700Y-78326821D01*
X170242692Y-78326817D01*
X170147400Y-78282382D01*
X170094960Y-78236210D01*
X170075808Y-78169017D01*
X170096023Y-78102135D01*
X170147400Y-78057618D01*
X170242696Y-78013181D01*
X170426233Y-77884667D01*
X170584667Y-77726233D01*
X170713181Y-77542696D01*
X170807872Y-77339630D01*
X170865863Y-77123206D01*
X170885391Y-76900000D01*
X170865863Y-76676794D01*
X170807872Y-76460370D01*
X170713181Y-76257305D01*
X170594562Y-76087898D01*
X170584668Y-76073768D01*
X170559667Y-76048767D01*
X170426233Y-75915333D01*
X170426229Y-75915330D01*
X170426228Y-75915329D01*
X170304366Y-75830000D01*
X175601418Y-75830000D01*
X175621715Y-76087898D01*
X175682102Y-76339430D01*
X175682106Y-76339442D01*
X175781102Y-76578441D01*
X175916267Y-76799009D01*
X175916270Y-76799014D01*
X175992426Y-76888181D01*
X176084276Y-76995724D01*
X176210191Y-77103265D01*
X176280985Y-77163729D01*
X176280990Y-77163732D01*
X176501558Y-77298897D01*
X176586057Y-77333897D01*
X176740560Y-77397895D01*
X176992105Y-77458285D01*
X177250000Y-77478582D01*
X177507895Y-77458285D01*
X177759440Y-77397895D01*
X177998441Y-77298897D01*
X178219012Y-77163731D01*
X178415724Y-76995724D01*
X178583731Y-76799012D01*
X178718897Y-76578441D01*
X178817895Y-76339440D01*
X178878285Y-76087895D01*
X178898582Y-75830000D01*
X180681920Y-75830000D01*
X180702211Y-76087820D01*
X180762582Y-76339285D01*
X180861549Y-76578213D01*
X180996673Y-76798714D01*
X180996676Y-76798719D01*
X181001767Y-76804679D01*
X181652421Y-76154024D01*
X181665359Y-76185258D01*
X181747437Y-76308097D01*
X181851903Y-76412563D01*
X181974742Y-76494641D01*
X182005974Y-76507577D01*
X181355319Y-77158232D01*
X181361283Y-77163325D01*
X181581786Y-77298450D01*
X181820714Y-77397417D01*
X182072179Y-77457788D01*
X182330000Y-77478079D01*
X182587820Y-77457788D01*
X182839285Y-77397417D01*
X183078213Y-77298450D01*
X183298713Y-77163326D01*
X183298723Y-77163319D01*
X183304678Y-77158232D01*
X183304678Y-77158231D01*
X182654025Y-76507578D01*
X182685258Y-76494641D01*
X182808097Y-76412563D01*
X182912563Y-76308097D01*
X182994641Y-76185258D01*
X183007578Y-76154025D01*
X183658231Y-76804678D01*
X183658232Y-76804678D01*
X183663319Y-76798723D01*
X183663326Y-76798713D01*
X183798450Y-76578213D01*
X183897417Y-76339285D01*
X183957788Y-76087820D01*
X183978079Y-75830000D01*
X183957788Y-75572179D01*
X183897417Y-75320714D01*
X183798450Y-75081786D01*
X183663325Y-74861283D01*
X183658232Y-74855319D01*
X183007577Y-75505973D01*
X182994641Y-75474742D01*
X182912563Y-75351903D01*
X182808097Y-75247437D01*
X182685258Y-75165359D01*
X182654024Y-75152421D01*
X183304679Y-74501767D01*
X183304679Y-74501766D01*
X183298719Y-74496676D01*
X183298714Y-74496673D01*
X183078213Y-74361549D01*
X182839285Y-74262582D01*
X182587820Y-74202211D01*
X182330000Y-74181920D01*
X182072179Y-74202211D01*
X181820714Y-74262582D01*
X181581786Y-74361549D01*
X181361289Y-74496670D01*
X181361273Y-74496682D01*
X181355320Y-74501766D01*
X182005975Y-75152421D01*
X181974742Y-75165359D01*
X181851903Y-75247437D01*
X181747437Y-75351903D01*
X181665359Y-75474742D01*
X181652421Y-75505974D01*
X181001767Y-74855320D01*
X181001766Y-74855320D01*
X180996682Y-74861273D01*
X180996670Y-74861289D01*
X180861549Y-75081786D01*
X180762582Y-75320714D01*
X180702211Y-75572179D01*
X180681920Y-75830000D01*
X178898582Y-75830000D01*
X178878285Y-75572105D01*
X178817895Y-75320560D01*
X178718897Y-75081559D01*
X178718897Y-75081558D01*
X178583912Y-74861283D01*
X178583731Y-74860988D01*
X178583730Y-74860987D01*
X178583729Y-74860985D01*
X178523265Y-74790191D01*
X178415724Y-74664276D01*
X178308181Y-74572426D01*
X178219014Y-74496270D01*
X178219009Y-74496267D01*
X177998441Y-74361102D01*
X177794441Y-74276603D01*
X177759440Y-74262105D01*
X177759436Y-74262104D01*
X177759430Y-74262102D01*
X177507898Y-74201715D01*
X177250000Y-74181418D01*
X176992101Y-74201715D01*
X176740569Y-74262102D01*
X176740557Y-74262106D01*
X176501558Y-74361102D01*
X176280990Y-74496267D01*
X176280985Y-74496270D01*
X176084276Y-74664276D01*
X175916270Y-74860985D01*
X175916267Y-74860990D01*
X175781102Y-75081558D01*
X175682106Y-75320557D01*
X175682102Y-75320569D01*
X175621715Y-75572101D01*
X175601418Y-75830000D01*
X170304366Y-75830000D01*
X170242700Y-75786821D01*
X170242692Y-75786817D01*
X170147400Y-75742382D01*
X170094960Y-75696210D01*
X170075808Y-75629017D01*
X170096023Y-75562135D01*
X170147400Y-75517618D01*
X170242696Y-75473181D01*
X170426233Y-75344667D01*
X170584667Y-75186233D01*
X170713181Y-75002696D01*
X170807872Y-74799630D01*
X170865863Y-74583206D01*
X170882601Y-74391886D01*
X170885391Y-74360001D01*
X170885391Y-74359998D01*
X170865863Y-74136799D01*
X170865863Y-74136794D01*
X170807872Y-73920370D01*
X170713181Y-73717305D01*
X170584667Y-73533767D01*
X170426233Y-73375333D01*
X170426229Y-73375330D01*
X170426228Y-73375329D01*
X170242700Y-73246821D01*
X170242692Y-73246817D01*
X170147400Y-73202382D01*
X170094960Y-73156210D01*
X170075808Y-73089017D01*
X170096023Y-73022135D01*
X170147400Y-72977618D01*
X170242696Y-72933181D01*
X170426233Y-72804667D01*
X170584667Y-72646233D01*
X170713181Y-72462696D01*
X170807872Y-72259630D01*
X170865863Y-72043206D01*
X170885391Y-71820000D01*
X170865863Y-71596794D01*
X170807872Y-71380370D01*
X170713181Y-71177305D01*
X170645947Y-71081285D01*
X170584668Y-70993768D01*
X170516453Y-70925553D01*
X170426233Y-70835333D01*
X170426229Y-70835330D01*
X170426228Y-70835329D01*
X170242700Y-70706821D01*
X170242692Y-70706817D01*
X170147400Y-70662382D01*
X170094960Y-70616210D01*
X170075808Y-70549017D01*
X170096023Y-70482135D01*
X170147400Y-70437618D01*
X170242696Y-70393181D01*
X170426233Y-70264667D01*
X170584667Y-70106233D01*
X170713181Y-69922696D01*
X170807872Y-69719630D01*
X170865863Y-69503206D01*
X170885391Y-69280000D01*
X170865863Y-69056794D01*
X170807872Y-68840370D01*
X170713181Y-68637305D01*
X170584667Y-68453767D01*
X170426233Y-68295333D01*
X170426229Y-68295330D01*
X170426228Y-68295329D01*
X170242700Y-68166821D01*
X170242692Y-68166817D01*
X170147400Y-68122382D01*
X170094960Y-68076210D01*
X170075808Y-68009017D01*
X170096023Y-67942135D01*
X170147400Y-67897618D01*
X170242696Y-67853181D01*
X170426233Y-67724667D01*
X170584667Y-67566233D01*
X170713181Y-67382696D01*
X170807872Y-67179630D01*
X170865863Y-66963206D01*
X170885391Y-66740000D01*
X170865863Y-66516794D01*
X170807872Y-66300370D01*
X170713181Y-66097305D01*
X170594562Y-65927898D01*
X170584668Y-65913768D01*
X170559667Y-65888767D01*
X170426233Y-65755333D01*
X170426229Y-65755330D01*
X170426228Y-65755329D01*
X170304366Y-65670000D01*
X175601418Y-65670000D01*
X175621715Y-65927898D01*
X175682102Y-66179430D01*
X175682106Y-66179442D01*
X175781102Y-66418441D01*
X175916267Y-66639009D01*
X175916270Y-66639014D01*
X175992426Y-66728181D01*
X176084276Y-66835724D01*
X176210191Y-66943265D01*
X176280985Y-67003729D01*
X176280990Y-67003732D01*
X176501558Y-67138897D01*
X176573867Y-67168848D01*
X176740560Y-67237895D01*
X176992105Y-67298285D01*
X177250000Y-67318582D01*
X177507895Y-67298285D01*
X177759440Y-67237895D01*
X177998441Y-67138897D01*
X178219012Y-67003731D01*
X178415724Y-66835724D01*
X178583731Y-66639012D01*
X178718897Y-66418441D01*
X178817895Y-66179440D01*
X178878285Y-65927895D01*
X178898582Y-65670000D01*
X180681920Y-65670000D01*
X180702211Y-65927820D01*
X180762582Y-66179285D01*
X180861549Y-66418213D01*
X180996673Y-66638714D01*
X180996676Y-66638719D01*
X181001767Y-66644679D01*
X181652421Y-65994024D01*
X181665359Y-66025258D01*
X181747437Y-66148097D01*
X181851903Y-66252563D01*
X181974742Y-66334641D01*
X182005974Y-66347577D01*
X181355319Y-66998232D01*
X181361283Y-67003325D01*
X181581786Y-67138450D01*
X181820714Y-67237417D01*
X182072179Y-67297788D01*
X182330000Y-67318079D01*
X182587820Y-67297788D01*
X182839285Y-67237417D01*
X183078213Y-67138450D01*
X183298713Y-67003326D01*
X183298723Y-67003319D01*
X183304678Y-66998232D01*
X183304678Y-66998231D01*
X182654025Y-66347578D01*
X182685258Y-66334641D01*
X182808097Y-66252563D01*
X182912563Y-66148097D01*
X182994641Y-66025258D01*
X183007578Y-65994025D01*
X183658231Y-66644678D01*
X183658232Y-66644678D01*
X183663319Y-66638723D01*
X183663326Y-66638713D01*
X183798450Y-66418213D01*
X183897417Y-66179285D01*
X183957788Y-65927820D01*
X183978079Y-65670000D01*
X183957788Y-65412179D01*
X183897417Y-65160714D01*
X183798450Y-64921786D01*
X183663325Y-64701283D01*
X183658232Y-64695319D01*
X183007577Y-65345973D01*
X182994641Y-65314742D01*
X182912563Y-65191903D01*
X182808097Y-65087437D01*
X182685258Y-65005359D01*
X182654024Y-64992421D01*
X183304679Y-64341767D01*
X183304679Y-64341766D01*
X183298719Y-64336676D01*
X183298714Y-64336673D01*
X183078213Y-64201549D01*
X182839285Y-64102582D01*
X182587820Y-64042211D01*
X182330000Y-64021920D01*
X182072179Y-64042211D01*
X181820714Y-64102582D01*
X181581786Y-64201549D01*
X181361289Y-64336670D01*
X181361273Y-64336682D01*
X181355320Y-64341766D01*
X182005975Y-64992421D01*
X181974742Y-65005359D01*
X181851903Y-65087437D01*
X181747437Y-65191903D01*
X181665359Y-65314742D01*
X181652421Y-65345975D01*
X181001766Y-64695320D01*
X180996682Y-64701273D01*
X180996670Y-64701289D01*
X180861549Y-64921786D01*
X180762582Y-65160714D01*
X180702211Y-65412179D01*
X180681920Y-65670000D01*
X178898582Y-65670000D01*
X178878285Y-65412105D01*
X178817895Y-65160560D01*
X178718897Y-64921559D01*
X178718897Y-64921558D01*
X178583912Y-64701283D01*
X178583731Y-64700988D01*
X178583730Y-64700987D01*
X178583729Y-64700985D01*
X178523265Y-64630191D01*
X178415724Y-64504276D01*
X178308181Y-64412426D01*
X178219014Y-64336270D01*
X178219009Y-64336267D01*
X177998441Y-64201102D01*
X177794441Y-64116603D01*
X177759440Y-64102105D01*
X177759436Y-64102104D01*
X177759430Y-64102102D01*
X177507898Y-64041715D01*
X177250000Y-64021418D01*
X176992101Y-64041715D01*
X176740569Y-64102102D01*
X176740557Y-64102106D01*
X176501558Y-64201102D01*
X176280990Y-64336267D01*
X176280985Y-64336270D01*
X176084276Y-64504276D01*
X175916270Y-64700985D01*
X175916267Y-64700990D01*
X175781102Y-64921558D01*
X175682106Y-65160557D01*
X175682102Y-65160569D01*
X175621715Y-65412101D01*
X175601418Y-65670000D01*
X170304366Y-65670000D01*
X170242700Y-65626821D01*
X170242692Y-65626817D01*
X170147400Y-65582382D01*
X170094960Y-65536210D01*
X170075808Y-65469017D01*
X170096023Y-65402135D01*
X170147400Y-65357618D01*
X170168341Y-65347853D01*
X170242696Y-65313181D01*
X170426233Y-65184667D01*
X170584667Y-65026233D01*
X170713181Y-64842696D01*
X170807872Y-64639630D01*
X170865863Y-64423206D01*
X170882653Y-64231297D01*
X170885391Y-64200001D01*
X170885391Y-64199998D01*
X170869767Y-64021418D01*
X170865863Y-63976794D01*
X170807872Y-63760370D01*
X170713181Y-63557305D01*
X170584667Y-63373767D01*
X170426233Y-63215333D01*
X170426229Y-63215330D01*
X170426228Y-63215329D01*
X170242700Y-63086821D01*
X170242696Y-63086819D01*
X170146807Y-63042105D01*
X170094369Y-62995934D01*
X170075217Y-62928740D01*
X170095433Y-62861859D01*
X170146809Y-62817341D01*
X170242450Y-62772743D01*
X170242451Y-62772742D01*
X170311112Y-62724665D01*
X169745739Y-62159292D01*
X169800712Y-62144563D01*
X169919287Y-62076104D01*
X170016104Y-61979287D01*
X170084563Y-61860712D01*
X170099292Y-61805739D01*
X170664665Y-62371112D01*
X170712742Y-62302451D01*
X170712746Y-62302445D01*
X170807399Y-62099459D01*
X170807403Y-62099450D01*
X170865367Y-61883124D01*
X170865369Y-61883113D01*
X170884889Y-61660002D01*
X170884889Y-61659997D01*
X170865369Y-61436886D01*
X170865367Y-61436875D01*
X170807403Y-61220549D01*
X170807399Y-61220540D01*
X170712747Y-61017557D01*
X170712746Y-61017555D01*
X170664664Y-60948887D01*
X170664664Y-60948886D01*
X170099292Y-61514259D01*
X170084563Y-61459288D01*
X170016104Y-61340713D01*
X169919287Y-61243896D01*
X169800712Y-61175437D01*
X169745740Y-61160707D01*
X170311112Y-60595334D01*
X170311112Y-60595333D01*
X170242445Y-60547253D01*
X170242443Y-60547252D01*
X170039459Y-60452600D01*
X170039450Y-60452596D01*
X169823124Y-60394632D01*
X169823113Y-60394630D01*
X169600002Y-60375111D01*
X169599998Y-60375111D01*
X169376886Y-60394630D01*
X169376875Y-60394632D01*
X169160549Y-60452596D01*
X169160540Y-60452600D01*
X168957556Y-60547253D01*
X168888887Y-60595334D01*
X169454260Y-61160707D01*
X169399288Y-61175437D01*
X169280713Y-61243896D01*
X169183896Y-61340713D01*
X169115437Y-61459288D01*
X169100707Y-61514259D01*
X168535334Y-60948887D01*
X168487253Y-61017556D01*
X168392600Y-61220540D01*
X168392596Y-61220549D01*
X168334632Y-61436875D01*
X168334630Y-61436886D01*
X168315111Y-61659997D01*
X168315111Y-61660002D01*
X168334630Y-61883113D01*
X168334632Y-61883124D01*
X168392596Y-62099450D01*
X168392600Y-62099459D01*
X168487252Y-62302443D01*
X168487253Y-62302445D01*
X168535334Y-62371112D01*
X169100707Y-61805739D01*
X169115437Y-61860712D01*
X169183896Y-61979287D01*
X169280713Y-62076104D01*
X169399288Y-62144563D01*
X169454259Y-62159292D01*
X168888886Y-62724664D01*
X168957556Y-62772747D01*
X168957558Y-62772748D01*
X169053190Y-62817342D01*
X169105630Y-62863514D01*
X169124782Y-62930707D01*
X169104567Y-62997588D01*
X169053191Y-63042106D01*
X168967389Y-63082117D01*
X168957303Y-63086820D01*
X168773764Y-63215334D01*
X168615334Y-63373764D01*
X168486819Y-63557304D01*
X168486818Y-63557306D01*
X168392129Y-63760368D01*
X168392126Y-63760374D01*
X168334137Y-63976791D01*
X168334136Y-63976799D01*
X168314609Y-64199998D01*
X145485391Y-64199998D01*
X145469767Y-64021418D01*
X145465863Y-63976794D01*
X145407872Y-63760370D01*
X145313181Y-63557305D01*
X145184667Y-63373767D01*
X145026233Y-63215333D01*
X145026229Y-63215330D01*
X145026228Y-63215329D01*
X144955884Y-63166074D01*
X144912259Y-63111497D01*
X144905065Y-63041999D01*
X144936588Y-62979644D01*
X144996817Y-62944230D01*
X145024570Y-62940800D01*
X145024564Y-62940676D01*
X145026347Y-62940580D01*
X145027007Y-62940499D01*
X145027871Y-62940499D01*
X145027872Y-62940499D01*
X145087483Y-62934091D01*
X145222331Y-62883796D01*
X145337546Y-62797546D01*
X145423796Y-62682331D01*
X145474091Y-62547483D01*
X145480500Y-62487873D01*
X145480499Y-60832128D01*
X145474091Y-60772517D01*
X145423796Y-60637669D01*
X145423795Y-60637668D01*
X145423793Y-60637664D01*
X145337547Y-60522455D01*
X145337544Y-60522452D01*
X145222335Y-60436206D01*
X145222328Y-60436202D01*
X145087482Y-60385908D01*
X145087483Y-60385908D01*
X145027883Y-60379501D01*
X145027881Y-60379500D01*
X145027873Y-60379500D01*
X145027864Y-60379500D01*
X143372129Y-60379500D01*
X143372123Y-60379501D01*
X143312516Y-60385908D01*
X143177671Y-60436202D01*
X143177664Y-60436206D01*
X143062455Y-60522452D01*
X143062452Y-60522455D01*
X142976206Y-60637664D01*
X142976202Y-60637671D01*
X142925908Y-60772517D01*
X142919501Y-60832116D01*
X142919501Y-60832123D01*
X142919500Y-60832135D01*
X142919500Y-62487870D01*
X142919501Y-62487876D01*
X142925908Y-62547483D01*
X142976202Y-62682328D01*
X142976206Y-62682335D01*
X143062452Y-62797544D01*
X143062455Y-62797547D01*
X143177664Y-62883793D01*
X143177671Y-62883797D01*
X143222618Y-62900561D01*
X143312517Y-62934091D01*
X143372127Y-62940500D01*
X143372964Y-62940499D01*
X143373149Y-62940554D01*
X143375453Y-62940678D01*
X143375423Y-62941221D01*
X143440006Y-62960168D01*
X143485773Y-63012961D01*
X143495733Y-63082117D01*
X143466723Y-63145679D01*
X143444115Y-63166073D01*
X143373766Y-63215332D01*
X143215334Y-63373764D01*
X143086819Y-63557304D01*
X143086818Y-63557306D01*
X142992129Y-63760368D01*
X142992126Y-63760374D01*
X142934137Y-63976791D01*
X142934136Y-63976799D01*
X142914609Y-64199998D01*
X135138728Y-64199998D01*
X135146800Y-64102582D01*
X135155300Y-64000006D01*
X135155300Y-63999993D01*
X135136135Y-63768702D01*
X135136133Y-63768691D01*
X135079157Y-63543699D01*
X134985924Y-63331151D01*
X134858983Y-63136852D01*
X134858980Y-63136849D01*
X134858979Y-63136847D01*
X134701784Y-62966087D01*
X134701779Y-62966083D01*
X134701777Y-62966081D01*
X134518634Y-62823535D01*
X134518628Y-62823531D01*
X134314504Y-62713064D01*
X134314495Y-62713061D01*
X134094984Y-62637702D01*
X133923282Y-62609050D01*
X133866049Y-62599500D01*
X133633951Y-62599500D01*
X133588164Y-62607140D01*
X133405015Y-62637702D01*
X133185504Y-62713061D01*
X133185495Y-62713064D01*
X132981371Y-62823531D01*
X132981365Y-62823535D01*
X132798222Y-62966081D01*
X132798219Y-62966084D01*
X132798216Y-62966086D01*
X132798216Y-62966087D01*
X132755066Y-63012961D01*
X132641016Y-63136852D01*
X132514075Y-63331151D01*
X132420842Y-63543699D01*
X132363866Y-63768691D01*
X132363864Y-63768702D01*
X132344700Y-63999993D01*
X117950500Y-63999993D01*
X117950500Y-57250000D01*
X120601920Y-57250000D01*
X120622211Y-57507820D01*
X120682582Y-57759285D01*
X120781549Y-57998213D01*
X120916673Y-58218714D01*
X120916676Y-58218719D01*
X120921767Y-58224679D01*
X121610690Y-57535756D01*
X121629668Y-57581574D01*
X121706274Y-57696224D01*
X121803776Y-57793726D01*
X121918426Y-57870332D01*
X121964242Y-57889309D01*
X121275319Y-58578232D01*
X121281283Y-58583325D01*
X121501786Y-58718450D01*
X121740714Y-58817417D01*
X121992179Y-58877788D01*
X122250000Y-58898079D01*
X122507820Y-58877788D01*
X122759285Y-58817417D01*
X122998213Y-58718450D01*
X123218713Y-58583326D01*
X123218723Y-58583319D01*
X123224678Y-58578232D01*
X123224678Y-58578231D01*
X122535756Y-57889309D01*
X122581574Y-57870332D01*
X122696224Y-57793726D01*
X122793726Y-57696224D01*
X122870332Y-57581574D01*
X122889309Y-57535756D01*
X123578231Y-58224678D01*
X123578232Y-58224678D01*
X123583319Y-58218723D01*
X123583326Y-58218713D01*
X123718450Y-57998213D01*
X123817417Y-57759285D01*
X123877788Y-57507820D01*
X123898079Y-57250000D01*
X127101920Y-57250000D01*
X127122211Y-57507820D01*
X127182582Y-57759285D01*
X127281549Y-57998213D01*
X127416673Y-58218714D01*
X127416676Y-58218719D01*
X127421767Y-58224679D01*
X128110690Y-57535756D01*
X128129668Y-57581574D01*
X128206274Y-57696224D01*
X128303776Y-57793726D01*
X128418426Y-57870332D01*
X128464242Y-57889309D01*
X127775319Y-58578232D01*
X127781283Y-58583325D01*
X128001786Y-58718450D01*
X128240714Y-58817417D01*
X128492179Y-58877788D01*
X128750000Y-58898079D01*
X129007820Y-58877788D01*
X129259285Y-58817417D01*
X129498213Y-58718450D01*
X129718713Y-58583326D01*
X129718723Y-58583319D01*
X129724678Y-58578232D01*
X129724678Y-58578231D01*
X129035756Y-57889309D01*
X129081574Y-57870332D01*
X129196224Y-57793726D01*
X129293726Y-57696224D01*
X129370332Y-57581574D01*
X129389309Y-57535756D01*
X130078231Y-58224678D01*
X130078232Y-58224678D01*
X130083319Y-58218723D01*
X130083326Y-58218713D01*
X130218450Y-57998213D01*
X130317417Y-57759285D01*
X130377788Y-57507820D01*
X130398079Y-57250000D01*
X130377788Y-56992179D01*
X130317417Y-56740714D01*
X130218450Y-56501786D01*
X130083325Y-56281283D01*
X130078232Y-56275319D01*
X129389309Y-56964242D01*
X129370332Y-56918426D01*
X129293726Y-56803776D01*
X129196224Y-56706274D01*
X129081574Y-56629668D01*
X129035756Y-56610689D01*
X129724679Y-55921767D01*
X129724679Y-55921766D01*
X129718719Y-55916676D01*
X129718714Y-55916673D01*
X129498213Y-55781549D01*
X129259285Y-55682582D01*
X129007820Y-55622211D01*
X128750000Y-55601920D01*
X128492179Y-55622211D01*
X128240714Y-55682582D01*
X128001786Y-55781549D01*
X127781289Y-55916670D01*
X127781273Y-55916682D01*
X127775320Y-55921766D01*
X128464243Y-56610689D01*
X128418426Y-56629668D01*
X128303776Y-56706274D01*
X128206274Y-56803776D01*
X128129668Y-56918426D01*
X128110690Y-56964243D01*
X127421766Y-56275320D01*
X127416682Y-56281273D01*
X127416670Y-56281289D01*
X127281549Y-56501786D01*
X127182582Y-56740714D01*
X127122211Y-56992179D01*
X127101920Y-57250000D01*
X123898079Y-57250000D01*
X123877788Y-56992179D01*
X123817417Y-56740714D01*
X123718450Y-56501786D01*
X123583325Y-56281283D01*
X123578232Y-56275319D01*
X122889309Y-56964242D01*
X122870332Y-56918426D01*
X122793726Y-56803776D01*
X122696224Y-56706274D01*
X122581574Y-56629668D01*
X122535756Y-56610689D01*
X123224679Y-55921767D01*
X123224679Y-55921766D01*
X123218719Y-55916676D01*
X123218714Y-55916673D01*
X122998213Y-55781549D01*
X122759285Y-55682582D01*
X122507820Y-55622211D01*
X122250000Y-55601920D01*
X121992179Y-55622211D01*
X121740714Y-55682582D01*
X121501786Y-55781549D01*
X121281289Y-55916670D01*
X121281273Y-55916682D01*
X121275320Y-55921766D01*
X121964243Y-56610689D01*
X121918426Y-56629668D01*
X121803776Y-56706274D01*
X121706274Y-56803776D01*
X121629668Y-56918426D01*
X121610690Y-56964243D01*
X120921766Y-56275320D01*
X120916682Y-56281273D01*
X120916670Y-56281289D01*
X120781549Y-56501786D01*
X120682582Y-56740714D01*
X120622211Y-56992179D01*
X120601920Y-57250000D01*
X117950500Y-57250000D01*
X117950500Y-50999993D01*
X132344700Y-50999993D01*
X132344700Y-51000006D01*
X132363864Y-51231297D01*
X132363866Y-51231308D01*
X132420842Y-51456300D01*
X132514075Y-51668848D01*
X132641016Y-51863147D01*
X132641019Y-51863151D01*
X132641021Y-51863153D01*
X132798216Y-52033913D01*
X132798219Y-52033915D01*
X132798222Y-52033918D01*
X132950122Y-52152147D01*
X132990935Y-52208857D01*
X132994610Y-52278630D01*
X132959978Y-52339313D01*
X132950122Y-52347853D01*
X132798222Y-52466081D01*
X132798219Y-52466084D01*
X132641016Y-52636852D01*
X132514075Y-52831151D01*
X132420842Y-53043699D01*
X132363866Y-53268691D01*
X132363864Y-53268702D01*
X132344700Y-53499993D01*
X132344700Y-53500006D01*
X132363864Y-53731297D01*
X132363866Y-53731308D01*
X132420842Y-53956300D01*
X132514075Y-54168848D01*
X132641016Y-54363147D01*
X132641019Y-54363150D01*
X132641021Y-54363153D01*
X132708757Y-54436734D01*
X132739678Y-54499387D01*
X132731818Y-54568813D01*
X132687670Y-54622968D01*
X132660861Y-54636896D01*
X132607916Y-54656644D01*
X132607906Y-54656649D01*
X132492812Y-54742809D01*
X132492809Y-54742812D01*
X132406649Y-54857906D01*
X132406645Y-54857913D01*
X132356403Y-54992620D01*
X132356401Y-54992627D01*
X132350000Y-55052155D01*
X132350000Y-55750000D01*
X133316988Y-55750000D01*
X133284075Y-55807007D01*
X133250000Y-55934174D01*
X133250000Y-56065826D01*
X133284075Y-56192993D01*
X133316988Y-56250000D01*
X132350000Y-56250000D01*
X132350000Y-56947844D01*
X132356401Y-57007372D01*
X132356403Y-57007379D01*
X132406645Y-57142086D01*
X132406649Y-57142093D01*
X132492809Y-57257187D01*
X132492812Y-57257190D01*
X132607906Y-57343350D01*
X132607913Y-57343354D01*
X132742620Y-57393596D01*
X132742627Y-57393598D01*
X132802155Y-57399999D01*
X132802172Y-57400000D01*
X133500000Y-57400000D01*
X133500000Y-56433012D01*
X133557007Y-56465925D01*
X133684174Y-56500000D01*
X133815826Y-56500000D01*
X133942993Y-56465925D01*
X134000000Y-56433012D01*
X134000000Y-57400000D01*
X134697828Y-57400000D01*
X134697844Y-57399999D01*
X134757372Y-57393598D01*
X134757379Y-57393596D01*
X134892086Y-57343354D01*
X134892093Y-57343350D01*
X135007187Y-57257190D01*
X135007190Y-57257187D01*
X135093350Y-57142093D01*
X135093354Y-57142086D01*
X135143596Y-57007379D01*
X135143598Y-57007372D01*
X135149999Y-56947844D01*
X135150000Y-56947827D01*
X135150000Y-56250000D01*
X134183012Y-56250000D01*
X134215925Y-56192993D01*
X134250000Y-56065826D01*
X134250000Y-55934174D01*
X134215925Y-55807007D01*
X134183012Y-55750000D01*
X135150000Y-55750000D01*
X135150000Y-55052172D01*
X135149999Y-55052155D01*
X135143598Y-54992627D01*
X135143596Y-54992620D01*
X135093354Y-54857913D01*
X135093350Y-54857906D01*
X135007190Y-54742812D01*
X135007187Y-54742809D01*
X134892093Y-54656649D01*
X134892084Y-54656644D01*
X134839138Y-54636896D01*
X134783205Y-54595025D01*
X134758789Y-54529560D01*
X134773641Y-54461287D01*
X134791240Y-54436737D01*
X134858979Y-54363153D01*
X134985924Y-54168849D01*
X135079157Y-53956300D01*
X135136134Y-53731305D01*
X135155300Y-53500000D01*
X135155300Y-53499993D01*
X135136135Y-53268702D01*
X135136133Y-53268691D01*
X135079157Y-53043699D01*
X134985924Y-52831151D01*
X134858983Y-52636852D01*
X134858980Y-52636849D01*
X134858979Y-52636847D01*
X134701784Y-52466087D01*
X134549876Y-52347852D01*
X134509064Y-52291143D01*
X134505389Y-52221370D01*
X134540020Y-52160687D01*
X134549876Y-52152147D01*
X134701784Y-52033913D01*
X134858979Y-51863153D01*
X134985924Y-51668849D01*
X135079157Y-51456300D01*
X135136134Y-51231305D01*
X135155300Y-51000000D01*
X135155300Y-50999993D01*
X135136135Y-50768702D01*
X135136133Y-50768691D01*
X135079157Y-50543699D01*
X134985924Y-50331151D01*
X134858983Y-50136852D01*
X134858980Y-50136849D01*
X134858979Y-50136847D01*
X134701784Y-49966087D01*
X134701779Y-49966083D01*
X134701777Y-49966081D01*
X134518634Y-49823535D01*
X134518628Y-49823531D01*
X134314504Y-49713064D01*
X134314495Y-49713061D01*
X134094984Y-49637702D01*
X133923282Y-49609050D01*
X133866049Y-49599500D01*
X133633951Y-49599500D01*
X133588164Y-49607140D01*
X133405015Y-49637702D01*
X133185504Y-49713061D01*
X133185495Y-49713064D01*
X132981371Y-49823531D01*
X132981365Y-49823535D01*
X132798222Y-49966081D01*
X132798219Y-49966084D01*
X132641016Y-50136852D01*
X132514075Y-50331151D01*
X132420842Y-50543699D01*
X132363866Y-50768691D01*
X132363864Y-50768702D01*
X132344700Y-50999993D01*
X117950500Y-50999993D01*
X117950500Y-46574500D01*
X117970185Y-46507461D01*
X118022989Y-46461706D01*
X118074500Y-46450500D01*
X186675500Y-46450500D01*
X186742539Y-46470185D01*
G37*
%TD.AperFunction*%
%TD*%
M02*
