%TF.GenerationSoftware,KiCad,Pcbnew,8.0.5*%
%TF.CreationDate,2024-11-17T20:05:27+09:00*%
%TF.ProjectId,VR_glove,56525f67-6c6f-4766-952e-6b696361645f,rev?*%
%TF.SameCoordinates,Original*%
%TF.FileFunction,Legend,Top*%
%TF.FilePolarity,Positive*%
%FSLAX46Y46*%
G04 Gerber Fmt 4.6, Leading zero omitted, Abs format (unit mm)*
G04 Created by KiCad (PCBNEW 8.0.5) date 2024-11-17 20:05:27*
%MOMM*%
%LPD*%
G01*
G04 APERTURE LIST*
%ADD10C,0.150000*%
%ADD11C,0.100000*%
%ADD12C,0.127000*%
%ADD13C,0.200000*%
%ADD14C,0.120000*%
G04 APERTURE END LIST*
D10*
X145308626Y-52428567D02*
X145308626Y-53238403D01*
X145308626Y-53238403D02*
X145356263Y-53333678D01*
X145356263Y-53333678D02*
X145403901Y-53381316D01*
X145403901Y-53381316D02*
X145499175Y-53428953D01*
X145499175Y-53428953D02*
X145689725Y-53428953D01*
X145689725Y-53428953D02*
X145785000Y-53381316D01*
X145785000Y-53381316D02*
X145832637Y-53333678D01*
X145832637Y-53333678D02*
X145880275Y-53238403D01*
X145880275Y-53238403D02*
X145880275Y-52428567D01*
X146880660Y-53428953D02*
X146309011Y-53428953D01*
X146594836Y-53428953D02*
X146594836Y-52428567D01*
X146594836Y-52428567D02*
X146499561Y-52571479D01*
X146499561Y-52571479D02*
X146404286Y-52666754D01*
X146404286Y-52666754D02*
X146309011Y-52714392D01*
X133154761Y-47954819D02*
X132821428Y-47478628D01*
X132583333Y-47954819D02*
X132583333Y-46954819D01*
X132583333Y-46954819D02*
X132964285Y-46954819D01*
X132964285Y-46954819D02*
X133059523Y-47002438D01*
X133059523Y-47002438D02*
X133107142Y-47050057D01*
X133107142Y-47050057D02*
X133154761Y-47145295D01*
X133154761Y-47145295D02*
X133154761Y-47288152D01*
X133154761Y-47288152D02*
X133107142Y-47383390D01*
X133107142Y-47383390D02*
X133059523Y-47431009D01*
X133059523Y-47431009D02*
X132964285Y-47478628D01*
X132964285Y-47478628D02*
X132583333Y-47478628D01*
X133440476Y-46954819D02*
X133773809Y-47954819D01*
X133773809Y-47954819D02*
X134107142Y-46954819D01*
X134964285Y-47954819D02*
X134392857Y-47954819D01*
X134678571Y-47954819D02*
X134678571Y-46954819D01*
X134678571Y-46954819D02*
X134583333Y-47097676D01*
X134583333Y-47097676D02*
X134488095Y-47192914D01*
X134488095Y-47192914D02*
X134392857Y-47240533D01*
D11*
X178516667Y-77979800D02*
X178659524Y-78027419D01*
X178659524Y-78027419D02*
X178897619Y-78027419D01*
X178897619Y-78027419D02*
X178992857Y-77979800D01*
X178992857Y-77979800D02*
X179040476Y-77932180D01*
X179040476Y-77932180D02*
X179088095Y-77836942D01*
X179088095Y-77836942D02*
X179088095Y-77741704D01*
X179088095Y-77741704D02*
X179040476Y-77646466D01*
X179040476Y-77646466D02*
X178992857Y-77598847D01*
X178992857Y-77598847D02*
X178897619Y-77551228D01*
X178897619Y-77551228D02*
X178707143Y-77503609D01*
X178707143Y-77503609D02*
X178611905Y-77455990D01*
X178611905Y-77455990D02*
X178564286Y-77408371D01*
X178564286Y-77408371D02*
X178516667Y-77313133D01*
X178516667Y-77313133D02*
X178516667Y-77217895D01*
X178516667Y-77217895D02*
X178564286Y-77122657D01*
X178564286Y-77122657D02*
X178611905Y-77075038D01*
X178611905Y-77075038D02*
X178707143Y-77027419D01*
X178707143Y-77027419D02*
X178945238Y-77027419D01*
X178945238Y-77027419D02*
X179088095Y-77075038D01*
X179421429Y-77027419D02*
X179659524Y-78027419D01*
X179659524Y-78027419D02*
X179850000Y-77313133D01*
X179850000Y-77313133D02*
X180040476Y-78027419D01*
X180040476Y-78027419D02*
X180278572Y-77027419D01*
X180564286Y-77027419D02*
X181183333Y-77027419D01*
X181183333Y-77027419D02*
X180850000Y-77408371D01*
X180850000Y-77408371D02*
X180992857Y-77408371D01*
X180992857Y-77408371D02*
X181088095Y-77455990D01*
X181088095Y-77455990D02*
X181135714Y-77503609D01*
X181135714Y-77503609D02*
X181183333Y-77598847D01*
X181183333Y-77598847D02*
X181183333Y-77836942D01*
X181183333Y-77836942D02*
X181135714Y-77932180D01*
X181135714Y-77932180D02*
X181088095Y-77979800D01*
X181088095Y-77979800D02*
X180992857Y-78027419D01*
X180992857Y-78027419D02*
X180707143Y-78027419D01*
X180707143Y-78027419D02*
X180611905Y-77979800D01*
X180611905Y-77979800D02*
X180564286Y-77932180D01*
D10*
X133154761Y-60954819D02*
X132821428Y-60478628D01*
X132583333Y-60954819D02*
X132583333Y-59954819D01*
X132583333Y-59954819D02*
X132964285Y-59954819D01*
X132964285Y-59954819D02*
X133059523Y-60002438D01*
X133059523Y-60002438D02*
X133107142Y-60050057D01*
X133107142Y-60050057D02*
X133154761Y-60145295D01*
X133154761Y-60145295D02*
X133154761Y-60288152D01*
X133154761Y-60288152D02*
X133107142Y-60383390D01*
X133107142Y-60383390D02*
X133059523Y-60431009D01*
X133059523Y-60431009D02*
X132964285Y-60478628D01*
X132964285Y-60478628D02*
X132583333Y-60478628D01*
X133440476Y-59954819D02*
X133773809Y-60954819D01*
X133773809Y-60954819D02*
X134107142Y-59954819D01*
X134392857Y-60050057D02*
X134440476Y-60002438D01*
X134440476Y-60002438D02*
X134535714Y-59954819D01*
X134535714Y-59954819D02*
X134773809Y-59954819D01*
X134773809Y-59954819D02*
X134869047Y-60002438D01*
X134869047Y-60002438D02*
X134916666Y-60050057D01*
X134916666Y-60050057D02*
X134964285Y-60145295D01*
X134964285Y-60145295D02*
X134964285Y-60240533D01*
X134964285Y-60240533D02*
X134916666Y-60383390D01*
X134916666Y-60383390D02*
X134345238Y-60954819D01*
X134345238Y-60954819D02*
X134964285Y-60954819D01*
X139809819Y-112583333D02*
X140524104Y-112583333D01*
X140524104Y-112583333D02*
X140666961Y-112630952D01*
X140666961Y-112630952D02*
X140762200Y-112726190D01*
X140762200Y-112726190D02*
X140809819Y-112869047D01*
X140809819Y-112869047D02*
X140809819Y-112964285D01*
X139905057Y-112154761D02*
X139857438Y-112107142D01*
X139857438Y-112107142D02*
X139809819Y-112011904D01*
X139809819Y-112011904D02*
X139809819Y-111773809D01*
X139809819Y-111773809D02*
X139857438Y-111678571D01*
X139857438Y-111678571D02*
X139905057Y-111630952D01*
X139905057Y-111630952D02*
X140000295Y-111583333D01*
X140000295Y-111583333D02*
X140095533Y-111583333D01*
X140095533Y-111583333D02*
X140238390Y-111630952D01*
X140238390Y-111630952D02*
X140809819Y-112202380D01*
X140809819Y-112202380D02*
X140809819Y-111583333D01*
D11*
X178516667Y-60479800D02*
X178659524Y-60527419D01*
X178659524Y-60527419D02*
X178897619Y-60527419D01*
X178897619Y-60527419D02*
X178992857Y-60479800D01*
X178992857Y-60479800D02*
X179040476Y-60432180D01*
X179040476Y-60432180D02*
X179088095Y-60336942D01*
X179088095Y-60336942D02*
X179088095Y-60241704D01*
X179088095Y-60241704D02*
X179040476Y-60146466D01*
X179040476Y-60146466D02*
X178992857Y-60098847D01*
X178992857Y-60098847D02*
X178897619Y-60051228D01*
X178897619Y-60051228D02*
X178707143Y-60003609D01*
X178707143Y-60003609D02*
X178611905Y-59955990D01*
X178611905Y-59955990D02*
X178564286Y-59908371D01*
X178564286Y-59908371D02*
X178516667Y-59813133D01*
X178516667Y-59813133D02*
X178516667Y-59717895D01*
X178516667Y-59717895D02*
X178564286Y-59622657D01*
X178564286Y-59622657D02*
X178611905Y-59575038D01*
X178611905Y-59575038D02*
X178707143Y-59527419D01*
X178707143Y-59527419D02*
X178945238Y-59527419D01*
X178945238Y-59527419D02*
X179088095Y-59575038D01*
X179421429Y-59527419D02*
X179659524Y-60527419D01*
X179659524Y-60527419D02*
X179850000Y-59813133D01*
X179850000Y-59813133D02*
X180040476Y-60527419D01*
X180040476Y-60527419D02*
X180278572Y-59527419D01*
X181088095Y-59860752D02*
X181088095Y-60527419D01*
X180850000Y-59479800D02*
X180611905Y-60194085D01*
X180611905Y-60194085D02*
X181230952Y-60194085D01*
D10*
X133154761Y-99454819D02*
X132821428Y-98978628D01*
X132583333Y-99454819D02*
X132583333Y-98454819D01*
X132583333Y-98454819D02*
X132964285Y-98454819D01*
X132964285Y-98454819D02*
X133059523Y-98502438D01*
X133059523Y-98502438D02*
X133107142Y-98550057D01*
X133107142Y-98550057D02*
X133154761Y-98645295D01*
X133154761Y-98645295D02*
X133154761Y-98788152D01*
X133154761Y-98788152D02*
X133107142Y-98883390D01*
X133107142Y-98883390D02*
X133059523Y-98931009D01*
X133059523Y-98931009D02*
X132964285Y-98978628D01*
X132964285Y-98978628D02*
X132583333Y-98978628D01*
X133440476Y-98454819D02*
X133773809Y-99454819D01*
X133773809Y-99454819D02*
X134107142Y-98454819D01*
X134916666Y-98454819D02*
X134440476Y-98454819D01*
X134440476Y-98454819D02*
X134392857Y-98931009D01*
X134392857Y-98931009D02*
X134440476Y-98883390D01*
X134440476Y-98883390D02*
X134535714Y-98835771D01*
X134535714Y-98835771D02*
X134773809Y-98835771D01*
X134773809Y-98835771D02*
X134869047Y-98883390D01*
X134869047Y-98883390D02*
X134916666Y-98931009D01*
X134916666Y-98931009D02*
X134964285Y-99026247D01*
X134964285Y-99026247D02*
X134964285Y-99264342D01*
X134964285Y-99264342D02*
X134916666Y-99359580D01*
X134916666Y-99359580D02*
X134869047Y-99407200D01*
X134869047Y-99407200D02*
X134773809Y-99454819D01*
X134773809Y-99454819D02*
X134535714Y-99454819D01*
X134535714Y-99454819D02*
X134440476Y-99407200D01*
X134440476Y-99407200D02*
X134392857Y-99359580D01*
X133154761Y-86704819D02*
X132821428Y-86228628D01*
X132583333Y-86704819D02*
X132583333Y-85704819D01*
X132583333Y-85704819D02*
X132964285Y-85704819D01*
X132964285Y-85704819D02*
X133059523Y-85752438D01*
X133059523Y-85752438D02*
X133107142Y-85800057D01*
X133107142Y-85800057D02*
X133154761Y-85895295D01*
X133154761Y-85895295D02*
X133154761Y-86038152D01*
X133154761Y-86038152D02*
X133107142Y-86133390D01*
X133107142Y-86133390D02*
X133059523Y-86181009D01*
X133059523Y-86181009D02*
X132964285Y-86228628D01*
X132964285Y-86228628D02*
X132583333Y-86228628D01*
X133440476Y-85704819D02*
X133773809Y-86704819D01*
X133773809Y-86704819D02*
X134107142Y-85704819D01*
X134869047Y-86038152D02*
X134869047Y-86704819D01*
X134630952Y-85657200D02*
X134392857Y-86371485D01*
X134392857Y-86371485D02*
X135011904Y-86371485D01*
X133154761Y-73704819D02*
X132821428Y-73228628D01*
X132583333Y-73704819D02*
X132583333Y-72704819D01*
X132583333Y-72704819D02*
X132964285Y-72704819D01*
X132964285Y-72704819D02*
X133059523Y-72752438D01*
X133059523Y-72752438D02*
X133107142Y-72800057D01*
X133107142Y-72800057D02*
X133154761Y-72895295D01*
X133154761Y-72895295D02*
X133154761Y-73038152D01*
X133154761Y-73038152D02*
X133107142Y-73133390D01*
X133107142Y-73133390D02*
X133059523Y-73181009D01*
X133059523Y-73181009D02*
X132964285Y-73228628D01*
X132964285Y-73228628D02*
X132583333Y-73228628D01*
X133440476Y-72704819D02*
X133773809Y-73704819D01*
X133773809Y-73704819D02*
X134107142Y-72704819D01*
X134345238Y-72704819D02*
X134964285Y-72704819D01*
X134964285Y-72704819D02*
X134630952Y-73085771D01*
X134630952Y-73085771D02*
X134773809Y-73085771D01*
X134773809Y-73085771D02*
X134869047Y-73133390D01*
X134869047Y-73133390D02*
X134916666Y-73181009D01*
X134916666Y-73181009D02*
X134964285Y-73276247D01*
X134964285Y-73276247D02*
X134964285Y-73514342D01*
X134964285Y-73514342D02*
X134916666Y-73609580D01*
X134916666Y-73609580D02*
X134869047Y-73657200D01*
X134869047Y-73657200D02*
X134773809Y-73704819D01*
X134773809Y-73704819D02*
X134488095Y-73704819D01*
X134488095Y-73704819D02*
X134392857Y-73657200D01*
X134392857Y-73657200D02*
X134345238Y-73609580D01*
D12*
%TO.C,U1*%
X142950000Y-54270000D02*
X170850000Y-54270000D01*
X142950000Y-108670000D02*
X142950000Y-54270000D01*
X170850000Y-54270000D02*
X170850000Y-108670000D01*
X170850000Y-108670000D02*
X142950000Y-108670000D01*
D13*
X142400000Y-61660000D02*
G75*
G02*
X142200000Y-61660000I-100000J0D01*
G01*
X142200000Y-61660000D02*
G75*
G02*
X142400000Y-61660000I100000J0D01*
G01*
D14*
%TO.C,RV1*%
X149320000Y-50880000D02*
X149320000Y-56120000D01*
X142320000Y-56120000D02*
X149320000Y-56120000D01*
X142320000Y-50880000D02*
X149320000Y-50880000D01*
X142320000Y-49880000D02*
X142320000Y-57120000D01*
X137320000Y-57120000D02*
X142320000Y-57120000D01*
X137320000Y-49880000D02*
X142320000Y-49880000D01*
X137320000Y-48630000D02*
X137320000Y-58370000D01*
X131679000Y-58370000D02*
X137320000Y-58370000D01*
X131679000Y-48630000D02*
X137320000Y-48630000D01*
X131679000Y-48630000D02*
X131679000Y-58370000D01*
%TO.C,SW3*%
D11*
X175950000Y-84770000D02*
X183550000Y-84770000D01*
X183550000Y-91670000D01*
X175950000Y-91670000D01*
X175950000Y-84770000D01*
D14*
%TO.C,RV2*%
X131679000Y-61630000D02*
X131679000Y-71370000D01*
X131679000Y-61630000D02*
X137320000Y-61630000D01*
X131679000Y-71370000D02*
X137320000Y-71370000D01*
X137320000Y-61630000D02*
X137320000Y-71370000D01*
X137320000Y-62880000D02*
X142320000Y-62880000D01*
X137320000Y-70120000D02*
X142320000Y-70120000D01*
X142320000Y-62880000D02*
X142320000Y-70120000D01*
X142320000Y-63880000D02*
X149320000Y-63880000D01*
X142320000Y-69120000D02*
X149320000Y-69120000D01*
X149320000Y-63880000D02*
X149320000Y-69120000D01*
%TO.C,J2*%
X139355000Y-110920000D02*
X139355000Y-112250000D01*
X138025000Y-110920000D02*
X139355000Y-110920000D01*
X136755000Y-113580000D02*
X134155000Y-113580000D01*
X136755000Y-110920000D02*
X136755000Y-113580000D01*
X136755000Y-110920000D02*
X134155000Y-110920000D01*
X134155000Y-110920000D02*
X134155000Y-113580000D01*
%TO.C,SW4*%
D11*
X175950000Y-67270000D02*
X183550000Y-67270000D01*
X183550000Y-74170000D01*
X175950000Y-74170000D01*
X175950000Y-67270000D01*
D14*
%TO.C,RV5*%
X131679000Y-100130000D02*
X131679000Y-109870000D01*
X131679000Y-100130000D02*
X137320000Y-100130000D01*
X131679000Y-109870000D02*
X137320000Y-109870000D01*
X137320000Y-100130000D02*
X137320000Y-109870000D01*
X137320000Y-101380000D02*
X142320000Y-101380000D01*
X137320000Y-108620000D02*
X142320000Y-108620000D01*
X142320000Y-101380000D02*
X142320000Y-108620000D01*
X142320000Y-102380000D02*
X149320000Y-102380000D01*
X142320000Y-107620000D02*
X149320000Y-107620000D01*
X149320000Y-102380000D02*
X149320000Y-107620000D01*
%TO.C,RV4*%
X131679000Y-87380000D02*
X131679000Y-97120000D01*
X131679000Y-87380000D02*
X137320000Y-87380000D01*
X131679000Y-97120000D02*
X137320000Y-97120000D01*
X137320000Y-87380000D02*
X137320000Y-97120000D01*
X137320000Y-88630000D02*
X142320000Y-88630000D01*
X137320000Y-95870000D02*
X142320000Y-95870000D01*
X142320000Y-88630000D02*
X142320000Y-95870000D01*
X142320000Y-89630000D02*
X149320000Y-89630000D01*
X142320000Y-94870000D02*
X149320000Y-94870000D01*
X149320000Y-89630000D02*
X149320000Y-94870000D01*
%TO.C,RV3*%
X131679000Y-74380000D02*
X131679000Y-84120000D01*
X131679000Y-74380000D02*
X137320000Y-74380000D01*
X131679000Y-84120000D02*
X137320000Y-84120000D01*
X137320000Y-74380000D02*
X137320000Y-84120000D01*
X137320000Y-75630000D02*
X142320000Y-75630000D01*
X137320000Y-82870000D02*
X142320000Y-82870000D01*
X142320000Y-75630000D02*
X142320000Y-82870000D01*
X142320000Y-76630000D02*
X149320000Y-76630000D01*
X142320000Y-81870000D02*
X149320000Y-81870000D01*
X149320000Y-76630000D02*
X149320000Y-81870000D01*
%TD*%
M02*
