M48
; DRILL file {KiCad 8.0.5} date 2024-11-17T20:05:28+0900
; FORMAT={-:-/ absolute / inch / decimal}
; #@! TF.CreationDate,2024-11-17T20:05:28+09:00
; #@! TF.GenerationSoftware,Kicad,Pcbnew,8.0.5
; #@! TF.FileFunction,Plated,1,2,PTH
FMAT,2
INCH
; #@! TA.AperFunction,Plated,PTH,ComponentDrill
T1C0.0394
; #@! TA.AperFunction,Plated,PTH,ComponentDrill
T2C0.0409
; #@! TA.AperFunction,Plated,PTH,ComponentDrill
T3C0.0551
; #@! TA.AperFunction,Plated,PTH,ComponentDrill
T4C0.0591
%
G90
G05
T1
X5.2657Y-2.0079
X5.2657Y-2.1063
X5.2657Y-2.2047
X5.2657Y-2.5197
X5.2657Y-2.6181
X5.2657Y-2.7165
X5.2657Y-3.0217
X5.2657Y-3.1201
X5.2657Y-3.2185
X5.2657Y-3.5335
X5.2657Y-3.6319
X5.2657Y-3.7303
X5.2657Y-4.0354
X5.2657Y-4.1339
X5.2657Y-4.2323
X5.3341Y-4.4193
X5.4341Y-4.4193
T2
X5.6772Y-2.4276
X5.6772Y-2.5276
X5.6772Y-2.6276
X5.6772Y-2.7276
X5.6772Y-2.8276
X5.6772Y-2.9276
X5.6772Y-3.0276
X5.6772Y-3.1276
X5.6772Y-3.2276
X5.6772Y-3.3276
X5.6772Y-3.4276
X5.6772Y-3.5276
X5.6772Y-3.6276
X5.6772Y-3.7276
X5.6772Y-3.8276
X5.6772Y-3.9276
X5.6772Y-4.0276
X5.6772Y-4.1276
X5.6772Y-4.2276
X6.6772Y-2.4276
X6.6772Y-2.5276
X6.6772Y-2.6276
X6.6772Y-2.7276
X6.6772Y-2.8276
X6.6772Y-2.9276
X6.6772Y-3.0276
X6.6772Y-3.1276
X6.6772Y-3.2276
X6.6772Y-3.3276
X6.6772Y-3.4276
X6.6772Y-3.5276
X6.6772Y-3.6276
X6.6772Y-3.7276
X6.6772Y-3.8276
X6.6772Y-3.9276
X6.6772Y-4.0276
X6.6772Y-4.1276
X6.6772Y-4.2276
T3
X4.813Y-2.2539
X4.8186Y-2.7784
X4.8228Y-3.248
X4.8228Y-3.7697
X5.0689Y-2.2539
X5.0689Y-2.7756
X5.0689Y-3.248
X5.0689Y-3.7697
T4
X6.9783Y-2.5854
X6.9783Y-2.9854
X6.9783Y-3.2744
X6.9783Y-3.6744
X7.1783Y-2.5854
X7.1783Y-2.9854
X7.1783Y-3.2744
X7.1783Y-3.6744
M30
