%TF.GenerationSoftware,KiCad,Pcbnew,8.0.5*%
%TF.CreationDate,2024-11-17T20:05:27+09:00*%
%TF.ProjectId,VR_glove,56525f67-6c6f-4766-952e-6b696361645f,rev?*%
%TF.SameCoordinates,Original*%
%TF.FileFunction,Soldermask,Bot*%
%TF.FilePolarity,Negative*%
%FSLAX46Y46*%
G04 Gerber Fmt 4.6, Leading zero omitted, Abs format (unit mm)*
G04 Created by KiCad (PCBNEW 8.0.5) date 2024-11-17 20:05:27*
%MOMM*%
%LPD*%
G01*
G04 APERTURE LIST*
G04 Aperture macros list*
%AMRoundRect*
0 Rectangle with rounded corners*
0 $1 Rounding radius*
0 $2 $3 $4 $5 $6 $7 $8 $9 X,Y pos of 4 corners*
0 Add a 4 corners polygon primitive as box body*
4,1,4,$2,$3,$4,$5,$6,$7,$8,$9,$2,$3,0*
0 Add four circle primitives for the rounded corners*
1,1,$1+$1,$2,$3*
1,1,$1+$1,$4,$5*
1,1,$1+$1,$6,$7*
1,1,$1+$1,$8,$9*
0 Add four rect primitives between the rounded corners*
20,1,$1+$1,$2,$3,$4,$5,0*
20,1,$1+$1,$4,$5,$6,$7,0*
20,1,$1+$1,$6,$7,$8,$9,0*
20,1,$1+$1,$8,$9,$2,$3,0*%
G04 Aperture macros list end*
%ADD10RoundRect,0.102000X-0.780000X-0.780000X0.780000X-0.780000X0.780000X0.780000X-0.780000X0.780000X0*%
%ADD11C,1.764000*%
%ADD12C,2.286000*%
%ADD13C,1.800000*%
%ADD14R,1.800000X1.800000*%
%ADD15O,1.700000X1.700000*%
%ADD16R,1.700000X1.700000*%
G04 APERTURE END LIST*
D10*
%TO.C,U1*%
X144200000Y-61660000D03*
D11*
X144200000Y-64200000D03*
X144200000Y-66740000D03*
X144200000Y-69280000D03*
X144200000Y-71820000D03*
X144200000Y-74360000D03*
X144200000Y-76900000D03*
X144200000Y-79440000D03*
X144200000Y-81980000D03*
X144200000Y-84520000D03*
X144200000Y-87060000D03*
X144200000Y-89600000D03*
X144200000Y-92140000D03*
X144200000Y-94680000D03*
X144200000Y-97220000D03*
X144200000Y-99760000D03*
X144200000Y-102300000D03*
X144200000Y-104840000D03*
X144200000Y-107380000D03*
X169600000Y-61660000D03*
X169600000Y-64200000D03*
X169600000Y-66740000D03*
X169600000Y-69280000D03*
X169600000Y-71820000D03*
X169600000Y-74360000D03*
X169600000Y-76900000D03*
X169600000Y-79440000D03*
X169600000Y-81980000D03*
X169600000Y-84520000D03*
X169600000Y-87060000D03*
X169600000Y-89600000D03*
X169600000Y-92140000D03*
X169600000Y-94680000D03*
X169600000Y-97220000D03*
X169600000Y-99760000D03*
X169600000Y-102300000D03*
X169600000Y-104840000D03*
X169600000Y-107380000D03*
%TD*%
D12*
%TO.C,J9*%
X128750000Y-57250000D03*
%TD*%
D13*
%TO.C,RV1*%
X133750000Y-51000000D03*
X133750000Y-53500000D03*
D14*
X133750000Y-56000000D03*
%TD*%
D12*
%TO.C,J7*%
X128750000Y-70500000D03*
%TD*%
%TO.C,J1*%
X122500000Y-82500000D03*
%TD*%
%TO.C,J6*%
X128750000Y-82500000D03*
%TD*%
%TO.C,J5*%
X122250000Y-57250000D03*
%TD*%
%TO.C,SW3*%
X177250000Y-83170000D03*
X177250000Y-93330000D03*
X182330000Y-83170000D03*
X182330000Y-93330000D03*
%TD*%
%TO.C,J3*%
X122392000Y-70572000D03*
%TD*%
%TO.C,J4*%
X128750000Y-95750000D03*
%TD*%
D14*
%TO.C,RV2*%
X133750000Y-69000000D03*
D13*
X133750000Y-66500000D03*
X133750000Y-64000000D03*
%TD*%
D15*
%TO.C,J2*%
X135485000Y-112250000D03*
D16*
X138025000Y-112250000D03*
%TD*%
D12*
%TO.C,J8*%
X122500000Y-95750000D03*
%TD*%
%TO.C,SW4*%
X177250000Y-65670000D03*
X177250000Y-75830000D03*
X182330000Y-65670000D03*
X182330000Y-75830000D03*
%TD*%
D14*
%TO.C,RV5*%
X133750000Y-107500000D03*
D13*
X133750000Y-105000000D03*
X133750000Y-102500000D03*
%TD*%
D14*
%TO.C,RV4*%
X133750000Y-94750000D03*
D13*
X133750000Y-92250000D03*
X133750000Y-89750000D03*
%TD*%
D14*
%TO.C,RV3*%
X133750000Y-81750000D03*
D13*
X133750000Y-79250000D03*
X133750000Y-76750000D03*
%TD*%
M02*
