%TF.GenerationSoftware,KiCad,Pcbnew,8.0.5*%
%TF.CreationDate,2024-12-03T21:08:25+09:00*%
%TF.ProjectId,IR_con,49525f63-6f6e-42e6-9b69-6361645f7063,rev?*%
%TF.SameCoordinates,Original*%
%TF.FileFunction,Legend,Top*%
%TF.FilePolarity,Positive*%
%FSLAX46Y46*%
G04 Gerber Fmt 4.6, Leading zero omitted, Abs format (unit mm)*
G04 Created by KiCad (PCBNEW 8.0.5) date 2024-12-03 21:08:25*
%MOMM*%
%LPD*%
G01*
G04 APERTURE LIST*
%ADD10C,0.150000*%
%ADD11C,0.100000*%
%ADD12C,0.120000*%
G04 APERTURE END LIST*
D10*
X136498095Y-63824819D02*
X136498095Y-64634342D01*
X136498095Y-64634342D02*
X136545714Y-64729580D01*
X136545714Y-64729580D02*
X136593333Y-64777200D01*
X136593333Y-64777200D02*
X136688571Y-64824819D01*
X136688571Y-64824819D02*
X136879047Y-64824819D01*
X136879047Y-64824819D02*
X136974285Y-64777200D01*
X136974285Y-64777200D02*
X137021904Y-64729580D01*
X137021904Y-64729580D02*
X137069523Y-64634342D01*
X137069523Y-64634342D02*
X137069523Y-63824819D01*
X138069523Y-64824819D02*
X137498095Y-64824819D01*
X137783809Y-64824819D02*
X137783809Y-63824819D01*
X137783809Y-63824819D02*
X137688571Y-63967676D01*
X137688571Y-63967676D02*
X137593333Y-64062914D01*
X137593333Y-64062914D02*
X137498095Y-64110533D01*
X165166667Y-68787200D02*
X165309524Y-68834819D01*
X165309524Y-68834819D02*
X165547619Y-68834819D01*
X165547619Y-68834819D02*
X165642857Y-68787200D01*
X165642857Y-68787200D02*
X165690476Y-68739580D01*
X165690476Y-68739580D02*
X165738095Y-68644342D01*
X165738095Y-68644342D02*
X165738095Y-68549104D01*
X165738095Y-68549104D02*
X165690476Y-68453866D01*
X165690476Y-68453866D02*
X165642857Y-68406247D01*
X165642857Y-68406247D02*
X165547619Y-68358628D01*
X165547619Y-68358628D02*
X165357143Y-68311009D01*
X165357143Y-68311009D02*
X165261905Y-68263390D01*
X165261905Y-68263390D02*
X165214286Y-68215771D01*
X165214286Y-68215771D02*
X165166667Y-68120533D01*
X165166667Y-68120533D02*
X165166667Y-68025295D01*
X165166667Y-68025295D02*
X165214286Y-67930057D01*
X165214286Y-67930057D02*
X165261905Y-67882438D01*
X165261905Y-67882438D02*
X165357143Y-67834819D01*
X165357143Y-67834819D02*
X165595238Y-67834819D01*
X165595238Y-67834819D02*
X165738095Y-67882438D01*
X166071429Y-67834819D02*
X166309524Y-68834819D01*
X166309524Y-68834819D02*
X166500000Y-68120533D01*
X166500000Y-68120533D02*
X166690476Y-68834819D01*
X166690476Y-68834819D02*
X166928572Y-67834819D01*
X167833333Y-68834819D02*
X167261905Y-68834819D01*
X167547619Y-68834819D02*
X167547619Y-67834819D01*
X167547619Y-67834819D02*
X167452381Y-67977676D01*
X167452381Y-67977676D02*
X167357143Y-68072914D01*
X167357143Y-68072914D02*
X167261905Y-68120533D01*
X153574819Y-63166666D02*
X153098628Y-63499999D01*
X153574819Y-63738094D02*
X152574819Y-63738094D01*
X152574819Y-63738094D02*
X152574819Y-63357142D01*
X152574819Y-63357142D02*
X152622438Y-63261904D01*
X152622438Y-63261904D02*
X152670057Y-63214285D01*
X152670057Y-63214285D02*
X152765295Y-63166666D01*
X152765295Y-63166666D02*
X152908152Y-63166666D01*
X152908152Y-63166666D02*
X153003390Y-63214285D01*
X153003390Y-63214285D02*
X153051009Y-63261904D01*
X153051009Y-63261904D02*
X153098628Y-63357142D01*
X153098628Y-63357142D02*
X153098628Y-63738094D01*
X152670057Y-62785713D02*
X152622438Y-62738094D01*
X152622438Y-62738094D02*
X152574819Y-62642856D01*
X152574819Y-62642856D02*
X152574819Y-62404761D01*
X152574819Y-62404761D02*
X152622438Y-62309523D01*
X152622438Y-62309523D02*
X152670057Y-62261904D01*
X152670057Y-62261904D02*
X152765295Y-62214285D01*
X152765295Y-62214285D02*
X152860533Y-62214285D01*
X152860533Y-62214285D02*
X153003390Y-62261904D01*
X153003390Y-62261904D02*
X153574819Y-62833332D01*
X153574819Y-62833332D02*
X153574819Y-62214285D01*
X137083333Y-63574819D02*
X136750000Y-63098628D01*
X136511905Y-63574819D02*
X136511905Y-62574819D01*
X136511905Y-62574819D02*
X136892857Y-62574819D01*
X136892857Y-62574819D02*
X136988095Y-62622438D01*
X136988095Y-62622438D02*
X137035714Y-62670057D01*
X137035714Y-62670057D02*
X137083333Y-62765295D01*
X137083333Y-62765295D02*
X137083333Y-62908152D01*
X137083333Y-62908152D02*
X137035714Y-63003390D01*
X137035714Y-63003390D02*
X136988095Y-63051009D01*
X136988095Y-63051009D02*
X136892857Y-63098628D01*
X136892857Y-63098628D02*
X136511905Y-63098628D01*
X138035714Y-63574819D02*
X137464286Y-63574819D01*
X137750000Y-63574819D02*
X137750000Y-62574819D01*
X137750000Y-62574819D02*
X137654762Y-62717676D01*
X137654762Y-62717676D02*
X137559524Y-62812914D01*
X137559524Y-62812914D02*
X137464286Y-62860533D01*
X113001008Y-103448096D02*
X113708115Y-102740990D01*
X113708115Y-102740990D02*
X113876474Y-102909348D01*
X113876474Y-102909348D02*
X113943817Y-103044035D01*
X113943817Y-103044035D02*
X113943817Y-103178722D01*
X113943817Y-103178722D02*
X113910145Y-103279738D01*
X113910145Y-103279738D02*
X113809130Y-103448096D01*
X113809130Y-103448096D02*
X113708115Y-103549112D01*
X113708115Y-103549112D02*
X113539756Y-103650127D01*
X113539756Y-103650127D02*
X113438741Y-103683799D01*
X113438741Y-103683799D02*
X113304054Y-103683799D01*
X113304054Y-103683799D02*
X113169367Y-103616455D01*
X113169367Y-103616455D02*
X113001008Y-103448096D01*
X114213191Y-103852157D02*
X114179519Y-103751142D01*
X114179519Y-103751142D02*
X114179519Y-103683799D01*
X114179519Y-103683799D02*
X114213191Y-103582783D01*
X114213191Y-103582783D02*
X114246863Y-103549112D01*
X114246863Y-103549112D02*
X114347878Y-103515440D01*
X114347878Y-103515440D02*
X114415222Y-103515440D01*
X114415222Y-103515440D02*
X114516237Y-103549112D01*
X114516237Y-103549112D02*
X114650924Y-103683799D01*
X114650924Y-103683799D02*
X114684596Y-103784814D01*
X114684596Y-103784814D02*
X114684596Y-103852157D01*
X114684596Y-103852157D02*
X114650924Y-103953173D01*
X114650924Y-103953173D02*
X114617252Y-103986844D01*
X114617252Y-103986844D02*
X114516237Y-104020516D01*
X114516237Y-104020516D02*
X114448893Y-104020516D01*
X114448893Y-104020516D02*
X114347878Y-103986844D01*
X114347878Y-103986844D02*
X114213191Y-103852157D01*
X114213191Y-103852157D02*
X114112176Y-103818486D01*
X114112176Y-103818486D02*
X114044832Y-103818486D01*
X114044832Y-103818486D02*
X113943817Y-103852157D01*
X113943817Y-103852157D02*
X113809130Y-103986844D01*
X113809130Y-103986844D02*
X113775458Y-104087860D01*
X113775458Y-104087860D02*
X113775458Y-104155203D01*
X113775458Y-104155203D02*
X113809130Y-104256218D01*
X113809130Y-104256218D02*
X113943817Y-104390905D01*
X113943817Y-104390905D02*
X114044832Y-104424577D01*
X114044832Y-104424577D02*
X114112176Y-104424577D01*
X114112176Y-104424577D02*
X114213191Y-104390905D01*
X114213191Y-104390905D02*
X114347878Y-104256218D01*
X114347878Y-104256218D02*
X114381550Y-104155203D01*
X114381550Y-104155203D02*
X114381550Y-104087860D01*
X114381550Y-104087860D02*
X114347878Y-103986844D01*
X107214819Y-81483094D02*
X106214819Y-81483094D01*
X106214819Y-81483094D02*
X106214819Y-81244999D01*
X106214819Y-81244999D02*
X106262438Y-81102142D01*
X106262438Y-81102142D02*
X106357676Y-81006904D01*
X106357676Y-81006904D02*
X106452914Y-80959285D01*
X106452914Y-80959285D02*
X106643390Y-80911666D01*
X106643390Y-80911666D02*
X106786247Y-80911666D01*
X106786247Y-80911666D02*
X106976723Y-80959285D01*
X106976723Y-80959285D02*
X107071961Y-81006904D01*
X107071961Y-81006904D02*
X107167200Y-81102142D01*
X107167200Y-81102142D02*
X107214819Y-81244999D01*
X107214819Y-81244999D02*
X107214819Y-81483094D01*
X106214819Y-80578332D02*
X106214819Y-79911666D01*
X106214819Y-79911666D02*
X107214819Y-80340237D01*
X136266905Y-52714819D02*
X136266905Y-51714819D01*
X136266905Y-51714819D02*
X136505000Y-51714819D01*
X136505000Y-51714819D02*
X136647857Y-51762438D01*
X136647857Y-51762438D02*
X136743095Y-51857676D01*
X136743095Y-51857676D02*
X136790714Y-51952914D01*
X136790714Y-51952914D02*
X136838333Y-52143390D01*
X136838333Y-52143390D02*
X136838333Y-52286247D01*
X136838333Y-52286247D02*
X136790714Y-52476723D01*
X136790714Y-52476723D02*
X136743095Y-52571961D01*
X136743095Y-52571961D02*
X136647857Y-52667200D01*
X136647857Y-52667200D02*
X136505000Y-52714819D01*
X136505000Y-52714819D02*
X136266905Y-52714819D01*
X137695476Y-51714819D02*
X137505000Y-51714819D01*
X137505000Y-51714819D02*
X137409762Y-51762438D01*
X137409762Y-51762438D02*
X137362143Y-51810057D01*
X137362143Y-51810057D02*
X137266905Y-51952914D01*
X137266905Y-51952914D02*
X137219286Y-52143390D01*
X137219286Y-52143390D02*
X137219286Y-52524342D01*
X137219286Y-52524342D02*
X137266905Y-52619580D01*
X137266905Y-52619580D02*
X137314524Y-52667200D01*
X137314524Y-52667200D02*
X137409762Y-52714819D01*
X137409762Y-52714819D02*
X137600238Y-52714819D01*
X137600238Y-52714819D02*
X137695476Y-52667200D01*
X137695476Y-52667200D02*
X137743095Y-52619580D01*
X137743095Y-52619580D02*
X137790714Y-52524342D01*
X137790714Y-52524342D02*
X137790714Y-52286247D01*
X137790714Y-52286247D02*
X137743095Y-52191009D01*
X137743095Y-52191009D02*
X137695476Y-52143390D01*
X137695476Y-52143390D02*
X137600238Y-52095771D01*
X137600238Y-52095771D02*
X137409762Y-52095771D01*
X137409762Y-52095771D02*
X137314524Y-52143390D01*
X137314524Y-52143390D02*
X137266905Y-52191009D01*
X137266905Y-52191009D02*
X137219286Y-52286247D01*
X114249729Y-61839604D02*
X113542623Y-61132497D01*
X113542623Y-61132497D02*
X113710981Y-60964138D01*
X113710981Y-60964138D02*
X113845668Y-60896795D01*
X113845668Y-60896795D02*
X113980355Y-60896795D01*
X113980355Y-60896795D02*
X114081371Y-60930467D01*
X114081371Y-60930467D02*
X114249729Y-61031482D01*
X114249729Y-61031482D02*
X114350745Y-61132497D01*
X114350745Y-61132497D02*
X114451760Y-61300856D01*
X114451760Y-61300856D02*
X114485432Y-61401871D01*
X114485432Y-61401871D02*
X114485432Y-61536558D01*
X114485432Y-61536558D02*
X114418088Y-61671245D01*
X114418088Y-61671245D02*
X114249729Y-61839604D01*
X114586447Y-60088673D02*
X114249729Y-60425390D01*
X114249729Y-60425390D02*
X114552775Y-60795780D01*
X114552775Y-60795780D02*
X114552775Y-60728436D01*
X114552775Y-60728436D02*
X114586447Y-60627421D01*
X114586447Y-60627421D02*
X114754806Y-60459062D01*
X114754806Y-60459062D02*
X114855821Y-60425390D01*
X114855821Y-60425390D02*
X114923164Y-60425390D01*
X114923164Y-60425390D02*
X115024180Y-60459062D01*
X115024180Y-60459062D02*
X115192538Y-60627421D01*
X115192538Y-60627421D02*
X115226210Y-60728436D01*
X115226210Y-60728436D02*
X115226210Y-60795780D01*
X115226210Y-60795780D02*
X115192538Y-60896795D01*
X115192538Y-60896795D02*
X115024180Y-61065154D01*
X115024180Y-61065154D02*
X114923164Y-61098825D01*
X114923164Y-61098825D02*
X114855821Y-61098825D01*
X161652569Y-58099657D02*
X162359676Y-57392551D01*
X162359676Y-57392551D02*
X162528035Y-57560909D01*
X162528035Y-57560909D02*
X162595378Y-57695596D01*
X162595378Y-57695596D02*
X162595378Y-57830283D01*
X162595378Y-57830283D02*
X162561706Y-57931299D01*
X162561706Y-57931299D02*
X162460691Y-58099657D01*
X162460691Y-58099657D02*
X162359676Y-58200673D01*
X162359676Y-58200673D02*
X162191317Y-58301688D01*
X162191317Y-58301688D02*
X162090302Y-58335360D01*
X162090302Y-58335360D02*
X161955615Y-58335360D01*
X161955615Y-58335360D02*
X161820928Y-58268016D01*
X161820928Y-58268016D02*
X161652569Y-58099657D01*
X163134126Y-58638405D02*
X162662722Y-59109810D01*
X163235141Y-58200673D02*
X162561706Y-58537390D01*
X162561706Y-58537390D02*
X162999439Y-58975123D01*
X163651291Y-106438043D02*
X162944185Y-105730936D01*
X162944185Y-105730936D02*
X163112543Y-105562577D01*
X163112543Y-105562577D02*
X163247230Y-105495234D01*
X163247230Y-105495234D02*
X163381917Y-105495234D01*
X163381917Y-105495234D02*
X163482933Y-105528906D01*
X163482933Y-105528906D02*
X163651291Y-105629921D01*
X163651291Y-105629921D02*
X163752307Y-105730936D01*
X163752307Y-105730936D02*
X163853322Y-105899295D01*
X163853322Y-105899295D02*
X163886994Y-106000310D01*
X163886994Y-106000310D02*
X163886994Y-106134997D01*
X163886994Y-106134997D02*
X163819650Y-106269684D01*
X163819650Y-106269684D02*
X163651291Y-106438043D01*
X163583948Y-105091173D02*
X164021681Y-104653440D01*
X164021681Y-104653440D02*
X164055352Y-105158516D01*
X164055352Y-105158516D02*
X164156368Y-105057501D01*
X164156368Y-105057501D02*
X164257383Y-105023829D01*
X164257383Y-105023829D02*
X164324726Y-105023829D01*
X164324726Y-105023829D02*
X164425742Y-105057501D01*
X164425742Y-105057501D02*
X164594100Y-105225860D01*
X164594100Y-105225860D02*
X164627772Y-105326875D01*
X164627772Y-105326875D02*
X164627772Y-105394219D01*
X164627772Y-105394219D02*
X164594100Y-105495234D01*
X164594100Y-105495234D02*
X164392070Y-105697264D01*
X164392070Y-105697264D02*
X164291055Y-105730936D01*
X164291055Y-105730936D02*
X164223711Y-105730936D01*
X136531905Y-117714819D02*
X136531905Y-116714819D01*
X136531905Y-116714819D02*
X136770000Y-116714819D01*
X136770000Y-116714819D02*
X136912857Y-116762438D01*
X136912857Y-116762438D02*
X137008095Y-116857676D01*
X137008095Y-116857676D02*
X137055714Y-116952914D01*
X137055714Y-116952914D02*
X137103333Y-117143390D01*
X137103333Y-117143390D02*
X137103333Y-117286247D01*
X137103333Y-117286247D02*
X137055714Y-117476723D01*
X137055714Y-117476723D02*
X137008095Y-117571961D01*
X137008095Y-117571961D02*
X136912857Y-117667200D01*
X136912857Y-117667200D02*
X136770000Y-117714819D01*
X136770000Y-117714819D02*
X136531905Y-117714819D01*
X137484286Y-116810057D02*
X137531905Y-116762438D01*
X137531905Y-116762438D02*
X137627143Y-116714819D01*
X137627143Y-116714819D02*
X137865238Y-116714819D01*
X137865238Y-116714819D02*
X137960476Y-116762438D01*
X137960476Y-116762438D02*
X138008095Y-116810057D01*
X138008095Y-116810057D02*
X138055714Y-116905295D01*
X138055714Y-116905295D02*
X138055714Y-117000533D01*
X138055714Y-117000533D02*
X138008095Y-117143390D01*
X138008095Y-117143390D02*
X137436667Y-117714819D01*
X137436667Y-117714819D02*
X138055714Y-117714819D01*
X171964819Y-81483094D02*
X170964819Y-81483094D01*
X170964819Y-81483094D02*
X170964819Y-81244999D01*
X170964819Y-81244999D02*
X171012438Y-81102142D01*
X171012438Y-81102142D02*
X171107676Y-81006904D01*
X171107676Y-81006904D02*
X171202914Y-80959285D01*
X171202914Y-80959285D02*
X171393390Y-80911666D01*
X171393390Y-80911666D02*
X171536247Y-80911666D01*
X171536247Y-80911666D02*
X171726723Y-80959285D01*
X171726723Y-80959285D02*
X171821961Y-81006904D01*
X171821961Y-81006904D02*
X171917200Y-81102142D01*
X171917200Y-81102142D02*
X171964819Y-81244999D01*
X171964819Y-81244999D02*
X171964819Y-81483094D01*
X171964819Y-79959285D02*
X171964819Y-80530713D01*
X171964819Y-80244999D02*
X170964819Y-80244999D01*
X170964819Y-80244999D02*
X171107676Y-80340237D01*
X171107676Y-80340237D02*
X171202914Y-80435475D01*
X171202914Y-80435475D02*
X171250533Y-80530713D01*
X154609580Y-76166666D02*
X154657200Y-76214285D01*
X154657200Y-76214285D02*
X154704819Y-76357142D01*
X154704819Y-76357142D02*
X154704819Y-76452380D01*
X154704819Y-76452380D02*
X154657200Y-76595237D01*
X154657200Y-76595237D02*
X154561961Y-76690475D01*
X154561961Y-76690475D02*
X154466723Y-76738094D01*
X154466723Y-76738094D02*
X154276247Y-76785713D01*
X154276247Y-76785713D02*
X154133390Y-76785713D01*
X154133390Y-76785713D02*
X153942914Y-76738094D01*
X153942914Y-76738094D02*
X153847676Y-76690475D01*
X153847676Y-76690475D02*
X153752438Y-76595237D01*
X153752438Y-76595237D02*
X153704819Y-76452380D01*
X153704819Y-76452380D02*
X153704819Y-76357142D01*
X153704819Y-76357142D02*
X153752438Y-76214285D01*
X153752438Y-76214285D02*
X153800057Y-76166666D01*
X153800057Y-75785713D02*
X153752438Y-75738094D01*
X153752438Y-75738094D02*
X153704819Y-75642856D01*
X153704819Y-75642856D02*
X153704819Y-75404761D01*
X153704819Y-75404761D02*
X153752438Y-75309523D01*
X153752438Y-75309523D02*
X153800057Y-75261904D01*
X153800057Y-75261904D02*
X153895295Y-75214285D01*
X153895295Y-75214285D02*
X153990533Y-75214285D01*
X153990533Y-75214285D02*
X154133390Y-75261904D01*
X154133390Y-75261904D02*
X154704819Y-75833332D01*
X154704819Y-75833332D02*
X154704819Y-75214285D01*
X137083333Y-82859580D02*
X137035714Y-82907200D01*
X137035714Y-82907200D02*
X136892857Y-82954819D01*
X136892857Y-82954819D02*
X136797619Y-82954819D01*
X136797619Y-82954819D02*
X136654762Y-82907200D01*
X136654762Y-82907200D02*
X136559524Y-82811961D01*
X136559524Y-82811961D02*
X136511905Y-82716723D01*
X136511905Y-82716723D02*
X136464286Y-82526247D01*
X136464286Y-82526247D02*
X136464286Y-82383390D01*
X136464286Y-82383390D02*
X136511905Y-82192914D01*
X136511905Y-82192914D02*
X136559524Y-82097676D01*
X136559524Y-82097676D02*
X136654762Y-82002438D01*
X136654762Y-82002438D02*
X136797619Y-81954819D01*
X136797619Y-81954819D02*
X136892857Y-81954819D01*
X136892857Y-81954819D02*
X137035714Y-82002438D01*
X137035714Y-82002438D02*
X137083333Y-82050057D01*
X138035714Y-82954819D02*
X137464286Y-82954819D01*
X137750000Y-82954819D02*
X137750000Y-81954819D01*
X137750000Y-81954819D02*
X137654762Y-82097676D01*
X137654762Y-82097676D02*
X137559524Y-82192914D01*
X137559524Y-82192914D02*
X137464286Y-82240533D01*
X112789104Y-93954285D02*
X112789104Y-93478095D01*
X113074819Y-94049523D02*
X112074819Y-93716190D01*
X112074819Y-93716190D02*
X113074819Y-93382857D01*
X113074819Y-92525714D02*
X113074819Y-93097142D01*
X113074819Y-92811428D02*
X112074819Y-92811428D01*
X112074819Y-92811428D02*
X112217676Y-92906666D01*
X112217676Y-92906666D02*
X112312914Y-93001904D01*
X112312914Y-93001904D02*
X112360533Y-93097142D01*
X152714819Y-94501904D02*
X153524342Y-94501904D01*
X153524342Y-94501904D02*
X153619580Y-94454285D01*
X153619580Y-94454285D02*
X153667200Y-94406666D01*
X153667200Y-94406666D02*
X153714819Y-94311428D01*
X153714819Y-94311428D02*
X153714819Y-94120952D01*
X153714819Y-94120952D02*
X153667200Y-94025714D01*
X153667200Y-94025714D02*
X153619580Y-93978095D01*
X153619580Y-93978095D02*
X153524342Y-93930476D01*
X153524342Y-93930476D02*
X152714819Y-93930476D01*
X153667200Y-93501904D02*
X153714819Y-93359047D01*
X153714819Y-93359047D02*
X153714819Y-93120952D01*
X153714819Y-93120952D02*
X153667200Y-93025714D01*
X153667200Y-93025714D02*
X153619580Y-92978095D01*
X153619580Y-92978095D02*
X153524342Y-92930476D01*
X153524342Y-92930476D02*
X153429104Y-92930476D01*
X153429104Y-92930476D02*
X153333866Y-92978095D01*
X153333866Y-92978095D02*
X153286247Y-93025714D01*
X153286247Y-93025714D02*
X153238628Y-93120952D01*
X153238628Y-93120952D02*
X153191009Y-93311428D01*
X153191009Y-93311428D02*
X153143390Y-93406666D01*
X153143390Y-93406666D02*
X153095771Y-93454285D01*
X153095771Y-93454285D02*
X153000533Y-93501904D01*
X153000533Y-93501904D02*
X152905295Y-93501904D01*
X152905295Y-93501904D02*
X152810057Y-93454285D01*
X152810057Y-93454285D02*
X152762438Y-93406666D01*
X152762438Y-93406666D02*
X152714819Y-93311428D01*
X152714819Y-93311428D02*
X152714819Y-93073333D01*
X152714819Y-93073333D02*
X152762438Y-92930476D01*
X153191009Y-92168571D02*
X153238628Y-92025714D01*
X153238628Y-92025714D02*
X153286247Y-91978095D01*
X153286247Y-91978095D02*
X153381485Y-91930476D01*
X153381485Y-91930476D02*
X153524342Y-91930476D01*
X153524342Y-91930476D02*
X153619580Y-91978095D01*
X153619580Y-91978095D02*
X153667200Y-92025714D01*
X153667200Y-92025714D02*
X153714819Y-92120952D01*
X153714819Y-92120952D02*
X153714819Y-92501904D01*
X153714819Y-92501904D02*
X152714819Y-92501904D01*
X152714819Y-92501904D02*
X152714819Y-92168571D01*
X152714819Y-92168571D02*
X152762438Y-92073333D01*
X152762438Y-92073333D02*
X152810057Y-92025714D01*
X152810057Y-92025714D02*
X152905295Y-91978095D01*
X152905295Y-91978095D02*
X153000533Y-91978095D01*
X153000533Y-91978095D02*
X153095771Y-92025714D01*
X153095771Y-92025714D02*
X153143390Y-92073333D01*
X153143390Y-92073333D02*
X153191009Y-92168571D01*
X153191009Y-92168571D02*
X153191009Y-92501904D01*
D11*
%TO.C,J2*%
X143500000Y-59150000D02*
X143500000Y-54050000D01*
X143500000Y-54050000D02*
X151500000Y-54050000D01*
X151500000Y-54050000D02*
X151500000Y-59150000D01*
X151500000Y-59150001D02*
G75*
G02*
X143500000Y-59150001I-4000000J-9199999D01*
G01*
%TO.C,J1*%
X117750000Y-59900000D02*
X117750000Y-54800000D01*
X117750000Y-54800000D02*
X125750000Y-54800000D01*
X125750000Y-54800000D02*
X125750000Y-59900000D01*
X125750000Y-59900001D02*
G75*
G02*
X117750000Y-59900001I-4000000J-9199999D01*
G01*
D12*
%TO.C,U1*%
X134610000Y-65370000D02*
X134610000Y-75650000D01*
X134610000Y-75650000D02*
X139910000Y-75650000D01*
X136260000Y-65370000D02*
X134610000Y-65370000D01*
X139910000Y-65370000D02*
X138260000Y-65370000D01*
X139910000Y-75650000D02*
X139910000Y-65370000D01*
X138260000Y-65370000D02*
G75*
G02*
X136260000Y-65370000I-1000000J0D01*
G01*
%TO.C,SW1*%
X165170000Y-69380000D02*
X166500000Y-69380000D01*
X165170000Y-70710000D02*
X165170000Y-69380000D01*
X165170000Y-71980000D02*
X165170000Y-74580000D01*
X165170000Y-71980000D02*
X167830000Y-71980000D01*
X165170000Y-74580000D02*
X167830000Y-74580000D01*
X167830000Y-71980000D02*
X167830000Y-74580000D01*
%TO.C,R2*%
X152120000Y-59730000D02*
X152120000Y-66270000D01*
X151790000Y-59730000D02*
X152120000Y-59730000D01*
X149710000Y-59730000D02*
X149380000Y-59730000D01*
X149380000Y-59730000D02*
X149380000Y-66270000D01*
X152120000Y-66270000D02*
X151790000Y-66270000D01*
X149380000Y-66270000D02*
X149710000Y-66270000D01*
%TO.C,R1*%
X140520000Y-62120000D02*
X133980000Y-62120000D01*
X140520000Y-61790000D02*
X140520000Y-62120000D01*
X140520000Y-59710000D02*
X140520000Y-59380000D01*
X140520000Y-59380000D02*
X133980000Y-59380000D01*
X133980000Y-62120000D02*
X133980000Y-61790000D01*
X133980000Y-59380000D02*
X133980000Y-59710000D01*
D11*
%TO.C,Q2*%
X136905125Y-107000000D02*
G75*
G02*
X129094875Y-107000000I-3905125J0D01*
G01*
X129094875Y-107000000D02*
G75*
G02*
X136905125Y-107000000I3905125J0D01*
G01*
D12*
%TO.C,D8*%
X112681335Y-107229899D02*
X112564663Y-107346572D01*
X114346572Y-105564663D02*
X114229899Y-105681335D01*
X110443342Y-104970693D02*
X110316063Y-105097972D01*
X112097972Y-103316063D02*
X111970693Y-103443342D01*
X110358490Y-104885840D02*
X110231210Y-105013119D01*
X112013119Y-103231210D02*
X111885840Y-103358490D01*
X110146357Y-104928267D02*
X112564663Y-107346572D01*
X110273637Y-104800987D02*
X110146357Y-104928267D01*
X111928267Y-103146357D02*
X114346572Y-105564663D01*
X111928267Y-103146357D02*
X111800987Y-103273637D01*
%TO.C,D7*%
X105760000Y-79035000D02*
X105580000Y-79035000D01*
X105760000Y-79035000D02*
X105760000Y-82455000D01*
X103420000Y-79035000D02*
X103240000Y-79035000D01*
X103240000Y-79035000D02*
X103240000Y-82455000D01*
X105760000Y-79155000D02*
X105580000Y-79155000D01*
X103420000Y-79155000D02*
X103240000Y-79155000D01*
X105760000Y-79275000D02*
X105580000Y-79275000D01*
X103420000Y-79275000D02*
X103240000Y-79275000D01*
X105760000Y-82455000D02*
X105595000Y-82455000D01*
X103405000Y-82455000D02*
X103240000Y-82455000D01*
%TO.C,D6*%
X138715000Y-51260000D02*
X138715000Y-51080000D01*
X138715000Y-51260000D02*
X135295000Y-51260000D01*
X138715000Y-48920000D02*
X138715000Y-48740000D01*
X138715000Y-48740000D02*
X135295000Y-48740000D01*
X138595000Y-51260000D02*
X138595000Y-51080000D01*
X138595000Y-48920000D02*
X138595000Y-48740000D01*
X138475000Y-51260000D02*
X138475000Y-51080000D01*
X138475000Y-48920000D02*
X138475000Y-48740000D01*
X135295000Y-51260000D02*
X135295000Y-51095000D01*
X135295000Y-48905000D02*
X135295000Y-48740000D01*
%TO.C,D5*%
X114952082Y-59079828D02*
X114824802Y-58952548D01*
X114952082Y-59079828D02*
X112533776Y-61498133D01*
X113297452Y-57425198D02*
X113170172Y-57297918D01*
X113170172Y-57297918D02*
X110751867Y-59716224D01*
X114867229Y-59164680D02*
X114739949Y-59037401D01*
X113212599Y-57510051D02*
X113085320Y-57382771D01*
X114782376Y-59249533D02*
X114655097Y-59122254D01*
X113127746Y-57594903D02*
X113000467Y-57467624D01*
X112533776Y-61498133D02*
X112417104Y-61381460D01*
X110868540Y-59832896D02*
X110751867Y-59716224D01*
%TO.C,D4*%
X160579828Y-57797918D02*
X160452548Y-57925198D01*
X160579828Y-57797918D02*
X162998133Y-60216224D01*
X158925198Y-59452548D02*
X158797918Y-59579828D01*
X158797918Y-59579828D02*
X161216224Y-61998133D01*
X160664680Y-57882771D02*
X160537401Y-58010051D01*
X159010051Y-59537401D02*
X158882771Y-59664680D01*
X160749533Y-57967624D02*
X160622254Y-58094903D01*
X159094903Y-59622254D02*
X158967624Y-59749533D01*
X162998133Y-60216224D02*
X162881460Y-60332896D01*
X161332896Y-61881460D02*
X161216224Y-61998133D01*
%TO.C,D3*%
X164353644Y-103678267D02*
X164226364Y-103550987D01*
X164353644Y-103678267D02*
X161935338Y-106096572D01*
X162699014Y-102023637D02*
X162571734Y-101896357D01*
X162571734Y-101896357D02*
X160153429Y-104314663D01*
X164268791Y-103763119D02*
X164141511Y-103635840D01*
X162614161Y-102108490D02*
X162486882Y-101981210D01*
X164183938Y-103847972D02*
X164056659Y-103720693D01*
X162529308Y-102193342D02*
X162402029Y-102066063D01*
X161935338Y-106096572D02*
X161818666Y-105979899D01*
X160270102Y-104431335D02*
X160153429Y-104314663D01*
%TO.C,D2*%
X138980000Y-116260000D02*
X138980000Y-116080000D01*
X138980000Y-116260000D02*
X135560000Y-116260000D01*
X138980000Y-113920000D02*
X138980000Y-113740000D01*
X138980000Y-113740000D02*
X135560000Y-113740000D01*
X138860000Y-116260000D02*
X138860000Y-116080000D01*
X138860000Y-113920000D02*
X138860000Y-113740000D01*
X138740000Y-116260000D02*
X138740000Y-116080000D01*
X138740000Y-113920000D02*
X138740000Y-113740000D01*
X135560000Y-116260000D02*
X135560000Y-116095000D01*
X135560000Y-113905000D02*
X135560000Y-113740000D01*
%TO.C,D1*%
X170510000Y-79035000D02*
X170330000Y-79035000D01*
X170510000Y-79035000D02*
X170510000Y-82455000D01*
X168170000Y-79035000D02*
X167990000Y-79035000D01*
X167990000Y-79035000D02*
X167990000Y-82455000D01*
X170510000Y-79155000D02*
X170330000Y-79155000D01*
X168170000Y-79155000D02*
X167990000Y-79155000D01*
X170510000Y-79275000D02*
X170330000Y-79275000D01*
X168170000Y-79275000D02*
X167990000Y-79275000D01*
X170510000Y-82455000D02*
X170345000Y-82455000D01*
X168155000Y-82455000D02*
X167990000Y-82455000D01*
%TO.C,C2*%
X153120000Y-73530000D02*
X152805000Y-73530000D01*
X153120000Y-73530000D02*
X153120000Y-78470000D01*
X150695000Y-73530000D02*
X150380000Y-73530000D01*
X150380000Y-73530000D02*
X150380000Y-78470000D01*
X153120000Y-78470000D02*
X152805000Y-78470000D01*
X150695000Y-78470000D02*
X150380000Y-78470000D01*
%TO.C,C1*%
X139720000Y-81370000D02*
X139720000Y-81055000D01*
X139720000Y-81370000D02*
X134780000Y-81370000D01*
X139720000Y-78945000D02*
X139720000Y-78630000D01*
X139720000Y-78630000D02*
X134780000Y-78630000D01*
X134780000Y-81370000D02*
X134780000Y-81055000D01*
X134780000Y-78945000D02*
X134780000Y-78630000D01*
%TO.C,A1*%
X113760000Y-102260000D02*
X116430000Y-102260000D01*
X118970000Y-102260000D02*
X157200000Y-102260000D01*
X157200000Y-102260000D02*
X157200000Y-97180000D01*
X116430000Y-99590000D02*
X116430000Y-102260000D01*
X118970000Y-99590000D02*
X118970000Y-102260000D01*
X118970000Y-99590000D02*
X116430000Y-99590000D01*
X118970000Y-99590000D02*
X154530000Y-99590000D01*
X154530000Y-99590000D02*
X154530000Y-102260000D01*
X149320000Y-97180000D02*
X149320000Y-89300000D01*
X159740000Y-97180000D02*
X149320000Y-97180000D01*
X149320000Y-89300000D02*
X159740000Y-89300000D01*
X159740000Y-89300000D02*
X159740000Y-97180000D01*
X116430000Y-86890000D02*
X154530000Y-86890000D01*
X116430000Y-86890000D02*
X116430000Y-84220000D01*
X154530000Y-86890000D02*
X154530000Y-84220000D01*
X113760000Y-84220000D02*
X113760000Y-102260000D01*
X157200000Y-84220000D02*
X157200000Y-89300000D01*
X157200000Y-84220000D02*
X113760000Y-84220000D01*
%TD*%
M02*
