M48
; DRILL file {KiCad 8.0.5} date 2024-12-03T21:08:26+0900
; FORMAT={-:-/ absolute / inch / decimal}
; #@! TF.CreationDate,2024-12-03T21:08:26+09:00
; #@! TF.GenerationSoftware,Kicad,Pcbnew,8.0.5
; #@! TF.FileFunction,Plated,1,2,PTH
FMAT,2
INCH
; #@! TA.AperFunction,Plated,PTH,ViaDrill
T1C0.0118
; #@! TA.AperFunction,Plated,PTH,ComponentDrill
T2C0.0315
; #@! TA.AperFunction,Plated,PTH,ComponentDrill
T3C0.0354
; #@! TA.AperFunction,Plated,PTH,ComponentDrill
T4C0.0394
; #@! TA.AperFunction,Plated,PTH,ComponentDrill
T5C0.0472
; #@! TA.AperFunction,Plated,PTH,ComponentDrill
T6C0.0551
%
G90
G05
T1
X4.3307Y-2.7756
X4.5965Y-2.6772
X5.4439Y-2.1161
X6.4173Y-3.878
T2
X5.2535Y-2.3917
X5.2539Y-2.626
X5.2539Y-2.726
X5.2539Y-2.826
X5.2539Y-2.926
X5.3051Y-3.1496
X5.502Y-3.1496
X5.5535Y-2.3917
X5.5539Y-2.626
X5.5539Y-2.726
X5.5539Y-2.826
X5.5539Y-2.926
X5.935Y-2.3303
X5.935Y-2.6303
X5.9744Y-2.8937
X5.9744Y-3.0906
T3
X4.1142Y-3.1289
X4.1142Y-3.2289
X4.3838Y-4.1082
X4.4076Y-2.3739
X4.4545Y-4.1789
X4.4783Y-2.3031
X5.3439Y-1.9685
X5.3543Y-4.5276
X5.4439Y-1.9685
X5.4543Y-4.5276
X6.2992Y-2.3228
X6.3526Y-4.1297
X6.3699Y-2.3935
X6.4233Y-4.059
X6.6634Y-3.1289
X6.6634Y-3.2289
T4
X4.6339Y-3.3709
X4.6339Y-3.9709
X4.7339Y-3.3709
X4.7339Y-3.9709
X4.8339Y-3.3709
X4.8339Y-3.9709
X4.9339Y-3.3709
X4.9339Y-3.9709
X5.0339Y-3.3709
X5.0339Y-3.9709
X5.1339Y-3.3709
X5.1339Y-3.9709
X5.2339Y-3.3709
X5.2339Y-3.9709
X5.3339Y-3.3709
X5.3339Y-3.9709
X5.4339Y-3.3709
X5.4339Y-3.9709
X5.5339Y-3.3709
X5.5339Y-3.9709
X5.6339Y-3.3709
X5.6339Y-3.9709
X5.7339Y-3.3709
X5.7339Y-3.9709
X5.8339Y-3.3709
X5.8339Y-3.9709
X5.9339Y-3.3709
X5.9339Y-3.9709
X6.0339Y-3.3709
X6.0339Y-3.9709
X6.5551Y-2.7839
X6.5551Y-2.8839
T5
X5.1362Y-4.2126
X5.2362Y-4.2126
X5.3362Y-4.2126
T6
X4.7933Y-2.2441
X4.7933Y-3.0315
X5.8071Y-2.2146
X5.8071Y-3.002
M30
