%TF.GenerationSoftware,KiCad,Pcbnew,8.0.5*%
%TF.CreationDate,2024-12-03T21:08:25+09:00*%
%TF.ProjectId,IR_con,49525f63-6f6e-42e6-9b69-6361645f7063,rev?*%
%TF.SameCoordinates,Original*%
%TF.FileFunction,Soldermask,Bot*%
%TF.FilePolarity,Negative*%
%FSLAX46Y46*%
G04 Gerber Fmt 4.6, Leading zero omitted, Abs format (unit mm)*
G04 Created by KiCad (PCBNEW 8.0.5) date 2024-12-03 21:08:25*
%MOMM*%
%LPD*%
G01*
G04 APERTURE LIST*
G04 Aperture macros list*
%AMRotRect*
0 Rectangle, with rotation*
0 The origin of the aperture is its center*
0 $1 length*
0 $2 width*
0 $3 Rotation angle, in degrees counterclockwise*
0 Add horizontal line*
21,1,$1,$2,0,0,$3*%
G04 Aperture macros list end*
%ADD10C,2.286000*%
%ADD11R,1.600000X1.600000*%
%ADD12O,1.600000X1.600000*%
%ADD13R,1.700000X1.700000*%
%ADD14O,1.700000X1.700000*%
%ADD15C,1.600000*%
%ADD16C,2.000000*%
%ADD17C,1.800000*%
%ADD18RotRect,1.800000X1.800000X315.000000*%
%ADD19R,1.800000X1.800000*%
%ADD20RotRect,1.800000X1.800000X225.000000*%
G04 APERTURE END LIST*
D10*
%TO.C,J2*%
X147500000Y-56250000D03*
X147500000Y-76250000D03*
%TD*%
%TO.C,J1*%
X121750000Y-57000000D03*
X121750000Y-77000000D03*
%TD*%
D11*
%TO.C,U1*%
X133450000Y-66700000D03*
D12*
X133450000Y-69240000D03*
X133450000Y-71780000D03*
X133450000Y-74320000D03*
X141070000Y-74320000D03*
X141070000Y-71780000D03*
X141070000Y-69240000D03*
X141070000Y-66700000D03*
%TD*%
D13*
%TO.C,SW1*%
X166500000Y-70710000D03*
D14*
X166500000Y-73250000D03*
%TD*%
D15*
%TO.C,R2*%
X150750000Y-59190000D03*
D12*
X150750000Y-66810000D03*
%TD*%
D15*
%TO.C,R1*%
X141060000Y-60750000D03*
D12*
X133440000Y-60750000D03*
%TD*%
D16*
%TO.C,Q2*%
X135540000Y-107000000D03*
X133000000Y-107000000D03*
X130460000Y-107000000D03*
%TD*%
D17*
%TO.C,D8*%
X113144490Y-106144490D03*
D18*
X111348439Y-104348439D03*
%TD*%
D19*
%TO.C,D7*%
X104500000Y-79475000D03*
D17*
X104500000Y-82015000D03*
%TD*%
D19*
%TO.C,D6*%
X138275000Y-50000000D03*
D17*
X135735000Y-50000000D03*
%TD*%
D20*
%TO.C,D5*%
X113750000Y-58500000D03*
D17*
X111953949Y-60296051D03*
%TD*%
D18*
%TO.C,D4*%
X160000000Y-59000000D03*
D17*
X161796051Y-60796051D03*
%TD*%
D20*
%TO.C,D3*%
X163151562Y-103098439D03*
D17*
X161355511Y-104894490D03*
%TD*%
D19*
%TO.C,D2*%
X138540000Y-115000000D03*
D17*
X136000000Y-115000000D03*
%TD*%
D19*
%TO.C,D1*%
X169250000Y-79475000D03*
D17*
X169250000Y-82015000D03*
%TD*%
D15*
%TO.C,C2*%
X151750000Y-73500000D03*
X151750000Y-78500000D03*
%TD*%
%TO.C,C1*%
X139750000Y-80000000D03*
X134750000Y-80000000D03*
%TD*%
D11*
%TO.C,A1*%
X117700000Y-100860000D03*
D12*
X120240000Y-100860000D03*
X122780000Y-100860000D03*
X125320000Y-100860000D03*
X127860000Y-100860000D03*
X130400000Y-100860000D03*
X132940000Y-100860000D03*
X135480000Y-100860000D03*
X138020000Y-100860000D03*
X140560000Y-100860000D03*
X143100000Y-100860000D03*
X145640000Y-100860000D03*
X148180000Y-100860000D03*
X150720000Y-100860000D03*
X153260000Y-100860000D03*
X153260000Y-85620000D03*
X150720000Y-85620000D03*
X148180000Y-85620000D03*
X145640000Y-85620000D03*
X143100000Y-85620000D03*
X140560000Y-85620000D03*
X138020000Y-85620000D03*
X135480000Y-85620000D03*
X132940000Y-85620000D03*
X130400000Y-85620000D03*
X127860000Y-85620000D03*
X125320000Y-85620000D03*
X122780000Y-85620000D03*
X120240000Y-85620000D03*
X117700000Y-85620000D03*
%TD*%
M02*
