%TF.GenerationSoftware,KiCad,Pcbnew,8.0.5*%
%TF.CreationDate,2024-12-03T21:08:25+09:00*%
%TF.ProjectId,IR_con,49525f63-6f6e-42e6-9b69-6361645f7063,rev?*%
%TF.SameCoordinates,Original*%
%TF.FileFunction,Copper,L2,Bot*%
%TF.FilePolarity,Positive*%
%FSLAX46Y46*%
G04 Gerber Fmt 4.6, Leading zero omitted, Abs format (unit mm)*
G04 Created by KiCad (PCBNEW 8.0.5) date 2024-12-03 21:08:25*
%MOMM*%
%LPD*%
G01*
G04 APERTURE LIST*
G04 Aperture macros list*
%AMRotRect*
0 Rectangle, with rotation*
0 The origin of the aperture is its center*
0 $1 length*
0 $2 width*
0 $3 Rotation angle, in degrees counterclockwise*
0 Add horizontal line*
21,1,$1,$2,0,0,$3*%
G04 Aperture macros list end*
%TA.AperFunction,ComponentPad*%
%ADD10C,2.286000*%
%TD*%
%TA.AperFunction,ComponentPad*%
%ADD11R,1.600000X1.600000*%
%TD*%
%TA.AperFunction,ComponentPad*%
%ADD12O,1.600000X1.600000*%
%TD*%
%TA.AperFunction,ComponentPad*%
%ADD13R,1.700000X1.700000*%
%TD*%
%TA.AperFunction,ComponentPad*%
%ADD14O,1.700000X1.700000*%
%TD*%
%TA.AperFunction,ComponentPad*%
%ADD15C,1.600000*%
%TD*%
%TA.AperFunction,ComponentPad*%
%ADD16C,2.000000*%
%TD*%
%TA.AperFunction,ComponentPad*%
%ADD17C,1.800000*%
%TD*%
%TA.AperFunction,ComponentPad*%
%ADD18RotRect,1.800000X1.800000X315.000000*%
%TD*%
%TA.AperFunction,ComponentPad*%
%ADD19R,1.800000X1.800000*%
%TD*%
%TA.AperFunction,ComponentPad*%
%ADD20RotRect,1.800000X1.800000X225.000000*%
%TD*%
%TA.AperFunction,ViaPad*%
%ADD21C,0.600000*%
%TD*%
%TA.AperFunction,Conductor*%
%ADD22C,0.500000*%
%TD*%
G04 APERTURE END LIST*
D10*
%TO.P,J2,1,Pin_1*%
%TO.N,+5V*%
X147500000Y-56250000D03*
%TO.P,J2,2,Pin_2*%
%TO.N,GND*%
X147500000Y-76250000D03*
%TD*%
%TO.P,J1,1,Pin_1*%
%TO.N,+5V*%
X121750000Y-57000000D03*
%TO.P,J1,2,Pin_2*%
%TO.N,GND*%
X121750000Y-77000000D03*
%TD*%
D11*
%TO.P,U1,1,GND*%
%TO.N,GND*%
X133450000Y-66700000D03*
D12*
%TO.P,U1,2,TR*%
%TO.N,Net-(U1-TR)*%
X133450000Y-69240000D03*
%TO.P,U1,3,Q*%
%TO.N,Net-(A1-VIN)*%
X133450000Y-71780000D03*
%TO.P,U1,4,R*%
%TO.N,+5V*%
X133450000Y-74320000D03*
%TO.P,U1,5,CV*%
%TO.N,Net-(U1-CV)*%
X141070000Y-74320000D03*
%TO.P,U1,6,THR*%
%TO.N,Net-(U1-DIS)*%
X141070000Y-71780000D03*
%TO.P,U1,7,DIS*%
X141070000Y-69240000D03*
%TO.P,U1,8,VCC*%
%TO.N,+5V*%
X141070000Y-66700000D03*
%TD*%
D13*
%TO.P,SW1,1*%
%TO.N,Net-(U1-TR)*%
X166500000Y-70710000D03*
D14*
%TO.P,SW1,2*%
%TO.N,GND*%
X166500000Y-73250000D03*
%TD*%
D15*
%TO.P,R2,1*%
%TO.N,+5V*%
X150750000Y-59190000D03*
D12*
%TO.P,R2,2*%
%TO.N,Net-(U1-DIS)*%
X150750000Y-66810000D03*
%TD*%
D15*
%TO.P,R1,1*%
%TO.N,+5V*%
X141060000Y-60750000D03*
D12*
%TO.P,R1,2*%
%TO.N,Net-(U1-TR)*%
X133440000Y-60750000D03*
%TD*%
D16*
%TO.P,Q2,1,E*%
%TO.N,Net-(D1-A)*%
X135540000Y-107000000D03*
%TO.P,Q2,2,C*%
%TO.N,+5V*%
X133000000Y-107000000D03*
%TO.P,Q2,3,B*%
%TO.N,Net-(A1-D3)*%
X130460000Y-107000000D03*
%TD*%
D17*
%TO.P,D8,2,A*%
%TO.N,Net-(D1-A)*%
X113144490Y-106144490D03*
D18*
%TO.P,D8,1,K*%
%TO.N,Net-(D7-A)*%
X111348439Y-104348439D03*
%TD*%
D19*
%TO.P,D7,1,K*%
%TO.N,GND*%
X104500000Y-79475000D03*
D17*
%TO.P,D7,2,A*%
%TO.N,Net-(D7-A)*%
X104500000Y-82015000D03*
%TD*%
D19*
%TO.P,D6,1,K*%
%TO.N,GND*%
X138275000Y-50000000D03*
D17*
%TO.P,D6,2,A*%
%TO.N,Net-(D5-K)*%
X135735000Y-50000000D03*
%TD*%
D20*
%TO.P,D5,1,K*%
%TO.N,Net-(D5-K)*%
X113750000Y-58500000D03*
D17*
%TO.P,D5,2,A*%
%TO.N,Net-(D1-A)*%
X111953949Y-60296051D03*
%TD*%
D18*
%TO.P,D4,1,K*%
%TO.N,GND*%
X160000000Y-59000000D03*
D17*
%TO.P,D4,2,A*%
%TO.N,Net-(D1-K)*%
X161796051Y-60796051D03*
%TD*%
D20*
%TO.P,D3,1,K*%
%TO.N,GND*%
X163151562Y-103098439D03*
D17*
%TO.P,D3,2,A*%
%TO.N,Net-(D2-K)*%
X161355511Y-104894490D03*
%TD*%
D19*
%TO.P,D2,1,K*%
%TO.N,Net-(D2-K)*%
X138540000Y-115000000D03*
D17*
%TO.P,D2,2,A*%
%TO.N,Net-(D1-A)*%
X136000000Y-115000000D03*
%TD*%
D19*
%TO.P,D1,1,K*%
%TO.N,Net-(D1-K)*%
X169250000Y-79475000D03*
D17*
%TO.P,D1,2,A*%
%TO.N,Net-(D1-A)*%
X169250000Y-82015000D03*
%TD*%
D15*
%TO.P,C2,1*%
%TO.N,Net-(U1-DIS)*%
X151750000Y-73500000D03*
%TO.P,C2,2*%
%TO.N,GND*%
X151750000Y-78500000D03*
%TD*%
%TO.P,C1,1*%
%TO.N,Net-(U1-CV)*%
X139750000Y-80000000D03*
%TO.P,C1,2*%
%TO.N,GND*%
X134750000Y-80000000D03*
%TD*%
D11*
%TO.P,A1,1,D1/TX*%
%TO.N,unconnected-(A1-D1{slash}TX-Pad1)*%
X117700000Y-100860000D03*
D12*
%TO.P,A1,2,D0/RX*%
%TO.N,unconnected-(A1-D0{slash}RX-Pad2)*%
X120240000Y-100860000D03*
%TO.P,A1,3,~{RESET}*%
%TO.N,unconnected-(A1-~{RESET}-Pad3)*%
X122780000Y-100860000D03*
%TO.P,A1,4,GND*%
%TO.N,GND*%
X125320000Y-100860000D03*
%TO.P,A1,5,D2*%
%TO.N,unconnected-(A1-D2-Pad5)*%
X127860000Y-100860000D03*
%TO.P,A1,6,D3*%
%TO.N,Net-(A1-D3)*%
X130400000Y-100860000D03*
%TO.P,A1,7,D4*%
%TO.N,unconnected-(A1-D4-Pad7)*%
X132940000Y-100860000D03*
%TO.P,A1,8,D5*%
%TO.N,unconnected-(A1-D5-Pad8)*%
X135480000Y-100860000D03*
%TO.P,A1,9,D6*%
%TO.N,unconnected-(A1-D6-Pad9)*%
X138020000Y-100860000D03*
%TO.P,A1,10,D7*%
%TO.N,unconnected-(A1-D7-Pad10)*%
X140560000Y-100860000D03*
%TO.P,A1,11,D8*%
%TO.N,unconnected-(A1-D8-Pad11)*%
X143100000Y-100860000D03*
%TO.P,A1,12,D9*%
%TO.N,unconnected-(A1-D9-Pad12)*%
X145640000Y-100860000D03*
%TO.P,A1,13,D10*%
%TO.N,unconnected-(A1-D10-Pad13)*%
X148180000Y-100860000D03*
%TO.P,A1,14,D11*%
%TO.N,unconnected-(A1-D11-Pad14)*%
X150720000Y-100860000D03*
%TO.P,A1,15,D12*%
%TO.N,unconnected-(A1-D12-Pad15)*%
X153260000Y-100860000D03*
%TO.P,A1,16,D13*%
%TO.N,unconnected-(A1-D13-Pad16)*%
X153260000Y-85620000D03*
%TO.P,A1,17,3V3*%
%TO.N,unconnected-(A1-3V3-Pad17)*%
X150720000Y-85620000D03*
%TO.P,A1,18,AREF*%
%TO.N,unconnected-(A1-AREF-Pad18)*%
X148180000Y-85620000D03*
%TO.P,A1,19,A0*%
%TO.N,unconnected-(A1-A0-Pad19)*%
X145640000Y-85620000D03*
%TO.P,A1,20,A1*%
%TO.N,unconnected-(A1-A1-Pad20)*%
X143100000Y-85620000D03*
%TO.P,A1,21,A2*%
%TO.N,unconnected-(A1-A2-Pad21)*%
X140560000Y-85620000D03*
%TO.P,A1,22,A3*%
%TO.N,unconnected-(A1-A3-Pad22)*%
X138020000Y-85620000D03*
%TO.P,A1,23,A4*%
%TO.N,unconnected-(A1-A4-Pad23)*%
X135480000Y-85620000D03*
%TO.P,A1,24,A5*%
%TO.N,unconnected-(A1-A5-Pad24)*%
X132940000Y-85620000D03*
%TO.P,A1,25,A6*%
%TO.N,unconnected-(A1-A6-Pad25)*%
X130400000Y-85620000D03*
%TO.P,A1,26,A7*%
%TO.N,unconnected-(A1-A7-Pad26)*%
X127860000Y-85620000D03*
%TO.P,A1,27,+5V*%
%TO.N,unconnected-(A1-+5V-Pad27)*%
X125320000Y-85620000D03*
%TO.P,A1,28,~{RESET}*%
%TO.N,unconnected-(A1-~{RESET}-Pad28)*%
X122780000Y-85620000D03*
%TO.P,A1,29,GND*%
%TO.N,GND*%
X120240000Y-85620000D03*
%TO.P,A1,30,VIN*%
%TO.N,Net-(A1-VIN)*%
X117700000Y-85620000D03*
%TD*%
D21*
%TO.N,GND*%
X163000000Y-98500000D03*
X138275000Y-53750000D03*
X110000000Y-70500000D03*
%TO.N,+5V*%
X116750000Y-68000000D03*
%TD*%
D22*
%TO.N,Net-(U1-TR)*%
X154000000Y-63250000D02*
X135940000Y-63250000D01*
X161460000Y-70710000D02*
X154000000Y-63250000D01*
X166500000Y-70710000D02*
X161460000Y-70710000D01*
X135940000Y-63250000D02*
X133440000Y-60750000D01*
%TO.N,GND*%
X159000000Y-80750000D02*
X157250000Y-80750000D01*
X166500000Y-73250000D02*
X159000000Y-80750000D01*
X157250000Y-80750000D02*
X155000000Y-78500000D01*
X157250000Y-92750000D02*
X157250000Y-80750000D01*
X163000000Y-98500000D02*
X157250000Y-92750000D01*
X155000000Y-78500000D02*
X151750000Y-78500000D01*
X120750000Y-53750000D02*
X138275000Y-53750000D01*
X118500000Y-56000000D02*
X120750000Y-53750000D01*
X118500000Y-62000000D02*
X118500000Y-56000000D01*
X110000000Y-70500000D02*
X118500000Y-62000000D01*
%TO.N,+5V*%
X116750000Y-68000000D02*
X116750000Y-74140000D01*
X116750000Y-74140000D02*
X116930000Y-74320000D01*
X114500000Y-76750000D02*
X116930000Y-74320000D01*
X116930000Y-74320000D02*
X133450000Y-74320000D01*
X114500000Y-101750000D02*
X114500000Y-76750000D01*
X130000000Y-104000000D02*
X116750000Y-104000000D01*
X116750000Y-104000000D02*
X114500000Y-101750000D01*
X133000000Y-107000000D02*
X130000000Y-104000000D01*
%TD*%
%TA.AperFunction,Conductor*%
%TO.N,GND*%
G36*
X137693380Y-47219590D02*
G01*
X137697448Y-47219726D01*
X138888303Y-47279477D01*
X138892373Y-47279749D01*
X140080551Y-47379256D01*
X140084581Y-47379661D01*
X141268838Y-47518824D01*
X141272899Y-47519370D01*
X142451753Y-47698014D01*
X142455790Y-47698695D01*
X143628064Y-47916638D01*
X143632025Y-47917442D01*
X144796391Y-48174443D01*
X144800370Y-48175392D01*
X145955455Y-48471144D01*
X145959382Y-48472220D01*
X147103962Y-48806411D01*
X147107843Y-48807615D01*
X148240562Y-49179848D01*
X148244477Y-49181207D01*
X149364125Y-49591081D01*
X149367958Y-49592557D01*
X149803439Y-49768691D01*
X150473298Y-50039621D01*
X150477113Y-50041239D01*
X151566872Y-50524977D01*
X151570631Y-50526722D01*
X152643590Y-51046591D01*
X152647289Y-51048460D01*
X153702321Y-51603914D01*
X153705896Y-51605873D01*
X154487075Y-52051104D01*
X154741804Y-52196286D01*
X154745369Y-52198398D01*
X155760916Y-52823062D01*
X155764409Y-52825292D01*
X156758504Y-53483536D01*
X156761921Y-53485881D01*
X157733496Y-54176995D01*
X157736832Y-54179453D01*
X158684775Y-54902649D01*
X158688027Y-54905218D01*
X159611227Y-55659646D01*
X159614387Y-55662317D01*
X159703854Y-55740557D01*
X160511922Y-56447227D01*
X160514995Y-56450007D01*
X161385762Y-57264431D01*
X161388741Y-57267312D01*
X162231819Y-58110390D01*
X162234700Y-58113369D01*
X163049124Y-58984136D01*
X163051904Y-58987209D01*
X163836810Y-59884739D01*
X163839485Y-59887904D01*
X164593913Y-60811104D01*
X164596482Y-60814356D01*
X165319678Y-61762299D01*
X165322136Y-61765635D01*
X166013250Y-62737210D01*
X166015595Y-62740627D01*
X166673839Y-63734722D01*
X166676069Y-63738215D01*
X167300733Y-64753762D01*
X167302845Y-64757327D01*
X167840092Y-65699953D01*
X167893242Y-65793206D01*
X167895233Y-65796840D01*
X168450671Y-66851842D01*
X168452540Y-66855541D01*
X168972409Y-67928500D01*
X168974154Y-67932259D01*
X169457892Y-69022018D01*
X169459510Y-69025833D01*
X169906567Y-70131156D01*
X169908056Y-70135023D01*
X170317924Y-71254654D01*
X170319283Y-71258569D01*
X170691504Y-72391250D01*
X170692732Y-72395208D01*
X171026901Y-73539714D01*
X171027996Y-73543711D01*
X171323733Y-74698735D01*
X171324694Y-74702766D01*
X171581678Y-75867056D01*
X171582503Y-75871117D01*
X171800432Y-77043317D01*
X171801121Y-77047403D01*
X171979757Y-78226209D01*
X171980310Y-78230316D01*
X172119465Y-79414504D01*
X172119879Y-79418628D01*
X172219379Y-80606726D01*
X172219656Y-80610860D01*
X172279403Y-81801646D01*
X172279542Y-81805788D01*
X172299465Y-82997928D01*
X172299465Y-83002072D01*
X172279542Y-84194211D01*
X172279403Y-84198353D01*
X172219656Y-85389139D01*
X172219379Y-85393273D01*
X172119879Y-86581371D01*
X172119465Y-86585495D01*
X171980310Y-87769683D01*
X171979757Y-87773790D01*
X171801121Y-88952596D01*
X171800432Y-88956682D01*
X171582503Y-90128882D01*
X171581678Y-90132943D01*
X171324694Y-91297233D01*
X171323733Y-91301264D01*
X171027996Y-92456288D01*
X171026901Y-92460285D01*
X170692732Y-93604791D01*
X170691504Y-93608749D01*
X170319283Y-94741430D01*
X170317924Y-94745345D01*
X169908056Y-95864976D01*
X169906567Y-95868843D01*
X169459510Y-96974166D01*
X169457892Y-96977981D01*
X168974154Y-98067740D01*
X168972409Y-98071499D01*
X168452540Y-99144458D01*
X168450671Y-99148157D01*
X167895233Y-100203159D01*
X167893242Y-100206793D01*
X167302845Y-101242672D01*
X167300733Y-101246237D01*
X166676069Y-102261784D01*
X166673839Y-102265277D01*
X166015595Y-103259372D01*
X166013250Y-103262789D01*
X165322136Y-104234364D01*
X165319678Y-104237700D01*
X164596482Y-105185643D01*
X164593913Y-105188895D01*
X163839485Y-106112095D01*
X163836810Y-106115260D01*
X163051904Y-107012790D01*
X163049124Y-107015863D01*
X162234700Y-107886630D01*
X162231819Y-107889609D01*
X161388741Y-108732687D01*
X161385762Y-108735568D01*
X160514995Y-109549992D01*
X160511922Y-109552772D01*
X159614392Y-110337678D01*
X159611227Y-110340353D01*
X158688027Y-111094781D01*
X158684775Y-111097350D01*
X157736832Y-111820546D01*
X157733496Y-111823004D01*
X156761921Y-112514118D01*
X156758504Y-112516463D01*
X155764409Y-113174707D01*
X155760916Y-113176937D01*
X154745369Y-113801601D01*
X154741804Y-113803713D01*
X153705925Y-114394110D01*
X153702291Y-114396101D01*
X152647289Y-114951539D01*
X152643590Y-114953408D01*
X151570631Y-115473277D01*
X151566872Y-115475022D01*
X150477113Y-115958760D01*
X150473298Y-115960378D01*
X149367975Y-116407435D01*
X149364108Y-116408924D01*
X148244477Y-116818792D01*
X148240562Y-116820151D01*
X147107881Y-117192372D01*
X147103923Y-117193600D01*
X145959417Y-117527769D01*
X145955420Y-117528864D01*
X144800396Y-117824601D01*
X144796365Y-117825562D01*
X143632075Y-118082546D01*
X143628014Y-118083371D01*
X142455814Y-118301300D01*
X142451728Y-118301989D01*
X141272922Y-118480625D01*
X141268815Y-118481178D01*
X140084627Y-118620333D01*
X140080503Y-118620747D01*
X138892405Y-118720247D01*
X138888271Y-118720524D01*
X137697485Y-118780271D01*
X137693343Y-118780410D01*
X136501204Y-118800333D01*
X136497060Y-118800333D01*
X135304920Y-118780410D01*
X135300778Y-118780271D01*
X134109992Y-118720524D01*
X134105858Y-118720247D01*
X132917760Y-118620747D01*
X132913636Y-118620333D01*
X131729448Y-118481178D01*
X131725341Y-118480625D01*
X130546535Y-118301989D01*
X130542449Y-118301300D01*
X129370249Y-118083371D01*
X129366188Y-118082546D01*
X128201898Y-117825562D01*
X128197867Y-117824601D01*
X127042843Y-117528864D01*
X127038846Y-117527769D01*
X125894340Y-117193600D01*
X125890382Y-117192372D01*
X124757701Y-116820151D01*
X124753786Y-116818792D01*
X123634155Y-116408924D01*
X123630288Y-116407435D01*
X122524965Y-115960378D01*
X122521150Y-115958760D01*
X121431391Y-115475022D01*
X121427632Y-115473277D01*
X120450820Y-114999993D01*
X134594700Y-114999993D01*
X134594700Y-115000006D01*
X134613864Y-115231297D01*
X134613866Y-115231308D01*
X134670842Y-115456300D01*
X134764075Y-115668848D01*
X134891016Y-115863147D01*
X134891019Y-115863151D01*
X134891021Y-115863153D01*
X135048216Y-116033913D01*
X135048219Y-116033915D01*
X135048222Y-116033918D01*
X135231365Y-116176464D01*
X135231371Y-116176468D01*
X135231374Y-116176470D01*
X135435497Y-116286936D01*
X135549487Y-116326068D01*
X135655015Y-116362297D01*
X135655017Y-116362297D01*
X135655019Y-116362298D01*
X135883951Y-116400500D01*
X135883952Y-116400500D01*
X136116048Y-116400500D01*
X136116049Y-116400500D01*
X136344981Y-116362298D01*
X136564503Y-116286936D01*
X136768626Y-116176470D01*
X136951784Y-116033913D01*
X136960130Y-116024846D01*
X137020010Y-115988854D01*
X137089849Y-115990949D01*
X137147468Y-116030469D01*
X137167544Y-116065491D01*
X137196203Y-116142330D01*
X137196206Y-116142335D01*
X137282452Y-116257544D01*
X137282455Y-116257547D01*
X137397664Y-116343793D01*
X137397671Y-116343797D01*
X137532517Y-116394091D01*
X137532516Y-116394091D01*
X137539444Y-116394835D01*
X137592127Y-116400500D01*
X139487872Y-116400499D01*
X139547483Y-116394091D01*
X139682331Y-116343796D01*
X139797546Y-116257546D01*
X139883796Y-116142331D01*
X139934091Y-116007483D01*
X139940500Y-115947873D01*
X139940499Y-114052128D01*
X139934091Y-113992517D01*
X139924233Y-113966087D01*
X139883797Y-113857671D01*
X139883793Y-113857664D01*
X139797547Y-113742455D01*
X139797544Y-113742452D01*
X139682335Y-113656206D01*
X139682328Y-113656202D01*
X139547482Y-113605908D01*
X139547483Y-113605908D01*
X139487883Y-113599501D01*
X139487881Y-113599500D01*
X139487873Y-113599500D01*
X139487864Y-113599500D01*
X137592129Y-113599500D01*
X137592123Y-113599501D01*
X137532516Y-113605908D01*
X137397671Y-113656202D01*
X137397664Y-113656206D01*
X137282455Y-113742452D01*
X137282452Y-113742455D01*
X137196206Y-113857664D01*
X137196203Y-113857670D01*
X137167544Y-113934508D01*
X137125672Y-113990441D01*
X137060208Y-114014858D01*
X136991935Y-114000006D01*
X136960135Y-113975158D01*
X136951784Y-113966087D01*
X136951778Y-113966082D01*
X136951777Y-113966081D01*
X136768634Y-113823535D01*
X136768628Y-113823531D01*
X136564504Y-113713064D01*
X136564495Y-113713061D01*
X136344984Y-113637702D01*
X136154450Y-113605908D01*
X136116049Y-113599500D01*
X135883951Y-113599500D01*
X135845550Y-113605908D01*
X135655015Y-113637702D01*
X135435504Y-113713061D01*
X135435495Y-113713064D01*
X135231371Y-113823531D01*
X135231365Y-113823535D01*
X135048222Y-113966081D01*
X135048219Y-113966084D01*
X135048216Y-113966086D01*
X135048216Y-113966087D01*
X135003319Y-114014858D01*
X134891016Y-114136852D01*
X134764075Y-114331151D01*
X134670842Y-114543699D01*
X134613866Y-114768691D01*
X134613864Y-114768702D01*
X134594700Y-114999993D01*
X120450820Y-114999993D01*
X120354673Y-114953408D01*
X120350974Y-114951539D01*
X119295972Y-114396101D01*
X119292338Y-114394110D01*
X118922923Y-114183563D01*
X118351127Y-113857669D01*
X118256459Y-113803713D01*
X118252894Y-113801601D01*
X117237347Y-113176937D01*
X117233854Y-113174707D01*
X116239759Y-112516463D01*
X116236342Y-112514118D01*
X115264767Y-111823004D01*
X115261431Y-111820546D01*
X114313488Y-111097350D01*
X114310236Y-111094781D01*
X113387036Y-110340353D01*
X113383871Y-110337678D01*
X112486341Y-109552772D01*
X112483268Y-109549992D01*
X111612501Y-108735568D01*
X111609522Y-108732687D01*
X110766444Y-107889609D01*
X110763563Y-107886630D01*
X109949139Y-107015863D01*
X109946359Y-107012790D01*
X109219316Y-106181426D01*
X109161449Y-106115255D01*
X109158778Y-106112095D01*
X109117749Y-106061888D01*
X108812367Y-105688189D01*
X108404350Y-105188895D01*
X108401781Y-105185643D01*
X107763069Y-104348439D01*
X109570000Y-104348439D01*
X109590481Y-104490895D01*
X109650268Y-104621809D01*
X109650269Y-104621810D01*
X109650270Y-104621812D01*
X109687889Y-104668495D01*
X109687892Y-104668498D01*
X109687897Y-104668504D01*
X110707584Y-105688189D01*
X111028383Y-106008988D01*
X111075066Y-106046608D01*
X111205982Y-106106396D01*
X111205981Y-106106396D01*
X111223888Y-106108970D01*
X111348439Y-106126878D01*
X111490896Y-106106396D01*
X111566581Y-106071831D01*
X111635736Y-106061888D01*
X111699292Y-106090912D01*
X111737067Y-106149690D01*
X111741666Y-106174386D01*
X111758354Y-106375786D01*
X111758356Y-106375798D01*
X111815332Y-106600790D01*
X111908565Y-106813338D01*
X112035506Y-107007637D01*
X112035509Y-107007641D01*
X112035511Y-107007643D01*
X112192706Y-107178403D01*
X112192709Y-107178405D01*
X112192712Y-107178408D01*
X112375855Y-107320954D01*
X112375861Y-107320958D01*
X112375864Y-107320960D01*
X112579987Y-107431426D01*
X112693977Y-107470558D01*
X112799505Y-107506787D01*
X112799507Y-107506787D01*
X112799509Y-107506788D01*
X113028441Y-107544990D01*
X113028442Y-107544990D01*
X113260538Y-107544990D01*
X113260539Y-107544990D01*
X113489471Y-107506788D01*
X113708993Y-107431426D01*
X113913116Y-107320960D01*
X114096274Y-107178403D01*
X114253469Y-107007643D01*
X114380414Y-106813339D01*
X114473647Y-106600790D01*
X114530624Y-106375795D01*
X114537320Y-106294990D01*
X114549790Y-106144496D01*
X114549790Y-106144483D01*
X114530625Y-105913192D01*
X114530623Y-105913181D01*
X114473647Y-105688189D01*
X114380414Y-105475641D01*
X114253473Y-105281342D01*
X114253470Y-105281339D01*
X114253469Y-105281337D01*
X114096274Y-105110577D01*
X114096269Y-105110573D01*
X114096267Y-105110571D01*
X113913124Y-104968025D01*
X113913118Y-104968021D01*
X113708994Y-104857554D01*
X113708985Y-104857551D01*
X113489474Y-104782192D01*
X113299551Y-104750500D01*
X113260539Y-104743990D01*
X113183759Y-104743990D01*
X113116720Y-104724305D01*
X113070965Y-104671501D01*
X113061021Y-104602343D01*
X113070965Y-104568478D01*
X113106396Y-104490895D01*
X113108190Y-104478416D01*
X113126878Y-104348439D01*
X113106396Y-104205982D01*
X113046608Y-104075066D01*
X113008989Y-104028383D01*
X113008984Y-104028378D01*
X113008980Y-104028373D01*
X111668502Y-102687897D01*
X111668495Y-102687890D01*
X111621812Y-102650270D01*
X111490896Y-102590482D01*
X111490894Y-102590481D01*
X111490896Y-102590481D01*
X111348439Y-102570000D01*
X111205982Y-102590481D01*
X111075068Y-102650268D01*
X111028373Y-102687897D01*
X109687897Y-104028375D01*
X109687891Y-104028381D01*
X109687890Y-104028383D01*
X109669080Y-104051724D01*
X109650269Y-104075067D01*
X109650268Y-104075069D01*
X109590481Y-104205982D01*
X109570000Y-104348439D01*
X107763069Y-104348439D01*
X107678585Y-104237700D01*
X107676127Y-104234364D01*
X106985013Y-103262789D01*
X106982668Y-103259372D01*
X106324424Y-102265277D01*
X106322194Y-102261784D01*
X106301669Y-102228416D01*
X106052863Y-101823920D01*
X113749499Y-101823920D01*
X113778340Y-101968907D01*
X113778343Y-101968917D01*
X113834913Y-102105490D01*
X113834914Y-102105492D01*
X113861737Y-102145635D01*
X113861738Y-102145637D01*
X113917043Y-102228410D01*
X113917047Y-102228415D01*
X113917048Y-102228416D01*
X116167049Y-104478416D01*
X116271584Y-104582951D01*
X116271587Y-104582953D01*
X116271588Y-104582954D01*
X116394503Y-104665083D01*
X116394506Y-104665085D01*
X116451079Y-104688518D01*
X116451080Y-104688518D01*
X116531088Y-104721659D01*
X116643355Y-104743990D01*
X116665173Y-104748330D01*
X116676081Y-104750500D01*
X116676082Y-104750500D01*
X116676083Y-104750500D01*
X116823918Y-104750500D01*
X129637770Y-104750500D01*
X129704809Y-104770185D01*
X129725451Y-104786819D01*
X130253138Y-105314506D01*
X130286623Y-105375829D01*
X130281639Y-105445521D01*
X130239767Y-105501454D01*
X130185867Y-105524496D01*
X130090382Y-105540429D01*
X129855197Y-105621169D01*
X129855188Y-105621172D01*
X129636493Y-105739524D01*
X129440257Y-105892261D01*
X129271833Y-106075217D01*
X129135826Y-106283393D01*
X129035936Y-106511118D01*
X128974892Y-106752175D01*
X128974890Y-106752187D01*
X128954357Y-106999994D01*
X128954357Y-107000005D01*
X128974890Y-107247812D01*
X128974892Y-107247824D01*
X129035936Y-107488881D01*
X129135826Y-107716606D01*
X129271833Y-107924782D01*
X129271836Y-107924785D01*
X129440256Y-108107738D01*
X129636491Y-108260474D01*
X129855190Y-108378828D01*
X130090386Y-108459571D01*
X130335665Y-108500500D01*
X130584335Y-108500500D01*
X130829614Y-108459571D01*
X131064810Y-108378828D01*
X131283509Y-108260474D01*
X131479744Y-108107738D01*
X131638771Y-107934988D01*
X131698657Y-107898999D01*
X131768495Y-107901099D01*
X131821228Y-107934988D01*
X131980256Y-108107738D01*
X132176491Y-108260474D01*
X132395190Y-108378828D01*
X132630386Y-108459571D01*
X132875665Y-108500500D01*
X133124335Y-108500500D01*
X133369614Y-108459571D01*
X133604810Y-108378828D01*
X133823509Y-108260474D01*
X134019744Y-108107738D01*
X134178771Y-107934988D01*
X134238657Y-107898999D01*
X134308495Y-107901099D01*
X134361228Y-107934988D01*
X134520256Y-108107738D01*
X134716491Y-108260474D01*
X134935190Y-108378828D01*
X135170386Y-108459571D01*
X135415665Y-108500500D01*
X135664335Y-108500500D01*
X135909614Y-108459571D01*
X136144810Y-108378828D01*
X136363509Y-108260474D01*
X136559744Y-108107738D01*
X136728164Y-107924785D01*
X136864173Y-107716607D01*
X136964063Y-107488881D01*
X137025108Y-107247821D01*
X137030860Y-107178403D01*
X137045643Y-107000005D01*
X137045643Y-106999994D01*
X137025109Y-106752187D01*
X137025107Y-106752175D01*
X136964063Y-106511118D01*
X136864173Y-106283393D01*
X136728166Y-106075217D01*
X136701829Y-106046608D01*
X136559744Y-105892262D01*
X136363509Y-105739526D01*
X136363507Y-105739525D01*
X136363506Y-105739524D01*
X136144811Y-105621172D01*
X136144802Y-105621169D01*
X135909616Y-105540429D01*
X135664335Y-105499500D01*
X135415665Y-105499500D01*
X135170383Y-105540429D01*
X134935197Y-105621169D01*
X134935188Y-105621172D01*
X134716493Y-105739524D01*
X134520257Y-105892261D01*
X134361230Y-106065010D01*
X134301342Y-106101001D01*
X134231504Y-106098900D01*
X134178770Y-106065010D01*
X134127190Y-106008980D01*
X134019744Y-105892262D01*
X133823509Y-105739526D01*
X133823507Y-105739525D01*
X133823506Y-105739524D01*
X133604811Y-105621172D01*
X133604802Y-105621169D01*
X133369616Y-105540429D01*
X133124335Y-105499500D01*
X132875665Y-105499500D01*
X132668841Y-105534012D01*
X132599476Y-105525630D01*
X132560751Y-105499384D01*
X131955851Y-104894483D01*
X159950211Y-104894483D01*
X159950211Y-104894496D01*
X159969375Y-105125787D01*
X159969377Y-105125798D01*
X160026353Y-105350790D01*
X160119586Y-105563338D01*
X160246527Y-105757637D01*
X160246530Y-105757641D01*
X160246532Y-105757643D01*
X160403727Y-105928403D01*
X160403730Y-105928405D01*
X160403733Y-105928408D01*
X160586876Y-106070954D01*
X160586882Y-106070958D01*
X160586885Y-106070960D01*
X160791008Y-106181426D01*
X160904998Y-106220558D01*
X161010526Y-106256787D01*
X161010528Y-106256787D01*
X161010530Y-106256788D01*
X161239462Y-106294990D01*
X161239463Y-106294990D01*
X161471559Y-106294990D01*
X161471560Y-106294990D01*
X161700492Y-106256788D01*
X161920014Y-106181426D01*
X162124137Y-106070960D01*
X162307295Y-105928403D01*
X162464490Y-105757643D01*
X162591435Y-105563339D01*
X162684668Y-105350790D01*
X162741645Y-105125795D01*
X162758377Y-104923856D01*
X162783531Y-104858673D01*
X162839933Y-104817435D01*
X162909676Y-104813237D01*
X162933466Y-104821304D01*
X163009244Y-104855911D01*
X163009248Y-104855912D01*
X163151562Y-104876372D01*
X163293875Y-104855912D01*
X163293880Y-104855911D01*
X163424659Y-104796185D01*
X163471294Y-104758605D01*
X163471298Y-104758601D01*
X163964734Y-104265166D01*
X163964734Y-104265164D01*
X163240147Y-103540577D01*
X163325256Y-103517772D01*
X163427868Y-103458529D01*
X163511652Y-103374745D01*
X163570895Y-103272133D01*
X163593700Y-103187024D01*
X164318287Y-103911611D01*
X164811724Y-103418175D01*
X164811728Y-103418171D01*
X164849308Y-103371536D01*
X164909034Y-103240757D01*
X164909035Y-103240752D01*
X164929495Y-103098439D01*
X164909035Y-102956125D01*
X164909034Y-102956120D01*
X164849308Y-102825341D01*
X164811728Y-102778706D01*
X164318288Y-102285266D01*
X163593700Y-103009853D01*
X163570895Y-102924745D01*
X163511652Y-102822133D01*
X163427868Y-102738349D01*
X163325256Y-102679106D01*
X163240146Y-102656300D01*
X163964734Y-101931712D01*
X163964734Y-101931711D01*
X163471298Y-101438276D01*
X163471294Y-101438272D01*
X163424659Y-101400692D01*
X163293880Y-101340966D01*
X163293875Y-101340965D01*
X163151562Y-101320505D01*
X163009248Y-101340965D01*
X163009243Y-101340966D01*
X162878464Y-101400692D01*
X162831824Y-101438276D01*
X162338389Y-101931711D01*
X162338389Y-101931712D01*
X163062977Y-102656300D01*
X162977868Y-102679106D01*
X162875256Y-102738349D01*
X162791472Y-102822133D01*
X162732229Y-102924745D01*
X162709423Y-103009854D01*
X161984835Y-102285266D01*
X161984834Y-102285266D01*
X161491399Y-102778701D01*
X161453815Y-102825341D01*
X161394089Y-102956120D01*
X161394088Y-102956125D01*
X161373628Y-103098439D01*
X161394088Y-103240752D01*
X161394089Y-103240757D01*
X161429584Y-103318478D01*
X161439528Y-103387637D01*
X161410503Y-103451193D01*
X161351725Y-103488967D01*
X161316790Y-103493990D01*
X161239462Y-103493990D01*
X161193675Y-103501630D01*
X161010526Y-103532192D01*
X160791015Y-103607551D01*
X160791006Y-103607554D01*
X160586882Y-103718021D01*
X160586876Y-103718025D01*
X160403733Y-103860571D01*
X160403730Y-103860574D01*
X160246527Y-104031342D01*
X160119586Y-104225641D01*
X160026353Y-104438189D01*
X159969377Y-104663181D01*
X159969375Y-104663192D01*
X159950211Y-104894483D01*
X131955851Y-104894483D01*
X130478421Y-103417052D01*
X130478414Y-103417046D01*
X130404729Y-103367812D01*
X130404729Y-103367813D01*
X130355491Y-103334913D01*
X130218917Y-103278343D01*
X130218907Y-103278340D01*
X130073920Y-103249500D01*
X130073918Y-103249500D01*
X117112229Y-103249500D01*
X117045190Y-103229815D01*
X117024548Y-103213181D01*
X115286819Y-101475451D01*
X115253334Y-101414128D01*
X115250500Y-101387770D01*
X115250500Y-100012135D01*
X116399500Y-100012135D01*
X116399500Y-101707870D01*
X116399501Y-101707876D01*
X116405908Y-101767483D01*
X116456202Y-101902328D01*
X116456206Y-101902335D01*
X116542452Y-102017544D01*
X116542455Y-102017547D01*
X116657664Y-102103793D01*
X116657671Y-102103797D01*
X116792517Y-102154091D01*
X116792516Y-102154091D01*
X116799444Y-102154835D01*
X116852127Y-102160500D01*
X118547872Y-102160499D01*
X118607483Y-102154091D01*
X118742331Y-102103796D01*
X118857546Y-102017546D01*
X118943796Y-101902331D01*
X118994091Y-101767483D01*
X118997862Y-101732401D01*
X119024599Y-101667855D01*
X119081990Y-101628006D01*
X119151816Y-101625511D01*
X119211905Y-101661163D01*
X119222726Y-101674536D01*
X119239956Y-101699143D01*
X119400858Y-101860045D01*
X119400861Y-101860047D01*
X119587266Y-101990568D01*
X119793504Y-102086739D01*
X120013308Y-102145635D01*
X120175230Y-102159801D01*
X120239998Y-102165468D01*
X120240000Y-102165468D01*
X120240002Y-102165468D01*
X120296807Y-102160498D01*
X120466692Y-102145635D01*
X120686496Y-102086739D01*
X120892734Y-101990568D01*
X121079139Y-101860047D01*
X121240047Y-101699139D01*
X121370568Y-101512734D01*
X121397618Y-101454724D01*
X121443790Y-101402285D01*
X121510983Y-101383133D01*
X121577865Y-101403348D01*
X121622382Y-101454725D01*
X121649429Y-101512728D01*
X121649432Y-101512734D01*
X121779954Y-101699141D01*
X121940858Y-101860045D01*
X121940861Y-101860047D01*
X122127266Y-101990568D01*
X122333504Y-102086739D01*
X122553308Y-102145635D01*
X122715230Y-102159801D01*
X122779998Y-102165468D01*
X122780000Y-102165468D01*
X122780002Y-102165468D01*
X122836807Y-102160498D01*
X123006692Y-102145635D01*
X123226496Y-102086739D01*
X123432734Y-101990568D01*
X123619139Y-101860047D01*
X123780047Y-101699139D01*
X123910568Y-101512734D01*
X123937895Y-101454129D01*
X123984064Y-101401695D01*
X124051257Y-101382542D01*
X124118139Y-101402757D01*
X124162657Y-101454133D01*
X124189865Y-101512482D01*
X124320342Y-101698820D01*
X124481179Y-101859657D01*
X124667517Y-101990134D01*
X124873673Y-102086265D01*
X124873682Y-102086269D01*
X125069999Y-102138872D01*
X125070000Y-102138871D01*
X125070000Y-101293012D01*
X125127007Y-101325925D01*
X125254174Y-101360000D01*
X125385826Y-101360000D01*
X125512993Y-101325925D01*
X125570000Y-101293012D01*
X125570000Y-102138872D01*
X125766317Y-102086269D01*
X125766326Y-102086265D01*
X125972482Y-101990134D01*
X126158820Y-101859657D01*
X126319657Y-101698820D01*
X126450132Y-101512484D01*
X126477341Y-101454134D01*
X126523513Y-101401695D01*
X126590707Y-101382542D01*
X126657588Y-101402757D01*
X126702106Y-101454133D01*
X126729431Y-101512732D01*
X126729432Y-101512734D01*
X126859954Y-101699141D01*
X127020858Y-101860045D01*
X127020861Y-101860047D01*
X127207266Y-101990568D01*
X127413504Y-102086739D01*
X127633308Y-102145635D01*
X127795230Y-102159801D01*
X127859998Y-102165468D01*
X127860000Y-102165468D01*
X127860002Y-102165468D01*
X127916807Y-102160498D01*
X128086692Y-102145635D01*
X128306496Y-102086739D01*
X128512734Y-101990568D01*
X128699139Y-101860047D01*
X128860047Y-101699139D01*
X128990568Y-101512734D01*
X129017618Y-101454724D01*
X129063790Y-101402285D01*
X129130983Y-101383133D01*
X129197865Y-101403348D01*
X129242382Y-101454725D01*
X129269429Y-101512728D01*
X129269432Y-101512734D01*
X129399954Y-101699141D01*
X129560858Y-101860045D01*
X129560861Y-101860047D01*
X129747266Y-101990568D01*
X129953504Y-102086739D01*
X130173308Y-102145635D01*
X130335230Y-102159801D01*
X130399998Y-102165468D01*
X130400000Y-102165468D01*
X130400002Y-102165468D01*
X130456807Y-102160498D01*
X130626692Y-102145635D01*
X130846496Y-102086739D01*
X131052734Y-101990568D01*
X131239139Y-101860047D01*
X131400047Y-101699139D01*
X131530568Y-101512734D01*
X131557618Y-101454724D01*
X131603790Y-101402285D01*
X131670983Y-101383133D01*
X131737865Y-101403348D01*
X131782382Y-101454725D01*
X131809429Y-101512728D01*
X131809432Y-101512734D01*
X131939954Y-101699141D01*
X132100858Y-101860045D01*
X132100861Y-101860047D01*
X132287266Y-101990568D01*
X132493504Y-102086739D01*
X132713308Y-102145635D01*
X132875230Y-102159801D01*
X132939998Y-102165468D01*
X132940000Y-102165468D01*
X132940002Y-102165468D01*
X132996807Y-102160498D01*
X133166692Y-102145635D01*
X133386496Y-102086739D01*
X133592734Y-101990568D01*
X133779139Y-101860047D01*
X133940047Y-101699139D01*
X134070568Y-101512734D01*
X134097618Y-101454724D01*
X134143790Y-101402285D01*
X134210983Y-101383133D01*
X134277865Y-101403348D01*
X134322382Y-101454725D01*
X134349429Y-101512728D01*
X134349432Y-101512734D01*
X134479954Y-101699141D01*
X134640858Y-101860045D01*
X134640861Y-101860047D01*
X134827266Y-101990568D01*
X135033504Y-102086739D01*
X135253308Y-102145635D01*
X135415230Y-102159801D01*
X135479998Y-102165468D01*
X135480000Y-102165468D01*
X135480002Y-102165468D01*
X135536807Y-102160498D01*
X135706692Y-102145635D01*
X135926496Y-102086739D01*
X136132734Y-101990568D01*
X136319139Y-101860047D01*
X136480047Y-101699139D01*
X136610568Y-101512734D01*
X136637618Y-101454724D01*
X136683790Y-101402285D01*
X136750983Y-101383133D01*
X136817865Y-101403348D01*
X136862382Y-101454725D01*
X136889429Y-101512728D01*
X136889432Y-101512734D01*
X137019954Y-101699141D01*
X137180858Y-101860045D01*
X137180861Y-101860047D01*
X137367266Y-101990568D01*
X137573504Y-102086739D01*
X137793308Y-102145635D01*
X137955230Y-102159801D01*
X138019998Y-102165468D01*
X138020000Y-102165468D01*
X138020002Y-102165468D01*
X138076807Y-102160498D01*
X138246692Y-102145635D01*
X138466496Y-102086739D01*
X138672734Y-101990568D01*
X138859139Y-101860047D01*
X139020047Y-101699139D01*
X139150568Y-101512734D01*
X139177618Y-101454724D01*
X139223790Y-101402285D01*
X139290983Y-101383133D01*
X139357865Y-101403348D01*
X139402382Y-101454725D01*
X139429429Y-101512728D01*
X139429432Y-101512734D01*
X139559954Y-101699141D01*
X139720858Y-101860045D01*
X139720861Y-101860047D01*
X139907266Y-101990568D01*
X140113504Y-102086739D01*
X140333308Y-102145635D01*
X140495230Y-102159801D01*
X140559998Y-102165468D01*
X140560000Y-102165468D01*
X140560002Y-102165468D01*
X140616807Y-102160498D01*
X140786692Y-102145635D01*
X141006496Y-102086739D01*
X141212734Y-101990568D01*
X141399139Y-101860047D01*
X141560047Y-101699139D01*
X141690568Y-101512734D01*
X141717618Y-101454724D01*
X141763790Y-101402285D01*
X141830983Y-101383133D01*
X141897865Y-101403348D01*
X141942382Y-101454725D01*
X141969429Y-101512728D01*
X141969432Y-101512734D01*
X142099954Y-101699141D01*
X142260858Y-101860045D01*
X142260861Y-101860047D01*
X142447266Y-101990568D01*
X142653504Y-102086739D01*
X142873308Y-102145635D01*
X143035230Y-102159801D01*
X143099998Y-102165468D01*
X143100000Y-102165468D01*
X143100002Y-102165468D01*
X143156807Y-102160498D01*
X143326692Y-102145635D01*
X143546496Y-102086739D01*
X143752734Y-101990568D01*
X143939139Y-101860047D01*
X144100047Y-101699139D01*
X144230568Y-101512734D01*
X144257618Y-101454724D01*
X144303790Y-101402285D01*
X144370983Y-101383133D01*
X144437865Y-101403348D01*
X144482382Y-101454725D01*
X144509429Y-101512728D01*
X144509432Y-101512734D01*
X144639954Y-101699141D01*
X144800858Y-101860045D01*
X144800861Y-101860047D01*
X144987266Y-101990568D01*
X145193504Y-102086739D01*
X145413308Y-102145635D01*
X145575230Y-102159801D01*
X145639998Y-102165468D01*
X145640000Y-102165468D01*
X145640002Y-102165468D01*
X145696807Y-102160498D01*
X145866692Y-102145635D01*
X146086496Y-102086739D01*
X146292734Y-101990568D01*
X146479139Y-101860047D01*
X146640047Y-101699139D01*
X146770568Y-101512734D01*
X146797618Y-101454724D01*
X146843790Y-101402285D01*
X146910983Y-101383133D01*
X146977865Y-101403348D01*
X147022382Y-101454725D01*
X147049429Y-101512728D01*
X147049432Y-101512734D01*
X147179954Y-101699141D01*
X147340858Y-101860045D01*
X147340861Y-101860047D01*
X147527266Y-101990568D01*
X147733504Y-102086739D01*
X147953308Y-102145635D01*
X148115230Y-102159801D01*
X148179998Y-102165468D01*
X148180000Y-102165468D01*
X148180002Y-102165468D01*
X148236807Y-102160498D01*
X148406692Y-102145635D01*
X148626496Y-102086739D01*
X148832734Y-101990568D01*
X149019139Y-101860047D01*
X149180047Y-101699139D01*
X149310568Y-101512734D01*
X149337618Y-101454724D01*
X149383790Y-101402285D01*
X149450983Y-101383133D01*
X149517865Y-101403348D01*
X149562382Y-101454725D01*
X149589429Y-101512728D01*
X149589432Y-101512734D01*
X149719954Y-101699141D01*
X149880858Y-101860045D01*
X149880861Y-101860047D01*
X150067266Y-101990568D01*
X150273504Y-102086739D01*
X150493308Y-102145635D01*
X150655230Y-102159801D01*
X150719998Y-102165468D01*
X150720000Y-102165468D01*
X150720002Y-102165468D01*
X150776807Y-102160498D01*
X150946692Y-102145635D01*
X151166496Y-102086739D01*
X151372734Y-101990568D01*
X151559139Y-101860047D01*
X151720047Y-101699139D01*
X151850568Y-101512734D01*
X151877618Y-101454724D01*
X151923790Y-101402285D01*
X151990983Y-101383133D01*
X152057865Y-101403348D01*
X152102382Y-101454725D01*
X152129429Y-101512728D01*
X152129432Y-101512734D01*
X152259954Y-101699141D01*
X152420858Y-101860045D01*
X152420861Y-101860047D01*
X152607266Y-101990568D01*
X152813504Y-102086739D01*
X153033308Y-102145635D01*
X153195230Y-102159801D01*
X153259998Y-102165468D01*
X153260000Y-102165468D01*
X153260002Y-102165468D01*
X153316807Y-102160498D01*
X153486692Y-102145635D01*
X153706496Y-102086739D01*
X153912734Y-101990568D01*
X154099139Y-101860047D01*
X154260047Y-101699139D01*
X154390568Y-101512734D01*
X154486739Y-101306496D01*
X154545635Y-101086692D01*
X154565468Y-100860000D01*
X154545635Y-100633308D01*
X154486739Y-100413504D01*
X154390568Y-100207266D01*
X154260047Y-100020861D01*
X154260045Y-100020858D01*
X154099141Y-99859954D01*
X153912734Y-99729432D01*
X153912732Y-99729431D01*
X153706497Y-99633261D01*
X153706488Y-99633258D01*
X153486697Y-99574366D01*
X153486693Y-99574365D01*
X153486692Y-99574365D01*
X153486691Y-99574364D01*
X153486686Y-99574364D01*
X153260002Y-99554532D01*
X153259998Y-99554532D01*
X153033313Y-99574364D01*
X153033302Y-99574366D01*
X152813511Y-99633258D01*
X152813502Y-99633261D01*
X152607267Y-99729431D01*
X152607265Y-99729432D01*
X152420858Y-99859954D01*
X152259954Y-100020858D01*
X152129432Y-100207265D01*
X152129431Y-100207267D01*
X152102382Y-100265275D01*
X152056209Y-100317714D01*
X151989016Y-100336866D01*
X151922135Y-100316650D01*
X151877618Y-100265275D01*
X151850568Y-100207266D01*
X151720047Y-100020861D01*
X151720045Y-100020858D01*
X151559141Y-99859954D01*
X151372734Y-99729432D01*
X151372732Y-99729431D01*
X151166497Y-99633261D01*
X151166488Y-99633258D01*
X150946697Y-99574366D01*
X150946693Y-99574365D01*
X150946692Y-99574365D01*
X150946691Y-99574364D01*
X150946686Y-99574364D01*
X150720002Y-99554532D01*
X150719998Y-99554532D01*
X150493313Y-99574364D01*
X150493302Y-99574366D01*
X150273511Y-99633258D01*
X150273502Y-99633261D01*
X150067267Y-99729431D01*
X150067265Y-99729432D01*
X149880858Y-99859954D01*
X149719954Y-100020858D01*
X149589432Y-100207265D01*
X149589431Y-100207267D01*
X149562382Y-100265275D01*
X149516209Y-100317714D01*
X149449016Y-100336866D01*
X149382135Y-100316650D01*
X149337618Y-100265275D01*
X149310568Y-100207266D01*
X149180047Y-100020861D01*
X149180045Y-100020858D01*
X149019141Y-99859954D01*
X148832734Y-99729432D01*
X148832732Y-99729431D01*
X148626497Y-99633261D01*
X148626488Y-99633258D01*
X148406697Y-99574366D01*
X148406693Y-99574365D01*
X148406692Y-99574365D01*
X148406691Y-99574364D01*
X148406686Y-99574364D01*
X148180002Y-99554532D01*
X148179998Y-99554532D01*
X147953313Y-99574364D01*
X147953302Y-99574366D01*
X147733511Y-99633258D01*
X147733502Y-99633261D01*
X147527267Y-99729431D01*
X147527265Y-99729432D01*
X147340858Y-99859954D01*
X147179954Y-100020858D01*
X147049432Y-100207265D01*
X147049431Y-100207267D01*
X147022382Y-100265275D01*
X146976209Y-100317714D01*
X146909016Y-100336866D01*
X146842135Y-100316650D01*
X146797618Y-100265275D01*
X146770568Y-100207266D01*
X146640047Y-100020861D01*
X146640045Y-100020858D01*
X146479141Y-99859954D01*
X146292734Y-99729432D01*
X146292732Y-99729431D01*
X146086497Y-99633261D01*
X146086488Y-99633258D01*
X145866697Y-99574366D01*
X145866693Y-99574365D01*
X145866692Y-99574365D01*
X145866691Y-99574364D01*
X145866686Y-99574364D01*
X145640002Y-99554532D01*
X145639998Y-99554532D01*
X145413313Y-99574364D01*
X145413302Y-99574366D01*
X145193511Y-99633258D01*
X145193502Y-99633261D01*
X144987267Y-99729431D01*
X144987265Y-99729432D01*
X144800858Y-99859954D01*
X144639954Y-100020858D01*
X144509432Y-100207265D01*
X144509431Y-100207267D01*
X144482382Y-100265275D01*
X144436209Y-100317714D01*
X144369016Y-100336866D01*
X144302135Y-100316650D01*
X144257618Y-100265275D01*
X144230568Y-100207266D01*
X144100047Y-100020861D01*
X144100045Y-100020858D01*
X143939141Y-99859954D01*
X143752734Y-99729432D01*
X143752732Y-99729431D01*
X143546497Y-99633261D01*
X143546488Y-99633258D01*
X143326697Y-99574366D01*
X143326693Y-99574365D01*
X143326692Y-99574365D01*
X143326691Y-99574364D01*
X143326686Y-99574364D01*
X143100002Y-99554532D01*
X143099998Y-99554532D01*
X142873313Y-99574364D01*
X142873302Y-99574366D01*
X142653511Y-99633258D01*
X142653502Y-99633261D01*
X142447267Y-99729431D01*
X142447265Y-99729432D01*
X142260858Y-99859954D01*
X142099954Y-100020858D01*
X141969432Y-100207265D01*
X141969431Y-100207267D01*
X141942382Y-100265275D01*
X141896209Y-100317714D01*
X141829016Y-100336866D01*
X141762135Y-100316650D01*
X141717618Y-100265275D01*
X141690568Y-100207266D01*
X141560047Y-100020861D01*
X141560045Y-100020858D01*
X141399141Y-99859954D01*
X141212734Y-99729432D01*
X141212732Y-99729431D01*
X141006497Y-99633261D01*
X141006488Y-99633258D01*
X140786697Y-99574366D01*
X140786693Y-99574365D01*
X140786692Y-99574365D01*
X140786691Y-99574364D01*
X140786686Y-99574364D01*
X140560002Y-99554532D01*
X140559998Y-99554532D01*
X140333313Y-99574364D01*
X140333302Y-99574366D01*
X140113511Y-99633258D01*
X140113502Y-99633261D01*
X139907267Y-99729431D01*
X139907265Y-99729432D01*
X139720858Y-99859954D01*
X139559954Y-100020858D01*
X139429432Y-100207265D01*
X139429431Y-100207267D01*
X139402382Y-100265275D01*
X139356209Y-100317714D01*
X139289016Y-100336866D01*
X139222135Y-100316650D01*
X139177618Y-100265275D01*
X139150568Y-100207266D01*
X139020047Y-100020861D01*
X139020045Y-100020858D01*
X138859141Y-99859954D01*
X138672734Y-99729432D01*
X138672732Y-99729431D01*
X138466497Y-99633261D01*
X138466488Y-99633258D01*
X138246697Y-99574366D01*
X138246693Y-99574365D01*
X138246692Y-99574365D01*
X138246691Y-99574364D01*
X138246686Y-99574364D01*
X138020002Y-99554532D01*
X138019998Y-99554532D01*
X137793313Y-99574364D01*
X137793302Y-99574366D01*
X137573511Y-99633258D01*
X137573502Y-99633261D01*
X137367267Y-99729431D01*
X137367265Y-99729432D01*
X137180858Y-99859954D01*
X137019954Y-100020858D01*
X136889432Y-100207265D01*
X136889431Y-100207267D01*
X136862382Y-100265275D01*
X136816209Y-100317714D01*
X136749016Y-100336866D01*
X136682135Y-100316650D01*
X136637618Y-100265275D01*
X136610568Y-100207266D01*
X136480047Y-100020861D01*
X136480045Y-100020858D01*
X136319141Y-99859954D01*
X136132734Y-99729432D01*
X136132732Y-99729431D01*
X135926497Y-99633261D01*
X135926488Y-99633258D01*
X135706697Y-99574366D01*
X135706693Y-99574365D01*
X135706692Y-99574365D01*
X135706691Y-99574364D01*
X135706686Y-99574364D01*
X135480002Y-99554532D01*
X135479998Y-99554532D01*
X135253313Y-99574364D01*
X135253302Y-99574366D01*
X135033511Y-99633258D01*
X135033502Y-99633261D01*
X134827267Y-99729431D01*
X134827265Y-99729432D01*
X134640858Y-99859954D01*
X134479954Y-100020858D01*
X134349432Y-100207265D01*
X134349431Y-100207267D01*
X134322382Y-100265275D01*
X134276209Y-100317714D01*
X134209016Y-100336866D01*
X134142135Y-100316650D01*
X134097618Y-100265275D01*
X134070568Y-100207266D01*
X133940047Y-100020861D01*
X133940045Y-100020858D01*
X133779141Y-99859954D01*
X133592734Y-99729432D01*
X133592732Y-99729431D01*
X133386497Y-99633261D01*
X133386488Y-99633258D01*
X133166697Y-99574366D01*
X133166693Y-99574365D01*
X133166692Y-99574365D01*
X133166691Y-99574364D01*
X133166686Y-99574364D01*
X132940002Y-99554532D01*
X132939998Y-99554532D01*
X132713313Y-99574364D01*
X132713302Y-99574366D01*
X132493511Y-99633258D01*
X132493502Y-99633261D01*
X132287267Y-99729431D01*
X132287265Y-99729432D01*
X132100858Y-99859954D01*
X131939954Y-100020858D01*
X131809432Y-100207265D01*
X131809431Y-100207267D01*
X131782382Y-100265275D01*
X131736209Y-100317714D01*
X131669016Y-100336866D01*
X131602135Y-100316650D01*
X131557618Y-100265275D01*
X131530568Y-100207266D01*
X131400047Y-100020861D01*
X131400045Y-100020858D01*
X131239141Y-99859954D01*
X131052734Y-99729432D01*
X131052732Y-99729431D01*
X130846497Y-99633261D01*
X130846488Y-99633258D01*
X130626697Y-99574366D01*
X130626693Y-99574365D01*
X130626692Y-99574365D01*
X130626691Y-99574364D01*
X130626686Y-99574364D01*
X130400002Y-99554532D01*
X130399998Y-99554532D01*
X130173313Y-99574364D01*
X130173302Y-99574366D01*
X129953511Y-99633258D01*
X129953502Y-99633261D01*
X129747267Y-99729431D01*
X129747265Y-99729432D01*
X129560858Y-99859954D01*
X129399954Y-100020858D01*
X129269432Y-100207265D01*
X129269431Y-100207267D01*
X129242382Y-100265275D01*
X129196209Y-100317714D01*
X129129016Y-100336866D01*
X129062135Y-100316650D01*
X129017618Y-100265275D01*
X128990568Y-100207266D01*
X128860047Y-100020861D01*
X128860045Y-100020858D01*
X128699141Y-99859954D01*
X128512734Y-99729432D01*
X128512732Y-99729431D01*
X128306497Y-99633261D01*
X128306488Y-99633258D01*
X128086697Y-99574366D01*
X128086693Y-99574365D01*
X128086692Y-99574365D01*
X128086691Y-99574364D01*
X128086686Y-99574364D01*
X127860002Y-99554532D01*
X127859998Y-99554532D01*
X127633313Y-99574364D01*
X127633302Y-99574366D01*
X127413511Y-99633258D01*
X127413502Y-99633261D01*
X127207267Y-99729431D01*
X127207265Y-99729432D01*
X127020858Y-99859954D01*
X126859954Y-100020858D01*
X126729763Y-100206793D01*
X126729432Y-100207266D01*
X126717758Y-100232302D01*
X126702106Y-100265867D01*
X126655933Y-100318306D01*
X126588739Y-100337457D01*
X126521858Y-100317241D01*
X126477342Y-100265865D01*
X126450135Y-100207520D01*
X126450134Y-100207518D01*
X126319657Y-100021179D01*
X126158820Y-99860342D01*
X125972482Y-99729865D01*
X125766328Y-99633734D01*
X125570000Y-99581127D01*
X125570000Y-100426988D01*
X125512993Y-100394075D01*
X125385826Y-100360000D01*
X125254174Y-100360000D01*
X125127007Y-100394075D01*
X125070000Y-100426988D01*
X125070000Y-99581127D01*
X124873671Y-99633734D01*
X124667517Y-99729865D01*
X124481179Y-99860342D01*
X124320342Y-100021179D01*
X124189867Y-100207515D01*
X124162657Y-100265867D01*
X124116484Y-100318306D01*
X124049290Y-100337457D01*
X123982409Y-100317241D01*
X123937893Y-100265865D01*
X123922242Y-100232302D01*
X123910568Y-100207266D01*
X123780047Y-100020861D01*
X123780045Y-100020858D01*
X123619141Y-99859954D01*
X123432734Y-99729432D01*
X123432732Y-99729431D01*
X123226497Y-99633261D01*
X123226488Y-99633258D01*
X123006697Y-99574366D01*
X123006693Y-99574365D01*
X123006692Y-99574365D01*
X123006691Y-99574364D01*
X123006686Y-99574364D01*
X122780002Y-99554532D01*
X122779998Y-99554532D01*
X122553313Y-99574364D01*
X122553302Y-99574366D01*
X122333511Y-99633258D01*
X122333502Y-99633261D01*
X122127267Y-99729431D01*
X122127265Y-99729432D01*
X121940858Y-99859954D01*
X121779954Y-100020858D01*
X121649432Y-100207265D01*
X121649431Y-100207267D01*
X121622382Y-100265275D01*
X121576209Y-100317714D01*
X121509016Y-100336866D01*
X121442135Y-100316650D01*
X121397618Y-100265275D01*
X121370568Y-100207266D01*
X121240047Y-100020861D01*
X121240045Y-100020858D01*
X121079141Y-99859954D01*
X120892734Y-99729432D01*
X120892732Y-99729431D01*
X120686497Y-99633261D01*
X120686488Y-99633258D01*
X120466697Y-99574366D01*
X120466693Y-99574365D01*
X120466692Y-99574365D01*
X120466691Y-99574364D01*
X120466686Y-99574364D01*
X120240002Y-99554532D01*
X120239998Y-99554532D01*
X120013313Y-99574364D01*
X120013302Y-99574366D01*
X119793511Y-99633258D01*
X119793502Y-99633261D01*
X119587267Y-99729431D01*
X119587265Y-99729432D01*
X119400858Y-99859954D01*
X119239954Y-100020858D01*
X119222725Y-100045464D01*
X119168147Y-100089088D01*
X119098648Y-100096280D01*
X119036294Y-100064757D01*
X119000882Y-100004526D01*
X118997861Y-99987591D01*
X118994091Y-99952516D01*
X118943797Y-99817671D01*
X118943793Y-99817664D01*
X118857547Y-99702455D01*
X118857544Y-99702452D01*
X118742335Y-99616206D01*
X118742328Y-99616202D01*
X118607482Y-99565908D01*
X118607483Y-99565908D01*
X118547883Y-99559501D01*
X118547881Y-99559500D01*
X118547873Y-99559500D01*
X118547864Y-99559500D01*
X116852129Y-99559500D01*
X116852123Y-99559501D01*
X116792516Y-99565908D01*
X116657671Y-99616202D01*
X116657664Y-99616206D01*
X116542455Y-99702452D01*
X116542452Y-99702455D01*
X116456206Y-99817664D01*
X116456202Y-99817671D01*
X116405908Y-99952517D01*
X116399501Y-100012116D01*
X116399500Y-100012135D01*
X115250500Y-100012135D01*
X115250500Y-85619998D01*
X116394532Y-85619998D01*
X116394532Y-85620001D01*
X116414364Y-85846686D01*
X116414366Y-85846697D01*
X116473258Y-86066488D01*
X116473261Y-86066497D01*
X116569431Y-86272732D01*
X116569432Y-86272734D01*
X116699954Y-86459141D01*
X116860858Y-86620045D01*
X116860861Y-86620047D01*
X117047266Y-86750568D01*
X117253504Y-86846739D01*
X117473308Y-86905635D01*
X117635230Y-86919801D01*
X117699998Y-86925468D01*
X117700000Y-86925468D01*
X117700002Y-86925468D01*
X117756673Y-86920509D01*
X117926692Y-86905635D01*
X118146496Y-86846739D01*
X118352734Y-86750568D01*
X118539139Y-86620047D01*
X118700047Y-86459139D01*
X118830568Y-86272734D01*
X118857895Y-86214129D01*
X118904064Y-86161695D01*
X118971257Y-86142542D01*
X119038139Y-86162757D01*
X119082657Y-86214133D01*
X119109865Y-86272482D01*
X119240342Y-86458820D01*
X119401179Y-86619657D01*
X119587517Y-86750134D01*
X119793673Y-86846265D01*
X119793682Y-86846269D01*
X119989999Y-86898872D01*
X119990000Y-86898871D01*
X119990000Y-86053012D01*
X120047007Y-86085925D01*
X120174174Y-86120000D01*
X120305826Y-86120000D01*
X120432993Y-86085925D01*
X120490000Y-86053012D01*
X120490000Y-86898872D01*
X120686317Y-86846269D01*
X120686326Y-86846265D01*
X120892482Y-86750134D01*
X121078820Y-86619657D01*
X121239657Y-86458820D01*
X121370132Y-86272484D01*
X121397341Y-86214134D01*
X121443513Y-86161695D01*
X121510707Y-86142542D01*
X121577588Y-86162757D01*
X121622106Y-86214133D01*
X121649431Y-86272732D01*
X121649432Y-86272734D01*
X121779954Y-86459141D01*
X121940858Y-86620045D01*
X121940861Y-86620047D01*
X122127266Y-86750568D01*
X122333504Y-86846739D01*
X122553308Y-86905635D01*
X122715230Y-86919801D01*
X122779998Y-86925468D01*
X122780000Y-86925468D01*
X122780002Y-86925468D01*
X122836673Y-86920509D01*
X123006692Y-86905635D01*
X123226496Y-86846739D01*
X123432734Y-86750568D01*
X123619139Y-86620047D01*
X123780047Y-86459139D01*
X123910568Y-86272734D01*
X123937618Y-86214724D01*
X123983790Y-86162285D01*
X124050983Y-86143133D01*
X124117865Y-86163348D01*
X124162382Y-86214725D01*
X124189429Y-86272728D01*
X124189432Y-86272734D01*
X124319954Y-86459141D01*
X124480858Y-86620045D01*
X124480861Y-86620047D01*
X124667266Y-86750568D01*
X124873504Y-86846739D01*
X125093308Y-86905635D01*
X125255230Y-86919801D01*
X125319998Y-86925468D01*
X125320000Y-86925468D01*
X125320002Y-86925468D01*
X125376673Y-86920509D01*
X125546692Y-86905635D01*
X125766496Y-86846739D01*
X125972734Y-86750568D01*
X126159139Y-86620047D01*
X126320047Y-86459139D01*
X126450568Y-86272734D01*
X126477618Y-86214724D01*
X126523790Y-86162285D01*
X126590983Y-86143133D01*
X126657865Y-86163348D01*
X126702382Y-86214725D01*
X126729429Y-86272728D01*
X126729432Y-86272734D01*
X126859954Y-86459141D01*
X127020858Y-86620045D01*
X127020861Y-86620047D01*
X127207266Y-86750568D01*
X127413504Y-86846739D01*
X127633308Y-86905635D01*
X127795230Y-86919801D01*
X127859998Y-86925468D01*
X127860000Y-86925468D01*
X127860002Y-86925468D01*
X127916673Y-86920509D01*
X128086692Y-86905635D01*
X128306496Y-86846739D01*
X128512734Y-86750568D01*
X128699139Y-86620047D01*
X128860047Y-86459139D01*
X128990568Y-86272734D01*
X129017618Y-86214724D01*
X129063790Y-86162285D01*
X129130983Y-86143133D01*
X129197865Y-86163348D01*
X129242382Y-86214725D01*
X129269429Y-86272728D01*
X129269432Y-86272734D01*
X129399954Y-86459141D01*
X129560858Y-86620045D01*
X129560861Y-86620047D01*
X129747266Y-86750568D01*
X129953504Y-86846739D01*
X130173308Y-86905635D01*
X130335230Y-86919801D01*
X130399998Y-86925468D01*
X130400000Y-86925468D01*
X130400002Y-86925468D01*
X130456673Y-86920509D01*
X130626692Y-86905635D01*
X130846496Y-86846739D01*
X131052734Y-86750568D01*
X131239139Y-86620047D01*
X131400047Y-86459139D01*
X131530568Y-86272734D01*
X131557618Y-86214724D01*
X131603790Y-86162285D01*
X131670983Y-86143133D01*
X131737865Y-86163348D01*
X131782382Y-86214725D01*
X131809429Y-86272728D01*
X131809432Y-86272734D01*
X131939954Y-86459141D01*
X132100858Y-86620045D01*
X132100861Y-86620047D01*
X132287266Y-86750568D01*
X132493504Y-86846739D01*
X132713308Y-86905635D01*
X132875230Y-86919801D01*
X132939998Y-86925468D01*
X132940000Y-86925468D01*
X132940002Y-86925468D01*
X132996673Y-86920509D01*
X133166692Y-86905635D01*
X133386496Y-86846739D01*
X133592734Y-86750568D01*
X133779139Y-86620047D01*
X133940047Y-86459139D01*
X134070568Y-86272734D01*
X134097618Y-86214724D01*
X134143790Y-86162285D01*
X134210983Y-86143133D01*
X134277865Y-86163348D01*
X134322382Y-86214725D01*
X134349429Y-86272728D01*
X134349432Y-86272734D01*
X134479954Y-86459141D01*
X134640858Y-86620045D01*
X134640861Y-86620047D01*
X134827266Y-86750568D01*
X135033504Y-86846739D01*
X135253308Y-86905635D01*
X135415230Y-86919801D01*
X135479998Y-86925468D01*
X135480000Y-86925468D01*
X135480002Y-86925468D01*
X135536673Y-86920509D01*
X135706692Y-86905635D01*
X135926496Y-86846739D01*
X136132734Y-86750568D01*
X136319139Y-86620047D01*
X136480047Y-86459139D01*
X136610568Y-86272734D01*
X136637618Y-86214724D01*
X136683790Y-86162285D01*
X136750983Y-86143133D01*
X136817865Y-86163348D01*
X136862382Y-86214725D01*
X136889429Y-86272728D01*
X136889432Y-86272734D01*
X137019954Y-86459141D01*
X137180858Y-86620045D01*
X137180861Y-86620047D01*
X137367266Y-86750568D01*
X137573504Y-86846739D01*
X137793308Y-86905635D01*
X137955230Y-86919801D01*
X138019998Y-86925468D01*
X138020000Y-86925468D01*
X138020002Y-86925468D01*
X138076673Y-86920509D01*
X138246692Y-86905635D01*
X138466496Y-86846739D01*
X138672734Y-86750568D01*
X138859139Y-86620047D01*
X139020047Y-86459139D01*
X139150568Y-86272734D01*
X139177618Y-86214724D01*
X139223790Y-86162285D01*
X139290983Y-86143133D01*
X139357865Y-86163348D01*
X139402382Y-86214725D01*
X139429429Y-86272728D01*
X139429432Y-86272734D01*
X139559954Y-86459141D01*
X139720858Y-86620045D01*
X139720861Y-86620047D01*
X139907266Y-86750568D01*
X140113504Y-86846739D01*
X140333308Y-86905635D01*
X140495230Y-86919801D01*
X140559998Y-86925468D01*
X140560000Y-86925468D01*
X140560002Y-86925468D01*
X140616673Y-86920509D01*
X140786692Y-86905635D01*
X141006496Y-86846739D01*
X141212734Y-86750568D01*
X141399139Y-86620047D01*
X141560047Y-86459139D01*
X141690568Y-86272734D01*
X141717618Y-86214724D01*
X141763790Y-86162285D01*
X141830983Y-86143133D01*
X141897865Y-86163348D01*
X141942382Y-86214725D01*
X141969429Y-86272728D01*
X141969432Y-86272734D01*
X142099954Y-86459141D01*
X142260858Y-86620045D01*
X142260861Y-86620047D01*
X142447266Y-86750568D01*
X142653504Y-86846739D01*
X142873308Y-86905635D01*
X143035230Y-86919801D01*
X143099998Y-86925468D01*
X143100000Y-86925468D01*
X143100002Y-86925468D01*
X143156673Y-86920509D01*
X143326692Y-86905635D01*
X143546496Y-86846739D01*
X143752734Y-86750568D01*
X143939139Y-86620047D01*
X144100047Y-86459139D01*
X144230568Y-86272734D01*
X144257618Y-86214724D01*
X144303790Y-86162285D01*
X144370983Y-86143133D01*
X144437865Y-86163348D01*
X144482382Y-86214725D01*
X144509429Y-86272728D01*
X144509432Y-86272734D01*
X144639954Y-86459141D01*
X144800858Y-86620045D01*
X144800861Y-86620047D01*
X144987266Y-86750568D01*
X145193504Y-86846739D01*
X145413308Y-86905635D01*
X145575230Y-86919801D01*
X145639998Y-86925468D01*
X145640000Y-86925468D01*
X145640002Y-86925468D01*
X145696673Y-86920509D01*
X145866692Y-86905635D01*
X146086496Y-86846739D01*
X146292734Y-86750568D01*
X146479139Y-86620047D01*
X146640047Y-86459139D01*
X146770568Y-86272734D01*
X146797618Y-86214724D01*
X146843790Y-86162285D01*
X146910983Y-86143133D01*
X146977865Y-86163348D01*
X147022382Y-86214725D01*
X147049429Y-86272728D01*
X147049432Y-86272734D01*
X147179954Y-86459141D01*
X147340858Y-86620045D01*
X147340861Y-86620047D01*
X147527266Y-86750568D01*
X147733504Y-86846739D01*
X147953308Y-86905635D01*
X148115230Y-86919801D01*
X148179998Y-86925468D01*
X148180000Y-86925468D01*
X148180002Y-86925468D01*
X148236673Y-86920509D01*
X148406692Y-86905635D01*
X148626496Y-86846739D01*
X148832734Y-86750568D01*
X149019139Y-86620047D01*
X149180047Y-86459139D01*
X149310568Y-86272734D01*
X149337618Y-86214724D01*
X149383790Y-86162285D01*
X149450983Y-86143133D01*
X149517865Y-86163348D01*
X149562382Y-86214725D01*
X149589429Y-86272728D01*
X149589432Y-86272734D01*
X149719954Y-86459141D01*
X149880858Y-86620045D01*
X149880861Y-86620047D01*
X150067266Y-86750568D01*
X150273504Y-86846739D01*
X150493308Y-86905635D01*
X150655230Y-86919801D01*
X150719998Y-86925468D01*
X150720000Y-86925468D01*
X150720002Y-86925468D01*
X150776673Y-86920509D01*
X150946692Y-86905635D01*
X151166496Y-86846739D01*
X151372734Y-86750568D01*
X151559139Y-86620047D01*
X151720047Y-86459139D01*
X151850568Y-86272734D01*
X151877618Y-86214724D01*
X151923790Y-86162285D01*
X151990983Y-86143133D01*
X152057865Y-86163348D01*
X152102382Y-86214725D01*
X152129429Y-86272728D01*
X152129432Y-86272734D01*
X152259954Y-86459141D01*
X152420858Y-86620045D01*
X152420861Y-86620047D01*
X152607266Y-86750568D01*
X152813504Y-86846739D01*
X153033308Y-86905635D01*
X153195230Y-86919801D01*
X153259998Y-86925468D01*
X153260000Y-86925468D01*
X153260002Y-86925468D01*
X153316673Y-86920509D01*
X153486692Y-86905635D01*
X153706496Y-86846739D01*
X153912734Y-86750568D01*
X154099139Y-86620047D01*
X154260047Y-86459139D01*
X154390568Y-86272734D01*
X154486739Y-86066496D01*
X154545635Y-85846692D01*
X154565468Y-85620000D01*
X154545635Y-85393308D01*
X154486739Y-85173504D01*
X154390568Y-84967266D01*
X154260047Y-84780861D01*
X154260045Y-84780858D01*
X154099141Y-84619954D01*
X153912734Y-84489432D01*
X153912732Y-84489431D01*
X153706497Y-84393261D01*
X153706488Y-84393258D01*
X153486697Y-84334366D01*
X153486693Y-84334365D01*
X153486692Y-84334365D01*
X153486691Y-84334364D01*
X153486686Y-84334364D01*
X153260002Y-84314532D01*
X153259998Y-84314532D01*
X153033313Y-84334364D01*
X153033302Y-84334366D01*
X152813511Y-84393258D01*
X152813502Y-84393261D01*
X152607267Y-84489431D01*
X152607265Y-84489432D01*
X152420858Y-84619954D01*
X152259954Y-84780858D01*
X152129432Y-84967265D01*
X152129431Y-84967267D01*
X152102382Y-85025275D01*
X152056209Y-85077714D01*
X151989016Y-85096866D01*
X151922135Y-85076650D01*
X151877618Y-85025275D01*
X151850686Y-84967520D01*
X151850568Y-84967266D01*
X151720047Y-84780861D01*
X151720045Y-84780858D01*
X151559141Y-84619954D01*
X151372734Y-84489432D01*
X151372732Y-84489431D01*
X151166497Y-84393261D01*
X151166488Y-84393258D01*
X150946697Y-84334366D01*
X150946693Y-84334365D01*
X150946692Y-84334365D01*
X150946691Y-84334364D01*
X150946686Y-84334364D01*
X150720002Y-84314532D01*
X150719998Y-84314532D01*
X150493313Y-84334364D01*
X150493302Y-84334366D01*
X150273511Y-84393258D01*
X150273502Y-84393261D01*
X150067267Y-84489431D01*
X150067265Y-84489432D01*
X149880858Y-84619954D01*
X149719954Y-84780858D01*
X149589432Y-84967265D01*
X149589431Y-84967267D01*
X149562382Y-85025275D01*
X149516209Y-85077714D01*
X149449016Y-85096866D01*
X149382135Y-85076650D01*
X149337618Y-85025275D01*
X149310686Y-84967520D01*
X149310568Y-84967266D01*
X149180047Y-84780861D01*
X149180045Y-84780858D01*
X149019141Y-84619954D01*
X148832734Y-84489432D01*
X148832732Y-84489431D01*
X148626497Y-84393261D01*
X148626488Y-84393258D01*
X148406697Y-84334366D01*
X148406693Y-84334365D01*
X148406692Y-84334365D01*
X148406691Y-84334364D01*
X148406686Y-84334364D01*
X148180002Y-84314532D01*
X148179998Y-84314532D01*
X147953313Y-84334364D01*
X147953302Y-84334366D01*
X147733511Y-84393258D01*
X147733502Y-84393261D01*
X147527267Y-84489431D01*
X147527265Y-84489432D01*
X147340858Y-84619954D01*
X147179954Y-84780858D01*
X147049432Y-84967265D01*
X147049431Y-84967267D01*
X147022382Y-85025275D01*
X146976209Y-85077714D01*
X146909016Y-85096866D01*
X146842135Y-85076650D01*
X146797618Y-85025275D01*
X146770686Y-84967520D01*
X146770568Y-84967266D01*
X146640047Y-84780861D01*
X146640045Y-84780858D01*
X146479141Y-84619954D01*
X146292734Y-84489432D01*
X146292732Y-84489431D01*
X146086497Y-84393261D01*
X146086488Y-84393258D01*
X145866697Y-84334366D01*
X145866693Y-84334365D01*
X145866692Y-84334365D01*
X145866691Y-84334364D01*
X145866686Y-84334364D01*
X145640002Y-84314532D01*
X145639998Y-84314532D01*
X145413313Y-84334364D01*
X145413302Y-84334366D01*
X145193511Y-84393258D01*
X145193502Y-84393261D01*
X144987267Y-84489431D01*
X144987265Y-84489432D01*
X144800858Y-84619954D01*
X144639954Y-84780858D01*
X144509432Y-84967265D01*
X144509431Y-84967267D01*
X144482382Y-85025275D01*
X144436209Y-85077714D01*
X144369016Y-85096866D01*
X144302135Y-85076650D01*
X144257618Y-85025275D01*
X144230686Y-84967520D01*
X144230568Y-84967266D01*
X144100047Y-84780861D01*
X144100045Y-84780858D01*
X143939141Y-84619954D01*
X143752734Y-84489432D01*
X143752732Y-84489431D01*
X143546497Y-84393261D01*
X143546488Y-84393258D01*
X143326697Y-84334366D01*
X143326693Y-84334365D01*
X143326692Y-84334365D01*
X143326691Y-84334364D01*
X143326686Y-84334364D01*
X143100002Y-84314532D01*
X143099998Y-84314532D01*
X142873313Y-84334364D01*
X142873302Y-84334366D01*
X142653511Y-84393258D01*
X142653502Y-84393261D01*
X142447267Y-84489431D01*
X142447265Y-84489432D01*
X142260858Y-84619954D01*
X142099954Y-84780858D01*
X141969432Y-84967265D01*
X141969431Y-84967267D01*
X141942382Y-85025275D01*
X141896209Y-85077714D01*
X141829016Y-85096866D01*
X141762135Y-85076650D01*
X141717618Y-85025275D01*
X141690686Y-84967520D01*
X141690568Y-84967266D01*
X141560047Y-84780861D01*
X141560045Y-84780858D01*
X141399141Y-84619954D01*
X141212734Y-84489432D01*
X141212732Y-84489431D01*
X141006497Y-84393261D01*
X141006488Y-84393258D01*
X140786697Y-84334366D01*
X140786693Y-84334365D01*
X140786692Y-84334365D01*
X140786691Y-84334364D01*
X140786686Y-84334364D01*
X140560002Y-84314532D01*
X140559998Y-84314532D01*
X140333313Y-84334364D01*
X140333302Y-84334366D01*
X140113511Y-84393258D01*
X140113502Y-84393261D01*
X139907267Y-84489431D01*
X139907265Y-84489432D01*
X139720858Y-84619954D01*
X139559954Y-84780858D01*
X139429432Y-84967265D01*
X139429431Y-84967267D01*
X139402382Y-85025275D01*
X139356209Y-85077714D01*
X139289016Y-85096866D01*
X139222135Y-85076650D01*
X139177618Y-85025275D01*
X139150686Y-84967520D01*
X139150568Y-84967266D01*
X139020047Y-84780861D01*
X139020045Y-84780858D01*
X138859141Y-84619954D01*
X138672734Y-84489432D01*
X138672732Y-84489431D01*
X138466497Y-84393261D01*
X138466488Y-84393258D01*
X138246697Y-84334366D01*
X138246693Y-84334365D01*
X138246692Y-84334365D01*
X138246691Y-84334364D01*
X138246686Y-84334364D01*
X138020002Y-84314532D01*
X138019998Y-84314532D01*
X137793313Y-84334364D01*
X137793302Y-84334366D01*
X137573511Y-84393258D01*
X137573502Y-84393261D01*
X137367267Y-84489431D01*
X137367265Y-84489432D01*
X137180858Y-84619954D01*
X137019954Y-84780858D01*
X136889432Y-84967265D01*
X136889431Y-84967267D01*
X136862382Y-85025275D01*
X136816209Y-85077714D01*
X136749016Y-85096866D01*
X136682135Y-85076650D01*
X136637618Y-85025275D01*
X136610686Y-84967520D01*
X136610568Y-84967266D01*
X136480047Y-84780861D01*
X136480045Y-84780858D01*
X136319141Y-84619954D01*
X136132734Y-84489432D01*
X136132732Y-84489431D01*
X135926497Y-84393261D01*
X135926488Y-84393258D01*
X135706697Y-84334366D01*
X135706693Y-84334365D01*
X135706692Y-84334365D01*
X135706691Y-84334364D01*
X135706686Y-84334364D01*
X135480002Y-84314532D01*
X135479998Y-84314532D01*
X135253313Y-84334364D01*
X135253302Y-84334366D01*
X135033511Y-84393258D01*
X135033502Y-84393261D01*
X134827267Y-84489431D01*
X134827265Y-84489432D01*
X134640858Y-84619954D01*
X134479954Y-84780858D01*
X134349432Y-84967265D01*
X134349431Y-84967267D01*
X134322382Y-85025275D01*
X134276209Y-85077714D01*
X134209016Y-85096866D01*
X134142135Y-85076650D01*
X134097618Y-85025275D01*
X134070686Y-84967520D01*
X134070568Y-84967266D01*
X133940047Y-84780861D01*
X133940045Y-84780858D01*
X133779141Y-84619954D01*
X133592734Y-84489432D01*
X133592732Y-84489431D01*
X133386497Y-84393261D01*
X133386488Y-84393258D01*
X133166697Y-84334366D01*
X133166693Y-84334365D01*
X133166692Y-84334365D01*
X133166691Y-84334364D01*
X133166686Y-84334364D01*
X132940002Y-84314532D01*
X132939998Y-84314532D01*
X132713313Y-84334364D01*
X132713302Y-84334366D01*
X132493511Y-84393258D01*
X132493502Y-84393261D01*
X132287267Y-84489431D01*
X132287265Y-84489432D01*
X132100858Y-84619954D01*
X131939954Y-84780858D01*
X131809432Y-84967265D01*
X131809431Y-84967267D01*
X131782382Y-85025275D01*
X131736209Y-85077714D01*
X131669016Y-85096866D01*
X131602135Y-85076650D01*
X131557618Y-85025275D01*
X131530686Y-84967520D01*
X131530568Y-84967266D01*
X131400047Y-84780861D01*
X131400045Y-84780858D01*
X131239141Y-84619954D01*
X131052734Y-84489432D01*
X131052732Y-84489431D01*
X130846497Y-84393261D01*
X130846488Y-84393258D01*
X130626697Y-84334366D01*
X130626693Y-84334365D01*
X130626692Y-84334365D01*
X130626691Y-84334364D01*
X130626686Y-84334364D01*
X130400002Y-84314532D01*
X130399998Y-84314532D01*
X130173313Y-84334364D01*
X130173302Y-84334366D01*
X129953511Y-84393258D01*
X129953502Y-84393261D01*
X129747267Y-84489431D01*
X129747265Y-84489432D01*
X129560858Y-84619954D01*
X129399954Y-84780858D01*
X129269432Y-84967265D01*
X129269431Y-84967267D01*
X129242382Y-85025275D01*
X129196209Y-85077714D01*
X129129016Y-85096866D01*
X129062135Y-85076650D01*
X129017618Y-85025275D01*
X128990686Y-84967520D01*
X128990568Y-84967266D01*
X128860047Y-84780861D01*
X128860045Y-84780858D01*
X128699141Y-84619954D01*
X128512734Y-84489432D01*
X128512732Y-84489431D01*
X128306497Y-84393261D01*
X128306488Y-84393258D01*
X128086697Y-84334366D01*
X128086693Y-84334365D01*
X128086692Y-84334365D01*
X128086691Y-84334364D01*
X128086686Y-84334364D01*
X127860002Y-84314532D01*
X127859998Y-84314532D01*
X127633313Y-84334364D01*
X127633302Y-84334366D01*
X127413511Y-84393258D01*
X127413502Y-84393261D01*
X127207267Y-84489431D01*
X127207265Y-84489432D01*
X127020858Y-84619954D01*
X126859954Y-84780858D01*
X126729432Y-84967265D01*
X126729431Y-84967267D01*
X126702382Y-85025275D01*
X126656209Y-85077714D01*
X126589016Y-85096866D01*
X126522135Y-85076650D01*
X126477618Y-85025275D01*
X126450686Y-84967520D01*
X126450568Y-84967266D01*
X126320047Y-84780861D01*
X126320045Y-84780858D01*
X126159141Y-84619954D01*
X125972734Y-84489432D01*
X125972732Y-84489431D01*
X125766497Y-84393261D01*
X125766488Y-84393258D01*
X125546697Y-84334366D01*
X125546693Y-84334365D01*
X125546692Y-84334365D01*
X125546691Y-84334364D01*
X125546686Y-84334364D01*
X125320002Y-84314532D01*
X125319998Y-84314532D01*
X125093313Y-84334364D01*
X125093302Y-84334366D01*
X124873511Y-84393258D01*
X124873502Y-84393261D01*
X124667267Y-84489431D01*
X124667265Y-84489432D01*
X124480858Y-84619954D01*
X124319954Y-84780858D01*
X124189432Y-84967265D01*
X124189431Y-84967267D01*
X124162382Y-85025275D01*
X124116209Y-85077714D01*
X124049016Y-85096866D01*
X123982135Y-85076650D01*
X123937618Y-85025275D01*
X123910686Y-84967520D01*
X123910568Y-84967266D01*
X123780047Y-84780861D01*
X123780045Y-84780858D01*
X123619141Y-84619954D01*
X123432734Y-84489432D01*
X123432732Y-84489431D01*
X123226497Y-84393261D01*
X123226488Y-84393258D01*
X123006697Y-84334366D01*
X123006693Y-84334365D01*
X123006692Y-84334365D01*
X123006691Y-84334364D01*
X123006686Y-84334364D01*
X122780002Y-84314532D01*
X122779998Y-84314532D01*
X122553313Y-84334364D01*
X122553302Y-84334366D01*
X122333511Y-84393258D01*
X122333502Y-84393261D01*
X122127267Y-84489431D01*
X122127265Y-84489432D01*
X121940858Y-84619954D01*
X121779954Y-84780858D01*
X121649433Y-84967264D01*
X121649432Y-84967266D01*
X121649315Y-84967518D01*
X121622106Y-85025867D01*
X121575933Y-85078306D01*
X121508739Y-85097457D01*
X121441858Y-85077241D01*
X121397342Y-85025865D01*
X121370135Y-84967520D01*
X121370134Y-84967518D01*
X121239657Y-84781179D01*
X121078820Y-84620342D01*
X120892482Y-84489865D01*
X120686328Y-84393734D01*
X120490000Y-84341127D01*
X120490000Y-85186988D01*
X120432993Y-85154075D01*
X120305826Y-85120000D01*
X120174174Y-85120000D01*
X120047007Y-85154075D01*
X119990000Y-85186988D01*
X119990000Y-84341127D01*
X119793671Y-84393734D01*
X119587517Y-84489865D01*
X119401179Y-84620342D01*
X119240342Y-84781179D01*
X119109867Y-84967515D01*
X119082657Y-85025867D01*
X119036484Y-85078306D01*
X118969290Y-85097457D01*
X118902409Y-85077241D01*
X118857893Y-85025865D01*
X118830685Y-84967518D01*
X118830568Y-84967266D01*
X118700047Y-84780861D01*
X118700045Y-84780858D01*
X118539141Y-84619954D01*
X118352734Y-84489432D01*
X118352732Y-84489431D01*
X118146497Y-84393261D01*
X118146488Y-84393258D01*
X117926697Y-84334366D01*
X117926693Y-84334365D01*
X117926692Y-84334365D01*
X117926691Y-84334364D01*
X117926686Y-84334364D01*
X117700002Y-84314532D01*
X117699998Y-84314532D01*
X117473313Y-84334364D01*
X117473302Y-84334366D01*
X117253511Y-84393258D01*
X117253502Y-84393261D01*
X117047267Y-84489431D01*
X117047265Y-84489432D01*
X116860858Y-84619954D01*
X116699954Y-84780858D01*
X116569432Y-84967265D01*
X116569431Y-84967267D01*
X116473261Y-85173502D01*
X116473258Y-85173511D01*
X116414366Y-85393302D01*
X116414364Y-85393313D01*
X116394532Y-85619998D01*
X115250500Y-85619998D01*
X115250500Y-82014993D01*
X167844700Y-82014993D01*
X167844700Y-82015006D01*
X167863864Y-82246297D01*
X167863866Y-82246308D01*
X167920842Y-82471300D01*
X168014075Y-82683848D01*
X168141016Y-82878147D01*
X168141019Y-82878151D01*
X168141021Y-82878153D01*
X168298216Y-83048913D01*
X168298219Y-83048915D01*
X168298222Y-83048918D01*
X168481365Y-83191464D01*
X168481371Y-83191468D01*
X168481374Y-83191470D01*
X168685497Y-83301936D01*
X168799487Y-83341068D01*
X168905015Y-83377297D01*
X168905017Y-83377297D01*
X168905019Y-83377298D01*
X169133951Y-83415500D01*
X169133952Y-83415500D01*
X169366048Y-83415500D01*
X169366049Y-83415500D01*
X169594981Y-83377298D01*
X169814503Y-83301936D01*
X170018626Y-83191470D01*
X170201784Y-83048913D01*
X170358979Y-82878153D01*
X170485924Y-82683849D01*
X170579157Y-82471300D01*
X170636134Y-82246305D01*
X170655300Y-82015000D01*
X170655300Y-82014993D01*
X170636135Y-81783702D01*
X170636133Y-81783691D01*
X170579157Y-81558699D01*
X170485924Y-81346151D01*
X170358983Y-81151852D01*
X170358980Y-81151849D01*
X170358979Y-81151847D01*
X170264195Y-81048884D01*
X170233275Y-80986232D01*
X170241135Y-80916806D01*
X170285283Y-80862651D01*
X170312095Y-80848722D01*
X170313160Y-80848325D01*
X170392331Y-80818796D01*
X170507546Y-80732546D01*
X170593796Y-80617331D01*
X170644091Y-80482483D01*
X170650500Y-80422873D01*
X170650499Y-78527128D01*
X170644091Y-78467517D01*
X170594038Y-78333319D01*
X170593797Y-78332671D01*
X170593793Y-78332664D01*
X170507547Y-78217455D01*
X170507544Y-78217452D01*
X170392335Y-78131206D01*
X170392328Y-78131202D01*
X170257482Y-78080908D01*
X170257483Y-78080908D01*
X170197883Y-78074501D01*
X170197881Y-78074500D01*
X170197873Y-78074500D01*
X170197864Y-78074500D01*
X168302129Y-78074500D01*
X168302123Y-78074501D01*
X168242516Y-78080908D01*
X168107671Y-78131202D01*
X168107664Y-78131206D01*
X167992455Y-78217452D01*
X167992452Y-78217455D01*
X167906206Y-78332664D01*
X167906202Y-78332671D01*
X167855908Y-78467517D01*
X167852416Y-78500002D01*
X167849501Y-78527123D01*
X167849500Y-78527135D01*
X167849500Y-80422870D01*
X167849501Y-80422876D01*
X167855908Y-80482483D01*
X167906202Y-80617328D01*
X167906206Y-80617335D01*
X167992452Y-80732544D01*
X167992455Y-80732547D01*
X168107664Y-80818793D01*
X168107673Y-80818798D01*
X168187904Y-80848722D01*
X168243838Y-80890593D01*
X168268256Y-80956057D01*
X168253405Y-81024330D01*
X168235802Y-81048886D01*
X168141019Y-81151849D01*
X168014075Y-81346151D01*
X167920842Y-81558699D01*
X167863866Y-81783691D01*
X167863864Y-81783702D01*
X167844700Y-82014993D01*
X115250500Y-82014993D01*
X115250500Y-79999997D01*
X133445034Y-79999997D01*
X133445034Y-80000002D01*
X133464858Y-80226599D01*
X133464860Y-80226610D01*
X133523730Y-80446317D01*
X133523735Y-80446331D01*
X133619863Y-80652478D01*
X133670974Y-80725472D01*
X134350000Y-80046446D01*
X134350000Y-80052661D01*
X134377259Y-80154394D01*
X134429920Y-80245606D01*
X134504394Y-80320080D01*
X134595606Y-80372741D01*
X134697339Y-80400000D01*
X134703553Y-80400000D01*
X134024526Y-81079025D01*
X134097513Y-81130132D01*
X134097521Y-81130136D01*
X134303668Y-81226264D01*
X134303682Y-81226269D01*
X134523389Y-81285139D01*
X134523400Y-81285141D01*
X134749998Y-81304966D01*
X134750002Y-81304966D01*
X134976599Y-81285141D01*
X134976610Y-81285139D01*
X135196317Y-81226269D01*
X135196331Y-81226264D01*
X135402478Y-81130136D01*
X135475471Y-81079024D01*
X134796447Y-80400000D01*
X134802661Y-80400000D01*
X134904394Y-80372741D01*
X134995606Y-80320080D01*
X135070080Y-80245606D01*
X135122741Y-80154394D01*
X135150000Y-80052661D01*
X135150000Y-80046447D01*
X135829024Y-80725471D01*
X135880136Y-80652478D01*
X135976264Y-80446331D01*
X135976269Y-80446317D01*
X136035139Y-80226610D01*
X136035141Y-80226599D01*
X136054966Y-80000002D01*
X136054966Y-79999998D01*
X138444532Y-79999998D01*
X138444532Y-80000001D01*
X138464364Y-80226686D01*
X138464366Y-80226697D01*
X138523258Y-80446488D01*
X138523261Y-80446497D01*
X138619431Y-80652732D01*
X138619432Y-80652734D01*
X138749954Y-80839141D01*
X138910858Y-81000045D01*
X138910861Y-81000047D01*
X139097266Y-81130568D01*
X139303504Y-81226739D01*
X139523308Y-81285635D01*
X139685230Y-81299801D01*
X139749998Y-81305468D01*
X139750000Y-81305468D01*
X139750002Y-81305468D01*
X139806673Y-81300509D01*
X139976692Y-81285635D01*
X140196496Y-81226739D01*
X140402734Y-81130568D01*
X140589139Y-81000047D01*
X140750047Y-80839139D01*
X140880568Y-80652734D01*
X140976739Y-80446496D01*
X141035635Y-80226692D01*
X141055468Y-80000000D01*
X141035635Y-79773308D01*
X140976739Y-79553504D01*
X140880568Y-79347266D01*
X140750047Y-79160861D01*
X140750045Y-79160858D01*
X140589141Y-78999954D01*
X140402734Y-78869432D01*
X140402732Y-78869431D01*
X140196497Y-78773261D01*
X140196488Y-78773258D01*
X139976697Y-78714366D01*
X139976693Y-78714365D01*
X139976692Y-78714365D01*
X139976691Y-78714364D01*
X139976686Y-78714364D01*
X139750002Y-78694532D01*
X139749998Y-78694532D01*
X139523313Y-78714364D01*
X139523302Y-78714366D01*
X139303511Y-78773258D01*
X139303502Y-78773261D01*
X139097267Y-78869431D01*
X139097265Y-78869432D01*
X138910858Y-78999954D01*
X138749954Y-79160858D01*
X138619432Y-79347265D01*
X138619431Y-79347267D01*
X138523261Y-79553502D01*
X138523258Y-79553511D01*
X138464366Y-79773302D01*
X138464364Y-79773313D01*
X138444532Y-79999998D01*
X136054966Y-79999998D01*
X136054966Y-79999997D01*
X136035141Y-79773400D01*
X136035139Y-79773389D01*
X135976269Y-79553682D01*
X135976264Y-79553668D01*
X135880136Y-79347521D01*
X135880132Y-79347513D01*
X135829025Y-79274526D01*
X135150000Y-79953551D01*
X135150000Y-79947339D01*
X135122741Y-79845606D01*
X135070080Y-79754394D01*
X134995606Y-79679920D01*
X134904394Y-79627259D01*
X134802661Y-79600000D01*
X134796448Y-79600000D01*
X135475472Y-78920974D01*
X135402478Y-78869863D01*
X135196331Y-78773735D01*
X135196317Y-78773730D01*
X134976610Y-78714860D01*
X134976599Y-78714858D01*
X134750002Y-78695034D01*
X134749998Y-78695034D01*
X134523400Y-78714858D01*
X134523389Y-78714860D01*
X134303682Y-78773730D01*
X134303673Y-78773734D01*
X134097516Y-78869866D01*
X134097512Y-78869868D01*
X134024526Y-78920973D01*
X134024526Y-78920974D01*
X134703553Y-79600000D01*
X134697339Y-79600000D01*
X134595606Y-79627259D01*
X134504394Y-79679920D01*
X134429920Y-79754394D01*
X134377259Y-79845606D01*
X134350000Y-79947339D01*
X134350000Y-79953552D01*
X133670974Y-79274526D01*
X133670973Y-79274526D01*
X133619868Y-79347512D01*
X133619866Y-79347516D01*
X133523734Y-79553673D01*
X133523730Y-79553682D01*
X133464860Y-79773389D01*
X133464858Y-79773400D01*
X133445034Y-79999997D01*
X115250500Y-79999997D01*
X115250500Y-77112230D01*
X115270185Y-77045191D01*
X115286819Y-77024549D01*
X115311368Y-77000000D01*
X120101920Y-77000000D01*
X120122211Y-77257820D01*
X120182582Y-77509285D01*
X120281549Y-77748213D01*
X120416673Y-77968714D01*
X120416676Y-77968719D01*
X120421767Y-77974679D01*
X121110690Y-77285756D01*
X121129668Y-77331574D01*
X121206274Y-77446224D01*
X121303776Y-77543726D01*
X121418426Y-77620332D01*
X121464242Y-77639309D01*
X120775319Y-78328232D01*
X120781283Y-78333325D01*
X121001786Y-78468450D01*
X121240714Y-78567417D01*
X121492179Y-78627788D01*
X121750000Y-78648079D01*
X122007820Y-78627788D01*
X122259285Y-78567417D01*
X122422052Y-78499997D01*
X150445034Y-78499997D01*
X150445034Y-78500002D01*
X150464858Y-78726599D01*
X150464860Y-78726610D01*
X150523730Y-78946317D01*
X150523735Y-78946331D01*
X150619863Y-79152478D01*
X150670974Y-79225472D01*
X151350000Y-78546446D01*
X151350000Y-78552661D01*
X151377259Y-78654394D01*
X151429920Y-78745606D01*
X151504394Y-78820080D01*
X151595606Y-78872741D01*
X151697339Y-78900000D01*
X151703553Y-78900000D01*
X151024526Y-79579025D01*
X151097513Y-79630132D01*
X151097521Y-79630136D01*
X151303668Y-79726264D01*
X151303682Y-79726269D01*
X151523389Y-79785139D01*
X151523400Y-79785141D01*
X151749998Y-79804966D01*
X151750002Y-79804966D01*
X151976599Y-79785141D01*
X151976610Y-79785139D01*
X152196317Y-79726269D01*
X152196331Y-79726264D01*
X152402478Y-79630136D01*
X152475471Y-79579024D01*
X151796447Y-78900000D01*
X151802661Y-78900000D01*
X151904394Y-78872741D01*
X151995606Y-78820080D01*
X152070080Y-78745606D01*
X152122741Y-78654394D01*
X152150000Y-78552661D01*
X152150000Y-78546447D01*
X152829024Y-79225471D01*
X152880136Y-79152478D01*
X152976264Y-78946331D01*
X152976269Y-78946317D01*
X153035139Y-78726610D01*
X153035141Y-78726599D01*
X153054966Y-78500002D01*
X153054966Y-78499997D01*
X153035141Y-78273400D01*
X153035139Y-78273389D01*
X152976269Y-78053682D01*
X152976264Y-78053668D01*
X152880136Y-77847521D01*
X152880132Y-77847513D01*
X152829025Y-77774526D01*
X152150000Y-78453551D01*
X152150000Y-78447339D01*
X152122741Y-78345606D01*
X152070080Y-78254394D01*
X151995606Y-78179920D01*
X151904394Y-78127259D01*
X151802661Y-78100000D01*
X151796448Y-78100000D01*
X152475472Y-77420974D01*
X152402478Y-77369863D01*
X152196331Y-77273735D01*
X152196317Y-77273730D01*
X151976610Y-77214860D01*
X151976599Y-77214858D01*
X151750002Y-77195034D01*
X151749998Y-77195034D01*
X151523400Y-77214858D01*
X151523389Y-77214860D01*
X151303682Y-77273730D01*
X151303673Y-77273734D01*
X151097516Y-77369866D01*
X151097512Y-77369868D01*
X151024526Y-77420973D01*
X151024526Y-77420974D01*
X151703553Y-78100000D01*
X151697339Y-78100000D01*
X151595606Y-78127259D01*
X151504394Y-78179920D01*
X151429920Y-78254394D01*
X151377259Y-78345606D01*
X151350000Y-78447339D01*
X151350000Y-78453552D01*
X150670974Y-77774526D01*
X150670973Y-77774526D01*
X150619868Y-77847512D01*
X150619866Y-77847516D01*
X150523734Y-78053673D01*
X150523730Y-78053682D01*
X150464860Y-78273389D01*
X150464858Y-78273400D01*
X150445034Y-78499997D01*
X122422052Y-78499997D01*
X122498213Y-78468450D01*
X122718713Y-78333326D01*
X122718723Y-78333319D01*
X122724678Y-78328232D01*
X122724678Y-78328231D01*
X122035756Y-77639309D01*
X122081574Y-77620332D01*
X122196224Y-77543726D01*
X122293726Y-77446224D01*
X122370332Y-77331574D01*
X122389309Y-77285756D01*
X123078231Y-77974678D01*
X123078232Y-77974678D01*
X123083319Y-77968723D01*
X123083326Y-77968713D01*
X123218450Y-77748213D01*
X123317417Y-77509285D01*
X123377788Y-77257820D01*
X123398079Y-77000000D01*
X123377788Y-76742179D01*
X123317417Y-76490714D01*
X123218450Y-76251786D01*
X123217356Y-76250000D01*
X145851920Y-76250000D01*
X145872211Y-76507820D01*
X145932582Y-76759285D01*
X146031549Y-76998213D01*
X146166673Y-77218714D01*
X146166676Y-77218719D01*
X146171767Y-77224679D01*
X146860690Y-76535756D01*
X146879668Y-76581574D01*
X146956274Y-76696224D01*
X147053776Y-76793726D01*
X147168426Y-76870332D01*
X147214242Y-76889309D01*
X146525319Y-77578232D01*
X146531283Y-77583325D01*
X146751786Y-77718450D01*
X146990714Y-77817417D01*
X147242179Y-77877788D01*
X147500000Y-77898079D01*
X147757820Y-77877788D01*
X148009285Y-77817417D01*
X148248213Y-77718450D01*
X148468713Y-77583326D01*
X148468723Y-77583319D01*
X148474678Y-77578232D01*
X148474678Y-77578231D01*
X147785756Y-76889309D01*
X147831574Y-76870332D01*
X147946224Y-76793726D01*
X148043726Y-76696224D01*
X148120332Y-76581574D01*
X148139309Y-76535756D01*
X148828231Y-77224678D01*
X148828232Y-77224678D01*
X148833319Y-77218723D01*
X148833326Y-77218713D01*
X148968450Y-76998213D01*
X149067417Y-76759285D01*
X149127788Y-76507820D01*
X149148079Y-76250000D01*
X149127788Y-75992179D01*
X149067417Y-75740714D01*
X148968450Y-75501786D01*
X148833325Y-75281283D01*
X148828232Y-75275319D01*
X148139309Y-75964242D01*
X148120332Y-75918426D01*
X148043726Y-75803776D01*
X147946224Y-75706274D01*
X147831574Y-75629668D01*
X147785756Y-75610689D01*
X148474679Y-74921767D01*
X148474679Y-74921766D01*
X148468719Y-74916676D01*
X148468714Y-74916673D01*
X148248213Y-74781549D01*
X148009285Y-74682582D01*
X147757820Y-74622211D01*
X147500000Y-74601920D01*
X147242179Y-74622211D01*
X146990714Y-74682582D01*
X146751786Y-74781549D01*
X146531289Y-74916670D01*
X146531273Y-74916682D01*
X146525320Y-74921766D01*
X147214243Y-75610689D01*
X147168426Y-75629668D01*
X147053776Y-75706274D01*
X146956274Y-75803776D01*
X146879668Y-75918426D01*
X146860690Y-75964243D01*
X146171766Y-75275320D01*
X146166682Y-75281273D01*
X146166670Y-75281289D01*
X146031549Y-75501786D01*
X145932582Y-75740714D01*
X145872211Y-75992179D01*
X145851920Y-76250000D01*
X123217356Y-76250000D01*
X123083325Y-76031283D01*
X123078232Y-76025319D01*
X122389309Y-76714242D01*
X122370332Y-76668426D01*
X122293726Y-76553776D01*
X122196224Y-76456274D01*
X122081574Y-76379668D01*
X122035756Y-76360689D01*
X122724679Y-75671767D01*
X122724679Y-75671766D01*
X122718719Y-75666676D01*
X122718714Y-75666673D01*
X122498213Y-75531549D01*
X122259285Y-75432582D01*
X122007820Y-75372211D01*
X121750000Y-75351920D01*
X121492179Y-75372211D01*
X121240714Y-75432582D01*
X121001786Y-75531549D01*
X120781289Y-75666670D01*
X120781273Y-75666682D01*
X120775320Y-75671766D01*
X121464243Y-76360689D01*
X121418426Y-76379668D01*
X121303776Y-76456274D01*
X121206274Y-76553776D01*
X121129668Y-76668426D01*
X121110690Y-76714243D01*
X120421766Y-76025320D01*
X120416682Y-76031273D01*
X120416670Y-76031289D01*
X120281549Y-76251786D01*
X120182582Y-76490714D01*
X120122211Y-76742179D01*
X120101920Y-77000000D01*
X115311368Y-77000000D01*
X117204549Y-75106819D01*
X117265872Y-75073334D01*
X117292230Y-75070500D01*
X132323337Y-75070500D01*
X132390376Y-75090185D01*
X132424912Y-75123377D01*
X132449954Y-75159141D01*
X132610858Y-75320045D01*
X132610861Y-75320047D01*
X132797266Y-75450568D01*
X133003504Y-75546739D01*
X133223308Y-75605635D01*
X133385230Y-75619801D01*
X133449998Y-75625468D01*
X133450000Y-75625468D01*
X133450002Y-75625468D01*
X133506673Y-75620509D01*
X133676692Y-75605635D01*
X133896496Y-75546739D01*
X134102734Y-75450568D01*
X134289139Y-75320047D01*
X134450047Y-75159139D01*
X134580568Y-74972734D01*
X134676739Y-74766496D01*
X134735635Y-74546692D01*
X134755468Y-74320000D01*
X134735635Y-74093308D01*
X134676739Y-73873504D01*
X134580568Y-73667266D01*
X134450047Y-73480861D01*
X134450045Y-73480858D01*
X134289141Y-73319954D01*
X134102734Y-73189432D01*
X134102728Y-73189429D01*
X134044725Y-73162382D01*
X133992285Y-73116210D01*
X133973133Y-73049017D01*
X133993348Y-72982135D01*
X134044725Y-72937618D01*
X134102734Y-72910568D01*
X134289139Y-72780047D01*
X134450047Y-72619139D01*
X134580568Y-72432734D01*
X134676739Y-72226496D01*
X134735635Y-72006692D01*
X134755468Y-71780000D01*
X134735635Y-71553308D01*
X134676739Y-71333504D01*
X134580568Y-71127266D01*
X134450047Y-70940861D01*
X134450045Y-70940858D01*
X134289141Y-70779954D01*
X134102734Y-70649432D01*
X134102728Y-70649429D01*
X134044725Y-70622382D01*
X133992285Y-70576210D01*
X133973133Y-70509017D01*
X133993348Y-70442135D01*
X134044725Y-70397618D01*
X134102734Y-70370568D01*
X134289139Y-70240047D01*
X134450047Y-70079139D01*
X134580568Y-69892734D01*
X134676739Y-69686496D01*
X134735635Y-69466692D01*
X134755468Y-69240000D01*
X134735635Y-69013308D01*
X134676739Y-68793504D01*
X134580568Y-68587266D01*
X134450047Y-68400861D01*
X134450045Y-68400858D01*
X134289143Y-68239956D01*
X134263912Y-68222289D01*
X134220287Y-68167712D01*
X134213095Y-68098213D01*
X134244617Y-68035859D01*
X134304847Y-68000445D01*
X134321781Y-67997424D01*
X134357380Y-67993596D01*
X134492086Y-67943354D01*
X134492093Y-67943350D01*
X134607187Y-67857190D01*
X134607190Y-67857187D01*
X134693350Y-67742093D01*
X134693354Y-67742086D01*
X134743596Y-67607379D01*
X134743598Y-67607372D01*
X134749999Y-67547844D01*
X134750000Y-67547827D01*
X134750000Y-66950000D01*
X133765686Y-66950000D01*
X133770080Y-66945606D01*
X133822741Y-66854394D01*
X133850000Y-66752661D01*
X133850000Y-66699998D01*
X139764532Y-66699998D01*
X139764532Y-66700001D01*
X139784364Y-66926686D01*
X139784366Y-66926697D01*
X139843258Y-67146488D01*
X139843261Y-67146497D01*
X139939431Y-67352732D01*
X139939432Y-67352734D01*
X140069954Y-67539141D01*
X140230858Y-67700045D01*
X140230861Y-67700047D01*
X140417266Y-67830568D01*
X140474357Y-67857190D01*
X140475275Y-67857618D01*
X140527714Y-67903791D01*
X140546866Y-67970984D01*
X140526650Y-68037865D01*
X140475275Y-68082382D01*
X140417267Y-68109431D01*
X140417265Y-68109432D01*
X140230858Y-68239954D01*
X140069954Y-68400858D01*
X139939432Y-68587265D01*
X139939431Y-68587267D01*
X139843261Y-68793502D01*
X139843258Y-68793511D01*
X139784366Y-69013302D01*
X139784364Y-69013313D01*
X139764532Y-69239998D01*
X139764532Y-69240001D01*
X139784364Y-69466686D01*
X139784366Y-69466697D01*
X139843258Y-69686488D01*
X139843261Y-69686497D01*
X139939431Y-69892732D01*
X139939432Y-69892734D01*
X140069954Y-70079141D01*
X140230858Y-70240045D01*
X140230861Y-70240047D01*
X140417266Y-70370568D01*
X140475275Y-70397618D01*
X140527714Y-70443791D01*
X140546866Y-70510984D01*
X140526650Y-70577865D01*
X140475275Y-70622382D01*
X140417267Y-70649431D01*
X140417265Y-70649432D01*
X140230858Y-70779954D01*
X140069954Y-70940858D01*
X139939432Y-71127265D01*
X139939431Y-71127267D01*
X139843261Y-71333502D01*
X139843258Y-71333511D01*
X139784366Y-71553302D01*
X139784364Y-71553313D01*
X139764532Y-71779998D01*
X139764532Y-71780001D01*
X139784364Y-72006686D01*
X139784366Y-72006697D01*
X139843258Y-72226488D01*
X139843261Y-72226497D01*
X139939431Y-72432732D01*
X139939432Y-72432734D01*
X140069954Y-72619141D01*
X140230858Y-72780045D01*
X140230861Y-72780047D01*
X140417266Y-72910568D01*
X140475275Y-72937618D01*
X140527714Y-72983791D01*
X140546866Y-73050984D01*
X140526650Y-73117865D01*
X140475275Y-73162382D01*
X140417267Y-73189431D01*
X140417265Y-73189432D01*
X140230858Y-73319954D01*
X140069954Y-73480858D01*
X139939432Y-73667265D01*
X139939431Y-73667267D01*
X139843261Y-73873502D01*
X139843258Y-73873511D01*
X139784366Y-74093302D01*
X139784364Y-74093313D01*
X139764532Y-74319998D01*
X139764532Y-74320001D01*
X139784364Y-74546686D01*
X139784366Y-74546697D01*
X139843258Y-74766488D01*
X139843261Y-74766497D01*
X139939431Y-74972732D01*
X139939432Y-74972734D01*
X140069954Y-75159141D01*
X140230858Y-75320045D01*
X140230861Y-75320047D01*
X140417266Y-75450568D01*
X140623504Y-75546739D01*
X140843308Y-75605635D01*
X141005230Y-75619801D01*
X141069998Y-75625468D01*
X141070000Y-75625468D01*
X141070002Y-75625468D01*
X141126673Y-75620509D01*
X141296692Y-75605635D01*
X141516496Y-75546739D01*
X141722734Y-75450568D01*
X141909139Y-75320047D01*
X142070047Y-75159139D01*
X142200568Y-74972734D01*
X142296739Y-74766496D01*
X142355635Y-74546692D01*
X142375468Y-74320000D01*
X142355635Y-74093308D01*
X142296739Y-73873504D01*
X142200568Y-73667266D01*
X142083447Y-73499998D01*
X150444532Y-73499998D01*
X150444532Y-73500000D01*
X150464364Y-73726686D01*
X150464366Y-73726697D01*
X150523258Y-73946488D01*
X150523261Y-73946497D01*
X150619431Y-74152732D01*
X150619432Y-74152734D01*
X150749954Y-74339141D01*
X150910858Y-74500045D01*
X150910861Y-74500047D01*
X151097266Y-74630568D01*
X151303504Y-74726739D01*
X151523308Y-74785635D01*
X151685230Y-74799801D01*
X151749998Y-74805468D01*
X151750000Y-74805468D01*
X151750002Y-74805468D01*
X151806673Y-74800509D01*
X151976692Y-74785635D01*
X152196496Y-74726739D01*
X152402734Y-74630568D01*
X152589139Y-74500047D01*
X152750047Y-74339139D01*
X152880568Y-74152734D01*
X152976739Y-73946496D01*
X153035635Y-73726692D01*
X153055468Y-73500000D01*
X153055206Y-73497011D01*
X153035635Y-73273313D01*
X153035635Y-73273308D01*
X152976739Y-73053504D01*
X152880568Y-72847266D01*
X152750047Y-72660861D01*
X152750045Y-72660858D01*
X152589141Y-72499954D01*
X152402734Y-72369432D01*
X152402732Y-72369431D01*
X152196497Y-72273261D01*
X152196488Y-72273258D01*
X151976697Y-72214366D01*
X151976693Y-72214365D01*
X151976692Y-72214365D01*
X151976691Y-72214364D01*
X151976686Y-72214364D01*
X151750002Y-72194532D01*
X151749998Y-72194532D01*
X151523313Y-72214364D01*
X151523302Y-72214366D01*
X151303511Y-72273258D01*
X151303502Y-72273261D01*
X151097267Y-72369431D01*
X151097265Y-72369432D01*
X150910858Y-72499954D01*
X150749954Y-72660858D01*
X150619432Y-72847265D01*
X150619431Y-72847267D01*
X150523261Y-73053502D01*
X150523258Y-73053511D01*
X150464366Y-73273302D01*
X150464364Y-73273313D01*
X150444532Y-73499998D01*
X142083447Y-73499998D01*
X142070047Y-73480861D01*
X142070045Y-73480858D01*
X141909141Y-73319954D01*
X141722734Y-73189432D01*
X141722728Y-73189429D01*
X141664725Y-73162382D01*
X141612285Y-73116210D01*
X141593133Y-73049017D01*
X141613348Y-72982135D01*
X141664725Y-72937618D01*
X141722734Y-72910568D01*
X141909139Y-72780047D01*
X142070047Y-72619139D01*
X142200568Y-72432734D01*
X142296739Y-72226496D01*
X142355635Y-72006692D01*
X142375468Y-71780000D01*
X142355635Y-71553308D01*
X142296739Y-71333504D01*
X142200568Y-71127266D01*
X142070047Y-70940861D01*
X142070045Y-70940858D01*
X141909141Y-70779954D01*
X141722734Y-70649432D01*
X141722728Y-70649429D01*
X141664725Y-70622382D01*
X141612285Y-70576210D01*
X141593133Y-70509017D01*
X141613348Y-70442135D01*
X141664725Y-70397618D01*
X141722734Y-70370568D01*
X141909139Y-70240047D01*
X142070047Y-70079139D01*
X142200568Y-69892734D01*
X142296739Y-69686496D01*
X142355635Y-69466692D01*
X142375468Y-69240000D01*
X142355635Y-69013308D01*
X142296739Y-68793504D01*
X142200568Y-68587266D01*
X142070047Y-68400861D01*
X142070045Y-68400858D01*
X141909141Y-68239954D01*
X141722734Y-68109432D01*
X141722728Y-68109429D01*
X141664725Y-68082382D01*
X141612285Y-68036210D01*
X141593133Y-67969017D01*
X141613348Y-67902135D01*
X141664725Y-67857618D01*
X141665643Y-67857190D01*
X141722734Y-67830568D01*
X141909139Y-67700047D01*
X142070047Y-67539139D01*
X142200568Y-67352734D01*
X142296739Y-67146496D01*
X142355635Y-66926692D01*
X142365844Y-66809998D01*
X149444532Y-66809998D01*
X149444532Y-66810001D01*
X149464364Y-67036686D01*
X149464366Y-67036697D01*
X149523258Y-67256488D01*
X149523261Y-67256497D01*
X149619431Y-67462732D01*
X149619432Y-67462734D01*
X149749954Y-67649141D01*
X149910858Y-67810045D01*
X149910861Y-67810047D01*
X150097266Y-67940568D01*
X150303504Y-68036739D01*
X150523308Y-68095635D01*
X150680974Y-68109429D01*
X150749998Y-68115468D01*
X150750000Y-68115468D01*
X150750002Y-68115468D01*
X150806673Y-68110509D01*
X150976692Y-68095635D01*
X151196496Y-68036739D01*
X151402734Y-67940568D01*
X151589139Y-67810047D01*
X151750047Y-67649139D01*
X151880568Y-67462734D01*
X151976739Y-67256496D01*
X152035635Y-67036692D01*
X152052634Y-66842384D01*
X152055468Y-66810001D01*
X152055468Y-66809998D01*
X152035635Y-66583313D01*
X152035635Y-66583308D01*
X151976739Y-66363504D01*
X151880568Y-66157266D01*
X151750047Y-65970861D01*
X151750045Y-65970858D01*
X151589141Y-65809954D01*
X151402734Y-65679432D01*
X151402732Y-65679431D01*
X151196497Y-65583261D01*
X151196488Y-65583258D01*
X150976697Y-65524366D01*
X150976693Y-65524365D01*
X150976692Y-65524365D01*
X150976691Y-65524364D01*
X150976686Y-65524364D01*
X150750002Y-65504532D01*
X150749998Y-65504532D01*
X150523313Y-65524364D01*
X150523302Y-65524366D01*
X150303511Y-65583258D01*
X150303502Y-65583261D01*
X150097267Y-65679431D01*
X150097265Y-65679432D01*
X149910858Y-65809954D01*
X149749954Y-65970858D01*
X149619432Y-66157265D01*
X149619431Y-66157267D01*
X149523261Y-66363502D01*
X149523258Y-66363511D01*
X149464366Y-66583302D01*
X149464364Y-66583313D01*
X149444532Y-66809998D01*
X142365844Y-66809998D01*
X142375468Y-66700000D01*
X142355635Y-66473308D01*
X142296739Y-66253504D01*
X142200568Y-66047266D01*
X142070047Y-65860861D01*
X142070045Y-65860858D01*
X141909141Y-65699954D01*
X141722734Y-65569432D01*
X141722732Y-65569431D01*
X141516497Y-65473261D01*
X141516488Y-65473258D01*
X141296697Y-65414366D01*
X141296693Y-65414365D01*
X141296692Y-65414365D01*
X141296691Y-65414364D01*
X141296686Y-65414364D01*
X141070002Y-65394532D01*
X141069998Y-65394532D01*
X140843313Y-65414364D01*
X140843302Y-65414366D01*
X140623511Y-65473258D01*
X140623502Y-65473261D01*
X140417267Y-65569431D01*
X140417265Y-65569432D01*
X140230858Y-65699954D01*
X140069954Y-65860858D01*
X139939432Y-66047265D01*
X139939431Y-66047267D01*
X139843261Y-66253502D01*
X139843258Y-66253511D01*
X139784366Y-66473302D01*
X139784364Y-66473313D01*
X139764532Y-66699998D01*
X133850000Y-66699998D01*
X133850000Y-66647339D01*
X133822741Y-66545606D01*
X133770080Y-66454394D01*
X133765686Y-66450000D01*
X134750000Y-66450000D01*
X134750000Y-65852172D01*
X134749999Y-65852155D01*
X134743598Y-65792627D01*
X134743596Y-65792620D01*
X134693354Y-65657913D01*
X134693350Y-65657906D01*
X134607190Y-65542812D01*
X134607187Y-65542809D01*
X134492093Y-65456649D01*
X134492086Y-65456645D01*
X134357379Y-65406403D01*
X134357372Y-65406401D01*
X134297844Y-65400000D01*
X133700000Y-65400000D01*
X133700000Y-66384314D01*
X133695606Y-66379920D01*
X133604394Y-66327259D01*
X133502661Y-66300000D01*
X133397339Y-66300000D01*
X133295606Y-66327259D01*
X133204394Y-66379920D01*
X133200000Y-66384314D01*
X133200000Y-65400000D01*
X132602155Y-65400000D01*
X132542627Y-65406401D01*
X132542620Y-65406403D01*
X132407913Y-65456645D01*
X132407906Y-65456649D01*
X132292812Y-65542809D01*
X132292809Y-65542812D01*
X132206649Y-65657906D01*
X132206645Y-65657913D01*
X132156403Y-65792620D01*
X132156401Y-65792627D01*
X132150000Y-65852155D01*
X132150000Y-66450000D01*
X133134314Y-66450000D01*
X133129920Y-66454394D01*
X133077259Y-66545606D01*
X133050000Y-66647339D01*
X133050000Y-66752661D01*
X133077259Y-66854394D01*
X133129920Y-66945606D01*
X133134314Y-66950000D01*
X132150000Y-66950000D01*
X132150000Y-67547844D01*
X132156401Y-67607372D01*
X132156403Y-67607379D01*
X132206645Y-67742086D01*
X132206649Y-67742093D01*
X132292809Y-67857187D01*
X132292812Y-67857190D01*
X132407906Y-67943350D01*
X132407913Y-67943354D01*
X132542620Y-67993596D01*
X132542627Y-67993598D01*
X132578218Y-67997425D01*
X132642769Y-68024163D01*
X132682618Y-68081555D01*
X132685111Y-68151380D01*
X132649459Y-68211469D01*
X132636088Y-68222287D01*
X132610861Y-68239951D01*
X132449954Y-68400858D01*
X132319432Y-68587265D01*
X132319431Y-68587267D01*
X132223261Y-68793502D01*
X132223258Y-68793511D01*
X132164366Y-69013302D01*
X132164364Y-69013313D01*
X132144532Y-69239998D01*
X132144532Y-69240001D01*
X132164364Y-69466686D01*
X132164366Y-69466697D01*
X132223258Y-69686488D01*
X132223261Y-69686497D01*
X132319431Y-69892732D01*
X132319432Y-69892734D01*
X132449954Y-70079141D01*
X132610858Y-70240045D01*
X132610861Y-70240047D01*
X132797266Y-70370568D01*
X132855275Y-70397618D01*
X132907714Y-70443791D01*
X132926866Y-70510984D01*
X132906650Y-70577865D01*
X132855275Y-70622382D01*
X132797267Y-70649431D01*
X132797265Y-70649432D01*
X132610858Y-70779954D01*
X132449954Y-70940858D01*
X132319432Y-71127265D01*
X132319431Y-71127267D01*
X132223261Y-71333502D01*
X132223258Y-71333511D01*
X132164366Y-71553302D01*
X132164364Y-71553313D01*
X132144532Y-71779998D01*
X132144532Y-71780001D01*
X132164364Y-72006686D01*
X132164366Y-72006697D01*
X132223258Y-72226488D01*
X132223261Y-72226497D01*
X132319431Y-72432732D01*
X132319432Y-72432734D01*
X132449954Y-72619141D01*
X132610858Y-72780045D01*
X132610861Y-72780047D01*
X132797266Y-72910568D01*
X132855275Y-72937618D01*
X132907714Y-72983791D01*
X132926866Y-73050984D01*
X132906650Y-73117865D01*
X132855275Y-73162382D01*
X132797267Y-73189431D01*
X132797265Y-73189432D01*
X132610858Y-73319954D01*
X132449954Y-73480858D01*
X132424912Y-73516623D01*
X132370335Y-73560248D01*
X132323337Y-73569500D01*
X117624500Y-73569500D01*
X117557461Y-73549815D01*
X117511706Y-73497011D01*
X117500500Y-73445500D01*
X117500500Y-68299972D01*
X117507458Y-68259017D01*
X117514129Y-68239953D01*
X117535368Y-68179255D01*
X117543235Y-68109432D01*
X117555565Y-68000003D01*
X117555565Y-67999996D01*
X117535369Y-67820750D01*
X117535368Y-67820745D01*
X117475788Y-67650476D01*
X117379815Y-67497737D01*
X117252262Y-67370184D01*
X117099523Y-67274211D01*
X116929254Y-67214631D01*
X116929249Y-67214630D01*
X116750004Y-67194435D01*
X116749996Y-67194435D01*
X116570750Y-67214630D01*
X116570745Y-67214631D01*
X116400476Y-67274211D01*
X116247737Y-67370184D01*
X116120184Y-67497737D01*
X116024211Y-67650476D01*
X115964631Y-67820745D01*
X115964630Y-67820750D01*
X115944435Y-67999996D01*
X115944435Y-68000003D01*
X115964630Y-68179249D01*
X115964631Y-68179254D01*
X115992542Y-68259017D01*
X115999500Y-68299972D01*
X115999500Y-74137769D01*
X115979815Y-74204808D01*
X115963181Y-74225450D01*
X113917050Y-76271580D01*
X113917044Y-76271588D01*
X113867812Y-76345268D01*
X113867813Y-76345269D01*
X113834921Y-76394496D01*
X113834914Y-76394508D01*
X113778342Y-76531086D01*
X113778340Y-76531092D01*
X113749500Y-76676079D01*
X113749500Y-76676082D01*
X113749500Y-101823918D01*
X113749500Y-101823920D01*
X113749499Y-101823920D01*
X106052863Y-101823920D01*
X105697525Y-101246228D01*
X105695418Y-101242672D01*
X105639774Y-101145042D01*
X105105005Y-100206764D01*
X105103046Y-100203189D01*
X104599286Y-99246346D01*
X104547592Y-99148157D01*
X104545723Y-99144458D01*
X104025854Y-98071499D01*
X104024109Y-98067740D01*
X103540371Y-96977981D01*
X103538753Y-96974166D01*
X103408961Y-96653264D01*
X103091689Y-95868826D01*
X103090207Y-95864976D01*
X102680339Y-94745345D01*
X102678980Y-94741430D01*
X102306747Y-93608711D01*
X102305543Y-93604830D01*
X101971352Y-92460250D01*
X101970276Y-92456323D01*
X101674524Y-91301238D01*
X101673569Y-91297233D01*
X101416574Y-90132893D01*
X101415770Y-90128932D01*
X101197827Y-88956658D01*
X101197142Y-88952596D01*
X101018739Y-87775330D01*
X101018502Y-87773767D01*
X101017953Y-87769683D01*
X100918749Y-86925468D01*
X100878793Y-86585449D01*
X100878388Y-86581419D01*
X100778881Y-85393241D01*
X100778609Y-85389171D01*
X100718858Y-84198316D01*
X100718722Y-84194248D01*
X100698798Y-83002034D01*
X100698798Y-82997965D01*
X100715225Y-82014993D01*
X103094700Y-82014993D01*
X103094700Y-82015006D01*
X103113864Y-82246297D01*
X103113866Y-82246308D01*
X103170842Y-82471300D01*
X103264075Y-82683848D01*
X103391016Y-82878147D01*
X103391019Y-82878151D01*
X103391021Y-82878153D01*
X103548216Y-83048913D01*
X103548219Y-83048915D01*
X103548222Y-83048918D01*
X103731365Y-83191464D01*
X103731371Y-83191468D01*
X103731374Y-83191470D01*
X103935497Y-83301936D01*
X104049487Y-83341068D01*
X104155015Y-83377297D01*
X104155017Y-83377297D01*
X104155019Y-83377298D01*
X104383951Y-83415500D01*
X104383952Y-83415500D01*
X104616048Y-83415500D01*
X104616049Y-83415500D01*
X104844981Y-83377298D01*
X105064503Y-83301936D01*
X105268626Y-83191470D01*
X105451784Y-83048913D01*
X105608979Y-82878153D01*
X105735924Y-82683849D01*
X105829157Y-82471300D01*
X105886134Y-82246305D01*
X105905300Y-82015000D01*
X105905300Y-82014993D01*
X105886135Y-81783702D01*
X105886133Y-81783691D01*
X105829157Y-81558699D01*
X105735924Y-81346151D01*
X105608981Y-81151849D01*
X105513832Y-81048489D01*
X105482910Y-80985835D01*
X105490770Y-80916409D01*
X105534918Y-80862253D01*
X105561730Y-80848325D01*
X105642084Y-80818355D01*
X105642093Y-80818350D01*
X105757187Y-80732190D01*
X105757190Y-80732187D01*
X105843350Y-80617093D01*
X105843354Y-80617086D01*
X105893596Y-80482379D01*
X105893598Y-80482372D01*
X105899999Y-80422844D01*
X105900000Y-80422827D01*
X105900000Y-79725000D01*
X104875278Y-79725000D01*
X104919333Y-79648694D01*
X104950000Y-79534244D01*
X104950000Y-79415756D01*
X104919333Y-79301306D01*
X104875278Y-79225000D01*
X105900000Y-79225000D01*
X105900000Y-78527172D01*
X105899999Y-78527155D01*
X105893598Y-78467627D01*
X105893596Y-78467620D01*
X105843354Y-78332913D01*
X105843350Y-78332906D01*
X105757190Y-78217812D01*
X105757187Y-78217809D01*
X105642093Y-78131649D01*
X105642086Y-78131645D01*
X105507379Y-78081403D01*
X105507372Y-78081401D01*
X105447844Y-78075000D01*
X104750000Y-78075000D01*
X104750000Y-79099722D01*
X104673694Y-79055667D01*
X104559244Y-79025000D01*
X104440756Y-79025000D01*
X104326306Y-79055667D01*
X104250000Y-79099722D01*
X104250000Y-78075000D01*
X103552155Y-78075000D01*
X103492627Y-78081401D01*
X103492620Y-78081403D01*
X103357913Y-78131645D01*
X103357906Y-78131649D01*
X103242812Y-78217809D01*
X103242809Y-78217812D01*
X103156649Y-78332906D01*
X103156645Y-78332913D01*
X103106403Y-78467620D01*
X103106401Y-78467627D01*
X103100000Y-78527155D01*
X103100000Y-79225000D01*
X104124722Y-79225000D01*
X104080667Y-79301306D01*
X104050000Y-79415756D01*
X104050000Y-79534244D01*
X104080667Y-79648694D01*
X104124722Y-79725000D01*
X103100000Y-79725000D01*
X103100000Y-80422844D01*
X103106401Y-80482372D01*
X103106403Y-80482379D01*
X103156645Y-80617086D01*
X103156649Y-80617093D01*
X103242809Y-80732187D01*
X103242812Y-80732190D01*
X103357906Y-80818350D01*
X103357913Y-80818354D01*
X103438270Y-80848325D01*
X103494204Y-80890196D01*
X103518621Y-80955660D01*
X103503770Y-81023933D01*
X103486168Y-81048489D01*
X103391021Y-81151847D01*
X103391019Y-81151848D01*
X103391016Y-81151853D01*
X103264075Y-81346151D01*
X103170842Y-81558699D01*
X103113866Y-81783691D01*
X103113864Y-81783702D01*
X103094700Y-82014993D01*
X100715225Y-82014993D01*
X100718722Y-81805749D01*
X100718858Y-81801685D01*
X100778609Y-80610824D01*
X100778881Y-80606762D01*
X100878389Y-79418574D01*
X100878792Y-79414556D01*
X101017957Y-78230286D01*
X101018501Y-78226240D01*
X101197147Y-77047368D01*
X101197825Y-77043351D01*
X101415772Y-75871055D01*
X101416572Y-75867118D01*
X101673578Y-74702727D01*
X101674520Y-74698774D01*
X101970280Y-73543661D01*
X101971348Y-73539764D01*
X102305548Y-72395152D01*
X102306741Y-72391305D01*
X102678986Y-71258550D01*
X102680339Y-71254654D01*
X102726972Y-71127267D01*
X103090221Y-70134986D01*
X103091681Y-70131193D01*
X103538758Y-69025819D01*
X103540371Y-69022018D01*
X103544235Y-69013313D01*
X104024117Y-67932240D01*
X104025854Y-67928500D01*
X104545733Y-66855520D01*
X104547592Y-66851842D01*
X104559123Y-66829940D01*
X105103059Y-65796785D01*
X105104991Y-65793260D01*
X105695438Y-64757291D01*
X105697508Y-64753797D01*
X106322216Y-63738180D01*
X106324401Y-63734757D01*
X106982673Y-62740619D01*
X106985013Y-62737210D01*
X107369602Y-62196551D01*
X107676134Y-61765624D01*
X107678585Y-61762299D01*
X107687934Y-61750045D01*
X108401794Y-60814339D01*
X108404350Y-60811104D01*
X108825251Y-60296044D01*
X110548649Y-60296044D01*
X110548649Y-60296057D01*
X110567813Y-60527348D01*
X110567815Y-60527359D01*
X110624791Y-60752351D01*
X110718024Y-60964899D01*
X110844965Y-61159198D01*
X110844968Y-61159202D01*
X110844970Y-61159204D01*
X111002165Y-61329964D01*
X111002168Y-61329966D01*
X111002171Y-61329969D01*
X111185314Y-61472515D01*
X111185320Y-61472519D01*
X111185323Y-61472521D01*
X111389446Y-61582987D01*
X111503436Y-61622119D01*
X111608964Y-61658348D01*
X111608966Y-61658348D01*
X111608968Y-61658349D01*
X111837900Y-61696551D01*
X111837901Y-61696551D01*
X112069997Y-61696551D01*
X112069998Y-61696551D01*
X112298930Y-61658349D01*
X112518452Y-61582987D01*
X112722575Y-61472521D01*
X112905733Y-61329964D01*
X113062928Y-61159204D01*
X113189873Y-60964900D01*
X113283106Y-60752351D01*
X113283702Y-60749998D01*
X132134532Y-60749998D01*
X132134532Y-60750001D01*
X132154364Y-60976686D01*
X132154366Y-60976697D01*
X132213258Y-61196488D01*
X132213261Y-61196497D01*
X132309431Y-61402732D01*
X132309432Y-61402734D01*
X132439954Y-61589141D01*
X132600858Y-61750045D01*
X132600861Y-61750047D01*
X132787266Y-61880568D01*
X132993504Y-61976739D01*
X133213308Y-62035635D01*
X133375230Y-62049801D01*
X133439998Y-62055468D01*
X133440000Y-62055468D01*
X133440001Y-62055468D01*
X133460062Y-62053712D01*
X133606861Y-62040869D01*
X133675359Y-62054635D01*
X133705348Y-62076716D01*
X135461586Y-63832954D01*
X135491058Y-63852645D01*
X135535270Y-63882186D01*
X135584505Y-63915084D01*
X135584506Y-63915084D01*
X135584507Y-63915085D01*
X135584509Y-63915086D01*
X135721082Y-63971656D01*
X135721087Y-63971658D01*
X135721091Y-63971658D01*
X135721092Y-63971659D01*
X135866079Y-64000500D01*
X135866082Y-64000500D01*
X135866083Y-64000500D01*
X136013917Y-64000500D01*
X153637770Y-64000500D01*
X153704809Y-64020185D01*
X153725451Y-64036819D01*
X157337772Y-67649139D01*
X160877049Y-71188416D01*
X160932461Y-71243828D01*
X160981585Y-71292952D01*
X161104498Y-71375080D01*
X161104511Y-71375087D01*
X161241082Y-71431656D01*
X161241087Y-71431658D01*
X161241091Y-71431658D01*
X161241092Y-71431659D01*
X161386079Y-71460500D01*
X161386082Y-71460500D01*
X165025501Y-71460500D01*
X165092540Y-71480185D01*
X165138295Y-71532989D01*
X165149501Y-71584500D01*
X165149501Y-71607876D01*
X165155908Y-71667483D01*
X165206202Y-71802328D01*
X165206206Y-71802335D01*
X165292452Y-71917544D01*
X165292455Y-71917547D01*
X165407664Y-72003793D01*
X165407671Y-72003797D01*
X165469902Y-72027007D01*
X165539598Y-72053002D01*
X165595531Y-72094873D01*
X165619949Y-72160337D01*
X165605098Y-72228610D01*
X165583947Y-72256865D01*
X165461886Y-72378926D01*
X165326400Y-72572420D01*
X165326399Y-72572422D01*
X165226570Y-72786507D01*
X165226567Y-72786513D01*
X165169364Y-72999999D01*
X165169364Y-73000000D01*
X166066988Y-73000000D01*
X166034075Y-73057007D01*
X166000000Y-73184174D01*
X166000000Y-73315826D01*
X166034075Y-73442993D01*
X166066988Y-73500000D01*
X165169364Y-73500000D01*
X165226567Y-73713486D01*
X165226570Y-73713492D01*
X165326399Y-73927578D01*
X165461894Y-74121082D01*
X165628917Y-74288105D01*
X165822421Y-74423600D01*
X166036507Y-74523429D01*
X166036516Y-74523433D01*
X166250000Y-74580634D01*
X166250000Y-73683012D01*
X166307007Y-73715925D01*
X166434174Y-73750000D01*
X166565826Y-73750000D01*
X166692993Y-73715925D01*
X166750000Y-73683012D01*
X166750000Y-74580633D01*
X166963483Y-74523433D01*
X166963492Y-74523429D01*
X167177578Y-74423600D01*
X167371082Y-74288105D01*
X167538105Y-74121082D01*
X167673600Y-73927578D01*
X167773429Y-73713492D01*
X167773432Y-73713486D01*
X167830636Y-73500000D01*
X166933012Y-73500000D01*
X166965925Y-73442993D01*
X167000000Y-73315826D01*
X167000000Y-73184174D01*
X166965925Y-73057007D01*
X166933012Y-73000000D01*
X167830636Y-73000000D01*
X167830635Y-72999999D01*
X167773432Y-72786513D01*
X167773429Y-72786507D01*
X167673600Y-72572422D01*
X167673599Y-72572420D01*
X167538113Y-72378926D01*
X167538108Y-72378920D01*
X167416053Y-72256865D01*
X167382568Y-72195542D01*
X167387552Y-72125850D01*
X167429424Y-72069917D01*
X167460400Y-72053002D01*
X167584553Y-72006697D01*
X167592326Y-72003798D01*
X167592326Y-72003797D01*
X167592331Y-72003796D01*
X167707546Y-71917546D01*
X167793796Y-71802331D01*
X167844091Y-71667483D01*
X167850500Y-71607873D01*
X167850499Y-69812128D01*
X167844091Y-69752517D01*
X167793796Y-69617669D01*
X167793795Y-69617668D01*
X167793793Y-69617664D01*
X167707547Y-69502455D01*
X167707544Y-69502452D01*
X167592335Y-69416206D01*
X167592328Y-69416202D01*
X167457482Y-69365908D01*
X167457483Y-69365908D01*
X167397883Y-69359501D01*
X167397881Y-69359500D01*
X167397873Y-69359500D01*
X167397864Y-69359500D01*
X165602129Y-69359500D01*
X165602123Y-69359501D01*
X165542516Y-69365908D01*
X165407671Y-69416202D01*
X165407664Y-69416206D01*
X165292455Y-69502452D01*
X165292452Y-69502455D01*
X165206206Y-69617664D01*
X165206202Y-69617671D01*
X165155908Y-69752517D01*
X165149501Y-69812116D01*
X165149501Y-69812123D01*
X165149500Y-69812135D01*
X165149500Y-69835500D01*
X165129815Y-69902539D01*
X165077011Y-69948294D01*
X165025500Y-69959500D01*
X161822229Y-69959500D01*
X161755190Y-69939815D01*
X161734548Y-69923181D01*
X154478421Y-62667052D01*
X154478414Y-62667046D01*
X154404729Y-62617812D01*
X154404729Y-62617813D01*
X154355491Y-62584913D01*
X154218917Y-62528343D01*
X154218907Y-62528340D01*
X154073920Y-62499500D01*
X154073918Y-62499500D01*
X136302230Y-62499500D01*
X136235191Y-62479815D01*
X136214549Y-62463181D01*
X134766716Y-61015348D01*
X134733231Y-60954025D01*
X134730869Y-60916863D01*
X134745468Y-60750000D01*
X134745468Y-60749998D01*
X139754532Y-60749998D01*
X139754532Y-60750001D01*
X139774364Y-60976686D01*
X139774366Y-60976697D01*
X139833258Y-61196488D01*
X139833261Y-61196497D01*
X139929431Y-61402732D01*
X139929432Y-61402734D01*
X140059954Y-61589141D01*
X140220858Y-61750045D01*
X140220861Y-61750047D01*
X140407266Y-61880568D01*
X140613504Y-61976739D01*
X140833308Y-62035635D01*
X140995230Y-62049801D01*
X141059998Y-62055468D01*
X141060000Y-62055468D01*
X141060002Y-62055468D01*
X141116673Y-62050509D01*
X141286692Y-62035635D01*
X141506496Y-61976739D01*
X141712734Y-61880568D01*
X141899139Y-61750047D01*
X142060047Y-61589139D01*
X142190568Y-61402734D01*
X142286739Y-61196496D01*
X142345635Y-60976692D01*
X142365468Y-60750000D01*
X142345635Y-60523308D01*
X142286739Y-60303504D01*
X142190568Y-60097266D01*
X142060047Y-59910861D01*
X142060045Y-59910858D01*
X141899141Y-59749954D01*
X141712734Y-59619432D01*
X141712732Y-59619431D01*
X141506497Y-59523261D01*
X141506488Y-59523258D01*
X141286697Y-59464366D01*
X141286693Y-59464365D01*
X141286692Y-59464365D01*
X141286691Y-59464364D01*
X141286686Y-59464364D01*
X141060002Y-59444532D01*
X141059998Y-59444532D01*
X140833313Y-59464364D01*
X140833302Y-59464366D01*
X140613511Y-59523258D01*
X140613502Y-59523261D01*
X140407267Y-59619431D01*
X140407265Y-59619432D01*
X140220858Y-59749954D01*
X140059954Y-59910858D01*
X139929432Y-60097265D01*
X139929431Y-60097267D01*
X139833261Y-60303502D01*
X139833258Y-60303511D01*
X139774366Y-60523302D01*
X139774364Y-60523313D01*
X139754532Y-60749998D01*
X134745468Y-60749998D01*
X134725635Y-60523308D01*
X134666739Y-60303504D01*
X134570568Y-60097266D01*
X134440047Y-59910861D01*
X134440045Y-59910858D01*
X134279141Y-59749954D01*
X134092734Y-59619432D01*
X134092732Y-59619431D01*
X133886497Y-59523261D01*
X133886488Y-59523258D01*
X133666697Y-59464366D01*
X133666693Y-59464365D01*
X133666692Y-59464365D01*
X133666691Y-59464364D01*
X133666686Y-59464364D01*
X133440002Y-59444532D01*
X133439998Y-59444532D01*
X133213313Y-59464364D01*
X133213302Y-59464366D01*
X132993511Y-59523258D01*
X132993502Y-59523261D01*
X132787267Y-59619431D01*
X132787265Y-59619432D01*
X132600858Y-59749954D01*
X132439954Y-59910858D01*
X132309432Y-60097265D01*
X132309431Y-60097267D01*
X132213261Y-60303502D01*
X132213258Y-60303511D01*
X132154366Y-60523302D01*
X132154364Y-60523313D01*
X132134532Y-60749998D01*
X113283702Y-60749998D01*
X113340083Y-60527356D01*
X113356771Y-60325945D01*
X113381925Y-60260763D01*
X113438327Y-60219524D01*
X113508070Y-60215326D01*
X113531857Y-60223391D01*
X113607543Y-60257957D01*
X113607542Y-60257957D01*
X113625449Y-60260531D01*
X113750000Y-60278439D01*
X113892457Y-60257957D01*
X114023373Y-60198169D01*
X114070056Y-60160550D01*
X115040607Y-59189998D01*
X149444532Y-59189998D01*
X149444532Y-59190001D01*
X149464364Y-59416686D01*
X149464366Y-59416697D01*
X149523258Y-59636488D01*
X149523261Y-59636497D01*
X149619431Y-59842732D01*
X149619432Y-59842734D01*
X149749954Y-60029141D01*
X149910858Y-60190045D01*
X149922462Y-60198170D01*
X150097266Y-60320568D01*
X150303504Y-60416739D01*
X150523308Y-60475635D01*
X150685230Y-60489801D01*
X150749998Y-60495468D01*
X150750000Y-60495468D01*
X150750002Y-60495468D01*
X150806673Y-60490509D01*
X150976692Y-60475635D01*
X151196496Y-60416739D01*
X151402734Y-60320568D01*
X151589139Y-60190047D01*
X151750047Y-60029139D01*
X151880568Y-59842734D01*
X151976739Y-59636496D01*
X152035635Y-59416692D01*
X152055468Y-59190000D01*
X152054041Y-59173694D01*
X152044028Y-59059244D01*
X152038845Y-59000000D01*
X158222066Y-59000000D01*
X158242526Y-59142313D01*
X158242527Y-59142318D01*
X158302253Y-59273097D01*
X158339833Y-59319732D01*
X158833273Y-59813172D01*
X159557861Y-59088584D01*
X159580667Y-59173694D01*
X159639910Y-59276306D01*
X159723694Y-59360090D01*
X159826306Y-59419333D01*
X159911414Y-59442138D01*
X159186827Y-60166726D01*
X159680267Y-60660166D01*
X159726902Y-60697746D01*
X159857681Y-60757472D01*
X159857686Y-60757473D01*
X160000000Y-60777933D01*
X160142313Y-60757473D01*
X160142317Y-60757472D01*
X160218095Y-60722865D01*
X160287253Y-60712921D01*
X160350809Y-60741945D01*
X160388584Y-60800723D01*
X160393183Y-60825419D01*
X160409915Y-61027347D01*
X160409917Y-61027359D01*
X160466893Y-61252351D01*
X160560126Y-61464899D01*
X160687067Y-61659198D01*
X160687070Y-61659202D01*
X160687072Y-61659204D01*
X160844267Y-61829964D01*
X160844270Y-61829966D01*
X160844273Y-61829969D01*
X161027416Y-61972515D01*
X161027422Y-61972519D01*
X161027425Y-61972521D01*
X161231548Y-62082987D01*
X161345538Y-62122119D01*
X161451066Y-62158348D01*
X161451068Y-62158348D01*
X161451070Y-62158349D01*
X161680002Y-62196551D01*
X161680003Y-62196551D01*
X161912099Y-62196551D01*
X161912100Y-62196551D01*
X162141032Y-62158349D01*
X162360554Y-62082987D01*
X162564677Y-61972521D01*
X162747835Y-61829964D01*
X162905030Y-61659204D01*
X163031975Y-61464900D01*
X163125208Y-61252351D01*
X163182185Y-61027356D01*
X163186568Y-60974462D01*
X163201351Y-60796057D01*
X163201351Y-60796044D01*
X163182186Y-60564753D01*
X163182184Y-60564742D01*
X163125208Y-60339750D01*
X163031975Y-60127202D01*
X162905034Y-59932903D01*
X162905031Y-59932900D01*
X162905030Y-59932898D01*
X162747835Y-59762138D01*
X162747830Y-59762134D01*
X162747828Y-59762132D01*
X162564685Y-59619586D01*
X162564679Y-59619582D01*
X162360555Y-59509115D01*
X162360546Y-59509112D01*
X162141035Y-59433753D01*
X161969333Y-59405101D01*
X161912100Y-59395551D01*
X161834772Y-59395551D01*
X161767733Y-59375866D01*
X161721978Y-59323062D01*
X161712034Y-59253904D01*
X161721978Y-59220039D01*
X161757472Y-59142318D01*
X161757473Y-59142313D01*
X161777933Y-59000000D01*
X161757473Y-58857686D01*
X161757472Y-58857681D01*
X161697746Y-58726902D01*
X161660166Y-58680267D01*
X161166726Y-58186827D01*
X160442138Y-58911414D01*
X160419333Y-58826306D01*
X160360090Y-58723694D01*
X160276306Y-58639910D01*
X160173694Y-58580667D01*
X160088584Y-58557861D01*
X160813172Y-57833273D01*
X160813172Y-57833272D01*
X160319736Y-57339837D01*
X160319732Y-57339833D01*
X160273097Y-57302253D01*
X160142318Y-57242527D01*
X160142313Y-57242526D01*
X160000000Y-57222066D01*
X159857686Y-57242526D01*
X159857681Y-57242527D01*
X159726902Y-57302253D01*
X159680262Y-57339837D01*
X159186827Y-57833272D01*
X159186827Y-57833273D01*
X159911415Y-58557861D01*
X159826306Y-58580667D01*
X159723694Y-58639910D01*
X159639910Y-58723694D01*
X159580667Y-58826306D01*
X159557861Y-58911415D01*
X158833273Y-58186827D01*
X158833272Y-58186827D01*
X158339837Y-58680262D01*
X158302253Y-58726902D01*
X158242527Y-58857681D01*
X158242526Y-58857686D01*
X158222066Y-59000000D01*
X152038845Y-59000000D01*
X152035635Y-58963308D01*
X151976739Y-58743504D01*
X151880568Y-58537266D01*
X151750047Y-58350861D01*
X151750045Y-58350858D01*
X151589141Y-58189954D01*
X151402734Y-58059432D01*
X151402732Y-58059431D01*
X151196497Y-57963261D01*
X151196488Y-57963258D01*
X150976697Y-57904366D01*
X150976693Y-57904365D01*
X150976692Y-57904365D01*
X150976691Y-57904364D01*
X150976686Y-57904364D01*
X150750002Y-57884532D01*
X150749998Y-57884532D01*
X150523313Y-57904364D01*
X150523302Y-57904366D01*
X150303511Y-57963258D01*
X150303502Y-57963261D01*
X150097267Y-58059431D01*
X150097265Y-58059432D01*
X149910858Y-58189954D01*
X149749954Y-58350858D01*
X149619432Y-58537265D01*
X149619431Y-58537267D01*
X149523261Y-58743502D01*
X149523258Y-58743511D01*
X149464366Y-58963302D01*
X149464364Y-58963313D01*
X149444532Y-59189998D01*
X115040607Y-59189998D01*
X115410549Y-58820056D01*
X115448169Y-58773373D01*
X115507957Y-58642457D01*
X115528439Y-58500000D01*
X115507957Y-58357543D01*
X115448169Y-58226627D01*
X115410550Y-58179944D01*
X115410545Y-58179939D01*
X115410541Y-58179934D01*
X114230605Y-57000000D01*
X120101418Y-57000000D01*
X120121715Y-57257898D01*
X120182102Y-57509430D01*
X120182106Y-57509442D01*
X120281102Y-57748441D01*
X120416267Y-57969009D01*
X120416270Y-57969014D01*
X120492426Y-58058181D01*
X120584276Y-58165724D01*
X120710191Y-58273265D01*
X120780985Y-58333729D01*
X120780990Y-58333732D01*
X121001558Y-58468897D01*
X121076648Y-58500000D01*
X121240560Y-58567895D01*
X121492105Y-58628285D01*
X121750000Y-58648582D01*
X122007895Y-58628285D01*
X122259440Y-58567895D01*
X122498441Y-58468897D01*
X122719012Y-58333731D01*
X122915724Y-58165724D01*
X123083731Y-57969012D01*
X123218897Y-57748441D01*
X123317895Y-57509440D01*
X123378285Y-57257895D01*
X123398582Y-57000000D01*
X123378285Y-56742105D01*
X123317895Y-56490560D01*
X123218897Y-56251559D01*
X123218897Y-56251558D01*
X123217942Y-56250000D01*
X145851418Y-56250000D01*
X145871715Y-56507898D01*
X145932102Y-56759430D01*
X145932106Y-56759442D01*
X146031102Y-56998441D01*
X146166267Y-57219009D01*
X146166270Y-57219014D01*
X146207521Y-57267312D01*
X146334276Y-57415724D01*
X146443992Y-57509430D01*
X146530985Y-57583729D01*
X146530990Y-57583732D01*
X146751558Y-57718897D01*
X146822884Y-57748441D01*
X146990560Y-57817895D01*
X147242105Y-57878285D01*
X147500000Y-57898582D01*
X147757895Y-57878285D01*
X148009440Y-57817895D01*
X148248441Y-57718897D01*
X148469012Y-57583731D01*
X148665724Y-57415724D01*
X148833731Y-57219012D01*
X148968897Y-56998441D01*
X149067895Y-56759440D01*
X149128285Y-56507895D01*
X149148582Y-56250000D01*
X149128285Y-55992105D01*
X149067895Y-55740560D01*
X148968897Y-55501559D01*
X148968897Y-55501558D01*
X148833732Y-55280990D01*
X148833729Y-55280985D01*
X148773265Y-55210191D01*
X148665724Y-55084276D01*
X148558181Y-54992426D01*
X148469014Y-54916270D01*
X148469009Y-54916267D01*
X148248441Y-54781102D01*
X148009442Y-54682106D01*
X148009444Y-54682106D01*
X148009440Y-54682105D01*
X148009436Y-54682104D01*
X148009430Y-54682102D01*
X147757898Y-54621715D01*
X147500000Y-54601418D01*
X147242101Y-54621715D01*
X146990569Y-54682102D01*
X146990557Y-54682106D01*
X146751558Y-54781102D01*
X146530990Y-54916267D01*
X146530985Y-54916270D01*
X146334276Y-55084276D01*
X146166270Y-55280985D01*
X146166267Y-55280990D01*
X146031102Y-55501558D01*
X145932106Y-55740557D01*
X145932102Y-55740569D01*
X145871715Y-55992101D01*
X145851418Y-56250000D01*
X123217942Y-56250000D01*
X123083732Y-56030990D01*
X123083729Y-56030985D01*
X123023265Y-55960191D01*
X122915724Y-55834276D01*
X122805993Y-55740557D01*
X122719014Y-55666270D01*
X122719009Y-55666267D01*
X122498441Y-55531102D01*
X122259442Y-55432106D01*
X122259444Y-55432106D01*
X122259440Y-55432105D01*
X122259436Y-55432104D01*
X122259430Y-55432102D01*
X122007898Y-55371715D01*
X121750000Y-55351418D01*
X121492101Y-55371715D01*
X121240569Y-55432102D01*
X121240557Y-55432106D01*
X121001558Y-55531102D01*
X120780990Y-55666267D01*
X120780985Y-55666270D01*
X120584276Y-55834276D01*
X120416270Y-56030985D01*
X120416267Y-56030990D01*
X120281102Y-56251558D01*
X120182106Y-56490557D01*
X120182102Y-56490569D01*
X120121715Y-56742101D01*
X120101418Y-57000000D01*
X114230605Y-57000000D01*
X114070063Y-56839458D01*
X114070056Y-56839451D01*
X114023373Y-56801831D01*
X113892457Y-56742043D01*
X113892455Y-56742042D01*
X113892457Y-56742042D01*
X113750000Y-56721561D01*
X113607543Y-56742042D01*
X113476629Y-56801829D01*
X113429934Y-56839458D01*
X112089458Y-58179936D01*
X112089452Y-58179943D01*
X112051830Y-58226628D01*
X112051829Y-58226630D01*
X111992042Y-58357543D01*
X111971561Y-58500000D01*
X111992042Y-58642456D01*
X112027474Y-58720039D01*
X112037418Y-58789198D01*
X112008393Y-58852753D01*
X111949615Y-58890528D01*
X111914680Y-58895551D01*
X111837900Y-58895551D01*
X111792113Y-58903191D01*
X111608964Y-58933753D01*
X111389453Y-59009112D01*
X111389444Y-59009115D01*
X111185320Y-59119582D01*
X111185314Y-59119586D01*
X111002171Y-59262132D01*
X111002168Y-59262135D01*
X111002165Y-59262137D01*
X111002165Y-59262138D01*
X110949146Y-59319732D01*
X110844965Y-59432903D01*
X110718024Y-59627202D01*
X110624791Y-59839750D01*
X110567815Y-60064742D01*
X110567813Y-60064753D01*
X110548649Y-60296044D01*
X108825251Y-60296044D01*
X109158807Y-59887869D01*
X109161424Y-59884773D01*
X109946370Y-58987196D01*
X109949139Y-58984136D01*
X109968615Y-58963313D01*
X110763592Y-58113338D01*
X110766414Y-58110420D01*
X111609552Y-57267282D01*
X111612470Y-57264460D01*
X112483280Y-56449995D01*
X112486341Y-56447227D01*
X112710085Y-56251559D01*
X113383905Y-55662292D01*
X113387001Y-55659675D01*
X114310253Y-54905204D01*
X114313471Y-54902662D01*
X115261441Y-54179445D01*
X115264767Y-54176995D01*
X116236342Y-53485881D01*
X116239759Y-53483536D01*
X116425405Y-53360610D01*
X117233889Y-52825269D01*
X117237312Y-52823084D01*
X118252929Y-52198376D01*
X118256423Y-52196306D01*
X119292392Y-51605859D01*
X119295917Y-51603927D01*
X120350995Y-51048449D01*
X120354652Y-51046601D01*
X121427650Y-50526713D01*
X121431372Y-50524985D01*
X122521164Y-50041232D01*
X122524951Y-50039626D01*
X122622941Y-49999993D01*
X134329700Y-49999993D01*
X134329700Y-50000006D01*
X134348864Y-50231297D01*
X134348866Y-50231308D01*
X134405842Y-50456300D01*
X134499075Y-50668848D01*
X134626016Y-50863147D01*
X134626019Y-50863151D01*
X134626021Y-50863153D01*
X134783216Y-51033913D01*
X134783219Y-51033915D01*
X134783222Y-51033918D01*
X134966365Y-51176464D01*
X134966371Y-51176468D01*
X134966374Y-51176470D01*
X135170497Y-51286936D01*
X135284487Y-51326068D01*
X135390015Y-51362297D01*
X135390017Y-51362297D01*
X135390019Y-51362298D01*
X135618951Y-51400500D01*
X135618952Y-51400500D01*
X135851048Y-51400500D01*
X135851049Y-51400500D01*
X136079981Y-51362298D01*
X136299503Y-51286936D01*
X136503626Y-51176470D01*
X136686784Y-51033913D01*
X136695511Y-51024432D01*
X136755394Y-50988441D01*
X136825232Y-50990538D01*
X136882850Y-51030060D01*
X136902924Y-51065080D01*
X136931645Y-51142086D01*
X136931649Y-51142093D01*
X137017809Y-51257187D01*
X137017812Y-51257190D01*
X137132906Y-51343350D01*
X137132913Y-51343354D01*
X137267620Y-51393596D01*
X137267627Y-51393598D01*
X137327155Y-51399999D01*
X137327172Y-51400000D01*
X138025000Y-51400000D01*
X138025000Y-50375277D01*
X138101306Y-50419333D01*
X138215756Y-50450000D01*
X138334244Y-50450000D01*
X138448694Y-50419333D01*
X138525000Y-50375277D01*
X138525000Y-51400000D01*
X139222828Y-51400000D01*
X139222844Y-51399999D01*
X139282372Y-51393598D01*
X139282379Y-51393596D01*
X139417086Y-51343354D01*
X139417093Y-51343350D01*
X139532187Y-51257190D01*
X139532190Y-51257187D01*
X139618350Y-51142093D01*
X139618354Y-51142086D01*
X139668596Y-51007379D01*
X139668598Y-51007372D01*
X139674999Y-50947844D01*
X139675000Y-50947827D01*
X139675000Y-50250000D01*
X138650278Y-50250000D01*
X138694333Y-50173694D01*
X138725000Y-50059244D01*
X138725000Y-49940756D01*
X138694333Y-49826306D01*
X138650278Y-49750000D01*
X139675000Y-49750000D01*
X139675000Y-49052172D01*
X139674999Y-49052155D01*
X139668598Y-48992627D01*
X139668596Y-48992620D01*
X139618354Y-48857913D01*
X139618350Y-48857906D01*
X139532190Y-48742812D01*
X139532187Y-48742809D01*
X139417093Y-48656649D01*
X139417086Y-48656645D01*
X139282379Y-48606403D01*
X139282372Y-48606401D01*
X139222844Y-48600000D01*
X138525000Y-48600000D01*
X138525000Y-49624722D01*
X138448694Y-49580667D01*
X138334244Y-49550000D01*
X138215756Y-49550000D01*
X138101306Y-49580667D01*
X138025000Y-49624722D01*
X138025000Y-48600000D01*
X137327155Y-48600000D01*
X137267627Y-48606401D01*
X137267620Y-48606403D01*
X137132913Y-48656645D01*
X137132906Y-48656649D01*
X137017812Y-48742809D01*
X137017809Y-48742812D01*
X136931649Y-48857906D01*
X136931646Y-48857911D01*
X136902924Y-48934920D01*
X136861052Y-48990853D01*
X136795588Y-49015270D01*
X136727315Y-49000418D01*
X136695514Y-48975571D01*
X136686784Y-48966087D01*
X136686779Y-48966083D01*
X136686777Y-48966081D01*
X136503634Y-48823535D01*
X136503628Y-48823531D01*
X136299504Y-48713064D01*
X136299495Y-48713061D01*
X136079984Y-48637702D01*
X135892404Y-48606401D01*
X135851049Y-48599500D01*
X135618951Y-48599500D01*
X135577596Y-48606401D01*
X135390015Y-48637702D01*
X135170504Y-48713061D01*
X135170495Y-48713064D01*
X134966371Y-48823531D01*
X134966365Y-48823535D01*
X134783222Y-48966081D01*
X134783219Y-48966084D01*
X134783216Y-48966086D01*
X134783216Y-48966087D01*
X134758791Y-48992620D01*
X134626016Y-49136852D01*
X134499075Y-49331151D01*
X134405842Y-49543699D01*
X134348866Y-49768691D01*
X134348864Y-49768702D01*
X134329700Y-49999993D01*
X122622941Y-49999993D01*
X123630325Y-49592549D01*
X123634118Y-49591089D01*
X124753804Y-49181200D01*
X124757682Y-49179854D01*
X125890437Y-48807609D01*
X125894284Y-48806416D01*
X127038896Y-48472216D01*
X127042793Y-48471148D01*
X128197906Y-48175388D01*
X128201859Y-48174446D01*
X129366250Y-47917440D01*
X129370187Y-47916640D01*
X130542483Y-47698693D01*
X130546500Y-47698015D01*
X131725372Y-47519369D01*
X131729418Y-47518825D01*
X132913688Y-47379660D01*
X132917706Y-47379257D01*
X134105894Y-47279749D01*
X134109956Y-47279477D01*
X135300817Y-47219726D01*
X135304881Y-47219590D01*
X136497098Y-47199666D01*
X136501166Y-47199666D01*
X137693380Y-47219590D01*
G37*
%TD.AperFunction*%
%TD*%
M02*
