%TF.GenerationSoftware,KiCad,Pcbnew,8.0.5*%
%TF.CreationDate,2024-12-03T21:08:27+09:00*%
%TF.ProjectId,IR_con,49525f63-6f6e-42e6-9b69-6361645f7063,rev?*%
%TF.SameCoordinates,Original*%
%TF.FileFunction,Drillmap*%
%TF.FilePolarity,Positive*%
%FSLAX45Y45*%
G04 Gerber Fmt 4.5, Leading zero omitted, Abs format (unit mm)*
G04 Created by KiCad (PCBNEW 8.0.5) date 2024-12-03 21:08:27*
%MOMM*%
%LPD*%
G01*
G04 APERTURE LIST*
%ADD10C,0.050000*%
%ADD11C,0.200000*%
G04 APERTURE END LIST*
D10*
X17250000Y-8300000D02*
G75*
G02*
X10049826Y-8300000I-3600087J0D01*
G01*
X10049826Y-8300000D02*
G75*
G02*
X17250000Y-8300000I3600087J0D01*
G01*
D11*
X10308103Y-12214071D02*
X10308103Y-12014071D01*
X10308103Y-12014071D02*
X10355722Y-12014071D01*
X10355722Y-12014071D02*
X10384294Y-12023594D01*
X10384294Y-12023594D02*
X10403341Y-12042642D01*
X10403341Y-12042642D02*
X10412865Y-12061690D01*
X10412865Y-12061690D02*
X10422389Y-12099785D01*
X10422389Y-12099785D02*
X10422389Y-12128356D01*
X10422389Y-12128356D02*
X10412865Y-12166451D01*
X10412865Y-12166451D02*
X10403341Y-12185499D01*
X10403341Y-12185499D02*
X10384294Y-12204547D01*
X10384294Y-12204547D02*
X10355722Y-12214071D01*
X10355722Y-12214071D02*
X10308103Y-12214071D01*
X10508103Y-12214071D02*
X10508103Y-12080737D01*
X10508103Y-12118832D02*
X10517627Y-12099785D01*
X10517627Y-12099785D02*
X10527151Y-12090261D01*
X10527151Y-12090261D02*
X10546198Y-12080737D01*
X10546198Y-12080737D02*
X10565246Y-12080737D01*
X10631913Y-12214071D02*
X10631913Y-12080737D01*
X10631913Y-12014071D02*
X10622389Y-12023594D01*
X10622389Y-12023594D02*
X10631913Y-12033118D01*
X10631913Y-12033118D02*
X10641437Y-12023594D01*
X10641437Y-12023594D02*
X10631913Y-12014071D01*
X10631913Y-12014071D02*
X10631913Y-12033118D01*
X10755722Y-12214071D02*
X10736675Y-12204547D01*
X10736675Y-12204547D02*
X10727151Y-12185499D01*
X10727151Y-12185499D02*
X10727151Y-12014071D01*
X10860484Y-12214071D02*
X10841437Y-12204547D01*
X10841437Y-12204547D02*
X10831913Y-12185499D01*
X10831913Y-12185499D02*
X10831913Y-12014071D01*
X11089056Y-12214071D02*
X11089056Y-12014071D01*
X11089056Y-12014071D02*
X11155722Y-12156928D01*
X11155722Y-12156928D02*
X11222389Y-12014071D01*
X11222389Y-12014071D02*
X11222389Y-12214071D01*
X11403341Y-12214071D02*
X11403341Y-12109309D01*
X11403341Y-12109309D02*
X11393817Y-12090261D01*
X11393817Y-12090261D02*
X11374770Y-12080737D01*
X11374770Y-12080737D02*
X11336675Y-12080737D01*
X11336675Y-12080737D02*
X11317627Y-12090261D01*
X11403341Y-12204547D02*
X11384294Y-12214071D01*
X11384294Y-12214071D02*
X11336675Y-12214071D01*
X11336675Y-12214071D02*
X11317627Y-12204547D01*
X11317627Y-12204547D02*
X11308103Y-12185499D01*
X11308103Y-12185499D02*
X11308103Y-12166451D01*
X11308103Y-12166451D02*
X11317627Y-12147404D01*
X11317627Y-12147404D02*
X11336675Y-12137880D01*
X11336675Y-12137880D02*
X11384294Y-12137880D01*
X11384294Y-12137880D02*
X11403341Y-12128356D01*
X11498579Y-12080737D02*
X11498579Y-12280737D01*
X11498579Y-12090261D02*
X11517627Y-12080737D01*
X11517627Y-12080737D02*
X11555722Y-12080737D01*
X11555722Y-12080737D02*
X11574770Y-12090261D01*
X11574770Y-12090261D02*
X11584294Y-12099785D01*
X11584294Y-12099785D02*
X11593817Y-12118832D01*
X11593817Y-12118832D02*
X11593817Y-12175975D01*
X11593817Y-12175975D02*
X11584294Y-12195023D01*
X11584294Y-12195023D02*
X11574770Y-12204547D01*
X11574770Y-12204547D02*
X11555722Y-12214071D01*
X11555722Y-12214071D02*
X11517627Y-12214071D01*
X11517627Y-12214071D02*
X11498579Y-12204547D01*
X11679532Y-12195023D02*
X11689056Y-12204547D01*
X11689056Y-12204547D02*
X11679532Y-12214071D01*
X11679532Y-12214071D02*
X11670008Y-12204547D01*
X11670008Y-12204547D02*
X11679532Y-12195023D01*
X11679532Y-12195023D02*
X11679532Y-12214071D01*
X11679532Y-12090261D02*
X11689056Y-12099785D01*
X11689056Y-12099785D02*
X11679532Y-12109309D01*
X11679532Y-12109309D02*
X11670008Y-12099785D01*
X11670008Y-12099785D02*
X11679532Y-12090261D01*
X11679532Y-12090261D02*
X11679532Y-12109309D01*
M02*
