%TF.GenerationSoftware,KiCad,Pcbnew,8.0.5*%
%TF.CreationDate,2024-12-03T21:08:27+09:00*%
%TF.ProjectId,IR_con,49525f63-6f6e-42e6-9b69-6361645f7063,rev?*%
%TF.SameCoordinates,Original*%
%TF.FileFunction,Drillmap*%
%TF.FilePolarity,Positive*%
%FSLAX45Y45*%
G04 Gerber Fmt 4.5, Leading zero omitted, Abs format (unit mm)*
G04 Created by KiCad (PCBNEW 8.0.5) date 2024-12-03 21:08:27*
%MOMM*%
%LPD*%
G01*
G04 APERTURE LIST*
%ADD10C,0.050000*%
%ADD11C,0.200000*%
%ADD12C,0.100000*%
%ADD13C,0.120000*%
%ADD14C,0.140000*%
G04 APERTURE END LIST*
D10*
X17250000Y-8300000D02*
G75*
G02*
X10049826Y-8300000I-3600087J0D01*
G01*
X10049826Y-8300000D02*
G75*
G02*
X17250000Y-8300000I3600087J0D01*
G01*
D11*
D12*
X10985000Y-7035000D02*
X11015000Y-7065000D01*
X11015000Y-7035000D02*
X10985000Y-7065000D01*
X11660000Y-6785000D02*
X11690000Y-6815000D01*
X11690000Y-6785000D02*
X11660000Y-6815000D01*
X13812500Y-5360000D02*
X13842500Y-5390000D01*
X13842500Y-5360000D02*
X13812500Y-5390000D01*
X16285000Y-9835000D02*
X16315000Y-9865000D01*
X16315000Y-9835000D02*
X16285000Y-9865000D01*
X13384000Y-6075000D02*
G75*
G02*
X13304000Y-6075000I-40000J0D01*
G01*
X13304000Y-6075000D02*
G75*
G02*
X13384000Y-6075000I40000J0D01*
G01*
X13385000Y-6670000D02*
G75*
G02*
X13305000Y-6670000I-40000J0D01*
G01*
X13305000Y-6670000D02*
G75*
G02*
X13385000Y-6670000I40000J0D01*
G01*
X13385000Y-6924000D02*
G75*
G02*
X13305000Y-6924000I-40000J0D01*
G01*
X13305000Y-6924000D02*
G75*
G02*
X13385000Y-6924000I40000J0D01*
G01*
X13385000Y-7178000D02*
G75*
G02*
X13305000Y-7178000I-40000J0D01*
G01*
X13305000Y-7178000D02*
G75*
G02*
X13385000Y-7178000I40000J0D01*
G01*
X13385000Y-7432000D02*
G75*
G02*
X13305000Y-7432000I-40000J0D01*
G01*
X13305000Y-7432000D02*
G75*
G02*
X13385000Y-7432000I40000J0D01*
G01*
X13515000Y-8000000D02*
G75*
G02*
X13435000Y-8000000I-40000J0D01*
G01*
X13435000Y-8000000D02*
G75*
G02*
X13515000Y-8000000I40000J0D01*
G01*
X14015000Y-8000000D02*
G75*
G02*
X13935000Y-8000000I-40000J0D01*
G01*
X13935000Y-8000000D02*
G75*
G02*
X14015000Y-8000000I40000J0D01*
G01*
X14146000Y-6075000D02*
G75*
G02*
X14066000Y-6075000I-40000J0D01*
G01*
X14066000Y-6075000D02*
G75*
G02*
X14146000Y-6075000I40000J0D01*
G01*
X14147000Y-6670000D02*
G75*
G02*
X14067000Y-6670000I-40000J0D01*
G01*
X14067000Y-6670000D02*
G75*
G02*
X14147000Y-6670000I40000J0D01*
G01*
X14147000Y-6924000D02*
G75*
G02*
X14067000Y-6924000I-40000J0D01*
G01*
X14067000Y-6924000D02*
G75*
G02*
X14147000Y-6924000I40000J0D01*
G01*
X14147000Y-7178000D02*
G75*
G02*
X14067000Y-7178000I-40000J0D01*
G01*
X14067000Y-7178000D02*
G75*
G02*
X14147000Y-7178000I40000J0D01*
G01*
X14147000Y-7432000D02*
G75*
G02*
X14067000Y-7432000I-40000J0D01*
G01*
X14067000Y-7432000D02*
G75*
G02*
X14147000Y-7432000I40000J0D01*
G01*
X15115000Y-5919000D02*
G75*
G02*
X15035000Y-5919000I-40000J0D01*
G01*
X15035000Y-5919000D02*
G75*
G02*
X15115000Y-5919000I40000J0D01*
G01*
X15115000Y-6681000D02*
G75*
G02*
X15035000Y-6681000I-40000J0D01*
G01*
X15035000Y-6681000D02*
G75*
G02*
X15115000Y-6681000I40000J0D01*
G01*
X15215000Y-7350000D02*
G75*
G02*
X15135000Y-7350000I-40000J0D01*
G01*
X15135000Y-7350000D02*
G75*
G02*
X15215000Y-7350000I40000J0D01*
G01*
X15215000Y-7850000D02*
G75*
G02*
X15135000Y-7850000I-40000J0D01*
G01*
X15135000Y-7850000D02*
G75*
G02*
X15215000Y-7850000I40000J0D01*
G01*
X10450000Y-7902500D02*
X10450000Y-7992500D01*
X10405000Y-7947500D02*
X10495000Y-7947500D01*
X10450000Y-8156500D02*
X10450000Y-8246500D01*
X10405000Y-8201500D02*
X10495000Y-8201500D01*
X11134844Y-10389844D02*
X11134844Y-10479844D01*
X11089844Y-10434844D02*
X11179844Y-10434844D01*
X11195395Y-5984605D02*
X11195395Y-6074605D01*
X11150395Y-6029605D02*
X11240395Y-6029605D01*
X11314449Y-10569449D02*
X11314449Y-10659449D01*
X11269449Y-10614449D02*
X11359449Y-10614449D01*
X11375000Y-5805000D02*
X11375000Y-5895000D01*
X11330000Y-5850000D02*
X11420000Y-5850000D01*
X13573500Y-4955000D02*
X13573500Y-5045000D01*
X13528500Y-5000000D02*
X13618500Y-5000000D01*
X13600000Y-11455000D02*
X13600000Y-11545000D01*
X13555000Y-11500000D02*
X13645000Y-11500000D01*
X13827500Y-4955000D02*
X13827500Y-5045000D01*
X13782500Y-5000000D02*
X13872500Y-5000000D01*
X13854000Y-11455000D02*
X13854000Y-11545000D01*
X13809000Y-11500000D02*
X13899000Y-11500000D01*
X16000000Y-5855000D02*
X16000000Y-5945000D01*
X15955000Y-5900000D02*
X16045000Y-5900000D01*
X16135551Y-10444449D02*
X16135551Y-10534449D01*
X16090551Y-10489449D02*
X16180551Y-10489449D01*
X16179605Y-6034605D02*
X16179605Y-6124605D01*
X16134605Y-6079605D02*
X16224605Y-6079605D01*
X16315156Y-10264844D02*
X16315156Y-10354844D01*
X16270156Y-10309844D02*
X16360156Y-10309844D01*
X16925000Y-7902500D02*
X16925000Y-7992500D01*
X16880000Y-7947500D02*
X16970000Y-7947500D01*
X16925000Y-8156500D02*
X16925000Y-8246500D01*
X16880000Y-8201500D02*
X16970000Y-8201500D01*
X11805356Y-8597356D02*
X11805356Y-8526644D01*
X11734644Y-8526644D01*
X11734644Y-8597356D01*
X11805356Y-8597356D01*
X11805356Y-10121356D02*
X11805356Y-10050644D01*
X11734644Y-10050644D01*
X11734644Y-10121356D01*
X11805356Y-10121356D01*
X12059356Y-8597356D02*
X12059356Y-8526644D01*
X11988644Y-8526644D01*
X11988644Y-8597356D01*
X12059356Y-8597356D01*
X12059356Y-10121356D02*
X12059356Y-10050644D01*
X11988644Y-10050644D01*
X11988644Y-10121356D01*
X12059356Y-10121356D01*
X12313356Y-8597356D02*
X12313356Y-8526644D01*
X12242644Y-8526644D01*
X12242644Y-8597356D01*
X12313356Y-8597356D01*
X12313356Y-10121356D02*
X12313356Y-10050644D01*
X12242644Y-10050644D01*
X12242644Y-10121356D01*
X12313356Y-10121356D01*
X12567356Y-8597356D02*
X12567356Y-8526644D01*
X12496644Y-8526644D01*
X12496644Y-8597356D01*
X12567356Y-8597356D01*
X12567356Y-10121356D02*
X12567356Y-10050644D01*
X12496644Y-10050644D01*
X12496644Y-10121356D01*
X12567356Y-10121356D01*
X12821356Y-8597356D02*
X12821356Y-8526644D01*
X12750644Y-8526644D01*
X12750644Y-8597356D01*
X12821356Y-8597356D01*
X12821356Y-10121356D02*
X12821356Y-10050644D01*
X12750644Y-10050644D01*
X12750644Y-10121356D01*
X12821356Y-10121356D01*
X13075356Y-8597356D02*
X13075356Y-8526644D01*
X13004644Y-8526644D01*
X13004644Y-8597356D01*
X13075356Y-8597356D01*
X13075356Y-10121356D02*
X13075356Y-10050644D01*
X13004644Y-10050644D01*
X13004644Y-10121356D01*
X13075356Y-10121356D01*
X13329356Y-8597356D02*
X13329356Y-8526644D01*
X13258644Y-8526644D01*
X13258644Y-8597356D01*
X13329356Y-8597356D01*
X13329356Y-10121356D02*
X13329356Y-10050644D01*
X13258644Y-10050644D01*
X13258644Y-10121356D01*
X13329356Y-10121356D01*
X13583356Y-8597356D02*
X13583356Y-8526644D01*
X13512644Y-8526644D01*
X13512644Y-8597356D01*
X13583356Y-8597356D01*
X13583356Y-10121356D02*
X13583356Y-10050644D01*
X13512644Y-10050644D01*
X13512644Y-10121356D01*
X13583356Y-10121356D01*
X13837356Y-8597356D02*
X13837356Y-8526644D01*
X13766644Y-8526644D01*
X13766644Y-8597356D01*
X13837356Y-8597356D01*
X13837356Y-10121356D02*
X13837356Y-10050644D01*
X13766644Y-10050644D01*
X13766644Y-10121356D01*
X13837356Y-10121356D01*
X14091356Y-8597356D02*
X14091356Y-8526644D01*
X14020644Y-8526644D01*
X14020644Y-8597356D01*
X14091356Y-8597356D01*
X14091356Y-10121356D02*
X14091356Y-10050644D01*
X14020644Y-10050644D01*
X14020644Y-10121356D01*
X14091356Y-10121356D01*
X14345356Y-8597356D02*
X14345356Y-8526644D01*
X14274644Y-8526644D01*
X14274644Y-8597356D01*
X14345356Y-8597356D01*
X14345356Y-10121356D02*
X14345356Y-10050644D01*
X14274644Y-10050644D01*
X14274644Y-10121356D01*
X14345356Y-10121356D01*
X14599356Y-8597356D02*
X14599356Y-8526644D01*
X14528644Y-8526644D01*
X14528644Y-8597356D01*
X14599356Y-8597356D01*
X14599356Y-10121356D02*
X14599356Y-10050644D01*
X14528644Y-10050644D01*
X14528644Y-10121356D01*
X14599356Y-10121356D01*
X14853356Y-8597356D02*
X14853356Y-8526644D01*
X14782644Y-8526644D01*
X14782644Y-8597356D01*
X14853356Y-8597356D01*
X14853356Y-10121356D02*
X14853356Y-10050644D01*
X14782644Y-10050644D01*
X14782644Y-10121356D01*
X14853356Y-10121356D01*
X15107356Y-8597356D02*
X15107356Y-8526644D01*
X15036644Y-8526644D01*
X15036644Y-8597356D01*
X15107356Y-8597356D01*
X15107356Y-10121356D02*
X15107356Y-10050644D01*
X15036644Y-10050644D01*
X15036644Y-10121356D01*
X15107356Y-10121356D01*
X15361356Y-8597356D02*
X15361356Y-8526644D01*
X15290644Y-8526644D01*
X15290644Y-8597356D01*
X15361356Y-8597356D01*
X15361356Y-10121356D02*
X15361356Y-10050644D01*
X15290644Y-10050644D01*
X15290644Y-10121356D01*
X15361356Y-10121356D01*
X16685356Y-7106356D02*
X16685356Y-7035644D01*
X16614644Y-7035644D01*
X16614644Y-7106356D01*
X16685356Y-7106356D01*
X16685356Y-7360356D02*
X16685356Y-7289644D01*
X16614644Y-7289644D01*
X16614644Y-7360356D01*
X16685356Y-7360356D01*
D13*
X13046000Y-10760000D02*
X13106000Y-10700000D01*
X13046000Y-10640000D01*
X12986000Y-10700000D01*
X13046000Y-10760000D01*
X13300000Y-10760000D02*
X13360000Y-10700000D01*
X13300000Y-10640000D01*
X13240000Y-10700000D01*
X13300000Y-10760000D01*
X13554000Y-10760000D02*
X13614000Y-10700000D01*
X13554000Y-10640000D01*
X13494000Y-10700000D01*
X13554000Y-10760000D01*
D14*
X12105000Y-5630000D02*
X12245000Y-5770000D01*
X12245000Y-5630000D02*
X12105000Y-5770000D01*
X12245000Y-5700000D02*
G75*
G02*
X12105000Y-5700000I-70000J0D01*
G01*
X12105000Y-5700000D02*
G75*
G02*
X12245000Y-5700000I70000J0D01*
G01*
X12105000Y-7630000D02*
X12245000Y-7770000D01*
X12245000Y-7630000D02*
X12105000Y-7770000D01*
X12245000Y-7700000D02*
G75*
G02*
X12105000Y-7700000I-70000J0D01*
G01*
X12105000Y-7700000D02*
G75*
G02*
X12245000Y-7700000I70000J0D01*
G01*
X14680000Y-5555000D02*
X14820000Y-5695000D01*
X14820000Y-5555000D02*
X14680000Y-5695000D01*
X14820000Y-5625000D02*
G75*
G02*
X14680000Y-5625000I-70000J0D01*
G01*
X14680000Y-5625000D02*
G75*
G02*
X14820000Y-5625000I70000J0D01*
G01*
X14680000Y-7555000D02*
X14820000Y-7695000D01*
X14820000Y-7555000D02*
X14680000Y-7695000D01*
X14820000Y-7625000D02*
G75*
G02*
X14680000Y-7625000I-70000J0D01*
G01*
X14680000Y-7625000D02*
G75*
G02*
X14820000Y-7625000I70000J0D01*
G01*
D11*
X10308103Y-12214071D02*
X10308103Y-12014071D01*
X10308103Y-12014071D02*
X10355722Y-12014071D01*
X10355722Y-12014071D02*
X10384294Y-12023594D01*
X10384294Y-12023594D02*
X10403341Y-12042642D01*
X10403341Y-12042642D02*
X10412865Y-12061690D01*
X10412865Y-12061690D02*
X10422389Y-12099785D01*
X10422389Y-12099785D02*
X10422389Y-12128356D01*
X10422389Y-12128356D02*
X10412865Y-12166451D01*
X10412865Y-12166451D02*
X10403341Y-12185499D01*
X10403341Y-12185499D02*
X10384294Y-12204547D01*
X10384294Y-12204547D02*
X10355722Y-12214071D01*
X10355722Y-12214071D02*
X10308103Y-12214071D01*
X10508103Y-12214071D02*
X10508103Y-12080737D01*
X10508103Y-12118832D02*
X10517627Y-12099785D01*
X10517627Y-12099785D02*
X10527151Y-12090261D01*
X10527151Y-12090261D02*
X10546198Y-12080737D01*
X10546198Y-12080737D02*
X10565246Y-12080737D01*
X10631913Y-12214071D02*
X10631913Y-12080737D01*
X10631913Y-12014071D02*
X10622389Y-12023594D01*
X10622389Y-12023594D02*
X10631913Y-12033118D01*
X10631913Y-12033118D02*
X10641437Y-12023594D01*
X10641437Y-12023594D02*
X10631913Y-12014071D01*
X10631913Y-12014071D02*
X10631913Y-12033118D01*
X10755722Y-12214071D02*
X10736675Y-12204547D01*
X10736675Y-12204547D02*
X10727151Y-12185499D01*
X10727151Y-12185499D02*
X10727151Y-12014071D01*
X10860484Y-12214071D02*
X10841437Y-12204547D01*
X10841437Y-12204547D02*
X10831913Y-12185499D01*
X10831913Y-12185499D02*
X10831913Y-12014071D01*
X11089056Y-12214071D02*
X11089056Y-12014071D01*
X11089056Y-12014071D02*
X11155722Y-12156928D01*
X11155722Y-12156928D02*
X11222389Y-12014071D01*
X11222389Y-12014071D02*
X11222389Y-12214071D01*
X11403341Y-12214071D02*
X11403341Y-12109309D01*
X11403341Y-12109309D02*
X11393817Y-12090261D01*
X11393817Y-12090261D02*
X11374770Y-12080737D01*
X11374770Y-12080737D02*
X11336675Y-12080737D01*
X11336675Y-12080737D02*
X11317627Y-12090261D01*
X11403341Y-12204547D02*
X11384294Y-12214071D01*
X11384294Y-12214071D02*
X11336675Y-12214071D01*
X11336675Y-12214071D02*
X11317627Y-12204547D01*
X11317627Y-12204547D02*
X11308103Y-12185499D01*
X11308103Y-12185499D02*
X11308103Y-12166451D01*
X11308103Y-12166451D02*
X11317627Y-12147404D01*
X11317627Y-12147404D02*
X11336675Y-12137880D01*
X11336675Y-12137880D02*
X11384294Y-12137880D01*
X11384294Y-12137880D02*
X11403341Y-12128356D01*
X11498579Y-12080737D02*
X11498579Y-12280737D01*
X11498579Y-12090261D02*
X11517627Y-12080737D01*
X11517627Y-12080737D02*
X11555722Y-12080737D01*
X11555722Y-12080737D02*
X11574770Y-12090261D01*
X11574770Y-12090261D02*
X11584294Y-12099785D01*
X11584294Y-12099785D02*
X11593817Y-12118832D01*
X11593817Y-12118832D02*
X11593817Y-12175975D01*
X11593817Y-12175975D02*
X11584294Y-12195023D01*
X11584294Y-12195023D02*
X11574770Y-12204547D01*
X11574770Y-12204547D02*
X11555722Y-12214071D01*
X11555722Y-12214071D02*
X11517627Y-12214071D01*
X11517627Y-12214071D02*
X11498579Y-12204547D01*
X11679532Y-12195023D02*
X11689056Y-12204547D01*
X11689056Y-12204547D02*
X11679532Y-12214071D01*
X11679532Y-12214071D02*
X11670008Y-12204547D01*
X11670008Y-12204547D02*
X11679532Y-12195023D01*
X11679532Y-12195023D02*
X11679532Y-12214071D01*
X11679532Y-12090261D02*
X11689056Y-12099785D01*
X11689056Y-12099785D02*
X11679532Y-12109309D01*
X11679532Y-12109309D02*
X11670008Y-12099785D01*
X11670008Y-12099785D02*
X11679532Y-12090261D01*
X11679532Y-12090261D02*
X11679532Y-12109309D01*
D12*
X10017326Y-12527587D02*
X10047326Y-12557587D01*
X10047326Y-12527587D02*
X10017326Y-12557587D01*
D11*
X10346198Y-12434071D02*
X10365246Y-12434071D01*
X10365246Y-12434071D02*
X10384294Y-12443594D01*
X10384294Y-12443594D02*
X10393818Y-12453118D01*
X10393818Y-12453118D02*
X10403341Y-12472166D01*
X10403341Y-12472166D02*
X10412865Y-12510261D01*
X10412865Y-12510261D02*
X10412865Y-12557880D01*
X10412865Y-12557880D02*
X10403341Y-12595975D01*
X10403341Y-12595975D02*
X10393818Y-12615023D01*
X10393818Y-12615023D02*
X10384294Y-12624547D01*
X10384294Y-12624547D02*
X10365246Y-12634071D01*
X10365246Y-12634071D02*
X10346198Y-12634071D01*
X10346198Y-12634071D02*
X10327151Y-12624547D01*
X10327151Y-12624547D02*
X10317627Y-12615023D01*
X10317627Y-12615023D02*
X10308103Y-12595975D01*
X10308103Y-12595975D02*
X10298579Y-12557880D01*
X10298579Y-12557880D02*
X10298579Y-12510261D01*
X10298579Y-12510261D02*
X10308103Y-12472166D01*
X10308103Y-12472166D02*
X10317627Y-12453118D01*
X10317627Y-12453118D02*
X10327151Y-12443594D01*
X10327151Y-12443594D02*
X10346198Y-12434071D01*
X10498579Y-12615023D02*
X10508103Y-12624547D01*
X10508103Y-12624547D02*
X10498579Y-12634071D01*
X10498579Y-12634071D02*
X10489056Y-12624547D01*
X10489056Y-12624547D02*
X10498579Y-12615023D01*
X10498579Y-12615023D02*
X10498579Y-12634071D01*
X10574770Y-12434071D02*
X10698579Y-12434071D01*
X10698579Y-12434071D02*
X10631913Y-12510261D01*
X10631913Y-12510261D02*
X10660484Y-12510261D01*
X10660484Y-12510261D02*
X10679532Y-12519785D01*
X10679532Y-12519785D02*
X10689056Y-12529309D01*
X10689056Y-12529309D02*
X10698579Y-12548356D01*
X10698579Y-12548356D02*
X10698579Y-12595975D01*
X10698579Y-12595975D02*
X10689056Y-12615023D01*
X10689056Y-12615023D02*
X10679532Y-12624547D01*
X10679532Y-12624547D02*
X10660484Y-12634071D01*
X10660484Y-12634071D02*
X10603341Y-12634071D01*
X10603341Y-12634071D02*
X10584294Y-12624547D01*
X10584294Y-12624547D02*
X10574770Y-12615023D01*
X10822389Y-12434071D02*
X10841437Y-12434071D01*
X10841437Y-12434071D02*
X10860484Y-12443594D01*
X10860484Y-12443594D02*
X10870008Y-12453118D01*
X10870008Y-12453118D02*
X10879532Y-12472166D01*
X10879532Y-12472166D02*
X10889056Y-12510261D01*
X10889056Y-12510261D02*
X10889056Y-12557880D01*
X10889056Y-12557880D02*
X10879532Y-12595975D01*
X10879532Y-12595975D02*
X10870008Y-12615023D01*
X10870008Y-12615023D02*
X10860484Y-12624547D01*
X10860484Y-12624547D02*
X10841437Y-12634071D01*
X10841437Y-12634071D02*
X10822389Y-12634071D01*
X10822389Y-12634071D02*
X10803341Y-12624547D01*
X10803341Y-12624547D02*
X10793818Y-12615023D01*
X10793818Y-12615023D02*
X10784294Y-12595975D01*
X10784294Y-12595975D02*
X10774770Y-12557880D01*
X10774770Y-12557880D02*
X10774770Y-12510261D01*
X10774770Y-12510261D02*
X10784294Y-12472166D01*
X10784294Y-12472166D02*
X10793818Y-12453118D01*
X10793818Y-12453118D02*
X10803341Y-12443594D01*
X10803341Y-12443594D02*
X10822389Y-12434071D01*
X11012865Y-12434071D02*
X11031913Y-12434071D01*
X11031913Y-12434071D02*
X11050960Y-12443594D01*
X11050960Y-12443594D02*
X11060484Y-12453118D01*
X11060484Y-12453118D02*
X11070008Y-12472166D01*
X11070008Y-12472166D02*
X11079532Y-12510261D01*
X11079532Y-12510261D02*
X11079532Y-12557880D01*
X11079532Y-12557880D02*
X11070008Y-12595975D01*
X11070008Y-12595975D02*
X11060484Y-12615023D01*
X11060484Y-12615023D02*
X11050960Y-12624547D01*
X11050960Y-12624547D02*
X11031913Y-12634071D01*
X11031913Y-12634071D02*
X11012865Y-12634071D01*
X11012865Y-12634071D02*
X10993818Y-12624547D01*
X10993818Y-12624547D02*
X10984294Y-12615023D01*
X10984294Y-12615023D02*
X10974770Y-12595975D01*
X10974770Y-12595975D02*
X10965246Y-12557880D01*
X10965246Y-12557880D02*
X10965246Y-12510261D01*
X10965246Y-12510261D02*
X10974770Y-12472166D01*
X10974770Y-12472166D02*
X10984294Y-12453118D01*
X10984294Y-12453118D02*
X10993818Y-12443594D01*
X10993818Y-12443594D02*
X11012865Y-12434071D01*
X11165246Y-12634071D02*
X11165246Y-12500737D01*
X11165246Y-12519785D02*
X11174770Y-12510261D01*
X11174770Y-12510261D02*
X11193817Y-12500737D01*
X11193817Y-12500737D02*
X11222389Y-12500737D01*
X11222389Y-12500737D02*
X11241437Y-12510261D01*
X11241437Y-12510261D02*
X11250960Y-12529309D01*
X11250960Y-12529309D02*
X11250960Y-12634071D01*
X11250960Y-12529309D02*
X11260484Y-12510261D01*
X11260484Y-12510261D02*
X11279532Y-12500737D01*
X11279532Y-12500737D02*
X11308103Y-12500737D01*
X11308103Y-12500737D02*
X11327151Y-12510261D01*
X11327151Y-12510261D02*
X11336675Y-12529309D01*
X11336675Y-12529309D02*
X11336675Y-12634071D01*
X11431913Y-12634071D02*
X11431913Y-12500737D01*
X11431913Y-12519785D02*
X11441437Y-12510261D01*
X11441437Y-12510261D02*
X11460484Y-12500737D01*
X11460484Y-12500737D02*
X11489056Y-12500737D01*
X11489056Y-12500737D02*
X11508103Y-12510261D01*
X11508103Y-12510261D02*
X11517627Y-12529309D01*
X11517627Y-12529309D02*
X11517627Y-12634071D01*
X11517627Y-12529309D02*
X11527151Y-12510261D01*
X11527151Y-12510261D02*
X11546198Y-12500737D01*
X11546198Y-12500737D02*
X11574770Y-12500737D01*
X11574770Y-12500737D02*
X11593818Y-12510261D01*
X11593818Y-12510261D02*
X11603341Y-12529309D01*
X11603341Y-12529309D02*
X11603341Y-12634071D01*
X11993818Y-12424547D02*
X11822389Y-12681690D01*
X12250960Y-12434071D02*
X12270008Y-12434071D01*
X12270008Y-12434071D02*
X12289056Y-12443594D01*
X12289056Y-12443594D02*
X12298580Y-12453118D01*
X12298580Y-12453118D02*
X12308103Y-12472166D01*
X12308103Y-12472166D02*
X12317627Y-12510261D01*
X12317627Y-12510261D02*
X12317627Y-12557880D01*
X12317627Y-12557880D02*
X12308103Y-12595975D01*
X12308103Y-12595975D02*
X12298580Y-12615023D01*
X12298580Y-12615023D02*
X12289056Y-12624547D01*
X12289056Y-12624547D02*
X12270008Y-12634071D01*
X12270008Y-12634071D02*
X12250960Y-12634071D01*
X12250960Y-12634071D02*
X12231913Y-12624547D01*
X12231913Y-12624547D02*
X12222389Y-12615023D01*
X12222389Y-12615023D02*
X12212865Y-12595975D01*
X12212865Y-12595975D02*
X12203341Y-12557880D01*
X12203341Y-12557880D02*
X12203341Y-12510261D01*
X12203341Y-12510261D02*
X12212865Y-12472166D01*
X12212865Y-12472166D02*
X12222389Y-12453118D01*
X12222389Y-12453118D02*
X12231913Y-12443594D01*
X12231913Y-12443594D02*
X12250960Y-12434071D01*
X12403341Y-12615023D02*
X12412865Y-12624547D01*
X12412865Y-12624547D02*
X12403341Y-12634071D01*
X12403341Y-12634071D02*
X12393818Y-12624547D01*
X12393818Y-12624547D02*
X12403341Y-12615023D01*
X12403341Y-12615023D02*
X12403341Y-12634071D01*
X12536675Y-12434071D02*
X12555722Y-12434071D01*
X12555722Y-12434071D02*
X12574770Y-12443594D01*
X12574770Y-12443594D02*
X12584294Y-12453118D01*
X12584294Y-12453118D02*
X12593818Y-12472166D01*
X12593818Y-12472166D02*
X12603341Y-12510261D01*
X12603341Y-12510261D02*
X12603341Y-12557880D01*
X12603341Y-12557880D02*
X12593818Y-12595975D01*
X12593818Y-12595975D02*
X12584294Y-12615023D01*
X12584294Y-12615023D02*
X12574770Y-12624547D01*
X12574770Y-12624547D02*
X12555722Y-12634071D01*
X12555722Y-12634071D02*
X12536675Y-12634071D01*
X12536675Y-12634071D02*
X12517627Y-12624547D01*
X12517627Y-12624547D02*
X12508103Y-12615023D01*
X12508103Y-12615023D02*
X12498580Y-12595975D01*
X12498580Y-12595975D02*
X12489056Y-12557880D01*
X12489056Y-12557880D02*
X12489056Y-12510261D01*
X12489056Y-12510261D02*
X12498580Y-12472166D01*
X12498580Y-12472166D02*
X12508103Y-12453118D01*
X12508103Y-12453118D02*
X12517627Y-12443594D01*
X12517627Y-12443594D02*
X12536675Y-12434071D01*
X12793818Y-12634071D02*
X12679532Y-12634071D01*
X12736675Y-12634071D02*
X12736675Y-12434071D01*
X12736675Y-12434071D02*
X12717627Y-12462642D01*
X12717627Y-12462642D02*
X12698580Y-12481690D01*
X12698580Y-12481690D02*
X12679532Y-12491213D01*
X12984294Y-12634071D02*
X12870008Y-12634071D01*
X12927151Y-12634071D02*
X12927151Y-12434071D01*
X12927151Y-12434071D02*
X12908103Y-12462642D01*
X12908103Y-12462642D02*
X12889056Y-12481690D01*
X12889056Y-12481690D02*
X12870008Y-12491213D01*
X13098580Y-12519785D02*
X13079532Y-12510261D01*
X13079532Y-12510261D02*
X13070008Y-12500737D01*
X13070008Y-12500737D02*
X13060484Y-12481690D01*
X13060484Y-12481690D02*
X13060484Y-12472166D01*
X13060484Y-12472166D02*
X13070008Y-12453118D01*
X13070008Y-12453118D02*
X13079532Y-12443594D01*
X13079532Y-12443594D02*
X13098580Y-12434071D01*
X13098580Y-12434071D02*
X13136675Y-12434071D01*
X13136675Y-12434071D02*
X13155722Y-12443594D01*
X13155722Y-12443594D02*
X13165246Y-12453118D01*
X13165246Y-12453118D02*
X13174770Y-12472166D01*
X13174770Y-12472166D02*
X13174770Y-12481690D01*
X13174770Y-12481690D02*
X13165246Y-12500737D01*
X13165246Y-12500737D02*
X13155722Y-12510261D01*
X13155722Y-12510261D02*
X13136675Y-12519785D01*
X13136675Y-12519785D02*
X13098580Y-12519785D01*
X13098580Y-12519785D02*
X13079532Y-12529309D01*
X13079532Y-12529309D02*
X13070008Y-12538832D01*
X13070008Y-12538832D02*
X13060484Y-12557880D01*
X13060484Y-12557880D02*
X13060484Y-12595975D01*
X13060484Y-12595975D02*
X13070008Y-12615023D01*
X13070008Y-12615023D02*
X13079532Y-12624547D01*
X13079532Y-12624547D02*
X13098580Y-12634071D01*
X13098580Y-12634071D02*
X13136675Y-12634071D01*
X13136675Y-12634071D02*
X13155722Y-12624547D01*
X13155722Y-12624547D02*
X13165246Y-12615023D01*
X13165246Y-12615023D02*
X13174770Y-12595975D01*
X13174770Y-12595975D02*
X13174770Y-12557880D01*
X13174770Y-12557880D02*
X13165246Y-12538832D01*
X13165246Y-12538832D02*
X13155722Y-12529309D01*
X13155722Y-12529309D02*
X13136675Y-12519785D01*
X13250961Y-12434071D02*
X13250961Y-12472166D01*
X13327151Y-12434071D02*
X13327151Y-12472166D01*
X13622389Y-12710261D02*
X13612865Y-12700737D01*
X13612865Y-12700737D02*
X13593818Y-12672166D01*
X13593818Y-12672166D02*
X13584294Y-12653118D01*
X13584294Y-12653118D02*
X13574770Y-12624547D01*
X13574770Y-12624547D02*
X13565246Y-12576928D01*
X13565246Y-12576928D02*
X13565246Y-12538832D01*
X13565246Y-12538832D02*
X13574770Y-12491213D01*
X13574770Y-12491213D02*
X13584294Y-12462642D01*
X13584294Y-12462642D02*
X13593818Y-12443594D01*
X13593818Y-12443594D02*
X13612865Y-12415023D01*
X13612865Y-12415023D02*
X13622389Y-12405499D01*
X13784294Y-12500737D02*
X13784294Y-12634071D01*
X13736675Y-12424547D02*
X13689056Y-12567404D01*
X13689056Y-12567404D02*
X13812865Y-12567404D01*
X14041437Y-12634071D02*
X14041437Y-12434071D01*
X14127151Y-12634071D02*
X14127151Y-12529309D01*
X14127151Y-12529309D02*
X14117627Y-12510261D01*
X14117627Y-12510261D02*
X14098580Y-12500737D01*
X14098580Y-12500737D02*
X14070008Y-12500737D01*
X14070008Y-12500737D02*
X14050961Y-12510261D01*
X14050961Y-12510261D02*
X14041437Y-12519785D01*
X14250961Y-12634071D02*
X14231913Y-12624547D01*
X14231913Y-12624547D02*
X14222389Y-12615023D01*
X14222389Y-12615023D02*
X14212865Y-12595975D01*
X14212865Y-12595975D02*
X14212865Y-12538832D01*
X14212865Y-12538832D02*
X14222389Y-12519785D01*
X14222389Y-12519785D02*
X14231913Y-12510261D01*
X14231913Y-12510261D02*
X14250961Y-12500737D01*
X14250961Y-12500737D02*
X14279532Y-12500737D01*
X14279532Y-12500737D02*
X14298580Y-12510261D01*
X14298580Y-12510261D02*
X14308104Y-12519785D01*
X14308104Y-12519785D02*
X14317627Y-12538832D01*
X14317627Y-12538832D02*
X14317627Y-12595975D01*
X14317627Y-12595975D02*
X14308104Y-12615023D01*
X14308104Y-12615023D02*
X14298580Y-12624547D01*
X14298580Y-12624547D02*
X14279532Y-12634071D01*
X14279532Y-12634071D02*
X14250961Y-12634071D01*
X14431913Y-12634071D02*
X14412865Y-12624547D01*
X14412865Y-12624547D02*
X14403342Y-12605499D01*
X14403342Y-12605499D02*
X14403342Y-12434071D01*
X14584294Y-12624547D02*
X14565246Y-12634071D01*
X14565246Y-12634071D02*
X14527151Y-12634071D01*
X14527151Y-12634071D02*
X14508104Y-12624547D01*
X14508104Y-12624547D02*
X14498580Y-12605499D01*
X14498580Y-12605499D02*
X14498580Y-12529309D01*
X14498580Y-12529309D02*
X14508104Y-12510261D01*
X14508104Y-12510261D02*
X14527151Y-12500737D01*
X14527151Y-12500737D02*
X14565246Y-12500737D01*
X14565246Y-12500737D02*
X14584294Y-12510261D01*
X14584294Y-12510261D02*
X14593818Y-12529309D01*
X14593818Y-12529309D02*
X14593818Y-12548356D01*
X14593818Y-12548356D02*
X14498580Y-12567404D01*
X14670008Y-12624547D02*
X14689056Y-12634071D01*
X14689056Y-12634071D02*
X14727151Y-12634071D01*
X14727151Y-12634071D02*
X14746199Y-12624547D01*
X14746199Y-12624547D02*
X14755723Y-12605499D01*
X14755723Y-12605499D02*
X14755723Y-12595975D01*
X14755723Y-12595975D02*
X14746199Y-12576928D01*
X14746199Y-12576928D02*
X14727151Y-12567404D01*
X14727151Y-12567404D02*
X14698580Y-12567404D01*
X14698580Y-12567404D02*
X14679532Y-12557880D01*
X14679532Y-12557880D02*
X14670008Y-12538832D01*
X14670008Y-12538832D02*
X14670008Y-12529309D01*
X14670008Y-12529309D02*
X14679532Y-12510261D01*
X14679532Y-12510261D02*
X14698580Y-12500737D01*
X14698580Y-12500737D02*
X14727151Y-12500737D01*
X14727151Y-12500737D02*
X14746199Y-12510261D01*
X14822389Y-12710261D02*
X14831913Y-12700737D01*
X14831913Y-12700737D02*
X14850961Y-12672166D01*
X14850961Y-12672166D02*
X14860485Y-12653118D01*
X14860485Y-12653118D02*
X14870008Y-12624547D01*
X14870008Y-12624547D02*
X14879532Y-12576928D01*
X14879532Y-12576928D02*
X14879532Y-12538832D01*
X14879532Y-12538832D02*
X14870008Y-12491213D01*
X14870008Y-12491213D02*
X14860485Y-12462642D01*
X14860485Y-12462642D02*
X14850961Y-12443594D01*
X14850961Y-12443594D02*
X14831913Y-12415023D01*
X14831913Y-12415023D02*
X14822389Y-12405499D01*
D12*
X10047326Y-12806587D02*
G75*
G02*
X9967326Y-12806587I-40000J0D01*
G01*
X9967326Y-12806587D02*
G75*
G02*
X10047326Y-12806587I40000J0D01*
G01*
D11*
X10346198Y-12698071D02*
X10365246Y-12698071D01*
X10365246Y-12698071D02*
X10384294Y-12707594D01*
X10384294Y-12707594D02*
X10393818Y-12717118D01*
X10393818Y-12717118D02*
X10403341Y-12736166D01*
X10403341Y-12736166D02*
X10412865Y-12774261D01*
X10412865Y-12774261D02*
X10412865Y-12821880D01*
X10412865Y-12821880D02*
X10403341Y-12859975D01*
X10403341Y-12859975D02*
X10393818Y-12879023D01*
X10393818Y-12879023D02*
X10384294Y-12888547D01*
X10384294Y-12888547D02*
X10365246Y-12898071D01*
X10365246Y-12898071D02*
X10346198Y-12898071D01*
X10346198Y-12898071D02*
X10327151Y-12888547D01*
X10327151Y-12888547D02*
X10317627Y-12879023D01*
X10317627Y-12879023D02*
X10308103Y-12859975D01*
X10308103Y-12859975D02*
X10298579Y-12821880D01*
X10298579Y-12821880D02*
X10298579Y-12774261D01*
X10298579Y-12774261D02*
X10308103Y-12736166D01*
X10308103Y-12736166D02*
X10317627Y-12717118D01*
X10317627Y-12717118D02*
X10327151Y-12707594D01*
X10327151Y-12707594D02*
X10346198Y-12698071D01*
X10498579Y-12879023D02*
X10508103Y-12888547D01*
X10508103Y-12888547D02*
X10498579Y-12898071D01*
X10498579Y-12898071D02*
X10489056Y-12888547D01*
X10489056Y-12888547D02*
X10498579Y-12879023D01*
X10498579Y-12879023D02*
X10498579Y-12898071D01*
X10622389Y-12783785D02*
X10603341Y-12774261D01*
X10603341Y-12774261D02*
X10593818Y-12764737D01*
X10593818Y-12764737D02*
X10584294Y-12745690D01*
X10584294Y-12745690D02*
X10584294Y-12736166D01*
X10584294Y-12736166D02*
X10593818Y-12717118D01*
X10593818Y-12717118D02*
X10603341Y-12707594D01*
X10603341Y-12707594D02*
X10622389Y-12698071D01*
X10622389Y-12698071D02*
X10660484Y-12698071D01*
X10660484Y-12698071D02*
X10679532Y-12707594D01*
X10679532Y-12707594D02*
X10689056Y-12717118D01*
X10689056Y-12717118D02*
X10698579Y-12736166D01*
X10698579Y-12736166D02*
X10698579Y-12745690D01*
X10698579Y-12745690D02*
X10689056Y-12764737D01*
X10689056Y-12764737D02*
X10679532Y-12774261D01*
X10679532Y-12774261D02*
X10660484Y-12783785D01*
X10660484Y-12783785D02*
X10622389Y-12783785D01*
X10622389Y-12783785D02*
X10603341Y-12793309D01*
X10603341Y-12793309D02*
X10593818Y-12802832D01*
X10593818Y-12802832D02*
X10584294Y-12821880D01*
X10584294Y-12821880D02*
X10584294Y-12859975D01*
X10584294Y-12859975D02*
X10593818Y-12879023D01*
X10593818Y-12879023D02*
X10603341Y-12888547D01*
X10603341Y-12888547D02*
X10622389Y-12898071D01*
X10622389Y-12898071D02*
X10660484Y-12898071D01*
X10660484Y-12898071D02*
X10679532Y-12888547D01*
X10679532Y-12888547D02*
X10689056Y-12879023D01*
X10689056Y-12879023D02*
X10698579Y-12859975D01*
X10698579Y-12859975D02*
X10698579Y-12821880D01*
X10698579Y-12821880D02*
X10689056Y-12802832D01*
X10689056Y-12802832D02*
X10679532Y-12793309D01*
X10679532Y-12793309D02*
X10660484Y-12783785D01*
X10822389Y-12698071D02*
X10841437Y-12698071D01*
X10841437Y-12698071D02*
X10860484Y-12707594D01*
X10860484Y-12707594D02*
X10870008Y-12717118D01*
X10870008Y-12717118D02*
X10879532Y-12736166D01*
X10879532Y-12736166D02*
X10889056Y-12774261D01*
X10889056Y-12774261D02*
X10889056Y-12821880D01*
X10889056Y-12821880D02*
X10879532Y-12859975D01*
X10879532Y-12859975D02*
X10870008Y-12879023D01*
X10870008Y-12879023D02*
X10860484Y-12888547D01*
X10860484Y-12888547D02*
X10841437Y-12898071D01*
X10841437Y-12898071D02*
X10822389Y-12898071D01*
X10822389Y-12898071D02*
X10803341Y-12888547D01*
X10803341Y-12888547D02*
X10793818Y-12879023D01*
X10793818Y-12879023D02*
X10784294Y-12859975D01*
X10784294Y-12859975D02*
X10774770Y-12821880D01*
X10774770Y-12821880D02*
X10774770Y-12774261D01*
X10774770Y-12774261D02*
X10784294Y-12736166D01*
X10784294Y-12736166D02*
X10793818Y-12717118D01*
X10793818Y-12717118D02*
X10803341Y-12707594D01*
X10803341Y-12707594D02*
X10822389Y-12698071D01*
X11012865Y-12698071D02*
X11031913Y-12698071D01*
X11031913Y-12698071D02*
X11050960Y-12707594D01*
X11050960Y-12707594D02*
X11060484Y-12717118D01*
X11060484Y-12717118D02*
X11070008Y-12736166D01*
X11070008Y-12736166D02*
X11079532Y-12774261D01*
X11079532Y-12774261D02*
X11079532Y-12821880D01*
X11079532Y-12821880D02*
X11070008Y-12859975D01*
X11070008Y-12859975D02*
X11060484Y-12879023D01*
X11060484Y-12879023D02*
X11050960Y-12888547D01*
X11050960Y-12888547D02*
X11031913Y-12898071D01*
X11031913Y-12898071D02*
X11012865Y-12898071D01*
X11012865Y-12898071D02*
X10993818Y-12888547D01*
X10993818Y-12888547D02*
X10984294Y-12879023D01*
X10984294Y-12879023D02*
X10974770Y-12859975D01*
X10974770Y-12859975D02*
X10965246Y-12821880D01*
X10965246Y-12821880D02*
X10965246Y-12774261D01*
X10965246Y-12774261D02*
X10974770Y-12736166D01*
X10974770Y-12736166D02*
X10984294Y-12717118D01*
X10984294Y-12717118D02*
X10993818Y-12707594D01*
X10993818Y-12707594D02*
X11012865Y-12698071D01*
X11165246Y-12898071D02*
X11165246Y-12764737D01*
X11165246Y-12783785D02*
X11174770Y-12774261D01*
X11174770Y-12774261D02*
X11193817Y-12764737D01*
X11193817Y-12764737D02*
X11222389Y-12764737D01*
X11222389Y-12764737D02*
X11241437Y-12774261D01*
X11241437Y-12774261D02*
X11250960Y-12793309D01*
X11250960Y-12793309D02*
X11250960Y-12898071D01*
X11250960Y-12793309D02*
X11260484Y-12774261D01*
X11260484Y-12774261D02*
X11279532Y-12764737D01*
X11279532Y-12764737D02*
X11308103Y-12764737D01*
X11308103Y-12764737D02*
X11327151Y-12774261D01*
X11327151Y-12774261D02*
X11336675Y-12793309D01*
X11336675Y-12793309D02*
X11336675Y-12898071D01*
X11431913Y-12898071D02*
X11431913Y-12764737D01*
X11431913Y-12783785D02*
X11441437Y-12774261D01*
X11441437Y-12774261D02*
X11460484Y-12764737D01*
X11460484Y-12764737D02*
X11489056Y-12764737D01*
X11489056Y-12764737D02*
X11508103Y-12774261D01*
X11508103Y-12774261D02*
X11517627Y-12793309D01*
X11517627Y-12793309D02*
X11517627Y-12898071D01*
X11517627Y-12793309D02*
X11527151Y-12774261D01*
X11527151Y-12774261D02*
X11546198Y-12764737D01*
X11546198Y-12764737D02*
X11574770Y-12764737D01*
X11574770Y-12764737D02*
X11593818Y-12774261D01*
X11593818Y-12774261D02*
X11603341Y-12793309D01*
X11603341Y-12793309D02*
X11603341Y-12898071D01*
X11993818Y-12688547D02*
X11822389Y-12945690D01*
X12250960Y-12698071D02*
X12270008Y-12698071D01*
X12270008Y-12698071D02*
X12289056Y-12707594D01*
X12289056Y-12707594D02*
X12298580Y-12717118D01*
X12298580Y-12717118D02*
X12308103Y-12736166D01*
X12308103Y-12736166D02*
X12317627Y-12774261D01*
X12317627Y-12774261D02*
X12317627Y-12821880D01*
X12317627Y-12821880D02*
X12308103Y-12859975D01*
X12308103Y-12859975D02*
X12298580Y-12879023D01*
X12298580Y-12879023D02*
X12289056Y-12888547D01*
X12289056Y-12888547D02*
X12270008Y-12898071D01*
X12270008Y-12898071D02*
X12250960Y-12898071D01*
X12250960Y-12898071D02*
X12231913Y-12888547D01*
X12231913Y-12888547D02*
X12222389Y-12879023D01*
X12222389Y-12879023D02*
X12212865Y-12859975D01*
X12212865Y-12859975D02*
X12203341Y-12821880D01*
X12203341Y-12821880D02*
X12203341Y-12774261D01*
X12203341Y-12774261D02*
X12212865Y-12736166D01*
X12212865Y-12736166D02*
X12222389Y-12717118D01*
X12222389Y-12717118D02*
X12231913Y-12707594D01*
X12231913Y-12707594D02*
X12250960Y-12698071D01*
X12403341Y-12879023D02*
X12412865Y-12888547D01*
X12412865Y-12888547D02*
X12403341Y-12898071D01*
X12403341Y-12898071D02*
X12393818Y-12888547D01*
X12393818Y-12888547D02*
X12403341Y-12879023D01*
X12403341Y-12879023D02*
X12403341Y-12898071D01*
X12536675Y-12698071D02*
X12555722Y-12698071D01*
X12555722Y-12698071D02*
X12574770Y-12707594D01*
X12574770Y-12707594D02*
X12584294Y-12717118D01*
X12584294Y-12717118D02*
X12593818Y-12736166D01*
X12593818Y-12736166D02*
X12603341Y-12774261D01*
X12603341Y-12774261D02*
X12603341Y-12821880D01*
X12603341Y-12821880D02*
X12593818Y-12859975D01*
X12593818Y-12859975D02*
X12584294Y-12879023D01*
X12584294Y-12879023D02*
X12574770Y-12888547D01*
X12574770Y-12888547D02*
X12555722Y-12898071D01*
X12555722Y-12898071D02*
X12536675Y-12898071D01*
X12536675Y-12898071D02*
X12517627Y-12888547D01*
X12517627Y-12888547D02*
X12508103Y-12879023D01*
X12508103Y-12879023D02*
X12498580Y-12859975D01*
X12498580Y-12859975D02*
X12489056Y-12821880D01*
X12489056Y-12821880D02*
X12489056Y-12774261D01*
X12489056Y-12774261D02*
X12498580Y-12736166D01*
X12498580Y-12736166D02*
X12508103Y-12717118D01*
X12508103Y-12717118D02*
X12517627Y-12707594D01*
X12517627Y-12707594D02*
X12536675Y-12698071D01*
X12670008Y-12698071D02*
X12793818Y-12698071D01*
X12793818Y-12698071D02*
X12727151Y-12774261D01*
X12727151Y-12774261D02*
X12755722Y-12774261D01*
X12755722Y-12774261D02*
X12774770Y-12783785D01*
X12774770Y-12783785D02*
X12784294Y-12793309D01*
X12784294Y-12793309D02*
X12793818Y-12812356D01*
X12793818Y-12812356D02*
X12793818Y-12859975D01*
X12793818Y-12859975D02*
X12784294Y-12879023D01*
X12784294Y-12879023D02*
X12774770Y-12888547D01*
X12774770Y-12888547D02*
X12755722Y-12898071D01*
X12755722Y-12898071D02*
X12698580Y-12898071D01*
X12698580Y-12898071D02*
X12679532Y-12888547D01*
X12679532Y-12888547D02*
X12670008Y-12879023D01*
X12984294Y-12898071D02*
X12870008Y-12898071D01*
X12927151Y-12898071D02*
X12927151Y-12698071D01*
X12927151Y-12698071D02*
X12908103Y-12726642D01*
X12908103Y-12726642D02*
X12889056Y-12745690D01*
X12889056Y-12745690D02*
X12870008Y-12755213D01*
X13165246Y-12698071D02*
X13070008Y-12698071D01*
X13070008Y-12698071D02*
X13060484Y-12793309D01*
X13060484Y-12793309D02*
X13070008Y-12783785D01*
X13070008Y-12783785D02*
X13089056Y-12774261D01*
X13089056Y-12774261D02*
X13136675Y-12774261D01*
X13136675Y-12774261D02*
X13155722Y-12783785D01*
X13155722Y-12783785D02*
X13165246Y-12793309D01*
X13165246Y-12793309D02*
X13174770Y-12812356D01*
X13174770Y-12812356D02*
X13174770Y-12859975D01*
X13174770Y-12859975D02*
X13165246Y-12879023D01*
X13165246Y-12879023D02*
X13155722Y-12888547D01*
X13155722Y-12888547D02*
X13136675Y-12898071D01*
X13136675Y-12898071D02*
X13089056Y-12898071D01*
X13089056Y-12898071D02*
X13070008Y-12888547D01*
X13070008Y-12888547D02*
X13060484Y-12879023D01*
X13250961Y-12698071D02*
X13250961Y-12736166D01*
X13327151Y-12698071D02*
X13327151Y-12736166D01*
X13622389Y-12974261D02*
X13612865Y-12964737D01*
X13612865Y-12964737D02*
X13593818Y-12936166D01*
X13593818Y-12936166D02*
X13584294Y-12917118D01*
X13584294Y-12917118D02*
X13574770Y-12888547D01*
X13574770Y-12888547D02*
X13565246Y-12840928D01*
X13565246Y-12840928D02*
X13565246Y-12802832D01*
X13565246Y-12802832D02*
X13574770Y-12755213D01*
X13574770Y-12755213D02*
X13584294Y-12726642D01*
X13584294Y-12726642D02*
X13593818Y-12707594D01*
X13593818Y-12707594D02*
X13612865Y-12679023D01*
X13612865Y-12679023D02*
X13622389Y-12669499D01*
X13803342Y-12898071D02*
X13689056Y-12898071D01*
X13746199Y-12898071D02*
X13746199Y-12698071D01*
X13746199Y-12698071D02*
X13727151Y-12726642D01*
X13727151Y-12726642D02*
X13708103Y-12745690D01*
X13708103Y-12745690D02*
X13689056Y-12755213D01*
X13974770Y-12698071D02*
X13936675Y-12698071D01*
X13936675Y-12698071D02*
X13917627Y-12707594D01*
X13917627Y-12707594D02*
X13908103Y-12717118D01*
X13908103Y-12717118D02*
X13889056Y-12745690D01*
X13889056Y-12745690D02*
X13879532Y-12783785D01*
X13879532Y-12783785D02*
X13879532Y-12859975D01*
X13879532Y-12859975D02*
X13889056Y-12879023D01*
X13889056Y-12879023D02*
X13898580Y-12888547D01*
X13898580Y-12888547D02*
X13917627Y-12898071D01*
X13917627Y-12898071D02*
X13955723Y-12898071D01*
X13955723Y-12898071D02*
X13974770Y-12888547D01*
X13974770Y-12888547D02*
X13984294Y-12879023D01*
X13984294Y-12879023D02*
X13993818Y-12859975D01*
X13993818Y-12859975D02*
X13993818Y-12812356D01*
X13993818Y-12812356D02*
X13984294Y-12793309D01*
X13984294Y-12793309D02*
X13974770Y-12783785D01*
X13974770Y-12783785D02*
X13955723Y-12774261D01*
X13955723Y-12774261D02*
X13917627Y-12774261D01*
X13917627Y-12774261D02*
X13898580Y-12783785D01*
X13898580Y-12783785D02*
X13889056Y-12793309D01*
X13889056Y-12793309D02*
X13879532Y-12812356D01*
X14231913Y-12898071D02*
X14231913Y-12698071D01*
X14317627Y-12898071D02*
X14317627Y-12793309D01*
X14317627Y-12793309D02*
X14308104Y-12774261D01*
X14308104Y-12774261D02*
X14289056Y-12764737D01*
X14289056Y-12764737D02*
X14260484Y-12764737D01*
X14260484Y-12764737D02*
X14241437Y-12774261D01*
X14241437Y-12774261D02*
X14231913Y-12783785D01*
X14441437Y-12898071D02*
X14422389Y-12888547D01*
X14422389Y-12888547D02*
X14412865Y-12879023D01*
X14412865Y-12879023D02*
X14403342Y-12859975D01*
X14403342Y-12859975D02*
X14403342Y-12802832D01*
X14403342Y-12802832D02*
X14412865Y-12783785D01*
X14412865Y-12783785D02*
X14422389Y-12774261D01*
X14422389Y-12774261D02*
X14441437Y-12764737D01*
X14441437Y-12764737D02*
X14470008Y-12764737D01*
X14470008Y-12764737D02*
X14489056Y-12774261D01*
X14489056Y-12774261D02*
X14498580Y-12783785D01*
X14498580Y-12783785D02*
X14508104Y-12802832D01*
X14508104Y-12802832D02*
X14508104Y-12859975D01*
X14508104Y-12859975D02*
X14498580Y-12879023D01*
X14498580Y-12879023D02*
X14489056Y-12888547D01*
X14489056Y-12888547D02*
X14470008Y-12898071D01*
X14470008Y-12898071D02*
X14441437Y-12898071D01*
X14622389Y-12898071D02*
X14603342Y-12888547D01*
X14603342Y-12888547D02*
X14593818Y-12869499D01*
X14593818Y-12869499D02*
X14593818Y-12698071D01*
X14774770Y-12888547D02*
X14755723Y-12898071D01*
X14755723Y-12898071D02*
X14717627Y-12898071D01*
X14717627Y-12898071D02*
X14698580Y-12888547D01*
X14698580Y-12888547D02*
X14689056Y-12869499D01*
X14689056Y-12869499D02*
X14689056Y-12793309D01*
X14689056Y-12793309D02*
X14698580Y-12774261D01*
X14698580Y-12774261D02*
X14717627Y-12764737D01*
X14717627Y-12764737D02*
X14755723Y-12764737D01*
X14755723Y-12764737D02*
X14774770Y-12774261D01*
X14774770Y-12774261D02*
X14784294Y-12793309D01*
X14784294Y-12793309D02*
X14784294Y-12812356D01*
X14784294Y-12812356D02*
X14689056Y-12831404D01*
X14860485Y-12888547D02*
X14879532Y-12898071D01*
X14879532Y-12898071D02*
X14917627Y-12898071D01*
X14917627Y-12898071D02*
X14936675Y-12888547D01*
X14936675Y-12888547D02*
X14946199Y-12869499D01*
X14946199Y-12869499D02*
X14946199Y-12859975D01*
X14946199Y-12859975D02*
X14936675Y-12840928D01*
X14936675Y-12840928D02*
X14917627Y-12831404D01*
X14917627Y-12831404D02*
X14889056Y-12831404D01*
X14889056Y-12831404D02*
X14870008Y-12821880D01*
X14870008Y-12821880D02*
X14860485Y-12802832D01*
X14860485Y-12802832D02*
X14860485Y-12793309D01*
X14860485Y-12793309D02*
X14870008Y-12774261D01*
X14870008Y-12774261D02*
X14889056Y-12764737D01*
X14889056Y-12764737D02*
X14917627Y-12764737D01*
X14917627Y-12764737D02*
X14936675Y-12774261D01*
X15012866Y-12974261D02*
X15022389Y-12964737D01*
X15022389Y-12964737D02*
X15041437Y-12936166D01*
X15041437Y-12936166D02*
X15050961Y-12917118D01*
X15050961Y-12917118D02*
X15060485Y-12888547D01*
X15060485Y-12888547D02*
X15070008Y-12840928D01*
X15070008Y-12840928D02*
X15070008Y-12802832D01*
X15070008Y-12802832D02*
X15060485Y-12755213D01*
X15060485Y-12755213D02*
X15050961Y-12726642D01*
X15050961Y-12726642D02*
X15041437Y-12707594D01*
X15041437Y-12707594D02*
X15022389Y-12679023D01*
X15022389Y-12679023D02*
X15012866Y-12669499D01*
D12*
X10002326Y-13025587D02*
X10002326Y-13115587D01*
X9957326Y-13070587D02*
X10047326Y-13070587D01*
D11*
X10346198Y-12962071D02*
X10365246Y-12962071D01*
X10365246Y-12962071D02*
X10384294Y-12971594D01*
X10384294Y-12971594D02*
X10393818Y-12981118D01*
X10393818Y-12981118D02*
X10403341Y-13000166D01*
X10403341Y-13000166D02*
X10412865Y-13038261D01*
X10412865Y-13038261D02*
X10412865Y-13085880D01*
X10412865Y-13085880D02*
X10403341Y-13123975D01*
X10403341Y-13123975D02*
X10393818Y-13143023D01*
X10393818Y-13143023D02*
X10384294Y-13152547D01*
X10384294Y-13152547D02*
X10365246Y-13162071D01*
X10365246Y-13162071D02*
X10346198Y-13162071D01*
X10346198Y-13162071D02*
X10327151Y-13152547D01*
X10327151Y-13152547D02*
X10317627Y-13143023D01*
X10317627Y-13143023D02*
X10308103Y-13123975D01*
X10308103Y-13123975D02*
X10298579Y-13085880D01*
X10298579Y-13085880D02*
X10298579Y-13038261D01*
X10298579Y-13038261D02*
X10308103Y-13000166D01*
X10308103Y-13000166D02*
X10317627Y-12981118D01*
X10317627Y-12981118D02*
X10327151Y-12971594D01*
X10327151Y-12971594D02*
X10346198Y-12962071D01*
X10498579Y-13143023D02*
X10508103Y-13152547D01*
X10508103Y-13152547D02*
X10498579Y-13162071D01*
X10498579Y-13162071D02*
X10489056Y-13152547D01*
X10489056Y-13152547D02*
X10498579Y-13143023D01*
X10498579Y-13143023D02*
X10498579Y-13162071D01*
X10603341Y-13162071D02*
X10641437Y-13162071D01*
X10641437Y-13162071D02*
X10660484Y-13152547D01*
X10660484Y-13152547D02*
X10670008Y-13143023D01*
X10670008Y-13143023D02*
X10689056Y-13114451D01*
X10689056Y-13114451D02*
X10698579Y-13076356D01*
X10698579Y-13076356D02*
X10698579Y-13000166D01*
X10698579Y-13000166D02*
X10689056Y-12981118D01*
X10689056Y-12981118D02*
X10679532Y-12971594D01*
X10679532Y-12971594D02*
X10660484Y-12962071D01*
X10660484Y-12962071D02*
X10622389Y-12962071D01*
X10622389Y-12962071D02*
X10603341Y-12971594D01*
X10603341Y-12971594D02*
X10593818Y-12981118D01*
X10593818Y-12981118D02*
X10584294Y-13000166D01*
X10584294Y-13000166D02*
X10584294Y-13047785D01*
X10584294Y-13047785D02*
X10593818Y-13066832D01*
X10593818Y-13066832D02*
X10603341Y-13076356D01*
X10603341Y-13076356D02*
X10622389Y-13085880D01*
X10622389Y-13085880D02*
X10660484Y-13085880D01*
X10660484Y-13085880D02*
X10679532Y-13076356D01*
X10679532Y-13076356D02*
X10689056Y-13066832D01*
X10689056Y-13066832D02*
X10698579Y-13047785D01*
X10822389Y-12962071D02*
X10841437Y-12962071D01*
X10841437Y-12962071D02*
X10860484Y-12971594D01*
X10860484Y-12971594D02*
X10870008Y-12981118D01*
X10870008Y-12981118D02*
X10879532Y-13000166D01*
X10879532Y-13000166D02*
X10889056Y-13038261D01*
X10889056Y-13038261D02*
X10889056Y-13085880D01*
X10889056Y-13085880D02*
X10879532Y-13123975D01*
X10879532Y-13123975D02*
X10870008Y-13143023D01*
X10870008Y-13143023D02*
X10860484Y-13152547D01*
X10860484Y-13152547D02*
X10841437Y-13162071D01*
X10841437Y-13162071D02*
X10822389Y-13162071D01*
X10822389Y-13162071D02*
X10803341Y-13152547D01*
X10803341Y-13152547D02*
X10793818Y-13143023D01*
X10793818Y-13143023D02*
X10784294Y-13123975D01*
X10784294Y-13123975D02*
X10774770Y-13085880D01*
X10774770Y-13085880D02*
X10774770Y-13038261D01*
X10774770Y-13038261D02*
X10784294Y-13000166D01*
X10784294Y-13000166D02*
X10793818Y-12981118D01*
X10793818Y-12981118D02*
X10803341Y-12971594D01*
X10803341Y-12971594D02*
X10822389Y-12962071D01*
X11012865Y-12962071D02*
X11031913Y-12962071D01*
X11031913Y-12962071D02*
X11050960Y-12971594D01*
X11050960Y-12971594D02*
X11060484Y-12981118D01*
X11060484Y-12981118D02*
X11070008Y-13000166D01*
X11070008Y-13000166D02*
X11079532Y-13038261D01*
X11079532Y-13038261D02*
X11079532Y-13085880D01*
X11079532Y-13085880D02*
X11070008Y-13123975D01*
X11070008Y-13123975D02*
X11060484Y-13143023D01*
X11060484Y-13143023D02*
X11050960Y-13152547D01*
X11050960Y-13152547D02*
X11031913Y-13162071D01*
X11031913Y-13162071D02*
X11012865Y-13162071D01*
X11012865Y-13162071D02*
X10993818Y-13152547D01*
X10993818Y-13152547D02*
X10984294Y-13143023D01*
X10984294Y-13143023D02*
X10974770Y-13123975D01*
X10974770Y-13123975D02*
X10965246Y-13085880D01*
X10965246Y-13085880D02*
X10965246Y-13038261D01*
X10965246Y-13038261D02*
X10974770Y-13000166D01*
X10974770Y-13000166D02*
X10984294Y-12981118D01*
X10984294Y-12981118D02*
X10993818Y-12971594D01*
X10993818Y-12971594D02*
X11012865Y-12962071D01*
X11165246Y-13162071D02*
X11165246Y-13028737D01*
X11165246Y-13047785D02*
X11174770Y-13038261D01*
X11174770Y-13038261D02*
X11193817Y-13028737D01*
X11193817Y-13028737D02*
X11222389Y-13028737D01*
X11222389Y-13028737D02*
X11241437Y-13038261D01*
X11241437Y-13038261D02*
X11250960Y-13057309D01*
X11250960Y-13057309D02*
X11250960Y-13162071D01*
X11250960Y-13057309D02*
X11260484Y-13038261D01*
X11260484Y-13038261D02*
X11279532Y-13028737D01*
X11279532Y-13028737D02*
X11308103Y-13028737D01*
X11308103Y-13028737D02*
X11327151Y-13038261D01*
X11327151Y-13038261D02*
X11336675Y-13057309D01*
X11336675Y-13057309D02*
X11336675Y-13162071D01*
X11431913Y-13162071D02*
X11431913Y-13028737D01*
X11431913Y-13047785D02*
X11441437Y-13038261D01*
X11441437Y-13038261D02*
X11460484Y-13028737D01*
X11460484Y-13028737D02*
X11489056Y-13028737D01*
X11489056Y-13028737D02*
X11508103Y-13038261D01*
X11508103Y-13038261D02*
X11517627Y-13057309D01*
X11517627Y-13057309D02*
X11517627Y-13162071D01*
X11517627Y-13057309D02*
X11527151Y-13038261D01*
X11527151Y-13038261D02*
X11546198Y-13028737D01*
X11546198Y-13028737D02*
X11574770Y-13028737D01*
X11574770Y-13028737D02*
X11593818Y-13038261D01*
X11593818Y-13038261D02*
X11603341Y-13057309D01*
X11603341Y-13057309D02*
X11603341Y-13162071D01*
X11993818Y-12952547D02*
X11822389Y-13209690D01*
X12250960Y-12962071D02*
X12270008Y-12962071D01*
X12270008Y-12962071D02*
X12289056Y-12971594D01*
X12289056Y-12971594D02*
X12298580Y-12981118D01*
X12298580Y-12981118D02*
X12308103Y-13000166D01*
X12308103Y-13000166D02*
X12317627Y-13038261D01*
X12317627Y-13038261D02*
X12317627Y-13085880D01*
X12317627Y-13085880D02*
X12308103Y-13123975D01*
X12308103Y-13123975D02*
X12298580Y-13143023D01*
X12298580Y-13143023D02*
X12289056Y-13152547D01*
X12289056Y-13152547D02*
X12270008Y-13162071D01*
X12270008Y-13162071D02*
X12250960Y-13162071D01*
X12250960Y-13162071D02*
X12231913Y-13152547D01*
X12231913Y-13152547D02*
X12222389Y-13143023D01*
X12222389Y-13143023D02*
X12212865Y-13123975D01*
X12212865Y-13123975D02*
X12203341Y-13085880D01*
X12203341Y-13085880D02*
X12203341Y-13038261D01*
X12203341Y-13038261D02*
X12212865Y-13000166D01*
X12212865Y-13000166D02*
X12222389Y-12981118D01*
X12222389Y-12981118D02*
X12231913Y-12971594D01*
X12231913Y-12971594D02*
X12250960Y-12962071D01*
X12403341Y-13143023D02*
X12412865Y-13152547D01*
X12412865Y-13152547D02*
X12403341Y-13162071D01*
X12403341Y-13162071D02*
X12393818Y-13152547D01*
X12393818Y-13152547D02*
X12403341Y-13143023D01*
X12403341Y-13143023D02*
X12403341Y-13162071D01*
X12536675Y-12962071D02*
X12555722Y-12962071D01*
X12555722Y-12962071D02*
X12574770Y-12971594D01*
X12574770Y-12971594D02*
X12584294Y-12981118D01*
X12584294Y-12981118D02*
X12593818Y-13000166D01*
X12593818Y-13000166D02*
X12603341Y-13038261D01*
X12603341Y-13038261D02*
X12603341Y-13085880D01*
X12603341Y-13085880D02*
X12593818Y-13123975D01*
X12593818Y-13123975D02*
X12584294Y-13143023D01*
X12584294Y-13143023D02*
X12574770Y-13152547D01*
X12574770Y-13152547D02*
X12555722Y-13162071D01*
X12555722Y-13162071D02*
X12536675Y-13162071D01*
X12536675Y-13162071D02*
X12517627Y-13152547D01*
X12517627Y-13152547D02*
X12508103Y-13143023D01*
X12508103Y-13143023D02*
X12498580Y-13123975D01*
X12498580Y-13123975D02*
X12489056Y-13085880D01*
X12489056Y-13085880D02*
X12489056Y-13038261D01*
X12489056Y-13038261D02*
X12498580Y-13000166D01*
X12498580Y-13000166D02*
X12508103Y-12981118D01*
X12508103Y-12981118D02*
X12517627Y-12971594D01*
X12517627Y-12971594D02*
X12536675Y-12962071D01*
X12670008Y-12962071D02*
X12793818Y-12962071D01*
X12793818Y-12962071D02*
X12727151Y-13038261D01*
X12727151Y-13038261D02*
X12755722Y-13038261D01*
X12755722Y-13038261D02*
X12774770Y-13047785D01*
X12774770Y-13047785D02*
X12784294Y-13057309D01*
X12784294Y-13057309D02*
X12793818Y-13076356D01*
X12793818Y-13076356D02*
X12793818Y-13123975D01*
X12793818Y-13123975D02*
X12784294Y-13143023D01*
X12784294Y-13143023D02*
X12774770Y-13152547D01*
X12774770Y-13152547D02*
X12755722Y-13162071D01*
X12755722Y-13162071D02*
X12698580Y-13162071D01*
X12698580Y-13162071D02*
X12679532Y-13152547D01*
X12679532Y-13152547D02*
X12670008Y-13143023D01*
X12974770Y-12962071D02*
X12879532Y-12962071D01*
X12879532Y-12962071D02*
X12870008Y-13057309D01*
X12870008Y-13057309D02*
X12879532Y-13047785D01*
X12879532Y-13047785D02*
X12898580Y-13038261D01*
X12898580Y-13038261D02*
X12946199Y-13038261D01*
X12946199Y-13038261D02*
X12965246Y-13047785D01*
X12965246Y-13047785D02*
X12974770Y-13057309D01*
X12974770Y-13057309D02*
X12984294Y-13076356D01*
X12984294Y-13076356D02*
X12984294Y-13123975D01*
X12984294Y-13123975D02*
X12974770Y-13143023D01*
X12974770Y-13143023D02*
X12965246Y-13152547D01*
X12965246Y-13152547D02*
X12946199Y-13162071D01*
X12946199Y-13162071D02*
X12898580Y-13162071D01*
X12898580Y-13162071D02*
X12879532Y-13152547D01*
X12879532Y-13152547D02*
X12870008Y-13143023D01*
X13155722Y-13028737D02*
X13155722Y-13162071D01*
X13108103Y-12952547D02*
X13060484Y-13095404D01*
X13060484Y-13095404D02*
X13184294Y-13095404D01*
X13250961Y-12962071D02*
X13250961Y-13000166D01*
X13327151Y-12962071D02*
X13327151Y-13000166D01*
X13622389Y-13238261D02*
X13612865Y-13228737D01*
X13612865Y-13228737D02*
X13593818Y-13200166D01*
X13593818Y-13200166D02*
X13584294Y-13181118D01*
X13584294Y-13181118D02*
X13574770Y-13152547D01*
X13574770Y-13152547D02*
X13565246Y-13104928D01*
X13565246Y-13104928D02*
X13565246Y-13066832D01*
X13565246Y-13066832D02*
X13574770Y-13019213D01*
X13574770Y-13019213D02*
X13584294Y-12990642D01*
X13584294Y-12990642D02*
X13593818Y-12971594D01*
X13593818Y-12971594D02*
X13612865Y-12943023D01*
X13612865Y-12943023D02*
X13622389Y-12933499D01*
X13803342Y-13162071D02*
X13689056Y-13162071D01*
X13746199Y-13162071D02*
X13746199Y-12962071D01*
X13746199Y-12962071D02*
X13727151Y-12990642D01*
X13727151Y-12990642D02*
X13708103Y-13009690D01*
X13708103Y-13009690D02*
X13689056Y-13019213D01*
X13974770Y-12962071D02*
X13936675Y-12962071D01*
X13936675Y-12962071D02*
X13917627Y-12971594D01*
X13917627Y-12971594D02*
X13908103Y-12981118D01*
X13908103Y-12981118D02*
X13889056Y-13009690D01*
X13889056Y-13009690D02*
X13879532Y-13047785D01*
X13879532Y-13047785D02*
X13879532Y-13123975D01*
X13879532Y-13123975D02*
X13889056Y-13143023D01*
X13889056Y-13143023D02*
X13898580Y-13152547D01*
X13898580Y-13152547D02*
X13917627Y-13162071D01*
X13917627Y-13162071D02*
X13955723Y-13162071D01*
X13955723Y-13162071D02*
X13974770Y-13152547D01*
X13974770Y-13152547D02*
X13984294Y-13143023D01*
X13984294Y-13143023D02*
X13993818Y-13123975D01*
X13993818Y-13123975D02*
X13993818Y-13076356D01*
X13993818Y-13076356D02*
X13984294Y-13057309D01*
X13984294Y-13057309D02*
X13974770Y-13047785D01*
X13974770Y-13047785D02*
X13955723Y-13038261D01*
X13955723Y-13038261D02*
X13917627Y-13038261D01*
X13917627Y-13038261D02*
X13898580Y-13047785D01*
X13898580Y-13047785D02*
X13889056Y-13057309D01*
X13889056Y-13057309D02*
X13879532Y-13076356D01*
X14231913Y-13162071D02*
X14231913Y-12962071D01*
X14317627Y-13162071D02*
X14317627Y-13057309D01*
X14317627Y-13057309D02*
X14308104Y-13038261D01*
X14308104Y-13038261D02*
X14289056Y-13028737D01*
X14289056Y-13028737D02*
X14260484Y-13028737D01*
X14260484Y-13028737D02*
X14241437Y-13038261D01*
X14241437Y-13038261D02*
X14231913Y-13047785D01*
X14441437Y-13162071D02*
X14422389Y-13152547D01*
X14422389Y-13152547D02*
X14412865Y-13143023D01*
X14412865Y-13143023D02*
X14403342Y-13123975D01*
X14403342Y-13123975D02*
X14403342Y-13066832D01*
X14403342Y-13066832D02*
X14412865Y-13047785D01*
X14412865Y-13047785D02*
X14422389Y-13038261D01*
X14422389Y-13038261D02*
X14441437Y-13028737D01*
X14441437Y-13028737D02*
X14470008Y-13028737D01*
X14470008Y-13028737D02*
X14489056Y-13038261D01*
X14489056Y-13038261D02*
X14498580Y-13047785D01*
X14498580Y-13047785D02*
X14508104Y-13066832D01*
X14508104Y-13066832D02*
X14508104Y-13123975D01*
X14508104Y-13123975D02*
X14498580Y-13143023D01*
X14498580Y-13143023D02*
X14489056Y-13152547D01*
X14489056Y-13152547D02*
X14470008Y-13162071D01*
X14470008Y-13162071D02*
X14441437Y-13162071D01*
X14622389Y-13162071D02*
X14603342Y-13152547D01*
X14603342Y-13152547D02*
X14593818Y-13133499D01*
X14593818Y-13133499D02*
X14593818Y-12962071D01*
X14774770Y-13152547D02*
X14755723Y-13162071D01*
X14755723Y-13162071D02*
X14717627Y-13162071D01*
X14717627Y-13162071D02*
X14698580Y-13152547D01*
X14698580Y-13152547D02*
X14689056Y-13133499D01*
X14689056Y-13133499D02*
X14689056Y-13057309D01*
X14689056Y-13057309D02*
X14698580Y-13038261D01*
X14698580Y-13038261D02*
X14717627Y-13028737D01*
X14717627Y-13028737D02*
X14755723Y-13028737D01*
X14755723Y-13028737D02*
X14774770Y-13038261D01*
X14774770Y-13038261D02*
X14784294Y-13057309D01*
X14784294Y-13057309D02*
X14784294Y-13076356D01*
X14784294Y-13076356D02*
X14689056Y-13095404D01*
X14860485Y-13152547D02*
X14879532Y-13162071D01*
X14879532Y-13162071D02*
X14917627Y-13162071D01*
X14917627Y-13162071D02*
X14936675Y-13152547D01*
X14936675Y-13152547D02*
X14946199Y-13133499D01*
X14946199Y-13133499D02*
X14946199Y-13123975D01*
X14946199Y-13123975D02*
X14936675Y-13104928D01*
X14936675Y-13104928D02*
X14917627Y-13095404D01*
X14917627Y-13095404D02*
X14889056Y-13095404D01*
X14889056Y-13095404D02*
X14870008Y-13085880D01*
X14870008Y-13085880D02*
X14860485Y-13066832D01*
X14860485Y-13066832D02*
X14860485Y-13057309D01*
X14860485Y-13057309D02*
X14870008Y-13038261D01*
X14870008Y-13038261D02*
X14889056Y-13028737D01*
X14889056Y-13028737D02*
X14917627Y-13028737D01*
X14917627Y-13028737D02*
X14936675Y-13038261D01*
X15012866Y-13238261D02*
X15022389Y-13228737D01*
X15022389Y-13228737D02*
X15041437Y-13200166D01*
X15041437Y-13200166D02*
X15050961Y-13181118D01*
X15050961Y-13181118D02*
X15060485Y-13152547D01*
X15060485Y-13152547D02*
X15070008Y-13104928D01*
X15070008Y-13104928D02*
X15070008Y-13066832D01*
X15070008Y-13066832D02*
X15060485Y-13019213D01*
X15060485Y-13019213D02*
X15050961Y-12990642D01*
X15050961Y-12990642D02*
X15041437Y-12971594D01*
X15041437Y-12971594D02*
X15022389Y-12943023D01*
X15022389Y-12943023D02*
X15012866Y-12933499D01*
D12*
X10032682Y-13369942D02*
X10032682Y-13299231D01*
X9961971Y-13299231D01*
X9961971Y-13369942D01*
X10032682Y-13369942D01*
D11*
X10412865Y-13426071D02*
X10298579Y-13426071D01*
X10355722Y-13426071D02*
X10355722Y-13226071D01*
X10355722Y-13226071D02*
X10336675Y-13254642D01*
X10336675Y-13254642D02*
X10317627Y-13273690D01*
X10317627Y-13273690D02*
X10298579Y-13283213D01*
X10498579Y-13407023D02*
X10508103Y-13416547D01*
X10508103Y-13416547D02*
X10498579Y-13426071D01*
X10498579Y-13426071D02*
X10489056Y-13416547D01*
X10489056Y-13416547D02*
X10498579Y-13407023D01*
X10498579Y-13407023D02*
X10498579Y-13426071D01*
X10631913Y-13226071D02*
X10650960Y-13226071D01*
X10650960Y-13226071D02*
X10670008Y-13235594D01*
X10670008Y-13235594D02*
X10679532Y-13245118D01*
X10679532Y-13245118D02*
X10689056Y-13264166D01*
X10689056Y-13264166D02*
X10698579Y-13302261D01*
X10698579Y-13302261D02*
X10698579Y-13349880D01*
X10698579Y-13349880D02*
X10689056Y-13387975D01*
X10689056Y-13387975D02*
X10679532Y-13407023D01*
X10679532Y-13407023D02*
X10670008Y-13416547D01*
X10670008Y-13416547D02*
X10650960Y-13426071D01*
X10650960Y-13426071D02*
X10631913Y-13426071D01*
X10631913Y-13426071D02*
X10612865Y-13416547D01*
X10612865Y-13416547D02*
X10603341Y-13407023D01*
X10603341Y-13407023D02*
X10593818Y-13387975D01*
X10593818Y-13387975D02*
X10584294Y-13349880D01*
X10584294Y-13349880D02*
X10584294Y-13302261D01*
X10584294Y-13302261D02*
X10593818Y-13264166D01*
X10593818Y-13264166D02*
X10603341Y-13245118D01*
X10603341Y-13245118D02*
X10612865Y-13235594D01*
X10612865Y-13235594D02*
X10631913Y-13226071D01*
X10822389Y-13226071D02*
X10841437Y-13226071D01*
X10841437Y-13226071D02*
X10860484Y-13235594D01*
X10860484Y-13235594D02*
X10870008Y-13245118D01*
X10870008Y-13245118D02*
X10879532Y-13264166D01*
X10879532Y-13264166D02*
X10889056Y-13302261D01*
X10889056Y-13302261D02*
X10889056Y-13349880D01*
X10889056Y-13349880D02*
X10879532Y-13387975D01*
X10879532Y-13387975D02*
X10870008Y-13407023D01*
X10870008Y-13407023D02*
X10860484Y-13416547D01*
X10860484Y-13416547D02*
X10841437Y-13426071D01*
X10841437Y-13426071D02*
X10822389Y-13426071D01*
X10822389Y-13426071D02*
X10803341Y-13416547D01*
X10803341Y-13416547D02*
X10793818Y-13407023D01*
X10793818Y-13407023D02*
X10784294Y-13387975D01*
X10784294Y-13387975D02*
X10774770Y-13349880D01*
X10774770Y-13349880D02*
X10774770Y-13302261D01*
X10774770Y-13302261D02*
X10784294Y-13264166D01*
X10784294Y-13264166D02*
X10793818Y-13245118D01*
X10793818Y-13245118D02*
X10803341Y-13235594D01*
X10803341Y-13235594D02*
X10822389Y-13226071D01*
X11012865Y-13226071D02*
X11031913Y-13226071D01*
X11031913Y-13226071D02*
X11050960Y-13235594D01*
X11050960Y-13235594D02*
X11060484Y-13245118D01*
X11060484Y-13245118D02*
X11070008Y-13264166D01*
X11070008Y-13264166D02*
X11079532Y-13302261D01*
X11079532Y-13302261D02*
X11079532Y-13349880D01*
X11079532Y-13349880D02*
X11070008Y-13387975D01*
X11070008Y-13387975D02*
X11060484Y-13407023D01*
X11060484Y-13407023D02*
X11050960Y-13416547D01*
X11050960Y-13416547D02*
X11031913Y-13426071D01*
X11031913Y-13426071D02*
X11012865Y-13426071D01*
X11012865Y-13426071D02*
X10993818Y-13416547D01*
X10993818Y-13416547D02*
X10984294Y-13407023D01*
X10984294Y-13407023D02*
X10974770Y-13387975D01*
X10974770Y-13387975D02*
X10965246Y-13349880D01*
X10965246Y-13349880D02*
X10965246Y-13302261D01*
X10965246Y-13302261D02*
X10974770Y-13264166D01*
X10974770Y-13264166D02*
X10984294Y-13245118D01*
X10984294Y-13245118D02*
X10993818Y-13235594D01*
X10993818Y-13235594D02*
X11012865Y-13226071D01*
X11165246Y-13426071D02*
X11165246Y-13292737D01*
X11165246Y-13311785D02*
X11174770Y-13302261D01*
X11174770Y-13302261D02*
X11193817Y-13292737D01*
X11193817Y-13292737D02*
X11222389Y-13292737D01*
X11222389Y-13292737D02*
X11241437Y-13302261D01*
X11241437Y-13302261D02*
X11250960Y-13321309D01*
X11250960Y-13321309D02*
X11250960Y-13426071D01*
X11250960Y-13321309D02*
X11260484Y-13302261D01*
X11260484Y-13302261D02*
X11279532Y-13292737D01*
X11279532Y-13292737D02*
X11308103Y-13292737D01*
X11308103Y-13292737D02*
X11327151Y-13302261D01*
X11327151Y-13302261D02*
X11336675Y-13321309D01*
X11336675Y-13321309D02*
X11336675Y-13426071D01*
X11431913Y-13426071D02*
X11431913Y-13292737D01*
X11431913Y-13311785D02*
X11441437Y-13302261D01*
X11441437Y-13302261D02*
X11460484Y-13292737D01*
X11460484Y-13292737D02*
X11489056Y-13292737D01*
X11489056Y-13292737D02*
X11508103Y-13302261D01*
X11508103Y-13302261D02*
X11517627Y-13321309D01*
X11517627Y-13321309D02*
X11517627Y-13426071D01*
X11517627Y-13321309D02*
X11527151Y-13302261D01*
X11527151Y-13302261D02*
X11546198Y-13292737D01*
X11546198Y-13292737D02*
X11574770Y-13292737D01*
X11574770Y-13292737D02*
X11593818Y-13302261D01*
X11593818Y-13302261D02*
X11603341Y-13321309D01*
X11603341Y-13321309D02*
X11603341Y-13426071D01*
X11993818Y-13216547D02*
X11822389Y-13473690D01*
X12250960Y-13226071D02*
X12270008Y-13226071D01*
X12270008Y-13226071D02*
X12289056Y-13235594D01*
X12289056Y-13235594D02*
X12298580Y-13245118D01*
X12298580Y-13245118D02*
X12308103Y-13264166D01*
X12308103Y-13264166D02*
X12317627Y-13302261D01*
X12317627Y-13302261D02*
X12317627Y-13349880D01*
X12317627Y-13349880D02*
X12308103Y-13387975D01*
X12308103Y-13387975D02*
X12298580Y-13407023D01*
X12298580Y-13407023D02*
X12289056Y-13416547D01*
X12289056Y-13416547D02*
X12270008Y-13426071D01*
X12270008Y-13426071D02*
X12250960Y-13426071D01*
X12250960Y-13426071D02*
X12231913Y-13416547D01*
X12231913Y-13416547D02*
X12222389Y-13407023D01*
X12222389Y-13407023D02*
X12212865Y-13387975D01*
X12212865Y-13387975D02*
X12203341Y-13349880D01*
X12203341Y-13349880D02*
X12203341Y-13302261D01*
X12203341Y-13302261D02*
X12212865Y-13264166D01*
X12212865Y-13264166D02*
X12222389Y-13245118D01*
X12222389Y-13245118D02*
X12231913Y-13235594D01*
X12231913Y-13235594D02*
X12250960Y-13226071D01*
X12403341Y-13407023D02*
X12412865Y-13416547D01*
X12412865Y-13416547D02*
X12403341Y-13426071D01*
X12403341Y-13426071D02*
X12393818Y-13416547D01*
X12393818Y-13416547D02*
X12403341Y-13407023D01*
X12403341Y-13407023D02*
X12403341Y-13426071D01*
X12536675Y-13226071D02*
X12555722Y-13226071D01*
X12555722Y-13226071D02*
X12574770Y-13235594D01*
X12574770Y-13235594D02*
X12584294Y-13245118D01*
X12584294Y-13245118D02*
X12593818Y-13264166D01*
X12593818Y-13264166D02*
X12603341Y-13302261D01*
X12603341Y-13302261D02*
X12603341Y-13349880D01*
X12603341Y-13349880D02*
X12593818Y-13387975D01*
X12593818Y-13387975D02*
X12584294Y-13407023D01*
X12584294Y-13407023D02*
X12574770Y-13416547D01*
X12574770Y-13416547D02*
X12555722Y-13426071D01*
X12555722Y-13426071D02*
X12536675Y-13426071D01*
X12536675Y-13426071D02*
X12517627Y-13416547D01*
X12517627Y-13416547D02*
X12508103Y-13407023D01*
X12508103Y-13407023D02*
X12498580Y-13387975D01*
X12498580Y-13387975D02*
X12489056Y-13349880D01*
X12489056Y-13349880D02*
X12489056Y-13302261D01*
X12489056Y-13302261D02*
X12498580Y-13264166D01*
X12498580Y-13264166D02*
X12508103Y-13245118D01*
X12508103Y-13245118D02*
X12517627Y-13235594D01*
X12517627Y-13235594D02*
X12536675Y-13226071D01*
X12670008Y-13226071D02*
X12793818Y-13226071D01*
X12793818Y-13226071D02*
X12727151Y-13302261D01*
X12727151Y-13302261D02*
X12755722Y-13302261D01*
X12755722Y-13302261D02*
X12774770Y-13311785D01*
X12774770Y-13311785D02*
X12784294Y-13321309D01*
X12784294Y-13321309D02*
X12793818Y-13340356D01*
X12793818Y-13340356D02*
X12793818Y-13387975D01*
X12793818Y-13387975D02*
X12784294Y-13407023D01*
X12784294Y-13407023D02*
X12774770Y-13416547D01*
X12774770Y-13416547D02*
X12755722Y-13426071D01*
X12755722Y-13426071D02*
X12698580Y-13426071D01*
X12698580Y-13426071D02*
X12679532Y-13416547D01*
X12679532Y-13416547D02*
X12670008Y-13407023D01*
X12889056Y-13426071D02*
X12927151Y-13426071D01*
X12927151Y-13426071D02*
X12946199Y-13416547D01*
X12946199Y-13416547D02*
X12955722Y-13407023D01*
X12955722Y-13407023D02*
X12974770Y-13378451D01*
X12974770Y-13378451D02*
X12984294Y-13340356D01*
X12984294Y-13340356D02*
X12984294Y-13264166D01*
X12984294Y-13264166D02*
X12974770Y-13245118D01*
X12974770Y-13245118D02*
X12965246Y-13235594D01*
X12965246Y-13235594D02*
X12946199Y-13226071D01*
X12946199Y-13226071D02*
X12908103Y-13226071D01*
X12908103Y-13226071D02*
X12889056Y-13235594D01*
X12889056Y-13235594D02*
X12879532Y-13245118D01*
X12879532Y-13245118D02*
X12870008Y-13264166D01*
X12870008Y-13264166D02*
X12870008Y-13311785D01*
X12870008Y-13311785D02*
X12879532Y-13330832D01*
X12879532Y-13330832D02*
X12889056Y-13340356D01*
X12889056Y-13340356D02*
X12908103Y-13349880D01*
X12908103Y-13349880D02*
X12946199Y-13349880D01*
X12946199Y-13349880D02*
X12965246Y-13340356D01*
X12965246Y-13340356D02*
X12974770Y-13330832D01*
X12974770Y-13330832D02*
X12984294Y-13311785D01*
X13155722Y-13292737D02*
X13155722Y-13426071D01*
X13108103Y-13216547D02*
X13060484Y-13359404D01*
X13060484Y-13359404D02*
X13184294Y-13359404D01*
X13250961Y-13226071D02*
X13250961Y-13264166D01*
X13327151Y-13226071D02*
X13327151Y-13264166D01*
X13622389Y-13502261D02*
X13612865Y-13492737D01*
X13612865Y-13492737D02*
X13593818Y-13464166D01*
X13593818Y-13464166D02*
X13584294Y-13445118D01*
X13584294Y-13445118D02*
X13574770Y-13416547D01*
X13574770Y-13416547D02*
X13565246Y-13368928D01*
X13565246Y-13368928D02*
X13565246Y-13330832D01*
X13565246Y-13330832D02*
X13574770Y-13283213D01*
X13574770Y-13283213D02*
X13584294Y-13254642D01*
X13584294Y-13254642D02*
X13593818Y-13235594D01*
X13593818Y-13235594D02*
X13612865Y-13207023D01*
X13612865Y-13207023D02*
X13622389Y-13197499D01*
X13679532Y-13226071D02*
X13803342Y-13226071D01*
X13803342Y-13226071D02*
X13736675Y-13302261D01*
X13736675Y-13302261D02*
X13765246Y-13302261D01*
X13765246Y-13302261D02*
X13784294Y-13311785D01*
X13784294Y-13311785D02*
X13793818Y-13321309D01*
X13793818Y-13321309D02*
X13803342Y-13340356D01*
X13803342Y-13340356D02*
X13803342Y-13387975D01*
X13803342Y-13387975D02*
X13793818Y-13407023D01*
X13793818Y-13407023D02*
X13784294Y-13416547D01*
X13784294Y-13416547D02*
X13765246Y-13426071D01*
X13765246Y-13426071D02*
X13708103Y-13426071D01*
X13708103Y-13426071D02*
X13689056Y-13416547D01*
X13689056Y-13416547D02*
X13679532Y-13407023D01*
X13879532Y-13245118D02*
X13889056Y-13235594D01*
X13889056Y-13235594D02*
X13908103Y-13226071D01*
X13908103Y-13226071D02*
X13955723Y-13226071D01*
X13955723Y-13226071D02*
X13974770Y-13235594D01*
X13974770Y-13235594D02*
X13984294Y-13245118D01*
X13984294Y-13245118D02*
X13993818Y-13264166D01*
X13993818Y-13264166D02*
X13993818Y-13283213D01*
X13993818Y-13283213D02*
X13984294Y-13311785D01*
X13984294Y-13311785D02*
X13870008Y-13426071D01*
X13870008Y-13426071D02*
X13993818Y-13426071D01*
X14231913Y-13426071D02*
X14231913Y-13226071D01*
X14317627Y-13426071D02*
X14317627Y-13321309D01*
X14317627Y-13321309D02*
X14308104Y-13302261D01*
X14308104Y-13302261D02*
X14289056Y-13292737D01*
X14289056Y-13292737D02*
X14260484Y-13292737D01*
X14260484Y-13292737D02*
X14241437Y-13302261D01*
X14241437Y-13302261D02*
X14231913Y-13311785D01*
X14441437Y-13426071D02*
X14422389Y-13416547D01*
X14422389Y-13416547D02*
X14412865Y-13407023D01*
X14412865Y-13407023D02*
X14403342Y-13387975D01*
X14403342Y-13387975D02*
X14403342Y-13330832D01*
X14403342Y-13330832D02*
X14412865Y-13311785D01*
X14412865Y-13311785D02*
X14422389Y-13302261D01*
X14422389Y-13302261D02*
X14441437Y-13292737D01*
X14441437Y-13292737D02*
X14470008Y-13292737D01*
X14470008Y-13292737D02*
X14489056Y-13302261D01*
X14489056Y-13302261D02*
X14498580Y-13311785D01*
X14498580Y-13311785D02*
X14508104Y-13330832D01*
X14508104Y-13330832D02*
X14508104Y-13387975D01*
X14508104Y-13387975D02*
X14498580Y-13407023D01*
X14498580Y-13407023D02*
X14489056Y-13416547D01*
X14489056Y-13416547D02*
X14470008Y-13426071D01*
X14470008Y-13426071D02*
X14441437Y-13426071D01*
X14622389Y-13426071D02*
X14603342Y-13416547D01*
X14603342Y-13416547D02*
X14593818Y-13397499D01*
X14593818Y-13397499D02*
X14593818Y-13226071D01*
X14774770Y-13416547D02*
X14755723Y-13426071D01*
X14755723Y-13426071D02*
X14717627Y-13426071D01*
X14717627Y-13426071D02*
X14698580Y-13416547D01*
X14698580Y-13416547D02*
X14689056Y-13397499D01*
X14689056Y-13397499D02*
X14689056Y-13321309D01*
X14689056Y-13321309D02*
X14698580Y-13302261D01*
X14698580Y-13302261D02*
X14717627Y-13292737D01*
X14717627Y-13292737D02*
X14755723Y-13292737D01*
X14755723Y-13292737D02*
X14774770Y-13302261D01*
X14774770Y-13302261D02*
X14784294Y-13321309D01*
X14784294Y-13321309D02*
X14784294Y-13340356D01*
X14784294Y-13340356D02*
X14689056Y-13359404D01*
X14860485Y-13416547D02*
X14879532Y-13426071D01*
X14879532Y-13426071D02*
X14917627Y-13426071D01*
X14917627Y-13426071D02*
X14936675Y-13416547D01*
X14936675Y-13416547D02*
X14946199Y-13397499D01*
X14946199Y-13397499D02*
X14946199Y-13387975D01*
X14946199Y-13387975D02*
X14936675Y-13368928D01*
X14936675Y-13368928D02*
X14917627Y-13359404D01*
X14917627Y-13359404D02*
X14889056Y-13359404D01*
X14889056Y-13359404D02*
X14870008Y-13349880D01*
X14870008Y-13349880D02*
X14860485Y-13330832D01*
X14860485Y-13330832D02*
X14860485Y-13321309D01*
X14860485Y-13321309D02*
X14870008Y-13302261D01*
X14870008Y-13302261D02*
X14889056Y-13292737D01*
X14889056Y-13292737D02*
X14917627Y-13292737D01*
X14917627Y-13292737D02*
X14936675Y-13302261D01*
X15012866Y-13502261D02*
X15022389Y-13492737D01*
X15022389Y-13492737D02*
X15041437Y-13464166D01*
X15041437Y-13464166D02*
X15050961Y-13445118D01*
X15050961Y-13445118D02*
X15060485Y-13416547D01*
X15060485Y-13416547D02*
X15070008Y-13368928D01*
X15070008Y-13368928D02*
X15070008Y-13330832D01*
X15070008Y-13330832D02*
X15060485Y-13283213D01*
X15060485Y-13283213D02*
X15050961Y-13254642D01*
X15050961Y-13254642D02*
X15041437Y-13235594D01*
X15041437Y-13235594D02*
X15022389Y-13207023D01*
X15022389Y-13207023D02*
X15012866Y-13197499D01*
D13*
X9987326Y-13658587D02*
X10047326Y-13598587D01*
X9987326Y-13538587D01*
X9927326Y-13598587D01*
X9987326Y-13658587D01*
D11*
X10412865Y-13690071D02*
X10298579Y-13690071D01*
X10355722Y-13690071D02*
X10355722Y-13490071D01*
X10355722Y-13490071D02*
X10336675Y-13518642D01*
X10336675Y-13518642D02*
X10317627Y-13537690D01*
X10317627Y-13537690D02*
X10298579Y-13547213D01*
X10498579Y-13671023D02*
X10508103Y-13680547D01*
X10508103Y-13680547D02*
X10498579Y-13690071D01*
X10498579Y-13690071D02*
X10489056Y-13680547D01*
X10489056Y-13680547D02*
X10498579Y-13671023D01*
X10498579Y-13671023D02*
X10498579Y-13690071D01*
X10584294Y-13509118D02*
X10593818Y-13499594D01*
X10593818Y-13499594D02*
X10612865Y-13490071D01*
X10612865Y-13490071D02*
X10660484Y-13490071D01*
X10660484Y-13490071D02*
X10679532Y-13499594D01*
X10679532Y-13499594D02*
X10689056Y-13509118D01*
X10689056Y-13509118D02*
X10698579Y-13528166D01*
X10698579Y-13528166D02*
X10698579Y-13547213D01*
X10698579Y-13547213D02*
X10689056Y-13575785D01*
X10689056Y-13575785D02*
X10574770Y-13690071D01*
X10574770Y-13690071D02*
X10698579Y-13690071D01*
X10822389Y-13490071D02*
X10841437Y-13490071D01*
X10841437Y-13490071D02*
X10860484Y-13499594D01*
X10860484Y-13499594D02*
X10870008Y-13509118D01*
X10870008Y-13509118D02*
X10879532Y-13528166D01*
X10879532Y-13528166D02*
X10889056Y-13566261D01*
X10889056Y-13566261D02*
X10889056Y-13613880D01*
X10889056Y-13613880D02*
X10879532Y-13651975D01*
X10879532Y-13651975D02*
X10870008Y-13671023D01*
X10870008Y-13671023D02*
X10860484Y-13680547D01*
X10860484Y-13680547D02*
X10841437Y-13690071D01*
X10841437Y-13690071D02*
X10822389Y-13690071D01*
X10822389Y-13690071D02*
X10803341Y-13680547D01*
X10803341Y-13680547D02*
X10793818Y-13671023D01*
X10793818Y-13671023D02*
X10784294Y-13651975D01*
X10784294Y-13651975D02*
X10774770Y-13613880D01*
X10774770Y-13613880D02*
X10774770Y-13566261D01*
X10774770Y-13566261D02*
X10784294Y-13528166D01*
X10784294Y-13528166D02*
X10793818Y-13509118D01*
X10793818Y-13509118D02*
X10803341Y-13499594D01*
X10803341Y-13499594D02*
X10822389Y-13490071D01*
X11012865Y-13490071D02*
X11031913Y-13490071D01*
X11031913Y-13490071D02*
X11050960Y-13499594D01*
X11050960Y-13499594D02*
X11060484Y-13509118D01*
X11060484Y-13509118D02*
X11070008Y-13528166D01*
X11070008Y-13528166D02*
X11079532Y-13566261D01*
X11079532Y-13566261D02*
X11079532Y-13613880D01*
X11079532Y-13613880D02*
X11070008Y-13651975D01*
X11070008Y-13651975D02*
X11060484Y-13671023D01*
X11060484Y-13671023D02*
X11050960Y-13680547D01*
X11050960Y-13680547D02*
X11031913Y-13690071D01*
X11031913Y-13690071D02*
X11012865Y-13690071D01*
X11012865Y-13690071D02*
X10993818Y-13680547D01*
X10993818Y-13680547D02*
X10984294Y-13671023D01*
X10984294Y-13671023D02*
X10974770Y-13651975D01*
X10974770Y-13651975D02*
X10965246Y-13613880D01*
X10965246Y-13613880D02*
X10965246Y-13566261D01*
X10965246Y-13566261D02*
X10974770Y-13528166D01*
X10974770Y-13528166D02*
X10984294Y-13509118D01*
X10984294Y-13509118D02*
X10993818Y-13499594D01*
X10993818Y-13499594D02*
X11012865Y-13490071D01*
X11165246Y-13690071D02*
X11165246Y-13556737D01*
X11165246Y-13575785D02*
X11174770Y-13566261D01*
X11174770Y-13566261D02*
X11193817Y-13556737D01*
X11193817Y-13556737D02*
X11222389Y-13556737D01*
X11222389Y-13556737D02*
X11241437Y-13566261D01*
X11241437Y-13566261D02*
X11250960Y-13585309D01*
X11250960Y-13585309D02*
X11250960Y-13690071D01*
X11250960Y-13585309D02*
X11260484Y-13566261D01*
X11260484Y-13566261D02*
X11279532Y-13556737D01*
X11279532Y-13556737D02*
X11308103Y-13556737D01*
X11308103Y-13556737D02*
X11327151Y-13566261D01*
X11327151Y-13566261D02*
X11336675Y-13585309D01*
X11336675Y-13585309D02*
X11336675Y-13690071D01*
X11431913Y-13690071D02*
X11431913Y-13556737D01*
X11431913Y-13575785D02*
X11441437Y-13566261D01*
X11441437Y-13566261D02*
X11460484Y-13556737D01*
X11460484Y-13556737D02*
X11489056Y-13556737D01*
X11489056Y-13556737D02*
X11508103Y-13566261D01*
X11508103Y-13566261D02*
X11517627Y-13585309D01*
X11517627Y-13585309D02*
X11517627Y-13690071D01*
X11517627Y-13585309D02*
X11527151Y-13566261D01*
X11527151Y-13566261D02*
X11546198Y-13556737D01*
X11546198Y-13556737D02*
X11574770Y-13556737D01*
X11574770Y-13556737D02*
X11593818Y-13566261D01*
X11593818Y-13566261D02*
X11603341Y-13585309D01*
X11603341Y-13585309D02*
X11603341Y-13690071D01*
X11993818Y-13480547D02*
X11822389Y-13737690D01*
X12250960Y-13490071D02*
X12270008Y-13490071D01*
X12270008Y-13490071D02*
X12289056Y-13499594D01*
X12289056Y-13499594D02*
X12298580Y-13509118D01*
X12298580Y-13509118D02*
X12308103Y-13528166D01*
X12308103Y-13528166D02*
X12317627Y-13566261D01*
X12317627Y-13566261D02*
X12317627Y-13613880D01*
X12317627Y-13613880D02*
X12308103Y-13651975D01*
X12308103Y-13651975D02*
X12298580Y-13671023D01*
X12298580Y-13671023D02*
X12289056Y-13680547D01*
X12289056Y-13680547D02*
X12270008Y-13690071D01*
X12270008Y-13690071D02*
X12250960Y-13690071D01*
X12250960Y-13690071D02*
X12231913Y-13680547D01*
X12231913Y-13680547D02*
X12222389Y-13671023D01*
X12222389Y-13671023D02*
X12212865Y-13651975D01*
X12212865Y-13651975D02*
X12203341Y-13613880D01*
X12203341Y-13613880D02*
X12203341Y-13566261D01*
X12203341Y-13566261D02*
X12212865Y-13528166D01*
X12212865Y-13528166D02*
X12222389Y-13509118D01*
X12222389Y-13509118D02*
X12231913Y-13499594D01*
X12231913Y-13499594D02*
X12250960Y-13490071D01*
X12403341Y-13671023D02*
X12412865Y-13680547D01*
X12412865Y-13680547D02*
X12403341Y-13690071D01*
X12403341Y-13690071D02*
X12393818Y-13680547D01*
X12393818Y-13680547D02*
X12403341Y-13671023D01*
X12403341Y-13671023D02*
X12403341Y-13690071D01*
X12536675Y-13490071D02*
X12555722Y-13490071D01*
X12555722Y-13490071D02*
X12574770Y-13499594D01*
X12574770Y-13499594D02*
X12584294Y-13509118D01*
X12584294Y-13509118D02*
X12593818Y-13528166D01*
X12593818Y-13528166D02*
X12603341Y-13566261D01*
X12603341Y-13566261D02*
X12603341Y-13613880D01*
X12603341Y-13613880D02*
X12593818Y-13651975D01*
X12593818Y-13651975D02*
X12584294Y-13671023D01*
X12584294Y-13671023D02*
X12574770Y-13680547D01*
X12574770Y-13680547D02*
X12555722Y-13690071D01*
X12555722Y-13690071D02*
X12536675Y-13690071D01*
X12536675Y-13690071D02*
X12517627Y-13680547D01*
X12517627Y-13680547D02*
X12508103Y-13671023D01*
X12508103Y-13671023D02*
X12498580Y-13651975D01*
X12498580Y-13651975D02*
X12489056Y-13613880D01*
X12489056Y-13613880D02*
X12489056Y-13566261D01*
X12489056Y-13566261D02*
X12498580Y-13528166D01*
X12498580Y-13528166D02*
X12508103Y-13509118D01*
X12508103Y-13509118D02*
X12517627Y-13499594D01*
X12517627Y-13499594D02*
X12536675Y-13490071D01*
X12774770Y-13556737D02*
X12774770Y-13690071D01*
X12727151Y-13480547D02*
X12679532Y-13623404D01*
X12679532Y-13623404D02*
X12803341Y-13623404D01*
X12860484Y-13490071D02*
X12993818Y-13490071D01*
X12993818Y-13490071D02*
X12908103Y-13690071D01*
X13060484Y-13509118D02*
X13070008Y-13499594D01*
X13070008Y-13499594D02*
X13089056Y-13490071D01*
X13089056Y-13490071D02*
X13136675Y-13490071D01*
X13136675Y-13490071D02*
X13155722Y-13499594D01*
X13155722Y-13499594D02*
X13165246Y-13509118D01*
X13165246Y-13509118D02*
X13174770Y-13528166D01*
X13174770Y-13528166D02*
X13174770Y-13547213D01*
X13174770Y-13547213D02*
X13165246Y-13575785D01*
X13165246Y-13575785D02*
X13050961Y-13690071D01*
X13050961Y-13690071D02*
X13174770Y-13690071D01*
X13250961Y-13490071D02*
X13250961Y-13528166D01*
X13327151Y-13490071D02*
X13327151Y-13528166D01*
X13622389Y-13766261D02*
X13612865Y-13756737D01*
X13612865Y-13756737D02*
X13593818Y-13728166D01*
X13593818Y-13728166D02*
X13584294Y-13709118D01*
X13584294Y-13709118D02*
X13574770Y-13680547D01*
X13574770Y-13680547D02*
X13565246Y-13632928D01*
X13565246Y-13632928D02*
X13565246Y-13594832D01*
X13565246Y-13594832D02*
X13574770Y-13547213D01*
X13574770Y-13547213D02*
X13584294Y-13518642D01*
X13584294Y-13518642D02*
X13593818Y-13499594D01*
X13593818Y-13499594D02*
X13612865Y-13471023D01*
X13612865Y-13471023D02*
X13622389Y-13461499D01*
X13679532Y-13490071D02*
X13803342Y-13490071D01*
X13803342Y-13490071D02*
X13736675Y-13566261D01*
X13736675Y-13566261D02*
X13765246Y-13566261D01*
X13765246Y-13566261D02*
X13784294Y-13575785D01*
X13784294Y-13575785D02*
X13793818Y-13585309D01*
X13793818Y-13585309D02*
X13803342Y-13604356D01*
X13803342Y-13604356D02*
X13803342Y-13651975D01*
X13803342Y-13651975D02*
X13793818Y-13671023D01*
X13793818Y-13671023D02*
X13784294Y-13680547D01*
X13784294Y-13680547D02*
X13765246Y-13690071D01*
X13765246Y-13690071D02*
X13708103Y-13690071D01*
X13708103Y-13690071D02*
X13689056Y-13680547D01*
X13689056Y-13680547D02*
X13679532Y-13671023D01*
X14041437Y-13690071D02*
X14041437Y-13490071D01*
X14127151Y-13690071D02*
X14127151Y-13585309D01*
X14127151Y-13585309D02*
X14117627Y-13566261D01*
X14117627Y-13566261D02*
X14098580Y-13556737D01*
X14098580Y-13556737D02*
X14070008Y-13556737D01*
X14070008Y-13556737D02*
X14050961Y-13566261D01*
X14050961Y-13566261D02*
X14041437Y-13575785D01*
X14250961Y-13690071D02*
X14231913Y-13680547D01*
X14231913Y-13680547D02*
X14222389Y-13671023D01*
X14222389Y-13671023D02*
X14212865Y-13651975D01*
X14212865Y-13651975D02*
X14212865Y-13594832D01*
X14212865Y-13594832D02*
X14222389Y-13575785D01*
X14222389Y-13575785D02*
X14231913Y-13566261D01*
X14231913Y-13566261D02*
X14250961Y-13556737D01*
X14250961Y-13556737D02*
X14279532Y-13556737D01*
X14279532Y-13556737D02*
X14298580Y-13566261D01*
X14298580Y-13566261D02*
X14308104Y-13575785D01*
X14308104Y-13575785D02*
X14317627Y-13594832D01*
X14317627Y-13594832D02*
X14317627Y-13651975D01*
X14317627Y-13651975D02*
X14308104Y-13671023D01*
X14308104Y-13671023D02*
X14298580Y-13680547D01*
X14298580Y-13680547D02*
X14279532Y-13690071D01*
X14279532Y-13690071D02*
X14250961Y-13690071D01*
X14431913Y-13690071D02*
X14412865Y-13680547D01*
X14412865Y-13680547D02*
X14403342Y-13661499D01*
X14403342Y-13661499D02*
X14403342Y-13490071D01*
X14584294Y-13680547D02*
X14565246Y-13690071D01*
X14565246Y-13690071D02*
X14527151Y-13690071D01*
X14527151Y-13690071D02*
X14508104Y-13680547D01*
X14508104Y-13680547D02*
X14498580Y-13661499D01*
X14498580Y-13661499D02*
X14498580Y-13585309D01*
X14498580Y-13585309D02*
X14508104Y-13566261D01*
X14508104Y-13566261D02*
X14527151Y-13556737D01*
X14527151Y-13556737D02*
X14565246Y-13556737D01*
X14565246Y-13556737D02*
X14584294Y-13566261D01*
X14584294Y-13566261D02*
X14593818Y-13585309D01*
X14593818Y-13585309D02*
X14593818Y-13604356D01*
X14593818Y-13604356D02*
X14498580Y-13623404D01*
X14670008Y-13680547D02*
X14689056Y-13690071D01*
X14689056Y-13690071D02*
X14727151Y-13690071D01*
X14727151Y-13690071D02*
X14746199Y-13680547D01*
X14746199Y-13680547D02*
X14755723Y-13661499D01*
X14755723Y-13661499D02*
X14755723Y-13651975D01*
X14755723Y-13651975D02*
X14746199Y-13632928D01*
X14746199Y-13632928D02*
X14727151Y-13623404D01*
X14727151Y-13623404D02*
X14698580Y-13623404D01*
X14698580Y-13623404D02*
X14679532Y-13613880D01*
X14679532Y-13613880D02*
X14670008Y-13594832D01*
X14670008Y-13594832D02*
X14670008Y-13585309D01*
X14670008Y-13585309D02*
X14679532Y-13566261D01*
X14679532Y-13566261D02*
X14698580Y-13556737D01*
X14698580Y-13556737D02*
X14727151Y-13556737D01*
X14727151Y-13556737D02*
X14746199Y-13566261D01*
X14822389Y-13766261D02*
X14831913Y-13756737D01*
X14831913Y-13756737D02*
X14850961Y-13728166D01*
X14850961Y-13728166D02*
X14860485Y-13709118D01*
X14860485Y-13709118D02*
X14870008Y-13680547D01*
X14870008Y-13680547D02*
X14879532Y-13632928D01*
X14879532Y-13632928D02*
X14879532Y-13594832D01*
X14879532Y-13594832D02*
X14870008Y-13547213D01*
X14870008Y-13547213D02*
X14860485Y-13518642D01*
X14860485Y-13518642D02*
X14850961Y-13499594D01*
X14850961Y-13499594D02*
X14831913Y-13471023D01*
X14831913Y-13471023D02*
X14822389Y-13461499D01*
D14*
X9907326Y-13792587D02*
X10047326Y-13932587D01*
X10047326Y-13792587D02*
X9907326Y-13932587D01*
X10047326Y-13862587D02*
G75*
G02*
X9907326Y-13862587I-70000J0D01*
G01*
X9907326Y-13862587D02*
G75*
G02*
X10047326Y-13862587I70000J0D01*
G01*
D11*
X10412865Y-13954071D02*
X10298579Y-13954071D01*
X10355722Y-13954071D02*
X10355722Y-13754071D01*
X10355722Y-13754071D02*
X10336675Y-13782642D01*
X10336675Y-13782642D02*
X10317627Y-13801690D01*
X10317627Y-13801690D02*
X10298579Y-13811213D01*
X10498579Y-13935023D02*
X10508103Y-13944547D01*
X10508103Y-13944547D02*
X10498579Y-13954071D01*
X10498579Y-13954071D02*
X10489056Y-13944547D01*
X10489056Y-13944547D02*
X10498579Y-13935023D01*
X10498579Y-13935023D02*
X10498579Y-13954071D01*
X10679532Y-13820737D02*
X10679532Y-13954071D01*
X10631913Y-13744547D02*
X10584294Y-13887404D01*
X10584294Y-13887404D02*
X10708103Y-13887404D01*
X10822389Y-13754071D02*
X10841437Y-13754071D01*
X10841437Y-13754071D02*
X10860484Y-13763594D01*
X10860484Y-13763594D02*
X10870008Y-13773118D01*
X10870008Y-13773118D02*
X10879532Y-13792166D01*
X10879532Y-13792166D02*
X10889056Y-13830261D01*
X10889056Y-13830261D02*
X10889056Y-13877880D01*
X10889056Y-13877880D02*
X10879532Y-13915975D01*
X10879532Y-13915975D02*
X10870008Y-13935023D01*
X10870008Y-13935023D02*
X10860484Y-13944547D01*
X10860484Y-13944547D02*
X10841437Y-13954071D01*
X10841437Y-13954071D02*
X10822389Y-13954071D01*
X10822389Y-13954071D02*
X10803341Y-13944547D01*
X10803341Y-13944547D02*
X10793818Y-13935023D01*
X10793818Y-13935023D02*
X10784294Y-13915975D01*
X10784294Y-13915975D02*
X10774770Y-13877880D01*
X10774770Y-13877880D02*
X10774770Y-13830261D01*
X10774770Y-13830261D02*
X10784294Y-13792166D01*
X10784294Y-13792166D02*
X10793818Y-13773118D01*
X10793818Y-13773118D02*
X10803341Y-13763594D01*
X10803341Y-13763594D02*
X10822389Y-13754071D01*
X11012865Y-13754071D02*
X11031913Y-13754071D01*
X11031913Y-13754071D02*
X11050960Y-13763594D01*
X11050960Y-13763594D02*
X11060484Y-13773118D01*
X11060484Y-13773118D02*
X11070008Y-13792166D01*
X11070008Y-13792166D02*
X11079532Y-13830261D01*
X11079532Y-13830261D02*
X11079532Y-13877880D01*
X11079532Y-13877880D02*
X11070008Y-13915975D01*
X11070008Y-13915975D02*
X11060484Y-13935023D01*
X11060484Y-13935023D02*
X11050960Y-13944547D01*
X11050960Y-13944547D02*
X11031913Y-13954071D01*
X11031913Y-13954071D02*
X11012865Y-13954071D01*
X11012865Y-13954071D02*
X10993818Y-13944547D01*
X10993818Y-13944547D02*
X10984294Y-13935023D01*
X10984294Y-13935023D02*
X10974770Y-13915975D01*
X10974770Y-13915975D02*
X10965246Y-13877880D01*
X10965246Y-13877880D02*
X10965246Y-13830261D01*
X10965246Y-13830261D02*
X10974770Y-13792166D01*
X10974770Y-13792166D02*
X10984294Y-13773118D01*
X10984294Y-13773118D02*
X10993818Y-13763594D01*
X10993818Y-13763594D02*
X11012865Y-13754071D01*
X11165246Y-13954071D02*
X11165246Y-13820737D01*
X11165246Y-13839785D02*
X11174770Y-13830261D01*
X11174770Y-13830261D02*
X11193817Y-13820737D01*
X11193817Y-13820737D02*
X11222389Y-13820737D01*
X11222389Y-13820737D02*
X11241437Y-13830261D01*
X11241437Y-13830261D02*
X11250960Y-13849309D01*
X11250960Y-13849309D02*
X11250960Y-13954071D01*
X11250960Y-13849309D02*
X11260484Y-13830261D01*
X11260484Y-13830261D02*
X11279532Y-13820737D01*
X11279532Y-13820737D02*
X11308103Y-13820737D01*
X11308103Y-13820737D02*
X11327151Y-13830261D01*
X11327151Y-13830261D02*
X11336675Y-13849309D01*
X11336675Y-13849309D02*
X11336675Y-13954071D01*
X11431913Y-13954071D02*
X11431913Y-13820737D01*
X11431913Y-13839785D02*
X11441437Y-13830261D01*
X11441437Y-13830261D02*
X11460484Y-13820737D01*
X11460484Y-13820737D02*
X11489056Y-13820737D01*
X11489056Y-13820737D02*
X11508103Y-13830261D01*
X11508103Y-13830261D02*
X11517627Y-13849309D01*
X11517627Y-13849309D02*
X11517627Y-13954071D01*
X11517627Y-13849309D02*
X11527151Y-13830261D01*
X11527151Y-13830261D02*
X11546198Y-13820737D01*
X11546198Y-13820737D02*
X11574770Y-13820737D01*
X11574770Y-13820737D02*
X11593818Y-13830261D01*
X11593818Y-13830261D02*
X11603341Y-13849309D01*
X11603341Y-13849309D02*
X11603341Y-13954071D01*
X11993818Y-13744547D02*
X11822389Y-14001690D01*
X12250960Y-13754071D02*
X12270008Y-13754071D01*
X12270008Y-13754071D02*
X12289056Y-13763594D01*
X12289056Y-13763594D02*
X12298580Y-13773118D01*
X12298580Y-13773118D02*
X12308103Y-13792166D01*
X12308103Y-13792166D02*
X12317627Y-13830261D01*
X12317627Y-13830261D02*
X12317627Y-13877880D01*
X12317627Y-13877880D02*
X12308103Y-13915975D01*
X12308103Y-13915975D02*
X12298580Y-13935023D01*
X12298580Y-13935023D02*
X12289056Y-13944547D01*
X12289056Y-13944547D02*
X12270008Y-13954071D01*
X12270008Y-13954071D02*
X12250960Y-13954071D01*
X12250960Y-13954071D02*
X12231913Y-13944547D01*
X12231913Y-13944547D02*
X12222389Y-13935023D01*
X12222389Y-13935023D02*
X12212865Y-13915975D01*
X12212865Y-13915975D02*
X12203341Y-13877880D01*
X12203341Y-13877880D02*
X12203341Y-13830261D01*
X12203341Y-13830261D02*
X12212865Y-13792166D01*
X12212865Y-13792166D02*
X12222389Y-13773118D01*
X12222389Y-13773118D02*
X12231913Y-13763594D01*
X12231913Y-13763594D02*
X12250960Y-13754071D01*
X12403341Y-13935023D02*
X12412865Y-13944547D01*
X12412865Y-13944547D02*
X12403341Y-13954071D01*
X12403341Y-13954071D02*
X12393818Y-13944547D01*
X12393818Y-13944547D02*
X12403341Y-13935023D01*
X12403341Y-13935023D02*
X12403341Y-13954071D01*
X12536675Y-13754071D02*
X12555722Y-13754071D01*
X12555722Y-13754071D02*
X12574770Y-13763594D01*
X12574770Y-13763594D02*
X12584294Y-13773118D01*
X12584294Y-13773118D02*
X12593818Y-13792166D01*
X12593818Y-13792166D02*
X12603341Y-13830261D01*
X12603341Y-13830261D02*
X12603341Y-13877880D01*
X12603341Y-13877880D02*
X12593818Y-13915975D01*
X12593818Y-13915975D02*
X12584294Y-13935023D01*
X12584294Y-13935023D02*
X12574770Y-13944547D01*
X12574770Y-13944547D02*
X12555722Y-13954071D01*
X12555722Y-13954071D02*
X12536675Y-13954071D01*
X12536675Y-13954071D02*
X12517627Y-13944547D01*
X12517627Y-13944547D02*
X12508103Y-13935023D01*
X12508103Y-13935023D02*
X12498580Y-13915975D01*
X12498580Y-13915975D02*
X12489056Y-13877880D01*
X12489056Y-13877880D02*
X12489056Y-13830261D01*
X12489056Y-13830261D02*
X12498580Y-13792166D01*
X12498580Y-13792166D02*
X12508103Y-13773118D01*
X12508103Y-13773118D02*
X12517627Y-13763594D01*
X12517627Y-13763594D02*
X12536675Y-13754071D01*
X12784294Y-13754071D02*
X12689056Y-13754071D01*
X12689056Y-13754071D02*
X12679532Y-13849309D01*
X12679532Y-13849309D02*
X12689056Y-13839785D01*
X12689056Y-13839785D02*
X12708103Y-13830261D01*
X12708103Y-13830261D02*
X12755722Y-13830261D01*
X12755722Y-13830261D02*
X12774770Y-13839785D01*
X12774770Y-13839785D02*
X12784294Y-13849309D01*
X12784294Y-13849309D02*
X12793818Y-13868356D01*
X12793818Y-13868356D02*
X12793818Y-13915975D01*
X12793818Y-13915975D02*
X12784294Y-13935023D01*
X12784294Y-13935023D02*
X12774770Y-13944547D01*
X12774770Y-13944547D02*
X12755722Y-13954071D01*
X12755722Y-13954071D02*
X12708103Y-13954071D01*
X12708103Y-13954071D02*
X12689056Y-13944547D01*
X12689056Y-13944547D02*
X12679532Y-13935023D01*
X12974770Y-13754071D02*
X12879532Y-13754071D01*
X12879532Y-13754071D02*
X12870008Y-13849309D01*
X12870008Y-13849309D02*
X12879532Y-13839785D01*
X12879532Y-13839785D02*
X12898580Y-13830261D01*
X12898580Y-13830261D02*
X12946199Y-13830261D01*
X12946199Y-13830261D02*
X12965246Y-13839785D01*
X12965246Y-13839785D02*
X12974770Y-13849309D01*
X12974770Y-13849309D02*
X12984294Y-13868356D01*
X12984294Y-13868356D02*
X12984294Y-13915975D01*
X12984294Y-13915975D02*
X12974770Y-13935023D01*
X12974770Y-13935023D02*
X12965246Y-13944547D01*
X12965246Y-13944547D02*
X12946199Y-13954071D01*
X12946199Y-13954071D02*
X12898580Y-13954071D01*
X12898580Y-13954071D02*
X12879532Y-13944547D01*
X12879532Y-13944547D02*
X12870008Y-13935023D01*
X13174770Y-13954071D02*
X13060484Y-13954071D01*
X13117627Y-13954071D02*
X13117627Y-13754071D01*
X13117627Y-13754071D02*
X13098580Y-13782642D01*
X13098580Y-13782642D02*
X13079532Y-13801690D01*
X13079532Y-13801690D02*
X13060484Y-13811213D01*
X13250961Y-13754071D02*
X13250961Y-13792166D01*
X13327151Y-13754071D02*
X13327151Y-13792166D01*
X13622389Y-14030261D02*
X13612865Y-14020737D01*
X13612865Y-14020737D02*
X13593818Y-13992166D01*
X13593818Y-13992166D02*
X13584294Y-13973118D01*
X13584294Y-13973118D02*
X13574770Y-13944547D01*
X13574770Y-13944547D02*
X13565246Y-13896928D01*
X13565246Y-13896928D02*
X13565246Y-13858832D01*
X13565246Y-13858832D02*
X13574770Y-13811213D01*
X13574770Y-13811213D02*
X13584294Y-13782642D01*
X13584294Y-13782642D02*
X13593818Y-13763594D01*
X13593818Y-13763594D02*
X13612865Y-13735023D01*
X13612865Y-13735023D02*
X13622389Y-13725499D01*
X13784294Y-13820737D02*
X13784294Y-13954071D01*
X13736675Y-13744547D02*
X13689056Y-13887404D01*
X13689056Y-13887404D02*
X13812865Y-13887404D01*
X14041437Y-13954071D02*
X14041437Y-13754071D01*
X14127151Y-13954071D02*
X14127151Y-13849309D01*
X14127151Y-13849309D02*
X14117627Y-13830261D01*
X14117627Y-13830261D02*
X14098580Y-13820737D01*
X14098580Y-13820737D02*
X14070008Y-13820737D01*
X14070008Y-13820737D02*
X14050961Y-13830261D01*
X14050961Y-13830261D02*
X14041437Y-13839785D01*
X14250961Y-13954071D02*
X14231913Y-13944547D01*
X14231913Y-13944547D02*
X14222389Y-13935023D01*
X14222389Y-13935023D02*
X14212865Y-13915975D01*
X14212865Y-13915975D02*
X14212865Y-13858832D01*
X14212865Y-13858832D02*
X14222389Y-13839785D01*
X14222389Y-13839785D02*
X14231913Y-13830261D01*
X14231913Y-13830261D02*
X14250961Y-13820737D01*
X14250961Y-13820737D02*
X14279532Y-13820737D01*
X14279532Y-13820737D02*
X14298580Y-13830261D01*
X14298580Y-13830261D02*
X14308104Y-13839785D01*
X14308104Y-13839785D02*
X14317627Y-13858832D01*
X14317627Y-13858832D02*
X14317627Y-13915975D01*
X14317627Y-13915975D02*
X14308104Y-13935023D01*
X14308104Y-13935023D02*
X14298580Y-13944547D01*
X14298580Y-13944547D02*
X14279532Y-13954071D01*
X14279532Y-13954071D02*
X14250961Y-13954071D01*
X14431913Y-13954071D02*
X14412865Y-13944547D01*
X14412865Y-13944547D02*
X14403342Y-13925499D01*
X14403342Y-13925499D02*
X14403342Y-13754071D01*
X14584294Y-13944547D02*
X14565246Y-13954071D01*
X14565246Y-13954071D02*
X14527151Y-13954071D01*
X14527151Y-13954071D02*
X14508104Y-13944547D01*
X14508104Y-13944547D02*
X14498580Y-13925499D01*
X14498580Y-13925499D02*
X14498580Y-13849309D01*
X14498580Y-13849309D02*
X14508104Y-13830261D01*
X14508104Y-13830261D02*
X14527151Y-13820737D01*
X14527151Y-13820737D02*
X14565246Y-13820737D01*
X14565246Y-13820737D02*
X14584294Y-13830261D01*
X14584294Y-13830261D02*
X14593818Y-13849309D01*
X14593818Y-13849309D02*
X14593818Y-13868356D01*
X14593818Y-13868356D02*
X14498580Y-13887404D01*
X14670008Y-13944547D02*
X14689056Y-13954071D01*
X14689056Y-13954071D02*
X14727151Y-13954071D01*
X14727151Y-13954071D02*
X14746199Y-13944547D01*
X14746199Y-13944547D02*
X14755723Y-13925499D01*
X14755723Y-13925499D02*
X14755723Y-13915975D01*
X14755723Y-13915975D02*
X14746199Y-13896928D01*
X14746199Y-13896928D02*
X14727151Y-13887404D01*
X14727151Y-13887404D02*
X14698580Y-13887404D01*
X14698580Y-13887404D02*
X14679532Y-13877880D01*
X14679532Y-13877880D02*
X14670008Y-13858832D01*
X14670008Y-13858832D02*
X14670008Y-13849309D01*
X14670008Y-13849309D02*
X14679532Y-13830261D01*
X14679532Y-13830261D02*
X14698580Y-13820737D01*
X14698580Y-13820737D02*
X14727151Y-13820737D01*
X14727151Y-13820737D02*
X14746199Y-13830261D01*
X14822389Y-14030261D02*
X14831913Y-14020737D01*
X14831913Y-14020737D02*
X14850961Y-13992166D01*
X14850961Y-13992166D02*
X14860485Y-13973118D01*
X14860485Y-13973118D02*
X14870008Y-13944547D01*
X14870008Y-13944547D02*
X14879532Y-13896928D01*
X14879532Y-13896928D02*
X14879532Y-13858832D01*
X14879532Y-13858832D02*
X14870008Y-13811213D01*
X14870008Y-13811213D02*
X14860485Y-13782642D01*
X14860485Y-13782642D02*
X14850961Y-13763594D01*
X14850961Y-13763594D02*
X14831913Y-13735023D01*
X14831913Y-13735023D02*
X14822389Y-13725499D01*
M02*
