%TF.GenerationSoftware,KiCad,Pcbnew,8.0.3-8.0.3-0~ubuntu22.04.1*%
%TF.CreationDate,2024-06-23T17:20:49+09:00*%
%TF.ProjectId,PCA9685_ver1,50434139-3638-4355-9f76-6572312e6b69,rev?*%
%TF.SameCoordinates,Original*%
%TF.FileFunction,Paste,Top*%
%TF.FilePolarity,Positive*%
%FSLAX46Y46*%
G04 Gerber Fmt 4.6, Leading zero omitted, Abs format (unit mm)*
G04 Created by KiCad (PCBNEW 8.0.3-8.0.3-0~ubuntu22.04.1) date 2024-06-23 17:20:49*
%MOMM*%
%LPD*%
G01*
G04 APERTURE LIST*
G04 Aperture macros list*
%AMRoundRect*
0 Rectangle with rounded corners*
0 $1 Rounding radius*
0 $2 $3 $4 $5 $6 $7 $8 $9 X,Y pos of 4 corners*
0 Add a 4 corners polygon primitive as box body*
4,1,4,$2,$3,$4,$5,$6,$7,$8,$9,$2,$3,0*
0 Add four circle primitives for the rounded corners*
1,1,$1+$1,$2,$3*
1,1,$1+$1,$4,$5*
1,1,$1+$1,$6,$7*
1,1,$1+$1,$8,$9*
0 Add four rect primitives between the rounded corners*
20,1,$1+$1,$2,$3,$4,$5,0*
20,1,$1+$1,$4,$5,$6,$7,0*
20,1,$1+$1,$6,$7,$8,$9,0*
20,1,$1+$1,$8,$9,$2,$3,0*%
G04 Aperture macros list end*
%ADD10RoundRect,0.135000X0.135000X0.185000X-0.135000X0.185000X-0.135000X-0.185000X0.135000X-0.185000X0*%
%ADD11RoundRect,0.100000X-0.637500X-0.100000X0.637500X-0.100000X0.637500X0.100000X-0.637500X0.100000X0*%
%ADD12RoundRect,0.250000X-0.450000X0.262500X-0.450000X-0.262500X0.450000X-0.262500X0.450000X0.262500X0*%
%ADD13RoundRect,0.135000X-0.185000X0.135000X-0.185000X-0.135000X0.185000X-0.135000X0.185000X0.135000X0*%
%ADD14RoundRect,0.135000X-0.135000X-0.185000X0.135000X-0.185000X0.135000X0.185000X-0.135000X0.185000X0*%
%ADD15RoundRect,0.225000X0.225000X0.250000X-0.225000X0.250000X-0.225000X-0.250000X0.225000X-0.250000X0*%
%ADD16RoundRect,0.250000X0.250000X0.475000X-0.250000X0.475000X-0.250000X-0.475000X0.250000X-0.475000X0*%
G04 APERTURE END LIST*
D10*
%TO.C,R1*%
X87560000Y-102087500D03*
X86540000Y-102087500D03*
%TD*%
D11*
%TO.C,U1*%
X92412500Y-92112500D03*
X92412500Y-92762500D03*
X92412500Y-93412500D03*
X92412500Y-94062500D03*
X92412500Y-94712500D03*
X92412500Y-95362500D03*
X92412500Y-96012500D03*
X92412500Y-96662500D03*
X92412500Y-97312500D03*
X92412500Y-97962500D03*
X92412500Y-98612500D03*
X92412500Y-99262500D03*
X92412500Y-99912500D03*
X92412500Y-100562500D03*
X86687500Y-100562500D03*
X86687500Y-99912500D03*
X86687500Y-99262500D03*
X86687500Y-98612500D03*
X86687500Y-97962500D03*
X86687500Y-97312500D03*
X86687500Y-96662500D03*
X86687500Y-96012500D03*
X86687500Y-95362500D03*
X86687500Y-94712500D03*
X86687500Y-94062500D03*
X86687500Y-93412500D03*
X86687500Y-92762500D03*
X86687500Y-92112500D03*
%TD*%
D12*
%TO.C,R26*%
X100800000Y-90675000D03*
X100800000Y-92500000D03*
%TD*%
%TO.C,R25*%
X98300000Y-90675000D03*
X98300000Y-92500000D03*
%TD*%
D13*
%TO.C,R24*%
X95800000Y-84777500D03*
X95800000Y-85797500D03*
%TD*%
%TO.C,R23*%
X93300000Y-84777500D03*
X93300000Y-85797500D03*
%TD*%
%TO.C,R22*%
X90820000Y-84777500D03*
X90820000Y-85797500D03*
%TD*%
%TO.C,R21*%
X88300000Y-84777500D03*
X88300000Y-85797500D03*
%TD*%
%TO.C,R20*%
X85800000Y-84767500D03*
X85800000Y-85787500D03*
%TD*%
%TO.C,R19*%
X83300000Y-84777500D03*
X83300000Y-85797500D03*
%TD*%
D14*
%TO.C,R18*%
X95290000Y-94087500D03*
X96310000Y-94087500D03*
%TD*%
%TO.C,R17*%
X95290000Y-95087500D03*
X96310000Y-95087500D03*
%TD*%
%TO.C,R16*%
X95290000Y-96087500D03*
X96310000Y-96087500D03*
%TD*%
%TO.C,R15*%
X95290000Y-97087500D03*
X96310000Y-97087500D03*
%TD*%
%TO.C,R14*%
X95290000Y-98087500D03*
X96310000Y-98087500D03*
%TD*%
%TO.C,R13*%
X95310000Y-99087500D03*
X96330000Y-99087500D03*
%TD*%
%TO.C,R12*%
X95310000Y-100087500D03*
X96330000Y-100087500D03*
%TD*%
%TO.C,R11*%
X95300000Y-101087500D03*
X96320000Y-101087500D03*
%TD*%
D10*
%TO.C,R10*%
X83550000Y-100837500D03*
X82530000Y-100837500D03*
%TD*%
%TO.C,R9*%
X83550000Y-99827500D03*
X82530000Y-99827500D03*
%TD*%
%TO.C,R8*%
X83550000Y-98837500D03*
X82530000Y-98837500D03*
%TD*%
%TO.C,R7*%
X83540000Y-97837500D03*
X82520000Y-97837500D03*
%TD*%
%TO.C,R6*%
X83530000Y-96837500D03*
X82510000Y-96837500D03*
%TD*%
%TO.C,R5*%
X83540000Y-95837500D03*
X82520000Y-95837500D03*
%TD*%
%TO.C,R4*%
X83530000Y-94837500D03*
X82510000Y-94837500D03*
%TD*%
%TO.C,R3*%
X83530000Y-93837500D03*
X82510000Y-93837500D03*
%TD*%
%TO.C,R2*%
X89560000Y-102087500D03*
X88540000Y-102087500D03*
%TD*%
D15*
%TO.C,C3*%
X99275000Y-97587500D03*
X100825000Y-97587500D03*
%TD*%
D16*
%TO.C,C2*%
X98825000Y-99337500D03*
X100725000Y-99337500D03*
%TD*%
D15*
%TO.C,C1*%
X99075000Y-85087500D03*
X97525000Y-85087500D03*
%TD*%
M02*
