%TF.GenerationSoftware,KiCad,Pcbnew,8.0.3-8.0.3-0~ubuntu22.04.1*%
%TF.CreationDate,2024-06-23T17:20:50+09:00*%
%TF.ProjectId,PCA9685_ver1,50434139-3638-4355-9f76-6572312e6b69,rev?*%
%TF.SameCoordinates,Original*%
%TF.FileFunction,Soldermask,Top*%
%TF.FilePolarity,Negative*%
%FSLAX46Y46*%
G04 Gerber Fmt 4.6, Leading zero omitted, Abs format (unit mm)*
G04 Created by KiCad (PCBNEW 8.0.3-8.0.3-0~ubuntu22.04.1) date 2024-06-23 17:20:50*
%MOMM*%
%LPD*%
G01*
G04 APERTURE LIST*
G04 Aperture macros list*
%AMRoundRect*
0 Rectangle with rounded corners*
0 $1 Rounding radius*
0 $2 $3 $4 $5 $6 $7 $8 $9 X,Y pos of 4 corners*
0 Add a 4 corners polygon primitive as box body*
4,1,4,$2,$3,$4,$5,$6,$7,$8,$9,$2,$3,0*
0 Add four circle primitives for the rounded corners*
1,1,$1+$1,$2,$3*
1,1,$1+$1,$4,$5*
1,1,$1+$1,$6,$7*
1,1,$1+$1,$8,$9*
0 Add four rect primitives between the rounded corners*
20,1,$1+$1,$2,$3,$4,$5,0*
20,1,$1+$1,$4,$5,$6,$7,0*
20,1,$1+$1,$6,$7,$8,$9,0*
20,1,$1+$1,$8,$9,$2,$3,0*%
%AMFreePoly0*
4,1,19,0.000000,0.744911,0.071157,0.744911,0.207708,0.704816,0.327430,0.627875,0.420627,0.520320,0.479746,0.390866,0.500000,0.250000,0.500000,-0.250000,0.479746,-0.390866,0.420627,-0.520320,0.327430,-0.627875,0.207708,-0.704816,0.071157,-0.744911,0.000000,-0.744911,0.000000,-0.750000,-0.500000,-0.750000,-0.500000,0.750000,0.000000,0.750000,0.000000,0.744911,0.000000,0.744911,
$1*%
%AMFreePoly1*
4,1,19,0.500000,-0.750000,0.000000,-0.750000,0.000000,-0.744911,-0.071157,-0.744911,-0.207708,-0.704816,-0.327430,-0.627875,-0.420627,-0.520320,-0.479746,-0.390866,-0.500000,-0.250000,-0.500000,0.250000,-0.479746,0.390866,-0.420627,0.520320,-0.327430,0.627875,-0.207708,0.704816,-0.071157,0.744911,0.000000,0.744911,0.000000,0.750000,0.500000,0.750000,0.500000,-0.750000,0.500000,-0.750000,
$1*%
G04 Aperture macros list end*
%ADD10R,1.700000X1.700000*%
%ADD11O,1.700000X1.700000*%
%ADD12RoundRect,0.135000X0.135000X0.185000X-0.135000X0.185000X-0.135000X-0.185000X0.135000X-0.185000X0*%
%ADD13RoundRect,0.100000X-0.637500X-0.100000X0.637500X-0.100000X0.637500X0.100000X-0.637500X0.100000X0*%
%ADD14RoundRect,0.250000X-0.450000X0.262500X-0.450000X-0.262500X0.450000X-0.262500X0.450000X0.262500X0*%
%ADD15RoundRect,0.135000X-0.185000X0.135000X-0.185000X-0.135000X0.185000X-0.135000X0.185000X0.135000X0*%
%ADD16RoundRect,0.135000X-0.135000X-0.185000X0.135000X-0.185000X0.135000X0.185000X-0.135000X0.185000X0*%
%ADD17FreePoly0,90.000000*%
%ADD18FreePoly1,90.000000*%
%ADD19FreePoly0,270.000000*%
%ADD20FreePoly1,270.000000*%
%ADD21O,1.740000X2.190000*%
%ADD22RoundRect,0.250000X-0.620000X-0.845000X0.620000X-0.845000X0.620000X0.845000X-0.620000X0.845000X0*%
%ADD23RoundRect,0.225000X0.225000X0.250000X-0.225000X0.250000X-0.225000X-0.250000X0.225000X-0.250000X0*%
%ADD24RoundRect,0.250000X0.250000X0.475000X-0.250000X0.475000X-0.250000X-0.475000X0.250000X-0.475000X0*%
G04 APERTURE END LIST*
D10*
%TO.C,J8*%
X104775000Y-94257500D03*
D11*
X104775000Y-91717500D03*
X104775000Y-89177500D03*
X104775000Y-86637500D03*
%TD*%
D12*
%TO.C,R1*%
X87560000Y-102087500D03*
X86540000Y-102087500D03*
%TD*%
D13*
%TO.C,U1*%
X92412500Y-92112500D03*
X92412500Y-92762500D03*
X92412500Y-93412500D03*
X92412500Y-94062500D03*
X92412500Y-94712500D03*
X92412500Y-95362500D03*
X92412500Y-96012500D03*
X92412500Y-96662500D03*
X92412500Y-97312500D03*
X92412500Y-97962500D03*
X92412500Y-98612500D03*
X92412500Y-99262500D03*
X92412500Y-99912500D03*
X92412500Y-100562500D03*
X86687500Y-100562500D03*
X86687500Y-99912500D03*
X86687500Y-99262500D03*
X86687500Y-98612500D03*
X86687500Y-97962500D03*
X86687500Y-97312500D03*
X86687500Y-96662500D03*
X86687500Y-96012500D03*
X86687500Y-95362500D03*
X86687500Y-94712500D03*
X86687500Y-94062500D03*
X86687500Y-93412500D03*
X86687500Y-92762500D03*
X86687500Y-92112500D03*
%TD*%
D14*
%TO.C,R26*%
X100800000Y-90675000D03*
X100800000Y-92500000D03*
%TD*%
%TO.C,R25*%
X98300000Y-90675000D03*
X98300000Y-92500000D03*
%TD*%
D15*
%TO.C,R24*%
X95800000Y-84777500D03*
X95800000Y-85797500D03*
%TD*%
%TO.C,R23*%
X93300000Y-84777500D03*
X93300000Y-85797500D03*
%TD*%
%TO.C,R22*%
X90820000Y-84777500D03*
X90820000Y-85797500D03*
%TD*%
%TO.C,R21*%
X88300000Y-84777500D03*
X88300000Y-85797500D03*
%TD*%
%TO.C,R20*%
X85800000Y-84767500D03*
X85800000Y-85787500D03*
%TD*%
%TO.C,R19*%
X83300000Y-84777500D03*
X83300000Y-85797500D03*
%TD*%
D16*
%TO.C,R18*%
X95290000Y-94087500D03*
X96310000Y-94087500D03*
%TD*%
%TO.C,R17*%
X95290000Y-95087500D03*
X96310000Y-95087500D03*
%TD*%
%TO.C,R16*%
X95290000Y-96087500D03*
X96310000Y-96087500D03*
%TD*%
%TO.C,R15*%
X95290000Y-97087500D03*
X96310000Y-97087500D03*
%TD*%
%TO.C,R14*%
X95290000Y-98087500D03*
X96310000Y-98087500D03*
%TD*%
%TO.C,R13*%
X95310000Y-99087500D03*
X96330000Y-99087500D03*
%TD*%
%TO.C,R12*%
X95310000Y-100087500D03*
X96330000Y-100087500D03*
%TD*%
%TO.C,R11*%
X95300000Y-101087500D03*
X96320000Y-101087500D03*
%TD*%
D12*
%TO.C,R10*%
X83550000Y-100837500D03*
X82530000Y-100837500D03*
%TD*%
%TO.C,R9*%
X83550000Y-99827500D03*
X82530000Y-99827500D03*
%TD*%
%TO.C,R8*%
X83550000Y-98837500D03*
X82530000Y-98837500D03*
%TD*%
%TO.C,R7*%
X83540000Y-97837500D03*
X82520000Y-97837500D03*
%TD*%
%TO.C,R6*%
X83530000Y-96837500D03*
X82510000Y-96837500D03*
%TD*%
%TO.C,R5*%
X83540000Y-95837500D03*
X82520000Y-95837500D03*
%TD*%
%TO.C,R4*%
X83530000Y-94837500D03*
X82510000Y-94837500D03*
%TD*%
%TO.C,R3*%
X83530000Y-93837500D03*
X82510000Y-93837500D03*
%TD*%
%TO.C,R2*%
X89560000Y-102087500D03*
X88540000Y-102087500D03*
%TD*%
D17*
%TO.C,JP8*%
X100800000Y-87537500D03*
D18*
X100800000Y-88837500D03*
%TD*%
D19*
%TO.C,JP7*%
X98300000Y-88837500D03*
D20*
X98300000Y-87537500D03*
%TD*%
D19*
%TO.C,JP6*%
X95800000Y-88837500D03*
D20*
X95800000Y-87537500D03*
%TD*%
D19*
%TO.C,JP5*%
X93300000Y-88837500D03*
D20*
X93300000Y-87537500D03*
%TD*%
%TO.C,JP4*%
X90800000Y-87537500D03*
D19*
X90800000Y-88837500D03*
%TD*%
D20*
%TO.C,JP3*%
X88300000Y-87537500D03*
D19*
X88300000Y-88837500D03*
%TD*%
D20*
%TO.C,JP2*%
X85800000Y-87537500D03*
D19*
X85800000Y-88837500D03*
%TD*%
D20*
%TO.C,JP1*%
X83300000Y-87537500D03*
D19*
X83300000Y-88837500D03*
%TD*%
D11*
%TO.C,J7*%
X104775000Y-97837500D03*
X104775000Y-100377500D03*
X104775000Y-102917500D03*
D10*
X104775000Y-105457500D03*
%TD*%
%TO.C,J6*%
X78050000Y-97797500D03*
D11*
X78050000Y-100337500D03*
X78050000Y-102877500D03*
X78050000Y-105417500D03*
%TD*%
D21*
%TO.C,J4*%
X101090000Y-103837500D03*
D22*
X98550000Y-103837500D03*
%TD*%
D10*
%TO.C,J3*%
X94400000Y-82087500D03*
D11*
X91860000Y-82087500D03*
X89320000Y-82087500D03*
X86780000Y-82087500D03*
X84240000Y-82087500D03*
X81700000Y-82087500D03*
%TD*%
D10*
%TO.C,J2*%
X94400000Y-105337500D03*
D11*
X91860000Y-105337500D03*
X89320000Y-105337500D03*
X86780000Y-105337500D03*
X84240000Y-105337500D03*
X81700000Y-105337500D03*
%TD*%
%TO.C,J1*%
X78050000Y-94217500D03*
X78050000Y-91677500D03*
X78050000Y-89137500D03*
D10*
X78050000Y-86597500D03*
%TD*%
D23*
%TO.C,C3*%
X99275000Y-97587500D03*
X100825000Y-97587500D03*
%TD*%
D24*
%TO.C,C2*%
X98825000Y-99337500D03*
X100725000Y-99337500D03*
%TD*%
D23*
%TO.C,C1*%
X99075000Y-85087500D03*
X97525000Y-85087500D03*
%TD*%
M02*
