M48
; DRILL file {KiCad 8.0.3-8.0.3-0~ubuntu22.04.1} date 2024-06-23T17:20:51+0900
; FORMAT={-:-/ absolute / inch / decimal}
; #@! TF.CreationDate,2024-06-23T17:20:51+09:00
; #@! TF.GenerationSoftware,Kicad,Pcbnew,8.0.3-8.0.3-0~ubuntu22.04.1
; #@! TF.FileFunction,Plated,1,2,PTH
FMAT,2
INCH
; #@! TA.AperFunction,Plated,PTH,ViaDrill
T1C0.0118
; #@! TA.AperFunction,Plated,PTH,ComponentDrill
T2C0.0394
; #@! TA.AperFunction,Plated,PTH,ComponentDrill
T3C0.0469
%
G90
G05
T1
X3.3287Y-3.3696
X3.4272Y-3.3696
X3.5256Y-3.3696
X3.526Y-3.783
X3.5748Y-3.655
X3.5846Y-3.7052
X3.624Y-3.3696
X3.7224Y-3.3696
X3.8209Y-3.3893
X3.9085Y-3.8027
T2
X3.0728Y-3.4094
X3.0728Y-3.5094
X3.0728Y-3.6094
X3.0728Y-3.7094
X3.0728Y-3.8503
X3.0728Y-3.9503
X3.0728Y-4.0503
X3.0728Y-4.1503
X3.2165Y-3.2318
X3.2165Y-4.1471
X3.3165Y-3.2318
X3.3165Y-4.1471
X3.4165Y-3.2318
X3.4165Y-4.1471
X3.5165Y-3.2318
X3.5165Y-4.1471
X3.6165Y-3.2318
X3.6165Y-4.1471
X3.7165Y-3.2318
X3.7165Y-4.1471
X4.125Y-3.4109
X4.125Y-3.5109
X4.125Y-3.6109
X4.125Y-3.7109
X4.125Y-3.8519
X4.125Y-3.9519
X4.125Y-4.0519
X4.125Y-4.1519
T3
X3.8799Y-4.0881
X3.9799Y-4.0881
M30
