%TF.GenerationSoftware,KiCad,Pcbnew,8.0.3-8.0.3-0~ubuntu22.04.1*%
%TF.CreationDate,2024-06-23T17:20:49+09:00*%
%TF.ProjectId,PCA9685_ver1,50434139-3638-4355-9f76-6572312e6b69,rev?*%
%TF.SameCoordinates,Original*%
%TF.FileFunction,Copper,L1,Top*%
%TF.FilePolarity,Positive*%
%FSLAX46Y46*%
G04 Gerber Fmt 4.6, Leading zero omitted, Abs format (unit mm)*
G04 Created by KiCad (PCBNEW 8.0.3-8.0.3-0~ubuntu22.04.1) date 2024-06-23 17:20:49*
%MOMM*%
%LPD*%
G01*
G04 APERTURE LIST*
G04 Aperture macros list*
%AMRoundRect*
0 Rectangle with rounded corners*
0 $1 Rounding radius*
0 $2 $3 $4 $5 $6 $7 $8 $9 X,Y pos of 4 corners*
0 Add a 4 corners polygon primitive as box body*
4,1,4,$2,$3,$4,$5,$6,$7,$8,$9,$2,$3,0*
0 Add four circle primitives for the rounded corners*
1,1,$1+$1,$2,$3*
1,1,$1+$1,$4,$5*
1,1,$1+$1,$6,$7*
1,1,$1+$1,$8,$9*
0 Add four rect primitives between the rounded corners*
20,1,$1+$1,$2,$3,$4,$5,0*
20,1,$1+$1,$4,$5,$6,$7,0*
20,1,$1+$1,$6,$7,$8,$9,0*
20,1,$1+$1,$8,$9,$2,$3,0*%
%AMFreePoly0*
4,1,19,0.000000,0.744911,0.071157,0.744911,0.207708,0.704816,0.327430,0.627875,0.420627,0.520320,0.479746,0.390866,0.500000,0.250000,0.500000,-0.250000,0.479746,-0.390866,0.420627,-0.520320,0.327430,-0.627875,0.207708,-0.704816,0.071157,-0.744911,0.000000,-0.744911,0.000000,-0.750000,-0.500000,-0.750000,-0.500000,0.750000,0.000000,0.750000,0.000000,0.744911,0.000000,0.744911,
$1*%
%AMFreePoly1*
4,1,19,0.500000,-0.750000,0.000000,-0.750000,0.000000,-0.744911,-0.071157,-0.744911,-0.207708,-0.704816,-0.327430,-0.627875,-0.420627,-0.520320,-0.479746,-0.390866,-0.500000,-0.250000,-0.500000,0.250000,-0.479746,0.390866,-0.420627,0.520320,-0.327430,0.627875,-0.207708,0.704816,-0.071157,0.744911,0.000000,0.744911,0.000000,0.750000,0.500000,0.750000,0.500000,-0.750000,0.500000,-0.750000,
$1*%
G04 Aperture macros list end*
%TA.AperFunction,ComponentPad*%
%ADD10R,1.700000X1.700000*%
%TD*%
%TA.AperFunction,ComponentPad*%
%ADD11O,1.700000X1.700000*%
%TD*%
%TA.AperFunction,SMDPad,CuDef*%
%ADD12RoundRect,0.135000X0.135000X0.185000X-0.135000X0.185000X-0.135000X-0.185000X0.135000X-0.185000X0*%
%TD*%
%TA.AperFunction,SMDPad,CuDef*%
%ADD13RoundRect,0.100000X-0.637500X-0.100000X0.637500X-0.100000X0.637500X0.100000X-0.637500X0.100000X0*%
%TD*%
%TA.AperFunction,SMDPad,CuDef*%
%ADD14RoundRect,0.250000X-0.450000X0.262500X-0.450000X-0.262500X0.450000X-0.262500X0.450000X0.262500X0*%
%TD*%
%TA.AperFunction,SMDPad,CuDef*%
%ADD15RoundRect,0.135000X-0.185000X0.135000X-0.185000X-0.135000X0.185000X-0.135000X0.185000X0.135000X0*%
%TD*%
%TA.AperFunction,SMDPad,CuDef*%
%ADD16RoundRect,0.135000X-0.135000X-0.185000X0.135000X-0.185000X0.135000X0.185000X-0.135000X0.185000X0*%
%TD*%
%TA.AperFunction,SMDPad,CuDef*%
%ADD17FreePoly0,90.000000*%
%TD*%
%TA.AperFunction,SMDPad,CuDef*%
%ADD18FreePoly1,90.000000*%
%TD*%
%TA.AperFunction,SMDPad,CuDef*%
%ADD19FreePoly0,270.000000*%
%TD*%
%TA.AperFunction,SMDPad,CuDef*%
%ADD20FreePoly1,270.000000*%
%TD*%
%TA.AperFunction,ComponentPad*%
%ADD21O,1.740000X2.190000*%
%TD*%
%TA.AperFunction,ComponentPad*%
%ADD22RoundRect,0.250000X-0.620000X-0.845000X0.620000X-0.845000X0.620000X0.845000X-0.620000X0.845000X0*%
%TD*%
%TA.AperFunction,SMDPad,CuDef*%
%ADD23RoundRect,0.225000X0.225000X0.250000X-0.225000X0.250000X-0.225000X-0.250000X0.225000X-0.250000X0*%
%TD*%
%TA.AperFunction,SMDPad,CuDef*%
%ADD24RoundRect,0.250000X0.250000X0.475000X-0.250000X0.475000X-0.250000X-0.475000X0.250000X-0.475000X0*%
%TD*%
%TA.AperFunction,ViaPad*%
%ADD25C,0.600000*%
%TD*%
%TA.AperFunction,Conductor*%
%ADD26C,0.500000*%
%TD*%
%TA.AperFunction,Conductor*%
%ADD27C,0.200000*%
%TD*%
G04 APERTURE END LIST*
D10*
%TO.P,J8,1,Pin_1*%
%TO.N,Net-(J8-Pin_1)*%
X104775000Y-94257500D03*
D11*
%TO.P,J8,2,Pin_2*%
%TO.N,Net-(J8-Pin_2)*%
X104775000Y-91717500D03*
%TO.P,J8,3,Pin_3*%
%TO.N,Net-(J8-Pin_3)*%
X104775000Y-89177500D03*
%TO.P,J8,4,Pin_4*%
%TO.N,Net-(J8-Pin_4)*%
X104775000Y-86637500D03*
%TD*%
D12*
%TO.P,R1,1*%
%TO.N,Net-(U1-#OE)*%
X87560000Y-102087500D03*
%TO.P,R1,2*%
%TO.N,GND*%
X86540000Y-102087500D03*
%TD*%
D13*
%TO.P,U1,28,VDD*%
%TO.N,+3V3*%
X92412500Y-92112500D03*
%TO.P,U1,27,SDA*%
%TO.N,SDA*%
X92412500Y-92762500D03*
%TO.P,U1,26,SCL*%
%TO.N,SCL*%
X92412500Y-93412500D03*
%TO.P,U1,25,EXTCLK*%
%TO.N,Net-(U1-EXTCLK)*%
X92412500Y-94062500D03*
%TO.P,U1,24,A5*%
%TO.N,A5*%
X92412500Y-94712500D03*
%TO.P,U1,23,#OE*%
%TO.N,Net-(U1-#OE)*%
X92412500Y-95362500D03*
%TO.P,U1,22,PWM15*%
%TO.N,Net-(U1-PWM15)*%
X92412500Y-96012500D03*
%TO.P,U1,21,PWM14*%
%TO.N,Net-(U1-PWM14)*%
X92412500Y-96662500D03*
%TO.P,U1,20,PWM13*%
%TO.N,Net-(U1-PWM13)*%
X92412500Y-97312500D03*
%TO.P,U1,19,PWM12*%
%TO.N,Net-(U1-PWM12)*%
X92412500Y-97962500D03*
%TO.P,U1,18,PWM11*%
%TO.N,Net-(U1-PWM11)*%
X92412500Y-98612500D03*
%TO.P,U1,17,PWM10*%
%TO.N,Net-(U1-PWM10)*%
X92412500Y-99262500D03*
%TO.P,U1,16,PWM9*%
%TO.N,Net-(U1-PWM9)*%
X92412500Y-99912500D03*
%TO.P,U1,15,PWM8*%
%TO.N,Net-(U1-PWM8)*%
X92412500Y-100562500D03*
%TO.P,U1,14,GND*%
%TO.N,GND*%
X86687500Y-100562500D03*
%TO.P,U1,13,PWM7*%
%TO.N,Net-(U1-PWM7)*%
X86687500Y-99912500D03*
%TO.P,U1,12,PWM6*%
%TO.N,Net-(U1-PWM6)*%
X86687500Y-99262500D03*
%TO.P,U1,11,PWM5*%
%TO.N,Net-(U1-PWM5)*%
X86687500Y-98612500D03*
%TO.P,U1,10,PWM4*%
%TO.N,Net-(U1-PWM4)*%
X86687500Y-97962500D03*
%TO.P,U1,9,PWM3*%
%TO.N,Net-(U1-PWM3)*%
X86687500Y-97312500D03*
%TO.P,U1,8,PWM2*%
%TO.N,Net-(U1-PWM2)*%
X86687500Y-96662500D03*
%TO.P,U1,7,PWM1*%
%TO.N,Net-(U1-PWM1)*%
X86687500Y-96012500D03*
%TO.P,U1,6,PWM0*%
%TO.N,Net-(U1-PWM0)*%
X86687500Y-95362500D03*
%TO.P,U1,5,A4*%
%TO.N,A4*%
X86687500Y-94712500D03*
%TO.P,U1,4,A3*%
%TO.N,A3*%
X86687500Y-94062500D03*
%TO.P,U1,3,A2*%
%TO.N,A2*%
X86687500Y-93412500D03*
%TO.P,U1,2,A1*%
%TO.N,A1*%
X86687500Y-92762500D03*
%TO.P,U1,1,A0*%
%TO.N,A0*%
X86687500Y-92112500D03*
%TD*%
D14*
%TO.P,R26,1*%
%TO.N,Net-(JP8-A)*%
X100800000Y-90675000D03*
%TO.P,R26,2*%
%TO.N,SCL*%
X100800000Y-92500000D03*
%TD*%
%TO.P,R25,1*%
%TO.N,Net-(JP7-B)*%
X98300000Y-90675000D03*
%TO.P,R25,2*%
%TO.N,SDA*%
X98300000Y-92500000D03*
%TD*%
D15*
%TO.P,R24,1*%
%TO.N,GND*%
X95800000Y-84777500D03*
%TO.P,R24,2*%
%TO.N,A5*%
X95800000Y-85797500D03*
%TD*%
%TO.P,R23,1*%
%TO.N,GND*%
X93300000Y-84777500D03*
%TO.P,R23,2*%
%TO.N,A4*%
X93300000Y-85797500D03*
%TD*%
%TO.P,R22,1*%
%TO.N,GND*%
X90820000Y-84777500D03*
%TO.P,R22,2*%
%TO.N,A3*%
X90820000Y-85797500D03*
%TD*%
%TO.P,R21,1*%
%TO.N,GND*%
X88300000Y-84777500D03*
%TO.P,R21,2*%
%TO.N,A2*%
X88300000Y-85797500D03*
%TD*%
%TO.P,R20,1*%
%TO.N,GND*%
X85800000Y-84767500D03*
%TO.P,R20,2*%
%TO.N,A1*%
X85800000Y-85787500D03*
%TD*%
%TO.P,R19,1*%
%TO.N,GND*%
X83300000Y-84777500D03*
%TO.P,R19,2*%
%TO.N,A0*%
X83300000Y-85797500D03*
%TD*%
D16*
%TO.P,R18,1*%
%TO.N,Net-(U1-PWM15)*%
X95290000Y-94087500D03*
%TO.P,R18,2*%
%TO.N,Net-(J8-Pin_4)*%
X96310000Y-94087500D03*
%TD*%
%TO.P,R17,1*%
%TO.N,Net-(U1-PWM14)*%
X95290000Y-95087500D03*
%TO.P,R17,2*%
%TO.N,Net-(J8-Pin_3)*%
X96310000Y-95087500D03*
%TD*%
%TO.P,R16,1*%
%TO.N,Net-(U1-PWM13)*%
X95290000Y-96087500D03*
%TO.P,R16,2*%
%TO.N,Net-(J8-Pin_2)*%
X96310000Y-96087500D03*
%TD*%
%TO.P,R15,1*%
%TO.N,Net-(U1-PWM12)*%
X95290000Y-97087500D03*
%TO.P,R15,2*%
%TO.N,Net-(J8-Pin_1)*%
X96310000Y-97087500D03*
%TD*%
%TO.P,R14,1*%
%TO.N,Net-(U1-PWM11)*%
X95290000Y-98087500D03*
%TO.P,R14,2*%
%TO.N,Net-(J7-Pin_4)*%
X96310000Y-98087500D03*
%TD*%
%TO.P,R13,1*%
%TO.N,Net-(U1-PWM10)*%
X95310000Y-99087500D03*
%TO.P,R13,2*%
%TO.N,Net-(J7-Pin_3)*%
X96330000Y-99087500D03*
%TD*%
%TO.P,R12,1*%
%TO.N,Net-(U1-PWM9)*%
X95310000Y-100087500D03*
%TO.P,R12,2*%
%TO.N,Net-(J7-Pin_2)*%
X96330000Y-100087500D03*
%TD*%
%TO.P,R11,1*%
%TO.N,Net-(U1-PWM8)*%
X95300000Y-101087500D03*
%TO.P,R11,2*%
%TO.N,Net-(J7-Pin_1)*%
X96320000Y-101087500D03*
%TD*%
D12*
%TO.P,R10,1*%
%TO.N,Net-(U1-PWM7)*%
X83550000Y-100837500D03*
%TO.P,R10,2*%
%TO.N,Net-(J6-Pin_4)*%
X82530000Y-100837500D03*
%TD*%
%TO.P,R9,1*%
%TO.N,Net-(U1-PWM6)*%
X83550000Y-99827500D03*
%TO.P,R9,2*%
%TO.N,Net-(J6-Pin_3)*%
X82530000Y-99827500D03*
%TD*%
%TO.P,R8,1*%
%TO.N,Net-(U1-PWM5)*%
X83550000Y-98837500D03*
%TO.P,R8,2*%
%TO.N,Net-(J6-Pin_2)*%
X82530000Y-98837500D03*
%TD*%
%TO.P,R7,1*%
%TO.N,Net-(U1-PWM4)*%
X83540000Y-97837500D03*
%TO.P,R7,2*%
%TO.N,Net-(J6-Pin_1)*%
X82520000Y-97837500D03*
%TD*%
%TO.P,R6,1*%
%TO.N,Net-(U1-PWM3)*%
X83530000Y-96837500D03*
%TO.P,R6,2*%
%TO.N,Net-(J1-Pin_4)*%
X82510000Y-96837500D03*
%TD*%
%TO.P,R5,1*%
%TO.N,Net-(U1-PWM2)*%
X83540000Y-95837500D03*
%TO.P,R5,2*%
%TO.N,Net-(J1-Pin_3)*%
X82520000Y-95837500D03*
%TD*%
%TO.P,R4,1*%
%TO.N,Net-(U1-PWM1)*%
X83530000Y-94837500D03*
%TO.P,R4,2*%
%TO.N,Net-(J1-Pin_2)*%
X82510000Y-94837500D03*
%TD*%
%TO.P,R3,1*%
%TO.N,Net-(U1-PWM0)*%
X83530000Y-93837500D03*
%TO.P,R3,2*%
%TO.N,Net-(J1-Pin_1)*%
X82510000Y-93837500D03*
%TD*%
%TO.P,R2,1*%
%TO.N,Net-(U1-EXTCLK)*%
X89560000Y-102087500D03*
%TO.P,R2,2*%
%TO.N,GND*%
X88540000Y-102087500D03*
%TD*%
D17*
%TO.P,JP8,2,B*%
%TO.N,+3V3*%
X100800000Y-87537500D03*
D18*
%TO.P,JP8,1,A*%
%TO.N,Net-(JP8-A)*%
X100800000Y-88837500D03*
%TD*%
D19*
%TO.P,JP7,2,B*%
%TO.N,Net-(JP7-B)*%
X98300000Y-88837500D03*
D20*
%TO.P,JP7,1,A*%
%TO.N,+3V3*%
X98300000Y-87537500D03*
%TD*%
D19*
%TO.P,JP6,2,B*%
%TO.N,A5*%
X95800000Y-88837500D03*
D20*
%TO.P,JP6,1,A*%
%TO.N,+3V3*%
X95800000Y-87537500D03*
%TD*%
D19*
%TO.P,JP5,2,B*%
%TO.N,A4*%
X93300000Y-88837500D03*
D20*
%TO.P,JP5,1,A*%
%TO.N,+3V3*%
X93300000Y-87537500D03*
%TD*%
%TO.P,JP4,1,A*%
%TO.N,+3V3*%
X90800000Y-87537500D03*
D19*
%TO.P,JP4,2,B*%
%TO.N,A3*%
X90800000Y-88837500D03*
%TD*%
D20*
%TO.P,JP3,1,A*%
%TO.N,+3V3*%
X88300000Y-87537500D03*
D19*
%TO.P,JP3,2,B*%
%TO.N,A2*%
X88300000Y-88837500D03*
%TD*%
D20*
%TO.P,JP2,1,A*%
%TO.N,+3V3*%
X85800000Y-87537500D03*
D19*
%TO.P,JP2,2,B*%
%TO.N,A1*%
X85800000Y-88837500D03*
%TD*%
D20*
%TO.P,JP1,1,A*%
%TO.N,+3V3*%
X83300000Y-87537500D03*
D19*
%TO.P,JP1,2,B*%
%TO.N,A0*%
X83300000Y-88837500D03*
%TD*%
D11*
%TO.P,J7,4,Pin_4*%
%TO.N,Net-(J7-Pin_4)*%
X104775000Y-97837500D03*
%TO.P,J7,3,Pin_3*%
%TO.N,Net-(J7-Pin_3)*%
X104775000Y-100377500D03*
%TO.P,J7,2,Pin_2*%
%TO.N,Net-(J7-Pin_2)*%
X104775000Y-102917500D03*
D10*
%TO.P,J7,1,Pin_1*%
%TO.N,Net-(J7-Pin_1)*%
X104775000Y-105457500D03*
%TD*%
%TO.P,J6,1,Pin_1*%
%TO.N,Net-(J6-Pin_1)*%
X78050000Y-97797500D03*
D11*
%TO.P,J6,2,Pin_2*%
%TO.N,Net-(J6-Pin_2)*%
X78050000Y-100337500D03*
%TO.P,J6,3,Pin_3*%
%TO.N,Net-(J6-Pin_3)*%
X78050000Y-102877500D03*
%TO.P,J6,4,Pin_4*%
%TO.N,Net-(J6-Pin_4)*%
X78050000Y-105417500D03*
%TD*%
D21*
%TO.P,J4,2,Pin_2*%
%TO.N,+5V*%
X101090000Y-103837500D03*
D22*
%TO.P,J4,1,Pin_1*%
%TO.N,GND*%
X98550000Y-103837500D03*
%TD*%
D10*
%TO.P,J3,1,Pin_1*%
%TO.N,+3V3*%
X94400000Y-82087500D03*
D11*
%TO.P,J3,2,Pin_2*%
%TO.N,GND*%
X91860000Y-82087500D03*
%TO.P,J3,3,Pin_3*%
%TO.N,SDA*%
X89320000Y-82087500D03*
%TO.P,J3,4,Pin_4*%
%TO.N,SCL*%
X86780000Y-82087500D03*
%TO.P,J3,5,Pin_5*%
%TO.N,OE*%
X84240000Y-82087500D03*
%TO.P,J3,6,Pin_6*%
%TO.N,+5V*%
X81700000Y-82087500D03*
%TD*%
D10*
%TO.P,J2,1,Pin_1*%
%TO.N,+3V3*%
X94400000Y-105337500D03*
D11*
%TO.P,J2,2,Pin_2*%
%TO.N,GND*%
X91860000Y-105337500D03*
%TO.P,J2,3,Pin_3*%
%TO.N,SDA*%
X89320000Y-105337500D03*
%TO.P,J2,4,Pin_4*%
%TO.N,SCL*%
X86780000Y-105337500D03*
%TO.P,J2,5,Pin_5*%
%TO.N,OE*%
X84240000Y-105337500D03*
%TO.P,J2,6,Pin_6*%
%TO.N,+5V*%
X81700000Y-105337500D03*
%TD*%
%TO.P,J1,4,Pin_4*%
%TO.N,Net-(J1-Pin_4)*%
X78050000Y-94217500D03*
%TO.P,J1,3,Pin_3*%
%TO.N,Net-(J1-Pin_3)*%
X78050000Y-91677500D03*
%TO.P,J1,2,Pin_2*%
%TO.N,Net-(J1-Pin_2)*%
X78050000Y-89137500D03*
D10*
%TO.P,J1,1,Pin_1*%
%TO.N,Net-(J1-Pin_1)*%
X78050000Y-86597500D03*
%TD*%
D23*
%TO.P,C3,2*%
%TO.N,GND*%
X99275000Y-97587500D03*
%TO.P,C3,1*%
%TO.N,+5V*%
X100825000Y-97587500D03*
%TD*%
D24*
%TO.P,C2,2*%
%TO.N,GND*%
X98825000Y-99337500D03*
%TO.P,C2,1*%
%TO.N,+5V*%
X100725000Y-99337500D03*
%TD*%
D23*
%TO.P,C1,1*%
%TO.N,+3V3*%
X99075000Y-85087500D03*
%TO.P,C1,2*%
%TO.N,GND*%
X97525000Y-85087500D03*
%TD*%
D25*
%TO.N,+3V3*%
X97050000Y-86087500D03*
%TO.N,GND*%
X99275000Y-96587500D03*
%TO.N,+3V3*%
X90800000Y-92837500D03*
X94550000Y-85587500D03*
X92050000Y-85587500D03*
X89550000Y-85587500D03*
X87050000Y-85587500D03*
X84550000Y-85587500D03*
%TO.N,Net-(U1-EXTCLK)*%
X89560000Y-96087500D03*
X91050000Y-94112500D03*
%TD*%
D26*
%TO.N,GND*%
X95800000Y-84777500D02*
X97215000Y-84777500D01*
X97215000Y-84777500D02*
X97525000Y-85087500D01*
D27*
%TO.N,+3V3*%
X95800000Y-87337500D02*
X97050000Y-86087500D01*
X95800000Y-87537500D02*
X95800000Y-87337500D01*
%TO.N,GND*%
X91860000Y-82087500D02*
X90710000Y-80937500D01*
X90710000Y-80937500D02*
X88830000Y-80937500D01*
X88830000Y-80937500D02*
X88050000Y-81717500D01*
X88050000Y-81717500D02*
X88050000Y-84527500D01*
X88050000Y-84527500D02*
X88300000Y-84777500D01*
D26*
X83300000Y-84777500D02*
X97215000Y-84777500D01*
D27*
X99275000Y-97587500D02*
X99275000Y-98887500D01*
X99275000Y-98887500D02*
X98825000Y-99337500D01*
X98550000Y-103837500D02*
X98550000Y-99612500D01*
X98550000Y-99612500D02*
X98825000Y-99337500D01*
D26*
%TO.N,+5V*%
X100725000Y-99337500D02*
X100725000Y-103472500D01*
X100725000Y-103472500D02*
X101090000Y-103837500D01*
X100825000Y-97587500D02*
X100825000Y-99237500D01*
X100825000Y-99237500D02*
X100725000Y-99337500D01*
D27*
%TO.N,Net-(J8-Pin_3)*%
X96310000Y-95087500D02*
X97185000Y-94212500D01*
X97185000Y-94212500D02*
X101150430Y-94212500D01*
X101150430Y-94212500D02*
X103550000Y-91812930D01*
X103550000Y-91812930D02*
X103550000Y-90402500D01*
X103550000Y-90402500D02*
X104775000Y-89177500D01*
%TO.N,Net-(J8-Pin_4)*%
X96310000Y-94087500D02*
X96585000Y-93812500D01*
X103050000Y-86587500D02*
X104725000Y-86587500D01*
X96585000Y-93812500D02*
X100984744Y-93812500D01*
X100984744Y-93812500D02*
X102800000Y-91997244D01*
X102800000Y-91997244D02*
X102800000Y-86837500D01*
X102800000Y-86837500D02*
X103050000Y-86587500D01*
X104725000Y-86587500D02*
X104775000Y-86637500D01*
%TO.N,Net-(J8-Pin_2)*%
X96310000Y-96087500D02*
X97610000Y-94787500D01*
X97610000Y-94787500D02*
X101705000Y-94787500D01*
X101705000Y-94787500D02*
X104775000Y-91717500D01*
%TO.N,Net-(J8-Pin_1)*%
X96310000Y-97087500D02*
X97725000Y-95672500D01*
X99854899Y-95187500D02*
X100004899Y-95337500D01*
X97725000Y-95672500D02*
X97725000Y-95596814D01*
X97725000Y-95596814D02*
X98134314Y-95187500D01*
X98134314Y-95187500D02*
X99854899Y-95187500D01*
X100004899Y-95337500D02*
X103695000Y-95337500D01*
X103695000Y-95337500D02*
X104775000Y-94257500D01*
%TO.N,Net-(J7-Pin_4)*%
X96310000Y-98087500D02*
X96310000Y-98077500D01*
X102875000Y-95937500D02*
X104775000Y-97837500D01*
X96310000Y-98077500D02*
X98125000Y-96262500D01*
X98125000Y-96262500D02*
X98125000Y-96073285D01*
X98610785Y-95587500D02*
X99689214Y-95587500D01*
X98125000Y-96073285D02*
X98610785Y-95587500D01*
X99689214Y-95587500D02*
X100039214Y-95937500D01*
X100039214Y-95937500D02*
X102875000Y-95937500D01*
%TO.N,Net-(J7-Pin_3)*%
X96330000Y-99087500D02*
X96880000Y-98537500D01*
X98525000Y-97362500D02*
X98525000Y-96238971D01*
X99873529Y-96337500D02*
X100798696Y-96337500D01*
X96880000Y-98537500D02*
X97350000Y-98537500D01*
X97350000Y-98537500D02*
X98525000Y-97362500D01*
X98525000Y-96238971D02*
X98776471Y-95987500D01*
X104775000Y-100313804D02*
X104775000Y-100377500D01*
X98776471Y-95987500D02*
X99523529Y-95987500D01*
X99523529Y-95987500D02*
X99873529Y-96337500D01*
X100798696Y-96337500D02*
X104775000Y-100313804D01*
%TO.N,GND*%
X99275000Y-96587500D02*
X99275000Y-97587500D01*
%TO.N,Net-(J7-Pin_2)*%
X96330000Y-100087500D02*
X96957843Y-100715343D01*
X96957843Y-100715343D02*
X96957843Y-104495087D01*
X96957843Y-104495087D02*
X97800256Y-105337500D01*
X97800256Y-105337500D02*
X102355000Y-105337500D01*
X102355000Y-105337500D02*
X104775000Y-102917500D01*
%TO.N,Net-(J7-Pin_1)*%
X96320000Y-101087500D02*
X96320000Y-105857500D01*
X96320000Y-105857500D02*
X97050000Y-106587500D01*
X97050000Y-106587500D02*
X103645000Y-106587500D01*
X103645000Y-106587500D02*
X104775000Y-105457500D01*
%TO.N,GND*%
X88540000Y-102087500D02*
X88610000Y-102087500D01*
X88610000Y-102087500D02*
X91860000Y-105337500D01*
%TO.N,+3V3*%
X91525000Y-92112500D02*
X90800000Y-92837500D01*
X92412500Y-92112500D02*
X91525000Y-92112500D01*
X99075000Y-85087500D02*
X99075000Y-85812500D01*
X99075000Y-85812500D02*
X100800000Y-87537500D01*
X92412500Y-92112500D02*
X94025000Y-92112500D01*
X96855000Y-87592500D02*
X96800000Y-87537500D01*
X94025000Y-92112500D02*
X96855000Y-89282500D01*
X96855000Y-89282500D02*
X96855000Y-87592500D01*
X96800000Y-87537500D02*
X95800000Y-87537500D01*
%TO.N,GND*%
X98825000Y-103562500D02*
X98550000Y-103837500D01*
%TO.N,SCL*%
X100800000Y-92500000D02*
X101500000Y-92500000D01*
X101500000Y-92500000D02*
X102255000Y-91745000D01*
X102255000Y-91745000D02*
X102255000Y-81792500D01*
X102255000Y-81792500D02*
X100800000Y-80337500D01*
X100800000Y-80337500D02*
X87300000Y-80337500D01*
X87300000Y-80337500D02*
X86780000Y-80857500D01*
X86780000Y-80857500D02*
X86780000Y-82087500D01*
%TO.N,SDA*%
X98300000Y-92500000D02*
X99000000Y-92500000D01*
X98448696Y-83237500D02*
X90470000Y-83237500D01*
X99000000Y-92500000D02*
X100012500Y-91487500D01*
X101855000Y-86643804D02*
X98448696Y-83237500D01*
X100012500Y-91487500D02*
X101484744Y-91487500D01*
X101484744Y-91487500D02*
X101855000Y-91117244D01*
X101855000Y-91117244D02*
X101855000Y-86643804D01*
X90470000Y-83237500D02*
X89320000Y-82087500D01*
%TO.N,Net-(J6-Pin_4)*%
X82530000Y-100837500D02*
X82530000Y-100937500D01*
X82530000Y-100937500D02*
X78050000Y-105417500D01*
%TO.N,Net-(J6-Pin_3)*%
X78050000Y-102877500D02*
X79480000Y-102877500D01*
X79480000Y-102877500D02*
X82530000Y-99827500D01*
%TO.N,Net-(J6-Pin_2)*%
X82530000Y-98837500D02*
X79550000Y-98837500D01*
X79550000Y-98837500D02*
X78050000Y-100337500D01*
%TO.N,Net-(J6-Pin_1)*%
X78050000Y-97797500D02*
X82480000Y-97797500D01*
X82480000Y-97797500D02*
X82520000Y-97837500D01*
%TO.N,Net-(J1-Pin_4)*%
X78050000Y-94217500D02*
X79890000Y-94217500D01*
X79890000Y-94217500D02*
X82510000Y-96837500D01*
%TO.N,Net-(J1-Pin_3)*%
X78050000Y-91677500D02*
X82210000Y-95837500D01*
X82210000Y-95837500D02*
X82520000Y-95837500D01*
%TO.N,Net-(J1-Pin_2)*%
X78050000Y-89137500D02*
X81940000Y-93027500D01*
X81940000Y-93027500D02*
X81940000Y-94267500D01*
X81940000Y-94267500D02*
X82510000Y-94837500D01*
%TO.N,Net-(J1-Pin_1)*%
X78050000Y-86597500D02*
X82510000Y-91057500D01*
X82510000Y-91057500D02*
X82510000Y-93837500D01*
%TO.N,+3V3*%
X93300000Y-87537500D02*
X94550000Y-86287500D01*
X94550000Y-86287500D02*
X94550000Y-85587500D01*
X90800000Y-87537500D02*
X92050000Y-86287500D01*
X92050000Y-86287500D02*
X92050000Y-85587500D01*
X88300000Y-87537500D02*
X89550000Y-86287500D01*
X89550000Y-86287500D02*
X89550000Y-85587500D01*
X85800000Y-87537500D02*
X87050000Y-86287500D01*
X87050000Y-86287500D02*
X87050000Y-85587500D01*
X84550000Y-86287500D02*
X84550000Y-85587500D01*
X83300000Y-87537500D02*
X84550000Y-86287500D01*
X95800000Y-87537500D02*
X100800000Y-87537500D01*
%TO.N,GND*%
X86687500Y-100562500D02*
X86687500Y-101940000D01*
X86687500Y-101940000D02*
X86540000Y-102087500D01*
X88540000Y-102087500D02*
X87920000Y-102707500D01*
X87920000Y-102707500D02*
X87160000Y-102707500D01*
X87160000Y-102707500D02*
X86540000Y-102087500D01*
%TO.N,Net-(U1-#OE)*%
X87560000Y-102087500D02*
X87725000Y-101922500D01*
X87725000Y-101922500D02*
X87725000Y-96912500D01*
X87725000Y-96912500D02*
X89275000Y-95362500D01*
X89275000Y-95362500D02*
X92412500Y-95362500D01*
%TO.N,Net-(U1-EXTCLK)*%
X89560000Y-96087500D02*
X89560000Y-102087500D01*
X92412500Y-94062500D02*
X91100000Y-94062500D01*
X91100000Y-94062500D02*
X91050000Y-94112500D01*
%TO.N,A5*%
X92412500Y-94712500D02*
X89925000Y-94712500D01*
X95050000Y-88837500D02*
X95800000Y-88837500D01*
X89925000Y-94712500D02*
X89600000Y-94387500D01*
X89600000Y-94387500D02*
X89600000Y-90603186D01*
X89600000Y-90603186D02*
X90155595Y-90047591D01*
X90155595Y-90047591D02*
X93839909Y-90047591D01*
X93839909Y-90047591D02*
X95050000Y-88837500D01*
%TO.N,SCL*%
X92412500Y-93412500D02*
X99887500Y-93412500D01*
X99887500Y-93412500D02*
X100800000Y-92500000D01*
%TO.N,SDA*%
X92412500Y-92762500D02*
X98037500Y-92762500D01*
X98037500Y-92762500D02*
X98300000Y-92500000D01*
D26*
%TO.N,Net-(JP8-A)*%
X100800000Y-88837500D02*
X100800000Y-90675000D01*
%TO.N,Net-(JP7-B)*%
X98300000Y-88837500D02*
X98300000Y-90675000D01*
D27*
%TO.N,A4*%
X86687500Y-94712500D02*
X87343456Y-94712500D01*
X89200000Y-92855956D02*
X89200000Y-90437500D01*
X87343456Y-94712500D02*
X89200000Y-92855956D01*
X89200000Y-90437500D02*
X89989909Y-89647591D01*
X89989909Y-89647591D02*
X92489909Y-89647591D01*
X92489909Y-89647591D02*
X93300000Y-88837500D01*
%TO.N,A0*%
X86687500Y-92112500D02*
X86687500Y-90475000D01*
X86687500Y-90475000D02*
X85860091Y-89647591D01*
X85860091Y-89647591D02*
X84110091Y-89647591D01*
X84110091Y-89647591D02*
X83300000Y-88837500D01*
%TO.N,A1*%
X86687500Y-92762500D02*
X87424999Y-92762500D01*
X87424999Y-92762500D02*
X87725000Y-92462499D01*
X87725000Y-92462499D02*
X87725000Y-90012500D01*
X86550000Y-88837500D02*
X85800000Y-88837500D01*
X87725000Y-90012500D02*
X86550000Y-88837500D01*
%TO.N,A3*%
X86687500Y-94062500D02*
X87424999Y-94062500D01*
X87424999Y-94062500D02*
X88800000Y-92687499D01*
X88800000Y-92687499D02*
X88800000Y-89837500D01*
X88800000Y-89837500D02*
X89800000Y-88837500D01*
X89800000Y-88837500D02*
X90800000Y-88837500D01*
%TO.N,A2*%
X88300000Y-88837500D02*
X88300000Y-92537500D01*
X88300000Y-92537500D02*
X87425000Y-93412500D01*
X87425000Y-93412500D02*
X86687500Y-93412500D01*
%TO.N,A5*%
X95800000Y-85797500D02*
X94745000Y-86852500D01*
X94745000Y-86852500D02*
X94745000Y-88537500D01*
X94745000Y-88537500D02*
X95045000Y-88837500D01*
X95045000Y-88837500D02*
X95800000Y-88837500D01*
%TO.N,A4*%
X93300000Y-85797500D02*
X92245000Y-86852500D01*
X92245000Y-86852500D02*
X92245000Y-88232500D01*
X92245000Y-88232500D02*
X92850000Y-88837500D01*
X92850000Y-88837500D02*
X93300000Y-88837500D01*
%TO.N,A3*%
X90800000Y-88837500D02*
X90045000Y-88837500D01*
X90045000Y-88837500D02*
X89745000Y-88537500D01*
X89745000Y-88537500D02*
X89745000Y-86872500D01*
X89745000Y-86872500D02*
X90820000Y-85797500D01*
%TO.N,A2*%
X88300000Y-85797500D02*
X87245000Y-86852500D01*
X87245000Y-86852500D02*
X87245000Y-88537500D01*
X87545000Y-88837500D02*
X88300000Y-88837500D01*
X87245000Y-88537500D02*
X87545000Y-88837500D01*
%TO.N,A1*%
X85800000Y-85787500D02*
X84745000Y-86842500D01*
X84745000Y-86842500D02*
X84745000Y-88537500D01*
X84745000Y-88537500D02*
X85045000Y-88837500D01*
X85045000Y-88837500D02*
X85800000Y-88837500D01*
%TO.N,A0*%
X83300000Y-85797500D02*
X82245000Y-86852500D01*
X82245000Y-86852500D02*
X82245000Y-88537500D01*
X82245000Y-88537500D02*
X82545000Y-88837500D01*
X82545000Y-88837500D02*
X83300000Y-88837500D01*
%TO.N,Net-(U1-PWM0)*%
X83530000Y-93837500D02*
X85055000Y-95362500D01*
X85055000Y-95362500D02*
X86687500Y-95362500D01*
%TO.N,Net-(U1-PWM1)*%
X83530000Y-94837500D02*
X84705000Y-96012500D01*
X84705000Y-96012500D02*
X86687500Y-96012500D01*
%TO.N,Net-(U1-PWM2)*%
X83540000Y-95837500D02*
X84365000Y-96662500D01*
X84365000Y-96662500D02*
X86687500Y-96662500D01*
%TO.N,Net-(U1-PWM3)*%
X83530000Y-96837500D02*
X84005000Y-97312500D01*
X84005000Y-97312500D02*
X86687500Y-97312500D01*
%TO.N,Net-(U1-PWM4)*%
X83540000Y-97837500D02*
X86562500Y-97837500D01*
X86562500Y-97837500D02*
X86687500Y-97962500D01*
%TO.N,Net-(U1-PWM5)*%
X83550000Y-98837500D02*
X83775000Y-98612500D01*
X83775000Y-98612500D02*
X86687500Y-98612500D01*
%TO.N,Net-(U1-PWM6)*%
X83550000Y-99827500D02*
X84115000Y-99262500D01*
X84115000Y-99262500D02*
X86687500Y-99262500D01*
%TO.N,Net-(U1-PWM7)*%
X86687500Y-99912500D02*
X84475000Y-99912500D01*
X84475000Y-99912500D02*
X83550000Y-100837500D01*
%TO.N,Net-(U1-PWM15)*%
X92412500Y-96012500D02*
X93365000Y-96012500D01*
X93365000Y-96012500D02*
X95290000Y-94087500D01*
%TO.N,Net-(U1-PWM14)*%
X92412500Y-96662500D02*
X93715000Y-96662500D01*
X93715000Y-96662500D02*
X95290000Y-95087500D01*
%TO.N,Net-(U1-PWM13)*%
X92412500Y-97312500D02*
X94065000Y-97312500D01*
X94065000Y-97312500D02*
X95290000Y-96087500D01*
%TO.N,Net-(U1-PWM12)*%
X92412500Y-97962500D02*
X94415000Y-97962500D01*
X94415000Y-97962500D02*
X95290000Y-97087500D01*
%TO.N,Net-(U1-PWM11)*%
X95290000Y-98087500D02*
X94765000Y-98612500D01*
X94765000Y-98612500D02*
X92412500Y-98612500D01*
%TO.N,Net-(U1-PWM10)*%
X92412500Y-99262500D02*
X95135000Y-99262500D01*
X95135000Y-99262500D02*
X95310000Y-99087500D01*
%TO.N,Net-(U1-PWM9)*%
X95310000Y-100087500D02*
X95135000Y-99912500D01*
X95135000Y-99912500D02*
X92412500Y-99912500D01*
%TO.N,Net-(U1-PWM8)*%
X92412500Y-100562500D02*
X94775000Y-100562500D01*
X94775000Y-100562500D02*
X95300000Y-101087500D01*
%TD*%
%TA.AperFunction,Conductor*%
%TO.N,GND*%
G36*
X86467941Y-80107685D02*
G01*
X86513696Y-80160489D01*
X86523640Y-80229647D01*
X86494615Y-80293203D01*
X86488583Y-80299681D01*
X86299481Y-80488782D01*
X86299477Y-80488787D01*
X86253004Y-80569283D01*
X86253003Y-80569282D01*
X86220424Y-80625711D01*
X86220423Y-80625715D01*
X86179499Y-80778443D01*
X86179499Y-80778445D01*
X86179499Y-80798409D01*
X86159814Y-80865448D01*
X86107908Y-80910789D01*
X86102174Y-80913462D01*
X86102169Y-80913465D01*
X85908597Y-81049005D01*
X85741505Y-81216097D01*
X85611575Y-81401658D01*
X85556998Y-81445283D01*
X85487500Y-81452477D01*
X85425145Y-81420954D01*
X85408425Y-81401658D01*
X85278494Y-81216097D01*
X85111402Y-81049006D01*
X85111395Y-81049001D01*
X84917834Y-80913467D01*
X84917830Y-80913465D01*
X84840501Y-80877406D01*
X84703663Y-80813597D01*
X84703659Y-80813596D01*
X84703655Y-80813594D01*
X84475413Y-80752438D01*
X84475403Y-80752436D01*
X84240001Y-80731841D01*
X84239999Y-80731841D01*
X84004596Y-80752436D01*
X84004586Y-80752438D01*
X83776344Y-80813594D01*
X83776335Y-80813598D01*
X83562171Y-80913464D01*
X83562169Y-80913465D01*
X83368597Y-81049005D01*
X83201505Y-81216097D01*
X83071575Y-81401658D01*
X83016998Y-81445283D01*
X82947500Y-81452477D01*
X82885145Y-81420954D01*
X82868425Y-81401658D01*
X82738494Y-81216097D01*
X82571402Y-81049006D01*
X82571395Y-81049001D01*
X82377834Y-80913467D01*
X82377830Y-80913465D01*
X82300501Y-80877406D01*
X82163663Y-80813597D01*
X82163659Y-80813596D01*
X82163655Y-80813594D01*
X81935413Y-80752438D01*
X81935403Y-80752436D01*
X81700001Y-80731841D01*
X81699999Y-80731841D01*
X81464596Y-80752436D01*
X81464586Y-80752438D01*
X81236344Y-80813594D01*
X81236335Y-80813598D01*
X81022171Y-80913464D01*
X81022169Y-80913465D01*
X80828597Y-81049005D01*
X80661505Y-81216097D01*
X80525965Y-81409669D01*
X80525964Y-81409671D01*
X80426098Y-81623835D01*
X80426094Y-81623844D01*
X80364938Y-81852086D01*
X80364936Y-81852096D01*
X80344341Y-82087499D01*
X80344341Y-82087500D01*
X80364936Y-82322903D01*
X80364938Y-82322913D01*
X80426094Y-82551155D01*
X80426096Y-82551159D01*
X80426097Y-82551163D01*
X80498700Y-82706860D01*
X80525965Y-82765330D01*
X80525967Y-82765334D01*
X80634281Y-82920021D01*
X80661505Y-82958901D01*
X80828599Y-83125995D01*
X80925384Y-83193765D01*
X81022165Y-83261532D01*
X81022167Y-83261533D01*
X81022170Y-83261535D01*
X81236337Y-83361403D01*
X81464592Y-83422563D01*
X81652918Y-83439039D01*
X81699999Y-83443159D01*
X81700000Y-83443159D01*
X81700001Y-83443159D01*
X81739234Y-83439726D01*
X81935408Y-83422563D01*
X82163663Y-83361403D01*
X82377830Y-83261535D01*
X82571401Y-83125995D01*
X82738495Y-82958901D01*
X82868425Y-82773342D01*
X82923002Y-82729717D01*
X82992500Y-82722523D01*
X83054855Y-82754046D01*
X83071575Y-82773342D01*
X83201500Y-82958895D01*
X83201505Y-82958901D01*
X83368599Y-83125995D01*
X83465384Y-83193765D01*
X83562165Y-83261532D01*
X83562167Y-83261533D01*
X83562170Y-83261535D01*
X83776337Y-83361403D01*
X84004592Y-83422563D01*
X84192918Y-83439039D01*
X84239999Y-83443159D01*
X84240000Y-83443159D01*
X84240001Y-83443159D01*
X84279234Y-83439726D01*
X84475408Y-83422563D01*
X84703663Y-83361403D01*
X84917830Y-83261535D01*
X85111401Y-83125995D01*
X85278495Y-82958901D01*
X85408425Y-82773342D01*
X85463002Y-82729717D01*
X85532500Y-82722523D01*
X85594855Y-82754046D01*
X85611575Y-82773342D01*
X85741500Y-82958895D01*
X85741505Y-82958901D01*
X85908599Y-83125995D01*
X86005384Y-83193765D01*
X86102165Y-83261532D01*
X86102167Y-83261533D01*
X86102170Y-83261535D01*
X86316337Y-83361403D01*
X86544592Y-83422563D01*
X86732918Y-83439039D01*
X86779999Y-83443159D01*
X86780000Y-83443159D01*
X86780001Y-83443159D01*
X86819234Y-83439726D01*
X87015408Y-83422563D01*
X87243663Y-83361403D01*
X87457830Y-83261535D01*
X87651401Y-83125995D01*
X87818495Y-82958901D01*
X87948425Y-82773342D01*
X88003002Y-82729717D01*
X88072500Y-82722523D01*
X88134855Y-82754046D01*
X88151575Y-82773342D01*
X88281500Y-82958895D01*
X88281505Y-82958901D01*
X88448599Y-83125995D01*
X88545384Y-83193765D01*
X88642165Y-83261532D01*
X88642167Y-83261533D01*
X88642170Y-83261535D01*
X88856337Y-83361403D01*
X89084592Y-83422563D01*
X89272918Y-83439039D01*
X89319999Y-83443159D01*
X89320000Y-83443159D01*
X89320001Y-83443159D01*
X89359234Y-83439726D01*
X89555408Y-83422563D01*
X89683756Y-83388172D01*
X89753605Y-83389835D01*
X89803530Y-83420266D01*
X90101284Y-83718020D01*
X90101286Y-83718021D01*
X90101290Y-83718024D01*
X90238209Y-83797073D01*
X90238216Y-83797077D01*
X90351664Y-83827476D01*
X90411321Y-83863839D01*
X90441850Y-83926686D01*
X90433555Y-83996062D01*
X90389070Y-84049940D01*
X90382688Y-84053981D01*
X90242714Y-84136761D01*
X90242705Y-84136768D01*
X90129268Y-84250205D01*
X90129261Y-84250214D01*
X90047595Y-84388305D01*
X90007156Y-84527500D01*
X91632844Y-84527500D01*
X91592404Y-84388305D01*
X91510738Y-84250214D01*
X91510731Y-84250205D01*
X91397294Y-84136768D01*
X91397285Y-84136761D01*
X91282253Y-84068732D01*
X91234570Y-84017663D01*
X91222066Y-83948921D01*
X91248711Y-83884332D01*
X91306047Y-83844402D01*
X91345374Y-83838000D01*
X92774626Y-83838000D01*
X92841665Y-83857685D01*
X92887420Y-83910489D01*
X92897364Y-83979647D01*
X92868339Y-84043203D01*
X92837747Y-84068732D01*
X92722714Y-84136761D01*
X92722705Y-84136768D01*
X92609268Y-84250205D01*
X92609261Y-84250214D01*
X92527595Y-84388305D01*
X92487156Y-84527500D01*
X94112844Y-84527500D01*
X94072404Y-84388305D01*
X93990738Y-84250214D01*
X93990731Y-84250205D01*
X93877294Y-84136768D01*
X93877285Y-84136761D01*
X93762253Y-84068732D01*
X93714570Y-84017663D01*
X93702066Y-83948921D01*
X93728711Y-83884332D01*
X93786047Y-83844402D01*
X93825374Y-83838000D01*
X95274626Y-83838000D01*
X95341665Y-83857685D01*
X95387420Y-83910489D01*
X95397364Y-83979647D01*
X95368339Y-84043203D01*
X95337747Y-84068732D01*
X95222714Y-84136761D01*
X95222705Y-84136768D01*
X95109268Y-84250205D01*
X95109261Y-84250214D01*
X95027595Y-84388305D01*
X94987156Y-84527500D01*
X95926000Y-84527500D01*
X95993039Y-84547185D01*
X96038794Y-84599989D01*
X96050000Y-84651500D01*
X96050000Y-84903000D01*
X96030315Y-84970039D01*
X95977511Y-85015794D01*
X95926000Y-85027000D01*
X95550831Y-85027000D01*
X95550806Y-85027001D01*
X95549332Y-85027118D01*
X95539607Y-85027500D01*
X95173440Y-85027500D01*
X95106401Y-85007815D01*
X95085759Y-84991181D01*
X95052262Y-84957684D01*
X94899523Y-84861711D01*
X94729254Y-84802131D01*
X94729249Y-84802130D01*
X94550004Y-84781935D01*
X94549996Y-84781935D01*
X94370750Y-84802130D01*
X94370745Y-84802131D01*
X94200476Y-84861711D01*
X94047737Y-84957684D01*
X94014241Y-84991181D01*
X93952918Y-85024666D01*
X93926560Y-85027500D01*
X93560409Y-85027500D01*
X93550682Y-85027118D01*
X93549182Y-85027000D01*
X93050831Y-85027000D01*
X93050806Y-85027001D01*
X93049332Y-85027118D01*
X93039607Y-85027500D01*
X92673440Y-85027500D01*
X92606401Y-85007815D01*
X92585759Y-84991181D01*
X92552262Y-84957684D01*
X92399523Y-84861711D01*
X92229254Y-84802131D01*
X92229249Y-84802130D01*
X92050004Y-84781935D01*
X92049996Y-84781935D01*
X91870750Y-84802130D01*
X91870745Y-84802131D01*
X91700476Y-84861711D01*
X91547737Y-84957684D01*
X91514241Y-84991181D01*
X91452918Y-85024666D01*
X91426560Y-85027500D01*
X91080409Y-85027500D01*
X91070682Y-85027118D01*
X91069182Y-85027000D01*
X90570831Y-85027000D01*
X90570806Y-85027001D01*
X90569332Y-85027118D01*
X90559607Y-85027500D01*
X90173440Y-85027500D01*
X90106401Y-85007815D01*
X90085759Y-84991181D01*
X90052262Y-84957684D01*
X89899523Y-84861711D01*
X89729254Y-84802131D01*
X89729249Y-84802130D01*
X89550004Y-84781935D01*
X89549996Y-84781935D01*
X89370750Y-84802130D01*
X89370745Y-84802131D01*
X89200476Y-84861711D01*
X89047737Y-84957684D01*
X89014241Y-84991181D01*
X88952918Y-85024666D01*
X88926560Y-85027500D01*
X88560409Y-85027500D01*
X88550682Y-85027118D01*
X88549182Y-85027000D01*
X88050831Y-85027000D01*
X88050806Y-85027001D01*
X88049332Y-85027118D01*
X88039607Y-85027500D01*
X87673440Y-85027500D01*
X87606401Y-85007815D01*
X87585759Y-84991181D01*
X87552262Y-84957684D01*
X87399523Y-84861711D01*
X87229254Y-84802131D01*
X87229249Y-84802130D01*
X87050004Y-84781935D01*
X87049996Y-84781935D01*
X86870750Y-84802130D01*
X86870745Y-84802131D01*
X86700476Y-84861711D01*
X86547737Y-84957684D01*
X86524241Y-84981181D01*
X86462918Y-85014666D01*
X86436560Y-85017500D01*
X86060409Y-85017500D01*
X86050682Y-85017118D01*
X86049182Y-85017000D01*
X85550831Y-85017000D01*
X85550806Y-85017001D01*
X85549332Y-85017118D01*
X85539607Y-85017500D01*
X85163440Y-85017500D01*
X85096401Y-84997815D01*
X85075759Y-84981181D01*
X85052262Y-84957684D01*
X84899523Y-84861711D01*
X84729254Y-84802131D01*
X84729249Y-84802130D01*
X84550004Y-84781935D01*
X84549996Y-84781935D01*
X84370750Y-84802130D01*
X84370745Y-84802131D01*
X84200476Y-84861711D01*
X84047737Y-84957684D01*
X84014241Y-84991181D01*
X83952918Y-85024666D01*
X83926560Y-85027500D01*
X83560409Y-85027500D01*
X83550682Y-85027118D01*
X83549182Y-85027000D01*
X83050831Y-85027000D01*
X83050806Y-85027001D01*
X83049332Y-85027118D01*
X83039607Y-85027500D01*
X82487156Y-85027500D01*
X82527594Y-85166693D01*
X82561419Y-85223888D01*
X82578601Y-85291612D01*
X82561419Y-85350128D01*
X82527130Y-85408107D01*
X82527129Y-85408111D01*
X82482335Y-85562291D01*
X82482334Y-85562297D01*
X82479500Y-85598311D01*
X82479500Y-85717402D01*
X82459815Y-85784441D01*
X82443181Y-85805083D01*
X81764481Y-86483782D01*
X81764479Y-86483785D01*
X81723270Y-86555163D01*
X81723269Y-86555164D01*
X81685423Y-86620714D01*
X81685423Y-86620715D01*
X81644499Y-86773443D01*
X81644499Y-86773445D01*
X81644499Y-86941546D01*
X81644500Y-86941559D01*
X81644500Y-88450830D01*
X81644499Y-88450848D01*
X81644499Y-88616554D01*
X81644498Y-88616554D01*
X81644499Y-88616557D01*
X81670567Y-88713844D01*
X81685424Y-88769287D01*
X81698581Y-88792075D01*
X81698582Y-88792077D01*
X81764477Y-88906212D01*
X81764481Y-88906217D01*
X81883349Y-89025085D01*
X81883355Y-89025090D01*
X82060139Y-89201874D01*
X82060149Y-89201885D01*
X82064479Y-89206215D01*
X82064480Y-89206216D01*
X82137962Y-89279698D01*
X82163073Y-89315864D01*
X82165251Y-89320634D01*
X82165253Y-89320638D01*
X82239376Y-89435976D01*
X82240196Y-89437417D01*
X82242988Y-89441598D01*
X82337207Y-89550330D01*
X82337210Y-89550333D01*
X82445864Y-89644481D01*
X82445867Y-89644484D01*
X82445869Y-89644485D01*
X82445870Y-89644486D01*
X82566906Y-89722270D01*
X82566914Y-89722274D01*
X82566923Y-89722279D01*
X82691642Y-89779236D01*
X82695941Y-89781485D01*
X82697692Y-89781999D01*
X82835744Y-89822535D01*
X82835745Y-89822535D01*
X82835748Y-89822536D01*
X82878183Y-89828636D01*
X82978059Y-89842997D01*
X83034399Y-89842997D01*
X83034409Y-89843000D01*
X83085764Y-89843000D01*
X83404902Y-89843000D01*
X83471941Y-89862685D01*
X83492583Y-89879319D01*
X83741375Y-90128111D01*
X83741377Y-90128112D01*
X83741381Y-90128115D01*
X83878300Y-90207164D01*
X83878307Y-90207168D01*
X84031034Y-90248092D01*
X84031036Y-90248092D01*
X84196745Y-90248092D01*
X84196761Y-90248091D01*
X85559994Y-90248091D01*
X85627033Y-90267776D01*
X85647675Y-90284410D01*
X86050681Y-90687416D01*
X86084166Y-90748739D01*
X86087000Y-90775097D01*
X86087000Y-91293202D01*
X86067315Y-91360241D01*
X86014511Y-91405996D01*
X85979184Y-91416141D01*
X85893246Y-91427454D01*
X85893237Y-91427456D01*
X85747160Y-91487963D01*
X85621718Y-91584218D01*
X85525463Y-91709660D01*
X85464956Y-91855737D01*
X85464955Y-91855739D01*
X85449500Y-91973138D01*
X85449500Y-92251863D01*
X85464953Y-92369253D01*
X85464957Y-92369265D01*
X85473566Y-92390050D01*
X85481033Y-92459519D01*
X85473566Y-92484950D01*
X85464957Y-92505734D01*
X85464955Y-92505739D01*
X85449500Y-92623138D01*
X85449500Y-92901863D01*
X85464953Y-93019253D01*
X85464957Y-93019265D01*
X85473566Y-93040050D01*
X85481033Y-93109519D01*
X85473566Y-93134950D01*
X85464957Y-93155734D01*
X85464955Y-93155739D01*
X85449500Y-93273138D01*
X85449500Y-93551863D01*
X85464953Y-93669253D01*
X85464957Y-93669265D01*
X85473566Y-93690050D01*
X85481033Y-93759519D01*
X85473566Y-93784950D01*
X85464957Y-93805734D01*
X85464955Y-93805739D01*
X85449500Y-93923138D01*
X85449500Y-94201863D01*
X85464953Y-94319253D01*
X85464957Y-94319265D01*
X85473566Y-94340050D01*
X85481033Y-94409519D01*
X85473566Y-94434950D01*
X85464957Y-94455734D01*
X85464955Y-94455739D01*
X85449500Y-94573138D01*
X85449500Y-94608402D01*
X85429815Y-94675441D01*
X85377011Y-94721196D01*
X85307853Y-94731140D01*
X85244297Y-94702115D01*
X85237819Y-94696083D01*
X84336818Y-93795082D01*
X84303333Y-93733759D01*
X84300499Y-93707401D01*
X84300499Y-93588331D01*
X84300498Y-93588306D01*
X84298869Y-93567606D01*
X84297665Y-93552296D01*
X84252869Y-93398107D01*
X84171135Y-93259902D01*
X84171133Y-93259900D01*
X84171130Y-93259896D01*
X84057603Y-93146369D01*
X84057595Y-93146363D01*
X83919393Y-93064631D01*
X83919388Y-93064629D01*
X83765208Y-93019835D01*
X83765202Y-93019834D01*
X83729181Y-93017000D01*
X83330830Y-93017000D01*
X83330808Y-93017001D01*
X83294796Y-93019835D01*
X83269093Y-93027302D01*
X83199223Y-93027101D01*
X83140554Y-92989158D01*
X83111712Y-92925519D01*
X83110500Y-92908225D01*
X83110500Y-90978441D01*
X83108749Y-90971910D01*
X83108745Y-90971896D01*
X83090360Y-90903283D01*
X83084931Y-90883019D01*
X83069577Y-90825716D01*
X83069575Y-90825712D01*
X83069574Y-90825709D01*
X82990524Y-90688790D01*
X82990521Y-90688786D01*
X82990520Y-90688784D01*
X82878716Y-90576980D01*
X82878715Y-90576979D01*
X82874385Y-90572649D01*
X82874374Y-90572639D01*
X79436818Y-87135083D01*
X79403333Y-87073760D01*
X79400499Y-87047402D01*
X79400499Y-85699629D01*
X79400498Y-85699623D01*
X79400497Y-85699616D01*
X79394091Y-85640017D01*
X79365103Y-85562297D01*
X79343797Y-85505171D01*
X79343793Y-85505164D01*
X79257547Y-85389955D01*
X79257544Y-85389952D01*
X79142335Y-85303706D01*
X79142328Y-85303702D01*
X79007482Y-85253408D01*
X79007483Y-85253408D01*
X78947883Y-85247001D01*
X78947881Y-85247000D01*
X78947873Y-85247000D01*
X78947864Y-85247000D01*
X77152129Y-85247000D01*
X77152123Y-85247001D01*
X77092516Y-85253408D01*
X76957671Y-85303702D01*
X76957664Y-85303706D01*
X76842455Y-85389952D01*
X76842452Y-85389955D01*
X76756206Y-85505164D01*
X76756202Y-85505171D01*
X76705908Y-85640017D01*
X76699501Y-85699616D01*
X76699501Y-85699623D01*
X76699500Y-85699635D01*
X76699500Y-87495370D01*
X76699501Y-87495376D01*
X76705908Y-87554983D01*
X76756202Y-87689828D01*
X76756206Y-87689835D01*
X76842452Y-87805044D01*
X76842455Y-87805047D01*
X76957664Y-87891293D01*
X76957671Y-87891297D01*
X77089081Y-87940310D01*
X77145015Y-87982181D01*
X77169432Y-88047645D01*
X77154580Y-88115918D01*
X77133430Y-88144173D01*
X77011503Y-88266100D01*
X76875965Y-88459669D01*
X76875964Y-88459671D01*
X76776098Y-88673835D01*
X76776094Y-88673844D01*
X76714938Y-88902086D01*
X76714936Y-88902096D01*
X76694341Y-89137499D01*
X76694341Y-89137500D01*
X76714936Y-89372903D01*
X76714938Y-89372913D01*
X76776094Y-89601155D01*
X76776096Y-89601159D01*
X76776097Y-89601163D01*
X76869037Y-89800473D01*
X76875965Y-89815330D01*
X76875967Y-89815334D01*
X77011501Y-90008895D01*
X77011506Y-90008902D01*
X77178597Y-90175993D01*
X77178603Y-90175998D01*
X77364158Y-90305925D01*
X77407783Y-90360502D01*
X77414977Y-90430000D01*
X77383454Y-90492355D01*
X77364158Y-90509075D01*
X77178597Y-90639005D01*
X77011505Y-90806097D01*
X76875965Y-90999669D01*
X76875964Y-90999671D01*
X76776098Y-91213835D01*
X76776094Y-91213844D01*
X76714938Y-91442086D01*
X76714936Y-91442096D01*
X76694341Y-91677499D01*
X76694341Y-91677500D01*
X76714936Y-91912903D01*
X76714938Y-91912913D01*
X76776094Y-92141155D01*
X76776096Y-92141159D01*
X76776097Y-92141163D01*
X76852459Y-92304922D01*
X76875965Y-92355330D01*
X76875967Y-92355334D01*
X77011501Y-92548895D01*
X77011506Y-92548902D01*
X77178597Y-92715993D01*
X77178603Y-92715998D01*
X77364158Y-92845925D01*
X77407783Y-92900502D01*
X77414977Y-92970000D01*
X77383454Y-93032355D01*
X77364158Y-93049075D01*
X77178597Y-93179005D01*
X77011505Y-93346097D01*
X76875965Y-93539669D01*
X76875964Y-93539671D01*
X76776098Y-93753835D01*
X76776094Y-93753844D01*
X76714938Y-93982086D01*
X76714936Y-93982096D01*
X76694341Y-94217499D01*
X76694341Y-94217500D01*
X76714936Y-94452903D01*
X76714938Y-94452913D01*
X76776094Y-94681155D01*
X76776096Y-94681159D01*
X76776097Y-94681163D01*
X76869739Y-94881979D01*
X76875965Y-94895330D01*
X76875967Y-94895334D01*
X76973493Y-95034614D01*
X77011505Y-95088901D01*
X77178599Y-95255995D01*
X77275384Y-95323765D01*
X77372165Y-95391532D01*
X77372167Y-95391533D01*
X77372170Y-95391535D01*
X77586337Y-95491403D01*
X77814592Y-95552563D01*
X78002918Y-95569039D01*
X78049999Y-95573159D01*
X78050000Y-95573159D01*
X78050001Y-95573159D01*
X78089234Y-95569726D01*
X78285408Y-95552563D01*
X78513663Y-95491403D01*
X78727830Y-95391535D01*
X78921401Y-95255995D01*
X79088495Y-95088901D01*
X79224035Y-94895330D01*
X79226707Y-94889597D01*
X79272878Y-94837158D01*
X79339091Y-94818000D01*
X79589903Y-94818000D01*
X79656942Y-94837685D01*
X79677584Y-94854319D01*
X81703181Y-96879917D01*
X81736666Y-96941240D01*
X81739500Y-96967597D01*
X81739501Y-97072999D01*
X81719817Y-97140038D01*
X81667014Y-97185794D01*
X81615501Y-97197000D01*
X79524499Y-97197000D01*
X79457460Y-97177315D01*
X79411705Y-97124511D01*
X79400499Y-97073000D01*
X79400499Y-96899629D01*
X79400498Y-96899623D01*
X79400497Y-96899616D01*
X79394091Y-96840017D01*
X79389085Y-96826596D01*
X79343797Y-96705171D01*
X79343793Y-96705164D01*
X79257547Y-96589955D01*
X79257544Y-96589952D01*
X79142335Y-96503706D01*
X79142328Y-96503702D01*
X79007482Y-96453408D01*
X79007483Y-96453408D01*
X78947883Y-96447001D01*
X78947881Y-96447000D01*
X78947873Y-96447000D01*
X78947864Y-96447000D01*
X77152129Y-96447000D01*
X77152123Y-96447001D01*
X77092516Y-96453408D01*
X76957671Y-96503702D01*
X76957664Y-96503706D01*
X76842455Y-96589952D01*
X76842452Y-96589955D01*
X76756206Y-96705164D01*
X76756202Y-96705171D01*
X76705908Y-96840017D01*
X76701619Y-96879917D01*
X76699501Y-96899623D01*
X76699500Y-96899635D01*
X76699500Y-98695370D01*
X76699501Y-98695376D01*
X76705908Y-98754983D01*
X76756202Y-98889828D01*
X76756206Y-98889835D01*
X76842452Y-99005044D01*
X76842455Y-99005047D01*
X76957664Y-99091293D01*
X76957671Y-99091297D01*
X77089081Y-99140310D01*
X77145015Y-99182181D01*
X77169432Y-99247645D01*
X77154580Y-99315918D01*
X77133430Y-99344173D01*
X77011503Y-99466100D01*
X76875965Y-99659669D01*
X76875964Y-99659671D01*
X76776098Y-99873835D01*
X76776094Y-99873844D01*
X76714938Y-100102086D01*
X76714936Y-100102096D01*
X76694341Y-100337499D01*
X76694341Y-100337500D01*
X76714936Y-100572903D01*
X76714938Y-100572913D01*
X76776094Y-100801155D01*
X76776096Y-100801159D01*
X76776097Y-100801163D01*
X76829756Y-100916235D01*
X76875965Y-101015330D01*
X76875967Y-101015334D01*
X76981630Y-101166235D01*
X76994570Y-101184716D01*
X77011501Y-101208895D01*
X77011506Y-101208902D01*
X77178597Y-101375993D01*
X77178603Y-101375998D01*
X77364158Y-101505925D01*
X77407783Y-101560502D01*
X77414977Y-101630000D01*
X77383454Y-101692355D01*
X77364158Y-101709075D01*
X77178597Y-101839005D01*
X77011505Y-102006097D01*
X76875965Y-102199669D01*
X76875964Y-102199671D01*
X76776098Y-102413835D01*
X76776094Y-102413844D01*
X76714938Y-102642086D01*
X76714936Y-102642096D01*
X76694341Y-102877499D01*
X76694341Y-102877500D01*
X76714936Y-103112903D01*
X76714938Y-103112913D01*
X76776094Y-103341155D01*
X76776096Y-103341159D01*
X76776097Y-103341163D01*
X76794750Y-103381164D01*
X76875965Y-103555330D01*
X76875967Y-103555334D01*
X77011501Y-103748895D01*
X77011506Y-103748902D01*
X77178597Y-103915993D01*
X77178603Y-103915998D01*
X77364158Y-104045925D01*
X77407783Y-104100502D01*
X77414977Y-104170000D01*
X77383454Y-104232355D01*
X77364158Y-104249075D01*
X77178597Y-104379005D01*
X77011505Y-104546097D01*
X76875965Y-104739669D01*
X76875964Y-104739671D01*
X76776098Y-104953835D01*
X76776094Y-104953844D01*
X76714938Y-105182086D01*
X76714936Y-105182096D01*
X76694341Y-105417499D01*
X76694341Y-105417500D01*
X76714936Y-105652903D01*
X76714938Y-105652913D01*
X76776094Y-105881155D01*
X76776096Y-105881159D01*
X76776097Y-105881163D01*
X76855877Y-106052252D01*
X76875965Y-106095330D01*
X76875967Y-106095334D01*
X76974024Y-106235373D01*
X77011505Y-106288901D01*
X77178599Y-106455995D01*
X77257297Y-106511100D01*
X77372165Y-106591532D01*
X77372167Y-106591533D01*
X77372170Y-106591535D01*
X77586337Y-106691403D01*
X77586343Y-106691404D01*
X77586344Y-106691405D01*
X77641285Y-106706126D01*
X77814592Y-106752563D01*
X78002918Y-106769039D01*
X78049999Y-106773159D01*
X78050000Y-106773159D01*
X78050001Y-106773159D01*
X78089234Y-106769726D01*
X78285408Y-106752563D01*
X78513663Y-106691403D01*
X78727830Y-106591535D01*
X78921401Y-106455995D01*
X79088495Y-106288901D01*
X79224035Y-106095330D01*
X79323903Y-105881163D01*
X79385063Y-105652908D01*
X79405659Y-105417500D01*
X79385063Y-105182092D01*
X79350671Y-105053739D01*
X79352334Y-104983893D01*
X79382763Y-104933970D01*
X81979235Y-102337500D01*
X85770069Y-102337500D01*
X85772832Y-102372622D01*
X85772833Y-102372628D01*
X85817592Y-102526688D01*
X85817593Y-102526691D01*
X85899261Y-102664785D01*
X85899268Y-102664794D01*
X86012705Y-102778231D01*
X86012714Y-102778238D01*
X86150805Y-102859904D01*
X86290000Y-102900344D01*
X86290000Y-102337500D01*
X85770069Y-102337500D01*
X81979235Y-102337500D01*
X82622417Y-101694318D01*
X82683740Y-101660833D01*
X82710098Y-101657999D01*
X82729168Y-101657999D01*
X82729180Y-101657999D01*
X82765204Y-101655165D01*
X82919393Y-101610369D01*
X82976882Y-101576369D01*
X83044602Y-101559188D01*
X83103117Y-101576369D01*
X83160607Y-101610369D01*
X83160610Y-101610369D01*
X83160612Y-101610371D01*
X83314791Y-101655164D01*
X83314794Y-101655164D01*
X83314796Y-101655165D01*
X83350819Y-101658000D01*
X83749180Y-101657999D01*
X83785204Y-101655165D01*
X83939393Y-101610369D01*
X84077598Y-101528635D01*
X84191135Y-101415098D01*
X84272869Y-101276893D01*
X84317665Y-101122704D01*
X84320500Y-101086681D01*
X84320499Y-100967595D01*
X84340183Y-100900557D01*
X84356808Y-100879925D01*
X84687418Y-100549317D01*
X84748740Y-100515834D01*
X84775098Y-100513000D01*
X85673743Y-100513000D01*
X85740782Y-100532685D01*
X85749250Y-100538640D01*
X85751204Y-100540140D01*
X85792395Y-100596576D01*
X85796535Y-100666323D01*
X85762310Y-100727236D01*
X85700586Y-100759976D01*
X85675697Y-100762500D01*
X85457990Y-100762500D01*
X85457988Y-100762501D01*
X85465442Y-100819127D01*
X85465444Y-100819133D01*
X85525899Y-100965085D01*
X85622075Y-101090424D01*
X85747413Y-101186600D01*
X85893365Y-101247054D01*
X85898100Y-101248323D01*
X85957762Y-101284685D01*
X85988294Y-101347530D01*
X85980003Y-101416906D01*
X85953694Y-101455780D01*
X85899265Y-101510209D01*
X85899261Y-101510214D01*
X85817593Y-101648308D01*
X85817592Y-101648311D01*
X85772833Y-101802371D01*
X85772832Y-101802377D01*
X85770069Y-101837500D01*
X86290000Y-101837500D01*
X86290000Y-101348500D01*
X86309685Y-101281461D01*
X86362489Y-101235706D01*
X86414000Y-101224500D01*
X86487500Y-101224500D01*
X86487500Y-100736999D01*
X86507185Y-100669960D01*
X86559989Y-100624205D01*
X86611497Y-100612999D01*
X86763501Y-100612999D01*
X86830539Y-100632684D01*
X86876294Y-100685488D01*
X86887500Y-100736999D01*
X86887500Y-101181500D01*
X86867815Y-101248539D01*
X86815011Y-101294294D01*
X86797367Y-101298132D01*
X86790000Y-101305500D01*
X86790000Y-101827091D01*
X86789618Y-101836816D01*
X86789500Y-101838303D01*
X86789500Y-102336670D01*
X86789501Y-102336682D01*
X86789618Y-102338163D01*
X86790000Y-102347893D01*
X86790000Y-102900344D01*
X86929194Y-102859905D01*
X86929196Y-102859904D01*
X86986386Y-102826082D01*
X87054109Y-102808898D01*
X87112629Y-102826081D01*
X87170607Y-102860369D01*
X87211268Y-102872182D01*
X87324791Y-102905164D01*
X87324794Y-102905164D01*
X87324796Y-102905165D01*
X87360819Y-102908000D01*
X87759180Y-102907999D01*
X87795204Y-102905165D01*
X87949393Y-102860369D01*
X87987370Y-102837909D01*
X88055092Y-102820726D01*
X88113612Y-102837909D01*
X88150805Y-102859904D01*
X88290000Y-102900344D01*
X88290000Y-102519993D01*
X88294923Y-102485401D01*
X88327665Y-102372704D01*
X88330500Y-102336681D01*
X88330499Y-101838320D01*
X88327665Y-101802296D01*
X88327663Y-101802290D01*
X88327517Y-101801488D01*
X88325500Y-101779212D01*
X88325500Y-97212596D01*
X88345185Y-97145557D01*
X88361815Y-97124919D01*
X88747819Y-96738914D01*
X88809142Y-96705430D01*
X88878834Y-96710414D01*
X88934767Y-96752286D01*
X88959184Y-96817750D01*
X88959500Y-96826596D01*
X88959500Y-101158745D01*
X88939815Y-101225784D01*
X88887011Y-101271539D01*
X88817853Y-101281483D01*
X88800905Y-101277822D01*
X88790000Y-101274654D01*
X88790000Y-101827091D01*
X88789618Y-101836816D01*
X88789500Y-101838303D01*
X88789500Y-102336670D01*
X88789501Y-102336682D01*
X88789618Y-102338163D01*
X88790000Y-102347893D01*
X88790000Y-102900344D01*
X88929194Y-102859905D01*
X88929196Y-102859904D01*
X88986386Y-102826082D01*
X89054109Y-102808898D01*
X89112629Y-102826081D01*
X89170607Y-102860369D01*
X89211268Y-102872182D01*
X89324791Y-102905164D01*
X89324794Y-102905164D01*
X89324796Y-102905165D01*
X89360819Y-102908000D01*
X89759180Y-102907999D01*
X89795204Y-102905165D01*
X89949393Y-102860369D01*
X90087598Y-102778635D01*
X90201135Y-102665098D01*
X90282869Y-102526893D01*
X90327665Y-102372704D01*
X90330500Y-102336681D01*
X90330499Y-101838320D01*
X90327665Y-101802296D01*
X90282869Y-101648107D01*
X90201135Y-101509902D01*
X90201133Y-101509900D01*
X90201130Y-101509896D01*
X90196819Y-101505585D01*
X90163334Y-101444262D01*
X90160500Y-101417904D01*
X90160500Y-96669912D01*
X90180185Y-96602873D01*
X90187555Y-96592597D01*
X90189810Y-96589767D01*
X90189816Y-96589762D01*
X90285789Y-96437022D01*
X90345368Y-96266755D01*
X90358313Y-96151863D01*
X90365565Y-96087503D01*
X90365565Y-96087000D01*
X90365657Y-96086686D01*
X90366345Y-96080581D01*
X90367414Y-96080701D01*
X90385250Y-96019961D01*
X90438054Y-95974206D01*
X90489565Y-95963000D01*
X91050501Y-95963000D01*
X91117540Y-95982685D01*
X91163295Y-96035489D01*
X91174501Y-96087000D01*
X91174501Y-96151863D01*
X91189953Y-96269253D01*
X91189957Y-96269265D01*
X91198566Y-96290050D01*
X91206033Y-96359519D01*
X91198566Y-96384950D01*
X91189957Y-96405734D01*
X91189955Y-96405739D01*
X91174500Y-96523138D01*
X91174500Y-96801863D01*
X91189953Y-96919253D01*
X91189957Y-96919265D01*
X91198566Y-96940050D01*
X91206033Y-97009519D01*
X91198566Y-97034950D01*
X91189957Y-97055734D01*
X91189955Y-97055739D01*
X91174500Y-97173138D01*
X91174500Y-97451863D01*
X91189953Y-97569253D01*
X91189957Y-97569265D01*
X91198566Y-97590050D01*
X91206033Y-97659519D01*
X91198566Y-97684950D01*
X91189957Y-97705734D01*
X91189955Y-97705739D01*
X91174500Y-97823138D01*
X91174500Y-98101863D01*
X91189953Y-98219253D01*
X91189957Y-98219265D01*
X91198566Y-98240050D01*
X91206033Y-98309519D01*
X91198566Y-98334950D01*
X91189957Y-98355734D01*
X91189955Y-98355739D01*
X91174500Y-98473138D01*
X91174500Y-98751863D01*
X91189953Y-98869253D01*
X91189957Y-98869265D01*
X91198566Y-98890050D01*
X91206033Y-98959519D01*
X91198566Y-98984950D01*
X91189957Y-99005734D01*
X91189955Y-99005739D01*
X91174500Y-99123138D01*
X91174500Y-99401863D01*
X91189953Y-99519253D01*
X91189957Y-99519265D01*
X91198566Y-99540050D01*
X91206033Y-99609519D01*
X91198566Y-99634950D01*
X91189957Y-99655734D01*
X91189955Y-99655739D01*
X91174500Y-99773138D01*
X91174500Y-100051863D01*
X91189953Y-100169253D01*
X91189957Y-100169265D01*
X91198566Y-100190050D01*
X91206033Y-100259519D01*
X91198566Y-100284950D01*
X91189957Y-100305734D01*
X91189955Y-100305739D01*
X91174500Y-100423138D01*
X91174500Y-100701863D01*
X91189953Y-100819253D01*
X91189956Y-100819262D01*
X91230123Y-100916235D01*
X91250464Y-100965341D01*
X91346718Y-101090782D01*
X91472159Y-101187036D01*
X91618238Y-101247544D01*
X91735639Y-101263000D01*
X93089360Y-101262999D01*
X93089363Y-101262999D01*
X93206753Y-101247546D01*
X93206757Y-101247544D01*
X93206762Y-101247544D01*
X93352841Y-101187036D01*
X93352845Y-101187032D01*
X93359876Y-101182974D01*
X93360882Y-101184716D01*
X93415932Y-101163431D01*
X93426257Y-101163000D01*
X94405501Y-101163000D01*
X94472540Y-101182685D01*
X94518295Y-101235489D01*
X94529501Y-101287000D01*
X94529501Y-101336692D01*
X94532335Y-101372705D01*
X94577129Y-101526888D01*
X94577131Y-101526893D01*
X94658863Y-101665095D01*
X94658869Y-101665103D01*
X94772396Y-101778630D01*
X94772400Y-101778633D01*
X94772402Y-101778635D01*
X94910607Y-101860369D01*
X94951268Y-101872182D01*
X95064791Y-101905164D01*
X95064794Y-101905164D01*
X95064796Y-101905165D01*
X95100819Y-101908000D01*
X95499180Y-101907999D01*
X95535204Y-101905165D01*
X95560905Y-101897698D01*
X95630773Y-101897897D01*
X95689444Y-101935838D01*
X95718288Y-101999476D01*
X95719500Y-102016774D01*
X95719500Y-103966040D01*
X95699815Y-104033079D01*
X95647011Y-104078834D01*
X95577853Y-104088778D01*
X95521189Y-104065307D01*
X95492331Y-104043704D01*
X95492328Y-104043702D01*
X95357482Y-103993408D01*
X95357483Y-103993408D01*
X95297883Y-103987001D01*
X95297881Y-103987000D01*
X95297873Y-103987000D01*
X95297864Y-103987000D01*
X93502129Y-103987000D01*
X93502123Y-103987001D01*
X93442516Y-103993408D01*
X93307671Y-104043702D01*
X93307664Y-104043706D01*
X93192455Y-104129952D01*
X93192452Y-104129955D01*
X93106206Y-104245164D01*
X93106202Y-104245171D01*
X93056997Y-104377098D01*
X93015126Y-104433032D01*
X92949661Y-104457449D01*
X92881388Y-104442597D01*
X92853134Y-104421446D01*
X92731082Y-104299394D01*
X92537578Y-104163899D01*
X92323492Y-104064070D01*
X92323486Y-104064067D01*
X92110000Y-104006864D01*
X92110000Y-104904488D01*
X92052993Y-104871575D01*
X91925826Y-104837500D01*
X91794174Y-104837500D01*
X91667007Y-104871575D01*
X91610000Y-104904488D01*
X91610000Y-104006864D01*
X91609999Y-104006864D01*
X91396513Y-104064067D01*
X91396507Y-104064070D01*
X91182422Y-104163899D01*
X91182420Y-104163900D01*
X90988926Y-104299386D01*
X90988920Y-104299391D01*
X90821891Y-104466420D01*
X90821890Y-104466422D01*
X90691880Y-104652095D01*
X90637303Y-104695719D01*
X90567804Y-104702912D01*
X90505450Y-104671390D01*
X90488730Y-104652094D01*
X90358494Y-104466097D01*
X90191402Y-104299006D01*
X90191395Y-104299001D01*
X89997834Y-104163467D01*
X89997830Y-104163465D01*
X89963593Y-104147500D01*
X89783663Y-104063597D01*
X89783659Y-104063596D01*
X89783655Y-104063594D01*
X89555413Y-104002438D01*
X89555403Y-104002436D01*
X89320001Y-103981841D01*
X89319999Y-103981841D01*
X89084596Y-104002436D01*
X89084586Y-104002438D01*
X88856344Y-104063594D01*
X88856335Y-104063598D01*
X88642171Y-104163464D01*
X88642169Y-104163465D01*
X88448597Y-104299005D01*
X88281505Y-104466097D01*
X88151575Y-104651658D01*
X88096998Y-104695283D01*
X88027500Y-104702477D01*
X87965145Y-104670954D01*
X87948425Y-104651658D01*
X87818494Y-104466097D01*
X87651402Y-104299006D01*
X87651395Y-104299001D01*
X87457834Y-104163467D01*
X87457830Y-104163465D01*
X87423593Y-104147500D01*
X87243663Y-104063597D01*
X87243659Y-104063596D01*
X87243655Y-104063594D01*
X87015413Y-104002438D01*
X87015403Y-104002436D01*
X86780001Y-103981841D01*
X86779999Y-103981841D01*
X86544596Y-104002436D01*
X86544586Y-104002438D01*
X86316344Y-104063594D01*
X86316335Y-104063598D01*
X86102171Y-104163464D01*
X86102169Y-104163465D01*
X85908597Y-104299005D01*
X85741505Y-104466097D01*
X85611575Y-104651658D01*
X85556998Y-104695283D01*
X85487500Y-104702477D01*
X85425145Y-104670954D01*
X85408425Y-104651658D01*
X85278494Y-104466097D01*
X85111402Y-104299006D01*
X85111395Y-104299001D01*
X84917834Y-104163467D01*
X84917830Y-104163465D01*
X84883593Y-104147500D01*
X84703663Y-104063597D01*
X84703659Y-104063596D01*
X84703655Y-104063594D01*
X84475413Y-104002438D01*
X84475403Y-104002436D01*
X84240001Y-103981841D01*
X84239999Y-103981841D01*
X84004596Y-104002436D01*
X84004586Y-104002438D01*
X83776344Y-104063594D01*
X83776335Y-104063598D01*
X83562171Y-104163464D01*
X83562169Y-104163465D01*
X83368597Y-104299005D01*
X83201505Y-104466097D01*
X83071575Y-104651658D01*
X83016998Y-104695283D01*
X82947500Y-104702477D01*
X82885145Y-104670954D01*
X82868425Y-104651658D01*
X82738494Y-104466097D01*
X82571402Y-104299006D01*
X82571395Y-104299001D01*
X82377834Y-104163467D01*
X82377830Y-104163465D01*
X82343593Y-104147500D01*
X82163663Y-104063597D01*
X82163659Y-104063596D01*
X82163655Y-104063594D01*
X81935413Y-104002438D01*
X81935403Y-104002436D01*
X81700001Y-103981841D01*
X81699999Y-103981841D01*
X81464596Y-104002436D01*
X81464586Y-104002438D01*
X81236344Y-104063594D01*
X81236335Y-104063598D01*
X81022171Y-104163464D01*
X81022169Y-104163465D01*
X80828597Y-104299005D01*
X80661505Y-104466097D01*
X80525965Y-104659669D01*
X80525964Y-104659671D01*
X80426098Y-104873835D01*
X80426094Y-104873844D01*
X80364938Y-105102086D01*
X80364936Y-105102096D01*
X80344341Y-105337499D01*
X80344341Y-105337500D01*
X80364936Y-105572903D01*
X80364938Y-105572913D01*
X80426094Y-105801155D01*
X80426096Y-105801159D01*
X80426097Y-105801163D01*
X80520500Y-106003610D01*
X80525965Y-106015330D01*
X80525967Y-106015334D01*
X80634281Y-106170021D01*
X80661505Y-106208901D01*
X80828599Y-106375995D01*
X80925384Y-106443765D01*
X81022165Y-106511532D01*
X81022167Y-106511533D01*
X81022170Y-106511535D01*
X81236337Y-106611403D01*
X81464592Y-106672563D01*
X81641034Y-106688000D01*
X81699999Y-106693159D01*
X81700000Y-106693159D01*
X81700001Y-106693159D01*
X81758966Y-106688000D01*
X81935408Y-106672563D01*
X82163663Y-106611403D01*
X82377830Y-106511535D01*
X82571401Y-106375995D01*
X82738495Y-106208901D01*
X82868425Y-106023342D01*
X82923002Y-105979717D01*
X82992500Y-105972523D01*
X83054855Y-106004046D01*
X83071575Y-106023342D01*
X83201500Y-106208895D01*
X83201505Y-106208901D01*
X83368599Y-106375995D01*
X83465384Y-106443765D01*
X83562165Y-106511532D01*
X83562167Y-106511533D01*
X83562170Y-106511535D01*
X83776337Y-106611403D01*
X84004592Y-106672563D01*
X84181034Y-106688000D01*
X84239999Y-106693159D01*
X84240000Y-106693159D01*
X84240001Y-106693159D01*
X84298966Y-106688000D01*
X84475408Y-106672563D01*
X84703663Y-106611403D01*
X84917830Y-106511535D01*
X85111401Y-106375995D01*
X85278495Y-106208901D01*
X85408425Y-106023342D01*
X85463002Y-105979717D01*
X85532500Y-105972523D01*
X85594855Y-106004046D01*
X85611575Y-106023342D01*
X85741500Y-106208895D01*
X85741505Y-106208901D01*
X85908599Y-106375995D01*
X86005384Y-106443765D01*
X86102165Y-106511532D01*
X86102167Y-106511533D01*
X86102170Y-106511535D01*
X86316337Y-106611403D01*
X86544592Y-106672563D01*
X86721034Y-106688000D01*
X86779999Y-106693159D01*
X86780000Y-106693159D01*
X86780001Y-106693159D01*
X86838966Y-106688000D01*
X87015408Y-106672563D01*
X87243663Y-106611403D01*
X87457830Y-106511535D01*
X87651401Y-106375995D01*
X87818495Y-106208901D01*
X87948425Y-106023342D01*
X88003002Y-105979717D01*
X88072500Y-105972523D01*
X88134855Y-106004046D01*
X88151575Y-106023342D01*
X88281500Y-106208895D01*
X88281505Y-106208901D01*
X88448599Y-106375995D01*
X88545384Y-106443765D01*
X88642165Y-106511532D01*
X88642167Y-106511533D01*
X88642170Y-106511535D01*
X88856337Y-106611403D01*
X89084592Y-106672563D01*
X89261034Y-106688000D01*
X89319999Y-106693159D01*
X89320000Y-106693159D01*
X89320001Y-106693159D01*
X89378966Y-106688000D01*
X89555408Y-106672563D01*
X89783663Y-106611403D01*
X89997830Y-106511535D01*
X90191401Y-106375995D01*
X90358495Y-106208901D01*
X90488730Y-106022905D01*
X90543307Y-105979281D01*
X90612805Y-105972087D01*
X90675160Y-106003610D01*
X90691879Y-106022905D01*
X90821890Y-106208578D01*
X90988917Y-106375605D01*
X91182421Y-106511100D01*
X91396507Y-106610929D01*
X91396516Y-106610933D01*
X91610000Y-106668134D01*
X91610000Y-105770512D01*
X91667007Y-105803425D01*
X91794174Y-105837500D01*
X91925826Y-105837500D01*
X92052993Y-105803425D01*
X92110000Y-105770512D01*
X92110000Y-106668134D01*
X92323483Y-106610933D01*
X92323492Y-106610929D01*
X92537578Y-106511100D01*
X92731078Y-106375608D01*
X92853133Y-106253553D01*
X92914456Y-106220068D01*
X92984148Y-106225052D01*
X93040082Y-106266923D01*
X93056997Y-106297901D01*
X93106202Y-106429828D01*
X93106206Y-106429835D01*
X93192452Y-106545044D01*
X93192455Y-106545047D01*
X93307664Y-106631293D01*
X93307671Y-106631297D01*
X93442517Y-106681591D01*
X93442516Y-106681591D01*
X93449444Y-106682335D01*
X93502127Y-106688000D01*
X95297872Y-106687999D01*
X95357483Y-106681591D01*
X95492331Y-106631296D01*
X95607546Y-106545046D01*
X95693796Y-106429831D01*
X95699334Y-106414982D01*
X95721257Y-106356205D01*
X95763128Y-106300271D01*
X95828592Y-106275853D01*
X95896865Y-106290704D01*
X95925120Y-106311856D01*
X95958349Y-106345085D01*
X95958355Y-106345090D01*
X96565139Y-106951874D01*
X96565149Y-106951885D01*
X96681285Y-107068021D01*
X96746397Y-107105612D01*
X96794613Y-107156179D01*
X96807837Y-107224786D01*
X96781869Y-107289651D01*
X96724956Y-107330180D01*
X96684398Y-107337000D01*
X76424500Y-107337000D01*
X76357461Y-107317315D01*
X76311706Y-107264511D01*
X76300500Y-107213000D01*
X76300500Y-84527500D01*
X82487156Y-84527500D01*
X83050000Y-84527500D01*
X83550000Y-84527500D01*
X84112844Y-84527500D01*
X87487156Y-84527500D01*
X88050000Y-84527500D01*
X88550000Y-84527500D01*
X89112844Y-84527500D01*
X89072404Y-84388305D01*
X88990738Y-84250214D01*
X88990731Y-84250205D01*
X88877294Y-84136768D01*
X88877285Y-84136761D01*
X88739191Y-84055093D01*
X88739188Y-84055092D01*
X88585130Y-84010334D01*
X88550000Y-84007568D01*
X88550000Y-84527500D01*
X88050000Y-84527500D01*
X88050000Y-84007568D01*
X88049999Y-84007568D01*
X88014869Y-84010334D01*
X88014868Y-84010334D01*
X87860811Y-84055092D01*
X87860808Y-84055093D01*
X87722714Y-84136761D01*
X87722705Y-84136768D01*
X87609268Y-84250205D01*
X87609261Y-84250214D01*
X87527595Y-84388305D01*
X87487156Y-84527500D01*
X84112844Y-84527500D01*
X84109939Y-84517500D01*
X84987156Y-84517500D01*
X85550000Y-84517500D01*
X86050000Y-84517500D01*
X86612844Y-84517500D01*
X86572404Y-84378305D01*
X86490738Y-84240214D01*
X86490731Y-84240205D01*
X86377294Y-84126768D01*
X86377285Y-84126761D01*
X86239191Y-84045093D01*
X86239188Y-84045092D01*
X86085130Y-84000334D01*
X86050000Y-83997568D01*
X86050000Y-84517500D01*
X85550000Y-84517500D01*
X85550000Y-83997568D01*
X85549999Y-83997568D01*
X85514869Y-84000334D01*
X85514868Y-84000334D01*
X85360811Y-84045092D01*
X85360808Y-84045093D01*
X85222714Y-84126761D01*
X85222705Y-84126768D01*
X85109268Y-84240205D01*
X85109261Y-84240214D01*
X85027595Y-84378305D01*
X84987156Y-84517500D01*
X84109939Y-84517500D01*
X84072404Y-84388305D01*
X83990738Y-84250214D01*
X83990731Y-84250205D01*
X83877294Y-84136768D01*
X83877285Y-84136761D01*
X83739191Y-84055093D01*
X83739188Y-84055092D01*
X83585130Y-84010334D01*
X83550000Y-84007568D01*
X83550000Y-84527500D01*
X83050000Y-84527500D01*
X83050000Y-84007568D01*
X83049999Y-84007568D01*
X83014869Y-84010334D01*
X83014868Y-84010334D01*
X82860811Y-84055092D01*
X82860808Y-84055093D01*
X82722714Y-84136761D01*
X82722705Y-84136768D01*
X82609268Y-84250205D01*
X82609261Y-84250214D01*
X82527595Y-84388305D01*
X82487156Y-84527500D01*
X76300500Y-84527500D01*
X76300500Y-80212000D01*
X76320185Y-80144961D01*
X76372989Y-80099206D01*
X76424500Y-80088000D01*
X86400902Y-80088000D01*
X86467941Y-80107685D01*
G37*
%TD.AperFunction*%
%TA.AperFunction,Conductor*%
G36*
X97793570Y-99058499D02*
G01*
X97809327Y-99071827D01*
X97825000Y-99087500D01*
X98951000Y-99087500D01*
X99018039Y-99107185D01*
X99063794Y-99159989D01*
X99075000Y-99211500D01*
X99075000Y-100562499D01*
X99124972Y-100562499D01*
X99124986Y-100562498D01*
X99227697Y-100552005D01*
X99394119Y-100496858D01*
X99394124Y-100496856D01*
X99543345Y-100404815D01*
X99667318Y-100280842D01*
X99669165Y-100277848D01*
X99670969Y-100276224D01*
X99671798Y-100275177D01*
X99671976Y-100275318D01*
X99721110Y-100231121D01*
X99790073Y-100219896D01*
X99854156Y-100247736D01*
X99880243Y-100277841D01*
X99882288Y-100281156D01*
X99882289Y-100281157D01*
X99938181Y-100337049D01*
X99971666Y-100398372D01*
X99974500Y-100424730D01*
X99974500Y-102436977D01*
X99954815Y-102504016D01*
X99902011Y-102549771D01*
X99832853Y-102559715D01*
X99769297Y-102530690D01*
X99762819Y-102524658D01*
X99638345Y-102400184D01*
X99489124Y-102308143D01*
X99489119Y-102308141D01*
X99322697Y-102252994D01*
X99322690Y-102252993D01*
X99219986Y-102242500D01*
X98800000Y-102242500D01*
X98800000Y-103294790D01*
X98779661Y-103283048D01*
X98628333Y-103242500D01*
X98471667Y-103242500D01*
X98320339Y-103283048D01*
X98300000Y-103294790D01*
X98300000Y-102242500D01*
X97880028Y-102242500D01*
X97880012Y-102242501D01*
X97777302Y-102252994D01*
X97721347Y-102271536D01*
X97651518Y-102273938D01*
X97591477Y-102238206D01*
X97560284Y-102175686D01*
X97558343Y-102153830D01*
X97558343Y-100636288D01*
X97558343Y-100636286D01*
X97517420Y-100483558D01*
X97478737Y-100416557D01*
X97478737Y-100416556D01*
X97438367Y-100346633D01*
X97438364Y-100346629D01*
X97438363Y-100346627D01*
X97326559Y-100234823D01*
X97326558Y-100234822D01*
X97322228Y-100230492D01*
X97322217Y-100230482D01*
X97136818Y-100045083D01*
X97103333Y-99983760D01*
X97100499Y-99957402D01*
X97100499Y-99862486D01*
X97825001Y-99862486D01*
X97835494Y-99965197D01*
X97890641Y-100131619D01*
X97890643Y-100131624D01*
X97982684Y-100280845D01*
X98106654Y-100404815D01*
X98255875Y-100496856D01*
X98255880Y-100496858D01*
X98422302Y-100552005D01*
X98422309Y-100552006D01*
X98525019Y-100562499D01*
X98574999Y-100562498D01*
X98575000Y-100562498D01*
X98575000Y-99587500D01*
X97825001Y-99587500D01*
X97825001Y-99862486D01*
X97100499Y-99862486D01*
X97100499Y-99838331D01*
X97100498Y-99838306D01*
X97097665Y-99802299D01*
X97097665Y-99802296D01*
X97052869Y-99648107D01*
X97052866Y-99648102D01*
X97049772Y-99640951D01*
X97051693Y-99640119D01*
X97037172Y-99582909D01*
X97051321Y-99534719D01*
X97049772Y-99534049D01*
X97052864Y-99526900D01*
X97052869Y-99526893D01*
X97097665Y-99372704D01*
X97100500Y-99336681D01*
X97100500Y-99262000D01*
X97120185Y-99194961D01*
X97172989Y-99149206D01*
X97224500Y-99138000D01*
X97263331Y-99138000D01*
X97263347Y-99138001D01*
X97270943Y-99138001D01*
X97429054Y-99138001D01*
X97429057Y-99138001D01*
X97581785Y-99097077D01*
X97631904Y-99068139D01*
X97659647Y-99052121D01*
X97727543Y-99035648D01*
X97793570Y-99058499D01*
G37*
%TD.AperFunction*%
%TA.AperFunction,Conductor*%
G36*
X98215638Y-83857685D02*
G01*
X98236280Y-83874319D01*
X98428033Y-84066072D01*
X98461518Y-84127395D01*
X98456534Y-84197087D01*
X98414662Y-84253020D01*
X98405456Y-84259287D01*
X98396963Y-84264526D01*
X98396955Y-84264532D01*
X98387324Y-84274163D01*
X98326000Y-84307646D01*
X98256308Y-84302659D01*
X98211965Y-84274160D01*
X98202732Y-84264927D01*
X98202728Y-84264924D01*
X98058492Y-84175957D01*
X98058481Y-84175952D01*
X97897606Y-84122644D01*
X97798322Y-84112500D01*
X97775000Y-84112500D01*
X97775000Y-85213500D01*
X97755315Y-85280539D01*
X97702511Y-85326294D01*
X97651000Y-85337500D01*
X97399000Y-85337500D01*
X97331961Y-85317815D01*
X97286206Y-85265011D01*
X97275000Y-85213500D01*
X97275000Y-84112499D01*
X97251693Y-84112500D01*
X97251674Y-84112501D01*
X97152392Y-84122644D01*
X96991518Y-84175952D01*
X96991507Y-84175957D01*
X96847271Y-84264924D01*
X96741737Y-84370458D01*
X96680414Y-84403942D01*
X96610722Y-84398958D01*
X96554789Y-84357086D01*
X96547324Y-84345897D01*
X96490737Y-84250213D01*
X96490731Y-84250205D01*
X96377294Y-84136768D01*
X96377285Y-84136761D01*
X96262253Y-84068732D01*
X96214570Y-84017663D01*
X96202066Y-83948921D01*
X96228711Y-83884332D01*
X96286047Y-83844402D01*
X96325374Y-83838000D01*
X98148599Y-83838000D01*
X98215638Y-83857685D01*
G37*
%TD.AperFunction*%
%TA.AperFunction,Conductor*%
G36*
X90867989Y-80957685D02*
G01*
X90913744Y-81010489D01*
X90923688Y-81079647D01*
X90894663Y-81143203D01*
X90888631Y-81149681D01*
X90821891Y-81216420D01*
X90821890Y-81216422D01*
X90691880Y-81402095D01*
X90637303Y-81445719D01*
X90567804Y-81452912D01*
X90505450Y-81421390D01*
X90488730Y-81402094D01*
X90358494Y-81216097D01*
X90292078Y-81149681D01*
X90258593Y-81088358D01*
X90263577Y-81018666D01*
X90305449Y-80962733D01*
X90370913Y-80938316D01*
X90379759Y-80938000D01*
X90800950Y-80938000D01*
X90867989Y-80957685D01*
G37*
%TD.AperFunction*%
%TD*%
M02*
