%TF.GenerationSoftware,KiCad,Pcbnew,8.0.3-8.0.3-0~ubuntu22.04.1*%
%TF.CreationDate,2024-06-23T17:20:49+09:00*%
%TF.ProjectId,PCA9685_ver1,50434139-3638-4355-9f76-6572312e6b69,rev?*%
%TF.SameCoordinates,Original*%
%TF.FileFunction,Copper,L2,Bot*%
%TF.FilePolarity,Positive*%
%FSLAX46Y46*%
G04 Gerber Fmt 4.6, Leading zero omitted, Abs format (unit mm)*
G04 Created by KiCad (PCBNEW 8.0.3-8.0.3-0~ubuntu22.04.1) date 2024-06-23 17:20:49*
%MOMM*%
%LPD*%
G01*
G04 APERTURE LIST*
G04 Aperture macros list*
%AMRoundRect*
0 Rectangle with rounded corners*
0 $1 Rounding radius*
0 $2 $3 $4 $5 $6 $7 $8 $9 X,Y pos of 4 corners*
0 Add a 4 corners polygon primitive as box body*
4,1,4,$2,$3,$4,$5,$6,$7,$8,$9,$2,$3,0*
0 Add four circle primitives for the rounded corners*
1,1,$1+$1,$2,$3*
1,1,$1+$1,$4,$5*
1,1,$1+$1,$6,$7*
1,1,$1+$1,$8,$9*
0 Add four rect primitives between the rounded corners*
20,1,$1+$1,$2,$3,$4,$5,0*
20,1,$1+$1,$4,$5,$6,$7,0*
20,1,$1+$1,$6,$7,$8,$9,0*
20,1,$1+$1,$8,$9,$2,$3,0*%
G04 Aperture macros list end*
%TA.AperFunction,ComponentPad*%
%ADD10R,1.700000X1.700000*%
%TD*%
%TA.AperFunction,ComponentPad*%
%ADD11O,1.700000X1.700000*%
%TD*%
%TA.AperFunction,ComponentPad*%
%ADD12O,1.740000X2.190000*%
%TD*%
%TA.AperFunction,ComponentPad*%
%ADD13RoundRect,0.250000X-0.620000X-0.845000X0.620000X-0.845000X0.620000X0.845000X-0.620000X0.845000X0*%
%TD*%
%TA.AperFunction,ViaPad*%
%ADD14C,0.600000*%
%TD*%
%TA.AperFunction,Conductor*%
%ADD15C,0.200000*%
%TD*%
%TA.AperFunction,Conductor*%
%ADD16C,0.500000*%
%TD*%
G04 APERTURE END LIST*
D10*
%TO.P,J8,1,Pin_1*%
%TO.N,Net-(J8-Pin_1)*%
X104775000Y-94257500D03*
D11*
%TO.P,J8,2,Pin_2*%
%TO.N,Net-(J8-Pin_2)*%
X104775000Y-91717500D03*
%TO.P,J8,3,Pin_3*%
%TO.N,Net-(J8-Pin_3)*%
X104775000Y-89177500D03*
%TO.P,J8,4,Pin_4*%
%TO.N,Net-(J8-Pin_4)*%
X104775000Y-86637500D03*
%TD*%
%TO.P,J7,4,Pin_4*%
%TO.N,Net-(J7-Pin_4)*%
X104775000Y-97837500D03*
%TO.P,J7,3,Pin_3*%
%TO.N,Net-(J7-Pin_3)*%
X104775000Y-100377500D03*
%TO.P,J7,2,Pin_2*%
%TO.N,Net-(J7-Pin_2)*%
X104775000Y-102917500D03*
D10*
%TO.P,J7,1,Pin_1*%
%TO.N,Net-(J7-Pin_1)*%
X104775000Y-105457500D03*
%TD*%
%TO.P,J6,1,Pin_1*%
%TO.N,Net-(J6-Pin_1)*%
X78050000Y-97797500D03*
D11*
%TO.P,J6,2,Pin_2*%
%TO.N,Net-(J6-Pin_2)*%
X78050000Y-100337500D03*
%TO.P,J6,3,Pin_3*%
%TO.N,Net-(J6-Pin_3)*%
X78050000Y-102877500D03*
%TO.P,J6,4,Pin_4*%
%TO.N,Net-(J6-Pin_4)*%
X78050000Y-105417500D03*
%TD*%
D12*
%TO.P,J4,2,Pin_2*%
%TO.N,+5V*%
X101090000Y-103837500D03*
D13*
%TO.P,J4,1,Pin_1*%
%TO.N,GND*%
X98550000Y-103837500D03*
%TD*%
D10*
%TO.P,J3,1,Pin_1*%
%TO.N,+3V3*%
X94400000Y-82087500D03*
D11*
%TO.P,J3,2,Pin_2*%
%TO.N,GND*%
X91860000Y-82087500D03*
%TO.P,J3,3,Pin_3*%
%TO.N,SDA*%
X89320000Y-82087500D03*
%TO.P,J3,4,Pin_4*%
%TO.N,SCL*%
X86780000Y-82087500D03*
%TO.P,J3,5,Pin_5*%
%TO.N,OE*%
X84240000Y-82087500D03*
%TO.P,J3,6,Pin_6*%
%TO.N,+5V*%
X81700000Y-82087500D03*
%TD*%
D10*
%TO.P,J2,1,Pin_1*%
%TO.N,+3V3*%
X94400000Y-105337500D03*
D11*
%TO.P,J2,2,Pin_2*%
%TO.N,GND*%
X91860000Y-105337500D03*
%TO.P,J2,3,Pin_3*%
%TO.N,SDA*%
X89320000Y-105337500D03*
%TO.P,J2,4,Pin_4*%
%TO.N,SCL*%
X86780000Y-105337500D03*
%TO.P,J2,5,Pin_5*%
%TO.N,OE*%
X84240000Y-105337500D03*
%TO.P,J2,6,Pin_6*%
%TO.N,+5V*%
X81700000Y-105337500D03*
%TD*%
%TO.P,J1,4,Pin_4*%
%TO.N,Net-(J1-Pin_4)*%
X78050000Y-94217500D03*
%TO.P,J1,3,Pin_3*%
%TO.N,Net-(J1-Pin_3)*%
X78050000Y-91677500D03*
%TO.P,J1,2,Pin_2*%
%TO.N,Net-(J1-Pin_2)*%
X78050000Y-89137500D03*
D10*
%TO.P,J1,1,Pin_1*%
%TO.N,Net-(J1-Pin_1)*%
X78050000Y-86597500D03*
%TD*%
D14*
%TO.N,+3V3*%
X97050000Y-86087500D03*
%TO.N,GND*%
X99275000Y-96587500D03*
%TO.N,+3V3*%
X90800000Y-92837500D03*
X94550000Y-85587500D03*
X92050000Y-85587500D03*
X89550000Y-85587500D03*
X87050000Y-85587500D03*
X84550000Y-85587500D03*
%TO.N,Net-(U1-EXTCLK)*%
X89560000Y-96087500D03*
X91050000Y-94112500D03*
%TD*%
D15*
%TO.N,+3V3*%
X97050000Y-86087500D02*
X96550000Y-85587500D01*
X96550000Y-85587500D02*
X94550000Y-85587500D01*
D16*
%TO.N,+5V*%
X81700000Y-105337500D02*
X83400000Y-107037500D01*
X83400000Y-107037500D02*
X97890000Y-107037500D01*
X97890000Y-107037500D02*
X101090000Y-103837500D01*
D15*
%TO.N,GND*%
X99275000Y-96587500D02*
X99300000Y-96562500D01*
X99300000Y-96562500D02*
X99300000Y-84687500D01*
X99300000Y-84687500D02*
X95550000Y-80937500D01*
X95550000Y-80937500D02*
X93010000Y-80937500D01*
X93010000Y-80937500D02*
X91860000Y-82087500D01*
X91860000Y-105337500D02*
X93010000Y-106487500D01*
X93010000Y-106487500D02*
X95900000Y-106487500D01*
X95900000Y-106487500D02*
X98550000Y-103837500D01*
%TO.N,+3V3*%
X90800000Y-92837500D02*
X94400000Y-96437500D01*
X94400000Y-96437500D02*
X94400000Y-105337500D01*
%TO.N,SDA*%
X89320000Y-82087500D02*
X86420000Y-84987500D01*
X86420000Y-84987500D02*
X84200000Y-84987500D01*
X84200000Y-84987500D02*
X83950000Y-85237500D01*
X83950000Y-85237500D02*
X83950000Y-99967500D01*
X83950000Y-99967500D02*
X89320000Y-105337500D01*
%TO.N,SCL*%
X86780000Y-82087500D02*
X86290000Y-82087500D01*
X82950000Y-101507500D02*
X86780000Y-105337500D01*
X86290000Y-82087500D02*
X82950000Y-85427500D01*
X82950000Y-85427500D02*
X82950000Y-101507500D01*
D16*
%TO.N,OE*%
X84240000Y-105337500D02*
X82400000Y-103497500D01*
X82400000Y-103497500D02*
X82400000Y-83927500D01*
X82400000Y-83927500D02*
X84240000Y-82087500D01*
%TO.N,+5V*%
X81700000Y-82087500D02*
X81700000Y-105337500D01*
D15*
%TO.N,+3V3*%
X94400000Y-82087500D02*
X94400000Y-85437500D01*
X94400000Y-85437500D02*
X94550000Y-85587500D01*
X92050000Y-85587500D02*
X94550000Y-85587500D01*
X89550000Y-85587500D02*
X92050000Y-85587500D01*
X87050000Y-85587500D02*
X89550000Y-85587500D01*
X84550000Y-85587500D02*
X87050000Y-85587500D01*
%TO.N,Net-(U1-EXTCLK)*%
X89560000Y-96087500D02*
X89560000Y-95602500D01*
X89560000Y-95602500D02*
X91050000Y-94112500D01*
%TD*%
%TA.AperFunction,Conductor*%
%TO.N,GND*%
G36*
X106492539Y-80107685D02*
G01*
X106538294Y-80160489D01*
X106549500Y-80212000D01*
X106549500Y-107213000D01*
X106529815Y-107280039D01*
X106477011Y-107325794D01*
X106425500Y-107337000D01*
X98951230Y-107337000D01*
X98884191Y-107317315D01*
X98838436Y-107264511D01*
X98828492Y-107195353D01*
X98857517Y-107131797D01*
X98863549Y-107125319D01*
X99278499Y-106710369D01*
X100579894Y-105408972D01*
X100641215Y-105375489D01*
X100705889Y-105378723D01*
X100769074Y-105399254D01*
X100848973Y-105411908D01*
X100982134Y-105433000D01*
X100982139Y-105433000D01*
X101197866Y-105433000D01*
X101316230Y-105414252D01*
X101410926Y-105399254D01*
X101616089Y-105332592D01*
X101808299Y-105234657D01*
X101982821Y-105107859D01*
X102135359Y-104955321D01*
X102262157Y-104780799D01*
X102360092Y-104588589D01*
X102426754Y-104383426D01*
X102448033Y-104249075D01*
X102460500Y-104170366D01*
X102460500Y-103504633D01*
X102426754Y-103291577D01*
X102426754Y-103291574D01*
X102360092Y-103086411D01*
X102262157Y-102894201D01*
X102135359Y-102719679D01*
X101982821Y-102567141D01*
X101808299Y-102440343D01*
X101616089Y-102342408D01*
X101410926Y-102275746D01*
X101410924Y-102275745D01*
X101410922Y-102275745D01*
X101197866Y-102242000D01*
X101197861Y-102242000D01*
X100982139Y-102242000D01*
X100982134Y-102242000D01*
X100769077Y-102275745D01*
X100563908Y-102342409D01*
X100371700Y-102440343D01*
X100197180Y-102567140D01*
X100054816Y-102709504D01*
X99993493Y-102742988D01*
X99923801Y-102738004D01*
X99867868Y-102696132D01*
X99854748Y-102674216D01*
X99854356Y-102673376D01*
X99762315Y-102524154D01*
X99638345Y-102400184D01*
X99489124Y-102308143D01*
X99489119Y-102308141D01*
X99322697Y-102252994D01*
X99322690Y-102252993D01*
X99219986Y-102242500D01*
X98800000Y-102242500D01*
X98800000Y-103294790D01*
X98779661Y-103283048D01*
X98628333Y-103242500D01*
X98471667Y-103242500D01*
X98320339Y-103283048D01*
X98300000Y-103294790D01*
X98300000Y-102242500D01*
X97880028Y-102242500D01*
X97880012Y-102242501D01*
X97777302Y-102252994D01*
X97610880Y-102308141D01*
X97610875Y-102308143D01*
X97461654Y-102400184D01*
X97337684Y-102524154D01*
X97245643Y-102673375D01*
X97245641Y-102673380D01*
X97190494Y-102839802D01*
X97190493Y-102839809D01*
X97180000Y-102942513D01*
X97180000Y-103587500D01*
X98007291Y-103587500D01*
X97995548Y-103607839D01*
X97955000Y-103759167D01*
X97955000Y-103915833D01*
X97995548Y-104067161D01*
X98007291Y-104087500D01*
X97180001Y-104087500D01*
X97180001Y-104732486D01*
X97190494Y-104835197D01*
X97245641Y-105001619D01*
X97245643Y-105001624D01*
X97337684Y-105150845D01*
X97461654Y-105274815D01*
X97610875Y-105366856D01*
X97610880Y-105366858D01*
X97777302Y-105422005D01*
X97777309Y-105422006D01*
X97880019Y-105432499D01*
X98134269Y-105432499D01*
X98201308Y-105452183D01*
X98247063Y-105504987D01*
X98257007Y-105574146D01*
X98227982Y-105637701D01*
X98221950Y-105644180D01*
X97615451Y-106250681D01*
X97554128Y-106284166D01*
X97527770Y-106287000D01*
X95874500Y-106287000D01*
X95807461Y-106267315D01*
X95761706Y-106214511D01*
X95750500Y-106163000D01*
X95750499Y-104439629D01*
X95750498Y-104439623D01*
X95749732Y-104432500D01*
X95745299Y-104391257D01*
X95744091Y-104380016D01*
X95693797Y-104245171D01*
X95693793Y-104245164D01*
X95607547Y-104129955D01*
X95607544Y-104129952D01*
X95492335Y-104043706D01*
X95492328Y-104043702D01*
X95357482Y-103993408D01*
X95357483Y-103993408D01*
X95297883Y-103987001D01*
X95297881Y-103987000D01*
X95297873Y-103987000D01*
X95297865Y-103987000D01*
X95124500Y-103987000D01*
X95057461Y-103967315D01*
X95011706Y-103914511D01*
X95000500Y-103863000D01*
X95000500Y-97837499D01*
X103419341Y-97837499D01*
X103419341Y-97837500D01*
X103439936Y-98072903D01*
X103439938Y-98072913D01*
X103501094Y-98301155D01*
X103501096Y-98301159D01*
X103501097Y-98301163D01*
X103600965Y-98515330D01*
X103600967Y-98515334D01*
X103709281Y-98670021D01*
X103727030Y-98695370D01*
X103736501Y-98708895D01*
X103736506Y-98708902D01*
X103903597Y-98875993D01*
X103903603Y-98875998D01*
X104089158Y-99005925D01*
X104132783Y-99060502D01*
X104139977Y-99130000D01*
X104108454Y-99192355D01*
X104089158Y-99209075D01*
X103903597Y-99339005D01*
X103736505Y-99506097D01*
X103600965Y-99699669D01*
X103600964Y-99699671D01*
X103501098Y-99913835D01*
X103501094Y-99913844D01*
X103439938Y-100142086D01*
X103439936Y-100142096D01*
X103419341Y-100377499D01*
X103419341Y-100377500D01*
X103439936Y-100612903D01*
X103439938Y-100612913D01*
X103501094Y-100841155D01*
X103501096Y-100841159D01*
X103501097Y-100841163D01*
X103582313Y-101015330D01*
X103600965Y-101055330D01*
X103600967Y-101055334D01*
X103736501Y-101248895D01*
X103736506Y-101248902D01*
X103903597Y-101415993D01*
X103903603Y-101415998D01*
X104089158Y-101545925D01*
X104132783Y-101600502D01*
X104139977Y-101670000D01*
X104108454Y-101732355D01*
X104089158Y-101749075D01*
X103903597Y-101879005D01*
X103736505Y-102046097D01*
X103600965Y-102239669D01*
X103600964Y-102239671D01*
X103501098Y-102453835D01*
X103501094Y-102453844D01*
X103439938Y-102682086D01*
X103439936Y-102682096D01*
X103419341Y-102917499D01*
X103419341Y-102917500D01*
X103439936Y-103152903D01*
X103439938Y-103152913D01*
X103501094Y-103381155D01*
X103501096Y-103381159D01*
X103501097Y-103381163D01*
X103543531Y-103472162D01*
X103600965Y-103595330D01*
X103600967Y-103595334D01*
X103708492Y-103748895D01*
X103736501Y-103788896D01*
X103736506Y-103788902D01*
X103858430Y-103910826D01*
X103891915Y-103972149D01*
X103886931Y-104041841D01*
X103845059Y-104097774D01*
X103814083Y-104114689D01*
X103682669Y-104163703D01*
X103682664Y-104163706D01*
X103567455Y-104249952D01*
X103567452Y-104249955D01*
X103481206Y-104365164D01*
X103481202Y-104365171D01*
X103430908Y-104500017D01*
X103425954Y-104546099D01*
X103424501Y-104559623D01*
X103424500Y-104559635D01*
X103424500Y-106355370D01*
X103424501Y-106355376D01*
X103430908Y-106414983D01*
X103481202Y-106549828D01*
X103481206Y-106549835D01*
X103567452Y-106665044D01*
X103567455Y-106665047D01*
X103682664Y-106751293D01*
X103682671Y-106751297D01*
X103817517Y-106801591D01*
X103817516Y-106801591D01*
X103824444Y-106802335D01*
X103877127Y-106808000D01*
X105672872Y-106807999D01*
X105732483Y-106801591D01*
X105867331Y-106751296D01*
X105982546Y-106665046D01*
X106068796Y-106549831D01*
X106119091Y-106414983D01*
X106125500Y-106355373D01*
X106125499Y-104559628D01*
X106119091Y-104500017D01*
X106106440Y-104466099D01*
X106068797Y-104365171D01*
X106068793Y-104365164D01*
X105982547Y-104249955D01*
X105982544Y-104249952D01*
X105867335Y-104163706D01*
X105867328Y-104163702D01*
X105735917Y-104114689D01*
X105679983Y-104072818D01*
X105655566Y-104007353D01*
X105670418Y-103939080D01*
X105691563Y-103910832D01*
X105813495Y-103788901D01*
X105949035Y-103595330D01*
X106048903Y-103381163D01*
X106110063Y-103152908D01*
X106130659Y-102917500D01*
X106128620Y-102894200D01*
X106117659Y-102768916D01*
X106110063Y-102682092D01*
X106048903Y-102453837D01*
X105949035Y-102239671D01*
X105921026Y-102199669D01*
X105813494Y-102046097D01*
X105646402Y-101879006D01*
X105646396Y-101879001D01*
X105460842Y-101749075D01*
X105417217Y-101694498D01*
X105410023Y-101625000D01*
X105441546Y-101562645D01*
X105460842Y-101545925D01*
X105517968Y-101505925D01*
X105646401Y-101415995D01*
X105813495Y-101248901D01*
X105949035Y-101055330D01*
X106048903Y-100841163D01*
X106110063Y-100612908D01*
X106130659Y-100377500D01*
X106110063Y-100142092D01*
X106048903Y-99913837D01*
X105949035Y-99699671D01*
X105921026Y-99659669D01*
X105813494Y-99506097D01*
X105646402Y-99339006D01*
X105646396Y-99339001D01*
X105460842Y-99209075D01*
X105417217Y-99154498D01*
X105410023Y-99085000D01*
X105441546Y-99022645D01*
X105460842Y-99005925D01*
X105626645Y-98889828D01*
X105646401Y-98875995D01*
X105813495Y-98708901D01*
X105949035Y-98515330D01*
X106048903Y-98301163D01*
X106110063Y-98072908D01*
X106130659Y-97837500D01*
X106110063Y-97602092D01*
X106048903Y-97373837D01*
X105949035Y-97159671D01*
X105813495Y-96966099D01*
X105813494Y-96966097D01*
X105646402Y-96799006D01*
X105646395Y-96799001D01*
X105452834Y-96663467D01*
X105452830Y-96663465D01*
X105423774Y-96649916D01*
X105238663Y-96563597D01*
X105238659Y-96563596D01*
X105238655Y-96563594D01*
X105010413Y-96502438D01*
X105010403Y-96502436D01*
X104775001Y-96481841D01*
X104774999Y-96481841D01*
X104539596Y-96502436D01*
X104539586Y-96502438D01*
X104311344Y-96563594D01*
X104311335Y-96563598D01*
X104097171Y-96663464D01*
X104097169Y-96663465D01*
X103903597Y-96799005D01*
X103736505Y-96966097D01*
X103600965Y-97159669D01*
X103600964Y-97159671D01*
X103501098Y-97373835D01*
X103501094Y-97373844D01*
X103439938Y-97602086D01*
X103439936Y-97602096D01*
X103419341Y-97837499D01*
X95000500Y-97837499D01*
X95000500Y-96526559D01*
X95000501Y-96526546D01*
X95000501Y-96358445D01*
X95000501Y-96358443D01*
X94959577Y-96205715D01*
X94930639Y-96155595D01*
X94880520Y-96068784D01*
X94768716Y-95956980D01*
X94768715Y-95956979D01*
X94764385Y-95952649D01*
X94764374Y-95952639D01*
X91630700Y-92818965D01*
X91597215Y-92757642D01*
X91595163Y-92745186D01*
X91585368Y-92658245D01*
X91525789Y-92487978D01*
X91429816Y-92335238D01*
X91302262Y-92207684D01*
X91260054Y-92181163D01*
X91149523Y-92111711D01*
X90979254Y-92052131D01*
X90979249Y-92052130D01*
X90800004Y-92031935D01*
X90799996Y-92031935D01*
X90620750Y-92052130D01*
X90620745Y-92052131D01*
X90450476Y-92111711D01*
X90297737Y-92207684D01*
X90170184Y-92335237D01*
X90074211Y-92487976D01*
X90014631Y-92658245D01*
X90014630Y-92658250D01*
X89994435Y-92837496D01*
X89994435Y-92837503D01*
X90014630Y-93016749D01*
X90014631Y-93016754D01*
X90074211Y-93187023D01*
X90170184Y-93339762D01*
X90297737Y-93467315D01*
X90297740Y-93467317D01*
X90344915Y-93496960D01*
X90391206Y-93549295D01*
X90401853Y-93618348D01*
X90383936Y-93667925D01*
X90324210Y-93762977D01*
X90264630Y-93933250D01*
X90254837Y-94020168D01*
X90227770Y-94084582D01*
X90219298Y-94093965D01*
X89191286Y-95121978D01*
X89079481Y-95233782D01*
X89079475Y-95233790D01*
X89040020Y-95302130D01*
X89040020Y-95302132D01*
X89000423Y-95370714D01*
X89000423Y-95370715D01*
X88959499Y-95523443D01*
X88959499Y-95523445D01*
X88957396Y-95531294D01*
X88955188Y-95530702D01*
X88934063Y-95580372D01*
X88930188Y-95585230D01*
X88834211Y-95737976D01*
X88774631Y-95908245D01*
X88774630Y-95908250D01*
X88754435Y-96087496D01*
X88754435Y-96087503D01*
X88774630Y-96266749D01*
X88774631Y-96266754D01*
X88834211Y-96437023D01*
X88913743Y-96563597D01*
X88930184Y-96589762D01*
X89057738Y-96717316D01*
X89090015Y-96737597D01*
X89187746Y-96799006D01*
X89210478Y-96813289D01*
X89380745Y-96872868D01*
X89380750Y-96872869D01*
X89559996Y-96893065D01*
X89560000Y-96893065D01*
X89560004Y-96893065D01*
X89739249Y-96872869D01*
X89739252Y-96872868D01*
X89739255Y-96872868D01*
X89909522Y-96813289D01*
X90062262Y-96717316D01*
X90189816Y-96589762D01*
X90285789Y-96437022D01*
X90345368Y-96266755D01*
X90345369Y-96266749D01*
X90365565Y-96087503D01*
X90365565Y-96087496D01*
X90345369Y-95908250D01*
X90345367Y-95908240D01*
X90325782Y-95852271D01*
X90308402Y-95802604D01*
X90304840Y-95732828D01*
X90337761Y-95673972D01*
X91068535Y-94943198D01*
X91129856Y-94909715D01*
X91142311Y-94907663D01*
X91229255Y-94897868D01*
X91399522Y-94838289D01*
X91552262Y-94742316D01*
X91616243Y-94678334D01*
X91677562Y-94644852D01*
X91747254Y-94649836D01*
X91791602Y-94678337D01*
X93763181Y-96649916D01*
X93796666Y-96711239D01*
X93799500Y-96737597D01*
X93799500Y-103863000D01*
X93779815Y-103930039D01*
X93727011Y-103975794D01*
X93675501Y-103987000D01*
X93502130Y-103987000D01*
X93502123Y-103987001D01*
X93442516Y-103993408D01*
X93307671Y-104043702D01*
X93307664Y-104043706D01*
X93192455Y-104129952D01*
X93192452Y-104129955D01*
X93106206Y-104245164D01*
X93106202Y-104245171D01*
X93056997Y-104377098D01*
X93015126Y-104433032D01*
X92949661Y-104457449D01*
X92881388Y-104442597D01*
X92853134Y-104421446D01*
X92731082Y-104299394D01*
X92537578Y-104163899D01*
X92323492Y-104064070D01*
X92323486Y-104064067D01*
X92110000Y-104006864D01*
X92110000Y-104904488D01*
X92052993Y-104871575D01*
X91925826Y-104837500D01*
X91794174Y-104837500D01*
X91667007Y-104871575D01*
X91610000Y-104904488D01*
X91610000Y-104006864D01*
X91609999Y-104006864D01*
X91396513Y-104064067D01*
X91396507Y-104064070D01*
X91182422Y-104163899D01*
X91182420Y-104163900D01*
X90988926Y-104299386D01*
X90988920Y-104299391D01*
X90821891Y-104466420D01*
X90821890Y-104466422D01*
X90691880Y-104652095D01*
X90637303Y-104695719D01*
X90567804Y-104702912D01*
X90505450Y-104671390D01*
X90488730Y-104652094D01*
X90358494Y-104466097D01*
X90191402Y-104299006D01*
X90191395Y-104299001D01*
X89997834Y-104163467D01*
X89997830Y-104163465D01*
X89963593Y-104147500D01*
X89783663Y-104063597D01*
X89783659Y-104063596D01*
X89783655Y-104063594D01*
X89555413Y-104002438D01*
X89555403Y-104002436D01*
X89320001Y-103981841D01*
X89319999Y-103981841D01*
X89084596Y-104002436D01*
X89084583Y-104002439D01*
X88956241Y-104036827D01*
X88886392Y-104035164D01*
X88836468Y-104004733D01*
X84586819Y-99755084D01*
X84553334Y-99693761D01*
X84550500Y-99667403D01*
X84550500Y-86503821D01*
X84570185Y-86436782D01*
X84622989Y-86391027D01*
X84660612Y-86380601D01*
X84729255Y-86372868D01*
X84899522Y-86313289D01*
X85052262Y-86217316D01*
X85052267Y-86217310D01*
X85055097Y-86215055D01*
X85057275Y-86214165D01*
X85058158Y-86213611D01*
X85058255Y-86213765D01*
X85119783Y-86188645D01*
X85132412Y-86188000D01*
X86467588Y-86188000D01*
X86534627Y-86207685D01*
X86544903Y-86215055D01*
X86547736Y-86217314D01*
X86547738Y-86217316D01*
X86700478Y-86313289D01*
X86870742Y-86372867D01*
X86870745Y-86372868D01*
X86870750Y-86372869D01*
X87049996Y-86393065D01*
X87050000Y-86393065D01*
X87050004Y-86393065D01*
X87229249Y-86372869D01*
X87229252Y-86372868D01*
X87229255Y-86372868D01*
X87399522Y-86313289D01*
X87552262Y-86217316D01*
X87552267Y-86217310D01*
X87555097Y-86215055D01*
X87557275Y-86214165D01*
X87558158Y-86213611D01*
X87558255Y-86213765D01*
X87619783Y-86188645D01*
X87632412Y-86188000D01*
X88967588Y-86188000D01*
X89034627Y-86207685D01*
X89044903Y-86215055D01*
X89047736Y-86217314D01*
X89047738Y-86217316D01*
X89200478Y-86313289D01*
X89370742Y-86372867D01*
X89370745Y-86372868D01*
X89370750Y-86372869D01*
X89549996Y-86393065D01*
X89550000Y-86393065D01*
X89550004Y-86393065D01*
X89729249Y-86372869D01*
X89729252Y-86372868D01*
X89729255Y-86372868D01*
X89899522Y-86313289D01*
X90052262Y-86217316D01*
X90052267Y-86217310D01*
X90055097Y-86215055D01*
X90057275Y-86214165D01*
X90058158Y-86213611D01*
X90058255Y-86213765D01*
X90119783Y-86188645D01*
X90132412Y-86188000D01*
X91467588Y-86188000D01*
X91534627Y-86207685D01*
X91544903Y-86215055D01*
X91547736Y-86217314D01*
X91547738Y-86217316D01*
X91700478Y-86313289D01*
X91870742Y-86372867D01*
X91870745Y-86372868D01*
X91870750Y-86372869D01*
X92049996Y-86393065D01*
X92050000Y-86393065D01*
X92050004Y-86393065D01*
X92229249Y-86372869D01*
X92229252Y-86372868D01*
X92229255Y-86372868D01*
X92399522Y-86313289D01*
X92552262Y-86217316D01*
X92552267Y-86217310D01*
X92555097Y-86215055D01*
X92557275Y-86214165D01*
X92558158Y-86213611D01*
X92558255Y-86213765D01*
X92619783Y-86188645D01*
X92632412Y-86188000D01*
X93967588Y-86188000D01*
X94034627Y-86207685D01*
X94044903Y-86215055D01*
X94047736Y-86217314D01*
X94047738Y-86217316D01*
X94200478Y-86313289D01*
X94370742Y-86372867D01*
X94370745Y-86372868D01*
X94370750Y-86372869D01*
X94549996Y-86393065D01*
X94550000Y-86393065D01*
X94550004Y-86393065D01*
X94729249Y-86372869D01*
X94729252Y-86372868D01*
X94729255Y-86372868D01*
X94899522Y-86313289D01*
X95052262Y-86217316D01*
X95052267Y-86217310D01*
X95055097Y-86215055D01*
X95057275Y-86214165D01*
X95058158Y-86213611D01*
X95058255Y-86213765D01*
X95119783Y-86188645D01*
X95132412Y-86188000D01*
X96149091Y-86188000D01*
X96216130Y-86207685D01*
X96261885Y-86260489D01*
X96266133Y-86271045D01*
X96301763Y-86372869D01*
X96324211Y-86437022D01*
X96420184Y-86589762D01*
X96547738Y-86717316D01*
X96700478Y-86813289D01*
X96870745Y-86872868D01*
X96870750Y-86872869D01*
X97049996Y-86893065D01*
X97050000Y-86893065D01*
X97050004Y-86893065D01*
X97229249Y-86872869D01*
X97229252Y-86872868D01*
X97229255Y-86872868D01*
X97399522Y-86813289D01*
X97552262Y-86717316D01*
X97632079Y-86637499D01*
X103419341Y-86637499D01*
X103419341Y-86637500D01*
X103439936Y-86872903D01*
X103439938Y-86872913D01*
X103501094Y-87101155D01*
X103501096Y-87101159D01*
X103501097Y-87101163D01*
X103600965Y-87315330D01*
X103600967Y-87315334D01*
X103709281Y-87470021D01*
X103727030Y-87495370D01*
X103736501Y-87508895D01*
X103736506Y-87508902D01*
X103903597Y-87675993D01*
X103903603Y-87675998D01*
X104089158Y-87805925D01*
X104132783Y-87860502D01*
X104139977Y-87930000D01*
X104108454Y-87992355D01*
X104089158Y-88009075D01*
X103903597Y-88139005D01*
X103736505Y-88306097D01*
X103600965Y-88499669D01*
X103600964Y-88499671D01*
X103501098Y-88713835D01*
X103501094Y-88713844D01*
X103439938Y-88942086D01*
X103439936Y-88942096D01*
X103419341Y-89177499D01*
X103419341Y-89177500D01*
X103439936Y-89412903D01*
X103439938Y-89412913D01*
X103501094Y-89641155D01*
X103501096Y-89641159D01*
X103501097Y-89641163D01*
X103582313Y-89815330D01*
X103600965Y-89855330D01*
X103600967Y-89855334D01*
X103736501Y-90048895D01*
X103736506Y-90048902D01*
X103903597Y-90215993D01*
X103903603Y-90215998D01*
X104089158Y-90345925D01*
X104132783Y-90400502D01*
X104139977Y-90470000D01*
X104108454Y-90532355D01*
X104089158Y-90549075D01*
X103903597Y-90679005D01*
X103736505Y-90846097D01*
X103600965Y-91039669D01*
X103600964Y-91039671D01*
X103501098Y-91253835D01*
X103501094Y-91253844D01*
X103439938Y-91482086D01*
X103439936Y-91482096D01*
X103419341Y-91717499D01*
X103419341Y-91717500D01*
X103439936Y-91952903D01*
X103439938Y-91952913D01*
X103501094Y-92181155D01*
X103501096Y-92181159D01*
X103501097Y-92181163D01*
X103513464Y-92207684D01*
X103600965Y-92395330D01*
X103600967Y-92395334D01*
X103665836Y-92487976D01*
X103736501Y-92588896D01*
X103736506Y-92588902D01*
X103858430Y-92710826D01*
X103891915Y-92772149D01*
X103886931Y-92841841D01*
X103845059Y-92897774D01*
X103814083Y-92914689D01*
X103682669Y-92963703D01*
X103682664Y-92963706D01*
X103567455Y-93049952D01*
X103567452Y-93049955D01*
X103481206Y-93165164D01*
X103481202Y-93165171D01*
X103430908Y-93300017D01*
X103425954Y-93346099D01*
X103424501Y-93359623D01*
X103424500Y-93359635D01*
X103424500Y-95155370D01*
X103424501Y-95155376D01*
X103430908Y-95214983D01*
X103481202Y-95349828D01*
X103481206Y-95349835D01*
X103567452Y-95465044D01*
X103567455Y-95465047D01*
X103682664Y-95551293D01*
X103682671Y-95551297D01*
X103817517Y-95601591D01*
X103817516Y-95601591D01*
X103824444Y-95602335D01*
X103877127Y-95608000D01*
X105672872Y-95607999D01*
X105732483Y-95601591D01*
X105867331Y-95551296D01*
X105982546Y-95465046D01*
X106068796Y-95349831D01*
X106119091Y-95214983D01*
X106125500Y-95155373D01*
X106125499Y-93359628D01*
X106119091Y-93300017D01*
X106073956Y-93179005D01*
X106068797Y-93165171D01*
X106068793Y-93165164D01*
X105982547Y-93049955D01*
X105982544Y-93049952D01*
X105867335Y-92963706D01*
X105867328Y-92963702D01*
X105735917Y-92914689D01*
X105679983Y-92872818D01*
X105655566Y-92807353D01*
X105670418Y-92739080D01*
X105691563Y-92710832D01*
X105813495Y-92588901D01*
X105949035Y-92395330D01*
X106048903Y-92181163D01*
X106110063Y-91952908D01*
X106130659Y-91717500D01*
X106110063Y-91482092D01*
X106048903Y-91253837D01*
X105949035Y-91039671D01*
X105921026Y-90999669D01*
X105813494Y-90846097D01*
X105646402Y-90679006D01*
X105646396Y-90679001D01*
X105460842Y-90549075D01*
X105417217Y-90494498D01*
X105410023Y-90425000D01*
X105441546Y-90362645D01*
X105460842Y-90345925D01*
X105517968Y-90305925D01*
X105646401Y-90215995D01*
X105813495Y-90048901D01*
X105949035Y-89855330D01*
X106048903Y-89641163D01*
X106110063Y-89412908D01*
X106130659Y-89177500D01*
X106110063Y-88942092D01*
X106048903Y-88713837D01*
X105949035Y-88499671D01*
X105921026Y-88459669D01*
X105813494Y-88306097D01*
X105646402Y-88139006D01*
X105646396Y-88139001D01*
X105460842Y-88009075D01*
X105417217Y-87954498D01*
X105410023Y-87885000D01*
X105441546Y-87822645D01*
X105460842Y-87805925D01*
X105626645Y-87689828D01*
X105646401Y-87675995D01*
X105813495Y-87508901D01*
X105949035Y-87315330D01*
X106048903Y-87101163D01*
X106110063Y-86872908D01*
X106130659Y-86637500D01*
X106110063Y-86402092D01*
X106060553Y-86217316D01*
X106048905Y-86173844D01*
X106048904Y-86173843D01*
X106048903Y-86173837D01*
X105949035Y-85959671D01*
X105913027Y-85908245D01*
X105813494Y-85766097D01*
X105646402Y-85599006D01*
X105646395Y-85599001D01*
X105452834Y-85463467D01*
X105452830Y-85463465D01*
X105440433Y-85457684D01*
X105238663Y-85363597D01*
X105238659Y-85363596D01*
X105238655Y-85363594D01*
X105010413Y-85302438D01*
X105010403Y-85302436D01*
X104775001Y-85281841D01*
X104774999Y-85281841D01*
X104539596Y-85302436D01*
X104539586Y-85302438D01*
X104311344Y-85363594D01*
X104311335Y-85363598D01*
X104097171Y-85463464D01*
X104097169Y-85463465D01*
X103903597Y-85599005D01*
X103736505Y-85766097D01*
X103600965Y-85959669D01*
X103600964Y-85959671D01*
X103501098Y-86173835D01*
X103501094Y-86173844D01*
X103439938Y-86402086D01*
X103439936Y-86402096D01*
X103419341Y-86637499D01*
X97632079Y-86637499D01*
X97679816Y-86589762D01*
X97775789Y-86437022D01*
X97835368Y-86266755D01*
X97836074Y-86260489D01*
X97855565Y-86087503D01*
X97855565Y-86087496D01*
X97835369Y-85908250D01*
X97835368Y-85908245D01*
X97775788Y-85737976D01*
X97679815Y-85585237D01*
X97552262Y-85457684D01*
X97399521Y-85361710D01*
X97233753Y-85303706D01*
X97229255Y-85302132D01*
X97229254Y-85302131D01*
X97229249Y-85302130D01*
X97142332Y-85292337D01*
X97077918Y-85265270D01*
X97068535Y-85256798D01*
X97030523Y-85218786D01*
X97030520Y-85218784D01*
X96918717Y-85106981D01*
X96918709Y-85106975D01*
X96816936Y-85048217D01*
X96816934Y-85048216D01*
X96781790Y-85027925D01*
X96781789Y-85027924D01*
X96769263Y-85024567D01*
X96629057Y-84986999D01*
X96470943Y-84986999D01*
X96463347Y-84986999D01*
X96463331Y-84987000D01*
X95132412Y-84987000D01*
X95065373Y-84967315D01*
X95055096Y-84959945D01*
X95052266Y-84957688D01*
X95052262Y-84957684D01*
X95052257Y-84957680D01*
X95047184Y-84953635D01*
X95007046Y-84896445D01*
X95000500Y-84856690D01*
X95000500Y-83561999D01*
X95020185Y-83494960D01*
X95072989Y-83449205D01*
X95124500Y-83437999D01*
X95297871Y-83437999D01*
X95297872Y-83437999D01*
X95357483Y-83431591D01*
X95492331Y-83381296D01*
X95607546Y-83295046D01*
X95693796Y-83179831D01*
X95744091Y-83044983D01*
X95750500Y-82985373D01*
X95750499Y-81189628D01*
X95744091Y-81130017D01*
X95743002Y-81127098D01*
X95693797Y-80995171D01*
X95693793Y-80995164D01*
X95607547Y-80879955D01*
X95607544Y-80879952D01*
X95492335Y-80793706D01*
X95492328Y-80793702D01*
X95357482Y-80743408D01*
X95357483Y-80743408D01*
X95297883Y-80737001D01*
X95297881Y-80737000D01*
X95297873Y-80737000D01*
X95297864Y-80737000D01*
X93502129Y-80737000D01*
X93502123Y-80737001D01*
X93442516Y-80743408D01*
X93307671Y-80793702D01*
X93307664Y-80793706D01*
X93192455Y-80879952D01*
X93192452Y-80879955D01*
X93106206Y-80995164D01*
X93106202Y-80995171D01*
X93056997Y-81127098D01*
X93015126Y-81183032D01*
X92949661Y-81207449D01*
X92881388Y-81192597D01*
X92853134Y-81171446D01*
X92731082Y-81049394D01*
X92537578Y-80913899D01*
X92323492Y-80814070D01*
X92323486Y-80814067D01*
X92110000Y-80756864D01*
X92110000Y-81654488D01*
X92052993Y-81621575D01*
X91925826Y-81587500D01*
X91794174Y-81587500D01*
X91667007Y-81621575D01*
X91610000Y-81654488D01*
X91610000Y-80756864D01*
X91609999Y-80756864D01*
X91396513Y-80814067D01*
X91396507Y-80814070D01*
X91182422Y-80913899D01*
X91182420Y-80913900D01*
X90988926Y-81049386D01*
X90988920Y-81049391D01*
X90821891Y-81216420D01*
X90821890Y-81216422D01*
X90691880Y-81402095D01*
X90637303Y-81445719D01*
X90567804Y-81452912D01*
X90505450Y-81421390D01*
X90488730Y-81402094D01*
X90358494Y-81216097D01*
X90191402Y-81049006D01*
X90191395Y-81049001D01*
X89997834Y-80913467D01*
X89997830Y-80913465D01*
X89997828Y-80913464D01*
X89783663Y-80813597D01*
X89783659Y-80813596D01*
X89783655Y-80813594D01*
X89555413Y-80752438D01*
X89555403Y-80752436D01*
X89320001Y-80731841D01*
X89319999Y-80731841D01*
X89084596Y-80752436D01*
X89084586Y-80752438D01*
X88856344Y-80813594D01*
X88856335Y-80813598D01*
X88642171Y-80913464D01*
X88642169Y-80913465D01*
X88448597Y-81049005D01*
X88281505Y-81216097D01*
X88151575Y-81401658D01*
X88096998Y-81445283D01*
X88027500Y-81452477D01*
X87965145Y-81420954D01*
X87948425Y-81401658D01*
X87818494Y-81216097D01*
X87651402Y-81049006D01*
X87651395Y-81049001D01*
X87457834Y-80913467D01*
X87457830Y-80913465D01*
X87457828Y-80913464D01*
X87243663Y-80813597D01*
X87243659Y-80813596D01*
X87243655Y-80813594D01*
X87015413Y-80752438D01*
X87015403Y-80752436D01*
X86780001Y-80731841D01*
X86779999Y-80731841D01*
X86544596Y-80752436D01*
X86544586Y-80752438D01*
X86316344Y-80813594D01*
X86316335Y-80813598D01*
X86102171Y-80913464D01*
X86102169Y-80913465D01*
X85908597Y-81049005D01*
X85741505Y-81216097D01*
X85611575Y-81401658D01*
X85556998Y-81445283D01*
X85487500Y-81452477D01*
X85425145Y-81420954D01*
X85408425Y-81401658D01*
X85278494Y-81216097D01*
X85111402Y-81049006D01*
X85111395Y-81049001D01*
X84917834Y-80913467D01*
X84917830Y-80913465D01*
X84917828Y-80913464D01*
X84703663Y-80813597D01*
X84703659Y-80813596D01*
X84703655Y-80813594D01*
X84475413Y-80752438D01*
X84475403Y-80752436D01*
X84240001Y-80731841D01*
X84239999Y-80731841D01*
X84004596Y-80752436D01*
X84004586Y-80752438D01*
X83776344Y-80813594D01*
X83776335Y-80813598D01*
X83562171Y-80913464D01*
X83562169Y-80913465D01*
X83368597Y-81049005D01*
X83201505Y-81216097D01*
X83071575Y-81401658D01*
X83016998Y-81445283D01*
X82947500Y-81452477D01*
X82885145Y-81420954D01*
X82868425Y-81401658D01*
X82738494Y-81216097D01*
X82571402Y-81049006D01*
X82571395Y-81049001D01*
X82377834Y-80913467D01*
X82377830Y-80913465D01*
X82377828Y-80913464D01*
X82163663Y-80813597D01*
X82163659Y-80813596D01*
X82163655Y-80813594D01*
X81935413Y-80752438D01*
X81935403Y-80752436D01*
X81700001Y-80731841D01*
X81699999Y-80731841D01*
X81464596Y-80752436D01*
X81464586Y-80752438D01*
X81236344Y-80813594D01*
X81236335Y-80813598D01*
X81022171Y-80913464D01*
X81022169Y-80913465D01*
X80828597Y-81049005D01*
X80661505Y-81216097D01*
X80525965Y-81409669D01*
X80525964Y-81409671D01*
X80426098Y-81623835D01*
X80426094Y-81623844D01*
X80364938Y-81852086D01*
X80364936Y-81852096D01*
X80344341Y-82087499D01*
X80344341Y-82087500D01*
X80364936Y-82322903D01*
X80364938Y-82322913D01*
X80426094Y-82551155D01*
X80426096Y-82551159D01*
X80426097Y-82551163D01*
X80509155Y-82729281D01*
X80525965Y-82765330D01*
X80525967Y-82765334D01*
X80634281Y-82920021D01*
X80661501Y-82958896D01*
X80661506Y-82958902D01*
X80828595Y-83125992D01*
X80828598Y-83125994D01*
X80828599Y-83125995D01*
X80896623Y-83173625D01*
X80940248Y-83228201D01*
X80949500Y-83275200D01*
X80949500Y-104149798D01*
X80929815Y-104216837D01*
X80896625Y-104251372D01*
X80828595Y-104299007D01*
X80661505Y-104466097D01*
X80525965Y-104659669D01*
X80525964Y-104659671D01*
X80426098Y-104873835D01*
X80426094Y-104873844D01*
X80364938Y-105102086D01*
X80364936Y-105102096D01*
X80344341Y-105337499D01*
X80344341Y-105337500D01*
X80364936Y-105572903D01*
X80364938Y-105572913D01*
X80426094Y-105801155D01*
X80426096Y-105801159D01*
X80426097Y-105801163D01*
X80525965Y-106015330D01*
X80525967Y-106015334D01*
X80581984Y-106095334D01*
X80661505Y-106208901D01*
X80828599Y-106375995D01*
X80884278Y-106414982D01*
X81022165Y-106511532D01*
X81022167Y-106511533D01*
X81022170Y-106511535D01*
X81236337Y-106611403D01*
X81464592Y-106672563D01*
X81652918Y-106689039D01*
X81699999Y-106693159D01*
X81700000Y-106693159D01*
X81700001Y-106693159D01*
X81735284Y-106690071D01*
X81913013Y-106674522D01*
X81981512Y-106688288D01*
X82011501Y-106710369D01*
X82426451Y-107125319D01*
X82459936Y-107186642D01*
X82454952Y-107256334D01*
X82413080Y-107312267D01*
X82347616Y-107336684D01*
X82338770Y-107337000D01*
X76424500Y-107337000D01*
X76357461Y-107317315D01*
X76311706Y-107264511D01*
X76300500Y-107213000D01*
X76300500Y-100337499D01*
X76694341Y-100337499D01*
X76694341Y-100337500D01*
X76714936Y-100572903D01*
X76714938Y-100572913D01*
X76776094Y-100801155D01*
X76776096Y-100801159D01*
X76776097Y-100801163D01*
X76794750Y-100841164D01*
X76875965Y-101015330D01*
X76875967Y-101015334D01*
X77011501Y-101208895D01*
X77011506Y-101208902D01*
X77178597Y-101375993D01*
X77178603Y-101375998D01*
X77364158Y-101505925D01*
X77407783Y-101560502D01*
X77414977Y-101630000D01*
X77383454Y-101692355D01*
X77364158Y-101709075D01*
X77178597Y-101839005D01*
X77011505Y-102006097D01*
X76875965Y-102199669D01*
X76875964Y-102199671D01*
X76776098Y-102413835D01*
X76776094Y-102413844D01*
X76714938Y-102642086D01*
X76714936Y-102642096D01*
X76694341Y-102877499D01*
X76694341Y-102877500D01*
X76714936Y-103112903D01*
X76714938Y-103112913D01*
X76776094Y-103341155D01*
X76776096Y-103341159D01*
X76776097Y-103341163D01*
X76794750Y-103381164D01*
X76875965Y-103555330D01*
X76875967Y-103555334D01*
X77011501Y-103748895D01*
X77011506Y-103748902D01*
X77178597Y-103915993D01*
X77178603Y-103915998D01*
X77364158Y-104045925D01*
X77407783Y-104100502D01*
X77414977Y-104170000D01*
X77383454Y-104232355D01*
X77364158Y-104249075D01*
X77178597Y-104379005D01*
X77011505Y-104546097D01*
X76875965Y-104739669D01*
X76875964Y-104739671D01*
X76776098Y-104953835D01*
X76776094Y-104953844D01*
X76714938Y-105182086D01*
X76714936Y-105182096D01*
X76694341Y-105417499D01*
X76694341Y-105417500D01*
X76714936Y-105652903D01*
X76714938Y-105652913D01*
X76776094Y-105881155D01*
X76776096Y-105881159D01*
X76776097Y-105881163D01*
X76838660Y-106015330D01*
X76875965Y-106095330D01*
X76875967Y-106095334D01*
X76974024Y-106235373D01*
X77011505Y-106288901D01*
X77178599Y-106455995D01*
X77257914Y-106511532D01*
X77372165Y-106591532D01*
X77372167Y-106591533D01*
X77372170Y-106591535D01*
X77586337Y-106691403D01*
X77586343Y-106691404D01*
X77586344Y-106691405D01*
X77641285Y-106706126D01*
X77814592Y-106752563D01*
X78002918Y-106769039D01*
X78049999Y-106773159D01*
X78050000Y-106773159D01*
X78050001Y-106773159D01*
X78089234Y-106769726D01*
X78285408Y-106752563D01*
X78513663Y-106691403D01*
X78727830Y-106591535D01*
X78921401Y-106455995D01*
X79088495Y-106288901D01*
X79224035Y-106095330D01*
X79323903Y-105881163D01*
X79385063Y-105652908D01*
X79405659Y-105417500D01*
X79385063Y-105182092D01*
X79323903Y-104953837D01*
X79224035Y-104739671D01*
X79198297Y-104702912D01*
X79088494Y-104546097D01*
X78921402Y-104379006D01*
X78921396Y-104379001D01*
X78735842Y-104249075D01*
X78692217Y-104194498D01*
X78685023Y-104125000D01*
X78716546Y-104062645D01*
X78735842Y-104045925D01*
X78797949Y-104002437D01*
X78921401Y-103915995D01*
X79088495Y-103748901D01*
X79224035Y-103555330D01*
X79323903Y-103341163D01*
X79385063Y-103112908D01*
X79405659Y-102877500D01*
X79385063Y-102642092D01*
X79323903Y-102413837D01*
X79224035Y-102199671D01*
X79116504Y-102046099D01*
X79088494Y-102006097D01*
X78921402Y-101839006D01*
X78921396Y-101839001D01*
X78735842Y-101709075D01*
X78692217Y-101654498D01*
X78685023Y-101585000D01*
X78716546Y-101522645D01*
X78735842Y-101505925D01*
X78758026Y-101490391D01*
X78921401Y-101375995D01*
X79088495Y-101208901D01*
X79224035Y-101015330D01*
X79323903Y-100801163D01*
X79385063Y-100572908D01*
X79405659Y-100337500D01*
X79385063Y-100102092D01*
X79323903Y-99873837D01*
X79224035Y-99659671D01*
X79116503Y-99506099D01*
X79088496Y-99466100D01*
X79088495Y-99466099D01*
X78966567Y-99344171D01*
X78933084Y-99282851D01*
X78938068Y-99213159D01*
X78979939Y-99157225D01*
X79010915Y-99140310D01*
X79142331Y-99091296D01*
X79257546Y-99005046D01*
X79343796Y-98889831D01*
X79394091Y-98754983D01*
X79400500Y-98695373D01*
X79400499Y-96899628D01*
X79394091Y-96840017D01*
X79343796Y-96705169D01*
X79343795Y-96705168D01*
X79343793Y-96705164D01*
X79257547Y-96589955D01*
X79257544Y-96589952D01*
X79142335Y-96503706D01*
X79142328Y-96503702D01*
X79007482Y-96453408D01*
X79007483Y-96453408D01*
X78947883Y-96447001D01*
X78947881Y-96447000D01*
X78947873Y-96447000D01*
X78947864Y-96447000D01*
X77152129Y-96447000D01*
X77152123Y-96447001D01*
X77092516Y-96453408D01*
X76957671Y-96503702D01*
X76957664Y-96503706D01*
X76842455Y-96589952D01*
X76842452Y-96589955D01*
X76756206Y-96705164D01*
X76756202Y-96705171D01*
X76705908Y-96840017D01*
X76699501Y-96899616D01*
X76699501Y-96899623D01*
X76699500Y-96899635D01*
X76699500Y-98695370D01*
X76699501Y-98695376D01*
X76705908Y-98754983D01*
X76756202Y-98889828D01*
X76756206Y-98889835D01*
X76842452Y-99005044D01*
X76842455Y-99005047D01*
X76957664Y-99091293D01*
X76957671Y-99091297D01*
X77089081Y-99140310D01*
X77145015Y-99182181D01*
X77169432Y-99247645D01*
X77154580Y-99315918D01*
X77133430Y-99344173D01*
X77011503Y-99466100D01*
X76875965Y-99659669D01*
X76875964Y-99659671D01*
X76776098Y-99873835D01*
X76776094Y-99873844D01*
X76714938Y-100102086D01*
X76714936Y-100102096D01*
X76694341Y-100337499D01*
X76300500Y-100337499D01*
X76300500Y-89137499D01*
X76694341Y-89137499D01*
X76694341Y-89137500D01*
X76714936Y-89372903D01*
X76714938Y-89372913D01*
X76776094Y-89601155D01*
X76776096Y-89601159D01*
X76776097Y-89601163D01*
X76794750Y-89641164D01*
X76875965Y-89815330D01*
X76875967Y-89815334D01*
X77011501Y-90008895D01*
X77011506Y-90008902D01*
X77178597Y-90175993D01*
X77178603Y-90175998D01*
X77364158Y-90305925D01*
X77407783Y-90360502D01*
X77414977Y-90430000D01*
X77383454Y-90492355D01*
X77364158Y-90509075D01*
X77178597Y-90639005D01*
X77011505Y-90806097D01*
X76875965Y-90999669D01*
X76875964Y-90999671D01*
X76776098Y-91213835D01*
X76776094Y-91213844D01*
X76714938Y-91442086D01*
X76714936Y-91442096D01*
X76694341Y-91677499D01*
X76694341Y-91677500D01*
X76714936Y-91912903D01*
X76714938Y-91912913D01*
X76776094Y-92141155D01*
X76776096Y-92141159D01*
X76776097Y-92141163D01*
X76866596Y-92335238D01*
X76875965Y-92355330D01*
X76875967Y-92355334D01*
X77011501Y-92548895D01*
X77011506Y-92548902D01*
X77178597Y-92715993D01*
X77178603Y-92715998D01*
X77364158Y-92845925D01*
X77407783Y-92900502D01*
X77414977Y-92970000D01*
X77383454Y-93032355D01*
X77364158Y-93049075D01*
X77178597Y-93179005D01*
X77011505Y-93346097D01*
X76875965Y-93539669D01*
X76875964Y-93539671D01*
X76776098Y-93753835D01*
X76776094Y-93753844D01*
X76714938Y-93982086D01*
X76714936Y-93982096D01*
X76694341Y-94217499D01*
X76694341Y-94217500D01*
X76714936Y-94452903D01*
X76714938Y-94452913D01*
X76776094Y-94681155D01*
X76776096Y-94681159D01*
X76776097Y-94681163D01*
X76804614Y-94742317D01*
X76875965Y-94895330D01*
X76875967Y-94895334D01*
X76984281Y-95050021D01*
X77011505Y-95088901D01*
X77178599Y-95255995D01*
X77275384Y-95323765D01*
X77372165Y-95391532D01*
X77372167Y-95391533D01*
X77372170Y-95391535D01*
X77586337Y-95491403D01*
X77814592Y-95552563D01*
X78002918Y-95569039D01*
X78049999Y-95573159D01*
X78050000Y-95573159D01*
X78050001Y-95573159D01*
X78089234Y-95569726D01*
X78285408Y-95552563D01*
X78513663Y-95491403D01*
X78727830Y-95391535D01*
X78921401Y-95255995D01*
X79088495Y-95088901D01*
X79224035Y-94895330D01*
X79323903Y-94681163D01*
X79385063Y-94452908D01*
X79405659Y-94217500D01*
X79385063Y-93982092D01*
X79323903Y-93753837D01*
X79224035Y-93539671D01*
X79173373Y-93467317D01*
X79088494Y-93346097D01*
X78921402Y-93179006D01*
X78921396Y-93179001D01*
X78735842Y-93049075D01*
X78692217Y-92994498D01*
X78685023Y-92925000D01*
X78716546Y-92862645D01*
X78735842Y-92845925D01*
X78790928Y-92807353D01*
X78921401Y-92715995D01*
X79088495Y-92548901D01*
X79224035Y-92355330D01*
X79323903Y-92141163D01*
X79385063Y-91912908D01*
X79405659Y-91677500D01*
X79385063Y-91442092D01*
X79323903Y-91213837D01*
X79224035Y-90999671D01*
X79116504Y-90846099D01*
X79088494Y-90806097D01*
X78921402Y-90639006D01*
X78921396Y-90639001D01*
X78735842Y-90509075D01*
X78692217Y-90454498D01*
X78685023Y-90385000D01*
X78716546Y-90322645D01*
X78735842Y-90305925D01*
X78758026Y-90290391D01*
X78921401Y-90175995D01*
X79088495Y-90008901D01*
X79224035Y-89815330D01*
X79323903Y-89601163D01*
X79385063Y-89372908D01*
X79405659Y-89137500D01*
X79385063Y-88902092D01*
X79323903Y-88673837D01*
X79224035Y-88459671D01*
X79116503Y-88306099D01*
X79088496Y-88266100D01*
X79088495Y-88266099D01*
X78966567Y-88144171D01*
X78933084Y-88082851D01*
X78938068Y-88013159D01*
X78979939Y-87957225D01*
X79010915Y-87940310D01*
X79142331Y-87891296D01*
X79257546Y-87805046D01*
X79343796Y-87689831D01*
X79394091Y-87554983D01*
X79400500Y-87495373D01*
X79400499Y-85699628D01*
X79394091Y-85640017D01*
X79373659Y-85585237D01*
X79343797Y-85505171D01*
X79343793Y-85505164D01*
X79257547Y-85389955D01*
X79257544Y-85389952D01*
X79142335Y-85303706D01*
X79142328Y-85303702D01*
X79007482Y-85253408D01*
X79007483Y-85253408D01*
X78947883Y-85247001D01*
X78947881Y-85247000D01*
X78947873Y-85247000D01*
X78947864Y-85247000D01*
X77152129Y-85247000D01*
X77152123Y-85247001D01*
X77092516Y-85253408D01*
X76957671Y-85303702D01*
X76957664Y-85303706D01*
X76842455Y-85389952D01*
X76842452Y-85389955D01*
X76756206Y-85505164D01*
X76756202Y-85505171D01*
X76705908Y-85640017D01*
X76699501Y-85699616D01*
X76699501Y-85699623D01*
X76699500Y-85699635D01*
X76699500Y-87495370D01*
X76699501Y-87495376D01*
X76705908Y-87554983D01*
X76756202Y-87689828D01*
X76756206Y-87689835D01*
X76842452Y-87805044D01*
X76842455Y-87805047D01*
X76957664Y-87891293D01*
X76957671Y-87891297D01*
X77089081Y-87940310D01*
X77145015Y-87982181D01*
X77169432Y-88047645D01*
X77154580Y-88115918D01*
X77133430Y-88144173D01*
X77011503Y-88266100D01*
X76875965Y-88459669D01*
X76875964Y-88459671D01*
X76776098Y-88673835D01*
X76776094Y-88673844D01*
X76714938Y-88902086D01*
X76714936Y-88902096D01*
X76694341Y-89137499D01*
X76300500Y-89137499D01*
X76300500Y-80212000D01*
X76320185Y-80144961D01*
X76372989Y-80099206D01*
X76424500Y-80088000D01*
X106425500Y-80088000D01*
X106492539Y-80107685D01*
G37*
%TD.AperFunction*%
%TA.AperFunction,Conductor*%
G36*
X92110000Y-83418133D02*
G01*
X92323483Y-83360933D01*
X92323492Y-83360929D01*
X92537578Y-83261100D01*
X92731078Y-83125608D01*
X92853133Y-83003553D01*
X92914456Y-82970068D01*
X92984148Y-82975052D01*
X93040082Y-83016923D01*
X93056997Y-83047901D01*
X93106202Y-83179828D01*
X93106206Y-83179835D01*
X93192452Y-83295044D01*
X93192455Y-83295047D01*
X93307664Y-83381293D01*
X93307671Y-83381297D01*
X93352618Y-83398061D01*
X93442517Y-83431591D01*
X93502127Y-83438000D01*
X93675500Y-83437999D01*
X93742539Y-83457683D01*
X93788294Y-83510487D01*
X93799500Y-83561999D01*
X93799500Y-84863000D01*
X93779815Y-84930039D01*
X93727011Y-84975794D01*
X93675500Y-84987000D01*
X92632412Y-84987000D01*
X92565373Y-84967315D01*
X92555097Y-84959945D01*
X92552263Y-84957685D01*
X92552262Y-84957684D01*
X92445128Y-84890367D01*
X92399523Y-84861711D01*
X92229254Y-84802131D01*
X92229249Y-84802130D01*
X92050004Y-84781935D01*
X92049996Y-84781935D01*
X91870750Y-84802130D01*
X91870745Y-84802131D01*
X91700476Y-84861711D01*
X91547736Y-84957685D01*
X91544903Y-84959945D01*
X91542724Y-84960834D01*
X91541842Y-84961389D01*
X91541744Y-84961234D01*
X91480217Y-84986355D01*
X91467588Y-84987000D01*
X90132412Y-84987000D01*
X90065373Y-84967315D01*
X90055097Y-84959945D01*
X90052263Y-84957685D01*
X90052262Y-84957684D01*
X89945128Y-84890367D01*
X89899523Y-84861711D01*
X89729254Y-84802131D01*
X89729249Y-84802130D01*
X89550004Y-84781935D01*
X89549996Y-84781935D01*
X89370750Y-84802130D01*
X89370745Y-84802131D01*
X89200476Y-84861711D01*
X89047736Y-84957685D01*
X89044903Y-84959945D01*
X89042724Y-84960834D01*
X89041842Y-84961389D01*
X89041744Y-84961234D01*
X88980217Y-84986355D01*
X88967588Y-84987000D01*
X87632412Y-84987000D01*
X87565373Y-84967315D01*
X87555097Y-84959945D01*
X87552263Y-84957685D01*
X87552262Y-84957684D01*
X87528415Y-84942699D01*
X87482125Y-84890367D01*
X87471476Y-84821313D01*
X87499851Y-84757465D01*
X87506695Y-84750038D01*
X88836470Y-83420263D01*
X88897791Y-83386780D01*
X88956238Y-83388170D01*
X89084592Y-83422563D01*
X89261034Y-83438000D01*
X89319999Y-83443159D01*
X89320000Y-83443159D01*
X89320001Y-83443159D01*
X89378966Y-83438000D01*
X89555408Y-83422563D01*
X89783663Y-83361403D01*
X89997830Y-83261535D01*
X90191401Y-83125995D01*
X90358495Y-82958901D01*
X90488730Y-82772905D01*
X90543307Y-82729281D01*
X90612805Y-82722087D01*
X90675160Y-82753610D01*
X90691879Y-82772905D01*
X90821890Y-82958578D01*
X90988917Y-83125605D01*
X91182421Y-83261100D01*
X91396507Y-83360929D01*
X91396516Y-83360933D01*
X91610000Y-83418134D01*
X91610000Y-82520512D01*
X91667007Y-82553425D01*
X91794174Y-82587500D01*
X91925826Y-82587500D01*
X92052993Y-82553425D01*
X92110000Y-82520512D01*
X92110000Y-83418133D01*
G37*
%TD.AperFunction*%
%TD*%
M02*
