%TF.GenerationSoftware,KiCad,Pcbnew,8.0.3-8.0.3-0~ubuntu22.04.1*%
%TF.CreationDate,2024-06-23T17:20:52+09:00*%
%TF.ProjectId,PCA9685_ver1,50434139-3638-4355-9f76-6572312e6b69,rev?*%
%TF.SameCoordinates,Original*%
%TF.FileFunction,Drillmap*%
%TF.FilePolarity,Positive*%
%FSLAX45Y45*%
G04 Gerber Fmt 4.5, Leading zero omitted, Abs format (unit mm)*
G04 Created by KiCad (PCBNEW 8.0.3-8.0.3-0~ubuntu22.04.1) date 2024-06-23 17:20:52*
%MOMM*%
%LPD*%
G01*
G04 APERTURE LIST*
%ADD10C,0.050000*%
%ADD11C,0.200000*%
G04 APERTURE END LIST*
D10*
X7580000Y-7958750D02*
X10705000Y-7958750D01*
X10705000Y-10783750D01*
X7580000Y-10783750D01*
X7580000Y-7958750D01*
D11*
X7838277Y-11097734D02*
X7838277Y-10897734D01*
X7838277Y-10897734D02*
X7885896Y-10897734D01*
X7885896Y-10897734D02*
X7914467Y-10907258D01*
X7914467Y-10907258D02*
X7933515Y-10926305D01*
X7933515Y-10926305D02*
X7943039Y-10945353D01*
X7943039Y-10945353D02*
X7952562Y-10983448D01*
X7952562Y-10983448D02*
X7952562Y-11012020D01*
X7952562Y-11012020D02*
X7943039Y-11050115D01*
X7943039Y-11050115D02*
X7933515Y-11069162D01*
X7933515Y-11069162D02*
X7914467Y-11088210D01*
X7914467Y-11088210D02*
X7885896Y-11097734D01*
X7885896Y-11097734D02*
X7838277Y-11097734D01*
X8038277Y-11097734D02*
X8038277Y-10964400D01*
X8038277Y-11002496D02*
X8047801Y-10983448D01*
X8047801Y-10983448D02*
X8057324Y-10973924D01*
X8057324Y-10973924D02*
X8076372Y-10964400D01*
X8076372Y-10964400D02*
X8095420Y-10964400D01*
X8162086Y-11097734D02*
X8162086Y-10964400D01*
X8162086Y-10897734D02*
X8152562Y-10907258D01*
X8152562Y-10907258D02*
X8162086Y-10916781D01*
X8162086Y-10916781D02*
X8171610Y-10907258D01*
X8171610Y-10907258D02*
X8162086Y-10897734D01*
X8162086Y-10897734D02*
X8162086Y-10916781D01*
X8285896Y-11097734D02*
X8266848Y-11088210D01*
X8266848Y-11088210D02*
X8257324Y-11069162D01*
X8257324Y-11069162D02*
X8257324Y-10897734D01*
X8390658Y-11097734D02*
X8371610Y-11088210D01*
X8371610Y-11088210D02*
X8362086Y-11069162D01*
X8362086Y-11069162D02*
X8362086Y-10897734D01*
X8619229Y-11097734D02*
X8619229Y-10897734D01*
X8619229Y-10897734D02*
X8685896Y-11040591D01*
X8685896Y-11040591D02*
X8752563Y-10897734D01*
X8752563Y-10897734D02*
X8752563Y-11097734D01*
X8933515Y-11097734D02*
X8933515Y-10992972D01*
X8933515Y-10992972D02*
X8923991Y-10973924D01*
X8923991Y-10973924D02*
X8904944Y-10964400D01*
X8904944Y-10964400D02*
X8866848Y-10964400D01*
X8866848Y-10964400D02*
X8847801Y-10973924D01*
X8933515Y-11088210D02*
X8914467Y-11097734D01*
X8914467Y-11097734D02*
X8866848Y-11097734D01*
X8866848Y-11097734D02*
X8847801Y-11088210D01*
X8847801Y-11088210D02*
X8838277Y-11069162D01*
X8838277Y-11069162D02*
X8838277Y-11050115D01*
X8838277Y-11050115D02*
X8847801Y-11031067D01*
X8847801Y-11031067D02*
X8866848Y-11021543D01*
X8866848Y-11021543D02*
X8914467Y-11021543D01*
X8914467Y-11021543D02*
X8933515Y-11012020D01*
X9028753Y-10964400D02*
X9028753Y-11164400D01*
X9028753Y-10973924D02*
X9047801Y-10964400D01*
X9047801Y-10964400D02*
X9085896Y-10964400D01*
X9085896Y-10964400D02*
X9104944Y-10973924D01*
X9104944Y-10973924D02*
X9114467Y-10983448D01*
X9114467Y-10983448D02*
X9123991Y-11002496D01*
X9123991Y-11002496D02*
X9123991Y-11059639D01*
X9123991Y-11059639D02*
X9114467Y-11078686D01*
X9114467Y-11078686D02*
X9104944Y-11088210D01*
X9104944Y-11088210D02*
X9085896Y-11097734D01*
X9085896Y-11097734D02*
X9047801Y-11097734D01*
X9047801Y-11097734D02*
X9028753Y-11088210D01*
X9209705Y-11078686D02*
X9219229Y-11088210D01*
X9219229Y-11088210D02*
X9209705Y-11097734D01*
X9209705Y-11097734D02*
X9200182Y-11088210D01*
X9200182Y-11088210D02*
X9209705Y-11078686D01*
X9209705Y-11078686D02*
X9209705Y-11097734D01*
X9209705Y-10973924D02*
X9219229Y-10983448D01*
X9219229Y-10983448D02*
X9209705Y-10992972D01*
X9209705Y-10992972D02*
X9200182Y-10983448D01*
X9200182Y-10983448D02*
X9209705Y-10973924D01*
X9209705Y-10973924D02*
X9209705Y-10992972D01*
M02*
