M48
; DRILL file {KiCad 8.0.4-8.0.4-0~ubuntu24.04.1} date 2024-09-08T15:52:31+0900
; FORMAT={-:-/ absolute / inch / decimal}
; #@! TF.CreationDate,2024-09-08T15:52:31+09:00
; #@! TF.GenerationSoftware,Kicad,Pcbnew,8.0.4-8.0.4-0~ubuntu24.04.1
; #@! TF.FileFunction,Plated,1,2,PTH
FMAT,2
INCH
; #@! TA.AperFunction,Plated,PTH,ComponentDrill
T1C0.0394
%
G90
G05
T1
X5.4429Y-3.7195
X5.4429Y-3.8195
X5.4429Y-4.2018
X5.4429Y-4.3018
X5.4429Y-4.6841
X5.4429Y-4.7841
X5.6791Y-3.7195
X5.6791Y-3.8195
X5.6791Y-4.2018
X5.6791Y-4.3018
X5.6791Y-4.6835
X5.6791Y-4.7835
X5.8366Y-3.7303
X5.8366Y-3.8303
X5.8366Y-3.9303
X5.8366Y-4.0303
X5.8366Y-4.1303
X5.8366Y-4.2303
X5.8366Y-4.3303
X5.8366Y-4.4303
X5.8366Y-4.5303
X5.8366Y-4.6303
X5.8366Y-4.7303
X5.8366Y-4.8303
M30
