%TF.GenerationSoftware,KiCad,Pcbnew,8.0.4-8.0.4-0~ubuntu24.04.1*%
%TF.CreationDate,2024-09-08T15:52:32+09:00*%
%TF.ProjectId,Battery_joint,42617474-6572-4795-9f6a-6f696e742e6b,rev?*%
%TF.SameCoordinates,Original*%
%TF.FileFunction,Drillmap*%
%TF.FilePolarity,Positive*%
%FSLAX45Y45*%
G04 Gerber Fmt 4.5, Leading zero omitted, Abs format (unit mm)*
G04 Created by KiCad (PCBNEW 8.0.4-8.0.4-0~ubuntu24.04.1) date 2024-09-08 15:52:32*
%MOMM*%
%LPD*%
G01*
G04 APERTURE LIST*
%ADD10C,0.050000*%
%ADD11C,0.200000*%
%ADD12C,0.100000*%
G04 APERTURE END LIST*
D10*
X13425000Y-9200000D02*
X15175000Y-9200000D01*
X15175000Y-12550000D01*
X13425000Y-12550000D01*
X13425000Y-9200000D01*
D11*
D12*
X13775000Y-9397500D02*
X13875000Y-9497500D01*
X13875000Y-9397500D02*
X13775000Y-9497500D01*
X13775000Y-9651500D02*
X13875000Y-9751500D01*
X13875000Y-9651500D02*
X13775000Y-9751500D01*
X13775000Y-10622500D02*
X13875000Y-10722500D01*
X13875000Y-10622500D02*
X13775000Y-10722500D01*
X13775000Y-10876500D02*
X13875000Y-10976500D01*
X13875000Y-10876500D02*
X13775000Y-10976500D01*
X13775000Y-11847500D02*
X13875000Y-11947500D01*
X13875000Y-11847500D02*
X13775000Y-11947500D01*
X13775000Y-12101500D02*
X13875000Y-12201500D01*
X13875000Y-12101500D02*
X13775000Y-12201500D01*
X14375000Y-9397500D02*
X14475000Y-9497500D01*
X14475000Y-9397500D02*
X14375000Y-9497500D01*
X14375000Y-9651500D02*
X14475000Y-9751500D01*
X14475000Y-9651500D02*
X14375000Y-9751500D01*
X14375000Y-10622500D02*
X14475000Y-10722500D01*
X14475000Y-10622500D02*
X14375000Y-10722500D01*
X14375000Y-10876500D02*
X14475000Y-10976500D01*
X14475000Y-10876500D02*
X14375000Y-10976500D01*
X14375000Y-11846000D02*
X14475000Y-11946000D01*
X14475000Y-11846000D02*
X14375000Y-11946000D01*
X14375000Y-12100000D02*
X14475000Y-12200000D01*
X14475000Y-12100000D02*
X14375000Y-12200000D01*
X14775000Y-9425000D02*
X14875000Y-9525000D01*
X14875000Y-9425000D02*
X14775000Y-9525000D01*
X14775000Y-9679000D02*
X14875000Y-9779000D01*
X14875000Y-9679000D02*
X14775000Y-9779000D01*
X14775000Y-9933000D02*
X14875000Y-10033000D01*
X14875000Y-9933000D02*
X14775000Y-10033000D01*
X14775000Y-10187000D02*
X14875000Y-10287000D01*
X14875000Y-10187000D02*
X14775000Y-10287000D01*
X14775000Y-10441000D02*
X14875000Y-10541000D01*
X14875000Y-10441000D02*
X14775000Y-10541000D01*
X14775000Y-10695000D02*
X14875000Y-10795000D01*
X14875000Y-10695000D02*
X14775000Y-10795000D01*
X14775000Y-10949000D02*
X14875000Y-11049000D01*
X14875000Y-10949000D02*
X14775000Y-11049000D01*
X14775000Y-11203000D02*
X14875000Y-11303000D01*
X14875000Y-11203000D02*
X14775000Y-11303000D01*
X14775000Y-11457000D02*
X14875000Y-11557000D01*
X14875000Y-11457000D02*
X14775000Y-11557000D01*
X14775000Y-11711000D02*
X14875000Y-11811000D01*
X14875000Y-11711000D02*
X14775000Y-11811000D01*
X14775000Y-11965000D02*
X14875000Y-12065000D01*
X14875000Y-11965000D02*
X14775000Y-12065000D01*
X14775000Y-12219000D02*
X14875000Y-12319000D01*
X14875000Y-12219000D02*
X14775000Y-12319000D01*
D11*
X13683277Y-12863984D02*
X13683277Y-12663984D01*
X13683277Y-12663984D02*
X13730896Y-12663984D01*
X13730896Y-12663984D02*
X13759467Y-12673508D01*
X13759467Y-12673508D02*
X13778515Y-12692555D01*
X13778515Y-12692555D02*
X13788039Y-12711603D01*
X13788039Y-12711603D02*
X13797562Y-12749698D01*
X13797562Y-12749698D02*
X13797562Y-12778269D01*
X13797562Y-12778269D02*
X13788039Y-12816365D01*
X13788039Y-12816365D02*
X13778515Y-12835412D01*
X13778515Y-12835412D02*
X13759467Y-12854460D01*
X13759467Y-12854460D02*
X13730896Y-12863984D01*
X13730896Y-12863984D02*
X13683277Y-12863984D01*
X13883277Y-12863984D02*
X13883277Y-12730650D01*
X13883277Y-12768746D02*
X13892801Y-12749698D01*
X13892801Y-12749698D02*
X13902324Y-12740174D01*
X13902324Y-12740174D02*
X13921372Y-12730650D01*
X13921372Y-12730650D02*
X13940420Y-12730650D01*
X14007086Y-12863984D02*
X14007086Y-12730650D01*
X14007086Y-12663984D02*
X13997562Y-12673508D01*
X13997562Y-12673508D02*
X14007086Y-12683031D01*
X14007086Y-12683031D02*
X14016610Y-12673508D01*
X14016610Y-12673508D02*
X14007086Y-12663984D01*
X14007086Y-12663984D02*
X14007086Y-12683031D01*
X14130896Y-12863984D02*
X14111848Y-12854460D01*
X14111848Y-12854460D02*
X14102324Y-12835412D01*
X14102324Y-12835412D02*
X14102324Y-12663984D01*
X14235658Y-12863984D02*
X14216610Y-12854460D01*
X14216610Y-12854460D02*
X14207086Y-12835412D01*
X14207086Y-12835412D02*
X14207086Y-12663984D01*
X14464229Y-12863984D02*
X14464229Y-12663984D01*
X14464229Y-12663984D02*
X14530896Y-12806841D01*
X14530896Y-12806841D02*
X14597562Y-12663984D01*
X14597562Y-12663984D02*
X14597562Y-12863984D01*
X14778515Y-12863984D02*
X14778515Y-12759222D01*
X14778515Y-12759222D02*
X14768991Y-12740174D01*
X14768991Y-12740174D02*
X14749943Y-12730650D01*
X14749943Y-12730650D02*
X14711848Y-12730650D01*
X14711848Y-12730650D02*
X14692801Y-12740174D01*
X14778515Y-12854460D02*
X14759467Y-12863984D01*
X14759467Y-12863984D02*
X14711848Y-12863984D01*
X14711848Y-12863984D02*
X14692801Y-12854460D01*
X14692801Y-12854460D02*
X14683277Y-12835412D01*
X14683277Y-12835412D02*
X14683277Y-12816365D01*
X14683277Y-12816365D02*
X14692801Y-12797317D01*
X14692801Y-12797317D02*
X14711848Y-12787793D01*
X14711848Y-12787793D02*
X14759467Y-12787793D01*
X14759467Y-12787793D02*
X14778515Y-12778269D01*
X14873753Y-12730650D02*
X14873753Y-12930650D01*
X14873753Y-12740174D02*
X14892801Y-12730650D01*
X14892801Y-12730650D02*
X14930896Y-12730650D01*
X14930896Y-12730650D02*
X14949943Y-12740174D01*
X14949943Y-12740174D02*
X14959467Y-12749698D01*
X14959467Y-12749698D02*
X14968991Y-12768746D01*
X14968991Y-12768746D02*
X14968991Y-12825888D01*
X14968991Y-12825888D02*
X14959467Y-12844936D01*
X14959467Y-12844936D02*
X14949943Y-12854460D01*
X14949943Y-12854460D02*
X14930896Y-12863984D01*
X14930896Y-12863984D02*
X14892801Y-12863984D01*
X14892801Y-12863984D02*
X14873753Y-12854460D01*
X15054705Y-12844936D02*
X15064229Y-12854460D01*
X15064229Y-12854460D02*
X15054705Y-12863984D01*
X15054705Y-12863984D02*
X15045182Y-12854460D01*
X15045182Y-12854460D02*
X15054705Y-12844936D01*
X15054705Y-12844936D02*
X15054705Y-12863984D01*
X15054705Y-12740174D02*
X15064229Y-12749698D01*
X15064229Y-12749698D02*
X15054705Y-12759222D01*
X15054705Y-12759222D02*
X15045182Y-12749698D01*
X15045182Y-12749698D02*
X15054705Y-12740174D01*
X15054705Y-12740174D02*
X15054705Y-12759222D01*
D12*
X13322500Y-13142500D02*
X13422500Y-13242500D01*
X13422500Y-13142500D02*
X13322500Y-13242500D01*
D11*
X13788039Y-13283984D02*
X13673753Y-13283984D01*
X13730896Y-13283984D02*
X13730896Y-13083984D01*
X13730896Y-13083984D02*
X13711848Y-13112555D01*
X13711848Y-13112555D02*
X13692801Y-13131603D01*
X13692801Y-13131603D02*
X13673753Y-13141127D01*
X13873753Y-13264936D02*
X13883277Y-13274460D01*
X13883277Y-13274460D02*
X13873753Y-13283984D01*
X13873753Y-13283984D02*
X13864229Y-13274460D01*
X13864229Y-13274460D02*
X13873753Y-13264936D01*
X13873753Y-13264936D02*
X13873753Y-13283984D01*
X14007086Y-13083984D02*
X14026134Y-13083984D01*
X14026134Y-13083984D02*
X14045182Y-13093508D01*
X14045182Y-13093508D02*
X14054705Y-13103031D01*
X14054705Y-13103031D02*
X14064229Y-13122079D01*
X14064229Y-13122079D02*
X14073753Y-13160174D01*
X14073753Y-13160174D02*
X14073753Y-13207793D01*
X14073753Y-13207793D02*
X14064229Y-13245888D01*
X14064229Y-13245888D02*
X14054705Y-13264936D01*
X14054705Y-13264936D02*
X14045182Y-13274460D01*
X14045182Y-13274460D02*
X14026134Y-13283984D01*
X14026134Y-13283984D02*
X14007086Y-13283984D01*
X14007086Y-13283984D02*
X13988039Y-13274460D01*
X13988039Y-13274460D02*
X13978515Y-13264936D01*
X13978515Y-13264936D02*
X13968991Y-13245888D01*
X13968991Y-13245888D02*
X13959467Y-13207793D01*
X13959467Y-13207793D02*
X13959467Y-13160174D01*
X13959467Y-13160174D02*
X13968991Y-13122079D01*
X13968991Y-13122079D02*
X13978515Y-13103031D01*
X13978515Y-13103031D02*
X13988039Y-13093508D01*
X13988039Y-13093508D02*
X14007086Y-13083984D01*
X14197562Y-13083984D02*
X14216610Y-13083984D01*
X14216610Y-13083984D02*
X14235658Y-13093508D01*
X14235658Y-13093508D02*
X14245182Y-13103031D01*
X14245182Y-13103031D02*
X14254705Y-13122079D01*
X14254705Y-13122079D02*
X14264229Y-13160174D01*
X14264229Y-13160174D02*
X14264229Y-13207793D01*
X14264229Y-13207793D02*
X14254705Y-13245888D01*
X14254705Y-13245888D02*
X14245182Y-13264936D01*
X14245182Y-13264936D02*
X14235658Y-13274460D01*
X14235658Y-13274460D02*
X14216610Y-13283984D01*
X14216610Y-13283984D02*
X14197562Y-13283984D01*
X14197562Y-13283984D02*
X14178515Y-13274460D01*
X14178515Y-13274460D02*
X14168991Y-13264936D01*
X14168991Y-13264936D02*
X14159467Y-13245888D01*
X14159467Y-13245888D02*
X14149943Y-13207793D01*
X14149943Y-13207793D02*
X14149943Y-13160174D01*
X14149943Y-13160174D02*
X14159467Y-13122079D01*
X14159467Y-13122079D02*
X14168991Y-13103031D01*
X14168991Y-13103031D02*
X14178515Y-13093508D01*
X14178515Y-13093508D02*
X14197562Y-13083984D01*
X14388039Y-13083984D02*
X14407086Y-13083984D01*
X14407086Y-13083984D02*
X14426134Y-13093508D01*
X14426134Y-13093508D02*
X14435658Y-13103031D01*
X14435658Y-13103031D02*
X14445182Y-13122079D01*
X14445182Y-13122079D02*
X14454705Y-13160174D01*
X14454705Y-13160174D02*
X14454705Y-13207793D01*
X14454705Y-13207793D02*
X14445182Y-13245888D01*
X14445182Y-13245888D02*
X14435658Y-13264936D01*
X14435658Y-13264936D02*
X14426134Y-13274460D01*
X14426134Y-13274460D02*
X14407086Y-13283984D01*
X14407086Y-13283984D02*
X14388039Y-13283984D01*
X14388039Y-13283984D02*
X14368991Y-13274460D01*
X14368991Y-13274460D02*
X14359467Y-13264936D01*
X14359467Y-13264936D02*
X14349943Y-13245888D01*
X14349943Y-13245888D02*
X14340420Y-13207793D01*
X14340420Y-13207793D02*
X14340420Y-13160174D01*
X14340420Y-13160174D02*
X14349943Y-13122079D01*
X14349943Y-13122079D02*
X14359467Y-13103031D01*
X14359467Y-13103031D02*
X14368991Y-13093508D01*
X14368991Y-13093508D02*
X14388039Y-13083984D01*
X14540420Y-13283984D02*
X14540420Y-13150650D01*
X14540420Y-13169698D02*
X14549943Y-13160174D01*
X14549943Y-13160174D02*
X14568991Y-13150650D01*
X14568991Y-13150650D02*
X14597563Y-13150650D01*
X14597563Y-13150650D02*
X14616610Y-13160174D01*
X14616610Y-13160174D02*
X14626134Y-13179222D01*
X14626134Y-13179222D02*
X14626134Y-13283984D01*
X14626134Y-13179222D02*
X14635658Y-13160174D01*
X14635658Y-13160174D02*
X14654705Y-13150650D01*
X14654705Y-13150650D02*
X14683277Y-13150650D01*
X14683277Y-13150650D02*
X14702324Y-13160174D01*
X14702324Y-13160174D02*
X14711848Y-13179222D01*
X14711848Y-13179222D02*
X14711848Y-13283984D01*
X14807086Y-13283984D02*
X14807086Y-13150650D01*
X14807086Y-13169698D02*
X14816610Y-13160174D01*
X14816610Y-13160174D02*
X14835658Y-13150650D01*
X14835658Y-13150650D02*
X14864229Y-13150650D01*
X14864229Y-13150650D02*
X14883277Y-13160174D01*
X14883277Y-13160174D02*
X14892801Y-13179222D01*
X14892801Y-13179222D02*
X14892801Y-13283984D01*
X14892801Y-13179222D02*
X14902324Y-13160174D01*
X14902324Y-13160174D02*
X14921372Y-13150650D01*
X14921372Y-13150650D02*
X14949943Y-13150650D01*
X14949943Y-13150650D02*
X14968991Y-13160174D01*
X14968991Y-13160174D02*
X14978515Y-13179222D01*
X14978515Y-13179222D02*
X14978515Y-13283984D01*
X15368991Y-13074460D02*
X15197563Y-13331603D01*
X15626134Y-13083984D02*
X15645182Y-13083984D01*
X15645182Y-13083984D02*
X15664229Y-13093508D01*
X15664229Y-13093508D02*
X15673753Y-13103031D01*
X15673753Y-13103031D02*
X15683277Y-13122079D01*
X15683277Y-13122079D02*
X15692801Y-13160174D01*
X15692801Y-13160174D02*
X15692801Y-13207793D01*
X15692801Y-13207793D02*
X15683277Y-13245888D01*
X15683277Y-13245888D02*
X15673753Y-13264936D01*
X15673753Y-13264936D02*
X15664229Y-13274460D01*
X15664229Y-13274460D02*
X15645182Y-13283984D01*
X15645182Y-13283984D02*
X15626134Y-13283984D01*
X15626134Y-13283984D02*
X15607086Y-13274460D01*
X15607086Y-13274460D02*
X15597563Y-13264936D01*
X15597563Y-13264936D02*
X15588039Y-13245888D01*
X15588039Y-13245888D02*
X15578515Y-13207793D01*
X15578515Y-13207793D02*
X15578515Y-13160174D01*
X15578515Y-13160174D02*
X15588039Y-13122079D01*
X15588039Y-13122079D02*
X15597563Y-13103031D01*
X15597563Y-13103031D02*
X15607086Y-13093508D01*
X15607086Y-13093508D02*
X15626134Y-13083984D01*
X15778515Y-13264936D02*
X15788039Y-13274460D01*
X15788039Y-13274460D02*
X15778515Y-13283984D01*
X15778515Y-13283984D02*
X15768991Y-13274460D01*
X15768991Y-13274460D02*
X15778515Y-13264936D01*
X15778515Y-13264936D02*
X15778515Y-13283984D01*
X15911848Y-13083984D02*
X15930896Y-13083984D01*
X15930896Y-13083984D02*
X15949944Y-13093508D01*
X15949944Y-13093508D02*
X15959467Y-13103031D01*
X15959467Y-13103031D02*
X15968991Y-13122079D01*
X15968991Y-13122079D02*
X15978515Y-13160174D01*
X15978515Y-13160174D02*
X15978515Y-13207793D01*
X15978515Y-13207793D02*
X15968991Y-13245888D01*
X15968991Y-13245888D02*
X15959467Y-13264936D01*
X15959467Y-13264936D02*
X15949944Y-13274460D01*
X15949944Y-13274460D02*
X15930896Y-13283984D01*
X15930896Y-13283984D02*
X15911848Y-13283984D01*
X15911848Y-13283984D02*
X15892801Y-13274460D01*
X15892801Y-13274460D02*
X15883277Y-13264936D01*
X15883277Y-13264936D02*
X15873753Y-13245888D01*
X15873753Y-13245888D02*
X15864229Y-13207793D01*
X15864229Y-13207793D02*
X15864229Y-13160174D01*
X15864229Y-13160174D02*
X15873753Y-13122079D01*
X15873753Y-13122079D02*
X15883277Y-13103031D01*
X15883277Y-13103031D02*
X15892801Y-13093508D01*
X15892801Y-13093508D02*
X15911848Y-13083984D01*
X16045182Y-13083984D02*
X16168991Y-13083984D01*
X16168991Y-13083984D02*
X16102325Y-13160174D01*
X16102325Y-13160174D02*
X16130896Y-13160174D01*
X16130896Y-13160174D02*
X16149944Y-13169698D01*
X16149944Y-13169698D02*
X16159467Y-13179222D01*
X16159467Y-13179222D02*
X16168991Y-13198269D01*
X16168991Y-13198269D02*
X16168991Y-13245888D01*
X16168991Y-13245888D02*
X16159467Y-13264936D01*
X16159467Y-13264936D02*
X16149944Y-13274460D01*
X16149944Y-13274460D02*
X16130896Y-13283984D01*
X16130896Y-13283984D02*
X16073753Y-13283984D01*
X16073753Y-13283984D02*
X16054706Y-13274460D01*
X16054706Y-13274460D02*
X16045182Y-13264936D01*
X16264229Y-13283984D02*
X16302325Y-13283984D01*
X16302325Y-13283984D02*
X16321372Y-13274460D01*
X16321372Y-13274460D02*
X16330896Y-13264936D01*
X16330896Y-13264936D02*
X16349944Y-13236365D01*
X16349944Y-13236365D02*
X16359467Y-13198269D01*
X16359467Y-13198269D02*
X16359467Y-13122079D01*
X16359467Y-13122079D02*
X16349944Y-13103031D01*
X16349944Y-13103031D02*
X16340420Y-13093508D01*
X16340420Y-13093508D02*
X16321372Y-13083984D01*
X16321372Y-13083984D02*
X16283277Y-13083984D01*
X16283277Y-13083984D02*
X16264229Y-13093508D01*
X16264229Y-13093508D02*
X16254706Y-13103031D01*
X16254706Y-13103031D02*
X16245182Y-13122079D01*
X16245182Y-13122079D02*
X16245182Y-13169698D01*
X16245182Y-13169698D02*
X16254706Y-13188746D01*
X16254706Y-13188746D02*
X16264229Y-13198269D01*
X16264229Y-13198269D02*
X16283277Y-13207793D01*
X16283277Y-13207793D02*
X16321372Y-13207793D01*
X16321372Y-13207793D02*
X16340420Y-13198269D01*
X16340420Y-13198269D02*
X16349944Y-13188746D01*
X16349944Y-13188746D02*
X16359467Y-13169698D01*
X16530896Y-13150650D02*
X16530896Y-13283984D01*
X16483277Y-13074460D02*
X16435658Y-13217317D01*
X16435658Y-13217317D02*
X16559467Y-13217317D01*
X16626134Y-13083984D02*
X16626134Y-13122079D01*
X16702325Y-13083984D02*
X16702325Y-13122079D01*
X16997563Y-13360174D02*
X16988039Y-13350650D01*
X16988039Y-13350650D02*
X16968991Y-13322079D01*
X16968991Y-13322079D02*
X16959468Y-13303031D01*
X16959468Y-13303031D02*
X16949944Y-13274460D01*
X16949944Y-13274460D02*
X16940420Y-13226841D01*
X16940420Y-13226841D02*
X16940420Y-13188746D01*
X16940420Y-13188746D02*
X16949944Y-13141127D01*
X16949944Y-13141127D02*
X16959468Y-13112555D01*
X16959468Y-13112555D02*
X16968991Y-13093508D01*
X16968991Y-13093508D02*
X16988039Y-13064936D01*
X16988039Y-13064936D02*
X16997563Y-13055412D01*
X17064230Y-13103031D02*
X17073753Y-13093508D01*
X17073753Y-13093508D02*
X17092801Y-13083984D01*
X17092801Y-13083984D02*
X17140420Y-13083984D01*
X17140420Y-13083984D02*
X17159468Y-13093508D01*
X17159468Y-13093508D02*
X17168991Y-13103031D01*
X17168991Y-13103031D02*
X17178515Y-13122079D01*
X17178515Y-13122079D02*
X17178515Y-13141127D01*
X17178515Y-13141127D02*
X17168991Y-13169698D01*
X17168991Y-13169698D02*
X17054706Y-13283984D01*
X17054706Y-13283984D02*
X17178515Y-13283984D01*
X17349944Y-13150650D02*
X17349944Y-13283984D01*
X17302325Y-13074460D02*
X17254706Y-13217317D01*
X17254706Y-13217317D02*
X17378515Y-13217317D01*
X17607087Y-13283984D02*
X17607087Y-13083984D01*
X17692801Y-13283984D02*
X17692801Y-13179222D01*
X17692801Y-13179222D02*
X17683277Y-13160174D01*
X17683277Y-13160174D02*
X17664230Y-13150650D01*
X17664230Y-13150650D02*
X17635658Y-13150650D01*
X17635658Y-13150650D02*
X17616611Y-13160174D01*
X17616611Y-13160174D02*
X17607087Y-13169698D01*
X17816611Y-13283984D02*
X17797563Y-13274460D01*
X17797563Y-13274460D02*
X17788039Y-13264936D01*
X17788039Y-13264936D02*
X17778515Y-13245888D01*
X17778515Y-13245888D02*
X17778515Y-13188746D01*
X17778515Y-13188746D02*
X17788039Y-13169698D01*
X17788039Y-13169698D02*
X17797563Y-13160174D01*
X17797563Y-13160174D02*
X17816611Y-13150650D01*
X17816611Y-13150650D02*
X17845182Y-13150650D01*
X17845182Y-13150650D02*
X17864230Y-13160174D01*
X17864230Y-13160174D02*
X17873753Y-13169698D01*
X17873753Y-13169698D02*
X17883277Y-13188746D01*
X17883277Y-13188746D02*
X17883277Y-13245888D01*
X17883277Y-13245888D02*
X17873753Y-13264936D01*
X17873753Y-13264936D02*
X17864230Y-13274460D01*
X17864230Y-13274460D02*
X17845182Y-13283984D01*
X17845182Y-13283984D02*
X17816611Y-13283984D01*
X17997563Y-13283984D02*
X17978515Y-13274460D01*
X17978515Y-13274460D02*
X17968992Y-13255412D01*
X17968992Y-13255412D02*
X17968992Y-13083984D01*
X18149944Y-13274460D02*
X18130896Y-13283984D01*
X18130896Y-13283984D02*
X18092801Y-13283984D01*
X18092801Y-13283984D02*
X18073753Y-13274460D01*
X18073753Y-13274460D02*
X18064230Y-13255412D01*
X18064230Y-13255412D02*
X18064230Y-13179222D01*
X18064230Y-13179222D02*
X18073753Y-13160174D01*
X18073753Y-13160174D02*
X18092801Y-13150650D01*
X18092801Y-13150650D02*
X18130896Y-13150650D01*
X18130896Y-13150650D02*
X18149944Y-13160174D01*
X18149944Y-13160174D02*
X18159468Y-13179222D01*
X18159468Y-13179222D02*
X18159468Y-13198269D01*
X18159468Y-13198269D02*
X18064230Y-13217317D01*
X18235658Y-13274460D02*
X18254706Y-13283984D01*
X18254706Y-13283984D02*
X18292801Y-13283984D01*
X18292801Y-13283984D02*
X18311849Y-13274460D01*
X18311849Y-13274460D02*
X18321373Y-13255412D01*
X18321373Y-13255412D02*
X18321373Y-13245888D01*
X18321373Y-13245888D02*
X18311849Y-13226841D01*
X18311849Y-13226841D02*
X18292801Y-13217317D01*
X18292801Y-13217317D02*
X18264230Y-13217317D01*
X18264230Y-13217317D02*
X18245182Y-13207793D01*
X18245182Y-13207793D02*
X18235658Y-13188746D01*
X18235658Y-13188746D02*
X18235658Y-13179222D01*
X18235658Y-13179222D02*
X18245182Y-13160174D01*
X18245182Y-13160174D02*
X18264230Y-13150650D01*
X18264230Y-13150650D02*
X18292801Y-13150650D01*
X18292801Y-13150650D02*
X18311849Y-13160174D01*
X18388039Y-13360174D02*
X18397563Y-13350650D01*
X18397563Y-13350650D02*
X18416611Y-13322079D01*
X18416611Y-13322079D02*
X18426134Y-13303031D01*
X18426134Y-13303031D02*
X18435658Y-13274460D01*
X18435658Y-13274460D02*
X18445182Y-13226841D01*
X18445182Y-13226841D02*
X18445182Y-13188746D01*
X18445182Y-13188746D02*
X18435658Y-13141127D01*
X18435658Y-13141127D02*
X18426134Y-13112555D01*
X18426134Y-13112555D02*
X18416611Y-13093508D01*
X18416611Y-13093508D02*
X18397563Y-13064936D01*
X18397563Y-13064936D02*
X18388039Y-13055412D01*
M02*
