%TF.GenerationSoftware,KiCad,Pcbnew,8.0.4-8.0.4-0~ubuntu24.04.1*%
%TF.CreationDate,2024-09-08T15:52:32+09:00*%
%TF.ProjectId,Battery_joint,42617474-6572-4795-9f6a-6f696e742e6b,rev?*%
%TF.SameCoordinates,Original*%
%TF.FileFunction,Drillmap*%
%TF.FilePolarity,Positive*%
%FSLAX45Y45*%
G04 Gerber Fmt 4.5, Leading zero omitted, Abs format (unit mm)*
G04 Created by KiCad (PCBNEW 8.0.4-8.0.4-0~ubuntu24.04.1) date 2024-09-08 15:52:32*
%MOMM*%
%LPD*%
G01*
G04 APERTURE LIST*
%ADD10C,0.050000*%
%ADD11C,0.200000*%
G04 APERTURE END LIST*
D10*
X13425000Y-9200000D02*
X15175000Y-9200000D01*
X15175000Y-12550000D01*
X13425000Y-12550000D01*
X13425000Y-9200000D01*
D11*
X13683277Y-12863984D02*
X13683277Y-12663984D01*
X13683277Y-12663984D02*
X13730896Y-12663984D01*
X13730896Y-12663984D02*
X13759467Y-12673508D01*
X13759467Y-12673508D02*
X13778515Y-12692555D01*
X13778515Y-12692555D02*
X13788039Y-12711603D01*
X13788039Y-12711603D02*
X13797562Y-12749698D01*
X13797562Y-12749698D02*
X13797562Y-12778269D01*
X13797562Y-12778269D02*
X13788039Y-12816365D01*
X13788039Y-12816365D02*
X13778515Y-12835412D01*
X13778515Y-12835412D02*
X13759467Y-12854460D01*
X13759467Y-12854460D02*
X13730896Y-12863984D01*
X13730896Y-12863984D02*
X13683277Y-12863984D01*
X13883277Y-12863984D02*
X13883277Y-12730650D01*
X13883277Y-12768746D02*
X13892801Y-12749698D01*
X13892801Y-12749698D02*
X13902324Y-12740174D01*
X13902324Y-12740174D02*
X13921372Y-12730650D01*
X13921372Y-12730650D02*
X13940420Y-12730650D01*
X14007086Y-12863984D02*
X14007086Y-12730650D01*
X14007086Y-12663984D02*
X13997562Y-12673508D01*
X13997562Y-12673508D02*
X14007086Y-12683031D01*
X14007086Y-12683031D02*
X14016610Y-12673508D01*
X14016610Y-12673508D02*
X14007086Y-12663984D01*
X14007086Y-12663984D02*
X14007086Y-12683031D01*
X14130896Y-12863984D02*
X14111848Y-12854460D01*
X14111848Y-12854460D02*
X14102324Y-12835412D01*
X14102324Y-12835412D02*
X14102324Y-12663984D01*
X14235658Y-12863984D02*
X14216610Y-12854460D01*
X14216610Y-12854460D02*
X14207086Y-12835412D01*
X14207086Y-12835412D02*
X14207086Y-12663984D01*
X14464229Y-12863984D02*
X14464229Y-12663984D01*
X14464229Y-12663984D02*
X14530896Y-12806841D01*
X14530896Y-12806841D02*
X14597562Y-12663984D01*
X14597562Y-12663984D02*
X14597562Y-12863984D01*
X14778515Y-12863984D02*
X14778515Y-12759222D01*
X14778515Y-12759222D02*
X14768991Y-12740174D01*
X14768991Y-12740174D02*
X14749943Y-12730650D01*
X14749943Y-12730650D02*
X14711848Y-12730650D01*
X14711848Y-12730650D02*
X14692801Y-12740174D01*
X14778515Y-12854460D02*
X14759467Y-12863984D01*
X14759467Y-12863984D02*
X14711848Y-12863984D01*
X14711848Y-12863984D02*
X14692801Y-12854460D01*
X14692801Y-12854460D02*
X14683277Y-12835412D01*
X14683277Y-12835412D02*
X14683277Y-12816365D01*
X14683277Y-12816365D02*
X14692801Y-12797317D01*
X14692801Y-12797317D02*
X14711848Y-12787793D01*
X14711848Y-12787793D02*
X14759467Y-12787793D01*
X14759467Y-12787793D02*
X14778515Y-12778269D01*
X14873753Y-12730650D02*
X14873753Y-12930650D01*
X14873753Y-12740174D02*
X14892801Y-12730650D01*
X14892801Y-12730650D02*
X14930896Y-12730650D01*
X14930896Y-12730650D02*
X14949943Y-12740174D01*
X14949943Y-12740174D02*
X14959467Y-12749698D01*
X14959467Y-12749698D02*
X14968991Y-12768746D01*
X14968991Y-12768746D02*
X14968991Y-12825888D01*
X14968991Y-12825888D02*
X14959467Y-12844936D01*
X14959467Y-12844936D02*
X14949943Y-12854460D01*
X14949943Y-12854460D02*
X14930896Y-12863984D01*
X14930896Y-12863984D02*
X14892801Y-12863984D01*
X14892801Y-12863984D02*
X14873753Y-12854460D01*
X15054705Y-12844936D02*
X15064229Y-12854460D01*
X15064229Y-12854460D02*
X15054705Y-12863984D01*
X15054705Y-12863984D02*
X15045182Y-12854460D01*
X15045182Y-12854460D02*
X15054705Y-12844936D01*
X15054705Y-12844936D02*
X15054705Y-12863984D01*
X15054705Y-12740174D02*
X15064229Y-12749698D01*
X15064229Y-12749698D02*
X15054705Y-12759222D01*
X15054705Y-12759222D02*
X15045182Y-12749698D01*
X15045182Y-12749698D02*
X15054705Y-12740174D01*
X15054705Y-12740174D02*
X15054705Y-12759222D01*
M02*
