%TF.GenerationSoftware,KiCad,Pcbnew,8.0.4-8.0.4-0~ubuntu24.04.1*%
%TF.CreationDate,2024-09-08T15:52:29+09:00*%
%TF.ProjectId,Battery_joint,42617474-6572-4795-9f6a-6f696e742e6b,rev?*%
%TF.SameCoordinates,Original*%
%TF.FileFunction,Copper,L2,Bot*%
%TF.FilePolarity,Positive*%
%FSLAX46Y46*%
G04 Gerber Fmt 4.6, Leading zero omitted, Abs format (unit mm)*
G04 Created by KiCad (PCBNEW 8.0.4-8.0.4-0~ubuntu24.04.1) date 2024-09-08 15:52:29*
%MOMM*%
%LPD*%
G01*
G04 APERTURE LIST*
%TA.AperFunction,ComponentPad*%
%ADD10R,1.700000X1.700000*%
%TD*%
%TA.AperFunction,ComponentPad*%
%ADD11O,1.700000X1.700000*%
%TD*%
%TA.AperFunction,Conductor*%
%ADD12C,0.500000*%
%TD*%
G04 APERTURE END LIST*
D10*
%TO.P,J6,1,Pin_1*%
%TO.N,VCC4*%
X138250000Y-118975000D03*
D11*
%TO.P,J6,2,Pin_2*%
%TO.N,GND4*%
X138250000Y-121515000D03*
%TD*%
D10*
%TO.P,J3,1,Pin_1*%
%TO.N,VCC1*%
X144250000Y-118960000D03*
D11*
%TO.P,J3,2,Pin_2*%
%TO.N,GND1*%
X144250000Y-121500000D03*
%TD*%
D10*
%TO.P,J2,1,Pin_1*%
%TO.N,VIN*%
X144250000Y-94475000D03*
D11*
%TO.P,J2,2,Pin_2*%
%TO.N,GND*%
X144250000Y-97015000D03*
%TD*%
D10*
%TO.P,J7,1,Pin_1*%
%TO.N,VCC5*%
X138250000Y-94475000D03*
D11*
%TO.P,J7,2,Pin_2*%
%TO.N,GND5*%
X138250000Y-97015000D03*
%TD*%
D10*
%TO.P,J1,1,Pin_1*%
%TO.N,VIN*%
X148250000Y-94750000D03*
D11*
%TO.P,J1,2,Pin_2*%
%TO.N,GND*%
X148250000Y-97290000D03*
%TO.P,J1,3,Pin_3*%
%TO.N,VCC5*%
X148250000Y-99830000D03*
%TO.P,J1,4,Pin_4*%
%TO.N,GND5*%
X148250000Y-102370000D03*
%TO.P,J1,5,Pin_5*%
%TO.N,VCC4*%
X148250000Y-104910000D03*
%TO.P,J1,6,Pin_6*%
%TO.N,GND4*%
X148250000Y-107450000D03*
%TO.P,J1,7,Pin_7*%
%TO.N,GND3*%
X148250000Y-109990000D03*
%TO.P,J1,8,Pin_8*%
%TO.N,VCC3*%
X148250000Y-112530000D03*
%TO.P,J1,9,Pin_9*%
%TO.N,GND2*%
X148250000Y-115070000D03*
%TO.P,J1,10,Pin_10*%
%TO.N,VCC2*%
X148250000Y-117610000D03*
%TO.P,J1,11,Pin_11*%
%TO.N,GND1*%
X148250000Y-120150000D03*
%TO.P,J1,12,Pin_12*%
%TO.N,VCC1*%
X148250000Y-122690000D03*
%TD*%
D10*
%TO.P,J4,1,Pin_1*%
%TO.N,VCC2*%
X138250000Y-106725000D03*
D11*
%TO.P,J4,2,Pin_2*%
%TO.N,GND2*%
X138250000Y-109265000D03*
%TD*%
D10*
%TO.P,J5,1,Pin_1*%
%TO.N,VCC3*%
X144250000Y-106725000D03*
D11*
%TO.P,J5,2,Pin_2*%
%TO.N,GND3*%
X144250000Y-109265000D03*
%TD*%
D12*
%TO.N,VCC4*%
X138250000Y-118750000D02*
X136250000Y-118750000D01*
X136250000Y-118750000D02*
X135250000Y-117750000D01*
X135250000Y-117750000D02*
X135250000Y-105250000D01*
X135250000Y-105250000D02*
X136250000Y-104250000D01*
X147590000Y-104250000D02*
X148250000Y-104910000D01*
X136250000Y-104250000D02*
X147590000Y-104250000D01*
%TO.N,VCC3*%
X144250000Y-106725000D02*
X141775000Y-106725000D01*
X141250000Y-112000000D02*
X141780000Y-112530000D01*
X141775000Y-106725000D02*
X141250000Y-107250000D01*
X141250000Y-107250000D02*
X141250000Y-112000000D01*
X141780000Y-112530000D02*
X148250000Y-112530000D01*
%TO.N,GND2*%
X138250000Y-109265000D02*
X139750000Y-110765000D01*
X139750000Y-110765000D02*
X139750000Y-114640000D01*
X139750000Y-114640000D02*
X139860000Y-114750000D01*
X139860000Y-114750000D02*
X147930000Y-114750000D01*
X147930000Y-114750000D02*
X148250000Y-115070000D01*
%TO.N,VCC2*%
X138250000Y-106725000D02*
X137525000Y-106725000D01*
X137525000Y-106725000D02*
X136500000Y-107750000D01*
X136500000Y-107750000D02*
X136500000Y-114250000D01*
X136500000Y-114250000D02*
X138250000Y-116000000D01*
X138250000Y-116000000D02*
X146640000Y-116000000D01*
X146640000Y-116000000D02*
X148250000Y-117610000D01*
%TO.N,GND1*%
X148250000Y-120150000D02*
X147100000Y-120150000D01*
X147100000Y-120150000D02*
X146000000Y-121250000D01*
X146000000Y-121250000D02*
X144250000Y-121250000D01*
%TO.N,VCC1*%
X148250000Y-122690000D02*
X147440000Y-123500000D01*
X141500000Y-122500000D02*
X141500000Y-119000000D01*
X147440000Y-123500000D02*
X142500000Y-123500000D01*
X142500000Y-123500000D02*
X141500000Y-122500000D01*
X141500000Y-119000000D02*
X141790000Y-118710000D01*
X141790000Y-118710000D02*
X144250000Y-118710000D01*
%TO.N,GND4*%
X138250000Y-124500000D02*
X138500000Y-124750000D01*
X151000000Y-124500000D02*
X151000000Y-108750000D01*
X138250000Y-121515000D02*
X138250000Y-124500000D01*
X149700000Y-107450000D02*
X148250000Y-107450000D01*
X138500000Y-124750000D02*
X150750000Y-124750000D01*
X151000000Y-108750000D02*
X149700000Y-107450000D01*
X150750000Y-124750000D02*
X151000000Y-124500000D01*
%TO.N,VCC5*%
X141500000Y-95500000D02*
X141500000Y-99250000D01*
X140725000Y-94725000D02*
X141500000Y-95500000D01*
X142080000Y-99830000D02*
X148250000Y-99830000D01*
X141500000Y-99250000D02*
X142080000Y-99830000D01*
X138250000Y-94725000D02*
X140725000Y-94725000D01*
%TO.N,GND5*%
X138250000Y-101750000D02*
X138870000Y-102370000D01*
X138870000Y-102370000D02*
X148250000Y-102370000D01*
X138250000Y-97265000D02*
X138250000Y-101750000D01*
%TO.N,GND*%
X148225000Y-97265000D02*
X148250000Y-97290000D01*
X144250000Y-97265000D02*
X148225000Y-97265000D01*
%TO.N,VIN*%
X148250000Y-94750000D02*
X144275000Y-94750000D01*
X144275000Y-94750000D02*
X144250000Y-94725000D01*
%TO.N,GND3*%
X147525000Y-109265000D02*
X148250000Y-109990000D01*
X144250000Y-109265000D02*
X147525000Y-109265000D01*
%TD*%
M02*
